<svg xmlns="http://www.w3.org/2000/svg" width="14" height="13.062" viewBox="0 0 14 13.062">
  <path id="Star" d="M20.241,19.683l1.7,2.994a.759.759,0,0,0,.535.379l3.444.653a.759.759,0,0,1,.6.514.733.733,0,0,1-.172.756l-2.393,2.5a.729.729,0,0,0-.2.614l.428,3.4a.739.739,0,0,1-.317.711.782.782,0,0,1-.791.074l-3.18-1.447a.775.775,0,0,0-.661,0l-3.18,1.447a.781.781,0,0,1-.791-.074.738.738,0,0,1-.317-.711l.427-3.4a.73.73,0,0,0-.2-.614l-2.393-2.5a.733.733,0,0,1-.172-.756.759.759,0,0,1,.6-.514l3.444-.653a.759.759,0,0,0,.535-.379l1.7-2.994a.793.793,0,0,1,1.369,0Z" transform="translate(-12.556 -19.29)" fill="#108fe5" fill-rule="evenodd"/>
</svg>
