<svg xmlns="http://www.w3.org/2000/svg" width="24" height="24" viewBox="0 0 24 24">
  <g id="AboutUs" transform="translate(-1447 -184)">
    <g id="Complimentary" transform="translate(-19 46)">
      <g id="Group_47958" data-name="Group 47958" transform="translate(1444 -182)">
        <rect id="Rectangle_20" data-name="Rectangle 20" width="24" height="24" rx="12" transform="translate(22 320)" fill="#2096f3"/>
      </g>
    </g>
    <g id="Group_47960" data-name="Group 47960" transform="translate(43.665 -90.097)">
      <g id="Group_47959" data-name="Group 47959" transform="translate(1411.335 279.097)">
        <path id="Path_55" data-name="Path 55" d="M72.686,145.68l3.481,5.128a6.709,6.709,0,0,0,.16-2.9,11.679,11.679,0,0,0-1.43-3.929A14.343,14.343,0,0,1,73.69,145a10.071,10.071,0,0,1-1,.681" transform="translate(-68.815 -136.308)" fill="#fff"/>
        <path id="Path_56" data-name="Path 56" d="M10.964,5.949a7.541,7.541,0,0,1,1.509-.968c.1-.06.187-.122.272-.188a2.041,2.041,0,0,1-.323-.269,8.473,8.473,0,0,1-1.3-1.476A1.634,1.634,0,0,1,11.1,1.064,1.463,1.463,0,0,1,11.55.7,1.214,1.214,0,0,1,12.1.576a1.411,1.411,0,0,1,.537.152c.064.031.652.4.651.4v.015L13.45.967a2.938,2.938,0,0,1,.228-.19,1.821,1.821,0,0,1,.731-.344c.392-.054.848.094,1.256.767a1.4,1.4,0,0,0-.25-.578h0A1.257,1.257,0,0,0,15.126.3a.83.83,0,0,0-.082-.057h0A.575.575,0,0,0,14.963.2,1.321,1.321,0,0,0,13.634.45c-.034.028-.368.308-.341.366-.093-.2-.384-.357-.56-.475a2.071,2.071,0,0,0-.813-.313,1.291,1.291,0,0,0-.562.007A2.986,2.986,0,0,0,9.622,1.872a3.376,3.376,0,0,0-.2,1.639,7.007,7.007,0,0,0,.547,1.775,6.385,6.385,0,0,0,.559,1.078l.035-.034q.192-.2.406-.382" transform="translate(-8.891 -0.001)" fill="#fff"/>
        <path id="Path_57" data-name="Path 57" d="M7.084,29.409a1.7,1.7,0,0,1-.185-.242c.276.734-.446,1.724-.446,1.724a5.282,5.282,0,0,1-.9.856c-1.046.8-2.312,1.135-3.315,2a6.431,6.431,0,0,0-2.1,4A7.888,7.888,0,0,0,.4,41.727a2.836,2.836,0,0,1,.116-.889,6.969,6.969,0,0,1,.163-.787,5.3,5.3,0,0,1,.976-1.9,6.524,6.524,0,0,1,2-1.331,9.691,9.691,0,0,0,1.065-.716A7.631,7.631,0,0,0,7.6,32.575,3.7,3.7,0,0,0,7.442,30.1a3.984,3.984,0,0,0-.357-.692" transform="translate(0 -27.614)" fill="#fff"/>
      </g>
    </g>
  </g>
</svg>
