<svg xmlns="http://www.w3.org/2000/svg" width="24" height="24" viewBox="0 0 24 24">
  <g id="Group_47848" data-name="Group 47848" transform="translate(-23 -219)">
    <rect id="Rectangle_5" data-name="Rectangle 5" width="24" height="24" rx="4" transform="translate(23 219)" fill="#2096f3"/>
    <path id="noun-settings-2650522" d="M15.173,6.222h-1.5a.558.558,0,0,1-.531-.357.55.55,0,0,1,.125-.626l1.059-1.059a.822.822,0,0,0,0-1.162l-1.35-1.35a.842.842,0,0,0-1.165,0L10.754,2.728a.573.573,0,0,1-.978-.406V.827A.826.826,0,0,0,8.952,0H7.04a.826.826,0,0,0-.826.826v1.5a.573.573,0,0,1-.978.406L4.178,1.669a.842.842,0,0,0-1.165,0l-1.35,1.35a.822.822,0,0,0,0,1.162L2.72,5.242a.574.574,0,0,1-.406.981H.826A.824.824,0,0,0,0,7.04V8.96a.824.824,0,0,0,.826.826h1.5a.558.558,0,0,1,.531.357.55.55,0,0,1-.133.616L1.661,11.818a.822.822,0,0,0,0,1.162l1.35,1.35a.842.842,0,0,0,1.165,0L5.235,13.27a.573.573,0,0,1,.978.406v1.5A.826.826,0,0,0,7.04,16H8.96a.826.826,0,0,0,.826-.826v-1.5a.56.56,0,0,1,.354-.531.55.55,0,0,1,.626.125l1.059,1.059a.842.842,0,0,0,1.165,0l1.35-1.35a.822.822,0,0,0,0-1.162L13.28,10.758a.574.574,0,0,1,.406-.981h1.5A.826.826,0,0,0,16,8.96V7.04A.829.829,0,0,0,15.173,6.222ZM8,10.08A2.08,2.08,0,1,1,10.08,8,2.08,2.08,0,0,1,8,10.08Z" transform="translate(27 223)" fill="#fff"/>
  </g>
</svg>
