<svg xmlns="http://www.w3.org/2000/svg" width="11.695" height="23.5" viewBox="140.576 1991.167 11.695 23.5"><g data-name="noun-exercise-3344353"><path d="M149.458 1999.76s1.466 4.013 1.726 5.705c.26 1.69 1.074 7.927 1.074 7.927a1.106 1.106 0 0 1-2.185.336l-1.442-6.777-3.144 7.05a1.106 1.106 0 1 1-2.029-.88l2.808-7.525-1.59-4.055-1.29.292 1.24 2.152a1.106 1.106 0 0 1-1.915 1.105l-1.987-3.454a1.109 1.109 0 0 1 .716-1.631s3.001-1.114 4.587-1.811a15.19 15.19 0 0 1 1.629-.575c.18-.054 2.48-5.745 2.48-5.745a1.106 1.106 0 0 1 2.061.796l-2.739 7.09Z" fill="#333" fill-rule="evenodd" data-name="Path 92700"/><path d="M142.716 1995.285a2.126 2.126 0 1 1 0 .1z" fill="#333" fill-rule="evenodd" data-name="Ellipse 3107"/></g></svg>