<svg xmlns="http://www.w3.org/2000/svg" width="24" height="23.931" viewBox="0 0 24 23.931">
  <g id="Add" transform="translate(-303 -148)">
    <g id="Group_48047" data-name="Group 48047" transform="translate(303 148)">
      <g id="noun-plus-1020986">
        <path id="Path_92758" data-name="Path 92758" d="M19.446,7.5h-.07a11.966,11.966,0,0,0-.07,23.931h.07A11.965,11.965,0,1,0,19.443,7.5ZM26.8,26.974a10.487,10.487,0,0,1-7.421,3.049h-.065a10.558,10.558,0,0,1,.062-21.116h.062A10.558,10.558,0,0,1,26.8,26.974Z" transform="translate(-7.375 -7.5)" fill="#4fb4f8"/>
        <path id="Path_92759" data-name="Path 92759" d="M31.471,29.965l.042-6.725a.747.747,0,0,0-.744-.75h0a.747.747,0,0,0-.75.75l-.039,6.722-6.732-.045h0a.747.747,0,1,0,0,1.494l6.726.039-.045,6.728a.747.747,0,0,0,.744.75h0a.747.747,0,0,0,.75-.75l.039-6.722,6.726.039h0a.747.747,0,1,0,0-1.494Z" transform="translate(-18.72 -18.743)" fill="#4fb4f8"/>
      </g>
    </g>
  </g>
</svg>
