<svg xmlns="http://www.w3.org/2000/svg" width="18" height="18" viewBox="0 0 18 18">
  <g id="noun-add-1117284" transform="translate(-17 -17)">
    <path id="Path_100420" data-name="Path 100420" d="M26,35a9,9,0,1,0-9-9A9.009,9.009,0,0,0,26,35Zm0-15.818A6.818,6.818,0,1,1,19.182,26,6.821,6.821,0,0,1,26,19.182Z" fill="#000"/>
    <path id="Path_100421" data-name="Path 100421" d="M32.091,37.273h3v3a1.091,1.091,0,0,0,2.182,0v-3h3a1.091,1.091,0,0,0,0-2.182h-3v-3a1.091,1.091,0,0,0-2.182,0v3h-3a1.091,1.091,0,0,0,0,2.182Z" transform="translate(-10.182 -10.182)" fill="#000"/>
  </g>
</svg>
