<svg xmlns="http://www.w3.org/2000/svg" width="24" height="24" viewBox="0 0 24 24">
  <g id="AI_Matched_Survivors" data-name="AI Matched Survivors" transform="translate(-41 -287)">
    <g id="Group_47935" data-name="Group 47935" transform="translate(41 286.862)">
      <rect id="Rectangle_16" data-name="Rectangle 16" width="24" height="24" rx="12" transform="translate(0 0.138)" fill="#9b26af"/>
    </g>
    <path id="Subtraction_5" data-name="Subtraction 5" d="M7.6,16.388H5.108a10.524,10.524,0,0,1-3.666-.412A2.3,2.3,0,0,1,0,13.568,4.7,4.7,0,0,1,.511,11.44,5.5,5.5,0,0,1,1.9,9.7,6.66,6.66,0,0,1,3.97,8.53a7.665,7.665,0,0,1,5.06,0A6.66,6.66,0,0,1,11.1,9.7a5.5,5.5,0,0,1,1.393,1.738A4.7,4.7,0,0,1,13,13.568a2.659,2.659,0,0,1-.419,1.564,2.364,2.364,0,0,1-1.149.844A11.621,11.621,0,0,1,7.6,16.388ZM6.721,14.3h.5v.66a.226.226,0,0,0,.21.224.217.217,0,0,0,.21-.224V14.3a.7.7,0,0,0,.494-.227.8.8,0,0,0,.212-.528h.618a.224.224,0,0,0,0-.448H8.343v-.53h.618a.224.224,0,0,0,0-.448H8.343V11.6h.6a.226.226,0,0,0,.21-.224.218.218,0,0,0-.21-.224H8.321a.8.8,0,0,0-.212-.527.7.7,0,0,0-.494-.227v-.66a.226.226,0,0,0-.21-.224.217.217,0,0,0-.21.224v.66H6.7v-.66a.21.21,0,1,0-.419,0v.66h-.5v-.66a.226.226,0,0,0-.21-.224.217.217,0,0,0-.21.224v.66a.7.7,0,0,0-.494.227.8.8,0,0,0-.213.527H4.039a.226.226,0,0,0-.21.224.217.217,0,0,0,.21.224h.618v.531H4.039a.224.224,0,0,0,0,.448h.618v.531H4.039a.224.224,0,0,0,0,.448h.618a.8.8,0,0,0,.213.527.7.7,0,0,0,.494.227v.66a.235.235,0,0,0,.232.212.217.217,0,0,0,.21-.224V14.3h.5v.66a.21.21,0,1,0,.419,0V14.3Zm.9-.442H5.375a.3.3,0,0,1-.287-.306V11.145a.3.3,0,0,1,.287-.307H7.626a.287.287,0,0,1,.287.307v2.405A.3.3,0,0,1,7.626,13.857Zm-1.772-1.77a.219.219,0,0,0-.215.207.247.247,0,0,0,.057.172l.463.519a.2.2,0,0,0,.309,0l.838-.955a.242.242,0,0,0,.055-.173.213.213,0,0,0-.077-.146.2.2,0,0,0-.3.012L6.3,12.5,6,12.159A.192.192,0,0,0,5.853,12.087Zm.559-5.116a3.123,3.123,0,0,1-2.3-1.021,3.594,3.594,0,0,1-.952-2.465,3.593,3.593,0,0,1,.952-2.464,3.1,3.1,0,0,1,4.6,0,3.593,3.593,0,0,1,.952,2.464A3.594,3.594,0,0,1,8.711,5.95,3.123,3.123,0,0,1,6.412,6.971Z" transform="translate(47 290)" fill="#fff"/>
  </g>
</svg>
