<svg xmlns="http://www.w3.org/2000/svg" width="17.415" height="29.5" viewBox="0 0 17.415 29.5">
  <g id="Anti_cancer" data-name="Anti cancer" transform="translate(-24 -7.5)">
    <rect id="Rectangle_8466" data-name="Rectangle 8466" width="14" height="5" rx="2" transform="translate(25.707 7.5)" fill="#ff8000"/>
    <path id="Path_99868" data-name="Path 99868" d="M39.842,27.226A6.245,6.245,0,0,1,38.545,24H26.87a6.244,6.244,0,0,1-1.3,3.226A7.613,7.613,0,0,0,24,31.982V46.494a.725.725,0,0,0,.726.726H40.689a.725.725,0,0,0,.726-.726V31.982A7.614,7.614,0,0,0,39.842,27.226Zm-2.781,9.835h-2.9v2.9h-2.9v-2.9h-2.9v-2.9h2.9v-2.9h2.9v2.9h2.9Z" transform="translate(0 -10.22)" fill="#ff8000"/>
  </g>
</svg>
