<svg id="ACD" xmlns="http://www.w3.org/2000/svg" width="21.729" height="26.712" viewBox="0 0 21.729 26.712">
  <path id="Path_92745" data-name="Path 92745" d="M24.151,50.394c1.082.1,1.766-.578,4.117-.578s3.035.674,4.117.578c4.3-.384,9.429-12.455,5.246-17.236A7.269,7.269,0,0,0,33.2,30.6c-1.863-.2-2.321.765-4.751.788-2.531.027-3.065-1.005-5.022-.808A7.48,7.48,0,0,0,18.9,33.158C15.009,37.245,19.724,50,24.151,50.394Z" transform="translate(-17.455 -23.691)" fill="#7edc50"/>
  <path id="Path_92746" data-name="Path 92746" d="M38.106,17.238a6.519,6.519,0,0,0,1.262.144c-.174-.25-.347-.5-.521-.755l.932-1.286a6.947,6.947,0,0,0,4.835-.708,10.772,10.772,0,0,0,3.339-4.157S44.163,9.264,42,10.7a6.951,6.951,0,0,0-2.534,4.19l-.935,1.292a10.252,10.252,0,0,0-3.566-3.526l-.668,1.4A10.234,10.234,0,0,1,38.106,17.238Z" transform="translate(-28.675 -9.998)" fill="#7edc50"/>
</svg>
