<svg xmlns="http://www.w3.org/2000/svg" width="24" height="24" viewBox="0 0 24 24">
  <g id="Group_47826" data-name="Group 47826" transform="translate(-22 -219)">
    <rect id="Rectangle_17" data-name="Rectangle 17" width="24" height="24" rx="4" transform="translate(22 219)" fill="#4caf4f"/>
    <g id="noun-apple-4536633" transform="translate(9.545 212.002)">
      <path id="Path_80169" data-name="Path 80169" d="M22.078,43.978c.747.066,1.219-.391,2.842-.391s2.1.456,2.842.391c2.969-.26,6.509-8.427,3.621-11.662a5.033,5.033,0,0,0-3.056-1.731c-1.286-.133-1.6.517-3.28.533-1.747.018-2.116-.68-3.467-.547a5.18,5.18,0,0,0-3.126,1.744C15.767,35.081,19.021,43.711,22.078,43.978Z" transform="translate(0 -15.546)" fill="#fff"/>
      <path id="Path_80170" data-name="Path 80170" d="M37.079,15.283a4.759,4.759,0,0,0,.921.1c-.127-.183-.254-.366-.38-.551l.68-.938a5.071,5.071,0,0,0,3.53-.517,7.864,7.864,0,0,0,2.438-3.035s-2.767-.885-4.344.163a5.074,5.074,0,0,0-1.85,3.059l-.683.943a7.484,7.484,0,0,0-2.6-2.574L34.3,12.96A7.471,7.471,0,0,1,37.079,15.283Z" transform="translate(-13.601)" fill="#fff"/>
    </g>
  </g>
</svg>
