<svg xmlns="http://www.w3.org/2000/svg" width="60" height="60" viewBox="0 0 60 60">
  <g id="Anxiety" transform="translate(-30 -779)">
    <circle id="Ellipse_3126" data-name="Ellipse 3126" cx="30" cy="30" r="30" transform="translate(30 779)" fill="#f5f6fa"/>
    <g id="noun-anxiety-4660868" transform="translate(-284.512 503.08)">
      <path id="Path_92981" data-name="Path 92981" d="M358.183,308.176l-2.477-2.891h0a.781.781,0,0,1-.191-.508v-2.344a12.5,12.5,0,1,0-23.89,5.145,13.641,13.641,0,0,0,2.106,3.059c.313.391.637.781.949,1.172a14.7,14.7,0,0,1,2.559,4.883,18.927,18.927,0,0,1,.668,4.524.781.781,0,0,0,.781.75h7.841a.781.781,0,0,0,.781-.781v-1.563a2.343,2.343,0,0,1,2.344-2.344h3.516a2.344,2.344,0,0,0,2.344-2.344v-4.688a.781.781,0,0,1,.781-.781h1.293a.781.781,0,0,0,.594-1.289Zm-9.954-8.06-6.641,10.548a.781.781,0,0,1-.66.363.728.728,0,0,1-.238-.039.781.781,0,0,1-.543-.781l.344-5.821h-3.078a.781.781,0,0,1-.781-.914l1.563-8.985h0a.781.781,0,0,1,.781-.648h6.641a.781.781,0,0,1,.688,1.172l-2.113,3.907h3.379a.781.781,0,0,1,.66,1.2Z" transform="translate(0 0)" fill="#4fb4f8"/>
      <path id="Path_92982" data-name="Path 92982" d="M485.891,400.645a.781.781,0,0,1,0-.781L488,395.957h-4.688l-1.289,7.423H485a.781.781,0,0,1,.781.828l-.215,3.606,4.27-6.778h-3.274a.782.782,0,0,1-.672-.391Z" transform="translate(-143.683 -100.556)" fill="#4fb4f8"/>
    </g>
  </g>
</svg>
