<svg xmlns="http://www.w3.org/2000/svg" xmlns:xlink="http://www.w3.org/1999/xlink" width="60" height="60" viewBox="0 0 60 60">
  <defs>
    <clipPath id="clip-path">
      <path id="Path_92960" data-name="Path 92960" d="M527,674h22.4v3.429H527Z" transform="translate(-527 -674)" fill="#4fb4f8"/>
    </clipPath>
    <clipPath id="clip-path-2">
      <path id="Path_92965" data-name="Path 92965" d="M222.14,537h6.7v20.969h-6.7Z" transform="translate(-222.14 -537)" fill="#4fb4f8"/>
    </clipPath>
  </defs>
  <g id="Appetite_loss" data-name="Appetite loss" transform="translate(-30 -489)">
    <circle id="Ellipse_3126" data-name="Ellipse 3126" cx="30" cy="30" r="30" transform="translate(30 489)" fill="#f5f6fa"/>
    <g id="noun-no-appetite-2745798" transform="translate(-179.01 264.226)">
      <g id="Group_48081" data-name="Group 48081" transform="translate(237.288 255.71)" clip-path="url(#clip-path)">
        <path id="Path_92959" data-name="Path 92959" d="M529.555,675.4a1.57,1.57,0,0,1-1.841-.707h-.182v1.356h1.32v2h19.736v-2h1.32V674.7H530.431A1.56,1.56,0,0,1,529.555,675.4Z" transform="translate(-527.506 -674.661)" fill="#4fb4f8"/>
      </g>
      <path id="Path_92961" data-name="Path 92961" d="M286.005,506.168a3.8,3.8,0,0,1-2.8-1.879,1.183,1.183,0,0,0-.54.089c-.834.235-2.89,1.173-4.365,4.856-.187.466-.364.976-.529,1.534a1.73,1.73,0,0,0,.349,1.657c.552.633,1.552.921,3.268.921q.438,0,.941-.025c1.391-.068,2.655-.258,2.708-.266a1.233,1.233,0,1,0-.369-2.439,18.943,18.943,0,0,1-4.327.208c.054-.159.109-.309.165-.456a9.652,9.652,0,0,1,1.04-2.047l-.293,2.215.13,0a23.066,23.066,0,0,0,3.234-.257,1.573,1.573,0,0,1,1.5,2.489,1.562,1.562,0,0,1-1.031.622c-.053.008-1.324.2-2.742.269-.341.017-.663.025-.957.025-.192,0-.373,0-.549-.012l-.278,2.1a1.174,1.174,0,0,0-.009.165,1.874,1.874,0,0,0,1.065,2.041V515.96a2.369,2.369,0,0,1,4.633-.7,2.365,2.365,0,0,1,3-1.553l.382-2.889-1.59-4.942a3.785,3.785,0,0,1-2.033.291Z" transform="translate(-52.792 -257.009)" fill="#4fb4f8"/>
      <path id="Path_92962" data-name="Path 92962" d="M390.273,402.05a1.574,1.574,0,0,1,1.4-.855,1.586,1.586,0,0,1,.172.01,3.471,3.471,0,1,0-1.73,1.771,1.563,1.563,0,0,1,.159-.926Z" transform="translate(-154.949 -154.443)" fill="#4fb4f8"/>
      <path id="Path_92963" data-name="Path 92963" d="M494.163,509.639a1.234,1.234,0,0,0,1.174-1.611L493.2,501.4a1.233,1.233,0,1,0-2.348.755l2.133,6.63a1.233,1.233,0,0,0,1.174.856Z" transform="translate(-255.308 -253.451)" fill="#4fb4f8"/>
      <g id="Group_48082" data-name="Group 48082" transform="translate(222.14 248.902)" clip-path="url(#clip-path-2)">
        <path id="Path_92964" data-name="Path 92964" d="M224.436,555.407q.171-1.437.27-2.878h4.127v-1.7H224.8a58.477,58.477,0,0,0-.179-7.458c-.016-.177-.033-.353-.05-.529q-.258-2.653-.757-5.282l-1.666.318a56.775,56.775,0,0,1,.119,20.61h1.723c.124-.718.232-1.438.329-2.159h4.513v-.925Z" transform="translate(-222.148 -537.535)" fill="#4fb4f8"/>
      </g>
      <path id="Path_92966" data-name="Path 92966" d="M369.783,702.763a1.906,1.906,0,0,0-3.813,0v9.37a1.906,1.906,0,0,0,3.813,0Z" transform="translate(-136.683 -443.813)" fill="#4fb4f8"/>
      <path id="Path_92967" data-name="Path 92967" d="M457.09,702.763v9.37a1.906,1.906,0,0,0,3.813,0v-9.37a1.906,1.906,0,0,0-3.813,0Z" transform="translate(-223.276 -443.813)" fill="#4fb4f8"/>
      <path id="Path_92968" data-name="Path 92968" d="M575.83,757.32h2.107v10.253H575.83Z" transform="translate(-336.115 -497.47)" fill="#4fb4f8"/>
      <path id="Path_92969" data-name="Path 92969" d="M887.16,757.32h2.107v10.253H887.16Z" transform="translate(-631.976 -497.47)" fill="#4fb4f8"/>
      <path id="Path_92970" data-name="Path 92970" d="M716.611,618.738v-.365c1.669-.118,2.852-.4,2.852-.618a4.774,4.774,0,0,0-1.561-.168.568.568,0,0,0,.007-.068.561.561,0,0,0-.561-.561.553.553,0,0,0-.276.075.747.747,0,0,0-1.1-.321.81.81,0,0,0-1.326.178.654.654,0,0,0-.652-.084.743.743,0,0,0-1.19.179.555.555,0,0,0-.167-.028.541.541,0,0,0-.554.629,4.773,4.773,0,0,0-1.561.168c0,.221,1.184.5,2.852.618v.365h3.238Zm-3.876-1.579a.75.75,0,0,0-.022.173.719.719,0,0,0,.011.113.739.739,0,0,1,1.1-.535.656.656,0,0,0-.236.446.657.657,0,0,1,.942-.155.749.749,0,0,1,1.167-.163.744.744,0,0,0-.06.294.719.719,0,0,0,.011.113.744.744,0,0,1,1.472,0,.632.632,0,0,0-.01-.284.45.45,0,0,1,.075-.008.462.462,0,0,1,.46.425c-1.549-.051-3.764-.051-5.313,0a.459.459,0,0,1,.4-.418Z" transform="translate(-464.114 -363.595)" fill="#4fb4f8"/>
      <path id="Path_92971" data-name="Path 92971" d="M627.667,611.682a1.648,1.648,0,0,0,1.371-.061c.7-.278,1.159-.773,1.027-1.1-.107-.272-1.81.347-2.363.765l-3.4,1.352.133.335Zm1.94-.944c.043.108-.278.336-.716.511s-.829.228-.872.121A4.242,4.242,0,0,1,629.607,610.738Z" transform="translate(-382.175 -357.898)" fill="#4fb4f8"/>
      <path id="Path_92972" data-name="Path 92972" d="M483.242,243.1a1.887,1.887,0,0,0-.735.134c-.06.028-.18.1-.12.178.474.629,1.387.321,1.772-.253a1.184,1.184,0,0,0,.171-.357c1.046.078,2.068-.255,1.989-1.337a1.11,1.11,0,0,0-.019-.135,1.087,1.087,0,0,0,.126-.109.434.434,0,0,0,.026-.641l.007-.007a5.69,5.69,0,0,0,1.765-.755,2.466,2.466,0,0,0,.6-.568,2.9,2.9,0,0,0,.8-.27c1.357-.725-.413-2.755-1.063-3.384-1.175-1.137-2.916-2.111-4.595-1.634a2.866,2.866,0,0,0-1.154.659,7.32,7.32,0,0,0-1.414-.017,2.581,2.581,0,0,0-2.335,1.311,1.306,1.306,0,0,0,.793,1.851,2.006,2.006,0,0,0,.8,1.256,2.653,2.653,0,0,0,.34.2,1.174,1.174,0,0,0,.474.561.409.409,0,0,0-.022.326.709.709,0,0,0,.088.181c-.331.183-.566.453-.135.766a5.273,5.273,0,0,0,2.494.63,5.2,5.2,0,0,0,1.984-.141.976.976,0,0,1-.12.539,1.319,1.319,0,0,1-1.417.477c-.081-.568-1.076-.725-1.666-.7-.066,0-.413.089-.295.213a2.911,2.911,0,0,0,1.5.67.779.779,0,0,1-.017.128c-.1.466-.578.772-.94.5l.246-.026c.215-.028.372-.286.062-.246Zm2.839-2.247h0l0,.009Zm-4.573-2.724c.187.016.376.027.564.033a1.291,1.291,0,0,0-.457.966c-.068-.026-.135-.054-.2-.085A.958.958,0,0,1,481.508,238.13Zm-.258-.3a4.44,4.44,0,0,1-.915-.245c.027-.176.152-.31.44-.341a3.355,3.355,0,0,1,1.11.1,2.067,2.067,0,0,0-.616.484Zm1.092-1.181a2.394,2.394,0,0,1,.637-1.753,10.493,10.493,0,0,1,1.952.561,4.748,4.748,0,0,1,2.16,1.522,12.683,12.683,0,0,0-1.3-.141,6.881,6.881,0,0,0-1.687.038,5.581,5.581,0,0,0-1.687.252,2.214,2.214,0,0,1-.071-.478Zm6.256,2.409c-.214.025-.419.036-.569.05-.236.022-.475.036-.713.045a5.792,5.792,0,0,0,1.431-.607A.833.833,0,0,1,488.6,239.055Zm-2.4,1.29a3.121,3.121,0,0,0-.363-.226q.206-.027.412-.059A.6.6,0,0,1,486.2,240.345Zm-3.977-.711a1.45,1.45,0,0,1,.146-.023,10.082,10.082,0,0,0,1.154.072h.044a7.012,7.012,0,0,1,1.221.295q-.187.011-.375.017a4.612,4.612,0,0,0-1.684-.066,3.042,3.042,0,0,1-.376-.091A1.429,1.429,0,0,1,482.22,239.634Zm-.138-.371a1.027,1.027,0,0,1,.372-1.094h.044A2.941,2.941,0,0,0,484,238.9a3.91,3.91,0,0,0,.872.349,6.257,6.257,0,0,0,.658.111,12.7,12.7,0,0,1-1.72.082,5.719,5.719,0,0,0-1.11-.069,5.718,5.718,0,0,1-.62-.1v0Zm4.888-1.068a1.712,1.712,0,0,1-1.136.539,7.65,7.65,0,0,0-1.15-.732l.1-.018a5.95,5.95,0,0,0,1.492-.427c.061-.029.157-.094.127-.157q.422.019.84.077a1.049,1.049,0,0,1-.276.718Zm-1.308-.8c.067.028.132.057.2.09a6.5,6.5,0,0,1-1.445.382c-.2-.095-.373-.169-.506-.218l-.127-.045a9.564,9.564,0,0,1,1.515-.2C485.417,237.4,485.54,237.4,485.662,237.394Zm-2.148.5c-.007-.018-.011-.033-.016-.05.094.032.188.064.282.1-.078.006-.156.011-.234.016C483.535,237.934,483.523,237.914,483.514,237.891Zm-.528-.037a.649.649,0,0,0,.028.118h-.11l-.053-.054C482.894,237.9,482.939,237.874,482.985,237.854Zm.65.269c.173-.013.337-.029.487-.045.14.06.279.124.412.194a5.587,5.587,0,0,1,.739.487,5.612,5.612,0,0,1-1.137-.156l-.027-.007A1.614,1.614,0,0,1,483.636,238.123Zm1.9.854c.043.038.085.077.126.116a5.567,5.567,0,0,1-.551-.1C485.259,239,485.4,238.988,485.537,238.977Zm.362-1.839c-.044-.015-.088-.03-.134-.045.136.012.272.027.406.046C486.082,237.138,485.99,237.138,485.9,237.138Zm-1.031.05a7.54,7.54,0,0,0-1.336.246.918.918,0,0,1,.568-.287A5.056,5.056,0,0,1,484.868,237.189Zm-1.721.168c-.008.009-.013.019-.021.028q-.137-.042-.274-.082a3.2,3.2,0,0,1,.329-.072l.11-.016A1.021,1.021,0,0,0,483.146,237.356Zm-.232.293c-.068.029-.135.058-.2.09l-.007,0a1.8,1.8,0,0,1-.13-.2Zm.578,2.6c.238.009.477.007.716,0l.071.017a3.525,3.525,0,0,1,.773.3,3.857,3.857,0,0,1-2.32-.376C483,240.223,483.269,240.239,483.493,240.247Zm1.619-.048.168-.016a2.688,2.688,0,0,1,.467.291l-.068.011a2.929,2.929,0,0,0-.567-.286Zm.322-.274a6.507,6.507,0,0,0-.75-.283A12.572,12.572,0,0,0,486,239.47a1.46,1.46,0,0,1,.2.361q-.381.056-.764.094Zm2.986-2.031a1.321,1.321,0,0,1,.256.367l-.074.056a5.532,5.532,0,0,1-1.946.841c-.123,0-.247-.008-.369-.014-.076-.081-.159-.162-.247-.24.75-.163,1.572-.581,1.633-1.357.137.027.274.057.41.093A1.408,1.408,0,0,1,488.42,237.894Zm-6.32-.285c.017.036.034.071.053.107a1.862,1.862,0,0,0,.151.233c-.2-.013-.4-.032-.595-.055a2.066,2.066,0,0,1,.39-.285Zm.091,2.651a3.712,3.712,0,0,0,2.385.562c.262-.006.531-.025.8-.055.038.028.074.058.108.088a5.082,5.082,0,0,1-1.476.084,3.556,3.556,0,0,1-1.414-.375,2.8,2.8,0,0,1-.475-.284l.071-.02Zm4.487-.026a.7.7,0,0,0,.037-.253c.248-.044.495-.091.739-.143.273-.057.211-.278-.059-.221q-.358.075-.721.138a1.335,1.335,0,0,0-.174-.344c.323,0,.646-.01.965-.027.287-.016.6-.031.907-.066a4.862,4.862,0,0,1-1.695.917Zm-1.355-6.08a5.945,5.945,0,0,1,3.033,1.824c.456.478,1.714,1.919,1.257,2.657a.969.969,0,0,1-.625.354,1.155,1.155,0,0,0,.135-.732,2.235,2.235,0,0,0,.258-.273.07.07,0,0,0,0-.091,2.458,2.458,0,0,0-1.037-.53,3.512,3.512,0,0,0-.721-.273c-.266-.951-1.518-1.531-2.335-1.852a9.745,9.745,0,0,0-2.075-.566,2.562,2.562,0,0,1,2.111-.518Zm-5.851,2.645a1.4,1.4,0,0,1,.7-1.654,4.1,4.1,0,0,1,2.434-.311,2.65,2.65,0,0,0-.682,2.249c-.139-.025-.279-.047-.418-.063-.453-.053-1.207-.114-1.526.312a.531.531,0,0,0-.029.048,1.213,1.213,0,0,1-.479-.58Zm.911,1.146a5.865,5.865,0,0,0,.713.139,1.452,1.452,0,0,0-.168.649c-.034-.029-.067-.059-.1-.09A2.059,2.059,0,0,1,480.383,237.946Zm1.564,2.064c.023.029.046.058.071.086l-.059.019a.411.411,0,0,1-.061-.122Zm1.805,1.39c-.408-.053-2.021-.193-2.144-.716a.207.207,0,0,1,.093-.207,3.582,3.582,0,0,0,1.617.655,5.151,5.151,0,0,0,2.343-.1,1.087,1.087,0,0,1,.147.23,5.859,5.859,0,0,1-2.056.135Zm.063,1.048a3,3,0,0,1-.732-.322A.981.981,0,0,1,483.814,242.448Z" transform="translate(-244.034 0)" fill="#4fb4f8"/>
    </g>
  </g>
</svg>
