<svg xmlns="http://www.w3.org/2000/svg" width="18" height="22.128" viewBox="39.915 575 18 22.128"><g data-name="noun-apple-4536633"><path d="M47.64 581.05c.298.063.638.11 1.054.12l-.435-.631.778-1.075c.737.134 2.62.352 4.04-.591 1.805-1.197 2.79-3.474 2.79-3.474s-3.167-1.012-4.972.187c-1.428.946-1.955 2.776-2.117 3.502l-.782 1.08c-.845-1.2-1.752-2.344-2.98-2.947l-.557 1.17c1.548.736 2.514 1.782 3.18 2.658Z" fill="#4caf4f" fill-rule="evenodd" data-name="Path 80170"/><path d="M45.463 597.12c.896.08 1.463-.477 3.41-.477s2.514.557 3.41.477c3.563-.317 7.812-10.286 4.346-14.235-.197-.223-1.59-1.892-3.668-2.112-1.543-.163-1.922.631-3.936.65-2.096.022-2.539-.83-4.16-.667-2.135.215-3.562 1.933-3.75 2.129-3.226 3.375.68 13.91 4.348 14.235Z" fill="#4caf4f" fill-rule="evenodd" data-name="Path 80169"/></g></svg>