<svg xmlns="http://www.w3.org/2000/svg" width="26.957" height="22.167" viewBox="0 0 26.957 22.167">
  <g id="AskExpert" transform="translate(-4.75 -12.897)">
    <path id="Path_100047" data-name="Path 100047" d="M36.3,24.873l.049-.049.049.049,5.313-5.313A3.757,3.757,0,0,0,36.4,14.247l-.049.049-.049-.049a3.757,3.757,0,0,0-5.313,5.313Zm-.671-9.954.049.049.671.671.671-.671.049-.049a2.807,2.807,0,1,1,3.97,3.97L36.4,23.531l-.049-.049-.049.049-4.642-4.642a2.808,2.808,0,1,1,3.971-3.97Z" transform="translate(-17.929 0)" fill="#747474" stroke="#747474" stroke-width="0.5"/>
    <path id="Path_100048" data-name="Path 100048" d="M58.141,34.8a5.219,5.219,0,0,0-2.563,2.34,8.8,8.8,0,0,0-.729,4.157l-.136,2.789h.95l.134-2.76c0-.012,0-.023,0-.035a7.926,7.926,0,0,1,.633-3.735A4.349,4.349,0,0,1,58.6,35.637c.2-.112.412-.226.624-.351a12.806,12.806,0,0,0,2.606-2.257c.149-.154.294-.306.438-.453.161-.164.868-.818,1.142-1.07a.8.8,0,0,1,1.1,0,.777.777,0,0,1,0,1.1l-4.037,4.038a.475.475,0,0,0-.069.584,1.058,1.058,0,0,0,.157.2.474.474,0,0,0,.81-.342l3.81-3.81a1.727,1.727,0,0,0,0-2.44,1.7,1.7,0,0,0-.778-.44V26.775a1,1,0,0,1,.852-1.016.948.948,0,0,1,1.035.939v8.3A.667.667,0,0,1,66,35.54l.041.041,0,0-4.558,4.559a2.956,2.956,0,0,1-.491.425.475.475,0,0,0-.219.34l-.411,3.183H61.3l.378-2.851a4.9,4.9,0,0,0,.468-.425l4.558-4.558a5.252,5.252,0,0,0,.384-.413.473.473,0,0,0,.083-.441,1.589,1.589,0,0,0,.059-.407V26.7a1.9,1.9,0,0,0-2.073-1.884,1.951,1.951,0,0,0-1.712,1.961v3.64a1.657,1.657,0,0,0-.7.407c-.039.035-.951.874-1.162,1.089-.146.149-.295.3-.446.46a11.928,11.928,0,0,1-2.4,2.1C58.538,34.587,58.336,34.7,58.141,34.8Z" transform="translate(-35.778 -9.277)" fill="#747474" stroke="#747474" stroke-width="0.5"/>
    <path id="Path_100049" data-name="Path 100049" d="M10.552,41.238l.378,2.851h.958l-.422-3.183a.475.475,0,0,0-.219-.34,3,3,0,0,1-.491-.425L6.2,35.584l0,0,.041-.041a.667.667,0,0,1-.286-.546V26.7A.946.946,0,0,1,6.26,26a.933.933,0,0,1,.633-.246c.03,0,.061,0,.092,0a1,1,0,0,1,.852,1.016v3.62a1.708,1.708,0,0,0-.778.44,1.727,1.727,0,0,0,0,2.44l3.811,3.812a.476.476,0,0,0,.816.333,1.035,1.035,0,0,0,.15-.194.474.474,0,0,0-.069-.584L7.728,32.6a.777.777,0,0,1,0-1.1.789.789,0,0,1,1.111.014c.259.238.966.891,1.128,1.056.144.146.289.3.438.452a12.813,12.813,0,0,0,2.606,2.258c.212.124.421.239.624.351A4.348,4.348,0,0,1,15.8,37.561a7.924,7.924,0,0,1,.632,3.734c0,.012,0,.023,0,.035l.146,2.76h.939L17.385,41.3a8.8,8.8,0,0,0-.729-4.156A5.217,5.217,0,0,0,14.094,34.8c-.2-.108-.4-.218-.6-.338a11.917,11.917,0,0,1-2.4-2.1c-.151-.157-.3-.312-.445-.46-.211-.215-1.124-1.054-1.148-1.075a1.7,1.7,0,0,0-.712-.42V26.774a1.951,1.951,0,0,0-1.712-1.961A1.9,1.9,0,0,0,5,26.7v8.3a1.589,1.589,0,0,0,.058.407.475.475,0,0,0,.083.441,5.2,5.2,0,0,0,.384.413l4.558,4.558A4.856,4.856,0,0,0,10.552,41.238Z" transform="translate(0 -9.276)" fill="#747474" stroke="#747474" stroke-width="0.5"/>
  </g>
</svg>
