<svg xmlns="http://www.w3.org/2000/svg" width="24" height="24" viewBox="0 0 24 24">
  <g id="AskExpert" transform="translate(1123 -222)">
    <g id="Group_47961" data-name="Group 47961" transform="translate(-2570 38)">
      <g id="Complimentary" transform="translate(-19 46)">
        <g id="Group_47958" data-name="Group 47958" transform="translate(1444 -182)">
          <rect id="Rectangle_20" data-name="Rectangle 20" width="24" height="24" rx="12" transform="translate(22 320)" fill="#f24236"/>
        </g>
      </g>
    </g>
    <g id="noun-caring-3342405" transform="translate(-1122.334 -731.736)">
      <path id="Path_80311" data-name="Path 80311" d="M9.684,959.736a2.267,2.267,0,0,0-2.219,2.308c0,1.989,3.187,4.143,3.553,4.379a.575.575,0,0,0,.632,0c.366-.236,3.553-2.39,3.553-4.379a2.267,2.267,0,0,0-2.219-2.308,2.17,2.17,0,0,0-1.647.761,2.192,2.192,0,0,0-1.653-.761ZM5.444,964c-.265,0-.508.171-.429.44l.485,1.639.31,1.046c.31,1.046.31,1.046.822,1.558l.512.512.512.512c.512.512.512.512.512,1.271v.759h2.8v-1.58a5.212,5.212,0,0,0-.174-1.876,3.324,3.324,0,0,0-1.033-1.222L8.7,966.114a.471.471,0,1,0-.63.7l.945.85a.208.208,0,1,1-.244.332l-.047-.044-.741-.69a4.018,4.018,0,0,1-1.137-1.381l-.4-.69-.534-.932A.537.537,0,0,0,5.444,964Zm11.78,0a.538.538,0,0,0-.477.262l-.534.931-.4.69a4.017,4.017,0,0,1-1.137,1.381l-.741.69-.047.044a.208.208,0,1,1-.244-.332l.945-.85a.471.471,0,1,0-.63-.7l-1.051.944a3.325,3.325,0,0,0-1.033,1.222,5.212,5.212,0,0,0-.174,1.876v1.58h2.8v-.759c0-.759,0-.759.512-1.271l.512-.512.512-.512c.512-.512.512-.512.822-1.558l.31-1.046.485-1.639c.08-.269-.164-.44-.429-.44Z" transform="translate(0 0)" fill="#fff" fill-rule="evenodd"/>
    </g>
  </g>
</svg>
