<svg xmlns="http://www.w3.org/2000/svg" xmlns:xlink="http://www.w3.org/1999/xlink" width="50" height="50" viewBox="0 0 50 50">
  <defs>
    <clipPath id="clip-path">
      <rect id="Rectangle_81" data-name="Rectangle 81" width="24.036" height="24.02" fill="none"/>
    </clipPath>
  </defs>
  <g id="_1" data-name="1" transform="translate(-23 -599)">
    <g id="Ellipse_2" data-name="Ellipse 2" transform="translate(23 599)" fill="none" stroke="#e3e3e3" stroke-width="1">
      <circle cx="25" cy="25" r="25" stroke="none"/>
      <circle cx="25" cy="25" r="24.5" fill="none"/>
    </g>
    <g id="Group_48222" data-name="Group 48222" transform="translate(36.464 612)">
      <g id="Group_47819" data-name="Group 47819" clip-path="url(#clip-path)">
        <path id="Path_92758" data-name="Path 92758" d="M0,142.507c.119-.369.146-.758.272-1.127a5.55,5.55,0,0,1,1.308-2.167q2.259-2.268,4.525-4.528a5.539,5.539,0,0,1,2.248-1.35.788.788,0,0,0,.3-.116c.369-.047.737-.109,1.108-.138a6.152,6.152,0,0,1,1.872.2c.08.029.158.061.239.088a5.466,5.466,0,0,1,2.2,1.354c-.1,0-.148.081-.207.14-.344.342-.682.688-1.03,1.026a8.918,8.918,0,0,1-.791.762l-.256-.2a2.812,2.812,0,0,0-3.12-.187,1.5,1.5,0,0,0-.512.361q-2.3,2.29-4.586,4.588a2.618,2.618,0,0,0-.751,1.816,2.789,2.789,0,0,0,.842,2.11.252.252,0,0,0-.175.1q-.826.826-1.652,1.651a.8.8,0,0,0-.155.231A5.385,5.385,0,0,1,.219,144.65c-.084-.3-.147-.615-.219-.923v-1.22" transform="translate(0 -124.727)" fill="#40b0fc"/>
        <path id="Path_92759" data-name="Path 92759" d="M26.793,251.879a.8.8,0,0,1,.155-.231q.827-.824,1.652-1.651a.252.252,0,0,1,.175-.1.616.616,0,0,1,.057.04,2.8,2.8,0,0,0,3.928-.1q2.183-2.177,4.361-4.359a2.591,2.591,0,0,0,.477-.633,5.862,5.862,0,0,0,2.15.179c.284-.039.566-.089.849-.133a4.911,4.911,0,0,1-1.24,2.325q-2.377,2.426-4.8,4.806a5.212,5.212,0,0,1-3.1,1.447.122.122,0,0,0-.1.045H30.18c-.051-.047-.116-.039-.177-.047a5.424,5.424,0,0,1-3.21-1.581" transform="translate(-25.113 -229.487)" fill="#108fe5"/>
        <path id="Path_92760" data-name="Path 92760" d="M166.183,39.875c-.283.045-.566.094-.849.133a5.861,5.861,0,0,1-2.15-.179,5.254,5.254,0,0,1-2.4-1.408c.637-.679,1.3-1.332,1.971-1.976l.178.152a2.8,2.8,0,0,0,3.227.265,2.387,2.387,0,0,0,.512-.367c1.5-1.5,3.006-2.983,4.486-4.5a2.623,2.623,0,0,0,.719-2.194,2.943,2.943,0,0,0-.769-1.668c.008-.106.1-.157.159-.222.586-.6,1.206-1.175,1.772-1.8a4.641,4.641,0,0,1,1.3,1.943,5.449,5.449,0,0,1-1.2,5.953c-1.445,1.525-2.96,2.983-4.449,4.465a5.51,5.51,0,0,1-2.5,1.4" transform="translate(-150.7 -24.479)" fill="#19ceab"/>
        <path id="Path_92761" data-name="Path 92761" d="M151.717,1.638c-.567.623-1.186,1.195-1.772,1.8-.064.066-.151.116-.159.222a2.869,2.869,0,0,0-4.138.1c-1.343,1.4-2.74,2.756-4.116,4.129a3.021,3.021,0,0,0-.517.661,6.156,6.156,0,0,0-1.872-.2c-.371.029-.738.091-1.108.138a4.927,4.927,0,0,1,1.283-2.356c1.528-1.553,3.06-3.1,4.623-4.622a5.612,5.612,0,0,1,7.6-.064c.062.058.117.124.175.186" transform="translate(-129.38 0)" fill="#36e3c2"/>
        <path id="Path_92762" data-name="Path 92762" d="M194.139,159.391a5.341,5.341,0,0,1,1.383,2.39,2.8,2.8,0,0,1-3.227-.265c-.059-.051-.118-.1-.178-.152a.249.249,0,0,0-.007-.045,8.916,8.916,0,0,0,.791-.762c.347-.338.686-.685,1.03-1.026.06-.059.108-.138.207-.14" transform="translate(-180.066 -149.398)" fill="#4995fe"/>
        <path id="Path_92763" data-name="Path 92763" d="M141.647,178.527a.239.239,0,0,1,.007.045c-.672.643-1.334,1.3-1.971,1.976a5.323,5.323,0,0,1-1.411-2.41,2.812,2.812,0,0,1,3.12.186l.256.2" transform="translate(-129.602 -166.605)" fill="#36e3c2"/>
      </g>
    </g>
  </g>
</svg>
