<svg xmlns="http://www.w3.org/2000/svg" width="20.415" height="20" viewBox="250.252 87 20.415 20"><g data-name="noun-ayurveda-3569340"><path d="M253.239 101.816a10.212 10.212 0 0 0 17.428-6.904h-20.415a10.14 10.14 0 0 0 2.987 6.904Z" fill="#b17e32" fill-rule="evenodd" data-name="Path 94231"/><path d="M269.867 87.493a.62.62 0 0 0-.383-.371l-.258-.088a.62.62 0 0 0-.706.226l-5.06 7.017h2.708l3.652-6.251a.62.62 0 0 0 .047-.533Z" fill="#b17e32" fill-rule="evenodd" data-name="Path 94230"/><path d="M257.8 92.41a3.887 3.887 0 0 0-3.695-.587c-.086.86.12 1.724.583 2.454h4.42a3.88 3.88 0 0 0-1.308-1.867Z" fill="#94ae2a" fill-rule="evenodd" data-name="Path 94229"/><path d="M261.606 94.277a3.85 3.85 0 0 0 .652-2.118 3.89 3.89 0 0 0-1.778-3.293 3.89 3.89 0 0 0-1.834 3.261.317.317 0 0 1-.04.15 4.509 4.509 0 0 1 1.163 2h1.837Z" fill="#94ae2a" fill-rule="evenodd" data-name="Path 94228"/><path d="M264.066 104.83a10.937 10.937 0 0 1-7.212 0V107h7.212v-2.17Z" fill="#b17e32" fill-rule="evenodd" data-name="Path 94227"/></g></svg>