<svg id="Back" xmlns="http://www.w3.org/2000/svg" width="36" height="36" viewBox="0 0 36 36">
  <path id="Path_100225" data-name="Path 100225" d="M18,0A18,18,0,1,1,0,18,18,18,0,0,1,18,0Z" opacity="0.8" fill="#000"/>
  <g id="Back-2" data-name="Back" transform="translate(-16 -29)">
    <path id="Path" d="M0,7a.984.984,0,0,1,.272-.692L5.986.289A.894.894,0,0,1,7.3.289a1.014,1.014,0,0,1,0,1.383L2.246,7,7.3,12.326a1.025,1.025,0,0,1,0,1.392.908.908,0,0,1-1.316,0L.272,7.695A1.015,1.015,0,0,1,0,7Z" transform="translate(30 40)" fill="#fff" stroke="#fff" stroke-width="1"/>
  </g>
</svg>
