<svg xmlns="http://www.w3.org/2000/svg" width="23.46" height="14.447"><g data-name="Group 46699" clip-path="url(&quot;#a&quot;)"><path d="M7.869 2.258a2.24 2.24 0 0 1-2.261 2.274 2.254 2.254 0 0 1-2.28-2.261A2.246 2.246 0 0 1 5.595 0c1.28-.004 2.269.978 2.274 2.258" fill="#333" fill-rule="evenodd" data-name="Path 92703"/><path d="M3.545 7.356V5.392H8.41V1.575h11.495v5.781H3.545Z" fill="#333" fill-rule="evenodd" data-name="Path 92702"/><path d="M2.798 11.148c0 .596.016 1.19-.003 1.782-.03.951-.56 1.514-1.395 1.517-.835.003-1.389-.57-1.392-1.509-.01-3.097-.01-6.193 0-9.29.004-.915.594-1.525 1.402-1.515.777.01 1.361.597 1.38 1.469.028 1.273.01 2.547.01 3.82v.833h17.872V4.507c0-.35-.014-.701.015-1.049.064-.77.637-1.316 1.362-1.325.755-.01 1.373.562 1.393 1.367.03 1.223.012 2.447.013 3.67 0 1.874.005 3.747-.002 5.62-.004 1.067-.515 1.662-1.397 1.657-.88-.005-1.37-.594-1.383-1.677-.006-.52-.001-1.04-.001-1.622H2.798Z" fill="#333" fill-rule="evenodd" data-name="Path 92701"/></g><defs><clipPath id="a"><path d="M0 0h23.46v14.447H0V0z" data-name="Rectangle 8297"/></clipPath></defs></svg>