<svg xmlns="http://www.w3.org/2000/svg" width="18.125" height="20" viewBox="336 39 18.125 20"><path d="m353.972 50.382-1.583-5.696a7.767 7.767 0 0 0-15.064.395l-1.226 5.512a4.166 4.166 0 0 0 4.067 5.07h.929a4.166 4.166 0 0 0 8.165 0h.699a4.166 4.166 0 0 0 4.014-5.281Zm-8.795 6.947a2.5 2.5 0 0 1-2.346-1.666h4.693a2.5 2.5 0 0 1-2.347 1.666Zm6.771-4.32a2.48 2.48 0 0 1-1.99.987h-9.792a2.5 2.5 0 0 1-2.44-3.042l1.225-5.512a6.1 6.1 0 0 1 11.832-.31l1.584 5.696a2.48 2.48 0 0 1-.419 2.181Z" fill="#333" fill-rule="evenodd" data-name="bell"/></svg>