<svg xmlns="http://www.w3.org/2000/svg" width="24" height="24" viewBox="0 0 24 24">
  <g id="Blog" transform="translate(-35 -502)">
    <g id="Group_47953" data-name="Group 47953" transform="translate(35 502)">
      <circle id="Ellipse_3146" data-name="Ellipse 3146" cx="12" cy="12" r="12" fill="#f49021"/>
    </g>
    <g id="noun-blog-3302887" transform="translate(41.667 508.667)">
      <g id="Group_47954" data-name="Group 47954">
        <path id="Path_80308" data-name="Path 80308" d="M3929.889,4386h7.556a1.889,1.889,0,0,1,1.889,1.889v7.556a1.888,1.888,0,0,1-1.889,1.889h-7.556a1.889,1.889,0,0,1-1.889-1.889v-7.556A1.889,1.889,0,0,1,3929.889,4386Zm5.9.979a.425.425,0,1,0,.425.425A.425.425,0,0,0,3935.792,4386.979Zm1.385,0a.425.425,0,1,0,.425.425A.425.425,0,0,0,3937.177,4386.979Zm-8.257,8.633a.678.678,0,0,0,.678.678h8.139a.678.678,0,0,0,.678-.678v-7.078h-9.5Zm.724-5.984h5.1v5.78h-5.1Zm5.894-.057h2.153v1.417h-2.153Zm0,2.153h2.153v1.19h-2.153Zm0,1.927h2.153v1.7h-2.153Z" transform="translate(-3928 -4386)" fill="#fff"/>
      </g>
    </g>
  </g>
</svg>
