<svg xmlns="http://www.w3.org/2000/svg" width="11.521" height="22.467" viewBox="0 0 11.521 22.467">
  <g id="Group_45690" data-name="Group 45690" transform="translate(-116.734 -829.634)">
    <path id="Path_79733" data-name="Path 79733" d="M14.2,31.632l5.176,7.94a10.983,10.983,0,0,0,.219-4.518A18.01,18.01,0,0,0,17.49,29a18.535,18.535,0,0,1-1.8,1.579A15.507,15.507,0,0,1,14.2,31.632Z" transform="translate(108.308 812.529)" fill="#fff"/>
    <path id="Path_79734" data-name="Path 79734" d="M5.084,11.1A11.684,11.684,0,0,1,7.321,9.612,2.411,2.411,0,0,0,7.716,9.3a2.186,2.186,0,0,1-.483-.439A13.634,13.634,0,0,1,5.3,6.585a2.636,2.636,0,0,1-.044-3.071,2.676,2.676,0,0,1,.658-.57,1.372,1.372,0,0,1,.833-.175,1.642,1.642,0,0,1,.79.219c.132.088,1.009.658,1.009.658l.219-.263c.088-.088.219-.175.351-.307a2.838,2.838,0,0,1,1.1-.526c.57-.088,1.272.132,1.886,1.184a1.845,1.845,0,0,0-.395-.877,2.3,2.3,0,0,0-.439-.483c-.044-.044-.088-.044-.132-.088a.337.337,0,0,0-.132-.088,1.926,1.926,0,0,0-1.974.395c-.044.044-.526.483-.483.57a2.278,2.278,0,0,0-.833-.746,3.007,3.007,0,0,0-1.228-.483,1.784,1.784,0,0,0-.833,0C4.426,2.242,3.5,3.646,3.066,4.787a5.586,5.586,0,0,0-.307,2.544,10.543,10.543,0,0,0,.833,2.764,8.415,8.415,0,0,0,.833,1.667l.044-.044a4.065,4.065,0,0,1,.614-.614Z" transform="translate(114.749 827.749)" fill="#fff"/>
    <path id="Path_79735" data-name="Path 79735" d="M11.593,7.695A2.06,2.06,0,0,1,11.33,7.3c.395,1.141-.658,2.676-.658,2.676a9.646,9.646,0,0,1-1.36,1.316c-1.579,1.228-3.466,1.755-4.957,3.115A10,10,0,0,0,1.24,20.592a12.837,12.837,0,0,0,.395,6.185,5.035,5.035,0,0,1,.175-1.36,12.024,12.024,0,0,1,.219-1.228A9.676,9.676,0,0,1,3.478,21.25a9.328,9.328,0,0,1,2.983-2.062,14.327,14.327,0,0,0,1.579-1.1c1.711-1.36,3.6-3.115,4.3-5.483a5.976,5.976,0,0,0-.219-3.816,5.048,5.048,0,0,0-.526-1.1Z" transform="translate(115.697 824.709)" fill="#fff"/>
  </g>
</svg>
