<svg xmlns="http://www.w3.org/2000/svg" width="12.801" height="16.836" viewBox="0 0 12.801 16.836">
  <path id="Bookmark_unselected" d="M21.3,8.1H10.7A1.135,1.135,0,0,0,9.6,9.3V23.7a1.206,1.206,0,0,0,.8,1.2,1,1,0,0,0,1.1-.4l4.5-6,4.5,6a.909.909,0,0,0,.8.4h.3a1.206,1.206,0,0,0,.8-1.2V9.3A1.135,1.135,0,0,0,21.3,8.1Zm.1,15.6c0,.1-3.867-10.68-3.967-10.68L20.5,22.6,21.2,9c-.4-.5-10.4-.5-10.8,0V23.186s.2.614.2.414V9.2a.349.349,0,0,1,.1-.2H21.2s-.7-.6-.7-.4a20.432,20.432,0,0,0-1.15,6.667C19.375,18.87,21.4,23.7,21.4,23.7Z" transform="translate(-9.6 -8.1)" fill="#108fe5"/>
</svg>
