<svg xmlns="http://www.w3.org/2000/svg" width="36" height="36" viewBox="0 0 36 36">
  <g id="Boost_Immunity" data-name="Boost Immunity" transform="translate(-297 -6)">
    <circle id="Ellipse_3146" data-name="Ellipse 3146" cx="18" cy="18" r="18" transform="translate(297 6)" fill="#7fc282"/>
    <path id="Subtraction_1" data-name="Subtraction 1" d="M8.9,19.751h0c-.152-.054-.307-.106-.457-.156-.335-.113-.681-.229-1.011-.37A11.67,11.67,0,0,1,.849,12.252,14.406,14.406,0,0,1,.026,8.036C.009,7.739,0,7.439,0,7.144V7.087A16.484,16.484,0,0,1,.261,4.2.811.811,0,0,1,.8,3.548C3.471,2.522,6.132,1.359,8.708.091A.836.836,0,0,1,9.08,0H9.1a1.054,1.054,0,0,1,.426.108l1.007.47c1.058.495,2.15,1.006,3.237,1.483,1.153.506,2.345.976,3.5,1.43l.022.009a1,1,0,0,1,.675.831,15.58,15.58,0,0,1-.543,7.684,12.082,12.082,0,0,1-2.993,4.828,12.238,12.238,0,0,1-4.946,2.831l-.016,0a2.063,2.063,0,0,1-.563.071ZM7.051,12.469h0a3.445,3.445,0,0,0,1.526.657.155.155,0,0,1,.094.113c.006.183.006.368,0,.547,0,.061,0,.121,0,.181l-.026.013A.2.2,0,0,1,8.613,14a.4.4,0,0,0-.335.464.408.408,0,0,0,.453.351l.165,0,.248,0c.128,0,.24,0,.343-.007a.566.566,0,0,0,.27-.08.371.371,0,0,0,.156-.406.411.411,0,0,0-.377-.339l-.008-.025a.1.1,0,0,1-.007-.03c0-.161,0-.322,0-.482,0-.289,0-.295.275-.353a3.326,3.326,0,0,0,1.294-.584l.583.562.023.022c-.133.269-.1.474.089.611a.385.385,0,0,0,.224.076.579.579,0,0,0,.393-.2l.121-.119c.119-.117.241-.237.358-.359a.422.422,0,0,0,.061-.561.381.381,0,0,0-.32-.163.6.6,0,0,0-.218.045.225.225,0,0,1-.081.015.106.106,0,0,1-.066-.017c-.136-.118-.27-.243-.4-.365l-.152-.141a3.387,3.387,0,0,0,.659-1.507.173.173,0,0,1,.121-.108c.105,0,.218-.006.366-.006h.372l.011.046a.618.618,0,0,0,.021.079.4.4,0,0,0,.388.277.508.508,0,0,0,.069,0,.393.393,0,0,0,.347-.4c.006-.313.005-.59,0-.848a.393.393,0,0,0-.322-.38.484.484,0,0,0-.089-.008.409.409,0,0,0-.383.255c-.013.032-.024.066-.035.1l-.014.044h-.4c-.414,0-.414,0-.51-.391a.36.36,0,0,0-.025-.073c-.168-.385-.338-.769-.522-1.188l.191-.185.284-.275a.637.637,0,0,1,.048-.042l.028-.023.029.015c.032.017.062.033.093.046a.449.449,0,0,0,.174.035.408.408,0,0,0,.317-.146.4.4,0,0,0,0-.516c-.217-.237-.438-.457-.656-.653a.361.361,0,0,0-.245-.092.435.435,0,0,0-.273.1.415.415,0,0,0-.108.489c.014.034.031.066.047.095l.009.018-.2.194-.4.392a3.4,3.4,0,0,0-1.5-.635.136.136,0,0,1-.083-.1c-.006-.19-.005-.384,0-.571q0-.088,0-.175l.034-.009.059-.016a.411.411,0,0,0-.121-.808l-.416,0c-.156,0-.292,0-.416.005a.388.388,0,0,0-.377.326.407.407,0,0,0,.236.459c.034.015.069.026.106.039l.054.018V6c0,.163,0,.316,0,.471,0,.117-.05.139-.153.171-.4.121-.718.233-1.015.352a1.658,1.658,0,0,0-.307.176c-.048.032-.1.065-.149.1L6.921,7.13C6.8,7,6.681,6.886,6.568,6.76a.2.2,0,0,1-.028-.174.427.427,0,0,0-.12-.536.412.412,0,0,0-.24-.079.453.453,0,0,0-.308.129c-.183.172-.367.355-.562.559a.414.414,0,0,0-.058.544.387.387,0,0,0,.328.168.571.571,0,0,0,.208-.042.238.238,0,0,1,.08-.013.134.134,0,0,1,.083.021c.135.117.261.237.395.364l.148.14a3.4,3.4,0,0,0-.679,1.6H4.975c-.078-.263-.213-.39-.412-.39a.563.563,0,0,0-.088.007c-.223.036-.337.2-.338.484q0,.094,0,.189c0,.185,0,.376,0,.564a.406.406,0,0,0,.388.4.368.368,0,0,0,.152-.033.8.8,0,0,0,.246-.218c.042-.048.09-.1.145-.156h.308c.132,0,.241,0,.341.006a.151.151,0,0,1,.111.095,3.415,3.415,0,0,0,.66,1.517l-.147.138c-.127.121-.258.245-.392.36a.136.136,0,0,1-.086.023.22.22,0,0,1-.077-.013.58.58,0,0,0-.21-.043.384.384,0,0,0-.326.167.416.416,0,0,0,.055.545c.176.185.365.373.562.559a.449.449,0,0,0,.309.132.409.409,0,0,0,.237-.078.424.424,0,0,0,.123-.535.189.189,0,0,1,.011-.161c.121-.14.251-.277.377-.409l.121-.128Zm2.459-1.36h0a.429.429,0,0,1-.411-.4.393.393,0,0,1,.117-.284.421.421,0,0,1,.3-.125H9.52a.4.4,0,0,1,.4.408A.416.416,0,0,1,9.51,11.108Zm-1.24-.419a.419.419,0,0,1-.3-.127.391.391,0,0,1-.115-.286.426.426,0,0,1,.411-.4h.006a.414.414,0,0,1,.4.41.4.4,0,0,1-.4.4Zm1.654-.815h0a.412.412,0,0,1-.4-.405.394.394,0,0,1,.4-.408h.008a.413.413,0,0,1,.413.389.406.406,0,0,1-.119.293A.415.415,0,0,1,9.924,9.874ZM8.681,9.455h0a.4.4,0,0,1-.4-.4.416.416,0,0,1,.4-.411h.005a.414.414,0,0,1,.292.13A.4.4,0,0,1,9.1,9.06.415.415,0,0,1,8.681,9.455Z" transform="translate(306 14.624)" fill="#fff" stroke="rgba(0,0,0,0)" stroke-miterlimit="10" stroke-width="1"/>
  </g>
</svg>
