<svg xmlns="http://www.w3.org/2000/svg" width="18" height="18.287" viewBox="0 0 18 18.287">
  <path id="CalenderIcon" d="M32.024,18.336h-.713v-.424a1.1,1.1,0,0,0-2.2,0v.424H23.553v-.424a1.1,1.1,0,0,0-2.2,0v.424h-.713a3.306,3.306,0,0,0-3.306,3.306V31.791A3.306,3.306,0,0,0,20.636,35.1H32.024a3.306,3.306,0,0,0,3.306-3.306V21.642A3.306,3.306,0,0,0,32.024,18.336Zm-11.386,2.2h.713v.975a1.1,1.1,0,0,0,2.2,0V20.54h5.551v.975a1.1,1.1,0,0,0,2.2,0V20.54h.713a1.1,1.1,0,0,1,1.1,1.1v2.231H19.534V21.642a1.1,1.1,0,0,1,1.1-1.1ZM32.024,32.893H20.636a1.1,1.1,0,0,1-1.1-1.1V26.077H33.126v5.713A1.1,1.1,0,0,1,32.024,32.893Z" transform="translate(-17.33 -16.81)" fill="#000"/>
</svg>
