<svg xmlns="http://www.w3.org/2000/svg" width="14.827" height="15.071" viewBox="0 3.462 14.827 15.071"><path d="M12.252 4.759h-.84v-.595a.702.702 0 0 0-1.405 0v.595H4.82v-.595a.702.702 0 0 0-1.405 0v.595h-.84A2.575 2.575 0 0 0 0 7.334v8.624a2.575 2.575 0 0 0 2.575 2.575h9.677a2.575 2.575 0 0 0 2.575-2.575V7.334a2.575 2.575 0 0 0-2.575-2.575ZM2.577 6.164h.84v1.062a.702.702 0 0 0 1.405 0V6.164h5.185v1.062a.702.702 0 0 0 1.405 0V6.164h.84c.647 0 1.17.524 1.17 1.17v2.13H1.406v-2.13c0-.646.524-1.17 1.17-1.17Zm9.675 10.964H2.575a1.17 1.17 0 0 1-1.17-1.17v-5.09h12.018v5.09a1.17 1.17 0 0 1-1.17 1.17Z" fill="#666" fill-rule="evenodd" data-name="noun-date-1146237 (1)"/></svg>