<svg xmlns="http://www.w3.org/2000/svg" width="16" height="15.988" viewBox="0 0 16 15.988">
  <g id="Phone" transform="translate(-149.955 -85)">
    <path id="Path_92945" data-name="Path 92945" d="M15.388,11.453c-.7-.64-1.337-1.337-1.977-1.977a1.686,1.686,0,0,0-2.442,0l-.116.058c-.349.349-.7.64-1.047,1.047a.214.214,0,0,0-.174-.058,1.741,1.741,0,0,1-.465-.233A12.472,12.472,0,0,1,6.2,7.616,6.673,6.673,0,0,1,5.214,6.1l.872-.872L6.318,5a1.662,1.662,0,0,0,0-2.5l-.7-.7-.174-.291h0l-.291-.291-.7-.7a1.686,1.686,0,0,0-2.442,0l-.523.523-.7.7A2.724,2.724,0,0,0-.019,3.43,5.388,5.388,0,0,0,.446,6.1,17.39,17.39,0,0,0,3.179,10.7a16.92,16.92,0,0,0,5.581,4.36,8.475,8.475,0,0,0,3.2.93h.233a2.544,2.544,0,0,0,2.093-.93l.7-.7a2.529,2.529,0,0,1,.407-.349A1.726,1.726,0,0,0,15.388,11.453Zm-.756,1.8a2.529,2.529,0,0,1-.407.349,10.394,10.394,0,0,0-.756.814,1.691,1.691,0,0,1-1.512.523,8.648,8.648,0,0,1-2.791-.814A17.182,17.182,0,0,1,3.876,10,15.582,15.582,0,0,1,1.318,5.756,6.43,6.43,0,0,1,.969,3.546a1.579,1.579,0,0,1,.465-.988A9.264,9.264,0,0,0,2.19,1.8l.465-.465a1.084,1.084,0,0,1,.581-.291.8.8,0,0,1,.523.291l.7.7.291.291.291.291.7.7c.407.407.407.7,0,1.047l-.291.233c-.291.291-.64.64-.988.93a.743.743,0,0,0-.174.872A7.686,7.686,0,0,0,5.446,8.314a12.416,12.416,0,0,0,3.2,2.907,2.357,2.357,0,0,0,.523.291c.116.058.174.058.291.116a.88.88,0,0,0,.988-.116c.407-.349.756-.756,1.1-1.1l.116-.058a.654.654,0,0,1,1.047,0l1.977,1.977C14.981,12.5,14.981,12.907,14.632,13.256Z" transform="translate(150 85)" fill="#333"/>
  </g>
</svg>
