<svg xmlns="http://www.w3.org/2000/svg" width="32" height="32" viewBox="0 0 32 32">
  <g id="Call" transform="translate(-311 -215)">
    <g id="Path_92946" data-name="Path 92946" transform="translate(311 215)" fill="none">
      <path d="M16,0A16,16,0,1,1,0,16,16,16,0,0,1,16,0Z" stroke="none"/>
      <path d="M 16 1.200000762939453 C 12.0467700958252 1.200000762939453 8.330169677734375 2.739469528198242 5.534820556640625 5.534820556640625 C 2.739469528198242 8.330169677734375 1.200000762939453 12.0467700958252 1.200000762939453 16 C 1.200000762939453 19.9532299041748 2.739469528198242 23.66983032226562 5.534820556640625 26.46517944335938 C 8.330169677734375 29.26053047180176 12.0467700958252 30.79999923706055 16 30.79999923706055 C 19.9532299041748 30.79999923706055 23.66983032226562 29.26053047180176 26.46517944335938 26.46517944335938 C 29.26053047180176 23.66983032226562 30.79999923706055 19.9532299041748 30.79999923706055 16 C 30.79999923706055 12.0467700958252 29.26053047180176 8.330169677734375 26.46517944335938 5.534820556640625 C 23.66983032226562 2.739469528198242 19.9532299041748 1.200000762939453 16 1.200000762939453 M 16 0 C 24.8365592956543 0 32 7.163440704345703 32 16 C 32 24.8365592956543 24.8365592956543 32 16 32 C 7.163440704345703 32 0 24.8365592956543 0 16 C 0 7.163440704345703 7.163440704345703 0 16 0 Z" stroke="none" fill="#4fb4f8"/>
    </g>
    <g id="noun-call-469214" transform="translate(318.989 222.99)">
      <path id="Path_92945" data-name="Path 92945" d="M15.409,11.469c-.7-.64-1.339-1.339-1.979-1.979a1.688,1.688,0,0,0-2.445,0l-.116.058c-.349.349-.7.64-1.048,1.048a.214.214,0,0,0-.175-.058A1.743,1.743,0,0,1,9.18,10.3,12.489,12.489,0,0,1,6.211,7.627a6.682,6.682,0,0,1-.99-1.514l.873-.873.233-.233a1.664,1.664,0,0,0,0-2.5l-.7-.7-.175-.291h0l-.291-.291-.7-.7a1.688,1.688,0,0,0-2.445,0l-.524.524-.7.7A2.728,2.728,0,0,0-.019,3.435,5.4,5.4,0,0,0,.447,6.113a17.414,17.414,0,0,0,2.736,4.6,16.943,16.943,0,0,0,5.589,4.366,8.487,8.487,0,0,0,3.2.932h.233a2.547,2.547,0,0,0,2.1-.932l.7-.7a2.532,2.532,0,0,1,.408-.349A1.729,1.729,0,0,0,15.409,11.469Zm-.757,1.8a2.532,2.532,0,0,1-.408.349,10.408,10.408,0,0,0-.757.815,1.693,1.693,0,0,1-1.514.524,8.66,8.66,0,0,1-2.795-.815,17.2,17.2,0,0,1-5.3-4.134A15.6,15.6,0,0,1,1.32,5.764,6.439,6.439,0,0,1,.971,3.551a1.581,1.581,0,0,1,.466-.99A9.277,9.277,0,0,0,2.193,1.8l.466-.466a1.086,1.086,0,0,1,.582-.291.8.8,0,0,1,.524.291l.7.7.291.291.291.291.7.7c.408.408.408.7,0,1.048L5.454,4.6c-.291.291-.64.64-.99.932a.744.744,0,0,0-.175.873A7.7,7.7,0,0,0,5.454,8.325a12.433,12.433,0,0,0,3.2,2.911,2.36,2.36,0,0,0,.524.291c.116.058.175.058.291.116a.882.882,0,0,0,.99-.116c.408-.349.757-.757,1.106-1.106l.116-.058a.655.655,0,0,1,1.048,0l1.979,1.979C15,12.517,15,12.925,14.652,13.274Z" transform="translate(0.045 0)" fill="#4fb4f8"/>
    </g>
  </g>
</svg>
