<svg xmlns="http://www.w3.org/2000/svg" width="30" height="30" viewBox="0 0 30 30">
  <path id="Phone" d="M15,30A15,15,0,1,1,30,15,15,15,0,0,1,15,30ZM10.581,8a1.476,1.476,0,0,0-1.041.427L8.7,9.264a2.274,2.274,0,0,0-.7,1.858,13.444,13.444,0,0,0,3.887,6.649l.341.339A13.676,13.676,0,0,0,18.8,21.982a1.369,1.369,0,0,0,.257.017,2.379,2.379,0,0,0,1.687-.716l.836-.836a1.481,1.481,0,0,0,0-2.081l-1.432-1.4a1.481,1.481,0,0,0-2.081,0l-.814.821a.167.167,0,0,1-.12.036,7,7,0,0,1-2.747-2.074l-.257-.238c-1.579-1.594-2.1-2.541-1.911-2.745l.7-.7a1.688,1.688,0,0,0,0-2.353l-1.29-1.288A1.474,1.474,0,0,0,10.581,8Z" fill="#57b0ed"/>
</svg>
