<svg xmlns="http://www.w3.org/2000/svg" width="60" height="60" viewBox="0 0 60 60">
  <g id="CaloriesBurned" transform="translate(-30 -684.911)">
    <circle id="Ellipse_3126" data-name="Ellipse 3126" cx="30" cy="30" r="30" transform="translate(30 684.911)" fill="#f5f6fa"/>
    <g id="noun-calories-1166850" transform="translate(29.03 689.606)">
      <g id="Group_48030" data-name="Group 48030" transform="translate(21.15 11.362)">
        <path id="Path_92930" data-name="Path 92930" d="M30.792,37.811c-4.542,0-9.287-2.576-9.625-8.27-.271-4.609,2.745-10.947,5.626-13.76a.309.309,0,0,1,.407-.034.314.314,0,0,1,.136.407,4.971,4.971,0,0,0,.441,3.965c.136-4.135,3.864-8.134,6.541-8.744a.325.325,0,0,1,.339.1.417.417,0,0,1,.068.339c-.915,2.61-.339,5.186,1.8,7.829l.169.2c1.559,1.966,4.44,5.592,4.067,9.964C40.282,35.066,35.368,37.811,30.792,37.811Z" transform="translate(-21.15 -11.362)" fill="#4fb4f8"/>
      </g>
    </g>
  </g>
</svg>
