<svg xmlns="http://www.w3.org/2000/svg" width="28.955" height="24.5" viewBox="19.594 26.425 28.955 24.5"><path d="M40.382 40.532a4.455 4.455 0 1 1-8.91 0 4.455 4.455 0 0 1 8.91 0Zm8.166-8.38v16.759a2.015 2.015 0 0 1-2.014 2.015H21.608a2.015 2.015 0 0 1-2.014-2.015V32.152c0-1.112.902-2.014 2.014-2.014h7l1.542-2.697a2.015 2.015 0 0 1 1.75-1.016h8.797c.723 0 1.39.388 1.75 1.016l1.54 2.697h2.547c1.112 0 2.014.902 2.014 2.014Zm-23.015 2.44a1.485 1.485 0 1 0-2.97 0 1.485 1.485 0 0 0 2.97 0Zm7.035.089a5.638 5.638 0 0 0-2.492 2.491c-3.103 6.169 3.042 12.313 9.21 9.21a5.64 5.64 0 0 0 2.492-2.491c3.103-6.169-3.041-12.313-9.21-9.21Z" fill="#7fc282" fill-rule="evenodd" data-name="Path 93047"/></svg>