<svg xmlns="http://www.w3.org/2000/svg" width="20" height="20" viewBox="23 526.398 20 20"><g data-name="noun-cancel-334172" transform="translate(-199.14 304.258)" clip-path="url(&quot;#a&quot;)"><path d="M232.14 222.14c-5.5 0-10 4.5-10 10s4.5 10 10 10 10-4.5 10-10-4.5-10-10-10Zm0 2.5c1.65 0 3.15.525 4.375 1.4l-10.475 10.475a7.481 7.481 0 0 1-1.4-4.375c0-4.15 3.35-7.5 7.5-7.5Zm6.1 3.125a7.481 7.481 0 0 1 1.4 4.375c0 4.15-3.35 7.5-7.5 7.5-1.65 0-3.15-.525-4.375-1.4l10.475-10.475Z" fill="#333" fill-rule="evenodd" data-name="Path 94672"/></g><defs><clipPath id="a"><path d="M222.14 222.14h20v20h-20v-20Z" data-name="Path 94673"/></clipPath></defs></svg>