<svg xmlns="http://www.w3.org/2000/svg" width="26.502" height="29.054" viewBox="-1385 -72 26.502 29.054"><g data-name="Group 46951"><g data-name="Group 47031"><g data-name="Logo"><g data-name="Group 2"><path d="M-1363.853-50.604c-.02-.03-.066-.069-.078-.102.116.31-.188.726-.188.726a2.228 2.228 0 0 1-.38.361c-.441.337-.975.479-1.397.845-.518.448-.755.984-.886 1.684-.099.531-.074 1.173.113 1.677-.028-.076.036-.29.05-.375a2.231 2.231 0 0 1 .48-1.131c.226-.275.551-.394.841-.56.156-.09.305-.192.45-.302.486-.375 1.011-.85 1.21-1.489a1.559 1.559 0 0 0-.065-1.042 1.657 1.657 0 0 0-.15-.292Z" fill="#fff" fill-rule="evenodd" data-name="Path 3"/><path d="M-1365.966-48.854a3.17 3.17 0 0 1 .637-.408 1.52 1.52 0 0 0 .114-.08c-.114-.087-.029-.016-.136-.113a3.57 3.57 0 0 1-.55-.621c-.172-.25-.21-.587-.005-.836a.514.514 0 0 1 .422-.206c.079.004.155.03.226.063.027.013.275.167.274.168v.006l.067-.073a1.29 1.29 0 0 1 .096-.08.765.765 0 0 1 .308-.145c.165-.023.357.04.529.323 0 0-.014-.115-.105-.243a.53.53 0 0 0-.157-.158s-.012-.008-.034-.018c-.18-.086-.412-.018-.56.104-.014.011-.155.13-.144.154-.039-.086-.162-.15-.236-.2a.875.875 0 0 0-.343-.132.545.545 0 0 0-.237.003c-.342.088-.61.463-.731.774-.085.22-.116.458-.086.691.033.265.13.504.23.748.013.03.214.476.236.454l.014-.014c.054-.055.111-.109.171-.161Z" fill="#fff" fill-rule="evenodd" data-name="Path 2"/><path d="m-1365.207-47.41 1.467 2.16c.19-.502.067-1.223.067-1.223-.071-.7-.516-1.504-.603-1.656a6.063 6.063 0 0 1-.508.431c-.14.108-.282.203-.423.287Z" fill="#fff" fill-rule="evenodd" data-name="Path 1"/></g></g><g data-name="Group 47030"><g data-name="Group 47029" transform="translate(-1385 -72)" clip-path="url(&quot;#a&quot;)"><path d="M13.241 29.052c-2.784-.006-5.559-.146-8.296-.706-1.18-.242-2.338-.56-3.398-1.158-.713-.403-1.318-.924-1.472-1.772-.079-.433-.114-.91-.013-1.332.29-1.217.77-2.366 1.485-3.404.82-1.192 1.895-2.012 3.358-2.233.31-.047.461-.247.599-.48.346-.586.483-1.236.562-1.9.19-1.6.14-3.203-.106-4.785-.368-2.368-.186-4.673.645-6.908.819-2.204 2.3-3.78 4.695-4.18 1.563-.26 3.172-.32 4.715.208 1.937.663 3.124 2.091 3.842 3.95.66 1.708.877 3.5.834 5.312-.024.993-.244 1.98-.324 2.974-.111 1.393-.16 2.794.166 4.167.109.46.33.902.55 1.326.073.143.288.27.456.298 1.5.247 2.59 1.088 3.419 2.314.7 1.035 1.167 2.177 1.462 3.382.284 1.158-.177 2.201-1.213 2.884-.873.574-1.852.895-2.855 1.143-2.685.666-5.425.841-8.176.899-.312.006-.623 0-.935 0M7.811 9.275c-.377-.013-.49.067-.568.449-.142.703-.002 1.365.34 1.986.132.239.316.41.63.336.063.164.118.314.177.462.535 1.346 1.268 2.56 2.407 3.485 1.615 1.314 3.381 1.295 4.98-.042.925-.773 1.582-1.745 2.087-2.827.163-.348.3-.709.447-1.06.356-.014.472-.071.644-.386.311-.573.444-1.189.336-1.833-.033-.194-.18-.368-.275-.552-.132.098-.289.176-.392.298-.19.224-.35.245-.623.103a888.917 888.917 0 0 0-7.04-3.629 1.18 1.18 0 0 0-.518-.122c-.612 0-1.166.22-1.52.709-.341.47-.601 1.006-.837 1.54-.149.336-.188.72-.275 1.083m1.842 7.239c-.095.867-.674 1.244-1.318 1.546.1.468.404.76.727 1.027 1.187.984 2.551 1.535 4.1 1.545 1.727.012 3.227-.6 4.49-1.78.234-.218.44-.466.465-.806-.944-.562-.944-.562-1.298-1.488-2.374 2.197-4.755 2.194-7.166-.044" fill="#36acfc" fill-rule="evenodd" data-name="Path 92915"/></g></g></g></g><defs><clipPath id="a"><path d="M0 0h26.503v29.054H0V0z" data-name="Rectangle 8381"/></clipPath></defs></svg>