<svg id="noun-cancel-date-4846624" xmlns="http://www.w3.org/2000/svg" width="15.512" height="16.334" viewBox="0 0 15.512 16.334">
  <path id="Path_100303" data-name="Path 100303" d="M14,1.922h-.263V1.593a.493.493,0,0,0-.987,0v.329H6.465V1.593a.493.493,0,0,0-.987,0v.329H5.215A3.369,3.369,0,0,0,1.85,5.287v8.781a3.37,3.37,0,0,0,3.366,3.366H9.354a.493.493,0,1,0,0-.987H5.215a2.381,2.381,0,0,1-2.379-2.379V7.429H16.375v2a.493.493,0,0,0,.987,0V5.287a7.561,7.561,0,0,0-.418-1.623S15.375,1.922,14,1.922ZM2.837,6.442V5.287A2.381,2.381,0,0,1,5.215,2.909h.263v.328a.493.493,0,1,0,.987,0V2.909h6.282v.328a.493.493,0,0,0,.987,0V2.909H14a2.381,2.381,0,0,1,2.379,2.379V6.442H2.837Z" transform="translate(-1.85 -1.1)" fill="#ff4040"/>
  <path id="Path_100304" data-name="Path 100304" d="M9.323,17.014H8.551a.493.493,0,1,0,0,.987h.772a.493.493,0,1,0,0-.987Z" transform="translate(-4.655 -8.292)" fill="#ff4040"/>
  <path id="Path_100305" data-name="Path 100305" d="M15.661,17.014h-.772a.493.493,0,1,0,0,.987h.772a.493.493,0,1,0,0-.987Z" transform="translate(-7.52 -8.292)" fill="#ff4040"/>
  <path id="Path_100306" data-name="Path 100306" d="M9.323,22.933H8.551a.493.493,0,1,0,0,.987h.772a.493.493,0,1,0,0-.987Z" transform="translate(-4.655 -10.966)" fill="#ff4040"/>
  <path id="Path_100307" data-name="Path 100307" d="M20.979,18.267a3.462,3.462,0,1,0,3.462,3.462A3.466,3.466,0,0,0,20.979,18.267Zm0,5.938a2.475,2.475,0,1,1,2.475-2.476A2.479,2.479,0,0,1,20.979,24.2Z" transform="translate(-8.93 -8.858)" fill="#ff4040"/>
  <path id="Path_100308" data-name="Path 100308" d="M23.9,22.517a.493.493,0,0,0-.7,0l-.369.369-.369-.369a.493.493,0,0,0-.7.7l.369.369-.369.369a.494.494,0,0,0,.7.7l.369-.369.369.369a.494.494,0,0,0,.7-.7l-.369-.369.369-.369A.494.494,0,0,0,23.9,22.517Z" transform="translate(-10.785 -10.713)" fill="#ff4040"/>
</svg>
