<svg xmlns="http://www.w3.org/2000/svg" width="36" height="36" viewBox="0 0 36 36">
  <g id="Group_48388" data-name="Group 48388" transform="translate(-324 -52)">
    <g id="IconBg" transform="translate(324 52)">
      <circle id="IconBg-2" data-name="IconBg" cx="18" cy="18" r="18" fill="#e4e5ea"/>
    </g>
    <path id="Path_92745" data-name="Path 92745" d="M32.2,70.92a2.76,2.76,0,1,0,2.76-2.76A2.76,2.76,0,0,0,32.2,70.92Zm4.253,0a1.494,1.494,0,1,1-1.494-1.494A1.494,1.494,0,0,1,36.453,70.92Z" transform="translate(304.847 5.321)" stroke="#000" stroke-width="1"/>
    <path id="Path_92746" data-name="Path 92746" d="M63.32,68.16a2.76,2.76,0,1,0,2.76,2.76,2.76,2.76,0,0,0-2.76-2.76Zm0,4.253a1.494,1.494,0,1,1,1.494-1.494,1.494,1.494,0,0,1-1.494,1.494Z" transform="translate(283.759 5.321)" stroke="#000" stroke-width="1"/>
    <path id="Path_92747" data-name="Path 92747" d="M14.3,14.794a.48.48,0,0,0,.424.548l.694.111a2.734,2.734,0,0,1,2.31,2.058L19.1,23.775a3.571,3.571,0,0,0,3.568,2.67H28.1a3.568,3.568,0,0,0,3.544-2.572l1.187-4.7a.443.443,0,0,0-.1-.4.54.54,0,0,0-.407-.179H19.022l-.278-1.268a3.73,3.73,0,0,0-3.152-2.807l-.694-.111A.517.517,0,0,0,14.3,14.794Zm17.378,4.742-1.039,4.116a2.56,2.56,0,0,1-2.531,1.837H22.665a2.552,2.552,0,0,1-2.549-1.9l-.886-4.052Z" transform="translate(318.431 46.099)" stroke="#000" stroke-width="1"/>
  </g>
</svg>
