<svg xmlns="http://www.w3.org/2000/svg" width="22.55" height="24" viewBox="0 0 22.55 24">
  <g id="CBD" transform="translate(929 -2450)">
    <g id="Group_46736" data-name="Group 46736" transform="translate(-929 2450)">
      <g id="Group_22" data-name="Group 22">
        <path id="noun-cannabis-2221870" d="M16.206,17.083A12.375,12.375,0,0,0,23.913,15.9a.12.12,0,0,0,0-.21,12.6,12.6,0,0,0-6.262-1.5.115.115,0,0,1-.07-.215,12.715,12.715,0,0,0,4.853-6.292.12.12,0,0,0-.125-.155,12.8,12.8,0,0,0-6.927,3.234.12.12,0,0,1-.195-.115C16.436,5.263,13.382.829,12.8.05a.115.115,0,0,0-.19,0c-.58.78-3.633,5.213-2.4,10.576a.12.12,0,0,1-.195.115A12.8,12.8,0,0,0,3.091,7.5a.12.12,0,0,0-.125.155,12.745,12.745,0,0,0,4.808,6.262.115.115,0,0,1-.065.215,12.61,12.61,0,0,0-6.222,1.534.115.115,0,0,0,0,.2,12.32,12.32,0,0,0,7.752,1.18.115.115,0,0,1,.09.21A8.666,8.666,0,0,0,6.885,20.4a.12.12,0,0,0,.125.165,8.386,8.386,0,0,0,5-3,.115.115,0,0,1,.21.07c-.06,2.084-.12,4.178-.18,6.247a.12.12,0,0,0,.12.12h1.09a.12.12,0,0,0,.12-.12c-.06-2.069-.12-4.163-.18-6.247a.115.115,0,0,1,.21-.07,8.346,8.346,0,0,0,5,3,.115.115,0,0,0,.125-.165,8.636,8.636,0,0,0-2.4-3.1.12.12,0,0,1,.09-.215Z" transform="translate(-1.424 0)" fill="#5cad37"/>
      </g>
    </g>
  </g>
</svg>
