<svg xmlns="http://www.w3.org/2000/svg" xmlns:xlink="http://www.w3.org/1999/xlink" width="18.971" height="18.131" viewBox="0 0 18.971 18.131">
  <defs>
    <linearGradient id="linear-gradient" x1="0.5" x2="0.5" y2="1" gradientUnits="objectBoundingBox">
      <stop offset="0" stop-color="#108fe5"/>
      <stop offset="1" stop-color="#19ceab"/>
    </linearGradient>
  </defs>
  <g id="Group_48347" data-name="Group 48347" transform="translate(-473.925 -279)">
    <g id="Group_45578" data-name="Group 45578" transform="translate(473.925 279)">
      <path id="Path_79834" data-name="Path 79834" d="M176.852,163.209c-.288-.886.524-2.341-.013-3.079s-2.18-.42-2.925-.962-.932-2.2-1.817-2.485c-.855-.278-1.985.946-2.932.946s-2.077-1.221-2.932-.946c-.886.288-1.081,1.948-1.817,2.485s-2.382.217-2.925.962.275,2.192-.013,3.079c-.278.857-1.8,1.554-1.8,2.5s1.521,1.643,1.8,2.5c.288.886-.524,2.341.013,3.078s2.18.42,2.925.962a2.668,2.668,0,0,1,.7,1.007c.3.626.586,1.3,1.122,1.476.855.278,1.985-.946,2.932-.946s2.077,1.221,2.932.946c.536-.174.819-.85,1.122-1.476a2.676,2.676,0,0,1,.7-1.009c.743-.54,2.382-.217,2.925-.961s-.275-2.192.013-3.079c.278-.854,1.8-1.554,1.8-2.5s-1.521-1.641-1.8-2.5Zm-7.687,8.581a6.081,6.081,0,1,1,6.081-6.081A6.08,6.08,0,0,1,169.165,171.79Zm0,0" transform="translate(-159.679 -156.643)" fill="#fff"/>
      <g id="Group_45374" data-name="Group 45374" transform="translate(3.346 2.899)">
        <path id="Path_79833" data-name="Path 79833" d="M212.161,198.081A6.081,6.081,0,1,1,206.081,192,6.08,6.08,0,0,1,212.161,198.081Zm0,0" transform="translate(-200 -192)" fill="#fff"/>
        <path id="Path_79818" data-name="Path 79818" d="M151.588,26.819a.429.429,0,0,1-.3-.126l-1.829-1.829a.43.43,0,0,1,.609-.609l1.525,1.525,4.323-4.323a.43.43,0,1,1,.609.609l-4.627,4.627a.429.429,0,0,1-.3.126Zm0,0" transform="translate(-146.875 -17.986)" fill="#108fe5"/>
      </g>
    </g>
    <path id="Path_79866" data-name="Path 79866" d="M175.589,162.726c-.267-.821.485-2.169-.012-2.852s-2.02-.389-2.71-.891-.863-2.036-1.684-2.3c-.792-.257-1.839.876-2.716.876s-1.924-1.131-2.716-.876c-.821.267-1,1.805-1.684,2.3s-2.207.2-2.71.891.255,2.031-.012,2.852c-.257.794-1.666,1.44-1.666,2.316s1.409,1.522,1.666,2.316c.267.821-.485,2.169.012,2.852s2.02.389,2.71.892a2.472,2.472,0,0,1,.645.933c.281.58.543,1.207,1.039,1.368.792.257,1.839-.876,2.716-.876s1.924,1.131,2.716.876c.5-.161.759-.787,1.039-1.368a2.479,2.479,0,0,1,.645-.935c.689-.5,2.207-.2,2.71-.891s-.255-2.031.012-2.852c.257-.792,1.666-1.44,1.666-2.316s-1.409-1.521-1.666-2.314Zm-7.122,7.95a5.633,5.633,0,1,1,5.633-5.633A5.633,5.633,0,0,1,168.467,170.676Zm0,0" transform="translate(314.944 123.024)" fill="url(#linear-gradient)"/>
  </g>
</svg>
