<svg xmlns="http://www.w3.org/2000/svg" width="24" height="24" viewBox="0 0 24 24">
  <g id="Chat" transform="translate(1123 -238)">
    <g id="AboutUs" transform="translate(-2570 54)">
      <g id="Complimentary" transform="translate(-19 46)">
        <g id="Group_47958" data-name="Group 47958" transform="translate(1444 -182)">
          <rect id="Rectangle_20" data-name="Rectangle 20" width="24" height="24" rx="12" transform="translate(22 320)" fill="#3e51b5"/>
        </g>
      </g>
    </g>
    <g id="noun-bubble-chat-5191632" transform="translate(-1131.589 211.34)">
      <path id="Path_80312" data-name="Path 80312" d="M23.261,35.374a7.645,7.645,0,0,0-1.829.171c-2.033.5-3.662,2.246-2.851,4.63a6.83,6.83,0,0,0,.617,1.411,4.256,4.256,0,0,0,2.234,1.32,6.937,6.937,0,0,0,2.025.2,4.434,4.434,0,0,0,1.5,1.21.112.112,0,0,0,.159-.128,2.691,2.691,0,0,1,.05-1.316,1.535,1.535,0,0,1,.073-.2,3.834,3.834,0,0,0,.608-6.417A4.583,4.583,0,0,0,23.261,35.374Zm-4.448,6.043a9.946,9.946,0,0,1-.443-1.17c-.812-2.385.672-4.178,2.65-4.817a5.1,5.1,0,0,1,1.675-.244,4.9,4.9,0,0,0-3.619-1.526,4.8,4.8,0,0,0-3.026.9,3.834,3.834,0,0,0,.608,6.417,1.544,1.544,0,0,1,.073.2,2.691,2.691,0,0,1,.05,1.316.112.112,0,0,0,.159.128,4.434,4.434,0,0,0,1.5-1.21C18.506,41.413,18.638,41.418,18.813,41.417Z" fill="#fff" fill-rule="evenodd"/>
    </g>
  </g>
</svg>
