<svg xmlns="http://www.w3.org/2000/svg" width="20.013" height="20.012" viewBox="0 0 20.013 20.012">
  <path id="Chat" d="M20.012,13.342v4.169a2.5,2.5,0,0,1-2.5,2.5H13.342a6.671,6.671,0,0,1-5.77-3.335,9.146,9.146,0,0,0,1.87-.207,4.993,4.993,0,0,0,3.9,1.875h4.169a.834.834,0,0,0,.834-.834V13.342a4.993,4.993,0,0,0-1.878-3.9,9.146,9.146,0,0,0,.21-1.87A6.671,6.671,0,0,1,20.012,13.342ZM14.99,8.047A7.5,7.5,0,0,0,6.962.019,7.853,7.853,0,0,0,0,7.75v4.2c0,2.111,1.257,3.057,2.5,3.057H7.255A7.854,7.854,0,0,0,14.99,8.047Zm-3.358-4.67a5.852,5.852,0,0,1,1.694,4.553,6.14,6.14,0,0,1-6.072,5.411H2.5c-.774,0-.834-1.063-.834-1.389V7.75A6.139,6.139,0,0,1,7.079,1.683q.208-.015.415-.015a5.847,5.847,0,0,1,4.138,1.71Z" fill="#747474"/>
</svg>
