<svg xmlns="http://www.w3.org/2000/svg" width="20.2" height="17.76" viewBox="0 0 20.2 17.76">
  <g id="noun-check-mark-comment-347627" transform="translate(0.1 -1.942)">
    <path id="Path_100276" data-name="Path 100276" d="M15.7,2.042H4.3A4.357,4.357,0,0,0,0,6.44V10.8a4.357,4.357,0,0,0,4.3,4.4h7.2l5.234,4.295V15.063A4.381,4.381,0,0,0,20,10.8V6.44A4.357,4.357,0,0,0,15.7,2.042ZM18.75,10.8a3.114,3.114,0,0,1-2.709,3.126l-.552.065v2.859l-3.538-2.9H4.3A3.1,3.1,0,0,1,1.25,10.8V6.44A3.106,3.106,0,0,1,4.3,3.292H15.7A3.106,3.106,0,0,1,18.751,6.44V10.8Z" transform="translate(0 0)" stroke="#fff" stroke-width="0.2" fill="#000"/>
    <path id="Path_100277" data-name="Path 100277" d="M12.668,12l-2.11-1.733-.748.91,3.079,2.53,4.217-5.838-.955-.691Z" transform="translate(-3.458 -1.807)" stroke="#fff" stroke-width="0.2" fill="#000"/>
  </g>
</svg>
