<svg xmlns="http://www.w3.org/2000/svg" width="59.574" height="59.574" viewBox="-480.19 61.81 59.574 59.574"><path d="M-450.403 61.81c8.225 0 15.673 3.334 21.063 8.724 5.39 5.39 8.724 12.838 8.724 21.063s-3.334 15.673-8.724 21.063c-5.39 5.39-12.838 8.724-21.063 8.724s-15.673-3.334-21.063-8.724c-5.39-5.39-8.724-12.838-8.724-21.063s3.334-15.673 8.724-21.063c5.39-5.39 12.838-8.724 21.063-8.724ZM-464.1 90.778a1.577 1.577 0 0 1 2.282-2.173l8.58 9.057 17.096-16.538a1.571 1.571 0 0 1 2.186 2.257l-18.152 17.559a1.577 1.577 0 0 1-2.321.044l-9.67-10.206Zm32.527-18.01a26.538 26.538 0 0 0-18.828-7.8 26.545 26.545 0 0 0-18.828 7.8 26.538 26.538 0 0 0-7.799 18.827c0 7.353 2.982 14.01 7.8 18.828a26.538 26.538 0 0 0 18.827 7.799c7.352 0 14.01-2.981 18.828-7.799a26.538 26.538 0 0 0 7.798-18.828c0-7.352-2.98-14.01-7.798-18.827Z" fill="#19ceab" fill-rule="evenodd" data-name="Path 92761"/></svg>