<svg id="Checkbox_Selected" xmlns="http://www.w3.org/2000/svg" width="18" height="18" viewBox="0 0 18 18">
  <rect id="Checkbox" width="18" height="18" rx="2" fill="#108fe5"/>
  <path id="tik" d="M-1067.4,232.916a1.589,1.589,0,0,1-.452.791q-3.251,3.571-6.5,7.148a.884.884,0,0,1-1.032.308,1.1,1.1,0,0,1-.4-.278q-1.661-1.81-3.308-3.635a1.107,1.107,0,0,1,.076-1.611.9.9,0,0,1,1.284.147q1.273,1.4,2.543,2.8a1.332,1.332,0,0,1,.1.158,1.531,1.531,0,0,1,.1-.15l5.907-6.5a.893.893,0,0,1,1.012-.31.986.986,0,0,1,.642.768c.007.028.016.056.024.084Z" transform="translate(1082.395 -227.726)" fill="#fff"/>
</svg>
