<svg xmlns="http://www.w3.org/2000/svg" width="24" height="24" viewBox="0 0 24 24">
  <g id="Clinical_Trials" data-name="Clinical Trials" transform="translate(1411 -465)">
    <rect id="Rectangle_42" data-name="Rectangle 42" width="24" height="24" rx="12" transform="translate(-1411 465)" fill="#7cbf61"/>
    <g id="noun-clinical-2259798" transform="translate(-1421.342 463.625)">
      <path id="Path_80184" data-name="Path 80184" d="M39.456,26.132h.3a5.682,5.682,0,0,1,.032-.6h2.747a5.627,5.627,0,0,1,.032.6h.3a3.589,3.589,0,0,0-1.18-3.045,3.589,3.589,0,0,0,1.18-3.045h-.3a5.678,5.678,0,0,1-.032.6H39.787a5.626,5.626,0,0,1-.032-.6h-.3a3.589,3.589,0,0,0,1.18,3.045A3.589,3.589,0,0,0,39.456,26.132Zm3.038-.895H39.828a4.468,4.468,0,0,1,.242-.905h2.182A4.465,4.465,0,0,1,42.494,25.237Zm-2.288-3.1h1.91c-.253.49-.59.8-.955.8S40.458,22.63,40.205,22.14Z" transform="translate(-18.818 -12.242)" fill="#fff"/>
      <path id="Path_80185" data-name="Path 80185" d="M16.536,12.941a6.391,6.391,0,1,0,11.613,0A6.435,6.435,0,0,0,25.4,10V7.007h1.437V4.75H17.849V7.007h1.438V10A6.432,6.432,0,0,0,16.536,12.941Zm2.97-2.724.08-.042V7.007H25.1v3.168l.08.042a6.133,6.133,0,0,1,2.7,2.848,6.085,6.085,0,0,1,.49,3.443,1.766,1.766,0,0,0-.882.408,1.439,1.439,0,0,1-1.919,0,1.731,1.731,0,0,0-2.278,0,1.435,1.435,0,0,1-1.917,0,1.73,1.73,0,0,0-2.278,0,1.435,1.435,0,0,1-1.917,0,1.771,1.771,0,0,0-.86-.406,6.106,6.106,0,0,1-.067-.9,6.04,6.04,0,0,1,.557-2.543A6.128,6.128,0,0,1,19.506,10.217Z" transform="translate(0)" fill="#fff"/>
      <circle id="Ellipse_3142" data-name="Ellipse 3142" cx="0.517" cy="0.517" r="0.517" transform="translate(18.124 15.183)" fill="#fff"/>
      <path id="Path_80186" data-name="Path 80186" d="M67.171,54.592a.725.725,0,1,0-.725-.724A.725.725,0,0,0,67.171,54.592Z" transform="translate(-40.425 -38.742)" fill="#fff"/>
      <circle id="Ellipse_3143" data-name="Ellipse 3143" cx="0.517" cy="0.517" r="0.517" transform="translate(22.55 14.816)" fill="#fff"/>
    </g>
  </g>
</svg>
