<svg xmlns="http://www.w3.org/2000/svg" width="17.582" height="17.593"><g data-name="noun-time-1014321"><path d="M8.802 17.593a8.766 8.766 0 0 0 6.21-2.582c3.427-3.427 3.427-9.013 0-12.44-3.428-3.428-9.014-3.428-12.441 0-3.428 3.427-3.428 9.013 0 12.44a8.855 8.855 0 0 0 6.231 2.582ZM3.683 3.683a7.248 7.248 0 0 1 5.12-2.114c1.846 0 3.693.712 5.118 2.114A7.24 7.24 0 0 1 3.683 13.921a7.24 7.24 0 0 1 0-10.238Z" fill="#999" fill-rule="evenodd" data-name="Path 80119"/><path d="M5.686 10.026h3.561a.789.789 0 0 0 .78-.779v-4.45a.789.789 0 0 0-.78-.78.789.789 0 0 0-.779.78v3.671H5.686a.789.789 0 0 0-.779.78c0 .422.356.778.78.778Z" fill="#999" fill-rule="evenodd" data-name="Path 80120"/></g></svg>