<svg xmlns="http://www.w3.org/2000/svg" width="36" height="36" viewBox="337 196 18 18"><path d="m353.721 196.221-7.205 7.205c-.295.295-.762.295-1.032 0l-7.205-7.205c-.295-.295-.763-.295-1.033 0-.295.295-.295.763 0 1.033l7.205 7.205c.295.295.295.762 0 1.033l-7.23 7.23c-.295.294-.295.762 0 1.032.295.295.763.295 1.033 0l7.205-7.205c.295-.295.762-.295 1.033 0l7.23 7.23c.294.295.762.295 1.032 0 .295-.295.295-.763 0-1.033l-7.18-7.23c-.295-.295-.295-.762 0-1.032l7.205-7.205c.295-.295.295-.763 0-1.033a.765.765 0 0 0-1.058-.025Z" fill="#666" fill-rule="evenodd" data-name="noun-close-702576"/></svg>