<svg xmlns="http://www.w3.org/2000/svg" xmlns:xlink="http://www.w3.org/1999/xlink" width="24" height="24" viewBox="0 0 24 24">
  <defs>
    <clipPath id="clip-path">
      <rect id="Rectangle_8923" data-name="Rectangle 8923" width="3.239" height="5.186" fill="none"/>
    </clipPath>
  </defs>
  <g id="_" data-name="$" transform="translate(-308 -428)">
    <g id="Group_48620" data-name="Group 48620">
      <g id="Group_47818" data-name="Group 47818" transform="translate(308 428)">
        <g id="Ellipse_2" data-name="Ellipse 2" transform="translate(0 0)" fill="#fed843" stroke="#b5b5b5" stroke-width="0.5">
          <circle cx="12" cy="12" r="12" stroke="none"/>
          <circle cx="12" cy="12" r="11.75" fill="none"/>
        </g>
        <circle id="Ellipse_3" data-name="Ellipse 3" cx="9" cy="9" r="9" transform="translate(3 3)" fill="#fed843"/>
      </g>
      <g id="noun-charity-2412124" transform="translate(311.779 425.017)">
        <g id="Group_48585" data-name="Group 48585" transform="translate(0.88 9.6)">
          <path id="Path_100417" data-name="Path 100417" d="M15.52,13.294v-.023a4.707,4.707,0,0,0-1.107-2.308A4.126,4.126,0,0,0,11.232,9.6h-.163a4.233,4.233,0,0,0-2.832,1.119,4.465,4.465,0,0,0-.618-.455A4.646,4.646,0,0,0,4.81,9.647H4.8a4.052,4.052,0,0,0-2.855,1.538l-.012.012A5.052,5.052,0,0,0,.882,14.39,5.587,5.587,0,0,0,1.838,17.3a11,11,0,0,0,2.144,2.343A20,20,0,0,0,7.56,22.117l.023.012a1.4,1.4,0,0,0,.653.175,1.45,1.45,0,0,0,.653-.163l.023-.012a21.093,21.093,0,0,0,3.356-2.284,11.78,11.78,0,0,0,2.4-2.587A5.364,5.364,0,0,0,15.52,13.294Zm-1.818,3.3h0a10.489,10.489,0,0,1-2.179,2.354l-.012.012a19.4,19.4,0,0,1-3.158,2.156c-.082.047-.1.047-.128.047a.281.281,0,0,1-.128-.035,18.86,18.86,0,0,1-3.368-2.319L4.717,18.8a10.133,10.133,0,0,1-1.935-2.1,4.511,4.511,0,0,1-.769-2.331,3.811,3.811,0,0,1,.816-2.459A2.969,2.969,0,0,1,4.9,10.8a3.59,3.59,0,0,1,2.133.455,3.3,3.3,0,0,1,.793.676l.455.513.42-.536a3.064,3.064,0,0,1,2.4-1.154h.128a3.031,3.031,0,0,1,2.343,1v.012a3.7,3.7,0,0,1,.827,1.76A4.022,4.022,0,0,1,13.7,16.593Z" transform="translate(-0.88 -9.6)"/>
        </g>
      </g>
      <g id="Group_48622" data-name="Group 48622" transform="translate(318.38 438.375)">
        <g id="Group_48621" data-name="Group 48621" transform="translate(0 0)" clip-path="url(#clip-path)">
          <path id="Path_100419" data-name="Path 100419" d="M3.071,4.068a1.253,1.253,0,0,1-.5.448,1.785,1.785,0,0,1-.776.192v.478H1.422V4.7A1.76,1.76,0,0,1,.413,4.328a1.151,1.151,0,0,1-.407-.876H1.08a.484.484,0,0,0,.342.454V2.974a5.86,5.86,0,0,1-.735-.23,1.226,1.226,0,0,1-.481-.36A1.028,1.028,0,0,1,0,1.705,1.056,1.056,0,0,1,.4.844,1.76,1.76,0,0,1,1.422.478V0H1.8V.478a1.641,1.641,0,0,1,.979.36,1.215,1.215,0,0,1,.4.867H2.1a.45.45,0,0,0-.3-.413v.915a7.655,7.655,0,0,1,.755.242A1.221,1.221,0,0,1,3.03,2.8a1,1,0,0,1,.209.67,1.125,1.125,0,0,1-.168.6M1.159,1.906a.785.785,0,0,0,.263.177v-.82a.464.464,0,0,0-.26.127.369.369,0,0,0-.094.268.354.354,0,0,0,.091.248m.92,1.876a.394.394,0,0,0,.1-.277.339.339,0,0,0-.1-.251A.8.8,0,0,0,1.8,3.086v.838a.473.473,0,0,0,.28-.142" transform="translate(0 0)"/>
        </g>
      </g>
    </g>
  </g>
</svg>
