<svg xmlns="http://www.w3.org/2000/svg" width="24" height="24" viewBox="0 0 24 24">
  <g id="_" data-name="$" transform="translate(-1266 -13445)">
    <g id="Group_47818" data-name="Group 47818" transform="translate(1266 13445)">
      <g id="Ellipse_2" data-name="Ellipse 2" transform="translate(0 0)" fill="#fed843" stroke="#b5b5b5" stroke-width="0.5">
        <circle cx="12" cy="12" r="12" stroke="none"/>
        <circle cx="12" cy="12" r="11.75" fill="none"/>
      </g>
    </g>
    <g id="noun-charity-2412124" transform="translate(1270.12 13441.4)">
      <g id="Group_48585" data-name="Group 48585" transform="translate(0.88 9.6)">
        <path id="Path_100417" data-name="Path 100417" d="M15.52,13.294v-.023a4.707,4.707,0,0,0-1.107-2.308A4.126,4.126,0,0,0,11.232,9.6h-.163a4.233,4.233,0,0,0-2.832,1.119,4.465,4.465,0,0,0-.618-.455A4.646,4.646,0,0,0,4.81,9.647H4.8a4.052,4.052,0,0,0-2.855,1.538l-.012.012A5.052,5.052,0,0,0,.882,14.39,5.587,5.587,0,0,0,1.838,17.3a11,11,0,0,0,2.144,2.343A20,20,0,0,0,7.56,22.117l.023.012a1.4,1.4,0,0,0,.653.175,1.45,1.45,0,0,0,.653-.163l.023-.012a21.093,21.093,0,0,0,3.356-2.284,11.78,11.78,0,0,0,2.4-2.587A5.364,5.364,0,0,0,15.52,13.294Zm-1.818,3.3h0a10.489,10.489,0,0,1-2.179,2.354l-.012.012a19.4,19.4,0,0,1-3.158,2.156c-.082.047-.1.047-.128.047a.281.281,0,0,1-.128-.035,18.86,18.86,0,0,1-3.368-2.319L4.717,18.8a10.133,10.133,0,0,1-1.935-2.1,4.511,4.511,0,0,1-.769-2.331,3.811,3.811,0,0,1,.816-2.459A2.969,2.969,0,0,1,4.9,10.8a3.59,3.59,0,0,1,2.133.455,3.3,3.3,0,0,1,.793.676l.455.513.42-.536a3.064,3.064,0,0,1,2.4-1.154h.128a3.031,3.031,0,0,1,2.343,1v.012a3.7,3.7,0,0,1,.827,1.76A4.022,4.022,0,0,1,13.7,16.593Z" transform="translate(-0.88 -9.6)"/>
      </g>
    </g>
    <g id="Group_48678" data-name="Group 48678" transform="translate(-44.594 113.752)">
      <path id="noun-money-798457" d="M45.476,3.8a3.467,3.467,0,0,0,.5.233c.074.029.147.059.22.091a1.021,1.021,0,0,1,.241.145.279.279,0,0,1-.067.495.792.792,0,0,1-.417.054,1.94,1.94,0,0,1-.669-.2.317.317,0,0,0-.145-.047c-.116,0-.152.117-.173.18-.038.121-.072.243-.1.366-.054.2-.02.274.167.366a2.311,2.311,0,0,0,.648.186.536.536,0,0,1,.1.022.485.485,0,0,1,.009.113v.24a.217.217,0,0,0,.228.231h.359a.209.209,0,0,0,.219-.227V5.722c0-.074.017-.1.1-.119a1.261,1.261,0,0,0,.655-.42,1.158,1.158,0,0,0,.246-.954,1.238,1.238,0,0,0-.626-.847,5.3,5.3,0,0,0-.562-.256l-.074-.03a1.3,1.3,0,0,1-.314-.18.237.237,0,0,1-.1-.212.243.243,0,0,1,.156-.184.509.509,0,0,1,.182-.036A1.5,1.5,0,0,1,47,2.63c.239.115.291-.058.31-.132.032-.1.06-.194.088-.3l.033-.116A.217.217,0,0,0,47.3,1.8a2.045,2.045,0,0,0-.515-.15c-.16-.025-.16-.025-.16-.186,0-.338-.026-.388-.357-.388h-.178c-.194.006-.246.063-.251.253v.2c0,.143,0,.143-.142.194a1.131,1.131,0,0,0-.824,1.048A1.065,1.065,0,0,0,45.476,3.8Z" transform="translate(1276.73 13339.92)"/>
    </g>
  </g>
</svg>
