<svg xmlns="http://www.w3.org/2000/svg" width="14" height="14" viewBox="217.992 218 14 14"><path d="m219.573 229.43-1.376 1.375a.7.7 0 0 0 .495 1.195h6.3c3.863 0 7-3.137 7-7s-3.137-7-7-7-7 3.137-7 7c0 1.68.593 3.222 1.58 4.43Zm1.46.519a.7.7 0 0 0 0-.99 5.583 5.583 0 0 1-1.641-3.96c0-3.09 2.51-5.599 5.6-5.599s5.6 2.51 5.6 5.6-2.51 5.6-5.6 5.6h-4.61l.65-.651Zm1.165-2.85h5.6a.7.7 0 0 0 0-1.4h-5.6a.7.7 0 0 0 0 1.4Zm0-2.8h5.6a.7.7 0 0 0 0-1.399h-5.6a.7.7 0 0 0 0 1.4Z" fill="#999" fill-rule="evenodd" data-name="Path 93042"/></svg>