<svg xmlns="http://www.w3.org/2000/svg" width="23.94" height="23.94" viewBox="46.3 2516.3 23.94 23.94">
<g data-name="users-alt">
<path d="M58.37 2532.36a3.99 3.99 0 1 1 0-7.98 3.99 3.99 0 0 1 0 7.98Zm0-5.985a1.995 1.995 0 1 0 0 3.99 1.995 1.995 0 0 0 0-3.99Zm5.985 12.968a5.985 5.985 0 1 0-11.97 0 .998.998 0 1 0 1.995 0 3.99 3.99 0 0 1 7.98 0 .998.998 0 1 0 1.995 0Zm0-14.963a3.99 3.99 0 1 1 0-7.98 3.99 3.99 0 0 1 0 7.98Zm0-5.985a1.995 1.995 0 1 0 0 3.99 1.995 1.995 0 0 0 0-3.99Zm5.985 12.968a5.991 5.991 0 0 0-5.985-5.985.998.998 0 0 0 0 1.995 3.99 3.99 0 0 1 3.99 3.99.998.998 0 1 0 1.995 0Zm-17.955-6.983a3.99 3.99 0 1 1 0-7.98 3.99 3.99 0 0 1 0 7.98Zm0-5.985a1.995 1.995 0 1 0 0 3.99 1.995 1.995 0 0 0 0-3.99Zm-3.99 12.968a3.99 3.99 0 0 1 3.99-3.99.998.998 0 0 0 0-1.995 5.991 5.991 0 0 0-5.985 5.985.998.998 0 0 0 1.995 0Z" fill="#747474" fill-rule="evenodd"/><path d="M58.37 2532.36a3.99 3.99 0 1 1 0-7.98 3.99 3.99 0 0 1 0 7.98Zm0-5.985a1.995 1.995 0 1 0 0 3.99 1.995 1.995 0 0 0 0-3.99Zm5.985 12.968a5.985 5.985 0 1 0-11.97 0 .998.998 0 1 0 1.995 0 3.99 3.99 0 0 1 7.98 0 .998.998 0 1 0 1.995 0Zm0-14.963a3.99 3.99 0 1 1 0-7.98 3.99 3.99 0 0 1 0 7.98Zm0-5.985a1.995 1.995 0 1 0 0 3.99 1.995 1.995 0 0 0 0-3.99Zm5.985 12.968a5.991 5.991 0 0 0-5.985-5.985.998.998 0 0 0 0 1.995 3.99 3.99 0 0 1 3.99 3.99.998.998 0 1 0 1.995 0Zm-17.955-6.983a3.99 3.99 0 1 1 0-7.98 3.99 3.99 0 0 1 0 7.98Zm0-5.985a1.995 1.995 0 1 0 0 3.99 1.995 1.995 0 0 0 0-3.99Zm-3.99 12.968a3.99 3.99 0 0 1 3.99-3.99.998.998 0 0 0 0-1.995 5.991 5.991 0 0 0-5.985 5.985.998.998 0 0 0 1.995 0Z" stroke-linejoin="round" stroke-linecap="round" stroke-width=".2" stroke="#fff" fill="transparent"/></g></svg>