<svg xmlns="http://www.w3.org/2000/svg" width="30.036" height="23.408" viewBox="0 0 30.036 23.408">
  <g id="Community" transform="translate(1176.591 86.696)">
    <g id="noun-group-195974" transform="translate(-1181.607 -102.596)">
      <circle id="Ellipse_3126" data-name="Ellipse 3126" cx="5.042" cy="5.042" r="5.042" transform="translate(14.995 17.87)" fill="#0cf"/>
      <path id="Path_100023" data-name="Path 100023" d="M33.658,50.433a5.4,5.4,0,0,1-3.64,1.269,5.294,5.294,0,0,1-3.673-1.3c-3.239,1.236-5.677,5.176-6.311,8.649A2.024,2.024,0,0,0,21.6,61.286a31.375,31.375,0,0,0,8.415,1,26.907,26.907,0,0,0,8.615-1.035A1.827,1.827,0,0,0,40,59.316C39.4,55.743,36.964,51.7,33.658,50.433Z" transform="translate(-9.981 -22.98)" fill="#0cf"/>
      <path id="Path_100024" data-name="Path 100024" d="M16.13,41.939a5.643,5.643,0,0,1-1.536-2.671,4.926,4.926,0,0,1-1.636.267A4.157,4.157,0,0,1,10.053,38.5c-2.538.968-4.475,4.107-5.009,6.845a1.6,1.6,0,0,0,1.236,1.77,21.516,21.516,0,0,0,4.241.7C11.689,45.312,13.659,42.908,16.13,41.939Z" transform="translate(0 -15.053)" fill="#0cf"/>
      <path id="Path_100025" data-name="Path 100025" d="M20.774,23.881a3.937,3.937,0,0,0,1.536-.3,4.932,4.932,0,0,1-.033-.7,5.681,5.681,0,0,1,2.2-4.475,4.014,4.014,0,0,0-3.707-2.5,3.99,3.99,0,0,0,0,7.981Z" transform="translate(-7.849)" fill="#0cf"/>
      <path id="Path_100026" data-name="Path 100026" d="M72.786,45.646c-.467-2.838-2.4-6.011-5.009-7.046a4.285,4.285,0,0,1-2.905,1,4.8,4.8,0,0,1-1.636-.267A5.806,5.806,0,0,1,61.7,42.006a11.428,11.428,0,0,1,5.61,5.91,15.97,15.97,0,0,0,4.408-.768A1.33,1.33,0,0,0,72.786,45.646Z" transform="translate(-37.756 -15.12)" fill="#0cf"/>
      <path id="Path_100027" data-name="Path 100027" d="M62.4,22.946a4.931,4.931,0,0,1-.033.7A3.977,3.977,0,1,0,63.907,16,4.014,4.014,0,0,0,60.2,18.5,5.518,5.518,0,0,1,62.4,22.946Z" transform="translate(-36.757 -0.067)" fill="#0cf"/>
    </g>
  </g>
</svg>
