<svg xmlns="http://www.w3.org/2000/svg" width="24" height="24" viewBox="0 0 24 24">
  <g id="Community" transform="translate(0 -0.138)">
    <rect id="Rectangle_16" data-name="Rectangle 16" width="24" height="24" rx="12" transform="translate(0 0.138)" fill="#f19e12"/>
    <g id="Layer_2" data-name="Layer 2" transform="translate(3 3)">
      <g id="Layer_1" data-name="Layer 1">
        <path id="Path_80161" data-name="Path 80161" d="M12.913,28.427c0,1.047-.849,2.311-1.9,2.311s-1.9-1.264-1.9-2.311a1.9,1.9,0,1,1,3.793,0Z" transform="translate(-7.418 -21.911)" fill="#fff"/>
        <path id="Path_80162" data-name="Path 80162" d="M74.353,28.427c0,1.047-.849,2.311-1.9,2.311s-1.9-1.264-1.9-2.311a1.9,1.9,0,1,1,3.793,0Z" transform="translate(-57.389 -21.911)" fill="#fff"/>
        <path id="Path_80163" data-name="Path 80163" d="M41.7,21.863c0,1.374-1.107,3.013-2.473,3.013s-2.473-1.639-2.473-3.013a2.473,2.473,0,1,1,4.947,0Z" transform="translate(-29.89 -16.104)" fill="#fff"/>
        <path id="Path_80164" data-name="Path 80164" d="M34.239,54.821c0,2.018-1.269,1.841-4.695,1.841-3.584,0-4.695.187-4.695-1.841s2.679-3.651,4.695-3.651S34.239,52.805,34.239,54.821Z" transform="translate(-20.211 -41.952)" fill="#fff"/>
        <path id="Path_80165" data-name="Path 80165" d="M28.85,59.475A2.2,2.2,0,0,0,28.183,58a3.115,3.115,0,0,0-1.564,2.386,3.332,3.332,0,0,0,.034.508C28.232,60.867,28.85,60.7,28.85,59.475Z" transform="translate(-21.65 -47.507)" fill="#fff"/>
        <path id="Path_80166" data-name="Path 80166" d="M4.293,54.6a3.614,3.614,0,0,1,1.723-2.849A4.321,4.321,0,0,0,3.59,50.9C2.053,50.9,0,52.153,0,53.7s.853,1.409,3.6,1.409h.728a4.256,4.256,0,0,1-.034-.508Z" transform="translate(0 -41.732)" fill="#fff"/>
        <path id="Path_80167" data-name="Path 80167" d="M62.129,58a2.2,2.2,0,0,0-.659,1.493c0,1.239.551,1.4,2.184,1.411a2.93,2.93,0,0,0,.039-.51A3.124,3.124,0,0,0,62.129,58Z" transform="translate(-49.996 -47.507)" fill="#fff"/>
        <path id="Path_80168" data-name="Path 80168" d="M70.147,50.9a4.321,4.321,0,0,0-2.427.853A3.6,3.6,0,0,1,69.443,54.6a3.887,3.887,0,0,1-.032.51h.732c2.625,0,3.6.136,3.6-1.409S71.692,50.9,70.147,50.9Z" transform="translate(-55.079 -41.732)" fill="#fff"/>
        <rect id="Rectangle_11" data-name="Rectangle 11" width="18" height="18" transform="translate(0.333)" fill="none"/>
      </g>
    </g>
  </g>
</svg>
