<svg xmlns="http://www.w3.org/2000/svg" width="24" height="24" viewBox="0 0 24 24">
  <g id="Comment" transform="translate(-5827 -5846)">
    <rect id="Rectangle_8886" data-name="Rectangle 8886" width="24" height="24" transform="translate(5827 5846)" fill="#fff" opacity="0"/>
    <g id="comment-2" data-name="comment" transform="translate(5614.008 5633)">
      <path id="Path_93042" data-name="Path 93042" d="M219.573,229.429,218.2,230.8a.7.7,0,0,0,.495,1.2h6.3a7,7,0,1,0-5.419-2.57Zm1.46.519a.7.7,0,0,0,0-.99,5.6,5.6,0,1,1,3.959,1.641h-4.61ZM222.2,227.1h5.6a.7.7,0,1,0,0-1.4h-5.6a.7.7,0,0,0,0,1.4Zm0-2.8h5.6a.7.7,0,1,0,0-1.4h-5.6a.7.7,0,0,0,0,1.4Z" fill="#999" stroke="#fff" stroke-width="0.2" fill-rule="evenodd"/>
    </g>
  </g>
</svg>
