<svg xmlns="http://www.w3.org/2000/svg" width="24.14" height="24.141" viewBox="0 0 24.14 24.141">
  <path id="Community" d="M11.97,15.96a3.99,3.99,0,1,1,3.99-3.99A3.99,3.99,0,0,1,11.97,15.96Zm0-5.985a2,2,0,1,0,2,2A2,2,0,0,0,11.97,9.975Zm5.985,12.968a5.985,5.985,0,1,0-11.97,0,1,1,0,1,0,2,0,3.99,3.99,0,0,1,7.98,0,1,1,0,1,0,2,0Zm0-14.963a3.99,3.99,0,1,1,3.99-3.99A3.99,3.99,0,0,1,17.955,7.98Zm0-5.985a2,2,0,1,0,2,2A2,2,0,0,0,17.955,2ZM23.94,14.963a5.991,5.991,0,0,0-5.985-5.985,1,1,0,0,0,0,2,3.99,3.99,0,0,1,3.99,3.99,1,1,0,1,0,2,0ZM5.985,7.98a3.99,3.99,0,1,1,3.99-3.99A3.99,3.99,0,0,1,5.985,7.98ZM5.985,2a2,2,0,1,0,2,2A2,2,0,0,0,5.985,2ZM2,14.963a3.99,3.99,0,0,1,3.99-3.99,1,1,0,0,0,0-2A5.991,5.991,0,0,0,0,14.963a1,1,0,0,0,2,0Z" transform="translate(0.1 0.1)" fill="#747474" stroke="#fff" stroke-width="0.2"/>
</svg>
