<svg xmlns="http://www.w3.org/2000/svg" width="24" height="24" viewBox="0 0 24 24">
  <g id="Consult_with_Coach" data-name="Consult with Coach" transform="translate(1377 -164)">
    <rect id="Rectangle_38" data-name="Rectangle 38" width="24" height="24" rx="12" transform="translate(-1377 164)" fill="#e71e62"/>
    <path id="noun-customer-care-1231214" d="M18.572,7.772a6.567,6.567,0,0,0-13.127,0A1.833,1.833,0,0,0,4,9.565v1.915a1.828,1.828,0,0,0,1.828,1.828h.853a5.333,5.333,0,0,0,9.889,2.437h.557a1.828,1.828,0,0,0,1.828-1.828v-.8A1.846,1.846,0,0,0,20,11.463V9.548A1.812,1.812,0,0,0,18.572,7.772Zm-6.564-5.5A5.7,5.7,0,0,1,17.7,7.737h-.035A5.843,5.843,0,0,0,16.2,5.37a5.909,5.909,0,0,0-4.318-1.637,6,6,0,0,0-5.519,4H6.316A5.7,5.7,0,0,1,12.009,2.271Zm-7.121,9.21V9.565a.966.966,0,0,1,.958-.958h.3a6.269,6.269,0,0,0-.1,1.149v.5a1.653,1.653,0,0,0,.609,1.271l.052.035v.888H5.863A.984.984,0,0,1,4.888,11.481Zm7.121,5.972A4.466,4.466,0,0,1,7.552,13V11.341a1.349,1.349,0,0,1,.627-1.149l3.83-2.507,3.83,2.507a1.391,1.391,0,0,1,.627,1.149V13a4.506,4.506,0,0,1-.418,1.88h-1.88v-.749a.431.431,0,0,0-.435-.435h-2.8a.431.431,0,0,0-.435.435v2.159a.431.431,0,0,0,.435.435h2.8a.431.431,0,0,0,.435-.435v-.54h1.358A4.449,4.449,0,0,1,12.009,17.452Zm5.119-2.577h-.139a5.24,5.24,0,0,0,.331-1.567h.766v.609A.955.955,0,0,1,17.127,14.876Zm2-3.395a.966.966,0,0,1-.958.958h-.836V11.55l.052-.035A1.627,1.627,0,0,0,18,10.244V9.7a6.034,6.034,0,0,0-.1-1.114h.3a.966.966,0,0,1,.958.958v1.933Z" transform="translate(-1377 166.139)" fill="#fff"/>
  </g>
</svg>
