<svg xmlns="http://www.w3.org/2000/svg" width="36" height="36" viewBox="0 0 36 36">
  <g id="Consult_experts" data-name="Consult experts" transform="translate(-305 -67)">
    <circle id="Ellipse_3146" data-name="Ellipse 3146" cx="18" cy="18" r="18" transform="translate(305 67)" fill="#4c87f9"/>
    <g id="noun-doctor-1030184" transform="translate(304.94 69.5)">
      <path id="Path_80279" data-name="Path 80279" d="M22.886,53.781c.027.05.055.1.08.153a2.72,2.72,0,0,1,.232.781,1.262,1.262,0,1,1-.593-.022,2.112,2.112,0,0,0-.687-1.2c-.115-.023-.231-.045-.348-.061l-.03,0c-.079-.01-.158-.02-.239-.027,0,.008,0,.016,0,.024,0,.023-.005.046-.008.07a1.133,1.133,0,0,1-.116.386,28.514,28.514,0,0,1-2.562,4.17L18.449,55.7a1.373,1.373,0,0,0,.559-.545,1.083,1.083,0,0,0,.148-.527,3.4,3.4,0,0,1-1.2.263l-.1,0-.1,0a3.4,3.4,0,0,1-1.2-.263,1.085,1.085,0,0,0,.148.527,1.374,1.374,0,0,0,.559.545L17.1,58.051a28.453,28.453,0,0,1-2.562-4.17,1.143,1.143,0,0,1-.117-.386c0-.024-.007-.047-.008-.07,0-.008,0-.016,0-.024-.08.007-.16.017-.239.027l-.03,0-.118.019a2.1,2.1,0,0,0-.837,1.187.7.7,0,0,1,.307.362,2.936,2.936,0,0,1,1.351,1.5.408.408,0,0,1,0,.348,4.722,4.722,0,0,1,.35,1.678c0,.811-.035,1.319-.715,1.454a.346.346,0,0,1-.243.1h-.523a.35.35,0,0,1-.35-.35v-.007h0a.351.351,0,0,1,.349-.342h.523a.348.348,0,0,1,.146.033c.124-.026.144-.061.156-.081a2.161,2.161,0,0,0,.079-.8,4.131,4.131,0,0,0-.312-1.474.408.408,0,0,1-.2-.2c-.343-.717-.806-1.162-1.21-1.162s-.9.481-1.239,1.224a.412.412,0,0,1-.237.216,4.031,4.031,0,0,0-.282,1.393,2.17,2.17,0,0,0,.085.807c.012.019.036.058.176.084a.352.352,0,0,1,.157-.037h.523a.351.351,0,0,1,.349.329v.021a.35.35,0,0,1-.35.35h-.523a.346.346,0,0,1-.233-.091.81.81,0,0,1-.591-.351,2.146,2.146,0,0,1-.172-1.112,4.648,4.648,0,0,1,.337-1.643.408.408,0,0,1,.012-.308,3.835,3.835,0,0,1,.788-1.161,2.08,2.08,0,0,1,.559-.393.705.705,0,0,1,.352-.4,2.226,2.226,0,0,1,.354-.888,5.678,5.678,0,0,0-3.7,5.324c0,3.136,2.542,3.128,5.678,3.128h5.848c3.136,0,5.678.007,5.678-3.128A5.678,5.678,0,0,0,22.886,53.781ZM22.7,59.84a.14.14,0,0,1-.147.132h-.8v.8a.14.14,0,0,1-.132.147h-.789a.14.14,0,0,1-.132-.147v-.8h-.8a.14.14,0,0,1-.147-.132v-.789a.14.14,0,0,1,.147-.132h.8v-.8a.14.14,0,0,1,.132-.147h.789a.14.14,0,0,1,.132.147v.8h.8a.14.14,0,0,1,.147.132Z" transform="translate(0 -38.182)" fill="#fff"/>
      <path id="Path_80280" data-name="Path 80280" d="M33.964,5a4.368,4.368,0,0,0-4.242,3.832,4.763,4.763,0,0,0-.049.685c0,.1,0,.189.009.282.008.136.021.271.04.4,0,.041.007.081.01.121.27,3.062,2.062,5.428,4.232,5.428s3.962-2.366,4.232-5.428c0-.04.007-.08.01-.121.019-.133.032-.267.04-.4.005-.093.009-.187.009-.282a4.824,4.824,0,0,0-.049-.685A4.368,4.368,0,0,0,33.964,5Z" transform="translate(-16.109)" fill="#fff"/>
      <circle id="Ellipse_3155" data-name="Ellipse 3155" cx="0.632" cy="0.632" r="0.632" transform="translate(22.225 17.117)" fill="#fff"/>
    </g>
  </g>
</svg>
