<svg xmlns="http://www.w3.org/2000/svg" width="24" height="24" viewBox="0 0 24 24">
  <g id="Complimentary" transform="translate(-1466 -138)">
    <g id="Group_47958" data-name="Group 47958" transform="translate(1444 -182)">
      <rect id="Rectangle_20" data-name="Rectangle 20" width="24" height="24" rx="12" transform="translate(22 320)" fill="#2096f3"/>
    </g>
    <path id="Path_80310" data-name="Path 80310" d="M32.866,17.79a3.155,3.155,0,0,0-1.645-3.62,6.7,6.7,0,0,0-.976-.319,15.186,15.186,0,0,1-.382-5.068c.77-6.028-8.436-6.028-7.666,0a15.186,15.186,0,0,1-.382,5.068,6.7,6.7,0,0,0-.976.319,3.155,3.155,0,0,0-1.645,3.62C19.967,20.2,32.094,20.2,32.866,17.79Zm-3.542-1.9h.911v.734h.734v.911h-.734v.734h-.911v-.734H28.59v-.911h.734Zm-3.294.684,2.626-2.7-.721-1.038a2.4,2.4,0,0,1-3.809,0L23.4,13.877ZM28.6,10.854a2.9,2.9,0,0,1-2.572,2.365,2.9,2.9,0,0,1-2.572-2.365c-.459-.133-.709-.927-.774-1.242s.084-.8.617-.329a4.415,4.415,0,0,1,.4-1.588,1.322,1.322,0,0,1,1.6-.038c.711.351,2.98,1.419,3.445,1.638.541-.492.7-.009.628.318s-.315,1.109-.774,1.242Z" transform="translate(1451.937 137.738)" fill="#fff" fill-rule="evenodd"/>
  </g>
</svg>
