<svg xmlns="http://www.w3.org/2000/svg" width="21.171" height="23" viewBox="0 0 21.171 23">
  <g id="Contacts" transform="translate(-9.5 -958.362)">
    <path id="Path_92944" data-name="Path 92944" d="M12.824,958.362a1.5,1.5,0,0,0-1.495,1.495V961.5h-.261a1.568,1.568,0,1,0,0,3.136h.261v3.659h-.261a1.568,1.568,0,1,0,0,3.136h.261v3.659h-.261a1.568,1.568,0,0,0,0,3.136h.261v1.634a1.5,1.5,0,0,0,1.495,1.5H29.176a1.506,1.506,0,0,0,1.495-1.5v-20a1.5,1.5,0,0,0-1.495-1.495Zm-1.756,4.182h1.568a.523.523,0,1,1,0,1.045H11.068a.523.523,0,1,1,0-1.045Zm9.932,0a3.136,3.136,0,1,1-3.136,3.136A3.144,3.144,0,0,1,21,962.544Zm-9.932,6.8h1.568a.523.523,0,0,1,0,1.046H11.068a.523.523,0,0,1,0-1.046Zm7.71,0h4.443a3.247,3.247,0,0,1,3.267,3.218v3.578a.543.543,0,0,1-.523.523H16.034a.543.543,0,0,1-.523-.523v-3.578A3.247,3.247,0,0,1,18.779,969.339Zm-7.71,6.8h1.568a.523.523,0,1,1,0,1.045H11.068a.523.523,0,1,1,0-1.045Z" transform="translate(0 0)" fill="#4fb4f8"/>
  </g>
</svg>
