<svg xmlns="http://www.w3.org/2000/svg" width="60" height="60" viewBox="0 0 60 60">
  <g id="DailySteps" transform="translate(-30 -776.693)">
    <circle id="Ellipse_3126" data-name="Ellipse 3126" cx="30" cy="30" r="30" transform="translate(30 776.693)" fill="#f5f6fa"/>
    <g id="noun-steps-1166846" transform="translate(29.246 780.655)">
      <path id="Path_92926" data-name="Path 92926" d="M31.15,71.032c-2.144.451-4.024.038-3.5,2.52s2.708,4.137,4.852,3.686,3.5-2.9,2.971-5.378S33.331,70.543,31.15,71.032Z" transform="translate(-5.292 -37.267)" fill="#4fb4f8"/>
      <path id="Path_92927" data-name="Path 92927" d="M25.669,45.148c.15-.038.263-.075.414-.113a5.321,5.321,0,0,0,1.956-.978,3.691,3.691,0,0,0,1.091-2.106,11.952,11.952,0,0,0-.527-5.98,9.8,9.8,0,0,0-2.482-3.987A4.134,4.134,0,0,0,22.7,30.63a4.3,4.3,0,0,0-2.858,2.67,9.873,9.873,0,0,0-.527,5.98,14.891,14.891,0,0,0,1.655,4.1,4.158,4.158,0,0,0,1.881,1.805A4.266,4.266,0,0,0,25.669,45.148Z" transform="translate(0 -12.473)" fill="#4fb4f8"/>
      <path id="Path_92928" data-name="Path 92928" d="M57.749,51.875c-2.144-.15-3.949-1.5-4.363,1.016a4.318,4.318,0,0,0,3.272,5.153c2.181.339,4.288-1.429,4.664-3.949S59.893,52.364,57.749,51.875Z" transform="translate(-21.361 -25.444)" fill="#4fb4f8"/>
      <path id="Path_92929" data-name="Path 92929" d="M60.883,10.634c-2.031-.3-3.46,1.166-4.4,2.746a12.392,12.392,0,0,0-1.73,5.529,11.867,11.867,0,0,0,.188,3.047,3.76,3.76,0,0,0,1.091,2.37,4.515,4.515,0,0,0,1.693.715,10.287,10.287,0,0,0,2.633.3,2.578,2.578,0,0,0,2.37-1.316,11.36,11.36,0,0,0,1.918-5.566,11.683,11.683,0,0,0-1.015-5.642,5.22,5.22,0,0,0-1.166-1.542A3.9,3.9,0,0,0,60.883,10.634Z" transform="translate(-22.238 0)" fill="#4fb4f8"/>
    </g>
  </g>
</svg>
