<svg xmlns="http://www.w3.org/2000/svg" width="19.813" height="24" viewBox="-0.3 -0.3 19.813 24"><g data-name="Path 92744"><path d="M14.117-.15c.065.039.132.075.196.116.429.275.432.872-.01 1.18a9.402 9.402 0 0 0-1.798 1.602 8.738 8.738 0 0 0-1.854 3.638c-.014.059-.021.12-.04.23.277-.133.514-.261.761-.364.569-.234 1.127-.515 1.718-.67 1.139-.3 2.202.006 3.188.59 1.516.9 2.444 2.253 2.948 3.91.538 1.771.548 3.57.196 5.375-.4 2.056-1.163 3.964-2.404 5.664-.703.963-1.53 1.8-2.628 2.317-1.187.56-2.37.557-3.54-.06-.227-.12-.458-.237-.689-.351a.87.87 0 0 0-.812-.003c-.203.1-.408.197-.607.306-1.385.758-2.746.664-4.077-.13-.994-.591-1.762-1.423-2.394-2.376-1.609-2.426-2.46-5.09-2.42-8.01.023-1.656.378-3.239 1.297-4.652.892-1.37 2.12-2.271 3.74-2.61.03-.006.058-.02.117-.041-.093-.115-.179-.218-.262-.324a6.253 6.253 0 0 1-1.377-3.853c-.009-.493.29-.798.788-.778C6.675.66 8.53 1.834 9.732 4.041c.044.08.084.163.136.266C10.735 2.434 12 .935 13.741-.15h.376Zm4.136 13.597c-.014-1.338-.129-2.327-.475-3.277-.475-1.302-1.26-2.344-2.535-2.968-.806-.394-1.624-.432-2.446-.069-.507.224-.997.484-1.502.713-.97.439-1.953.464-2.933.043-.51-.22-1.002-.475-1.509-.7-.52-.23-1.065-.383-1.64-.279-1.219.22-2.12.925-2.806 1.918-.825 1.191-1.113 2.55-1.148 3.968-.056 2.288.558 4.412 1.658 6.404.552.999 1.22 1.91 2.16 2.588.66.476 1.386.798 2.214.592.424-.105.828-.318 1.22-.523.818-.43 1.626-.45 2.443-.014.179.096.361.186.54.283.731.402 1.476.407 2.23.07.686-.306 1.247-.781 1.717-1.353 1.845-2.245 2.698-4.853 2.812-7.396M4.888 2.04c-.284 1.465 2.287 4.051 4.018 4.042-.157-1.67-1.711-3.711-4.018-4.042" fill="#747474" fill-rule="evenodd"/><path d="M14.117-.15c.065.039.132.075.196.116.429.275.432.872-.01 1.18a9.402 9.402 0 0 0-1.798 1.602 8.738 8.738 0 0 0-1.854 3.638c-.014.059-.021.12-.04.23.277-.133.514-.261.761-.364.569-.234 1.127-.515 1.718-.67 1.139-.3 2.202.006 3.188.59 1.516.9 2.444 2.253 2.948 3.91.538 1.771.548 3.57.196 5.375-.4 2.056-1.163 3.964-2.404 5.664-.703.963-1.53 1.8-2.628 2.317-1.187.56-2.37.557-3.54-.06-.227-.12-.458-.237-.689-.351a.87.87 0 0 0-.812-.003c-.203.1-.408.197-.607.306-1.385.758-2.746.664-4.077-.13-.994-.591-1.762-1.423-2.394-2.376-1.609-2.426-2.46-5.09-2.42-8.01.023-1.656.378-3.239 1.297-4.652.892-1.37 2.12-2.271 3.74-2.61.03-.006.058-.02.117-.041-.093-.115-.179-.218-.262-.324a6.253 6.253 0 0 1-1.377-3.853c-.009-.493.29-.798.788-.778C6.675.66 8.53 1.834 9.732 4.041c.044.08.084.163.136.266C10.735 2.434 12 .935 13.741-.15h.376Zm4.136 13.597c-.014-1.338-.129-2.327-.475-3.277-.475-1.302-1.26-2.344-2.535-2.968-.806-.394-1.624-.432-2.446-.069-.507.224-.997.484-1.502.713-.97.439-1.953.464-2.933.043-.51-.22-1.002-.475-1.509-.7-.52-.23-1.065-.383-1.64-.279-1.219.22-2.12.925-2.806 1.918-.825 1.191-1.113 2.55-1.148 3.968-.056 2.288.558 4.412 1.658 6.404.552.999 1.22 1.91 2.16 2.588.66.476 1.386.798 2.214.592.424-.105.828-.318 1.22-.523.818-.43 1.626-.45 2.443-.014.179.096.361.186.54.283.731.402 1.476.407 2.23.07.686-.306 1.247-.781 1.717-1.353 1.845-2.245 2.698-4.853 2.812-7.396M4.888 2.04c-.284 1.465 2.287 4.051 4.018 4.042-.157-1.67-1.711-3.711-4.018-4.042" stroke-linejoin="round" stroke-linecap="round" stroke-width=".3" stroke="#747474" fill="transparent"/></g></svg>