<svg xmlns="http://www.w3.org/2000/svg" width="30.787" height="33.441" viewBox="-1191 3377.28 15.393 16.72"><g data-name="noun-delete-4825432"><path d="M-1181.976 3377.28h-2.654c-.876 0-1.593.716-1.593 1.592v.53h-4.246a.532.532 0 0 0-.531.532c0 .292.239.53.53.53h.797v11.413a2.13 2.13 0 0 0 2.123 2.123h8.493a2.13 2.13 0 0 0 2.123-2.123v-11.413h.797c.291 0 .53-.238.53-.53a.532.532 0 0 0-.53-.531h-4.247v-.531c0-.876-.716-1.592-1.592-1.592Zm-3.185 1.592c0-.292.239-.53.53-.53h2.655c.292 0 .53.238.53.53v.53h-3.715v-.53Zm7.166 1.592v11.413c0 .584-.478 1.061-1.062 1.061h-8.493a1.065 1.065 0 0 1-1.061-1.061v-11.413h10.616Z" fill="#515151" fill-rule="evenodd" data-name="Path 7"/><path d="M-1180.65 3390.019c.293 0 .532-.239.532-.53v-5.68a.532.532 0 0 0-.531-.531.532.532 0 0 0-.531.53v5.68c0 .292.239.53.53.53Z" fill="#515151" fill-rule="evenodd" data-name="Path 6"/><path d="M-1185.957 3390.019c.292 0 .53-.239.53-.53v-5.68a.532.532 0 0 0-.53-.531.532.532 0 0 0-.531.53v5.68c0 .292.239.53.53.53Z" fill="#515151" fill-rule="evenodd" data-name="Path 5"/><path d="M-1183.303 3391.08c.292 0 .53-.238.53-.53v-7.803a.532.532 0 0 0-.53-.53.532.532 0 0 0-.531.53v7.803c0 .292.239.53.53.53Z" fill="#515151" fill-rule="evenodd" data-name="Path 4"/></g></svg>