<svg xmlns="http://www.w3.org/2000/svg" width="60" height="60" viewBox="0 0 60 60">
  <g id="Depression" transform="translate(-30 -489.436)">
    <circle id="Ellipse_3126" data-name="Ellipse 3126" cx="30" cy="30" r="30" transform="translate(30 489.436)" fill="#f5f6fa"/>
    <path id="noun-depression-2686170" d="M358.76,268.5a6.327,6.327,0,0,1,1.027-3.833c2.945-3.821,4.251-7.134,3.636-11.211a11.437,11.437,0,0,0-5.6-8.663,1.8,1.8,0,0,0,.357-1.079,2.16,2.16,0,0,0-1.8-2.146,2.743,2.743,0,0,0-2.656-2.385c-.2-.673-.9-2.078-3.28-2.078s-3.083,1.4-3.28,2.078a2.746,2.746,0,0,0-2.656,2.385,2.16,2.16,0,0,0-1.8,2.146,1.792,1.792,0,0,0,.523,1.273,9.532,9.532,0,0,0-4.814,8.441c.025.827.169,2.038.166,2.831-.006,2.819-2.444,3.975-2.49,4.872-.077,1.472,1.651,1.011,2.262,3.1.772,2.643-.338,5.659,3.264,5.471,1.438-.058,3.775-.615,4.777.314.639.6,1.153,3.185,1.352,4.331h0a.663.663,0,0,0,.655.55h10.82a.665.665,0,0,0,.639-.848,28.74,28.74,0,0,1-1.1-5.545Zm-15.284-24.794c-.012-1.236,1.272-1.408,1.417-1.423h0a.387.387,0,0,0,.347-.353,2.042,2.042,0,0,1,2.21-1.983.384.384,0,0,0,.406-.347c.006-.071.2-1.724,2.588-1.724s2.582,1.654,2.588,1.721a.385.385,0,0,0,.406.35,2.062,2.062,0,0,1,2.21,1.983.388.388,0,0,0,.347.353c.058.006,1.432.154,1.417,1.423a1.031,1.031,0,0,1-.283.722,1.365,1.365,0,0,1-.347.274,3.525,3.525,0,0,1-3.114-.064h0a.387.387,0,0,0-.507.114,3.06,3.06,0,0,1-2.588,1.4,3.527,3.527,0,0,1-2.846-1.4.391.391,0,0,0-.507-.114,3.524,3.524,0,0,1-3.114.064h0a1.246,1.246,0,0,1-.175-.117,1.068,1.068,0,0,1-.455-.879Zm1.331,3.95-.5.858h0a.386.386,0,0,1-.332.191.369.369,0,0,1-.194-.052.383.383,0,0,1-.138-.526l.5-.856a.384.384,0,0,1,.664.387Zm1.7,2.665-.5.858h0a.386.386,0,0,1-.332.191.361.361,0,0,1-.194-.052.383.383,0,0,1-.138-.526l.5-.858a.384.384,0,1,1,.664.387Zm2.6-2.075-.5.861a.389.389,0,0,1-.332.191.407.407,0,0,1-.194-.052.385.385,0,0,1-.135-.526l.5-.861a.384.384,0,1,1,.664.387Zm1.559,2.828-.5.861a.388.388,0,0,1-.331.192.37.37,0,0,1-.194-.055.379.379,0,0,1-.138-.522l.5-.861a.384.384,0,1,1,.664.387Zm2.219-2.828-.5.861a.389.389,0,0,1-.332.191.4.4,0,0,1-.194-.052.384.384,0,0,1-.138-.526l.5-.861a.384.384,0,1,1,.664.387Zm1.943,2.213-.5.861a.389.389,0,0,1-.332.191.379.379,0,0,1-.194-.055.384.384,0,0,1-.138-.522l.5-.861a.383.383,0,0,1,.526-.139.389.389,0,0,1,.138.526Zm2.4-2.8-.5.858a.382.382,0,0,1-.332.191.368.368,0,0,1-.194-.052.383.383,0,0,1-.138-.526l.5-.858a.384.384,0,1,1,.664.387Z" transform="translate(-290.09 262.328)" fill="#4fb4f8"/>
  </g>
</svg>
