<svg xmlns="http://www.w3.org/2000/svg" width="60" height="60" viewBox="0 0 60 60">
  <g id="Diarrhoea" transform="translate(-30 -686.564)">
    <circle id="Ellipse_3126" data-name="Ellipse 3126" cx="30" cy="30" r="30" transform="translate(30 686.564)" fill="#f5f6fa"/>
    <path id="noun-stomach-pain-2677044" d="M280.846,262.32c-1.22-2.037-8.547-1.9-9.5-2.374s-.95-2.374-.95-2.374h-5.7s0,1.9-.95,2.374-8.277.337-9.5,2.374c-1.425,2.374,0,12.821,0,12.821l-.475,9.972H257.1s1.425-10.447,1.425-11.4c0-.272.039-.818.1-1.456l-.186-.248a.474.474,0,0,1-.087-.2l-.68-3.717a.475.475,0,1,1,.934-.171l.638,3.5a.474.474,0,0,0,.087.2l2.141,2.856a.475.475,0,0,0,.38.19h3.575a.475.475,0,0,0,.212-.05l.324-.162a.475.475,0,1,1,.425.849l-.525.262a.474.474,0,0,1-.212.05h-4.274a.475.475,0,0,1-.38-.19l-1.975-2.635c.361,1.863.731,3.65.931,4.249.475,1.425.475,8.073.475,8.073h14.246s0-6.648.475-8.073c.2-.6.57-2.386.931-4.249l-1.975,2.635a.476.476,0,0,1-.38.19H269.45a.475.475,0,0,1-.212-.05l-.525-.262a.475.475,0,0,1,.425-.85l.324.162a.473.473,0,0,0,.213.05h3.575a.475.475,0,0,0,.38-.19l2.141-2.856a.474.474,0,0,0,.087-.2l.638-3.5a.475.475,0,0,1,.552-.382h0a.475.475,0,0,1,.382.552l-.68,3.717a.474.474,0,0,1-.087.2l-.186.248c.057.638.1,1.184.1,1.456,0,.95,1.425,11.4,1.425,11.4h3.324l-.475-9.972s1.424-10.447,0-12.821Zm-18.044,11.4h-.95v-.95h.95Zm7.123,3.324-.95,1.9h1.9l-4.274,4.274V279.89h-1.425l-.475-2.849Zm3.324-3.324h-.95v-.95h.95Z" transform="translate(-207.315 443.095)" fill="#4fb4f8"/>
  </g>
</svg>
