<?xml version="1.0" encoding="utf-8"?>
<!-- Generator: Adobe Illustrator 26.0.3, SVG Export Plug-In . SVG Version: 6.00 Build 0)  -->
<svg version="1.1" id="Layer_1" xmlns="http://www.w3.org/2000/svg" xmlns:xlink="http://www.w3.org/1999/xlink" x="0px" y="0px"
	 viewBox="0 0 36.7 44" style="enable-background:new 0 0 36.7 44;" xml:space="preserve">
<style type="text/css">
	.st0{opacity:0.2;}
	.st1{fill:#43A6E4;}
	.st2{enable-background:new    ;}
	.st3{fill:#FFFFFF;}
</style>
<g id="Group_47222" transform="translate(1149 -2980.999)">
	<g id="noun-pdf-1658745" transform="translate(-1149 2981)" class="st0">
		<path id="Union_1" class="st1" d="M2.9,44C0.8,44,0,43.2,0,41.1V2.9C0,0.8,0.8,0,2.9,0H22c1.3-0.1,2.5,0.4,3.3,1.4l9.9,9.9
			c1,0.8,1.5,2.1,1.4,3.3v26.4c0,2.1-0.8,2.9-2.9,2.9H2.9z M2.6,40.7c0,0.6,0.2,0.8,0.8,0.8h30c0.6,0,0.8-0.2,0.8-0.8v-9.5H2.6
			L2.6,40.7z M2.6,3.3v14.6h31.5v-4.1c0-0.3-0.1-0.4-0.4-0.4h-7.6c-2.1,0-2.9-0.8-2.9-2.9V2.9c0-0.3-0.1-0.4-0.4-0.4H3.3
			C2.8,2.6,2.6,2.8,2.6,3.3z"/>
	</g>
	<rect id="Rectangle_88" x="-1149" y="2999" class="st1" width="34" height="13"/>
	<g class="st2">
		<path class="st3" d="M-1137,3005.9c0,2.6-1.8,4.1-4.4,4.1h-2.7v-8.3h2.7C-1138.7,3001.7-1137,3003.3-1137,3005.9z M-1141.4,3008.9
			c2,0,3-1.1,3-3c0-1.9-1.1-3.1-3-3.1h-1.4v6.1H-1141.4z"/>
		<path class="st3" d="M-1131.8,3010.1c-2.4,0-4.3-1.8-4.3-4.3c0-2.5,1.9-4.3,4.3-4.3c2.4,0,4.3,1.8,4.3,4.3
			C-1127.5,3008.3-1129.4,3010.1-1131.8,3010.1z M-1131.8,3008.9c1.7,0,2.9-1.2,2.9-3.1s-1.2-3.1-2.9-3.1c-1.7,0-2.9,1.2-2.9,3.1
			S-1133.4,3008.9-1131.8,3008.9z"/>
		<path class="st3" d="M-1122.4,3001.6c1.7,0,3.2,0.9,3.9,2.5h-1.6c-0.4-0.9-1.2-1.3-2.2-1.3c-1.7,0-2.9,1.2-2.9,3.1
			s1.2,3.1,2.9,3.1c1,0,1.8-0.4,2.2-1.3h1.6c-0.6,1.6-2.1,2.5-3.9,2.5c-2.4,0-4.3-1.8-4.3-4.3
			C-1126.6,3003.3-1124.7,3001.6-1122.4,3001.6z"/>
	</g>
</g>
</svg>
