<svg xmlns="http://www.w3.org/2000/svg" width="44.885" height="67.454" viewBox="0 0 44.885 67.454">
  <g id="Doctor" transform="translate(-62.016 -558.061)">
    <g id="Group_48248" data-name="Group 48248" transform="translate(62.016 558.061)">
      <g id="Group_48249" data-name="Group 48249" transform="translate(0 0)">
        <g id="Group_46639" data-name="Group 46639" transform="translate(0 0)">
          <g id="Group_46642" data-name="Group 46642" transform="translate(0)">
            <path id="Path_92991" data-name="Path 92991" d="M39.859,3.123a3.91,3.91,0,0,1,2.748-2.8,4.675,4.675,0,0,1,4.3.457,9.606,9.606,0,0,0,2.465,1.686c1.586.456,3.347-.81,4.878-.193a2.2,2.2,0,0,1,1.3,2.374,2.2,2.2,0,0,1-2.08,1.73,1.888,1.888,0,0,1,.888,2.684,2.838,2.838,0,0,1-2.819,1.205A5.981,5.981,0,0,1,48.65,8.855c-.844-.679-1.61-1.457-2.506-2.067A4.647,4.647,0,0,0,43.1,5.857,4.255,4.255,0,0,0,39.87,8.534a10.9,10.9,0,0,0-.649,4.32,18,18,0,0,1-.3,4.377c-.042.167-.109.355-.271.415-.233.086-.449-.155-.579-.367a21.523,21.523,0,0,1-2.895-7.855,6.668,6.668,0,0,1,.52-4.56c.816-1.413,3.012-2.541,4.163-1.74" transform="translate(-20.265 -0.001)" fill="#263238"/>
            <path id="Path_92992" data-name="Path 92992" d="M37.48,30.089c-.074-.03-2.964-.788-2.79,2.135a2.2,2.2,0,0,0,3.074,2.06c0-.084-.284-4.2-.284-4.2" transform="translate(-20.074 -17.352)" fill="#ffbe9d"/>
            <path id="Path_92993" data-name="Path 92993" d="M37.833,34.564c-.013-.008-.049.039-.132.083a.51.51,0,0,1-.38.03,1.263,1.263,0,0,1-.651-1.1,1.688,1.688,0,0,1,.1-.738.59.59,0,0,1,.36-.414.259.259,0,0,1,.309.122c.044.079.029.139.045.143s.06-.053.029-.172a.328.328,0,0,0-.126-.176.386.386,0,0,0-.286-.058.717.717,0,0,0-.5.485,1.725,1.725,0,0,0-.128.825,1.324,1.324,0,0,0,.818,1.218.547.547,0,0,0,.461-.1c.086-.077.1-.144.087-.149" transform="translate(-21.103 -18.686)" fill="#aa6550"/>
            <path id="Path_92994" data-name="Path 92994" d="M47.165,5.966a7.881,7.881,0,0,1,8.422,7.447c.191,3.662.36,7.622.319,9.617-.087,4.28-4.374,4.912-4.374,4.912s.094,1.269.2,2.844a5.638,5.638,0,1,1-11.259.588l-.637-17.252a7.883,7.883,0,0,1,7.329-8.155" transform="translate(-23.054 -3.442)" fill="#ffbe9d"/>
            <path id="Path_92995" data-name="Path 92995" d="M60.065,55.84a10.184,10.184,0,0,1-5.492-1.692s1.295,3.114,5.569,2.763Z" transform="translate(-31.586 -31.341)" fill="#aa6550"/>
            <path id="Path_92996" data-name="Path 92996" d="M72.153,30.063a.611.611,0,0,1-.594.612.585.585,0,0,1-.626-.556.612.612,0,0,1,.594-.613.585.585,0,0,1,.626.557" transform="translate(-41.055 -17.078)" fill="#263238"/>
            <path id="Path_92997" data-name="Path 92997" d="M71.432,26.377c-.076.079-.537-.267-1.195-.271s-1.142.321-1.213.241c-.035-.036.044-.179.255-.331a1.676,1.676,0,0,1,.972-.291,1.608,1.608,0,0,1,.95.315c.2.157.268.3.231.337" transform="translate(-39.946 -14.89)" fill="#263238"/>
            <path id="Path_92998" data-name="Path 92998" d="M57.072,29.841a.611.611,0,0,1-.594.612.585.585,0,0,1-.626-.556.612.612,0,0,1,.594-.613.585.585,0,0,1,.626.557" transform="translate(-32.326 -16.949)" fill="#263238"/>
            <path id="Path_92999" data-name="Path 92999" d="M56.078,26.545c-.076.079-.537-.267-1.195-.271s-1.142.322-1.213.241c-.035-.036.043-.179.255-.331a1.675,1.675,0,0,1,.972-.291,1.612,1.612,0,0,1,.95.315c.2.157.268.3.231.337" transform="translate(-31.059 -14.987)" fill="#263238"/>
            <path id="Path_93000" data-name="Path 93000" d="M64.611,31.534a4.335,4.335,0,0,1,1.069-.184c.168-.016.328-.048.357-.163a.853.853,0,0,0-.108-.5q-.233-.612-.486-1.283a21.825,21.825,0,0,1-1.089-3.355A22.123,22.123,0,0,1,65.71,29.31c.162.45.318.879.465,1.291a.968.968,0,0,1,.082.66.421.421,0,0,1-.278.243,1.13,1.13,0,0,1-.285.037,4.265,4.265,0,0,1-1.083-.007" transform="translate(-37.243 -15.078)" fill="#263238"/>
            <path id="Path_93001" data-name="Path 93001" d="M60.218,40.112c.107-.005.1.708.71,1.22s1.368.439,1.373.539c.01.045-.171.137-.492.144a1.776,1.776,0,0,1-1.146-.41,1.548,1.548,0,0,1-.549-1.023c-.025-.3.056-.475.1-.47" transform="translate(-34.791 -23.217)" fill="#263238"/>
            <path id="Path_93002" data-name="Path 93002" d="M55.546,21.661c-.067.178-.722.088-1.495.175-.775.071-1.4.292-1.5.131-.045-.077.064-.244.318-.416a2.616,2.616,0,0,1,2.281-.233c.283.117.424.258.4.343" transform="translate(-30.411 -12.246)" fill="#263238"/>
            <path id="Path_93003" data-name="Path 93003" d="M71.457,21.658c-.117.148-.569-.01-1.114-.022-.545-.031-1.007.092-1.112-.065-.046-.076.028-.225.23-.365a1.613,1.613,0,0,1,1.794.07c.191.155.254.31.2.382" transform="translate(-40.063 -12.136)" fill="#263238"/>
            <path id="Path_93004" data-name="Path 93004" d="M55.751,10.807c-.831,1.2-4.129.714-5.776-.523A9.458,9.458,0,0,0,46.4,8.414a3.672,3.672,0,0,0-2.78.549,7.1,7.1,0,0,0-2.009,2.079c1.008,2.241.574,4.836.121,7.252a1.229,1.229,0,0,1-.317.733.982.982,0,0,1-1.246-.2,3.818,3.818,0,0,1-.956-1.962,12.713,12.713,0,0,1-.267-5.006,8.656,8.656,0,0,1,2.116-4.5,8.2,8.2,0,0,1,5.613-2.51,10.069,10.069,0,0,1,5.953,1.739,5.9,5.9,0,0,1,2.024,2.07" transform="translate(-22.464 -2.802)" fill="#263238"/>
            <path id="Path_93024" data-name="Path 93024" d="M40.342,65.867l-.162-5.08a6.134,6.134,0,0,0,6.295,4.588c5.052-.058,4.959-4.1,4.959-4.1l.18,2.047V71.6L48.319,85.09l-4.208.534L39.461,67.18Z" transform="translate(-22.84 -35.183)" fill="#19ceab"/>
            <path id="Path_93025" data-name="Path 93025" d="M52.179,68.218a.527.527,0,0,1-.061.108,2.886,2.886,0,0,1-.2.294,4.325,4.325,0,0,1-.941.911,5.4,5.4,0,0,1-1.758.826,6.2,6.2,0,0,1-2.371.164,7.724,7.724,0,0,1-2.277-.685,9.884,9.884,0,0,1-1.664-1A11.445,11.445,0,0,1,41.9,68c-.115-.1-.2-.19-.255-.247a.516.516,0,0,1-.083-.092.581.581,0,0,1,.1.076l.269.232c.233.2.577.485,1.024.8a10.337,10.337,0,0,0,1.661.974,7.8,7.8,0,0,0,2.249.668,6.221,6.221,0,0,0,2.331-.153,5.475,5.475,0,0,0,1.739-.791,4.632,4.632,0,0,0,.952-.874c.193-.239.284-.383.294-.377" transform="translate(-24.055 -39.161)" fill="#263238"/>
            <path id="Subtraction_1" data-name="Subtraction 1" d="M31.18,37.857H1.156C.618,31.179-.019,23.213,0,23.186a.081.081,0,0,1,0,.02c0,.012,0,.018.01.018C.3,23.224,6.08,3.338,6.138,3.137L10.287,0l.229,5.266,6.786,16.6L21.019,9.518,21.6,2.681V1.087L21.531.329a.22.22,0,0,1,.056-.007.963.963,0,0,1,.585.3,6.332,6.332,0,0,1,1.207,1.617l9.571,5.439.158,11.762L31.18,37.857Z" transform="translate(7.056 25.68)" fill="#fff" stroke="rgba(0,0,0,0)" stroke-miterlimit="10" stroke-width="1"/>
            <path id="Path_93032" data-name="Path 93032" d="M58.237,130.388a.561.561,0,0,1-.021-.178c-.005-.129-.011-.3-.019-.512-.011-.458-.026-1.1-.044-1.881-.044-1.6-.1-3.789-.17-6.206S57.844,117,57.8,115.4c-.017-.784-.032-1.423-.042-1.881,0-.212,0-.383,0-.512a.558.558,0,0,1,.014-.179.563.563,0,0,1,.029.178c.011.129.025.3.043.511.027.458.065,1.1.112,1.881.083,1.588.176,3.783.249,6.207s.109,4.619.106,6.208c0,.795-.009,1.438-.026,1.882-.009.212-.016.382-.022.511a.558.558,0,0,1-.022.178" transform="translate(-33.427 -65.306)" fill="#263238"/>
            <path id="Path_93033" data-name="Path 93033" d="M31.468,76.547l.842.637-.592,3.879,9.939,10.41L32.629,79.62l.77-3.073Z" transform="translate(-18.213 -44.305)" fill="#e0e0e0"/>
            <path id="Path_93034" data-name="Path 93034" d="M24.881,99.737,9.629,95.265,9.124,83.68l4.183-15.263s-9.972,4.975-10.65,8.14S.343,87.419.168,92.981c-.156,4.973-.178,8.3.957,9.886,1.909,2.669,10.084,4.4,18.242,4,5.739-.281,11.471-1.791,15.007-4.007" transform="translate(-0.053 -39.6)" fill="#fff"/>
            <path id="Path_93035" data-name="Path 93035" d="M41.78,82.707a.361.361,0,0,1-.05-.056l-.137-.171-.518-.663-1.889-2.453-6.2-8.117-.467-.613-.016-.021.006-.025.771-3.072.05.064-1.931,0h-.05v-.049c0-1.255.005-2.405.008-3.425v-.02l.016-.012,3-2.278.823-.617.216-.158a.512.512,0,0,1,.076-.051.527.527,0,0,1-.069.061l-.209.168-.809.635-2.976,2.307.016-.033c0,1.019.005,2.17.008,3.425L31.4,67.48l1.931,0H33.4l-.016.065-.767,3.073-.009-.046.467.613,6.176,8.136,1.862,2.473.5.676.128.177a.387.387,0,0,1,.041.063" transform="translate(-18.145 -35.287)" fill="#263238"/>
            <path id="Path_93036" data-name="Path 93036" d="M64.021,79.188a10.5,10.5,0,0,1,3.929,6.963c.254,3.488.838,13.038.944,15.117.164,3.238-2.357,10.82-8.921,8.672-3.936-1.288-18.48-6.231-18.48-6.231l.968-6.176L59.722,98.56l.343-14.4Z" transform="translate(-24.016 -45.834)" fill="#fff"/>
            <path id="Path_93037" data-name="Path 93037" d="M31.432,123.969s-4.886-.528-6.017-.255a8.805,8.805,0,0,0-2.636,1.593l.022,1.93,7.86,2.2Z" transform="translate(-13.184 -71.56)" fill="#ffbe9d"/>
            <path id="Path_93038" data-name="Path 93038" d="M57.88,83.56a.329.329,0,0,1,.021-.067l.074-.191.292-.73,1.093-2.678,1.634-3.965c.155-.372.308-.759.5-1.138s.4-.757.625-1.136a24.974,24.974,0,0,1,1.552-2.239c.281-.364.566-.718.859-1.057l-.01.055-.608-1.548-.02-.051.052-.018,2.547-.866L66.465,68l-2.887-4.82a3.791,3.791,0,0,0-.965-1.244,1.273,1.273,0,0,0-.386-.157c-.093-.022-.142-.031-.141-.034a1.054,1.054,0,0,1,.145.019,1.208,1.208,0,0,1,.4.146,1.759,1.759,0,0,1,.489.475,8.658,8.658,0,0,1,.508.764l2.922,4.8.031.052-.057.02-2.544.872.032-.069.611,1.547.012.03-.021.025c-.291.336-.575.69-.855,1.052a25.243,25.243,0,0,0-1.546,2.228c-.223.376-.44.748-.624,1.127s-.344.757-.5,1.13l-1.655,3.957-1.125,2.664-.311.722-.083.187a.319.319,0,0,1-.032.062" transform="translate(-33.5 -35.74)" fill="#263238"/>
            <path id="Path_93039" data-name="Path 93039" d="M55.265,139.417a.576.576,0,0,1-.061.064l-.186.18a5.451,5.451,0,0,1-.793.6,5.37,5.37,0,0,1-1.453.609,5.87,5.87,0,0,1-2.08.132,6.588,6.588,0,0,1-1.191-.252c-.405-.129-.811-.287-1.24-.438-.853-.309-1.768-.631-2.73-.969-1.926-.675-4.051-1.4-6.288-2.131-4.477-1.47-8.558-2.71-11.516-3.593l-3.506-1.037-.953-.283-.247-.076a.533.533,0,0,1-.083-.029.543.543,0,0,1,.086.019l.25.066.959.264c.831.232,2.033.573,3.516,1,2.964.865,7.051,2.093,11.528,3.563,2.238.735,4.362,1.46,6.287,2.14.962.34,1.876.666,2.728.979.427.152.837.315,1.234.443a6.571,6.571,0,0,0,1.175.256,5.849,5.849,0,0,0,2.057-.115,5.422,5.422,0,0,0,1.445-.586,5.936,5.936,0,0,0,.8-.582l.192-.172a.547.547,0,0,1,.068-.056" transform="translate(-13.276 -76.513)" fill="#263238"/>
            <path id="Path_93040" data-name="Path 93040" d="M17.541,132.137c0,.022-.274-.037-.712-.019a3.277,3.277,0,0,0-.755.125,3.473,3.473,0,0,0-.85.388,3.959,3.959,0,0,0-1.182,1.214c-.232.373-.331.63-.351.622a.669.669,0,0,1,.058-.185,3.26,3.26,0,0,1,.227-.476,3.707,3.707,0,0,1,1.189-1.266,3.356,3.356,0,0,1,.881-.392,3.037,3.037,0,0,1,.78-.105,2.576,2.576,0,0,1,.527.047.679.679,0,0,1,.187.048" transform="translate(-7.924 -76.425)" fill="#263238"/>
            <path id="Path_93041" data-name="Path 93041" d="M11.423,127.994s0-.02.019-.054a.531.531,0,0,1,.1-.136.979.979,0,0,1,.542-.269,2.759,2.759,0,0,1,.9,0,5.126,5.126,0,0,1,1.063.258,4.657,4.657,0,0,1,1.685,1.031,3.577,3.577,0,0,1,.39.457.863.863,0,0,1,.113.189c-.017.013-.188-.252-.556-.591A4.992,4.992,0,0,0,14,127.9a5.488,5.488,0,0,0-1.04-.262,2.871,2.871,0,0,0-.869-.025.994.994,0,0,0-.526.224c-.1.093-.136.166-.145.16" transform="translate(-6.611 -73.796)" fill="#263238"/>
            <path id="Path_93042" data-name="Path 93042" d="M16.45,90.84a1.834,1.834,0,0,1-.07-.315c-.031-.1-.076-.216-.123-.354-.066-.131-.131-.285-.225-.443a6.251,6.251,0,0,0-.778-1.034,8.4,8.4,0,0,0-1.191-1.048,7.17,7.17,0,0,0-2.6-1.2,5.446,5.446,0,0,0-.867-.11,1.909,1.909,0,0,1-.323-.026,1.846,1.846,0,0,1,.323-.016,4.607,4.607,0,0,1,.881.077,6.845,6.845,0,0,1,2.652,1.184,7.97,7.97,0,0,1,1.2,1.069A5.953,5.953,0,0,1,16.1,89.69c.092.163.153.323.215.458.043.143.083.265.108.367a1.869,1.869,0,0,1,.029.324" transform="translate(-5.944 -49.946)" fill="#263238"/>
            <path id="Path_93043" data-name="Path 93043" d="M64.07,129.766a.376.376,0,0,1-.005-.074c0-.054,0-.125,0-.217-.006-.19-.013-.471-.041-.831a11.558,11.558,0,0,0-.613-2.986,4.222,4.222,0,0,0-.418-.912,1.789,1.789,0,0,0-.808-.685,7.173,7.173,0,0,0-2.379-.307l-5.562-.234c-4.6-.2-8.684-.372-11.253-.51l.034-.028-.364,2.211-.1.586c-.011.062-.021.112-.028.151a.212.212,0,0,1-.013.051.266.266,0,0,1,0-.052c0-.039.011-.089.019-.152.02-.14.048-.337.084-.588.078-.521.191-1.271.333-2.217l0-.029h.03l11.254.468,5.562.243c.427.021.844.031,1.251.064a3.64,3.64,0,0,1,1.16.26,1.877,1.877,0,0,1,.842.722,4.26,4.26,0,0,1,.42.932,11.227,11.227,0,0,1,.583,3.008c.021.362.022.644.021.834,0,.091,0,.163-.006.217a.4.4,0,0,1-.006.074" transform="translate(-24.607 -71.158)" fill="#263238"/>
            <path id="Path_93044" data-name="Path 93044" d="M85.8,107.059c.03,0,.054,1.672.054,3.734s-.024,3.734-.054,3.734-.054-1.672-.054-3.734.024-3.734.054-3.734" transform="translate(-49.63 -61.965)" fill="#263238"/>
            <path id="Path_93045" data-name="Path 93045" d="M2.724,86.856s-.013.047-.043.138-.081.223-.125.4c-.1.358-.228.895-.371,1.593-.289,1.4-.644,3.439-1.042,6C.946,96.267.735,97.674.527,99.2c-.106.76-.171,1.552-.226,2.372S.2,103.233.172,104.1c-.063,1.742-.1,3.582-.05,5.5.015.479.032.963.072,1.45.012.245.052.485.083.728a5.867,5.867,0,0,0,.176.715,4.08,4.08,0,0,0,.687,1.312,2.96,2.96,0,0,0,1.178.907l.007,0h0A17.988,17.988,0,0,0,5.4,115.894c1.071.321,2.178.58,3.3.811a45.474,45.474,0,0,0,7.418.9,34.484,34.484,0,0,0,3.541-.092c1.154-.08,2.279-.2,3.367-.362a35.505,35.505,0,0,0,6.043-1.4,30.933,30.933,0,0,0,4.886-2.1l.005.067-6.7-2.373-1.8-.644-.467-.169c-.1-.039-.158-.061-.158-.061s.055.016.161.051l.47.16,1.811.626,6.714,2.341.079.027-.074.04a30.868,30.868,0,0,1-4.893,2.115,35.471,35.471,0,0,1-6.056,1.419c-1.091.163-2.218.286-3.373.366a34.556,34.556,0,0,1-3.552.1,45.445,45.445,0,0,1-7.436-.9c-1.127-.232-2.236-.492-3.31-.814a17.988,17.988,0,0,1-3.092-1.183l.009,0a3.048,3.048,0,0,1-1.227-.942,4.181,4.181,0,0,1-.7-1.347,5.962,5.962,0,0,1-.179-.73c-.031-.247-.071-.493-.083-.738-.04-.489-.057-.975-.071-1.455-.048-1.921-.009-3.762.058-5.506q.049-1.308.134-2.54c.057-.82.124-1.615.232-2.377.211-1.522.427-2.929.629-4.207.408-2.557.774-4.6,1.074-5.993.149-.7.282-1.233.389-1.591.047-.181.1-.312.134-.4s.052-.134.052-.134" transform="translate(0 -50.272)" fill="#263238"/>
            <path id="Path_93046" data-name="Path 93046" d="M22.779,113.192c2.55-2.824,2.438-7.845.975-11.408-.135,3.86-.591,7.283-.939,11.034" transform="translate(-13.184 -58.912)" fill="#e0e0e0"/>
            <path id="Path_93047" data-name="Path 93047" d="M23.784,103.5a.521.521,0,0,1,0,.123c-.006.093-.013.209-.023.353l-.1,1.3c-.091,1.106-.215,2.609-.352,4.27s-.248,3.166-.335,4.272c-.04.536-.073.975-.1,1.295-.013.143-.023.26-.031.352a.553.553,0,0,1-.018.122.515.515,0,0,1,0-.123c0-.093.006-.209.01-.353.011-.307.033-.75.064-1.3.062-1.1.167-2.607.3-4.276s.275-3.177.383-4.269c.056-.535.1-.973.136-1.292l.043-.35a.524.524,0,0,1,.022-.122" transform="translate(-13.209 -59.906)" fill="#263238"/>
            <path id="Path_93048" data-name="Path 93048" d="M39.96,91.387c.03,0,.054.981.054,2.189s-.024,2.19-.054,2.19-.054-.98-.054-2.19.024-2.189.054-2.189" transform="translate(-23.097 -52.894)" fill="#263238"/>
            <path id="Path_93049" data-name="Path 93049" d="M36.089,103.8a2.246,2.246,0,0,0,.469,1.161,1.53,1.53,0,0,0,1.12.594,1.706,1.706,0,0,0,1.506-.756,4.292,4.292,0,0,0,.212-3.275,1.891,1.891,0,0,0-1.549-1.257,1.712,1.712,0,0,0-1.678,1.3" transform="translate(-20.888 -58.036)" fill="#e0e0e0"/>
            <path id="Path_93050" data-name="Path 93050" d="M36.166,101.519a1.4,1.4,0,0,1,.169-.447,1.835,1.835,0,0,1,.342-.449,1.585,1.585,0,0,1,.645-.379,1.627,1.627,0,0,1,.433-.07,1.323,1.323,0,0,1,.474.062,1.872,1.872,0,0,1,.846.607,2.442,2.442,0,0,1,.5,1.036,4.454,4.454,0,0,1,.093,1.228,3.392,3.392,0,0,1-.529,1.788,1.6,1.6,0,0,1-.688.519,1.868,1.868,0,0,1-.779.131h.006a1.171,1.171,0,0,1-.558-.139,1.837,1.837,0,0,1-.42-.293,2.088,2.088,0,0,1-.457-.681,2,2,0,0,1-.145-.5c-.008-.059-.012-.105-.013-.136a.14.14,0,0,1,0-.047,2.839,2.839,0,0,0,.2.666,2.1,2.1,0,0,0,.46.649,1.781,1.781,0,0,0,.407.273,1.1,1.1,0,0,0,.518.122h.006a1.658,1.658,0,0,0,1.377-.624,3.33,3.33,0,0,0,.5-1.732,3.143,3.143,0,0,0-.559-2.2,1.789,1.789,0,0,0-.8-.585,1.239,1.239,0,0,0-.444-.064,1.558,1.558,0,0,0-1.04.409,1.9,1.9,0,0,0-.347.425,3.958,3.958,0,0,0-.205.426" transform="translate(-20.885 -57.98)" fill="#263238"/>
            <path id="Path_93051" data-name="Path 93051" d="M34.937,103.9a2.244,2.244,0,0,0,.469,1.161,1.528,1.528,0,0,0,1.119.594,1.706,1.706,0,0,0,1.506-.756,4.292,4.292,0,0,0,.212-3.275,1.891,1.891,0,0,0-1.549-1.256,1.711,1.711,0,0,0-1.678,1.3" transform="translate(-20.221 -58.093)" fill="#e0e0e0"/>
            <path id="Path_93052" data-name="Path 93052" d="M35.014,101.617a1.4,1.4,0,0,1,.169-.447,1.835,1.835,0,0,1,.342-.449,1.585,1.585,0,0,1,.645-.379,1.626,1.626,0,0,1,.433-.069,1.322,1.322,0,0,1,.474.062,1.869,1.869,0,0,1,.846.607,2.44,2.44,0,0,1,.5,1.036,4.454,4.454,0,0,1,.093,1.228A3.393,3.393,0,0,1,37.986,105a1.6,1.6,0,0,1-.688.518,1.867,1.867,0,0,1-.779.131h.006a1.171,1.171,0,0,1-.558-.139,1.836,1.836,0,0,1-.42-.293,2.088,2.088,0,0,1-.457-.681,2,2,0,0,1-.145-.5c-.008-.059-.012-.105-.013-.136a.14.14,0,0,1,0-.047,2.839,2.839,0,0,0,.2.666,2.106,2.106,0,0,0,.46.649,1.781,1.781,0,0,0,.407.273,1.1,1.1,0,0,0,.518.122h.006a1.657,1.657,0,0,0,1.377-.624,3.329,3.329,0,0,0,.5-1.732,3.143,3.143,0,0,0-.559-2.2,1.789,1.789,0,0,0-.8-.585,1.239,1.239,0,0,0-.444-.064,1.558,1.558,0,0,0-1.04.409,1.9,1.9,0,0,0-.347.425,3.955,3.955,0,0,0-.205.426" transform="translate(-20.218 -58.037)" fill="#263238"/>
            <path id="Path_93053" data-name="Path 93053" d="M35.32,102.891a1.067,1.067,0,0,0-1.113.641,1.841,1.841,0,0,0,0,1.352,1.678,1.678,0,0,0,.345.609.911.911,0,0,0,.618.3,1.076,1.076,0,0,0,.855-.506,1.928,1.928,0,0,0,.292-1.589c-.095-.359-.359-.728-.73-.738" transform="translate(-19.725 -59.543)" fill="#e0e0e0"/>
            <path id="Path_93054" data-name="Path 93054" d="M35.526,102.94a.2.2,0,0,1,.083,0,.569.569,0,0,1,.225.076,1.1,1.1,0,0,1,.474.713A1.959,1.959,0,0,1,36.18,105a1.651,1.651,0,0,1-.465.61.9.9,0,0,1-.8.191,1.114,1.114,0,0,1-.639-.522,2.343,2.343,0,0,1-.266-.716,1.594,1.594,0,0,1,.207-1.251,1.112,1.112,0,0,1,.723-.46.791.791,0,0,1,.236,0c.053.011.08.019.079.022a1.543,1.543,0,0,0-.308.019,1.1,1.1,0,0,0-.668.462,1.533,1.533,0,0,0-.172,1.188,2.266,2.266,0,0,0,.259.681,1.015,1.015,0,0,0,.577.473.8.8,0,0,0,.706-.171,1.568,1.568,0,0,0,.439-.569,1.915,1.915,0,0,0,.144-1.209,1.09,1.09,0,0,0-.422-.695.867.867,0,0,0-.285-.11" transform="translate(-19.661 -59.522)" fill="#263238"/>
            <path id="Path_93055" data-name="Path 93055" d="M38.012,110.277c-.017,0-.04-.065-.111-.148a.765.765,0,0,0-.353-.227,1.949,1.949,0,0,0-.435-.067c-.116-.008-.189-.018-.189-.033s.07-.032.188-.043a1.216,1.216,0,0,1,.468.041.689.689,0,0,1,.383.286c.065.109.061.191.048.192" transform="translate(-21.371 -63.524)" fill="#263238"/>
            <path id="Path_93056" data-name="Path 93056" d="M38.224,102.239c.009.009-.032.074-.128.15a1.031,1.031,0,0,1-.913.165c-.117-.037-.178-.084-.173-.1a2.576,2.576,0,0,0,.63.016,2.573,2.573,0,0,0,.584-.235" transform="translate(-21.421 -59.174)" fill="#263238"/>
            <path id="Path_93057" data-name="Path 93057" d="M73.7,67s.025.005.068.025a1.908,1.908,0,0,1,.184.1,3.727,3.727,0,0,1,.621.444,4.451,4.451,0,0,1,1.334,2.11,13.51,13.51,0,0,1,.508,2.456c.036.319.056.578.067.757a1.343,1.343,0,0,1,.005.279,1.414,1.414,0,0,1-.047-.275c-.027-.2-.061-.45-.1-.751a15.836,15.836,0,0,0-.535-2.435,4.59,4.59,0,0,0-1.282-2.085A7.083,7.083,0,0,0,73.7,67" transform="translate(-42.654 -38.781)" fill="#263238"/>
            <path id="Path_93058" data-name="Path 93058" d="M67.461,120.344c.6-.023,1.08-.622,1.681-.59A.835.835,0,1,1,69,121.418c-.631-.073-1-.813-1.618-.954" transform="translate(-39.001 -69.312)" fill="#263238"/>
            <path id="Path_93059" data-name="Path 93059" d="M70.469,98.632a3.566,3.566,0,0,1-.563-.047l.033-.2a2.384,2.384,0,0,0,1.853-.361,3.458,3.458,0,0,0,1.175-2.4l.006-.043c.068-.452.161-9.314.162-11a2.87,2.87,0,0,0-2.405-3c-.093-.017-2.19-.368-3.3,2.5-1.165,3.006-3.028,8.8-3.151,9.478-.015.083-.038.186-.064.305-.194.869-.6,2.678.61,3.72a2.389,2.389,0,0,0,2.45.693l.085.189a2.579,2.579,0,0,1-2.67-.725c-1.3-1.123-.879-3.013-.677-3.922.026-.116.048-.216.063-.3.124-.684,1.993-6.5,3.162-9.516,1.177-3.038,3.506-2.638,3.529-2.633a3.118,3.118,0,0,1,2.579,3.205c0,1.386-.092,10.548-.164,11.028l-.006.043a3.647,3.647,0,0,1-1.257,2.534,2.38,2.38,0,0,1-1.446.446" transform="translate(-36.915 -47.089)" fill="#263238"/>
            <path id="Path_93060" data-name="Path 93060" d="M77.831,89.263a3.871,3.871,0,0,0-.431-1.033,3.514,3.514,0,0,0-2.15-1.516,3.9,3.9,0,0,0-2.623.342,4.634,4.634,0,0,0-.912.653s.013-.024.047-.064a1.825,1.825,0,0,1,.155-.165,3.117,3.117,0,0,1,.673-.492,3.85,3.85,0,0,1,2.684-.38,3.538,3.538,0,0,1,1.367.655,3.443,3.443,0,0,1,.823.926,2.75,2.75,0,0,1,.32.771,1.6,1.6,0,0,1,.042.223.223.223,0,0,1,.005.079" transform="translate(-41.508 -50.075)" fill="#263238"/>
            <path id="Path_93061" data-name="Path 93061" d="M92.215,128a7.19,7.19,0,0,0-.284-.884,3.867,3.867,0,0,0-1.406-1.687,3.038,3.038,0,0,0-1.141-.411c-.373-.062-.716-.085-1-.1l-.683-.047a1.139,1.139,0,0,1-.249-.034,1.136,1.136,0,0,1,.251-.008l.684.013a8.546,8.546,0,0,1,1.016.083,3.041,3.041,0,0,1,1.183.418A3.756,3.756,0,0,1,92,127.09a3.288,3.288,0,0,1,.189.662.941.941,0,0,1,.025.251" transform="translate(-50.615 -72.249)" fill="#263238"/>
            <path id="Path_93062" data-name="Path 93062" d="M73.949,116.44a34.073,34.073,0,0,1,2.558-3.491c.521-.4,4.968-2.412,5.489-2.089s.2,1.024.2,1.024,1.883-.66,2.083-.4a.931.931,0,0,1,0,1.061s1.042-.16,1.042.16a1.318,1.318,0,0,1-.6,1.082c-.481.361-3.607,2.442-3.857,3.017l-1.013-.061Z" transform="translate(-42.801 -64.145)" fill="#ffbe9d"/>
            <path id="Path_93063" data-name="Path 93063" d="M87.87,117.939a.744.744,0,0,1,.093-.195,3.63,3.63,0,0,1,.335-.482,5.611,5.611,0,0,1,1.478-1.244,11.16,11.16,0,0,1,1.748-.821c.231-.088.419-.154.55-.2a.84.84,0,0,1,.207-.058.816.816,0,0,1-.192.1l-.536.23a14.129,14.129,0,0,0-1.721.843,6.182,6.182,0,0,0-1.475,1.2c-.323.368-.469.638-.486.628" transform="translate(-50.858 -66.527)" fill="#aa6550"/>
            <path id="Path_93064" data-name="Path 93064" d="M81.733,116.905a1.1,1.1,0,0,1,.1-.227c.07-.142.174-.348.314-.6a5.645,5.645,0,0,1,.561-.831,2.624,2.624,0,0,1,.427-.423c.172-.116.353-.225.54-.336a14.871,14.871,0,0,1,1.989-.992,5.783,5.783,0,0,1,.64-.214,1.115,1.115,0,0,1,.244-.044c0,.019-.338.1-.855.329a18.869,18.869,0,0,0-1.964,1.015c-.185.11-.367.219-.535.33a2.66,2.66,0,0,0-.411.4,6.309,6.309,0,0,0-.572.806l-.342.577a1.058,1.058,0,0,1-.136.207" transform="translate(-47.306 -65.543)" fill="#aa6550"/>
          </g>
        </g>
      </g>
    </g>
  </g>
</svg>
