<svg xmlns="http://www.w3.org/2000/svg" width="12.473" height="10.827" viewBox="0 0 12.473 10.827">
  <g id="noun-doctor-4203680" transform="translate(-0.214 -289.276)">
    <path id="Path_100281" data-name="Path 100281" d="M5.628.793a1.248,1.248,0,0,0-1.24,1.24v.411H1.5A1.247,1.247,0,0,0,.264,3.682v6.6a1.248,1.248,0,0,0,1.24,1.24h9.9a1.245,1.245,0,0,0,1.236-1.24v-6.6A1.244,1.244,0,0,0,11.4,2.443H8.515V2.032A1.248,1.248,0,0,0,7.275.793Zm0,.825H7.275a.407.407,0,0,1,.415.415v.411H5.214V2.032A.406.406,0,0,1,5.628,1.618ZM1.5,3.268h9.9a.405.405,0,0,1,.414.414v6.6a.405.405,0,0,1-.414.414H1.5a.406.406,0,0,1-.415-.414v-6.6A.406.406,0,0,1,1.5,3.268Z" transform="translate(0 288.533)" fill="#666" stroke="#fff" stroke-width="0.1"/>
    <path id="Path_100282" data-name="Path 100282" d="M4.969,3.435a.412.412,0,0,0-.405.42V5.092H3.286a.413.413,0,0,0,.043.825H4.564V7.153a.413.413,0,1,0,.825,0V5.917H6.625a.413.413,0,1,0,0-.825H5.389V3.856a.412.412,0,0,0-.42-.42Z" transform="translate(1.475 290.01)" fill="#666" stroke="#fff" stroke-width="0.1"/>
  </g>
</svg>
