<svg id="Group_48161" data-name="Group 48161" xmlns="http://www.w3.org/2000/svg" xmlns:xlink="http://www.w3.org/1999/xlink" width="21.514" height="26.917" viewBox="0 0 21.514 26.917">
  <defs>
    <clipPath id="clip-path">
      <rect id="Rectangle_8834" data-name="Rectangle 8834" width="21.514" height="26.917" fill="#747474"/>
    </clipPath>
  </defs>
  <g id="Group_48160" data-name="Group 48160" clip-path="url(#clip-path)">
    <path id="Path_99872" data-name="Path 99872" d="M11.44,0a7.911,7.911,0,0,1,3.189,1.226,6.469,6.469,0,0,1,2.838,5.193,19.911,19.911,0,0,1-.177,3.8,6.145,6.145,0,0,1-2.751,4.094,2.2,2.2,0,0,0-.369,1.933c.069.091.235.12.362.155a8.98,8.98,0,0,1,6.91,7.583,5.667,5.667,0,0,1,.037,1.546c-.076.768-.651,1.13-1.306,1.386H1.391C.121,26.344-.192,25.7.1,24.042A8.969,8.969,0,0,1,6.979,16.43c.366-.1.518-.226.474-.588a.717.717,0,0,1,0-.179,1.547,1.547,0,0,0-.75-1.618A6.3,6.3,0,0,1,4.08,8.866,16.85,16.85,0,0,1,4.265,5.3,6.459,6.459,0,0,1,9.848.1a1.454,1.454,0,0,0,.276-.1ZM10.8,6.021c-1.614,0-3.228.011-4.842-.008-.4,0-.6.1-.592.522.028.954-.023,1.917.085,2.862a5.342,5.342,0,0,0,4.6,4.712,5.437,5.437,0,0,0,5.77-3.408A11.394,11.394,0,0,0,16.2,6.63c.009-.5-.21-.627-.686-.619-1.574.027-3.148.01-4.722.01M6.072,18.145a7.6,7.6,0,0,0-4.7,6.663c-.037.74.007.791.737.791q4.721,0,9.441,0h.6c0-.97,0-1.845,0-2.719a2.153,2.153,0,0,1,1.1-2.112c.978-.431.992-1.111.93-1.935a6.92,6.92,0,0,1,0-.777c.018-.479-.182-.5-.539-.285-.831.508-1.678.99-2.5,1.515a.584.584,0,0,1-.737-.006c-.822-.521-1.668-1.006-2.5-1.513-.374-.228-.544-.16-.533.3.013.577.018,1.156,0,1.733a.668.668,0,0,0,.384.7A1.98,1.98,0,0,1,6.571,24.18,1.917,1.917,0,0,1,4.8,22.665a2.005,2.005,0,0,1,.844-2.131c.173-.121.393-.317.407-.493.05-.611.019-1.229.019-1.9M5.835,4.707h9.881a5.3,5.3,0,0,0-9.881,0M17.5,25.6c.754,0,1.427-.017,2.1.006.476.016.633-.186.607-.646a7.611,7.611,0,0,0-3.686-6.323c-.3-.193-.631-.344-1-.541v2.189a2.781,2.781,0,0,1,1.98,2.954c-.015.755,0,1.511,0,2.362m-1.378-.021c0-1.056.069-2.065-.025-3.06a1.2,1.2,0,0,0-1.356-.988A1.285,1.285,0,0,0,13.5,22.607c-.051.982-.014,1.968-.014,2.972ZM8.8,15.321c-.61,1.555.7,1.958,1.684,2.418.868.406,1.435-.511,2.083-.891.61-.358.153-1.069.25-1.527ZM6.615,22.982l.285,0c.179-.261.473-.508.508-.787a.589.589,0,0,0-.673-.657c-.426.012-.721.277-.653.675.048.28.346.517.532.773" transform="translate(0)" fill="#747474"/>
  </g>
</svg>
