<svg xmlns="http://www.w3.org/2000/svg" xmlns:xlink="http://www.w3.org/1999/xlink" width="50" height="50" viewBox="0 0 50 50">
  <defs>
    <clipPath id="clip-path">
      <rect id="Rectangle_80" data-name="Rectangle 80" width="24.476" height="25.269" fill="#fabe2c"/>
    </clipPath>
  </defs>
  <g id="_3" data-name="3" transform="translate(-23 -673)">
    <g id="Ellipse_3" data-name="Ellipse 3" transform="translate(23 673)" fill="none" stroke="#e6e6e6" stroke-width="1">
      <circle cx="25" cy="25" r="25" stroke="none"/>
      <circle cx="25" cy="25" r="24.5" fill="none"/>
    </g>
    <g id="Group_48221" data-name="Group 48221" transform="translate(36 685)">
      <g id="Group_47817" data-name="Group 47817" clip-path="url(#clip-path)">
        <path id="Path_92748" data-name="Path 92748" d="M180.717,0c.12.067.245.127.36.2a.991.991,0,0,0,1.048.064c.388-.19.6-.051.615.391a3.127,3.127,0,0,1-.422,1.449,14.919,14.919,0,0,1-1,1.691,2.832,2.832,0,0,0-.775.078,4.873,4.873,0,0,1-.991.123,7.8,7.8,0,0,1-2.183-.2.518.518,0,0,1,.042-.112c.416-.618.837-1.233,1.193-1.889a5.174,5.174,0,0,0,.589-1.4,1.037,1.037,0,0,0,.545-.113,3.644,3.644,0,0,1,.54-.283Z" transform="translate(-165.672)" fill="#108fe5"/>
        <path id="Path_92749" data-name="Path 92749" d="M157.253.4a5.175,5.175,0,0,1-.589,1.4c-.356.656-.778,1.271-1.193,1.889a.518.518,0,0,0-.043.112c-.083.011-.125-.06-.185-.094a8.587,8.587,0,0,1-1.313-2.62.978.978,0,0,1,.058-.764c.073-.124.183-.222.322-.135A1.355,1.355,0,0,0,155.921,0h.444c.306.109.551.357.888.4" transform="translate(-143.736)" fill="#40b0fc"/>
        <path id="Path_92750" data-name="Path 92750" d="M50.519,239.5a9.578,9.578,0,0,1,3,1.311,4.716,4.716,0,0,0,1.94.564c.666.073,1.33.153,2,.231.584.069,1.167.159,1.752.2a2.031,2.031,0,0,1,1.78,1.84A.238.238,0,0,0,61,243.7q-.012.145-.023.291H56.746c-.275,0-.45.144-.451.368s.176.371.448.371q1.994,0,3.987,0c.086,0,.183.033.253-.053a.356.356,0,0,0,.236-.044c.884-.393,1.768-.786,2.654-1.174.728-.319,1.458-.63,2.188-.945,0,.177.131.3.2.44a1.223,1.223,0,0,1-.441,1.573c-1.149.74-2.315,1.453-3.458,2.2a4.341,4.341,0,0,1-2.478.719c-1.864-.011-3.729,0-5.593-.005a4.1,4.1,0,0,1-1.411-.277c-1.427-.528-2.852-1.063-4.277-1.6,0-1.278-.008-2.556-.009-3.834,0-.795.006-1.589.01-2.384a7.405,7.405,0,0,1,1.914.151" transform="translate(-45.392 -223.571)" fill="#fedccd"/>
        <path id="Path_92751" data-name="Path 92751" d="M207.286,92.329c-.729.315-1.46.626-2.188.945-.886.388-1.77.782-2.654,1.174a.356.356,0,0,1-.236.044q0-.343,0-.686.011-.145.023-.291c.194-.028.309-.183.436-.3a6.424,6.424,0,0,0,2.047-3.823,7.96,7.96,0,0,0-.275-3.605,11.783,11.783,0,0,0-2.352-4.217,16.123,16.123,0,0,0-2.1-2.1,1.943,1.943,0,0,1-.2-.218,7.885,7.885,0,0,0,1.074-.046,3,3,0,0,0,1.982-.645,16.4,16.4,0,0,1,4.58,4.888A9.514,9.514,0,0,1,208.8,87.87a6.888,6.888,0,0,1-1.128,4.205c-.093.138-.273.145-.385.254" transform="translate(-186.617 -73.385)" fill="#108fe5"/>
        <path id="Path_92752" data-name="Path 92752" d="M66.15,272.832c.112-.109.292-.115.385-.254.047.071.1.029.15.006.442-.2.884-.393,1.326-.588a1.375,1.375,0,0,1,1.339-.027,1.232,1.232,0,0,1,.043,2.1c-1.072.7-2.154,1.377-3.234,2.062-1.135.72-2.282,1.421-3.4,2.159a4.909,4.909,0,0,1-2.865.864c-1.634-.029-3.27-.037-4.9,0a6.912,6.912,0,0,1-2.745-.549c-1.12-.441-2.253-.849-3.382-1.269a.8.8,0,0,0-.169-.025q0-.712,0-1.424c1.426.533,2.85,1.068,4.277,1.6a4.094,4.094,0,0,0,1.411.277c1.864.005,3.729-.006,5.593.005a4.341,4.341,0,0,0,2.478-.719c1.143-.749,2.309-1.462,3.458-2.2a1.223,1.223,0,0,0,.441-1.573c-.07-.145-.2-.263-.2-.44" transform="translate(-45.481 -253.887)" fill="#fecabd"/>
        <path id="Path_92753" data-name="Path 92753" d="M3.212,226.586q0,.712,0,1.424c0,.2,0,.394-.008.591a.729.729,0,0,1-.75.746q-.85.009-1.7,0A.721.721,0,0,1,0,228.58q0-4.4,0-8.794a.712.712,0,0,1,.757-.757q.85-.008,1.7,0a.718.718,0,0,1,.744.748c.006.2.008.394.011.59,0,.795-.01,1.589-.01,2.384q0,1.917.009,3.834" transform="translate(0 -204.586)" fill="#36e3c2"/>
        <path id="Path_92754" data-name="Path 92754" d="M167.123,57.637a3,3,0,0,1-1.982.645,7.873,7.873,0,0,1-1.074.046,5.148,5.148,0,0,1-2.378-.551.15.15,0,0,0-.089-.189,1.079,1.079,0,0,0-.014-.121.923.923,0,0,1,.267-1A1.378,1.378,0,0,0,162,56.3c.14-.035.3-.015.407-.144.061.034.1.1.185.094a7.8,7.8,0,0,0,2.183.2,4.864,4.864,0,0,0,.991-.123,2.83,2.83,0,0,1,.775-.078.947.947,0,0,1,.623,1.144.678.678,0,0,0-.039.238" transform="translate(-150.897 -52.458)" fill="#36e3c2"/>
        <path id="Path_92755" data-name="Path 92755" d="M96.661,36.674a1.37,1.37,0,0,1-.143.165.923.923,0,0,0-.267,1,1.045,1.045,0,0,1,.014.121,6.249,6.249,0,0,0-2.122.36,2.525,2.525,0,0,0-1.268.969.391.391,0,0,1-.464.19.359.359,0,0,1-.264-.325.63.63,0,0,1,.193-.439,3.338,3.338,0,0,1,1.51-1.1,6.032,6.032,0,0,1,2.25-.4,1.957,1.957,0,0,0-.889-.683,2.155,2.155,0,0,0-1-.1,3.97,3.97,0,0,1-2.363-.53.394.394,0,0,1-.24-.459.371.371,0,0,1,.584-.224,3.114,3.114,0,0,0,1.051.4,3.064,3.064,0,0,0,.781.045,2.8,2.8,0,0,1,2.631,1.015" transform="translate(-85.561 -32.828)" fill="#36e3c2"/>
        <path id="Path_92756" data-name="Path 92756" d="M170.068,309.777q0,.343,0,.686c-.069.086-.167.053-.253.053q-1.994,0-3.987,0c-.272,0-.449-.148-.448-.371s.177-.368.451-.368h4.233" transform="translate(-154.481 -289.356)" fill="#fecabd"/>
        <path id="Path_92757" data-name="Path 92757" d="M89.119,87.762a11.783,11.783,0,0,0-2.352-4.217,16.13,16.13,0,0,0-2.1-2.1,1.934,1.934,0,0,1-.2-.218,5.148,5.148,0,0,1-2.377-.551,15.791,15.791,0,0,0-1.536,1.264,14.475,14.475,0,0,0-2.966,3.681,9.668,9.668,0,0,0-1.246,4.13,6.769,6.769,0,0,0,.082,1.539,9.579,9.579,0,0,1,3,1.311,4.717,4.717,0,0,0,1.939.564c.666.073,1.331.153,2,.232.584.069,1.167.159,1.753.2a2.031,2.031,0,0,1,1.78,1.84.223.223,0,0,0,.012.048c.194-.028.309-.184.436-.3a6.425,6.425,0,0,0,2.047-3.823,7.96,7.96,0,0,0-.275-3.605m-2.06-2.7a6.717,6.717,0,0,1-.432.63H85.471a1.51,1.51,0,0,1,.324.679h1.232c.015,0,.022.009.022.018q-.414.621-.423.621h-.8a1.835,1.835,0,0,1-.306.769,1.879,1.879,0,0,1-.706.589,2.792,2.792,0,0,1-1.205.3v.009q0,.045,2.6,3.09H85.066q-2.537-2.955-2.537-2.969v-.6l.009-.023a3.838,3.838,0,0,0,.526.032q1.421,0,1.768-.922a.744.744,0,0,0,.054-.279H82.313a.016.016,0,0,1-.018-.018q.427-.621.436-.621h2.042v-.009a1.2,1.2,0,0,0-.679-.553,2.121,2.121,0,0,0-.648-.117H82.3v-.023q.414-.616.427-.616h4.327Z" transform="translate(-71.3 -75.36)" fill="#40b0fc"/>
      </g>
    </g>
  </g>
</svg>
