<svg xmlns="http://www.w3.org/2000/svg" width="24" height="24" viewBox="0 0 24 24">
  <g id="Group_47847" data-name="Group 47847" transform="translate(-23 -168)">
    <rect id="Rectangle_3" data-name="Rectangle 3" width="24" height="24" rx="4" transform="translate(23 168)" fill="#ffc104"/>
    <g id="noun-edit-profile-3194834" transform="translate(22.2 168.968)">
      <path id="Path_80139" data-name="Path 80139" d="M12.78,45.1a5.278,5.278,0,0,1-5.822,0A3.657,3.657,0,0,0,3.8,48.734v2.359a.382.382,0,0,0,.381.381h7.077l4.319-4.319A3.71,3.71,0,0,0,12.78,45.1Z" transform="translate(0 -34.495)" fill="#fff"/>
      <circle id="Ellipse_3141" data-name="Ellipse 3141" cx="3.653" cy="3.653" r="3.653" transform="translate(6.235 2.5)" fill="#fff"/>
      <path id="Path_80140" data-name="Path 80140" d="M45.037,82.861a.389.389,0,0,0-.1.171l-.361,1.9a.339.339,0,0,0,.4.4l1.9-.361a.256.256,0,0,0,.171-.1l.361-.361L45.4,82.5Z" transform="translate(-33.019 -64.78)" fill="#fff"/>
      <rect id="Rectangle_4" data-name="Rectangle 4" width="6.031" height="2.873" transform="translate(13.303 16.805) rotate(-45)" fill="#fff"/>
      <path id="Path_80141" data-name="Path 80141" d="M83.678,47.361,82.27,45.953a.448.448,0,0,0-.628,0L80.9,46.7l2.017,2.036.742-.742A.432.432,0,0,0,83.678,47.361Z" transform="translate(-62.432 -35.082)" fill="#fff"/>
    </g>
  </g>
</svg>
