<svg xmlns="http://www.w3.org/2000/svg" width="20" height="20" viewBox="266 336 20 20"><g data-name="Edit"><g data-name="Group 54"><path d="M277.993 342.45a119725.589 119725.589 0 0 0 .918.919l.64.639a.573.573 0 0 1 .006-.006l.036-.032a928.813 928.813 0 0 1 .175-.176c.224-.223.447-.445.67-.67.15-.151.151-.322 0-.474a301.796 301.796 0 0 0-1.086-1.085.558.558 0 0 0-.03-.027c-.122-.106-.25-.117-.375-.035a.505.505 0 0 0-.076.064 497.518 497.518 0 0 0-.795.794 4822.879 4822.879 0 0 0-.037.037.543.543 0 0 0-.03.033 3.82 3.82 0 0 0-.009.011Z" fill="#fff" fill-rule="evenodd" data-name="Path 34"/><path d="m279.094 344.464-.056.06c-1.775 1.776-3.55 3.55-5.328 5.323a.642.642 0 0 1-.228.143.593.593 0 0 1-.009.003 118.85 118.85 0 0 1-1.386.465l-.016.006a835.817 835.817 0 0 0-.196.064.45.45 0 0 1-.076.019c-.156.023-.288-.05-.334-.192a.337.337 0 0 1-.008-.029.318.318 0 0 1-.008-.065c0-.043.006-.088.019-.127a.345.345 0 0 1 0-.002 146.385 146.385 0 0 1 .55-1.652.375.375 0 0 1 .002-.003.427.427 0 0 1 .097-.156 7923.482 7923.482 0 0 1 4.917-4.918l.475-.475a.553.553 0 0 1 .023-.021 1.12 1.12 0 0 0 .012-.01l.865.865a34853.095 34853.095 0 0 1 .693.693Z" fill="#fff" fill-rule="evenodd" data-name="Path 33"/></g><g data-name="Group 52"><path d="M276 336a10 10 0 0 1 10 10 10 10 0 0 1-10 10 10 10 0 0 1-10-10 10 10 0 0 1 10-10z" fill="#108fe5" fill-rule="evenodd" data-name="Rectangle 3"/></g></g></svg>