<svg xmlns="http://www.w3.org/2000/svg" width="13.732" height="9.482" viewBox="131.891 279.759 13.732 9.482"><g data-name="noun-education-2496882"><g data-name="Group 47995"><g data-name="Group 47994"><path d="M145.117 282.8c-.438.203-.876.403-1.315.605-.367.17-.735.337-1.102.506l-1.122.517-1.845.847c-.376.173-.757.337-1.128.518a.091.091 0 0 1-.018.008h.337c-.313-.144-.625-.288-.938-.43l-1.84-.847c-.43-.197-.859-.395-1.288-.59-.306-.142-.612-.281-.919-.422-.506-.232-1.01-.465-1.517-.696l-.03-.014v.578l.65-.299 1.562-.717 1.888-.866c.542-.25 1.084-.5 1.627-.747.265-.122.533-.236.795-.365a.103.103 0 0 1 .011-.005h-.337l.65.299 1.562.717 1.888.867 1.627.746c.265.122.529.245.794.365l.012.005c.16.073.367.05.458-.12.077-.147.049-.379-.12-.458l-.655-.301-1.57-.721c-.629-.29-1.258-.58-1.888-.867l-1.63-.75c-.26-.119-.519-.24-.779-.358a.381.381 0 0 0-.22-.043.417.417 0 0 0-.135.045c-.028.013-.056.027-.086.038-.133.061-.268.124-.402.184-.493.228-.986.453-1.478.68l-1.886.866-1.695.78-.93.427-.044.02c-.218.101-.218.477 0 .578l1.322.607c.365.168.731.335 1.097.505l1.132.52c.62.286 1.238.57 1.859.854.37.17.737.343 1.109.51a.408.408 0 0 0 .225.045.5.5 0 0 0 .14-.047l.13-.06.582-.267 1.811-.832 1.445-.664.78-.36c.551-.253 1.102-.505 1.653-.76.037-.017.075-.033.112-.051.16-.073.211-.316.12-.457-.11-.165-.292-.2-.461-.122Z" fill="#666" fill-rule="evenodd" data-name="Path 94652"/></g></g><g data-name="Group 47997"><g data-name="Group 47996"><path d="M142.55 284.193v3.303c0 .13.002.258 0 .388l-.003.072c-.001.017-.007.036-.004.05-.002-.005.015-.084.003-.027a.832.832 0 0 1-.02.087c-.008.027-.037.076-.035.104 0-.006.036-.076.01-.025l-.017.035a.783.783 0 0 1-.05.085c-.013.02-.034.042-.044.064.025-.055.036-.045.016-.022-.013.014-.025.03-.038.043a.977.977 0 0 1-.07.066c-.007.008-.025.018-.03.026.023-.037.05-.037.021-.017-.055.037-.11.07-.17.1-.048.025.02-.01.026-.01-.013 0-.034.013-.046.016-.028.009-.056.018-.086.025-.024.006-.06.004-.079.016.048-.026.064-.007.018-.003l-.062.005c-.297.009-.595 0-.892 0h-5.295c-.039 0-.077 0-.118-.002l-.041-.003c-.058-.004.024.002.028.005-.02-.014-.074-.015-.098-.021a1.502 1.502 0 0 1-.076-.024c-.007-.003-.028-.013-.037-.013.05.02.058.025.026.01a3.879 3.879 0 0 0-.018-.009c-.054-.025-.103-.058-.152-.09-.056-.037.045.043.014.01-.01-.012-.026-.02-.037-.03-.024-.023-.048-.046-.069-.07-.009-.008-.016-.019-.025-.029-.046-.05.034.052.01.013-.016-.025-.034-.047-.049-.072-.013-.023-.026-.045-.038-.069-.008-.014-.014-.03-.02-.044-.017-.028.029.077.004.006-.021-.057-.033-.114-.047-.174-.01-.046.008.09.003.018a.366.366 0 0 1-.003-.042l-.001-.062V284.192c-.168.096-.335.193-.503.288l1.414.65 2.224 1.021.487.224a.378.378 0 0 0 .347 0l.052-.023.251-.116 2.132-.98 1.662-.764c.01-.005.018-.01.027-.012.159-.073.21-.316.12-.457-.105-.165-.286-.198-.457-.12-.467.215-.935.428-1.403.644l-2.217 1.02-.511.234h.337l-1.403-.644-2.218-1.02-.51-.235c-.112-.052-.226-.065-.337 0-.101.06-.165.171-.165.288V287.534c0 .15-.01.302.004.45a1.4 1.4 0 0 0 .386.851c.226.23.519.358.835.396.113.014.228.01.343.01H141.816c.385 0 .763-.14 1.03-.427.218-.236.343-.53.368-.85.004-.057.003-.113.003-.17v-3.604c0-.175-.153-.341-.334-.334a.345.345 0 0 0-.333.337Z" fill="#666" fill-rule="evenodd" data-name="Path 94653"/></g></g><g data-name="Group 47999"><g data-name="Group 47998"><path d="M132.559 286.726v-3.636c0-.175-.153-.341-.334-.334a.34.34 0 0 0-.334.334v3.636c0 .175.153.341.334.334a.34.34 0 0 0 .334-.334Z" fill="#666" fill-rule="evenodd" data-name="Path 94654"/></g></g></g></svg>