<svg xmlns="http://www.w3.org/2000/svg" width="16" height="16" viewBox="0 0 16 16">
  <path id="Email" d="M8,16A8,8,0,1,0,0,8a8,8,0,0,0,8,8ZM4.106,5.747A1.213,1.213,0,0,1,5.272,5h5.44a1.229,1.229,0,0,1,1.17.717.218.218,0,0,1-.115.336L8.16,7.936a.3.3,0,0,1-.3,0l-3.654-1.9a.19.19,0,0,1-.1-.29Zm.238,1.2q1.7.891,3.4,1.776a.494.494,0,0,0,.5,0q1.693-.888,3.39-1.76a.39.39,0,0,1,.106-.04.19.19,0,0,1,.251.2V9.384a3.563,3.563,0,0,1-.021.586A1.219,1.219,0,0,1,10.757,11H5.269a1.235,1.235,0,0,1-1.222-.92A1.254,1.254,0,0,1,4,9.76Q4,8.454,4,7.147C4,6.928,4.141,6.845,4.344,6.949Z" fill="#8c959d"/>
</svg>
