<svg xmlns="http://www.w3.org/2000/svg" width="132" height="169.932" viewBox="113.5 94.562 132 169.932"><g data-name="Group 47862"><path d="M201.291 99.394c-.622 2.003-1.518 3.963-2.512 5.904 2.59-.86 4.843-1.418 7.448-1.17 2.284.219 4.341 1.525 6.218 3.029.117-.568.234-1.136.346-1.703.571-2.883 1.105-5.802.986-8.724-1.594-1.06-3.298-1.854-5.084-2.09-2.234-.296-4.506.296-6.702 1.057l-.004.001h.004c-.137 1.302-.357 2.594-.7 3.696" fill="#108fe5" fill-rule="evenodd" data-name="Path 94914"/><path d="M214.024 96.903c-.083-.057-.164-.118-.247-.173.084.056.164.12.248.178v-.005Z" fill="#006383" fill-rule="evenodd" data-name="Path 94915"/><path d="M212.791 105.454c-.112.567-.23 1.135-.346 1.703-.906 4.424-1.907 8.86-2.684 13.285l5.987-.426.87.113c.077-.367.151-.735.231-1.1 1.049-4.814 2.312-9.66 3.482-14.5.277-1.143-.273-2.515-1.15-3.301-.18-.163-.178-.164-.356-.33-1.48-1.38-3.075-2.8-4.8-3.99-.084-.058-.164-.122-.248-.178.12 2.922-.415 5.84-.986 8.724" fill="#61bfff" fill-rule="evenodd" data-name="Path 94916"/><path d="M195.568 111.285c1.05-1.99 2.183-3.978 3.212-5.987.993-1.94 1.89-3.901 2.512-5.904.343-1.102.563-2.394.7-3.697l-.004.001c-.655.224-1.326.47-1.956.723-2.255.908-3.83 1.65-5.967 2.773-.696.366-1.313.782-1.872 1.823-.444.826-.945 1.923-1.483 2.806a65.151 65.151 0 0 0-1.38 2.383 64.16 64.16 0 0 1 3.16 11.33c.948-2.108 1.992-4.191 3.078-6.25" fill="#61bfff" fill-rule="evenodd" data-name="Path 94917"/><path d="m182.994 122.343 2.777-.198a67.63 67.63 0 0 0-1.246-4.97 71.078 71.078 0 0 0-1.531 5.168" fill="#007fa2" fill-rule="evenodd" data-name="Path 94918"/><path d="M166.503 104.543c.028.524.06 1.049.09 1.574 2.124-1.242 4.372-2.294 6.635-2.338 2.64-.053 4.779.632 7.207 1.665-.679-1.955-1.263-3.92-1.578-5.901-.172-1.086-.195-2.345-.133-3.613-2.074-.806-4.252-1.419-6.525-1.198-1.818.178-3.637.872-5.384 1.79-.551 2.655-.452 5.356-.312 8.02" fill="#108fe5" fill-rule="evenodd" data-name="Path 94919"/><path d="M167.307 122.878c.118-5.54-.38-11.17-.713-16.76-.03-.526-.063-1.051-.09-1.575-.14-2.665-.24-5.366.311-8.022-1.971 1.046-3.848 2.314-5.644 3.551-.109.075-.217.149-.327.222a3.75 3.75 0 0 0-1.638 3.513c.447 4.184.959 8.377 1.275 12.53.192 2.52.306 5.061.244 7.588l6.565-.466c.006-.194.013-.388.017-.58" fill="#61bfff" fill-rule="evenodd" data-name="Path 94920"/><path d="M178.857 99.543c.315 1.98.9 3.946 1.578 5.9.721 2.075 1.55 4.136 2.286 6.192a93.336 93.336 0 0 1 1.804 5.54 67.693 67.693 0 0 1 1.246 4.97l7.341-.52a72.746 72.746 0 0 0-.623-4.09 64.119 64.119 0 0 0-3.16-11.329c-.206-.537-.405-1.077-.627-1.61-.35-.84-1.28-3.48-2.55-4.561-1.653-1.406-3.574-2.406-5.584-3.334a30.942 30.942 0 0 0-1.844-.77c-.062 1.266-.04 2.526.133 3.612" fill="#61bfff" fill-rule="evenodd" data-name="Path 94921"/><path d="m230.242 212.65.065-.033a3.008 3.008 0 0 1-.048-.514l-.008-4.367c0 .178.017.358.05.539-.416-2.257 1.796-4.336 5.408-5.532a119505.987 119505.987 0 0 0-.605-12.253l-.05-1.025c-.02-.377-.038-.755-.056-1.132l-.006-.114-.05-1.014-.06-1.223-.05-.999-.16-3.234c-.03-.57-.057-1.141-.086-1.712l-.12-2.418-.04-.818-.015-.284-.034-.695c-.936-18.777-1.887-37.619-2.875-56.925-2.324.976-3.486 1.461-5.81 2.427a34559.34 34559.34 0 0 1 4.55 91.326" fill="#108fe5" fill-rule="evenodd" data-name="Path 94922"/><path d="m220.272 206.82 2.079-2.846c.164-.322.48-.542.902-.66.084-.023.172-.043.264-.059.276-.046.587-.056.92-.03a5.593 5.593 0 0 1 1.145.216c.467.131.952.319 1.435.566a7.606 7.606 0 0 1 1.372.885l.001.001c.396.322.727.663.976 1.003.5.68.677 1.358.414 1.872l-.106.328-2.02 6.225c.71-.61 1.582-1.172 2.588-1.671-1.479-30.38-2.96-60.323-4.55-91.326-3.675-.49-5.656-.752-9.074-1.195l-.87-.113c1.543 28.932 3.043 57.868 4.524 86.803" fill="#1777b8" fill-rule="evenodd" data-name="Path 94924"/><path d="m125.19 238.234 1.481.666c.938-1.82 1.622-3.753 2.68-5.523.96-1.603 2.197-3.18 3.6-4.437.474-.424 1.095-.807 1.743-.664-.19.219-.351.43-.5.636a54.931 54.931 0 0 0 3.112-3.539 49.124 49.124 0 0 0 1.578-2.068 44.54 44.54 0 0 0 1.034-1.496 36.065 36.065 0 0 0 2.344-4.082c.277-.572.537-1.152.776-1.74.357-.884.667-1.783.914-2.695.25-.922.435-1.758.627-2.506.038-.15.077-.295.116-.438.08-.284.162-.555.252-.812.36-1.027.848-1.827 1.755-2.398l.038.01h.002l.029.007.076.02.006.001.02.006.057.015.16.045.075.022c.18.053.408.125.68.219l.11.038c.107.037.218.077.336.12l.14.054c.127.047.259.1.396.155l.125.05c.365.148.766.324 1.197.527l.164.08c.138.066.276.134.419.206 1.817-2.454 3.664-4.954 5.53-7.485-5.673-4.464-9.284-11.1-8.18-19.031 1.72-12.358 13.35-24.004 25.936-24.935 4.547-.336 8.636.895 12.106 3.14 16.034-22.058 28.5-39.389 28.5-39.389 1.525 28.633 3.05 57.852 4.556 87.302l1.093-1.496c-1.482-28.935-2.982-57.87-4.525-86.803a172877.204 172877.204 0 0 0-22.636 1.608l-7.34.521-2.778.198-15.704 1.115-6.565.467c-7.472.53-14.944 1.06-22.417 1.592-2.67 35.49-11.727 69.583-15.26 106.168a339.984 339.984 0 0 0-.477 5.37l2.62 1.179Zm6.28-57.069c3.098-17.84 6.3-36.278 7.744-54.738l49.569-3.52a102.469 102.469 0 0 0-6.174 3.72 94.562 94.562 0 0 0-10.86 8.242c-3.387 2.987-6.486 6.249-9.45 9.652a168.67 168.67 0 0 0-16.2 21.983c-4.813 7.775-9 15.943-12.441 24.417-3.408 8.392-6.089 17.09-7.856 25.977-.068.342-.126.686-.19 1.028 1.648-12.502 3.77-24.75 5.857-36.76" fill="#61bfff" fill-rule="evenodd" data-name="Path 94927"/><path d="M133.658 190.92c3.44-8.473 7.628-16.641 12.441-24.416a168.675 168.675 0 0 1 16.2-21.983c2.964-3.403 6.063-6.665 9.45-9.652a94.559 94.559 0 0 1 10.86-8.243 102.518 102.518 0 0 1 6.174-3.72l-49.57 3.521c-1.442 18.46-4.645 36.898-7.744 54.738-2.086 12.011-4.21 24.259-5.858 36.761.065-.342.123-.686.191-1.028 1.767-8.886 4.448-17.585 7.856-25.977" fill="#a4daff" fill-rule="evenodd" data-name="Path 94930"/><path d="M151.017 208.86c.182.094.367.194.556.298l.161.088c.249.14.502.285.761.442l.021.013c.244.147.494.305.746.469.07.044.14.092.21.138a27.925 27.925 0 0 1 1.47 1.044c.064.048.126.094.19.144.28.215.56.44.844.676l.01.008a29.136 29.136 0 0 1 4.16 4.285v-.002l.042.054c.09.114.178.231.267.348a28.026 28.026 0 0 1 1.017 1.412c.074.11.15.218.223.33.194.293.386.594.574.902.053.085.103.173.154.26a31.766 31.766 0 0 1 1.017 1.828c.058.112.116.222.173.335.18.36.358.727.53 1.105 3.672 8.024 1.572 19.282.505 23.732l-.053.22-.071.29 1.536.172 6.35-31.53c.33-1.64 1.806-2.825 3.296-2.644l19.42 2.36c1.488.18 2.428 1.658 2.097 3.3l-5.175 25.698c2.67-3.894 7.146-10.403 11.34-16.504.117-.166.231-.337.347-.504.116-.166.229-.334.344-.5 3.272-4.76 6.296-9.16 8.045-11.723.121-.178.237-.344.342-.503l.446-.65c.48-.706.758-1.118.78-1.162.438-.86 1.528-1.305 2.97-1.323l2.518-3.45c-1.507-29.45-3.031-58.67-4.557-87.302 0 0-12.466 17.33-28.5 39.388 7.099 4.591 11.598 13.447 12.053 21.964.801 15.006-11.195 25.915-25.936 24.935-5.744-.382-11.503-2.552-15.978-6.073a4483.197 4483.197 0 0 1-5.53 7.485l.086.045.2.102" fill="#108fe5" fill-rule="evenodd" data-name="Path 94934"/><path d="M198.175 182.366c-.455-8.517-4.954-17.373-12.052-21.964-3.47-2.245-7.558-3.476-12.105-3.14-12.587.931-24.217 12.577-25.937 24.935-1.103 7.931 2.508 14.567 8.18 19.031 4.476 3.521 10.234 5.69 15.978 6.073 14.742.98 26.738-9.93 25.936-24.935m-40.728-6.65c3.09-.049 6.18-.096 9.271-.144l.572-9.32 12.836-.558-.103 9.671 9.271-.143.322 14.23-9.74-.208c-.035 3.224-.07 6.448-.103 9.672l-14.448-.65.572-9.32-9.74-.209 1.29-13.022" fill="#fff" fill-rule="evenodd" data-name="Path 94935"/><path d="m165.325 198.265 14.448.65.103-9.671 9.74.208-.322-14.23-9.27.143c.033-3.224.068-6.448.102-9.671l-12.836.558c-.19 3.107-.38 6.213-.572 9.32l-9.27.143-1.291 13.022 9.74.209-.572 9.319" fill="#ff5151" fill-rule="evenodd" data-name="Path 94936"/><path d="m219.712 207.1 3.05 43.301-106.697 1.428 40.184-42.124 63.463-2.605Z" fill="#108fe5" fill-rule="evenodd" data-name="Path 95506"/><g data-name="Group 47858"><path d="m241.453 202.493-.014-.045.014.045Z" fill="#fff" fill-rule="evenodd" data-name="Path 94854"/><path d="M241.743 204.537c.025-.115.033-.23.044-.347-.01.116-.02.232-.044.347" fill="#fff" fill-rule="evenodd" data-name="Path 94856"/><path d="M241.56 205.111c.045-.107.076-.216.11-.324-.034.108-.065.217-.11.324" fill="#fff" fill-rule="evenodd" data-name="Path 94857"/><path d="M239.775 207.207" fill="#fff" fill-rule="evenodd" data-name="Path 94859"/><path d="M240.867 206.206" fill="#fff" fill-rule="evenodd" data-name="Path 94860"/><path d="M240.65 206.442" fill="#fff" fill-rule="evenodd" data-name="Path 94865"/><path d="M241.266 205.67c.064-.103.117-.206.17-.31-.053.104-.106.208-.17.31" fill="#fff" fill-rule="evenodd" data-name="Path 94866"/><path d="M212.203 216.932v-.06l-.064.036.064.024Z" fill="#e1e9f2" fill-rule="evenodd" data-name="Path 95015"/><path d="m211.207 224.453-.003.011.977-2.755v-.004l-.974 2.748Z" fill="#e1e9f2" fill-rule="evenodd" data-name="Path 95016"/><path d="M211.2 224.471h.002l.002-.007.003-.011-.008.018Z" fill="#dbe2ea" fill-rule="evenodd" data-name="Path 95039"/><path d="m211.207 224.453-.023.013.015.005.008-.018Z" fill="#6a9d97" fill-rule="evenodd" data-name="Path 95047"/><path d="M244.967 249.379c-.02 3.915-6.536 7.23-14.833 7.55-4.4.167-8.675-.507-12.034-1.9-3.24-1.342-5.22-3.179-5.575-5.171l3.126-3.388c-1.109-.557-2.068-1.185-2.84-1.874l-.321.356.003-.656c-.143-.14-.288-.28-.415-.424-.002.823-.009 1.635-.013 2.428l-.009 2.225-.002.682c-.003.237.017.48.06.724.793 4.445 8.866 7.764 18.036 7.416 7.079-.273 12.74-2.654 14.59-5.77.415-.7.64-1.437.644-2.195l.034-6.785c-.118.24-.262.475-.421.708l-.03 6.074Z" fill="#f3801a" fill-rule="evenodd" data-name="Path 95105"/><path d="M241.617 209.357c-.299.795-.925 1.539-1.808 2.198-.723 2.399-4.759 4.32-9.963 4.518-6.073.233-11.422-1.966-11.946-4.911a2.653 2.653 0 0 1-.041-.478v-.105c-.454-.54-.755-1.123-.868-1.736l-.003-.025-.065.033c-1.006.5-1.878 1.06-2.588 1.671-1.348 1.161-2.114 2.497-2.12 3.907l-.003.616-.01 1.828v.059l-.001.404-.002.433-.004.637-.007 1.492-.007 1.807v.004l-.002.44-.006.897c-.002.923-.006 1.854-.01 2.796.127.14.273.276.415.413l.002-.412.002-.504.009-2.29.005-.899c.003-.76.005-1.509.01-2.25l.012-2.563.008-1.69.005-.992c2.704 3.153 9.368 5.259 16.746 4.977 2.565-.099 4.941-.476 7.018-1.065l-11.126 12.28c1.46.129 2.975.173 4.521.114.061-.003.12-.008.18-.01l15.092-16.357.021 9.714-.004.758c.162-.247.307-.5.421-.756l-.012-7.643-.005-2.783c-.307-1.73-1.72-3.287-3.866-4.527m1.242 5.783c-.606.38-1.238.72-1.881 1.033a25.923 25.923 0 0 1-4.022 1.508c-.344.103-.691.19-1.038.283-.349.081-.697.17-1.048.24-.7.155-1.407.276-2.115.391a38.43 38.43 0 0 1-4.281.401c-2.869.081-5.777-.242-8.509-1.163a18.915 18.915 0 0 1-3.906-1.806 17.085 17.085 0 0 1-1.751-1.243c-.553-.454-1.082-.94-1.529-1.497 1.007 1.007 2.19 1.812 3.432 2.48a20.541 20.541 0 0 0 3.9 1.606c1.35.394 2.731.683 4.13.834 1.397.16 2.806.216 4.213.165a40.124 40.124 0 0 0 4.216-.367 37.786 37.786 0 0 0 4.157-.8c.685-.17 1.364-.366 2.035-.586a25.562 25.562 0 0 0 1.989-.73c1.308-.535 2.583-1.174 3.727-2.022-.522.486-1.111.897-1.719 1.273" fill="#f3801a" fill-rule="evenodd" data-name="Path 95106"/><path d="M238.862 216.62a29.5 29.5 0 0 1-2.035.586c-1.37.345-2.758.61-4.157.8a40.12 40.12 0 0 1-4.215.366 28.225 28.225 0 0 1-4.214-.165c-1.399-.151-2.78-.44-4.13-.834a20.528 20.528 0 0 1-3.9-1.607c-1.242-.667-2.425-1.472-3.431-2.479.446.557.975 1.043 1.528 1.497.556.45 1.142.865 1.751 1.244a18.93 18.93 0 0 0 3.906 1.805c2.732.92 5.64 1.245 8.509 1.163a38.49 38.49 0 0 0 4.282-.4 38.465 38.465 0 0 0 2.114-.392c.351-.07.7-.159 1.048-.24.347-.092.694-.18 1.038-.283a25.902 25.902 0 0 0 4.022-1.508 20.463 20.463 0 0 0 1.882-1.033c.607-.376 1.196-.787 1.718-1.274-1.143.849-2.42 1.489-3.727 2.023-.653.272-1.317.514-1.989.73" fill="#f89a44" fill-rule="evenodd" data-name="Path 95107"/><path d="M236.395 218.567c-2.076.59-4.452.966-7.017 1.065-7.379.282-14.042-1.824-16.747-4.977l-.005.993-.008 1.69-.012 2.562-.01 2.25-.005.898-.009 2.29-.002.506-.002.41c2.493 2.388 7.192 4.113 12.691 4.594l11.126-12.28Z" fill="#f89a44" fill-rule="evenodd" data-name="Path 95108"/><path d="M212.812 244.597a8.748 8.748 0 0 1-.32-.3l-.002.655.322-.355Z" fill="#f89a44" fill-rule="evenodd" data-name="Path 95109"/><path d="M245.062 214.594 229.97 230.95c7.244-.316 13.048-2.717 15.109-5.884l.003-.758-.021-9.714Z" fill="#de6520" fill-rule="evenodd" data-name="Path 95110"/><path d="M212.525 249.859c.356 1.992 2.335 3.828 5.575 5.17 3.36 1.393 7.633 2.068 12.034 1.9 8.297-.319 14.813-3.634 14.833-7.55l.03-6.074c-2.15 3.134-7.98 5.498-15.213 5.773-5.475.21-10.575-.823-14.132-2.608l-3.127 3.389Z" fill="#de6520" fill-rule="evenodd" data-name="Path 95111"/><path d="M245.5 224.31a5.45 5.45 0 0 1-.42.756c-2.06 3.167-7.865 5.568-15.11 5.884-.06.003-.119.009-.18.01a36.21 36.21 0 0 1-4.521-.112c-5.499-.481-10.198-2.206-12.691-4.593-.143-.137-.288-.273-.415-.413-.008 1.969-.02 3.974-.029 5.977l-.042 8.772c0 .3-.003.596-.002.898l-.013 2.25v.134c.128.144.273.283.416.423.103.101.208.202.318.3.772.69 1.731 1.317 2.84 1.874 3.558 1.785 8.658 2.819 14.133 2.608 7.234-.275 13.063-2.639 15.213-5.773.16-.233.303-.468.421-.708l.031-6.969.008-1.698.043-9.62Zm-.29 18.237c-.828 1.646-2.75 3.168-5.418 4.293-2.812 1.185-6.276 1.887-10.016 2.029-4.68.18-9.229-.538-12.81-2.022a18.433 18.433 0 0 1-1.168-.535l2.03-2.202c-.432-.117-.862-.24-1.276-.374a25.42 25.42 0 0 1-1.933-.704c-.135-.055-.263-.114-.395-.172l-1.314 1.451a9.262 9.262 0 0 1-.305-.284l.002-.417v-.135l.011-2.166c0-.146 0-.29.002-.435v-.43l.041-8.465.008-1.416.018-3.947c2.407 2.3 6.944 3.962 12.245 4.427l-.681.75c1.54.176 3.13.246 4.739.22l.778-.843h.03c7.307-.283 13.353-2.668 15.49-6.028l-.079 17.405Z" fill="#dde2e7" fill-rule="evenodd" data-name="Path 95112"/><path d="M225.686 235.595a37.88 37.88 0 0 1-3.44-.36c-.326-.049-.642-.11-.961-.167l-.006.005-1.746 1.928c.386.094.776.183 1.173.265l-.007 1.499a32.046 32.046 0 0 1-2.272-.543l-1.862 2.055-.002.42c-.097-.033-.186-.073-.282-.106l-.004.004-1.031 1.138c.43.167.86.334 1.31.483.497.164 1.005.317 1.527.458.286.077.58.146.872.216l1.152-1.249a32.964 32.964 0 0 1-2.017-.477l.006-1.515c.838.236 1.706.442 2.596.615.195.037.396.066.593.1l1.194-1.294.003-.003c-.084-.012-.17-.02-.255-.033l.008-1.49c.484.077.978.137 1.473.194l1.976-2.142.002-.001Z" fill="#dde2e7" fill-rule="evenodd" data-name="Path 95113"/><path d="m218.952 242.893.003-.003c-.293-.07-.586-.139-.872-.215a29.343 29.343 0 0 1-1.527-.46c-.45-.147-.88-.315-1.31-.482l-.007.008-.29.32-.725.8c.132.056.26.116.395.171a25.55 25.55 0 0 0 1.933.704c.415.134.844.257 1.277.374l.088-.096 1.035-1.12Z" fill="#b9c6c7" fill-rule="evenodd" data-name="Path 95114"/><path d="m218.096 239.649-.006 1.515c.654.18 1.33.335 2.017.477l.126-.136 1.046-1.134.006-.006c-.197-.035-.398-.064-.593-.101a31.823 31.823 0 0 1-2.596-.615" fill="#b9c6c7" fill-rule="evenodd" data-name="Path 95115"/><path d="M222.227 239.034c.084.013.17.02.255.033l.72-.78.505-.548a36.806 36.806 0 0 1-1.473-.195l-.007 1.49Z" fill="#b9c6c7" fill-rule="evenodd" data-name="Path 95116"/><path d="m216.563 240.696.002-.419-.285.314c.096.033.186.073.283.105" fill="#b9c6c7" fill-rule="evenodd" data-name="Path 95117"/><path d="m220.699 238.765.007-1.5c-.397-.081-.787-.17-1.173-.264h-.001l-.607.671-.498.55a31.87 31.87 0 0 0 2.272.543" fill="#b9c6c7" fill-rule="evenodd" data-name="Path 95118"/><path d="m224.25 231.796-2.966 3.272c.32.057.636.118.961.168 1.12.17 2.27.289 3.44.358l3.295-3.57.01-.01c-1.61.025-3.2-.045-4.74-.22v.002Z" fill="#b9c6c7" fill-rule="evenodd" data-name="Path 95119"/><path d="M214.224 242.86a20.434 20.434 0 0 1-1.096-.514l.005-.857v-.694c.523.27 1.075.529 1.661.772.146.06.297.116.445.173l.006-.007 1.032-1.138a21.49 21.49 0 0 1-3.135-1.353l.007-1.558c.619.338 1.284.657 1.999.953.459.19.936.368 1.422.535l-.005 1.105 1.862-2.055.498-.55-.5.553c-.108-.03-.215-.058-.32-.088a28.35 28.35 0 0 1-2.781-.965 20.345 20.345 0 0 1-2.167-1.045l.007-1.56c.71.407 1.49.789 2.336 1.14a27.265 27.265 0 0 0 2.611.915c.464.137.94.263 1.421.38l.001-.001 1.746-1.928a32.198 32.198 0 0 1-3.156-.733 27.197 27.197 0 0 1-2.805-.97 20.58 20.58 0 0 1-2.142-1.032l.002-.514.007-1.458.011-2.252c.934.656 2.035 1.248 3.294 1.77l.126.049c.492.202 1 .388 1.525.56a28.554 28.554 0 0 0 4.122 1.02c.65.113 1.314.206 1.986.283l.002-.002.68-.752c-5.3-.464-9.836-2.126-12.244-4.426l-.018 3.947-.008 1.416-.04 8.465-.001.43-.002.435-.012 2.166v.07l.001.05v.015l-.002.417c.098.096.2.19.304.284l1.315-1.451.725-.8-.725.8Z" fill="#f1f3f6" fill-rule="evenodd" data-name="Path 95120"/><path d="M245.288 225.142c-2.138 3.36-8.183 5.744-15.49 6.027l-.03.001-.778.843-.01.011a35.47 35.47 0 0 0 3.003-.168l-.004.29-.008 1.82-.008 1.511c-.77.077-1.555.133-2.355.163-1.322.05-2.635.034-3.924-.044l-1.977 2.142-.506.549.502-.545a39.549 39.549 0 0 0 8.249.09l-.006 1.449a39.146 39.146 0 0 1-9.466-.211l-1.196 1.295-.005.005c.31.055.624.107.94.154a39.322 39.322 0 0 0 9.718.205l-.006 1.448a39.681 39.681 0 0 1-9.72-.163 33.914 33.914 0 0 1-2.11-.368l.132-.141-.127.136-1.151 1.249-.004.003c.565.136 1.14.258 1.726.366l-.003.733c-.002.183-.002.37-.003.557l.001.204a32.672 32.672 0 0 1-2.594-.57c-.085-.022-.168-.047-.252-.07l.091-.099-.088.096-2.032 2.202c.374.185.76.366 1.168.534 3.582 1.485 8.132 2.203 12.811 2.023 3.74-.142 7.204-.844 10.016-2.029 2.668-1.125 4.59-2.647 5.417-4.293l.079-17.405Zm-13.37 19.77-.002.157a39.488 39.488 0 0 1-9.717-.077l.001-.367.004-1.122a39.504 39.504 0 0 0 9.72.119l-.006 1.29Zm12.478-7.088c-2.256 1.776-5.573 3.146-9.49 3.906l.008-1.431.007-1.434.007-1.436.011-2.37.007-1.607.01-1.82v-.2c4.012-.758 7.36-2.199 9.487-4.077l-.018 3.979-.01 2.478-.008 1.341-.006 1.34-.005 1.331Z" fill="#bbbec3" fill-rule="evenodd" data-name="Path 95121"/><path d="M213.133 240.795v.694l-.006.857c.35.18.72.348 1.097.514l.724-.799.291-.32c-.148-.058-.3-.114-.445-.174a21.621 21.621 0 0 1-1.66-.772" fill="#d5dcdd" fill-rule="evenodd" data-name="Path 95122"/><path d="m217.917 244.014-.091.1.252.07c.839.221 1.704.41 2.594.569l-.001-.204c0-.187.001-.374.003-.557l.003-.732a33.058 33.058 0 0 1-1.726-.366l-1.034 1.12Z" fill="#9b9da1" fill-rule="evenodd" data-name="Path 95123"/><path d="m220.233 241.505-.131.142a33.678 33.678 0 0 0 2.11.367c2.26.322 4.64.448 7.05.358.908-.034 1.799-.102 2.669-.195l.006-1.447a39.45 39.45 0 0 1-9.718-.206c-.316-.047-.63-.099-.94-.153l-1.046 1.134Z" fill="#9b9da1" fill-rule="evenodd" data-name="Path 95124"/><path d="M222.479 239.07a39.167 39.167 0 0 0 9.466.211l.007-1.45a39.564 39.564 0 0 1-8.248-.089l-.503.545-.72.78-.002.003Z" fill="#9b9da1" fill-rule="evenodd" data-name="Path 95125"/><path d="m216.28 240.59.285-.313.005-1.105a25.9 25.9 0 0 1-1.422-.534 20.825 20.825 0 0 1-2-.954l-.006 1.558a21.39 21.39 0 0 0 3.135 1.353l.003-.004Z" fill="#d5dcdd" fill-rule="evenodd" data-name="Path 95126"/><path d="M219.531 237.002a29.32 29.32 0 0 1-1.42-.38 27.105 27.105 0 0 1-2.612-.916 20.335 20.335 0 0 1-2.335-1.139l-.007 1.56c.663.372 1.386.721 2.166 1.045a26.759 26.759 0 0 0 2.781.965l.32.088.5-.553.607-.67Z" fill="#d5dcdd" fill-rule="evenodd" data-name="Path 95127"/><path d="m221.284 235.068 2.965-3.272a33.69 33.69 0 0 1-3.514-.587 28.438 28.438 0 0 1-2.594-.716 22.633 22.633 0 0 1-1.525-.56l-.126-.05c-1.259-.521-2.36-1.113-3.294-1.77l-.012 2.253-.006 1.459-.002.513c.658.368 1.371.713 2.142 1.033a27.492 27.492 0 0 0 2.805.97 32.32 32.32 0 0 0 3.156.732l.005-.005Z" fill="#d5dcdd" fill-rule="evenodd" data-name="Path 95128"/><path d="m225.686 235.595-.002.001c1.29.078 2.602.094 3.924.044.8-.03 1.585-.086 2.355-.163l.008-1.512.008-1.819c.002-.096.002-.193.003-.29a35.374 35.374 0 0 1-3.002.169l-3.294 3.57Z" fill="#9b9da1" fill-rule="evenodd" data-name="Path 95129"/><path d="m244.408 235.153.006-1.34.01-2.479.02-3.979c-2.128 1.879-5.476 3.32-9.488 4.078v.199l-.01 1.82-.007 1.608-.01 2.37-.008 1.435-.007 1.434-.008 1.43c3.917-.759 7.234-2.129 9.49-3.905l.005-1.331.007-1.34Z" fill="#9b9da1" fill-rule="evenodd" data-name="Path 95130"/><path d="m222.204 243.504-.004 1.12c0 .123-.002.246 0 .369a39.447 39.447 0 0 0 9.716.076l.002-.158.006-1.29a39.54 39.54 0 0 1-9.72-.118" fill="#9b9da1" fill-rule="evenodd" data-name="Path 95131"/><path d="m217.86 210.579-.001.105c0 .157.013.317.041.478.524 2.945 5.873 5.144 11.946 4.911 5.204-.198 9.24-2.12 9.963-4.517-2.01 1.5-5.362 2.56-9.32 2.736-5.578.25-10.623-1.326-12.63-3.713" fill="#de6520" fill-rule="evenodd" data-name="Path 95132"/><path d="M238.752 207.863" fill="#de6520" fill-rule="evenodd" data-name="Path 95133"/><path d="M239.447 207.437Z" fill="#de6520" fill-rule="evenodd" data-name="Path 95134"/><path d="m237.949 208.273-.073.031.004.002.069-.033Z" fill="#de6520" fill-rule="evenodd" data-name="Path 95135"/><path d="M237.876 208.304c-.13.06-.264.118-.4.175.136-.057.274-.113.404-.173l-.004-.002Z" fill="#c6561d" fill-rule="evenodd" data-name="Path 95136"/><path d="M236.552 208.83" fill="#c6561d" fill-rule="evenodd" data-name="Path 95137"/><path d="M230.482 209.925" fill="#c6561d" fill-rule="evenodd" data-name="Path 95138"/><path d="M235.555 209.14c.19-.054.38-.107.564-.164-.183.057-.374.11-.564.164" fill="#c6561d" fill-rule="evenodd" data-name="Path 95139"/><path d="M234.488 209.405c.207-.046.415-.09.615-.141-.2.05-.408.095-.615.141" fill="#c6561d" fill-rule="evenodd" data-name="Path 95140"/><path d="M232.112 209.793c.263-.029.525-.057.78-.094-.255.037-.517.065-.78.094" fill="#c6561d" fill-rule="evenodd" data-name="Path 95141"/><path d="M233.35 209.623c.227-.037.455-.074.676-.117-.221.043-.45.08-.677.117" fill="#c6561d" fill-rule="evenodd" data-name="Path 95142"/><path d="m239.473 207.42-.026.017.026-.017Z" fill="#f89a44" fill-rule="evenodd" data-name="Path 95143"/><path d="M241.787 204.19c-.01.117-.02.232-.044.347-.019.084-.049.166-.074.25-.033.109-.064.217-.11.324-.035.085-.08.167-.123.25-.053.103-.106.206-.17.308-.052.083-.113.163-.172.244a5.287 5.287 0 0 1-.227.293c-.068.08-.143.158-.218.236-.09.094-.181.187-.28.278-.084.076-.172.15-.262.225a7.555 7.555 0 0 1-.634.475l-.025.018a9.026 9.026 0 0 1-.357.226 9.428 9.428 0 0 1-.767.425c-.123.062-.247.124-.375.184l-.069.033c-.13.06-.268.116-.404.173-.134.055-.268.112-.407.165-.168.065-.342.125-.517.186-.143.05-.285.1-.433.146-.184.057-.374.11-.565.164-.15.042-.297.085-.451.124-.2.05-.408.095-.615.141-.154.034-.305.07-.463.101-.22.043-.448.08-.675.117-.153.025-.302.054-.457.076-.255.037-.518.065-.78.094-.136.015-.267.034-.404.046a25.52 25.52 0 0 1-1.227.086c-6.843.306-12.887-2.134-13.5-5.449-.032-.18-.05-.36-.05-.539l.008 4.367c0 .17.018.342.048.514l.003.025c.113.613.414 1.195.868 1.736 2.007 2.387 7.052 3.962 12.63 3.713 3.958-.177 7.31-1.236 9.32-2.737.883-.66 1.51-1.403 1.808-2.198.133-.353.206-.714.206-1.083l-.008-4.368-.004.041c0 .082-.016.162-.024.243" fill="#c2cfdb" fill-rule="evenodd" data-name="Path 95144"/><path d="M241.453 202.493c-1.417-2.857-6.964-4.852-13.187-4.574-2.185.098-4.183.465-5.876 1.026-3.612 1.195-5.824 3.274-5.407 5.531.612 3.315 6.656 5.755 13.499 5.45a25.57 25.57 0 0 0 1.228-.087c.137-.012.267-.031.402-.046.263-.029.526-.057.78-.094.156-.022.305-.05.458-.075.227-.038.455-.075.676-.118.157-.03.308-.067.463-.1.207-.047.414-.091.614-.142.154-.039.301-.082.452-.124.19-.054.38-.107.564-.164.148-.047.29-.097.433-.146.175-.06.35-.121.517-.185.14-.054.273-.11.407-.166.136-.057.27-.115.4-.174l.073-.032a12.783 12.783 0 0 0 1.142-.609c.123-.074.24-.15.356-.227l.026-.017a7.64 7.64 0 0 0 .895-.7c.1-.091.192-.184.281-.278a5.78 5.78 0 0 0 .218-.236c.082-.096.155-.194.227-.293.06-.08.12-.161.172-.244.064-.101.117-.204.17-.308.043-.083.088-.165.124-.25.045-.107.076-.215.11-.324.025-.084.055-.166.073-.25.025-.115.033-.23.044-.347.008-.081.023-.161.024-.243a2.938 2.938 0 0 0-.047-.579 3.252 3.252 0 0 0-.21-.678c-.029-.067-.068-.13-.1-.197m-10.997 7.346c-6.732.302-12.678-2.099-13.28-5.36-.176-.95.125-1.87.801-2.701.073.126.16.251.248.376.071-.108.148-.215.232-.32.3-.377.674-.731 1.113-1.06-.344.13-.675.267-.983.413 1.864-1.715 5.424-2.955 9.7-3.147 6.705-.3 12.627 2.09 13.227 5.34.01.057.015.114.022.17-.19-.2-.41-.394-.645-.585.053.15.105.3.134.455a2.85 2.85 0 0 1-.023 1.16c.253-.296.453-.61.588-.941.31 3.158-4.574 5.907-11.134 6.2" fill="#e1e9f2" fill-rule="evenodd" data-name="Path 95145"/><path d="M230.007 207.229c4.771.424 8.811-.55 10.68-2.322.178-.474.225-.959.134-1.449a3.025 3.025 0 0 0-.258-.753c-2.68-1.968-7.645-3.296-13.013-3.248-2.717.025-5.162.4-7.14 1.024-.744.442-1.356.939-1.788 1.482-.099.124-.184.25-.263.376 1.85 2.414 6.41 4.425 11.648 4.89" fill="#e1e9f2" fill-rule="evenodd" data-name="Path 95146"/><path d="M227.55 199.457c5.368-.048 10.333 1.28 13.013 3.248-.412-.853-1.227-1.626-2.344-2.272-2.339-1.352-5.977-2.152-9.89-1.988-3.135.131-5.988.89-7.92 2.036 1.979-.624 4.424-.999 7.141-1.024" fill="#edf2f8" fill-rule="evenodd" data-name="Path 95147"/><path d="M228.321 198.237c6.101-.256 11.544 1.835 12.571 4.728.234.19.455.385.645.586-.007-.057-.012-.114-.022-.172-.6-3.248-6.522-5.639-13.227-5.339-4.276.191-7.835 1.432-9.7 3.147.308-.146.64-.282.983-.413 1.928-1.442 5.11-2.385 8.75-2.537" fill="#edf2f8" fill-rule="evenodd" data-name="Path 95148"/><path d="M240.29 206.01c-1.616 2.033-5.395 3.41-9.864 3.598-3.941.164-7.613-.65-9.995-2.026-1.496-.865-2.483-1.952-2.71-3.158-.145-.778.025-1.54.505-2.27a4.941 4.941 0 0 1-.248-.376c-.676.832-.977 1.75-.802 2.7.603 3.262 6.549 5.663 13.281 5.361 6.56-.292 11.444-3.042 11.133-6.2a3.434 3.434 0 0 1-.588.94c-.11.49-.344.968-.713 1.431" fill="#ced8e2" fill-rule="evenodd" data-name="Path 95149"/><path d="M230.418 209.399c4.343-.182 8.153-1.563 9.708-3.518.253-.319.438-.643.561-.974-1.868 1.772-5.908 2.746-10.68 2.322-5.238-.465-9.798-2.476-11.648-4.89-.416.662-.563 1.349-.432 2.047.569 3.028 6.172 5.277 12.49 5.013" fill="#ced8e2" fill-rule="evenodd" data-name="Path 95150"/><path d="M217.722 204.424c.226 1.206 1.214 2.293 2.71 3.158 2.381 1.377 6.053 2.19 9.995 2.026 4.468-.188 8.247-1.565 9.862-3.598.369-.463.604-.942.714-1.43a2.85 2.85 0 0 0 .023-1.16 3.049 3.049 0 0 0-.134-.455c-1.027-2.893-6.47-4.984-12.571-4.728-3.64.152-6.822 1.095-8.75 2.537a6.004 6.004 0 0 0-1.112 1.06 4.28 4.28 0 0 0-.233.32c-.48.73-.65 1.492-.504 2.27m.637-2.085c.079-.126.164-.252.263-.376.432-.544 1.044-1.04 1.787-1.482 1.933-1.147 4.785-1.905 7.921-2.036 3.913-.164 7.55.636 9.89 1.988 1.116.646 1.932 1.419 2.344 2.271.118.246.208.496.256.754.093.49.045.975-.133 1.45-.123.33-.308.654-.561.973-1.555 1.955-5.365 3.336-9.708 3.518-6.318.264-11.922-1.985-12.491-5.013-.131-.699.016-1.386.432-2.047" fill="#fff" fill-rule="evenodd" data-name="Path 95151"/></g><g data-name="Group 47860"><path d="M147.222 255.514c-.386 1.92-2.003 3.369-3.759 3.369-.124 0-.25-.008-.372-.023l-25.38-3.083.322-.392-1.416-.173c-1.656-.2-2.703-1.849-2.335-3.673l.67-3.325-.473.576 8.519-42.3c.386-1.92 2.003-3.37 3.76-3.37.124 0 .25.009.373.023l22.529 2.738-.322.392 4.266.518c1.235.15 2.129 1.107 2.352 2.34l.308-.376c.131.544.146 1.134.028 1.725l-7.246 35.977.498-.727 7.085-35.181c.453-2.247-.833-4.27-2.872-4.518l-26.585-3.23c-2.04-.248-4.06 1.374-4.513 3.62l-8.692 43.165-.282 1.397-.095.472c-.453 2.249.834 4.27 2.874 4.518l26.585 3.23c2.039.248 4.058-1.372 4.512-3.621l.17-.852-.304-.23-.205 1.014Z" fill="#e1e9f2" fill-rule="evenodd" data-name="Path 94937"/><path d="m128.311 242.288-3.667-.445-3.737-.455c-.105-.013-.203-.042-.3-.072l-5.188 6.326-.793 3.939c-.325 1.615.602 3.073 2.068 3.251l1.629.199 3.187-3.888-2.506-.304c-1.16-.141-1.891-1.32-1.628-2.627.263-1.31 1.423-2.26 2.584-2.119l3.712.451 1.463.178 3.637-4.436a1.947 1.947 0 0 1-.46.002" fill="#e1e9f2" fill-rule="evenodd" data-name="Path 94938"/><path d="m146.592 215.465-3.737-.454a1.752 1.752 0 0 1-.545-.167l-4.953 6.042c-.308 1.628-.628 3.255-.942 4.88l-1.046 5.268-.871 4.269 2.872-3.504c.002-.168.016-.34.051-.515.227-1.127 1.118-1.983 2.102-2.11l3.642-4.443-2.213-.27c-1.16-.14-1.89-1.32-1.627-2.628.264-1.31 1.422-2.258 2.583-2.117l3.712.45 1.17.142 3.606-4.397h-.137l-3.667-.446Z" fill="#e1e9f2" fill-rule="evenodd" data-name="Path 94939"/><path d="M135.926 225.707c.288-1.377.576-2.756.867-4.134l-5.39 6.576c1.02.263 1.64 1.356 1.394 2.573-.263 1.309-1.422 2.257-2.583 2.116l-2.416-.293-3.593 4.383 1.37.166 3.692.449c.999.121 1.675 1.014 1.677 2.095l2.883-3.518 1.024-5.148 1.075-5.265Z" fill="#e1e9f2" fill-rule="evenodd" data-name="Path 94940"/><path d="m153.528 207.172-4.48-.545-3.186 3.887 1.662.203 3.692.448c.886.108 1.517.82 1.651 1.733l2.767-3.374c-.104-1.224-.923-2.208-2.106-2.352" fill="#e1e9f2" fill-rule="evenodd" data-name="Path 94941"/><path d="M120.606 241.316c-.98-.292-1.566-1.365-1.327-2.555.264-1.308 1.423-2.259 2.584-2.118l2.342.285 3.593-4.383-1.25-.152-3.738-.454c-1.16-.142-1.891-1.32-1.628-2.628.264-1.309 1.423-2.26 2.584-2.118l3.712.452 3.692.447c.081.01.156.036.232.057l5.392-6.576c.08-.375.155-.75.236-1.125a586.868 586.868 0 0 1 2.32-10.505 570.327 570.327 0 0 1-1.918 10.554c-.024.13-.05.26-.075.389l4.953-6.042c-.828-.388-1.3-1.376-1.082-2.463.264-1.308 1.423-2.256 2.583-2.116l2.05.25 3.187-3.888-22.106-2.685c-1.465-.178-2.921.99-3.246 2.606l-8.276 41.094 5.186-6.326Zm4.383-30.907c.264-1.309 1.423-2.257 2.583-2.116l3.712.45 3.692.449c1.161.141 1.892 1.32 1.628 2.628-.264 1.309-1.423 2.26-2.583 2.117l-3.667-.445-3.737-.454c-1.162-.14-1.892-1.32-1.628-2.63m-1.903 9.45c.263-1.307 1.422-2.256 2.583-2.115l3.712.45 3.692.45c1.16.14 1.891 1.32 1.628 2.627-.264 1.308-1.423 2.259-2.584 2.118l-3.667-.446-3.737-.453c-1.16-.141-1.89-1.322-1.627-2.63" fill="#f3f6fa" fill-rule="evenodd" data-name="Path 94942"/><path d="M127.13 203.144a3.189 3.189 0 0 0-.373-.023c-1.757 0-3.374 1.45-3.76 3.37l-8.52 42.3.474-.577 8.399-41.708c.367-1.824 2.012-3.146 3.668-2.944l22.319 2.712.322-.393-22.53-2.737Z" fill="#f3f6fa" fill-rule="evenodd" data-name="Path 94943"/><path d="M146.869 255.498c-.368 1.824-2.013 3.146-3.667 2.944l-25.17-3.057-.321.392 25.38 3.083c.122.015.247.023.372.023 1.756 0 3.372-1.448 3.759-3.368l.204-1.015-.309-.237-.248 1.235Z" fill="#cce0ee" fill-rule="evenodd" data-name="Path 94944"/><path d="M156.291 210.48a3.996 3.996 0 0 0-.028-1.725l-.308.376c.076.42.076.871-.018 1.334l-7.396 36.73.505-.738 7.245-35.976Z" fill="#cce0ee" fill-rule="evenodd" data-name="Path 94945"/><path d="M155.593 210.423c.062-.31.065-.61.04-.9l-2.767 3.375c.042.284.04.585-.023.894-.253 1.258-1.333 2.173-2.447 2.12l-3.605 4.396 2.52.307c1.162.141 1.892 1.32 1.629 2.628-.264 1.309-1.423 2.26-2.584 2.118l-3.667-.445-1.524-.186-3.642 4.443c.159-.02.32-.026.482-.007l3.712.451 3.692.449c1.16.14 1.89 1.32 1.627 2.629-.263 1.308-1.422 2.257-2.583 2.116l-3.667-.445-3.737-.454c-1.005-.123-1.685-1.024-1.679-2.113l-2.872 3.504-.203.994c-.368 1.752-.726 3.507-1.104 5.26a575.206 575.206 0 0 1-2.323 10.505c.606-3.522 1.246-7.04 1.919-10.554.33-1.759.679-3.515 1.016-5.27l.024-.118-2.883 3.518c0 .173-.013.352-.05.534-.228 1.134-1.13 1.995-2.122 2.114l-3.637 4.436 2.228.271c1.161.14 1.891 1.32 1.628 2.63-.264 1.308-1.423 2.256-2.583 2.116l-3.668-.446-1.23-.15-3.187 3.888 24.955 3.031c1.464.178 2.92-.99 3.245-2.605l.289-1.432a48.533 48.533 0 0 1-1.914-1.566c-.487.833-1.367 1.36-2.251 1.253l-3.667-.446-3.737-.454c-1.161-.14-1.891-1.32-1.628-2.628.264-1.308 1.423-2.258 2.583-2.117l3.713.45 3.692.45c.779.093 1.355.661 1.576 1.417.66-.888 1.664-1.696 2.29-1.624l.571-.834 7.553-37.503Zm-20.075 30.31c.264-1.307 1.423-2.258 2.584-2.117l3.712.451 3.692.449c1.16.14 1.89 1.32 1.627 2.629-.263 1.309-1.422 2.257-2.583 2.117l-3.667-.446-3.737-.454c-1.16-.14-1.891-1.32-1.628-2.628" fill="#cce0ee" fill-rule="evenodd" data-name="Path 94946"/><path d="M146.523 255.457c-.325 1.614-1.781 2.783-3.245 2.605l-24.955-3.031-1.63-.199c-1.465-.178-2.392-1.635-2.067-3.251l.793-3.939 8.276-41.094c.325-1.615 1.782-2.784 3.247-2.606l22.105 2.685 4.48.545c1.183.144 2.002 1.128 2.106 2.352.025.29.022.59-.04.9l-7.553 37.502.5-.732 7.397-36.729c.094-.463.094-.914.018-1.335-.223-1.232-1.117-2.189-2.352-2.338l-4.265-.518-22.32-2.712c-1.656-.202-3.3 1.12-3.668 2.944l-8.399 41.708-.67 3.325c-.367 1.824.68 3.473 2.336 3.674l1.415.172 25.17 3.057c1.654.202 3.299-1.12 3.666-2.944l.25-1.235-.306-.238-.289 1.432Z" fill="#c2cfdb" fill-rule="evenodd" data-name="Path 94947"/><path d="M136.415 225.766c.314-1.625.634-3.252.942-4.88.024-.13.05-.26.075-.389a570.807 570.807 0 0 0 1.918-10.554c-.806 3.496-1.58 7-2.32 10.505-.082.374-.157.75-.237 1.125-.292 1.378-.579 2.757-.867 4.133l-1.075 5.266-1.024 5.148-.024.118c-.337 1.755-.686 3.512-1.016 5.27a571.665 571.665 0 0 0-1.919 10.553c.808-3.496 1.582-7 2.322-10.504.38-1.753.737-3.508 1.104-5.26l.203-.994.872-4.269 1.046-5.268Z" fill="#c2cfdb" fill-rule="evenodd" data-name="Path 94948"/><path d="m126.616 213.039 3.737.453 3.668.445c1.16.142 2.32-.808 2.583-2.117.263-1.309-.467-2.487-1.628-2.628l-3.692-.448-3.712-.451c-1.16-.14-2.32.807-2.583 2.116-.264 1.309.466 2.489 1.627 2.63m-1.094-2.565c.199-.987 1.063-1.7 1.932-1.594l3.712.451 3.692.449c.868.105 1.413.989 1.215 1.976-.2.986-1.066 1.7-1.935 1.594l-3.666-.445-3.738-.454c-.868-.106-1.41-.991-1.212-1.977" fill="#c2cfdb" fill-rule="evenodd" data-name="Path 94949"/><path d="M131.116 209.72c.618.078 1.237.16 1.849.267.614.102 1.224.218 1.828.374a22.82 22.82 0 0 1-1.888-.079 40.755 40.755 0 0 1-1.865-.182l-.06-.009a29.63 29.63 0 0 0-.508 2.814l3.667.445c.868.106 1.735-.608 1.934-1.595.198-.986-.346-1.87-1.215-1.975l-3.692-.449-.096.383.046.006Z" fill="#384e8a" fill-rule="evenodd" data-name="Path 94950"/><path d="m126.735 212.45 3.737.455a30.17 30.17 0 0 1 .51-2.814 41.382 41.382 0 0 1-1.792-.26 22.001 22.001 0 0 1-1.827-.373 23.87 23.87 0 0 1 1.887.077c.61.044 1.215.11 1.82.179l.097-.383-3.713-.45c-.868-.107-1.733.606-1.932 1.593-.198.986.345 1.871 1.213 1.977" fill="#edf1f8" fill-rule="evenodd" data-name="Path 94951"/><path d="M132.906 210.282c.626.049 1.252.082 1.888.079a21.301 21.301 0 0 0-1.829-.374 40.183 40.183 0 0 0-1.848-.267l-.047-.006c-.03.126-.06.252-.088.377l.058.01c.62.07 1.241.138 1.866.181" fill="#5a689f" fill-rule="evenodd" data-name="Path 94952"/><path d="M129.25 209.535a24.112 24.112 0 0 0-1.887-.077c.603.154 1.215.27 1.827.373.594.103 1.193.184 1.791.26l.09-.377c-.606-.07-1.21-.135-1.82-.18" fill="#fff" fill-rule="evenodd" data-name="Path 94953"/><path d="m151.216 211.165-3.692-.448-1.663-.203-2.05-.249c-1.16-.14-2.32.808-2.582 2.116-.22 1.087.253 2.075 1.081 2.463.17.08.349.144.546.167l3.737.454 3.667.446h.136c1.114.055 2.194-.861 2.447-2.118a2.6 2.6 0 0 0 .024-.894c-.135-.913-.765-1.626-1.651-1.734m1.096 2.563c-.199.987-1.065 1.701-1.934 1.595l-3.667-.445-3.737-.454c-.868-.106-1.411-.99-1.213-1.977.2-.987 1.064-1.7 1.932-1.594l3.712.45 3.692.45c.869.105 1.414.99 1.215 1.975" fill="#c2cfdb" fill-rule="evenodd" data-name="Path 94954"/><path d="m151.097 211.752-3.691-.448c-.034.128-.064.256-.097.383l.047.006c.618.078 1.236.16 1.848.266.615.104 1.225.22 1.829.376a22.99 22.99 0 0 1-1.888-.079 42.195 42.195 0 0 1-1.866-.183l-.058-.009a30.25 30.25 0 0 0-.51 2.814l3.668.445c.868.106 1.734-.608 1.933-1.595.199-.986-.346-1.87-1.215-1.976" fill="#384e8a" fill-rule="evenodd" data-name="Path 94955"/><path d="M147.221 212.064a42.83 42.83 0 0 1-1.791-.26 22.195 22.195 0 0 1-1.828-.373c.635-.004 1.262.03 1.888.077.61.044 1.215.109 1.82.179.032-.127.063-.256.096-.383l-3.712-.451c-.868-.105-1.733.607-1.932 1.593-.199.987.344 1.872 1.213 1.978l3.737.454a29.59 29.59 0 0 1 .51-2.814" fill="#edf1f8" fill-rule="evenodd" data-name="Path 94956"/><path d="M147.28 212.073c.619.072 1.24.138 1.865.183.626.048 1.252.082 1.888.079a21.423 21.423 0 0 0-1.828-.376 40.471 40.471 0 0 0-1.849-.266l-.046-.006-.089.377.059.009Z" fill="#5a689f" fill-rule="evenodd" data-name="Path 94957"/><path d="M143.601 211.431c.604.155 1.214.27 1.829.374.593.101 1.191.183 1.79.26l.09-.378a42.62 42.62 0 0 0-1.82-.179 23.735 23.735 0 0 0-1.889-.077" fill="#fff" fill-rule="evenodd" data-name="Path 94958"/><path d="m124.714 222.489 3.737.453 3.667.445c1.16.141 2.32-.809 2.583-2.117.263-1.308-.467-2.487-1.628-2.627l-3.691-.45-3.713-.45c-1.16-.14-2.32.808-2.583 2.116-.263 1.308.467 2.489 1.628 2.63m-1.095-2.566c.198-.984 1.064-1.698 1.932-1.593l3.712.451 3.692.449c.869.105 1.413.99 1.215 1.975-.2.986-1.066 1.7-1.934 1.596l-3.667-.446-3.737-.455c-.869-.105-1.412-.99-1.213-1.977" fill="#c2cfdb" fill-rule="evenodd" data-name="Path 94959"/><path d="M129.213 219.17c.618.078 1.236.162 1.849.267.614.102 1.224.22 1.828.375a24.03 24.03 0 0 1-1.888-.077 44.288 44.288 0 0 1-1.866-.185l-.059-.007a30.677 30.677 0 0 0-.509 2.812l3.668.446c.868.105 1.734-.61 1.933-1.596.198-.984-.346-1.87-1.215-1.975l-3.691-.449-.097.384.047.005Z" fill="#384e8a" fill-rule="evenodd" data-name="Path 94960"/><path d="m124.832 221.901 3.737.455a30.554 30.554 0 0 1 .509-2.812 44.579 44.579 0 0 1-1.791-.262 22.095 22.095 0 0 1-1.827-.373c.634-.003 1.262.03 1.887.078.61.043 1.215.107 1.82.178l.096-.383-3.712-.452c-.868-.105-1.733.61-1.932 1.594-.199.986.344 1.872 1.213 1.977" fill="#edf1f8" fill-rule="evenodd" data-name="Path 94961"/><path d="M131.002 219.735c.626.046 1.253.08 1.889.077a22.107 22.107 0 0 0-1.829-.375 43.86 43.86 0 0 0-1.848-.267l-.047-.005-.089.379.059.006c.62.072 1.24.138 1.865.185" fill="#5a689f" fill-rule="evenodd" data-name="Path 94962"/><path d="M127.347 218.987a23.133 23.133 0 0 0-1.887-.078 22.2 22.2 0 0 0 1.827.372c.594.103 1.192.184 1.791.262.029-.126.058-.251.089-.378a38.365 38.365 0 0 0-1.82-.178" fill="#fff" fill-rule="evenodd" data-name="Path 94963"/><path d="M141.909 219.716c-1.162-.141-2.32.808-2.584 2.116-.263 1.308.467 2.488 1.628 2.63l2.213.268 1.524.186 3.667.445c1.16.141 2.32-.81 2.583-2.118.264-1.308-.467-2.487-1.628-2.628l-2.52-.307-1.172-.141-3.711-.451Zm7.285 1.486c.869.106 1.413.991 1.215 1.976-.199.987-1.065 1.7-1.934 1.596l-3.667-.446-3.737-.454c-.869-.105-1.411-.991-1.213-1.977.198-.985 1.063-1.7 1.932-1.594l3.712.45 3.692.45Z" fill="#c2cfdb" fill-rule="evenodd" data-name="Path 94964"/><path d="m145.406 221.137.046.006a45.38 45.38 0 0 1 1.849.267c.614.102 1.224.22 1.828.374a23.51 23.51 0 0 1-1.888-.076 45.045 45.045 0 0 1-1.866-.185l-.058-.007a29.276 29.276 0 0 0-.509 2.812l3.667.446c.868.105 1.735-.609 1.934-1.596.198-.985-.346-1.87-1.215-1.975l-3.692-.449c-.034.128-.064.255-.096.383" fill="#384e8a" fill-rule="evenodd" data-name="Path 94965"/><path d="M145.317 221.516a43.992 43.992 0 0 1-1.79-.262 21.812 21.812 0 0 1-1.83-.373 22.93 22.93 0 0 1 1.888.079c.611.042 1.216.107 1.82.177l.097-.383-3.712-.451c-.868-.106-1.733.609-1.931 1.594-.2.986.343 1.872 1.212 1.977l3.737.454a29.414 29.414 0 0 1 .509-2.812" fill="#edf1f8" fill-rule="evenodd" data-name="Path 94966"/><path d="M145.377 221.523c.619.072 1.24.139 1.865.185.625.045 1.252.08 1.888.076a22.187 22.187 0 0 0-1.828-.374 44.98 44.98 0 0 0-1.849-.267l-.046-.006c-.03.128-.061.252-.09.379l.06.007Z" fill="#5a689f" fill-rule="evenodd" data-name="Path 94967"/><path d="M141.698 220.881c.604.155 1.214.27 1.828.373.594.102 1.192.184 1.79.262l.09-.379c-.605-.07-1.21-.134-1.82-.177a22.946 22.946 0 0 0-1.888-.079" fill="#fff" fill-rule="evenodd" data-name="Path 94968"/><path d="m127.478 227.645-3.712-.452c-1.161-.141-2.32.81-2.584 2.118-.263 1.309.468 2.486 1.628 2.628l3.737.454 1.251.152 2.416.293c1.16.141 2.32-.807 2.583-2.116.245-1.217-.374-2.31-1.395-2.573-.076-.02-.15-.046-.232-.057l-3.692-.447Zm3.574 1.036c.868.105 1.413.99 1.214 1.977-.199.985-1.065 1.698-1.933 1.593l-3.668-.445-3.737-.455c-.868-.105-1.411-.99-1.213-1.975.2-.986 1.064-1.7 1.933-1.595l3.712.45 3.692.45Z" fill="#c2cfdb" fill-rule="evenodd" data-name="Path 94969"/><path d="m127.263 228.614.046.007c.618.078 1.236.162 1.849.266.614.104 1.224.22 1.828.375a23.68 23.68 0 0 1-1.888-.077 46.73 46.73 0 0 1-1.865-.184l-.06-.008a30.468 30.468 0 0 0-.509 2.812l3.668.446c.869.106 1.735-.608 1.933-1.593.199-.987-.346-1.872-1.214-1.978l-3.692-.448-.096.382" fill="#384e8a" fill-rule="evenodd" data-name="Path 94970"/><path d="M127.175 228.993a40.37 40.37 0 0 1-1.79-.26 22.027 22.027 0 0 1-1.828-.374 22.9 22.9 0 0 1 1.886.078c.61.043 1.215.11 1.82.177l.097-.382-3.712-.451c-.869-.106-1.734.609-1.932 1.595-.199.985.344 1.87 1.213 1.975l3.737.455a30.633 30.633 0 0 1 .509-2.813" fill="#edf1f8" fill-rule="evenodd" data-name="Path 94971"/><path d="M127.234 229.001c.619.07 1.24.138 1.865.184.626.046 1.252.08 1.888.077a22.735 22.735 0 0 0-1.828-.375 43.477 43.477 0 0 0-1.849-.266l-.046-.007-.09.379.06.008Z" fill="#5a689f" fill-rule="evenodd" data-name="Path 94972"/><path d="M123.556 228.36c.603.153 1.215.27 1.827.372.594.104 1.193.184 1.791.26l.089-.378a44.08 44.08 0 0 0-1.82-.177 22.9 22.9 0 0 0-1.887-.078" fill="#fff" fill-rule="evenodd" data-name="Path 94973"/><path d="M137.423 231.284c-.036.175-.05.346-.052.515-.006 1.09.674 1.99 1.68 2.113l3.736.454 3.667.445c1.161.141 2.32-.807 2.583-2.116.264-1.308-.466-2.488-1.627-2.63l-3.692-.448-3.712-.451a1.947 1.947 0 0 0-.482.007c-.984.128-1.875.985-2.101 2.11m2.465-1.53 3.712.451 3.692.45c.868.104 1.413.99 1.214 1.976-.198.985-1.065 1.7-1.933 1.594l-3.667-.446-3.738-.453c-.868-.106-1.41-.991-1.213-1.976.2-.987 1.064-1.701 1.933-1.596" fill="#c2cfdb" fill-rule="evenodd" data-name="Path 94974"/><path d="M143.549 230.593c.617.079 1.236.162 1.849.267.614.105 1.224.22 1.828.374-.636.004-1.263-.03-1.888-.076a45.093 45.093 0 0 1-1.866-.184l-.059-.008a29.39 29.39 0 0 0-.509 2.812l3.667.445c.869.107 1.735-.608 1.934-1.593.198-.985-.346-1.872-1.215-1.977l-3.691-.449c-.035.13-.065.257-.097.384l.047.005Z" fill="#384e8a" fill-rule="evenodd" data-name="Path 94975"/><path d="M137.955 231.35c-.198.984.345 1.87 1.213 1.975l3.737.453a29.206 29.206 0 0 1 .51-2.812 43.023 43.023 0 0 1-1.792-.26 22.163 22.163 0 0 1-1.829-.374c.637-.004 1.263.03 1.889.079.61.041 1.215.108 1.82.177.032-.127.062-.254.096-.384l-3.712-.45c-.869-.106-1.733.608-1.932 1.595" fill="#edf1f8" fill-rule="evenodd" data-name="Path 94976"/><path d="M145.338 231.158c.626.046 1.253.08 1.889.076a23.205 23.205 0 0 0-1.829-.374 42.66 42.66 0 0 0-1.848-.267l-.047-.005-.089.378.059.007c.62.072 1.241.139 1.865.185" fill="#5a689f" fill-rule="evenodd" data-name="Path 94977"/><path d="M141.682 230.41a22.994 22.994 0 0 0-1.888-.078c.604.154 1.214.27 1.829.373.593.103 1.192.183 1.79.261l.09-.378a41.35 41.35 0 0 0-1.82-.178" fill="#fff" fill-rule="evenodd" data-name="Path 94978"/><path d="m129.266 237.542-3.692-.448-1.37-.166-2.342-.285c-1.16-.141-2.32.81-2.583 2.118-.24 1.19.346 2.263 1.327 2.555.098.03.195.06.3.073l3.737.454 3.668.445c.154.019.308.016.46-.002.993-.118 1.894-.98 2.123-2.113.036-.183.05-.361.05-.536-.003-1.08-.679-1.973-1.678-2.095m-.837 4.159-3.667-.445-3.738-.455c-.868-.105-1.411-.989-1.212-1.975.198-.986 1.063-1.7 1.932-1.595l3.712.451 3.692.448c.868.106 1.413.991 1.214 1.978-.198.986-1.065 1.699-1.933 1.593" fill="#c2cfdb" fill-rule="evenodd" data-name="Path 94979"/><path d="m129.15 238.13-3.693-.448-.096.385.046.003c.618.08 1.236.163 1.849.27.614.101 1.225.218 1.829.372-.636.003-1.263-.029-1.889-.077a43.308 43.308 0 0 1-1.865-.185l-.059-.006a30.33 30.33 0 0 0-.51 2.812l3.668.445c.869.106 1.735-.607 1.933-1.593.199-.987-.345-1.872-1.214-1.978" fill="#384e8a" fill-rule="evenodd" data-name="Path 94980"/><path d="M125.272 238.444c-.6-.077-1.198-.158-1.792-.26a22.802 22.802 0 0 1-1.827-.375 23.29 23.29 0 0 1 1.887.078c.61.045 1.215.11 1.82.18l.096-.385-3.711-.451c-.87-.106-1.734.609-1.933 1.595-.198.986.345 1.87 1.213 1.975l3.737.455a30.118 30.118 0 0 1 .51-2.812" fill="#edf1f8" fill-rule="evenodd" data-name="Path 94981"/><path d="M125.33 238.45c.619.072 1.24.14 1.865.186.626.047 1.253.08 1.889.076a22.066 22.066 0 0 0-1.83-.373 41.03 41.03 0 0 0-1.848-.269l-.046-.003-.089.377.059.006Z" fill="#5a689f" fill-rule="evenodd" data-name="Path 94982"/><path d="M121.653 237.81c.602.153 1.214.27 1.827.374.594.102 1.192.184 1.791.26.028-.125.058-.251.089-.377-.606-.07-1.21-.135-1.82-.18a23.224 23.224 0 0 0-1.887-.078" fill="#fff" fill-rule="evenodd" data-name="Path 94983"/><path d="m140.883 243.816 3.667.445c1.16.141 2.32-.807 2.583-2.116.263-1.308-.467-2.488-1.627-2.63l-3.692-.448-3.712-.45c-1.161-.142-2.32.809-2.584 2.117-.263 1.308.467 2.487 1.628 2.628l3.737.454Zm-4.832-3.017c.199-.987 1.064-1.701 1.932-1.596l3.712.451 3.692.45c.869.104 1.413.99 1.215 1.976-.199.987-1.065 1.7-1.934 1.594l-3.667-.446-3.737-.454c-.868-.105-1.412-.99-1.213-1.975" fill="#c2cfdb" fill-rule="evenodd" data-name="Path 94984"/><path d="M141.646 240.043c.617.079 1.236.163 1.848.269.614.102 1.224.219 1.829.372-.636.004-1.263-.029-1.889-.076a41.806 41.806 0 0 1-1.865-.185l-.059-.007a29.48 29.48 0 0 0-.51 2.812l3.668.446c.869.105 1.735-.607 1.934-1.594.198-.986-.346-1.871-1.215-1.977l-3.692-.448c-.034.129-.064.256-.096.384l.047.004Z" fill="#384e8a" fill-rule="evenodd" data-name="Path 94985"/><path d="M141.002 243.229a29.342 29.342 0 0 1 .51-2.812c-.6-.077-1.198-.158-1.791-.26a22.672 22.672 0 0 1-1.829-.375 22.94 22.94 0 0 1 1.888.079c.61.044 1.215.109 1.82.179.032-.128.063-.256.097-.385l-3.713-.452c-.868-.105-1.733.61-1.931 1.596-.2.986.344 1.87 1.212 1.975l3.737.455Z" fill="#edf1f8" fill-rule="evenodd" data-name="Path 94986"/><path d="M143.435 240.608c.625.048 1.252.08 1.888.077a22.175 22.175 0 0 0-1.829-.373c-.612-.106-1.23-.19-1.848-.269l-.047-.003c-.03.126-.06.252-.088.377l.059.007c.619.071 1.24.14 1.865.184" fill="#5a689f" fill-rule="evenodd" data-name="Path 94987"/><path d="M139.78 239.86a22.726 22.726 0 0 0-1.889-.078c.604.153 1.214.27 1.829.374.593.102 1.191.184 1.79.26l.089-.377c-.605-.07-1.21-.134-1.82-.178" fill="#fff" fill-rule="evenodd" data-name="Path 94988"/><path d="M119.959 246.093c-1.161-.14-2.32.81-2.584 2.118-.263 1.308.467 2.487 1.628 2.628l2.506.304 1.23.15 3.668.445c1.16.141 2.32-.807 2.583-2.116.264-1.308-.467-2.488-1.627-2.63l-2.229-.27-1.463-.178-3.712-.45Zm7.285 1.488c.869.105 1.413.99 1.215 1.977-.199.986-1.065 1.7-1.934 1.595l-3.667-.446-3.737-.454c-.869-.105-1.412-.99-1.212-1.977.198-.987 1.063-1.7 1.931-1.595l3.713.45 3.691.45Z" fill="#c2cfdb" fill-rule="evenodd" data-name="Path 94989"/><path d="m123.456 247.516.047.004a42.98 42.98 0 0 1 1.848.269c.615.103 1.225.219 1.83.373a22.111 22.111 0 0 1-1.89-.077 41.98 41.98 0 0 1-1.864-.184l-.06-.008a30.686 30.686 0 0 0-.51 2.814l3.668.446c.869.106 1.735-.609 1.934-1.595.199-.986-.346-1.872-1.214-1.977l-3.692-.449-.097.384" fill="#384e8a" fill-rule="evenodd" data-name="Path 94990"/><path d="M123.189 248.726c.054-.273.114-.55.18-.833-.6-.075-1.198-.157-1.791-.259a23.162 23.162 0 0 1-1.828-.374c.635-.004 1.263.03 1.887.078.61.044 1.215.109 1.82.178l.097-.384-3.712-.45c-.87-.106-1.734.607-1.932 1.594-.2.987.344 1.872 1.212 1.978l3.737.454c.082-.619.19-1.284.33-1.982" fill="#edf1f8" fill-rule="evenodd" data-name="Path 94991"/><path d="M123.427 247.9c.619.072 1.24.14 1.865.185.625.049 1.252.082 1.888.077a22.053 22.053 0 0 0-1.828-.373c-.613-.106-1.23-.19-1.848-.268l-.048-.004-.088.377.059.007Z" fill="#5a689f" fill-rule="evenodd" data-name="Path 94992"/><path d="M119.75 247.26c.603.153 1.214.27 1.827.374.594.102 1.192.184 1.791.26.028-.125.059-.25.089-.378-.605-.069-1.21-.134-1.82-.178a22.92 22.92 0 0 0-1.887-.078" fill="#fff" fill-rule="evenodd" data-name="Path 94993"/><path d="m143.602 248.966-3.692-.448-3.712-.451c-1.16-.142-2.32.81-2.583 2.117-.264 1.309.467 2.487 1.627 2.628l3.737.454 3.667.446c.884.107 1.764-.42 2.251-1.254-.092-.08-.164-.144-.192-.17a.53.53 0 0 1-.155-.31c-.332.743-1.056 1.236-1.786 1.148l-3.666-.446-3.738-.453c-.868-.107-1.41-.992-1.212-1.978.198-.986 1.063-1.7 1.932-1.595l3.712.45 3.692.45c.742.09 1.243.75 1.25 1.555a4.43 4.43 0 0 1 .445-.725c-.22-.756-.797-1.323-1.577-1.418" fill="#c2cfdb" fill-rule="evenodd" data-name="Path 94994"/><path d="m143.485 249.554-3.693-.45-.096.386.047.004a40.66 40.66 0 0 1 1.848.268c.615.103 1.224.22 1.829.373a22.124 22.124 0 0 1-1.889-.076 42.168 42.168 0 0 1-1.865-.185l-.059-.007a30.224 30.224 0 0 0-.509 2.813l3.667.446c.73.088 1.453-.405 1.785-1.149-.043-.238.03-.54.185-.867-.008-.806-.509-1.466-1.25-1.556" fill="#384e8a" fill-rule="evenodd" data-name="Path 94995"/><path d="M139.427 250.699c.055-.273.115-.55.18-.832a42.329 42.329 0 0 1-1.79-.26 22.977 22.977 0 0 1-1.83-.375c.637-.003 1.263.03 1.89.079.61.043 1.214.109 1.819.179l.096-.385-3.712-.451c-.868-.106-1.733.609-1.932 1.595-.199.986.345 1.871 1.213 1.978l3.737.453c.081-.618.188-1.284.33-1.981" fill="#edf1f8" fill-rule="evenodd" data-name="Path 94996"/><path d="M139.666 249.874c.62.072 1.24.14 1.865.184.626.048 1.253.083 1.889.077a22.416 22.416 0 0 0-1.83-.373 40.61 40.61 0 0 0-1.847-.268l-.047-.004-.089.377.06.007Z" fill="#5a689f" fill-rule="evenodd" data-name="Path 94997"/><path d="M135.988 249.232c.604.154 1.214.27 1.828.375.594.102 1.192.183 1.791.26l.089-.377c-.605-.07-1.21-.136-1.82-.18a22.939 22.939 0 0 0-1.888-.078" fill="#fff" fill-rule="evenodd" data-name="Path 94998"/><path d="M156.514 255.114" fill="#e1e9f2" fill-rule="evenodd" data-name="Path 95017"/><path d="M156.192 254.915a73.69 73.69 0 0 0 0 0" fill="#e1e9f2" fill-rule="evenodd" data-name="Path 95018"/><path d="M155.245 254.323" fill="#e1e9f2" fill-rule="evenodd" data-name="Path 95019"/><path d="M153.673 253.299" fill="#e1e9f2" fill-rule="evenodd" data-name="Path 95020"/><path d="M153.53 253.201" fill="#e1e9f2" fill-rule="evenodd" data-name="Path 95022"/><path d="M152.75 252.67a80.788 80.788 0 0 1-.687-.479c.22.157.45.316.687.48" fill="#e1e9f2" fill-rule="evenodd" data-name="Path 95023"/></g><g data-name="Group 47861"><g data-name="Group 47859"><path d="M202.025 245.204" fill="#fff" fill-rule="evenodd" data-name="Path 94833"/><path d="M202.5 245.804" fill="#fff" fill-rule="evenodd" data-name="Path 94834"/><path d="M202.978 246.27" fill="#fff" fill-rule="evenodd" data-name="Path 94835"/><path d="M201.752 244.708" fill="#fff" fill-rule="evenodd" data-name="Path 94836"/><path d="M203.973 246.993a8.01 8.01 0 0 1-.463-.303c.147.106.312.204.474.303h-.01Z" fill="#fff" fill-rule="evenodd" data-name="Path 94837"/><path d="M201.553 244.17" fill="#fff" fill-rule="evenodd" data-name="Path 94838"/><path d="m197.908 258.528.039-.05-.029.039-.01.011Z" fill="#fff" fill-rule="evenodd" data-name="Path 94841"/><path d="M206.88 248.201" fill="#fff" fill-rule="evenodd" data-name="Path 94842"/><path d="m198.29 258.2.044-.02-.044.02Z" fill="#fff" fill-rule="evenodd" data-name="Path 94843"/><path d="m198.134 258.288-.014.01.014-.01Z" fill="#fff" fill-rule="evenodd" data-name="Path 94844"/><path d="m197.558 261.108.006.01-.007-.01c-.265-.556-.183-1.59.183-2.309l.005-.008-.005.009c-.366.719-.448 1.752-.182 2.308" fill="#fff" fill-rule="evenodd" data-name="Path 94845"/><path d="M205.032 247.545" fill="#fff" fill-rule="evenodd" data-name="Path 94850"/><path d="M205.794 247.86" fill="#fff" fill-rule="evenodd" data-name="Path 94851"/><path d="M207.824 248.431" fill="#fff" fill-rule="evenodd" data-name="Path 94852"/><path d="m197.75 261.355-.04-.032.016.012.023.02Z" fill="#fff" fill-rule="evenodd" data-name="Path 94853"/><path d="M153.297 239.904" fill="#e1e9f2" fill-rule="evenodd" data-name="Path 95002"/><path d="M154.222 239.44c.18-.092.359-.183.535-.276-.176.093-.355.184-.535.277" fill="#e1e9f2" fill-rule="evenodd" data-name="Path 95003"/><path d="M151.344 240.816" fill="#e1e9f2" fill-rule="evenodd" data-name="Path 95004"/><path d="M150.32 241.257" fill="#e1e9f2" fill-rule="evenodd" data-name="Path 95005"/><path d="M149.266 241.687" fill="#e1e9f2" fill-rule="evenodd" data-name="Path 95006"/><path d="M152.334 240.364" fill="#e1e9f2" fill-rule="evenodd" data-name="Path 95007"/><path d="M148.815 241.864" fill="#e1e9f2" fill-rule="evenodd" data-name="Path 95008"/><path d="M142.346 243.864" fill="#e1e9f2" fill-rule="evenodd" data-name="Path 95009"/><path d="M143.563 243.561" fill="#e1e9f2" fill-rule="evenodd" data-name="Path 95010"/><path d="M144.758 243.231" fill="#e1e9f2" fill-rule="evenodd" data-name="Path 95011"/><path d="M145.924 242.877" fill="#e1e9f2" fill-rule="evenodd" data-name="Path 95012"/><path d="M147.065 242.5c.22-.076.44-.152.657-.23-.217.078-.437.154-.657.23" fill="#e1e9f2" fill-rule="evenodd" data-name="Path 95013"/><path d="M144.623 246.467v-.002c.923-1.81 2.08-2.68 3.069-2.5.134.027.545.11.945.37.285.183.482.36.709.63.042.05.084.098.13.156l.047.067c.157.215.334.528.493.915l-1.408-.145c-.569-.058-1.204.354-1.768 1.186l-.006-.001-.042.071a5.746 5.746 0 0 0-.256.431l-.036.06-.043.082-.014.031c-.14.277-.262.571-.371.874l-.026.06.006.001a9.979 9.979 0 0 0-.556 3.143l-.008-.001.003.156c0 .073.002.143.004.214.007.21.021.413.044.611l.013.14.003.03c.032.235.077.461.133.674h.001c.066.246.146.476.244.682.258.538.596.851.972.95l.666.173.444.116.262.069c-.219.238-.467.47-.756.668a3.266 3.266 0 0 1-1.039.478c-.528.126-.85.08-1.135.042-.56-.102-1.065-.539-1.444-1.33l-.053-.13c-.37-.838-.553-1.925-.559-3.107-.01-1.827.4-3.87 1.182-5.546.05-.106.097-.214.15-.318m-.772 4.32c-.035.27-.064.54-.094.812l-.02.408c-.003.137-.017.272-.012.41.008.272.004.546.04.818l.02.204c.006.067.013.136.027.203l.07.404c.032.134.069.265.103.398.034.132.086.26.128.389.046.129.108.252.162.377.03.061.064.12.096.181.032.06.064.12.103.177.144.231.316.448.53.615a2.498 2.498 0 0 1-.459-.656c-.033-.058-.058-.12-.086-.18-.026-.062-.055-.122-.08-.183-.042-.127-.094-.25-.128-.377a6.362 6.362 0 0 1-.257-1.57c-.058-1.062.071-2.13.286-3.176l.178-.781c.065-.26.146-.513.216-.77.037-.129.085-.253.126-.38.045-.125.084-.253.133-.377l.152-.369c.025-.061.049-.124.076-.185l.087-.18c.223-.482.497-.942.827-1.359l.06-.079.067-.074.132-.15.14-.142.147-.136.152-.13.162-.118c.112-.073.225-.147.351-.196-.259.077-.499.217-.717.38-.057.038-.107.084-.16.127l-.155.134-.147.143-.074.071-.068.077a6.268 6.268 0 0 0-.923 1.35c-.515.967-.824 2.024-1.05 3.085l-.14.804Z" fill="#e1e9f2" fill-rule="evenodd" data-name="Path 95152"/><path d="M158.631 256.058c.018.642.085 1.252.19 1.827l-7.046-1.274a4.456 4.456 0 0 1-.43-.1h.002l-2.221-.58-.444-.116-.404-.106-.262-.068-.445-.116-.666-.174c-.376-.098-.714-.411-.972-.95a3.937 3.937 0 0 1-.243-.68l12.941 2.337Z" fill="#f3f6fa" fill-rule="evenodd" data-name="Path 95153"/><path d="M159.25 251.138a17.519 17.519 0 0 0-.565 3.143l-13.19-2.385a9.987 9.987 0 0 1 .557-3.143l13.197 2.385Zm-13.4.426 12.949-.023-12.407-2.392s-.711 1.208-.543 2.415" fill="#f3f6fa" fill-rule="evenodd" data-name="Path 95154"/><path d="M153.173 246.427c.067.006.135.012.202.02.078.01.156.022.234.036h.002l5.509.996 1.532.278c-.121.202-.241.408-.356.634-.179.352-.344.718-.495 1.096l-12.961-2.343c.564-.832 1.2-1.244 1.768-1.186l1.408.144 3.158.325h-.001Z" fill="#f3f6fa" fill-rule="evenodd" data-name="Path 95155"/><path d="m153.61 246.483-.108-.02.109.02Z" fill="#f3f6fa" fill-rule="evenodd" data-name="Path 95156"/><path d="m145.539 252.876.014.14-.014-.14Z" fill="#f3f6fa" fill-rule="evenodd" data-name="Path 95157"/><path d="M145.491 252.051" fill="#f3f6fa" fill-rule="evenodd" data-name="Path 95158"/><path d="M146.444 247.818" fill="#f3f6fa" fill-rule="evenodd" data-name="Path 95159"/><path d="M146.792 247.214" fill="#f3f6fa" fill-rule="evenodd" data-name="Path 95160"/><path d="m145.966 245.546.068-.076.073-.071.147-.143.155-.134c.054-.043.104-.09.16-.127.218-.163.459-.303.718-.38-.127.048-.24.123-.351.196l-.162.118-.153.13-.146.136-.14.141-.133.15-.066.075-.06.08c-.331.416-.605.876-.828 1.359l-.087.18c-.027.06-.05.123-.076.184l-.152.369c-.049.124-.088.252-.132.377-.042.127-.09.251-.127.379-.07.258-.151.512-.216.77l-.178.782c-.214 1.046-.343 2.114-.285 3.176.024.53.1 1.06.256 1.57.034.127.086.25.129.376.024.062.053.122.08.183.027.06.052.123.086.18.12.238.266.467.458.657a2.315 2.315 0 0 1-.53-.615c-.039-.057-.07-.117-.103-.177-.032-.06-.066-.12-.096-.181-.053-.125-.116-.248-.161-.377-.043-.13-.095-.257-.13-.39-.033-.132-.07-.264-.101-.397l-.071-.405a1.801 1.801 0 0 1-.027-.203l-.02-.204c-.036-.272-.032-.545-.04-.818-.004-.137.01-.272.013-.41l.02-.408c.03-.27.059-.542.094-.812l.14-.804c.226-1.061.535-2.118 1.05-3.085.248-.487.558-.944.924-1.35" fill="#c2cfdb" fill-rule="evenodd" data-name="Path 95161"/><path d="M158.685 254.28c-.032.38-.052.755-.058 1.125l-13.139-3.51.008.001 13.189 2.384Z" fill="#cce0ee" fill-rule="evenodd" data-name="Path 95162"/><path d="M159.583 250.07c-.123.349-.235.705-.334 1.068l-13.196-2.385-.006-.001 13.536 1.317Z" fill="#cce0ee" fill-rule="evenodd" data-name="Path 95163"/><path d="m158.626 255.405-13.07-2.36-.004-.028-.013-.14a7.475 7.475 0 0 1-.048-.825l-.003-.157 13.138 3.51Z" fill="#b1cedf" fill-rule="evenodd" data-name="Path 95164"/><path d="m159.583 250.07-13.536-1.318.025-.06c.11-.304.232-.597.372-.874l.013-.032.043-.08 13.083 2.363Z" fill="#b1cedf" fill-rule="evenodd" data-name="Path 95165"/><path d="M158.627 255.405c-.004.22-.002.439.004.653l-12.941-2.338h-.001a5.561 5.561 0 0 1-.133-.675l13.07 2.36Z" fill="#e1e9f2" fill-rule="evenodd" data-name="Path 95166"/><path d="M159.801 249.487c-.077.19-.149.385-.218.582l-13.083-2.364.036-.06c.083-.154.169-.298.256-.43l.043-.072h.005l12.961 2.344Z" fill="#e1e9f2" fill-rule="evenodd" data-name="Path 95167"/><path d="M158.626 255.405a17.507 17.507 0 0 1 .957-5.336 13.296 13.296 0 0 1 .712-1.678 10.973 10.973 0 0 1 .649-1.09c1.02-1.509 2.174-2.222 3.189-2.038.171.035.691.14 1.197.466.477.31.74.588 1.058.993.146.187.312.45.474.776.114.23.226.49.328.777l23.33 4.24 2.72.495h.007a4.175 4.175 0 0 1 2.146 1.088c.32.301.573.665.671.832.214.365.32.597.433.922l.014.044.08.244.002.007.503 1.763.253.045 1.151.208.005.002.013.001h-.006l.047.017-.08-.014-.112.01-.079.022-.154.086-.014.01a1.15 1.15 0 0 0-.174.181l-.038.05.01-.012-.014.019a1.9 1.9 0 0 0-.159.256l-.005.008c-.366.72-.448 1.753-.183 2.309l.007.01-.006-.01.01.015c.042.083.09.15.142.2l.04.032-.024-.02.038.028.13.066.09.015-.078-.009.017.009-1.251-.226-.168-.03-1.094 1.479-.004.006-.067.085-.001.002-.04.05-.042.052-.021.028-.015.014a4.329 4.329 0 0 1-1.628 1.248c-1.007.419-1.786.374-2.415.275l-.008-.002-2.37-.431-23.674-4.302a5.79 5.79 0 0 1-1.178 1.093c-.243.166-.737.465-1.31.6-.327.08-.54.097-.64.1-.364.013-.43.004-.797-.047-.7-.126-1.332-.673-1.806-1.663-.26-.545-.447-1.19-.574-1.89a12.13 12.13 0 0 1-.19-1.827 15.423 15.423 0 0 1-.004-.653m39.708 2.776-.044.019.044-.02Zm-36.288.01c.046.095.095.185.145.27l.018.032.002.002.148.027.25.044 6.734 1.218.048.01-.224.049 19.554 3.552 2.195.4.007.002c1.462.228 2.812-.319 3.766-1.444.486-.575.994-1.274 1.25-1.988.192-.535.318-1.049.41-1.612.126-.77.018-1.577-.194-2.328-.12-.423-.248-.856-.459-1.245-.208-.382-.558-.649-.871-.943l-.06-.053-5.24 1.158c.018-.056.032-.114.05-.17.093-.281.183-.563.29-.84.052-.14.106-.277.163-.414.058-.137.108-.277.176-.409.13-.268.254-.538.376-.814-.169.247-.333.499-.493.754a7.365 7.365 0 0 0-.425.797c-.185.377-.33.772-.467 1.17l-3.29.727.061-.276c.034-.144.076-.285.113-.428.08-.284.145-.575.24-.855.092-.28.182-.563.288-.84.052-.139.107-.277.164-.414.053-.125.102-.252.161-.374l2.136-.472-1.77-.322.024-.054-.034.052-3.246-.59.023-.05-.032.049-3.247-.59.022-.047-.03.045-3.247-.59.02-.043-.028.042-3.248-.59.018-.04-.024.038-3.25-.59.017-.035-.022.034-3.25-.59.015-.032-.02.03-2.41-.438a1.156 1.156 0 0 0-.574.049 1.904 1.904 0 0 0-.434.224l-.322-.059-.021.02a3.303 3.303 0 0 0-.28.258l-.09.091c-.095.103-.19.213-.284.335l-.066.092c-.05.067-.099.133-.147.205l-.076.12-.098.156a7.62 7.62 0 0 0-.201.356h-.001l-.073.135a8.79 8.79 0 0 0-.206.436l-.006.013c-.06.136-.116.275-.17.416l-.037.09-.004.009c-.056.15-.11.304-.16.46l-.024.068c-.037.116-.07.234-.103.351l-.03.103c-.079.288-.147.582-.205.877l-.016.07-.011.07c-.049.262-.09.525-.121.786l-.007.067c-.03.256-.05.51-.062.762l-.005.057V254.803l-.002.054-.005.143-.002.064v.03a12.2 12.2 0 0 0-.001.247v.068l.003.119.002.088.001.05c.003.078.007.156.012.233l.002.027v.015c.015.21.037.414.065.614l.003.03v.004l.001.005.022.124c.015.097.031.193.05.286.012.058.026.113.039.17.02.085.039.171.062.254.02.07.042.136.064.205.02.063.04.13.062.19.047.129.098.252.153.368m-2.64-.178c.042.173.09.345.134.516.044.172.111.339.167.507.059.168.14.327.21.49.038.08.083.157.124.235.042.078.084.157.135.23.186.3.41.582.688.799a3.235 3.235 0 0 1-.596-.852c-.043-.075-.076-.156-.112-.235-.034-.08-.072-.157-.103-.237-.056-.165-.123-.324-.168-.49a8.285 8.285 0 0 1-.333-2.04c-.075-1.38.092-2.769.372-4.128l.231-1.015c.084-.337.19-.667.28-1.001.048-.167.11-.329.165-.493.057-.163.109-.33.172-.49l.198-.48c.032-.08.063-.16.098-.24l.113-.233a8.725 8.725 0 0 1 1.075-1.767l.079-.103.086-.097.172-.195c.056-.066.122-.121.183-.183.063-.06.121-.124.19-.178l.198-.168.21-.154c.146-.095.292-.192.457-.255a3.032 3.032 0 0 0-.932.495c-.075.048-.14.109-.209.164-.066.059-.14.111-.201.175l-.191.185-.096.093-.088.1a8.105 8.105 0 0 0-1.2 1.754c-.67 1.256-1.071 2.63-1.366 4.01l-.182 1.045c-.045.35-.084.703-.122 1.054l-.025.532c-.005.178-.023.354-.016.532.01.354.004.71.05 1.063l.027.265c.007.088.017.177.035.264l.092.526Z" fill="#e1e9f2" fill-rule="evenodd" data-name="Path 95168"/><path d="m198.716 258.276-.098-.071.098.071Z" fill="#e1e9f2" fill-rule="evenodd" data-name="Path 95169"/><path d="M198.884 258.503" fill="#e1e9f2" fill-rule="evenodd" data-name="Path 95170"/><path d="m198.524 261.094.044-.059-.044.06Z" fill="#e1e9f2" fill-rule="evenodd" data-name="Path 95171"/><path d="m198.374 261.265.053-.053-.053.053Z" fill="#e1e9f2" fill-rule="evenodd" data-name="Path 95172"/><path d="M197.913 261.31c-.091-.03-.174-.12-.24-.258-.25-.523-.169-1.507.181-2.194.134-.263.294-.45.45-.53a.286.286 0 0 1 .225-.027c.091.03.174.12.24.257.25.523.169 1.508-.181 2.195-.134.262-.294.45-.45.53a.286.286 0 0 1-.225.027" fill="#e1e9f2" fill-rule="evenodd" data-name="Path 95173"/><path d="m198.226 261.377.053-.035-.053.035Z" fill="#e1e9f2" fill-rule="evenodd" data-name="Path 95174"/><path d="m198.048 261.44.106-.031-.106.031Z" fill="#e1e9f2" fill-rule="evenodd" data-name="Path 95175"/><path d="m197.764 261.363-.038-.028-.016-.012a.746.746 0 0 1-.142-.2l-.01-.016c-.266-.555-.184-1.588.182-2.307l.005-.01c.05-.097.104-.18.159-.255l.014-.019.028-.038c.057-.07.115-.134.174-.18l.014-.01.154-.087.08-.023.11-.009.08.014.06.022.098.072.045.04a.79.79 0 0 1 .123.186c.265.555.183 1.589-.183 2.307a2.017 2.017 0 0 1-.133.225l-.044.059-.097.118-.053.053-.095.077-.053.035-.03.02-.042.012-.106.03-.065.005-.09-.015-.129-.066Zm.823-.61c.35-.687.432-1.672.182-2.195-.066-.137-.149-.227-.24-.258a.285.285 0 0 0-.226.028c-.155.08-.315.267-.449.53-.35.687-.431 1.671-.181 2.194.066.138.148.227.24.258a.286.286 0 0 0 .225-.027c.156-.08.315-.268.45-.53" fill="#f3f6fa" fill-rule="evenodd" data-name="Path 95176"/><path d="m179.211 257.603.065-.142c.233-.573.33-1.193.342-1.81a6.42 6.42 0 0 0-.046-.834h.004c-.007-.059-.013-.117-.022-.175l-.009-.053 3.266-.722c-.11.295-.21.593-.308.892-.201.57-.34 1.159-.46 1.75-.035.168-.059.338-.086.507l-2.754.608.012-.022-.004.001Z" fill="#e1e9f2" fill-rule="evenodd" data-name="Path 95177"/><path d="m182.613 255.712.096-.433c.034-.144.075-.285.113-.428.08-.284.146-.574.24-.854.021-.067.046-.134.068-.2l3.623-.802c-.127.216-.24.438-.348.663-.265.542-.458 1.115-.645 1.689-.102.291-.188.587-.264.886l-3.09.683c.016-.11.029-.222.046-.333.046-.291.1-.582.161-.87" fill="#e1e9f2" fill-rule="evenodd" data-name="Path 95178"/><path d="M174.478 260.713c.206.032.43.058.677.059.164 0 .338-.012.523-.04a3.88 3.88 0 0 0 .908-.259c.432-.18.783-.466.916-.574.165-.134.327-.29.484-.458l.032-.033a6.6 6.6 0 0 0 .43-.521l.045-.057c.132-.181.255-.368.368-.557l.042-.07c.11-.187.206-.374.29-.559l.01-.02 2.754-.608c-.07.427-.129.857-.167 1.29l.461.035c.03-.477.088-.952.155-1.425l3.09-.683a15.983 15.983 0 0 0-.448 2.66l.46.035c.038-.588.112-1.174.201-1.757.047-.291.1-.582.162-.87l.035-.158 3.29-.727c-.06.172-.122.345-.178.518-.201.57-.34 1.16-.46 1.751-.122.593-.2 1.193-.253 1.796l.46.035c.038-.588.112-1.174.202-1.757.046-.292.1-.582.161-.871l.096-.433c.034-.144.075-.285.113-.428.064-.228.122-.458.19-.685l5.24-1.157.058.053c.314.294.664.56.871.943.211.388.34.82.46 1.245.21.75.32 1.557.193 2.327a8.936 8.936 0 0 1-.41 1.612c-.256.714-.763 1.413-1.25 1.988-.953 1.125-2.304 1.672-3.766 1.444l-.007-.003-2.194-.398-19.555-3.553.224-.05 3.69.667 1.397.253Z" fill="#c2cfdb" fill-rule="evenodd" data-name="Path 95179"/><path d="m187.297 252.162 1.772.322-2.137.472.015-.034c.12-.25.237-.504.35-.76" fill="#f3f6fa" fill-rule="evenodd" data-name="Path 95180"/><path d="M179.89 252.483c-.204.417-.361.855-.51 1.296-.218-.829-.595-1.654-1.198-2.219a3.508 3.508 0 0 0-.903-.628c.086-.18.17-.36.252-.545l3.247.59c-.157.233-.312.469-.463.71-.163.253-.293.524-.424.796" fill="#f3f6fa" fill-rule="evenodd" data-name="Path 95181"/><path d="m186.753 252.995-3.623.801c.07-.214.14-.429.22-.64.052-.138.107-.276.164-.414.058-.136.108-.276.176-.408.12-.25.237-.506.352-.763l3.246.59c-.156.23-.31.463-.458.7l-.077.134Z" fill="#f3f6fa" fill-rule="evenodd" data-name="Path 95182"/><path d="M176.723 250.712a4.605 4.605 0 0 0-.409-.1l-1.454-.263-.776-.14c.064-.138.13-.274.191-.414l3.248.59c-.112.166-.22.335-.329.504a3.597 3.597 0 0 0-.47-.177" fill="#f3f6fa" fill-rule="evenodd" data-name="Path 95183"/><path d="M183.148 253.07c-.127.26-.236.527-.337.797l-3.265.722-.026-.154.045-.172c.08-.284.145-.574.24-.855.092-.28.182-.563.288-.84.053-.138.107-.276.164-.413.058-.137.108-.277.176-.41.121-.25.24-.507.354-.766l3.247.59c-.157.231-.311.466-.461.705-.163.254-.294.525-.425.796" fill="#f3f6fa" fill-rule="evenodd" data-name="Path 95184"/><path d="M170.828 249.62c.064-.139.13-.276.192-.416l3.249.59c-.09.132-.175.267-.262.4l-3.179-.574Z" fill="#f3f6fa" fill-rule="evenodd" data-name="Path 95185"/><path d="M167.571 249.03c.065-.139.13-.276.193-.418l3.25.591c-.09.132-.176.268-.264.402l-3.179-.575Z" fill="#f3f6fa" fill-rule="evenodd" data-name="Path 95186"/><path d="M164.341 248.446a1.9 1.9 0 0 1 .434-.224c.198-.066.391-.082.574-.048l2.41.437c-.09.133-.177.27-.265.406l-3.153-.571Z" fill="#f3f6fa" fill-rule="evenodd" data-name="Path 95187"/><path d="m159.28 257.223-.026-.265c-.047-.353-.041-.708-.051-1.063-.007-.178.011-.354.016-.532l.025-.531c.039-.352.077-.705.122-1.055l.182-1.045c.295-1.38.697-2.753 1.366-4.01a8.109 8.109 0 0 1 1.2-1.755l.088-.099.096-.093.19-.186c.063-.063.136-.115.202-.173.07-.056.134-.116.209-.165.283-.212.595-.393.932-.494-.165.062-.311.16-.457.254l-.21.154-.199.168c-.068.054-.126.119-.19.178-.06.062-.126.117-.182.183l-.172.195-.086.097-.079.103a8.735 8.735 0 0 0-1.075 1.767l-.113.233c-.035.08-.066.16-.099.24l-.197.48c-.064.16-.115.327-.172.49-.055.164-.117.326-.165.492-.09.335-.196.665-.28 1.002l-.23 1.015c-.28 1.36-.448 2.747-.373 4.128.031.69.132 1.378.333 2.04.045.166.112.325.168.49.031.08.069.158.104.237.035.079.068.16.111.235.157.308.346.605.596.852a3.017 3.017 0 0 1-.688-.8c-.051-.072-.093-.151-.135-.229-.041-.078-.086-.156-.125-.235-.069-.163-.15-.322-.21-.49-.055-.168-.122-.335-.166-.507-.045-.171-.092-.343-.133-.516l-.092-.526a2.45 2.45 0 0 1-.035-.264" fill="#c2cfdb" fill-rule="evenodd" data-name="Path 95188"/><path d="M179.618 255.65c-.011.619-.109 1.238-.342 1.81l-.065.143-.208.046c.04-.553.107-1.104.191-1.654.047-.29.1-.581.162-.87l.06-.273.156-.035c.032.277.05.555.046.834" fill="#384e8a" fill-rule="evenodd" data-name="Path 95189"/><path d="M172.38 257.879a10.335 10.335 0 0 1-.01-1.105l.011-.204.098.007c.005-.066.014-.13.018-.196l2.965-.656c-.08.466-.145.935-.186 1.405l.46.035c.033-.515.097-1.027.172-1.538l3.107-.686a17.96 17.96 0 0 0-.23.981c-.12.592-.199 1.193-.252 1.796l.118.009-6.101 1.348a7.132 7.132 0 0 1-.103-.56 8.484 8.484 0 0 1-.065-.617l-.001-.02Z" fill="#384e8a" fill-rule="evenodd" data-name="Path 95190"/><path d="M178.493 258.83" fill="#384e8a" fill-rule="evenodd" data-name="Path 95191"/><path d="M178.903 258.204" fill="#384e8a" fill-rule="evenodd" data-name="Path 95192"/><path d="M178.017 259.408" fill="#384e8a" fill-rule="evenodd" data-name="Path 95193"/><path d="M177.503 259.9" fill="#384e8a" fill-rule="evenodd" data-name="Path 95194"/><path d="M177.28 250.932" fill="#384e8a" fill-rule="evenodd" data-name="Path 95195"/><path d="M177.195 250.89" fill="#384e8a" fill-rule="evenodd" data-name="Path 95196"/><path d="M176.723 250.712" fill="#384e8a" fill-rule="evenodd" data-name="Path 95197"/><path d="M161.589 253.905" fill="#f3f6fa" fill-rule="evenodd" data-name="Path 95198"/><path d="m162.36 258.522-.149-.027-.001-.002.001.002.149.027Z" fill="#f3f6fa" fill-rule="evenodd" data-name="Path 95199"/><path d="M161.893 257.824c-.023-.062-.041-.128-.062-.191.02.063.04.13.062.191" fill="#f3f6fa" fill-rule="evenodd" data-name="Path 95200"/><path d="m172.37 256.751-.853-.154.508-.112-.007.058.363.027c-.004.068-.009.137-.011.204v-.023Z" fill="#f3f6fa" fill-rule="evenodd" data-name="Path 95201"/><path d="M172.381 257.898v-.019.019Z" fill="#f3f6fa" fill-rule="evenodd" data-name="Path 95202"/><path d="m167.064 257.582 5.387.974-.005-.041c.028.194.063.38.103.56l-.003.002-3.203.708-6.735-1.218 4.456-.985Z" fill="#f3f6fa" fill-rule="evenodd" data-name="Path 95203"/><path d="M161.972 251.998c.034-.117.067-.235.104-.35l.01.002c-.037.116-.08.23-.114.348" fill="#f3f6fa" fill-rule="evenodd" data-name="Path 95204"/><path d="M162.47 250.604" fill="#f3f6fa" fill-rule="evenodd" data-name="Path 95205"/><path d="m163.629 248.756.089-.091-.089.091Z" fill="#f3f6fa" fill-rule="evenodd" data-name="Path 95206"/><path d="M161.942 252.1" fill="#f3f6fa" fill-rule="evenodd" data-name="Path 95207"/><path d="m163.055 249.51-.098.154.098-.155Z" fill="#f3f6fa" fill-rule="evenodd" data-name="Path 95208"/><path d="M162.26 251.119" fill="#f3f6fa" fill-rule="evenodd" data-name="Path 95209"/><path d="M161.52 254.733" fill="#f3f6fa" fill-rule="evenodd" data-name="Path 95210"/><path d="m163.278 249.183.067-.092-.067.092Z" fill="#f3f6fa" fill-rule="evenodd" data-name="Path 95211"/><path d="M161.59 256.555" fill="#f3f6fa" fill-rule="evenodd" data-name="Path 95212"/><path d="m161.508 255.528-.003-.118.003.118Z" fill="#f3f6fa" fill-rule="evenodd" data-name="Path 95213"/><path d="M161.666 257.004c-.02-.093-.035-.189-.05-.285.015.096.03.192.05.285" fill="#f3f6fa" fill-rule="evenodd" data-name="Path 95214"/><path d="m161.509 255 .004-.143-.004.143Z" fill="#f3f6fa" fill-rule="evenodd" data-name="Path 95215"/><path d="M161.767 257.428c-.023-.083-.042-.17-.062-.255.02.086.04.172.062.255" fill="#f3f6fa" fill-rule="evenodd" data-name="Path 95216"/><path d="m170.828 249.62 3.18.574-3.18-.574Z" fill="#f3f6fa" fill-rule="evenodd" data-name="Path 95217"/><path d="m167.494 249.016-3.474-.628-.022.02.022-.02.321.058 3.153.57Z" fill="#f3f6fa" fill-rule="evenodd" data-name="Path 95218"/><path d="m167.572 249.03 3.179.576-3.18-.576Z" fill="#f3f6fa" fill-rule="evenodd" data-name="Path 95219"/><path d="m174.084 250.209.776.14-.776-.14Z" fill="#f3f6fa" fill-rule="evenodd" data-name="Path 95220"/><path d="M161.594 256.594v-.005.005Z" fill="#e1e9f2" fill-rule="evenodd" data-name="Path 95221"/><path d="M161.525 255.93v.004-.004Z" fill="#e1e9f2" fill-rule="evenodd" data-name="Path 95222"/><path d="m172.38 257.891.001.007c.014.211.037.416.066.617l.004.04-5.387-.973 1.622-.359 3.694.668Z" fill="#e1e9f2" fill-rule="evenodd" data-name="Path 95223"/><path d="M161.515 254.793v-.003.003Z" fill="#cce0ee" fill-rule="evenodd" data-name="Path 95224"/><path d="M161.525 255.93v-.004.004Z" fill="#cce0ee" fill-rule="evenodd" data-name="Path 95225"/><path d="M172.37 256.774c-.016.378-.013.748.01 1.105v.012l-3.694-.668 2.831-.626.853.155v.022Z" fill="#cce0ee" fill-rule="evenodd" data-name="Path 95226"/><path d="m178.994 257.753.01-.104.208-.046h.003l-.011.021-.011.02c-.084.185-.18.372-.29.56l-.042.07c-.113.189-.236.375-.368.555l-.044.057c-.137.183-.281.36-.431.522l-.032.033c-.157.167-.32.324-.484.458-.133.108-.484.394-.916.574-.33.137-.63.217-.908.259a3.46 3.46 0 0 1-.523.04c-.247-.001-.471-.027-.677-.06l-1.398-.252a3.09 3.09 0 0 1-.179-.322 4.995 4.995 0 0 1-.355-1.061l.004-.002 6.101-1.348.343.026Z" fill="#243779" fill-rule="evenodd" data-name="Path 95227"/><path d="m179.576 254.816-.004.001-.156.035.035-.16c.02-.087.045-.171.068-.257l.026.154.01.053.02.174" fill="#5b689e" fill-rule="evenodd" data-name="Path 95228"/><path d="M175.937 255.408c.047-.291.1-.582.162-.871l.095-.433c.035-.144.076-.285.113-.428.081-.284.146-.575.24-.855.092-.28.183-.563.288-.84.053-.139.107-.277.164-.414.058-.137.109-.277.176-.409.036-.075.07-.151.105-.226a3.489 3.489 0 0 1 .902.628c.603.565.98 1.39 1.198 2.22-.044.13-.091.26-.134.391-.09.253-.162.51-.23.77l-3.109.686c.011-.073.02-.146.03-.22" fill="#5b689e" fill-rule="evenodd" data-name="Path 95229"/><path d="M172.68 254.82c.047-.291.1-.582.162-.87l.044-.201.04-.141c.058-.182.12-.362.187-.538v-.001a10.098 10.098 0 0 1 .425-.967c.404-.793.86-1.381 1.322-1.753l1.455.263c.127.025.263.057.409.1.149.045.307.102.47.177-.045.07-.092.139-.136.21-.163.253-.294.524-.424.796-.266.542-.459 1.115-.645 1.688a13.26 13.26 0 0 0-.46 1.751c-.027.13-.044.261-.067.391l-2.965.656c.04-.522.103-1.043.183-1.561" fill="#5b689e" fill-rule="evenodd" data-name="Path 95230"/><path d="m164.02 248.388 3.474.629c-.069.106-.14.21-.208.318-.163.254-.294.525-.424.797-.094.19-.17.388-.248.585l-3.858-.697c.066-.124.133-.243.202-.356l.097-.155.076-.12c.048-.073.098-.139.147-.206l.067-.092c.093-.122.188-.232.284-.335l.088-.091c.094-.094.187-.182.281-.257l.022-.02Z" fill="#fff" fill-rule="evenodd" data-name="Path 95231"/><path d="M170.321 250.805c.052-.138.107-.276.164-.414.058-.136.108-.277.176-.408.057-.12.111-.243.167-.363l3.18.574c-.07.106-.14.21-.207.316a7.367 7.367 0 0 0-.425.797c-.094.191-.17.39-.248.587l-2.995-.542c.06-.183.12-.366.188-.547" fill="#fff" fill-rule="evenodd" data-name="Path 95232"/><path d="m173.538 252.102.065-.122-.213-.039c.06-.183.12-.367.188-.548.053-.14.107-.277.164-.414.058-.136.108-.277.176-.409.057-.119.111-.24.167-.361l.775.14c-.463.372-.918.96-1.322 1.753" fill="#fff" fill-rule="evenodd" data-name="Path 95233"/><path d="M166.876 250.764c.06-.183.119-.367.188-.547.052-.138.107-.276.163-.413.058-.137.109-.277.177-.409.057-.12.111-.244.168-.365l3.179.576c-.07.105-.14.209-.207.317-.164.254-.294.525-.425.797-.094.19-.17.388-.248.585l-2.995-.541Z" fill="#fff" fill-rule="evenodd" data-name="Path 95234"/><path d="M161.831 257.633c-.022-.068-.045-.135-.064-.205-.023-.083-.042-.17-.062-.255-.013-.056-.028-.11-.04-.169a7.418 7.418 0 0 1-.05-.285l-.021-.125 5.47.988-4.456.985-.249-.045-.148-.027-.002-.002-.018-.032a3.633 3.633 0 0 1-.298-.637c-.023-.062-.041-.128-.062-.191" fill="#fff" fill-rule="evenodd" data-name="Path 95235"/><path d="M166.053 252.366c-.114.398-.213.8-.297 1.205-.12.592-.199 1.193-.252 1.796l.46.035c.038-.588.112-1.174.201-1.757.047-.292.1-.582.162-.87l.076-.345 2.907.524c-.114.398-.213.8-.296 1.205a15.96 15.96 0 0 0-.253 1.796l.461.035c.037-.589.111-1.174.2-1.758.047-.29.101-.58.163-.87l.075-.344 2.907.525c-.113.397-.213.799-.296 1.204a15.829 15.829 0 0 0-.246 1.739l-.508.111-10.002-1.806.005-.058c.012-.252.033-.506.062-.762l.007-.067c.03-.261.072-.524.12-.786l.012-.07.016-.07c.058-.295.126-.588.205-.877l.03-.103c.034-.118.077-.232.114-.349l3.967.717Z" fill="#fff" fill-rule="evenodd" data-name="Path 95236"/><path d="m172.926 253.607-.04.141.031-.142.009.001Z" fill="#fff" fill-rule="evenodd" data-name="Path 95237"/><path d="M172.901 260.138c.056.118.117.223.18.322l-3.69-.667-.048-.009 3.203-.707c.087.389.205.747.355 1.06" fill="#c1c7ce" fill-rule="evenodd" data-name="Path 95238"/><path d="M166.614 250.717c-.077.192-.151.386-.22.582l-3.918-.708c.065-.148.134-.294.206-.436l.073-.135h.001l3.858.697Z" fill="#f3f6fa" fill-rule="evenodd" data-name="Path 95239"/><path d="M173.537 252.103a8.812 8.812 0 0 0-.212.448l-.122-.022c.027-.099.054-.198.087-.296.032-.098.067-.194.1-.292l.213.038-.066.124Z" fill="#f3f6fa" fill-rule="evenodd" data-name="Path 95240"/><path d="M170.032 251.646c.033-.098.068-.195.1-.294l2.996.542a13.54 13.54 0 0 0-.22.582l-2.962-.535c.027-.1.053-.199.086-.295" fill="#f3f6fa" fill-rule="evenodd" data-name="Path 95241"/><path d="M166.688 251.353c.028-.1.054-.198.087-.295.032-.098.068-.196.1-.294l2.996.541c-.077.193-.152.386-.22.582l-2.963-.534Z" fill="#f3f6fa" fill-rule="evenodd" data-name="Path 95242"/><path d="m168.686 257.223-1.622.359-5.47-.988v-.005l-.001-.004-.003-.03c-.028-.2-.05-.404-.064-.614v-.011l7.16 1.293Z" fill="#f3f6fa" fill-rule="evenodd" data-name="Path 95243"/><path d="M169.68 252.928c.034-.144.075-.285.113-.428.053-.186.101-.373.153-.56l2.963.536c-.06.173-.121.345-.178.52-.063.18-.112.364-.164.547l-2.907-.525.02-.09Z" fill="#ebf3f9" fill-rule="evenodd" data-name="Path 95244"/><path d="M173.113 253.07a10.94 10.94 0 0 0-.187.538l-.009-.001.02-.09c.034-.145.076-.286.113-.429.053-.185.101-.372.153-.559l.122.022c-.075.17-.146.342-.212.518" fill="#ebf3f9" fill-rule="evenodd" data-name="Path 95245"/><path d="m166.403 252.43.02-.09c.034-.143.075-.285.113-.428.052-.185.101-.373.153-.56l2.963.535c-.06.174-.121.347-.178.52-.063.18-.111.364-.163.547l-2.908-.524Z" fill="#ebf3f9" fill-rule="evenodd" data-name="Path 95246"/><path d="M166.395 251.299c-.06.174-.121.347-.178.521-.063.18-.112.364-.164.546l-3.967-.716-.01-.003.023-.069c.051-.154.104-.308.16-.46l.004-.008.037-.09c.054-.14.11-.28.17-.416l.006-.013 3.919.708Z" fill="#ebf3f9" fill-rule="evenodd" data-name="Path 95247"/><path d="m171.517 256.597-2.831.626-7.161-1.293v-.004l-.002-.026a9.75 9.75 0 0 1-.012-.235l-.001-.05-.002-.087-.003-.119v-.314l.001-.031.002-.064.005-.143.001-.055.001-.009v-.003l10.002 1.807Z" fill="#ebf3f9" fill-rule="evenodd" data-name="Path 95248"/><path d="m189.224 256.455-.096.433a19.875 19.875 0 0 0-.363 2.628l-.46-.035c.053-.602.131-1.203.252-1.796.122-.592.26-1.18.46-1.75.057-.174.119-.347.178-.519.137-.398.282-.793.468-1.17.13-.272.26-.543.424-.797.16-.255.325-.507.493-.753-.121.275-.246.546-.376.813-.067.132-.118.272-.176.41a13.8 13.8 0 0 0-.163.413c-.106.277-.197.56-.289.84-.019.056-.033.114-.05.17-.067.228-.125.458-.19.685-.037.143-.078.284-.112.428" fill="#273a73" fill-rule="evenodd" data-name="Path 95249"/><path d="M185.709 257.171c-.09.584-.163 1.17-.2 1.757l-.462-.034a16.032 16.032 0 0 1 .449-2.66c.076-.3.161-.596.264-.887.186-.573.38-1.147.645-1.689.108-.225.22-.447.347-.662l.078-.134c.148-.238.302-.471.458-.702l.034-.052-.025.054c-.114.257-.23.51-.35.76l-.015.034c-.06.122-.108.249-.161.374-.057.138-.112.275-.164.414-.106.277-.196.56-.289.84-.094.28-.158.57-.24.855-.037.143-.078.284-.112.428l-.06.276-.035.157c-.062.29-.116.58-.162.871" fill="#273a73" fill-rule="evenodd" data-name="Path 95250"/><path d="M183.514 252.743c-.057.137-.112.275-.164.413-.08.211-.15.426-.22.64-.022.068-.047.134-.069.2-.094.281-.158.57-.239.855-.038.143-.079.284-.113.428l-.096.434c-.06.288-.115.579-.161.87-.017.11-.03.223-.046.333-.067.473-.125.948-.155 1.425l-.46-.035c.037-.432.096-.863.166-1.29.027-.17.051-.339.086-.506.12-.592.26-1.181.46-1.751.097-.299.198-.597.308-.892.1-.27.21-.537.337-.797.13-.27.261-.542.424-.796.15-.24.304-.474.461-.705l.032-.049-.023.05c-.115.258-.231.513-.352.764-.068.131-.118.272-.176.409" fill="#273a73" fill-rule="evenodd" data-name="Path 95251"/><path d="M180.256 252.155c-.056.137-.11.275-.163.413-.106.277-.197.56-.289.84-.094.281-.159.571-.24.855l-.044.172c-.024.085-.048.17-.068.257l-.035.16-.06.273c-.062.289-.116.58-.163.87-.084.55-.151 1.101-.19 1.654l-.01.104-.343-.026-.118-.009a16.08 16.08 0 0 1 .252-1.796c.068-.33.144-.657.23-.981.069-.26.142-.517.23-.77.044-.131.09-.261.135-.392.149-.441.306-.879.51-1.297.131-.27.262-.542.425-.796.15-.24.306-.476.463-.709l.03-.045-.022.047c-.114.259-.232.515-.354.767-.067.132-.118.272-.176.409" fill="#273a73" fill-rule="evenodd" data-name="Path 95252"/><path d="M177.28 250.932c-.036.075-.069.151-.105.226-.067.132-.118.273-.176.409-.057.137-.111.275-.163.414-.106.277-.197.56-.289.84-.094.28-.159.57-.24.855-.037.142-.078.284-.113.428l-.095.433c-.061.289-.115.58-.162.87-.01.074-.019.147-.03.22a18.888 18.888 0 0 0-.17 1.538l-.461-.035c.041-.47.105-.939.186-1.405.022-.13.04-.26.066-.39.122-.593.26-1.182.46-1.752.187-.573.38-1.146.645-1.688.131-.272.262-.543.425-.797.044-.07.091-.139.137-.209.108-.17.217-.338.329-.503l.027-.042-.02.043c-.082.185-.166.365-.251.545" fill="#273a73" fill-rule="evenodd" data-name="Path 95253"/><path d="M174.084 250.209c-.055.12-.11.243-.166.361-.068.132-.118.273-.177.41-.056.136-.11.274-.163.413-.07.18-.128.365-.189.548-.032.098-.068.194-.1.292-.032.098-.059.197-.087.296-.051.187-.1.374-.152.56-.038.142-.08.283-.113.427l-.02.09-.031.143-.044.2c-.062.29-.116.58-.162.871a20.84 20.84 0 0 0-.183 1.56c-.005.067-.014.132-.018.197l-.098-.007-.363-.027.007-.057c.052-.584.128-1.166.245-1.74.084-.404.184-.805.297-1.203.052-.183.1-.367.164-.547.057-.175.118-.347.177-.52.068-.196.143-.39.22-.582.078-.198.154-.396.248-.587.13-.271.26-.542.424-.797.067-.107.138-.21.207-.315.087-.134.172-.27.261-.4l.025-.038-.018.039c-.062.139-.127.276-.19.413" fill="#273a73" fill-rule="evenodd" data-name="Path 95254"/><path d="M170.828 249.62c-.056.12-.11.243-.168.363-.067.131-.118.272-.176.409-.057.137-.111.275-.163.413-.07.18-.128.364-.189.547-.032.099-.068.196-.1.294-.033.097-.059.196-.087.295-.051.186-.1.373-.152.56-.038.142-.08.283-.113.428l-.02.089-.076.344c-.061.289-.115.58-.162.87-.09.584-.163 1.17-.2 1.758l-.461-.035a16.04 16.04 0 0 1 .252-1.796c.084-.406.183-.807.297-1.205.052-.183.1-.366.164-.546.056-.174.118-.347.177-.52.068-.197.143-.39.22-.583.078-.197.154-.395.248-.585.13-.272.26-.543.424-.797.068-.108.138-.211.207-.317.088-.135.174-.271.264-.403l.022-.034-.016.035c-.063.14-.128.277-.192.416" fill="#273a73" fill-rule="evenodd" data-name="Path 95255"/><path d="M167.572 249.03c-.057.121-.11.245-.168.365-.068.132-.119.272-.177.409a13.12 13.12 0 0 0-.163.413c-.07.18-.127.364-.188.547-.033.098-.069.196-.101.293-.033.097-.059.196-.086.295-.052.187-.1.375-.153.56-.038.143-.08.285-.114.429l-.019.088-.075.345c-.062.289-.116.58-.163.871-.09.583-.163 1.169-.2 1.757l-.461-.035a16.12 16.12 0 0 1 .252-1.796 16.6 16.6 0 0 1 .297-1.205c.052-.182.1-.367.164-.546.057-.174.118-.347.178-.521.068-.196.142-.39.219-.582.078-.197.154-.395.248-.586.13-.27.26-.542.424-.796.068-.108.14-.212.208-.318.088-.136.175-.273.265-.406l.02-.03-.014.031c-.063.142-.13.28-.193.418" fill="#273a73" fill-rule="evenodd" data-name="Path 95256"/><path d="m158.799 251.541-12.95.023c-.168-1.207.543-2.415.543-2.415l12.407 2.392Z" fill="#e1e9f2" fill-rule="evenodd" data-name="Path 95257"/></g></g></g></svg>