<svg id="User" xmlns="http://www.w3.org/2000/svg" width="19.497" height="18.369" viewBox="0 0 19.497 18.369">
  <path id="User-2" data-name="User" d="M18.2,14.44a5.3,5.3,0,0,0-.307-.675.164.164,0,0,0-.006-.019c-.007-.012-.016-.02-.023-.033a2.791,2.791,0,0,0-.332-.475c-.013-.015-.024-.033-.038-.046a2.487,2.487,0,0,0-.462-.4,14.4,14.4,0,0,0-2.673-1.34c-.506-.2-1.025-.406-1.513-.587A7.182,7.182,0,0,0,13.565,9.4c.424-.106.793-.667.919-1.454a2.658,2.658,0,0,0-.03-1.075.907.907,0,0,0-.435-.622A6,6,0,0,0,13.8,5.058a3.152,3.152,0,0,0,.111-.8A3.924,3.924,0,0,0,10.132.721a4.166,4.166,0,0,0-3.039.895,1.754,1.754,0,0,0-.645,1.11c-.5.093-.9.768-1.036,1.774A4.319,4.319,0,0,0,5.5,6.234a.884.884,0,0,0-.464.636A2.64,2.64,0,0,0,5.01,7.945c.135.836.541,1.418,1,1.469a8.312,8.312,0,0,0,.671,1.442c-.492.182-1.016.387-1.527.593a14.421,14.421,0,0,0-2.673,1.34,2.457,2.457,0,0,0-.462.4c-.013.015-.025.032-.038.046a2.824,2.824,0,0,0-.332.475c-.007.012-.016.02-.023.033a.126.126,0,0,0-.006.019,5.415,5.415,0,0,0-.307.675c-.048.145-1.174,3.539-1.3,4.249a.327.327,0,0,0,.32.382H19.178a.327.327,0,0,0,.32-.382C19.373,17.978,18.247,14.583,18.2,14.44Z" transform="translate(-0.007 -0.702)" fill="#8c959d"/>
</svg>
