<svg xmlns="http://www.w3.org/2000/svg" width="25.003" height="19.255" viewBox="15 437.855 25.003 19.255"><g data-name="noun-users-1162775"><path d="M33.65 452.365c-.094-.252-.2-.479-.314-.691-.004-.007-.002-.013-.007-.02-.007-.012-.016-.02-.024-.033a2.89 2.89 0 0 0-.34-.486c-.014-.015-.026-.033-.04-.049a2.54 2.54 0 0 0-.473-.413c-.93-.617-1.907-1.04-2.74-1.373a57.565 57.565 0 0 0-1.552-.602 7.353 7.353 0 0 0 .739-1.498c.435-.11.812-.684.942-1.49.064-.4.053-.791-.03-1.103-.104-.381-.287-.558-.446-.637a6.11 6.11 0 0 0-.227-1.22 3.26 3.26 0 0 0 .114-.826c.03-1.128-1.076-3.348-3.872-3.62-1.134-.114-2.359.249-3.116.915-.39.345-.617.736-.66 1.14-.51.095-.924.786-1.063 1.819-.086.64-.046 1.319.096 1.776-.166.073-.367.247-.476.652-.084.313-.095.704-.031 1.102.138.857.554 1.453 1.023 1.506.164.455.395.993.688 1.478-.505.186-1.041.397-1.566.607-.833.332-1.81.756-2.74 1.373a2.569 2.569 0 0 0-.474.413c-.014.015-.025.033-.039.049a2.89 2.89 0 0 0-.34.486c-.008.013-.017.021-.025.034l-.006.018c-.115.214-.22.44-.314.692-.05.148-1.204 3.628-1.332 4.356a.33.33 0 0 0 .073.271c.063.076.157.12.255.12h19.319a.332.332 0 0 0 .254-.12.33.33 0 0 0 .074-.271c-.126-.727-1.28-4.207-1.33-4.355Z" fill="#8c959d" fill-rule="evenodd" data-name="Path 100223"/><path d="M38.886 449.618a4.461 4.461 0 0 0-.263-.578c-.002-.005-.002-.01-.005-.016l-.02-.028a2.456 2.456 0 0 0-.284-.407l-.033-.04a2.117 2.117 0 0 0-.395-.345c-.777-.516-1.593-.87-2.289-1.147a54.137 54.137 0 0 0-1.296-.503c.273-.41.477-.87.618-1.252.364-.09.678-.571.787-1.245.054-.334.044-.66-.026-.92-.086-.32-.24-.466-.372-.533a5.062 5.062 0 0 0-.191-1.02c.057-.19.088-.416.095-.688.024-.943-.898-2.797-3.234-3.024-.947-.094-1.97.209-2.602.767-.323.284-.51.607-.55.939.899.767 1.287 1.798 1.27 2.448-.008.31-.044.566-.108.781.11.37.181.756.216 1.156.15.076.324.244.423.604.08.296.09.666.029 1.045-.124.764-.48 1.308-.892 1.412a6.95 6.95 0 0 1-.7 1.418c.474.175.977.374 1.47.57.79.315 1.714.717 2.595 1.302.176.116.319.25.449.39l.037.046c.122.14.23.296.322.461.007.012.016.02.022.033.004.005.004.012.006.017.109.203.208.417.297.656.022.065.27.815.542 1.668h4.92a.278.278 0 0 0 .274-.327c-.107-.61-1.071-3.517-1.112-3.64Z" fill="#8c959d" fill-rule="evenodd" data-name="Path 100224"/></g></svg>