<svg xmlns="http://www.w3.org/2000/svg" width="24" height="24" viewBox="0 0 24 24">
  <g id="Events" transform="translate(0 -0.138)">
    <rect id="Rectangle_16" data-name="Rectangle 16" width="24" height="24" rx="12" transform="translate(0 0.138)" fill="#dc572a"/>
    <g id="noun-event-2080617" transform="translate(1.572 0.861)">
      <path id="Path_80253" data-name="Path 80253" d="M15.174,9.5h-.651l-.186.682a1.486,1.486,0,0,1-1.38,1.086,1.031,1.031,0,0,1-.853-.4,1.1,1.1,0,0,1-.171-.962l.109-.4H9.931l-.186.682a1.49,1.49,0,0,1-1.4,1.086,1.052,1.052,0,0,1-.853-.4A1.1,1.1,0,0,1,7.325,9.9l.109-.4H6.751a2.53,2.53,0,0,0-2.342,1.846L2.5,18.434a1.678,1.678,0,0,0,.264,1.52A1.655,1.655,0,0,0,4.1,20.59h.946v.419a2.006,2.006,0,0,0,2,2h8.128a2.006,2.006,0,0,0,2-2V11.5A2.006,2.006,0,0,0,15.174,9.5ZM4.114,19.38a.452.452,0,0,1-.372-.155.5.5,0,0,1-.047-.481l1.582-5.925h9.648l-1.5,5.615a1.362,1.362,0,0,1-1.179.946Zm11.85,1.629a.794.794,0,0,1-.791.791H7.046a.794.794,0,0,1-.791-.791V20.59h5.972a2.53,2.53,0,0,0,2.342-1.846l1.38-5.15v7.414Z" transform="translate(0 -5.154)" fill="#fff"/>
      <path id="Path_80254" data-name="Path 80254" d="M37.963,5.556a.909.909,0,0,0,.838-.667l.217-.822a.5.5,0,0,0-.481-.667.909.909,0,0,0-.838.667l-.217.822A.5.5,0,0,0,37.963,5.556Z" transform="translate(-29.599)" fill="#fff"/>
      <path id="Path_80255" data-name="Path 80255" d="M67.479,5.556a.909.909,0,0,0,.838-.667l.217-.822a.5.5,0,0,0-.481-.667.909.909,0,0,0-.838.667l-.233.822A.5.5,0,0,0,67.479,5.556Z" transform="translate(-54.524)" fill="#fff"/>
      <path id="Path_80256" data-name="Path 80256" d="M36.859,42.657l-1.722,1.365-.31-.419a.61.61,0,1,0-.977.729l.682.915a.621.621,0,0,0,.4.248h.078a.631.631,0,0,0,.372-.124L37.6,43.619a.6.6,0,0,0,.093-.853A.569.569,0,0,0,36.859,42.657Z" transform="translate(-26.447 -33.053)" fill="#fff"/>
    </g>
  </g>
</svg>
