<svg xmlns="http://www.w3.org/2000/svg" width="9" height="9" viewBox="16.312 250 9 9"><g data-name="noun-web-3237152"><path d="M22.289 258.08a3.88 3.88 0 0 0 1.562-1.18l-.995.005c-.083.25-.178.482-.284.694a3.92 3.92 0 0 1-.283.481Zm2.384-3.283-1.459.006a8.024 8.024 0 0 1-.185 1.476l1.226-.006c.232-.448.378-.947.418-1.476Zm-2.087.008-1.46.006.006 1.476 1.253-.005a7.31 7.31 0 0 0 .201-1.477Zm-2.085.009-1.461.005c.02.53.091 1.028.203 1.477l1.264-.006-.006-1.477Zm-2.09.008-1.457.005c.044.53.195 1.03.432 1.477l1.215-.005a7.995 7.995 0 0 1-.19-1.477Zm-1.46-.62 1.46-.006a8.034 8.034 0 0 1 .181-1.46l-1.23.006c-.227.444-.37.938-.41 1.46Zm2.088-.008 1.46-.006-.006-1.46-1.257.006a7.334 7.334 0 0 0-.197 1.46Zm2.085-.008 1.461-.006a7.302 7.302 0 0 0-.2-1.46l-1.267.005.006 1.461Zm2.09-.008 1.457-.006a3.849 3.849 0 0 0-.423-1.46l-1.22.005c.102.453.167.945.186 1.46Zm-2.104-3.492.006 1.414 1.077-.005a4.337 4.337 0 0 0-.18-.416c-.252-.504-.565-.859-.903-.993Zm.025 6.226.005 1.388c.326-.142.628-.491.873-.98.064-.129.124-.267.179-.413l-1.058.005Zm-.62 1.4-.006-1.397-1.071.005c.053.142.111.275.174.4.252.504.565.859.903.993Zm-.025-6.21-.005-1.403c-.326.142-.628.49-.873.98a4.451 4.451 0 0 0-.185.428l1.063-.004Zm-1.715 4.821-.979.005a3.886 3.886 0 0 0 1.54 1.152 3.858 3.858 0 0 1-.283-.48 5.213 5.213 0 0 1-.278-.677Zm5.067-4.835a3.876 3.876 0 0 0-1.553-1.169c.101.146.196.307.283.481.105.21.2.443.283.692l.986-.004Zm-6.08.027 1.002-.005c.083-.256.18-.494.289-.71a3.92 3.92 0 0 1 .283-.481 3.88 3.88 0 0 0-1.575 1.196Zm6.232 5.567A4.488 4.488 0 0 1 20.812 259a4.486 4.486 0 0 1-3.182-1.318 4.486 4.486 0 0 1-1.318-3.182c0-1.243.504-2.368 1.318-3.182A4.485 4.485 0 0 1 20.812 250c1.243 0 2.368.504 3.182 1.318a4.486 4.486 0 0 1 1.318 3.182 4.486 4.486 0 0 1-1.318 3.182Z" fill="#666" fill-rule="evenodd" data-name="Path 100218"/></g></svg>