<svg id="Rupess" xmlns="http://www.w3.org/2000/svg" width="18" height="17.999" viewBox="0 0 18 17.999">
  <path id="Rupess-2" data-name="Rupess" d="M26.487,14.778a9,9,0,1,0,5.642,8.353A8.982,8.982,0,0,0,26.487,14.778Zm-.315,6.561a.5.5,0,0,1,0,1H25.065a2.584,2.584,0,0,1-2.513,2H21.344l3.17,3.011a.5.5,0,1,1-.691.728l-4.082-3.877a.5.5,0,0,1,.345-.866h2.465a1.579,1.579,0,0,0,1.466-1H20.087a.5.5,0,0,1,0-1h3.983a1.579,1.579,0,0,0-1.518-1.154H20.087a.5.5,0,0,1,0-1h6.085a.5.5,0,0,1,0,1H24.59a2.568,2.568,0,0,1,.5,1.154h1.077Z" transform="translate(-14.129 -14.131)" fill="#8c959d"/>
</svg>
