<svg xmlns="http://www.w3.org/2000/svg" width="60" height="60" viewBox="0 0 60 60">
  <g id="Fever" transform="translate(-30 -134.564)">
    <circle id="Ellipse_3126" data-name="Ellipse 3126" cx="30" cy="30" r="30" transform="translate(30 134.564)" fill="#f5f6fa"/>
    <g id="noun-fever-347327" transform="translate(46.028 148.018)">
      <path id="Path_92917" data-name="Path 92917" d="M83.616,15.66A1.4,1.4,0,1,1,81.608,14.4V8.547H82.8v5.82A1.4,1.4,0,0,1,83.616,15.66Zm1.225,0a2.621,2.621,0,1,1-4.05-2.212V5.756a1.43,1.43,0,0,1,2.825,0h0v7.692a2.621,2.621,0,0,1,1.191,2.212Zm-.408,0a2.212,2.212,0,0,0-1.123-1.906l-.1-.068V5.756a1.021,1.021,0,0,0-2.008,0v7.931l-.1.068a2.212,2.212,0,1,0,3.336,1.906Z" transform="translate(-56.133 -4)" fill="#4fb4f8"/>
      <path id="Path_92918" data-name="Path 92918" d="M25.251,46.587a.851.851,0,0,1-.851-.851,5.03,5.03,0,0,1,.851-1.634,5.03,5.03,0,0,1,.851,1.634A.851.851,0,0,1,25.251,46.587Zm.987-2.825a4.06,4.06,0,0,1,.715-1.361,4.06,4.06,0,0,1,.715,1.361.715.715,0,0,1-1.43,0Z" transform="translate(-19.721 -28.97)" fill="#4fb4f8"/>
      <path id="Path_92919" data-name="Path 92919" d="M31.038,20.365A10.948,10.948,0,0,0,22.154,15.6h-.715a11.165,11.165,0,0,0-9.871,6.331,8.577,8.577,0,0,0-.987,3.914c-.034.374.034,11.2.034,11.2a2.961,2.961,0,0,0,3.029,3.029H16.1a7.127,7.127,0,0,0,5.684,2.893,6.978,6.978,0,0,0,5.888-2.893h2.314a3.029,3.029,0,0,0,3.1-3.029V26.117A9.428,9.428,0,0,0,31.038,20.365Zm-.919,11.3-.408-.1v.408c-.442,3.744-1.4,6.433-2.893,8.135a6.516,6.516,0,0,1-9.666,0,14.572,14.572,0,0,1-3.233-8.1v-.374l-.374.068h-.374a1.752,1.752,0,0,1-.034-3.472h.374c.613-.136,3.165-3.608,4.084-6.807,1.4,2.587,7.624,5.922,12.526,6.807h.34a1.674,1.674,0,0,1,1.5,1.77A1.618,1.618,0,0,1,30.119,31.665Z" transform="translate(-10.6 -11.291)" fill="#4fb4f8"/>
      <path id="Path_92920" data-name="Path 92920" d="M37.353,61.91a.34.34,0,0,0-.408-.34H33.814a.34.34,0,0,0,0,.681h3.131a.34.34,0,0,0,.408-.34Zm2.28-6.3a.408.408,0,0,1-.374.306h-.2l-2.621-.885a.443.443,0,0,1-.238-.2.417.417,0,0,1,.17-.579.442.442,0,0,1,.34,0l2.621.885a.442.442,0,0,1,.238.2.408.408,0,0,1,.034.272Zm-5.106-1.157a.408.408,0,0,1-.034.34.442.442,0,0,1-.238.2l-2.621.885h-.2a.439.439,0,0,1-.34-.647.442.442,0,0,1,.238-.2l2.621-.885a.408.408,0,0,1,.545.306Z" transform="translate(-24.098 -36.703)" fill="#4fb4f8"/>
    </g>
  </g>
</svg>
