<svg xmlns="http://www.w3.org/2000/svg" width="18.357" height="20.033" viewBox="327 50 18.357 20.033"><path d="M337.849 70.033a.835.835 0 0 1-.5-.167l-3.34-2.504a.835.835 0 0 1-.333-.668v-4.691l-5.857-6.588A3.255 3.255 0 0 1 330.253 50h11.853a3.255 3.255 0 0 1 2.431 5.415l-5.853 6.588v7.195a.835.835 0 0 1-.835.835Zm-2.504-3.756 1.67 1.252v-5.843c0-.205.075-.402.21-.555l6.067-6.825a1.586 1.586 0 0 0-1.186-2.637h-11.853a1.586 1.586 0 0 0-1.186 2.636l6.068 6.826c.135.153.21.35.21.555v4.59Z" fill="#333" fill-rule="evenodd" data-name="filter"/></svg>