<svg xmlns="http://www.w3.org/2000/svg" width="22.445" height="16.834" viewBox="332.75 357.75 22.445 16.834"><g data-name="noun-filter-215635"><g data-name="Path 92777"><path d="M354.771 370.244h-8.903c-.3-1.745-1.87-3.217-3.79-3.217-1.921 0-3.492 1.472-3.792 3.217h-5.112c-.224 0-.424.15-.424.375 0 .224.2.374.424.374h5.087c.125 1.995 1.796 3.59 3.816 3.59 2.02 0 3.691-1.595 3.816-3.59h8.878c.224 0 .424-.15.424-.374 0-.225-.2-.375-.424-.375Zm-12.694 3.592a3.001 3.001 0 0 1-2.993-2.993 3.001 3.001 0 0 1 2.993-2.993 3.001 3.001 0 0 1 2.993 2.993 3.001 3.001 0 0 1-2.993 2.993Z" fill="#333" fill-rule="evenodd"/><path d="M354.771 370.244h-8.903c-.3-1.745-1.87-3.217-3.79-3.217-1.921 0-3.492 1.472-3.792 3.217h-5.112c-.224 0-.424.15-.424.375 0 .224.2.374.424.374h5.087c.125 1.995 1.796 3.59 3.816 3.59 2.02 0 3.691-1.595 3.816-3.59h8.878c.224 0 .424-.15.424-.374 0-.225-.2-.375-.424-.375Zm-12.694 3.592a3.001 3.001 0 0 1-2.993-2.993 3.001 3.001 0 0 1 2.993-2.993 3.001 3.001 0 0 1 2.993 2.993 3.001 3.001 0 0 1-2.993 2.993Z" stroke-linejoin="round" stroke-linecap="round" stroke-width=".5" stroke="#333" fill="transparent"/></g><g data-name="Path 92776"><path d="M333.174 362.015h11.173c.249 1.745 1.87 3.317 3.79 3.317s3.542-1.572 3.79-3.317h2.844c.224 0 .424-.15.424-.374 0-.225-.2-.375-.424-.375h-2.818a3.83 3.83 0 0 0-3.816-3.516 3.83 3.83 0 0 0-3.815 3.516h-11.148c-.224 0-.424.15-.424.375 0 .224.2.374.424.374Zm14.963-3.517a3.001 3.001 0 0 1 2.993 2.993 3.001 3.001 0 0 1-2.993 2.993 3.001 3.001 0 0 1-2.992-2.993 3.001 3.001 0 0 1 2.992-2.993Z" fill="#333" fill-rule="evenodd"/><path d="M333.174 362.015h11.173c.249 1.745 1.87 3.317 3.79 3.317s3.542-1.572 3.79-3.317h2.844c.224 0 .424-.15.424-.374 0-.225-.2-.375-.424-.375h-2.818a3.83 3.83 0 0 0-3.816-3.516 3.83 3.83 0 0 0-3.815 3.516h-11.148c-.224 0-.424.15-.424.375 0 .224.2.374.424.374Zm14.963-3.517a3.001 3.001 0 0 1 2.993 2.993 3.001 3.001 0 0 1-2.993 2.993 3.001 3.001 0 0 1-2.992-2.993 3.001 3.001 0 0 1 2.992-2.993Z" stroke-linejoin="round" stroke-linecap="round" stroke-width=".5" stroke="#333" fill="transparent"/></g></g></svg>