<svg xmlns="http://www.w3.org/2000/svg" width="24" height="24" viewBox="0 0 24 24">
  <g id="Financial_Resources" data-name="Financial Resources" transform="translate(1408 -180)">
    <g id="Calendar" transform="translate(-4 174)">
      <rect id="Rectangle_19" data-name="Rectangle 19" width="24" height="24" rx="12" transform="translate(-1404 6)" fill="#8ba991"/>
    </g>
    <g id="noun-rupee-1663360" transform="translate(-1586.668 131.489)">
      <g id="Group_47813" data-name="Group 47813" transform="translate(186.668 54.512)">
        <g id="Group_47812" data-name="Group 47812" transform="translate(0 0)">
          <path id="Path_80196" data-name="Path 80196" d="M193.323,65.7l-.491-.463-1.18-1.112-1.422-1.34L189,61.621c-.2-.189-.4-.38-.6-.566l-.008-.008c.08.193.158.387.237.579v-.391l-.809.82h.786c.27,0,.542.01.812,0a3.641,3.641,0,0,0,1.841-.583,3.726,3.726,0,0,0-1.984-6.869h-1.8a.827.827,0,0,0-.572.24.844.844,0,0,0-.237.579.816.816,0,0,0,.809.82h1.7a3.688,3.688,0,0,1,.476.025l-.216-.029a2.873,2.873,0,0,1,.736.2l-.193-.082a2.959,2.959,0,0,1,.644.383l-.163-.128a2.992,2.992,0,0,1,.512.519l-.127-.165a3.018,3.018,0,0,1,.377.653l-.081-.2a2.976,2.976,0,0,1,.2.746l-.028-.219a2.975,2.975,0,0,1,0,.758l.028-.219a2.976,2.976,0,0,1-.2.746l.081-.2a3.018,3.018,0,0,1-.377.653l.127-.165a2.992,2.992,0,0,1-.512.519l.163-.128a2.959,2.959,0,0,1-.644.383l.193-.082a2.874,2.874,0,0,1-.736.2l.216-.029a5.545,5.545,0,0,1-.723.025h-1.116a.827.827,0,0,0-.809.82c0,.127,0,.254,0,.381a.858.858,0,0,0,.263.614l.259.243,1.128,1.063,1.5,1.412L191.5,66.22c.222.21.444.421.667.63l.009.008a.842.842,0,0,0,.572.24.813.813,0,0,0,.572-.24.83.83,0,0,0,.237-.579.844.844,0,0,0-.237-.579Z" transform="translate(-186.668 -54.6)" fill="#fff"/>
        </g>
      </g>
      <g id="Group_47815" data-name="Group 47815" transform="translate(186.668 54.511)">
        <g id="Group_47814" data-name="Group 47814" transform="translate(0 0)">
          <path id="Path_80197" data-name="Path 80197" d="M187.488,56.233h6.356c.294,0,.588,0,.88,0h.012a.825.825,0,0,0,.579-.252.9.9,0,0,0,.24-.608.89.89,0,0,0-.24-.608.831.831,0,0,0-.579-.252H188.38c-.294,0-.588,0-.88,0h-.012a.825.825,0,0,0-.579.252.9.9,0,0,0-.24.608.89.89,0,0,0,.24.608.831.831,0,0,0,.579.252Z" transform="translate(-186.668 -54.511)" fill="#fff"/>
        </g>
      </g>
      <g id="Group_47817" data-name="Group 47817" transform="translate(186.668 57.398)">
        <g id="Group_47816" data-name="Group 47816" transform="translate(0 0)">
          <path id="Path_80198" data-name="Path 80198" d="M187.488,269.133h6.356c.294,0,.588,0,.88,0h.012a.824.824,0,0,0,.579-.252.9.9,0,0,0,.24-.608.89.89,0,0,0-.24-.608.831.831,0,0,0-.579-.252H188.38c-.294,0-.588,0-.88,0h-.012a.824.824,0,0,0-.579.252.9.9,0,0,0-.24.608.89.89,0,0,0,.24.608.831.831,0,0,0,.579.252Z" transform="translate(-186.668 -267.411)" fill="#fff"/>
        </g>
      </g>
    </g>
  </g>
</svg>
