<svg xmlns="http://www.w3.org/2000/svg" width="23.045" height="20.667"><path d="M21.103 4.645h-3.01l-.534-3.034c-.097-.51-.364-.971-.801-1.263A1.948 1.948 0 0 0 15.3.033L1.611 2.436A1.935 1.935 0 0 0 .031 4.694l2.112 11.919c.097.51.389.946.801 1.262.34.243.704.364 1.117.364.121 0 .243 0 .34-.024l.85-.146v.656c0 1.068.873 1.942 1.941 1.942h13.91a1.948 1.948 0 0 0 1.942-1.942V6.61a1.953 1.953 0 0 0-1.942-1.966ZM19.986 8.82c0 .68-.534 1.214-1.214 1.214-.68 0-1.213-.534-1.213-1.214 0-.68.534-1.213 1.213-1.213.656 0 1.214.558 1.214 1.213Zm-15.9 7.793a.3.3 0 0 1-.243-.049.314.314 0 0 1-.145-.218L1.61 4.426c-.024-.194.097-.363.267-.388l13.691-2.427h.049c.097 0 .17.048.194.073a.314.314 0 0 1 .146.218l.485 2.767H7.193a1.948 1.948 0 0 0-1.942 1.942v9.807l-1.165.195Zm17.017 2.427H7.193a.332.332 0 0 1-.34-.34V15.4l4.54-5.22a.298.298 0 0 1 .461 0l2.816 3.205a.189.189 0 0 1 .049.194l-.365 1.651c-.024.121.122.194.195.097l2.815-3.083c.098-.097.243-.097.316 0l3.738 4.103V18.7c0 .195-.145.34-.315.34Z" fill="#108fe5" fill-rule="evenodd" data-name="noun-photo-2067966"/></svg>