<svg xmlns="http://www.w3.org/2000/svg" width="24" height="24" viewBox="0 0 24 24">
  <g id="Suppliment" transform="translate(-22 -320)">
    <rect id="Rectangle_20" data-name="Rectangle 20" width="24" height="24" rx="12" transform="translate(22 320)" fill="#19ceab"/>
    <g id="noun-medicine-2527963" transform="translate(23.359 324.167)">
      <path id="Path_80174" data-name="Path 80174" d="M6.925,28.5H13.51a1.427,1.427,0,0,0,1.425-1.425v-.206H5.5v.206A1.427,1.427,0,0,0,6.925,28.5Z" transform="translate(0 -13.464)" fill="#fff"/>
      <path id="Path_80175" data-name="Path 80175" d="M14.934,2.3a.8.8,0,0,0-.8-.8H6.3a.8.8,0,0,0-.8.8v.646a.8.8,0,0,0,.8.8h7.834a.8.8,0,0,0,.8-.8Z" fill="#fff"/>
      <path id="Path_80176" data-name="Path 80176" d="M13.678,8H6.757A1.3,1.3,0,0,0,5.5,9.338v6.973h9.434V9.338A1.3,1.3,0,0,0,13.678,8Zm-.791,4.845H10.865V15H9.57V12.845H7.548V11.466H9.57V9.313h1.3v2.153h2.022Z" transform="translate(0 -3.58)" fill="#fff"/>
    </g>
  </g>
</svg>
