<svg xmlns="http://www.w3.org/2000/svg" width="24" height="24" viewBox="0 0 24 24">
  <g id="Group" transform="translate(-5796 -5846)">
    <rect id="Rectangle_8884" data-name="Rectangle 8884" width="24" height="24" transform="translate(5796 5846)" fill="#fff" opacity="0"/>
    <path id="Group-2" data-name="Group" d="M21.6,23.972a5.381,5.381,0,0,0,.884-2.984c0-2.721-1.931-4.935-4.305-4.935a4.046,4.046,0,0,0-3.083,1.5,4.339,4.339,0,0,0-2.9-1.147c-2.612,0-4.737,2.44-4.737,5.438a5.916,5.916,0,0,0,1.1,3.477A5.678,5.678,0,0,0,5,30.263c0,.112.009.222.019.332l.047.545h14.6l.047-.542c.01-.111.019-.222.019-.335a4.582,4.582,0,0,0-.094-.877h5.293l.046-.536c.009-.1.018-.2.018-.305a5.208,5.208,0,0,0-3.4-4.573ZM18.18,17.1c1.794,0,3.252,1.742,3.252,3.882s-1.459,3.882-3.252,3.882a2.863,2.863,0,0,1-1.745-.612,6.056,6.056,0,0,0,.5-2.416,5.906,5.906,0,0,0-1.122-3.507A3.025,3.025,0,0,1,18.176,17.1Zm-2.2,8.112-.054-.026.005-.008ZM8.509,21.842c0-2.418,1.653-4.386,3.684-4.386s3.684,1.968,3.684,4.386-1.653,4.386-3.684,4.386S8.509,24.261,8.509,21.842ZM6.057,30.088a4.8,4.8,0,0,1,3.235-3.956,4.253,4.253,0,0,0,5.914-.1,4.88,4.88,0,0,1,3.474,4.052Zm13.25-1.754a6.1,6.1,0,0,0-2.444-2.648,3.787,3.787,0,0,0,1.313.237,3.964,3.964,0,0,0,2.717-1.111,4.337,4.337,0,0,1,3.048,3.522Z" transform="translate(5793 5833.947)" fill="#999"/>
  </g>
</svg>
