<svg xmlns="http://www.w3.org/2000/svg" width="20.4" height="20" viewBox="19.75 38.75 20.4 20"><g data-name="noun-menu-1310029"><g data-name="Path 92747"><path d="M28.817 57.994a.758.758 0 0 0-.756-.755h-7.555a.758.758 0 0 0-.756.755c0 .416.34.756.756.756h7.555c.416 0 .756-.34.756-.756Z" fill="#333" fill-rule="evenodd"/><path d="M28.817 57.994a.758.758 0 0 0-.756-.755h-7.555a.758.758 0 0 0-.756.755c0 .416.34.756.756.756h7.555c.416 0 .756-.34.756-.756Z" stroke-linejoin="round" stroke-linecap="round" stroke-width=".5" stroke="#333" fill="transparent"/></g><g data-name="Path 92746"><path d="M39.395 38.75h-18.89a.758.758 0 0 0-.755.756c0 .415.34.755.756.755h18.889c.415 0 .755-.34.755-.755a.758.758 0 0 0-.755-.756Z" fill="#333" fill-rule="evenodd"/><path d="M39.395 38.75h-18.89a.758.758 0 0 0-.755.756c0 .415.34.755.756.755h18.889c.415 0 .755-.34.755-.755a.758.758 0 0 0-.755-.756Z" stroke-linejoin="round" stroke-linecap="round" stroke-width=".5" stroke="#333" fill="transparent"/></g><g data-name="Path 92745"><path d="M20.506 49.731h11.333c.416 0 .756-.34.756-.756a.758.758 0 0 0-.756-.755H20.506a.758.758 0 0 0-.756.755c0 .416.34.756.756.756Z" fill="#333" fill-rule="evenodd"/><path d="M20.506 49.731h11.333c.416 0 .756-.34.756-.756a.758.758 0 0 0-.756-.755H20.506a.758.758 0 0 0-.756.755c0 .416.34.756.756.756Z" stroke-linejoin="round" stroke-linecap="round" stroke-width=".5" stroke="#333" fill="transparent"/></g></g></svg>