<svg id="Header" xmlns="http://www.w3.org/2000/svg" width="36" height="36" viewBox="0 0 36 36">
  <g id="CreateEvent" transform="translate(-324 -52)">
    <circle id="Ellipse_3117" data-name="Ellipse 3117" cx="18" cy="18" r="18" transform="translate(324 52)" fill="#e4e5ea"/>
    <g id="Group_48238" data-name="Group 48238">
      <path id="Path_100216" data-name="Path 100216" d="M19.61,7.89,17.67,9.83c0,.64.08,1.35.08,2.17,0,5.68-1.07,6.75-6.75,6.75S4.25,17.68,4.25,12,5.32,5.25,11,5.25a18.1,18.1,0,0,1,2.17.08l1.94-1.94A17.91,17.91,0,0,0,11,3C4.1,3,2,5.1,2,12s2.1,9,9,9,9-2.1,9-9a17.91,17.91,0,0,0-.39-4.11Z" transform="translate(331 58.004)" fill="#000"/>
      <path id="Path_100217" data-name="Path 100217" d="M8.83,11.77,8,14.31a.56.56,0,0,0,.71.71l2.54-.85a3.31,3.31,0,0,0,1.32-.82L19.1,6.81a2.17,2.17,0,0,0,0-3.09,2.07,2.07,0,0,0-1.38-.53,2,2,0,0,0-1.45.61L9.64,10.45a3.4,3.4,0,0,0-.81,1.32Z" transform="translate(331 58.004)" fill="#000"/>
    </g>
  </g>
</svg>
