<svg xmlns="http://www.w3.org/2000/svg" width="22.337" height="22.8" viewBox="0 0 22.337 22.8">
  <path id="Compound_Path" data-name="Compound Path" d="M32.869,12.365H30.062v-.9a.868.868,0,0,0-.868-.868H26.619a.868.868,0,0,0-.868.868v.926l-6.365.058v-.984a.868.868,0,0,0-.868-.868H15.943a.868.868,0,0,0-.868.868v.926H12.268a.868.868,0,0,0-.868.868v19.27a.868.868,0,0,0,.868.868h20.6a.868.868,0,0,0,.868-.868v-19.3A.868.868,0,0,0,32.869,12.365ZM29.136,29.233v-1.62h1.62ZM32,25.906H28.268a.868.868,0,0,0-.868.868v3.675H13.136V19.483H32Z" transform="translate(-11.4 -10.6)" fill="#9b26af"/>
</svg>
