<svg xmlns="http://www.w3.org/2000/svg" width="47.002" height="51.527"><path d="M23.484 51.523c-4.939-.01-9.86-.257-14.713-1.251-2.093-.429-4.148-.992-6.027-2.053-1.266-.716-2.339-1.64-2.611-3.143-.14-.768-.201-1.616-.024-2.363.514-2.158 1.367-4.196 2.634-6.037 1.455-2.115 3.36-3.569 5.955-3.961.55-.083.82-.437 1.063-.85.614-1.04.857-2.192.997-3.37.336-2.837.248-5.681-.188-8.487-.653-4.199-.33-8.287 1.143-12.251 1.453-3.909 4.079-6.705 8.327-7.412 2.772-.462 5.627-.568 8.363.368 3.435 1.175 5.54 3.709 6.814 7.005 1.172 3.03 1.554 6.206 1.478 9.42-.041 1.762-.433 3.513-.574 5.275-.197 2.471-.282 4.955.294 7.39.194.818.586 1.6.975 2.353.13.253.512.479.81.528 2.66.438 4.592 1.929 6.062 4.104 1.241 1.835 2.071 3.86 2.594 5.997.504 2.054-.313 3.904-2.152 5.115-1.547 1.02-3.284 1.588-5.063 2.028-4.761 1.18-9.62 1.491-14.5 1.594-.553.011-1.105.001-1.657.001m-9.632-35.076c-.667-.022-.869.12-1.006.796-.253 1.248-.003 2.42.603 3.523.233.423.56.727 1.117.595.111.292.209.557.314.82.949 2.388 2.249 4.539 4.268 6.181 2.865 2.33 5.997 2.296 8.834-.075 1.639-1.37 2.805-3.095 3.7-5.013.288-.618.531-1.257.793-1.882.63-.023.837-.125 1.142-.684.552-1.014.787-2.107.595-3.25-.058-.344-.319-.653-.487-.978-.235.174-.512.312-.696.529-.336.396-.622.433-1.105.18-4.15-2.167-8.315-4.303-12.484-6.434a2.091 2.091 0 0 0-.919-.217c-1.085 0-2.069.39-2.697 1.257-.604.833-1.066 1.785-1.484 2.732-.263.596-.332 1.278-.488 1.92m3.268 12.839c-.17 1.538-1.196 2.205-2.337 2.742.177.83.716 1.347 1.288 1.82 2.106 1.747 4.525 2.724 7.27 2.742 3.064.02 5.724-1.064 7.964-3.156.415-.388.78-.828.826-1.431-1.674-.996-1.674-.996-2.302-2.639-4.21 3.896-8.434 3.891-12.709-.078" fill="#fff" fill-rule="evenodd" data-name="Path 92915"/></svg>