<svg xmlns="http://www.w3.org/2000/svg" width="16" height="16" viewBox="60 58.95 16 16"><g data-name="Group 48827"><g data-name="Ellipse 3123"><path d="M60 66.9a8 8 0 1 1 0 .1z" fill="#93f6e3" fill-rule="evenodd"/><path d="M60.5 66.903a7.5 7.5 0 1 1 0 .094z" stroke-linejoin="round" stroke-linecap="round" stroke="#fff" fill="transparent" stroke-width=".9375"/></g><g data-name="Group 405"><g data-name="Path 157"><path d="M68 70.2a3.204 3.204 0 0 1-3.2-3.2c0-1.765 1.435-3.2 3.2-3.2 1.764 0 3.2 1.435 3.2 3.2 0 .602-.17 1.187-.49 1.697l.442 1.382-1.404-.399c-.52.34-1.123.52-1.748.52Zm0-6.156A2.959 2.959 0 0 0 65.045 67 2.959 2.959 0 0 0 68 69.955c.594 0 1.168-.176 1.658-.51l.047-.031 1.075.305-.338-1.057.032-.05c.315-.48.48-1.039.48-1.612A2.958 2.958 0 0 0 68 64.044Z" fill-rule="evenodd"/><path d="M68 70.2a3.204 3.204 0 0 1-3.2-3.2c0-1.765 1.435-3.2 3.2-3.2 1.764 0 3.2 1.435 3.2 3.2 0 .602-.17 1.187-.49 1.697l.442 1.382-1.404-.399c-.52.34-1.123.52-1.748.52Zm0-6.156A2.959 2.959 0 0 0 65.045 67 2.959 2.959 0 0 0 68 69.955c.594 0 1.168-.176 1.658-.51l.047-.031 1.075.305-.338-1.057.032-.05c.315-.48.48-1.039.48-1.612A2.958 2.958 0 0 0 68 64.044Z" stroke-linejoin="round" stroke-linecap="round" stroke-width=".3" stroke="#333" fill="transparent"/></g></g></g></svg>