<svg xmlns="http://www.w3.org/2000/svg" width="24" height="24" viewBox="0 0 24 24">
  <g id="StoryOfHope" transform="translate(1119 -321)">
    <g id="Zen_Success_Stories" data-name="Zen Success Stories" transform="translate(4 45)">
      <g id="AboutUs" transform="translate(-2570 92)">
        <g id="Complimentary" transform="translate(-19 46)">
          <g id="Group_47958" data-name="Group 47958" transform="translate(1444 -182)">
            <rect id="Rectangle_20" data-name="Rectangle 20" width="24" height="24" rx="12" transform="translate(22 320)" fill="#f19e12"/>
          </g>
        </g>
      </g>
    </g>
    <g id="noun-sun-11690" transform="translate(-1115.727 324.708)">
      <path id="Path_80316" data-name="Path 80316" d="M25.475,9.251a.422.422,0,0,0,.366.21.4.4,0,0,0,.211-.056.42.42,0,0,0,.154-.575l-1-1.738a.422.422,0,0,0-.731.421Z" transform="translate(-19.733 -5.285)" fill="#fff"/>
      <path id="Path_80317" data-name="Path 80317" d="M3.911,47.746a.422.422,0,0,0-.422-.422H1.482a.423.423,0,0,0,0,.845H3.489A.423.423,0,0,0,3.911,47.746Z" transform="translate(0 -39.457)" fill="#fff"/>
      <path id="Path_80318" data-name="Path 80318" d="M9.689,25.031l-1.738-1a.422.422,0,0,0-.422.73l1.738,1a.424.424,0,0,0,.211.055.421.421,0,0,0,.21-.785Z" transform="translate(-5.288 -19.724)" fill="#fff"/>
      <path id="Path_80319" data-name="Path 80319" d="M9.267,64.27l-1.738,1a.421.421,0,0,0-.154.576.417.417,0,0,0,.365.21A.406.406,0,0,0,7.951,66l1.738-1a.422.422,0,1,0-.422-.731Z" transform="translate(-5.288 -53.727)" fill="#fff"/>
      <path id="Path_80320" data-name="Path 80320" d="M77.43,25.819a.428.428,0,0,0,.211-.056l1.738-1a.423.423,0,0,0-.422-.732l-1.738,1a.421.421,0,0,0,.211.786Z" transform="translate(-64.17 -19.727)" fill="#fff"/>
      <path id="Path_80321" data-name="Path 80321" d="M48.186,3.475a.422.422,0,0,0,.422-.421V1.046a.422.422,0,0,0-.844,0V3.054A.422.422,0,0,0,48.186,3.475Z" transform="translate(-39.461)" fill="#fff"/>
      <path id="Path_80322" data-name="Path 80322" d="M64.862,9.405a.413.413,0,0,0,.21.055.418.418,0,0,0,.366-.21l1-1.739a.421.421,0,1,0-.73-.421l-1,1.738A.421.421,0,0,0,64.862,9.405Z" transform="translate(-53.729 -5.285)" fill="#fff"/>
      <path id="Path_80323" data-name="Path 80323" d="M83.963,47.332H81.956a.422.422,0,0,0,0,.844h2.008a.422.422,0,0,0,0-.844Z" transform="translate(-67.994 -39.464)" fill="#fff"/>
      <path id="Path_80324" data-name="Path 80324" d="M28.423,32.037a4.05,4.05,0,1,0-4.049-4.049A4.05,4.05,0,0,0,28.423,32.037Z" transform="translate(-19.698 -19.696)" fill="#fff"/>
      <path id="Path_80325" data-name="Path 80325" d="M79.38,65.274l-1.738-1a.422.422,0,1,0-.421.731l1.738,1a.4.4,0,0,0,.21.058.423.423,0,0,0,.212-.788Z" transform="translate(-64.171 -53.727)" fill="#fff"/>
      <path id="Path_80326" data-name="Path 80326" d="M26.048,76.639a.421.421,0,0,0-.575.154l-1,1.739a.421.421,0,0,0,.153.576.41.41,0,0,0,.211.058.422.422,0,0,0,.367-.213l1-1.738A.42.42,0,0,0,26.048,76.639Z" transform="translate(-19.731 -64.178)" fill="#fff"/>
      <path id="Path_80327" data-name="Path 80327" d="M65.437,76.793a.422.422,0,0,0-.73.421l1,1.74a.421.421,0,0,0,.365.212.4.4,0,0,0,.211-.058.421.421,0,0,0,.154-.576Z" transform="translate(-53.729 -64.178)" fill="#fff"/>
      <path id="Path_80328" data-name="Path 80328" d="M48.186,81.107a.422.422,0,0,0-.422.423v2.008a.422.422,0,0,0,.843,0V81.53A.422.422,0,0,0,48.186,81.107Z" transform="translate(-39.461 -68.001)" fill="#fff"/>
    </g>
  </g>
</svg>
