<svg xmlns="http://www.w3.org/2000/svg" width="20.666" height="20.666" viewBox="533.85 386.85 20.666 20.666"><g data-name="hospital (2)"><g data-name="Group 45518"><g data-name="Path 79877"><path d="M552.364 399.766h-1.723a.43.43 0 0 1 0-.86h1.723a.43.43 0 0 1 0 .86Z" fill="#27b793" fill-rule="evenodd"/><path d="M552.364 399.766h-1.723a.43.43 0 0 1 0-.86h1.723a.43.43 0 0 1 0 .86Z" stroke-linejoin="round" stroke-linecap="round" stroke-width=".3" stroke="#27b793" fill="transparent"/></g></g><g data-name="Group 45517"><g data-name="Path 79876"><path d="M552.364 402.35h-1.723a.43.43 0 0 1 0-.861h1.723a.43.43 0 0 1 0 .86Z" fill="#27b793" fill-rule="evenodd"/><path d="M552.364 402.35h-1.723a.43.43 0 0 1 0-.861h1.723a.43.43 0 0 1 0 .86Z" stroke-linejoin="round" stroke-linecap="round" stroke-width=".3" stroke="#27b793" fill="transparent"/></g></g><g data-name="Group 45516"><g data-name="Path 79875"><path d="M552.364 404.933h-1.723a.43.43 0 0 1 0-.861h1.723a.43.43 0 0 1 0 .861Z" fill="#27b793" fill-rule="evenodd"/><path d="M552.364 404.933h-1.723a.43.43 0 0 1 0-.861h1.723a.43.43 0 0 1 0 .861Z" stroke-linejoin="round" stroke-linecap="round" stroke-width=".3" stroke="#27b793" fill="transparent"/></g></g><g data-name="Group 45515"><g data-name="Path 79874"><path d="M537.725 399.766h-1.722a.43.43 0 0 1 0-.86h1.722a.43.43 0 0 1 0 .86Z" fill="#27b793" fill-rule="evenodd"/><path d="M537.725 399.766h-1.722a.43.43 0 0 1 0-.86h1.722a.43.43 0 0 1 0 .86Z" stroke-linejoin="round" stroke-linecap="round" stroke-width=".3" stroke="#27b793" fill="transparent"/></g></g><g data-name="Group 45514"><g data-name="Path 79873"><path d="M537.725 402.35h-1.722a.43.43 0 0 1 0-.861h1.722a.43.43 0 0 1 0 .86Z" fill="#27b793" fill-rule="evenodd"/><path d="M537.725 402.35h-1.722a.43.43 0 0 1 0-.861h1.722a.43.43 0 0 1 0 .86Z" stroke-linejoin="round" stroke-linecap="round" stroke-width=".3" stroke="#27b793" fill="transparent"/></g></g><g data-name="Group 45513"><g data-name="Path 79872"><path d="M537.725 404.933h-1.722a.43.43 0 0 1 0-.861h1.722a.43.43 0 0 1 0 .861Z" fill="#27b793" fill-rule="evenodd"/><path d="M537.725 404.933h-1.722a.43.43 0 0 1 0-.861h1.722a.43.43 0 0 1 0 .861Z" stroke-linejoin="round" stroke-linecap="round" stroke-width=".3" stroke="#27b793" fill="transparent"/></g></g><g data-name="Group 45512"><g data-name="Path 79871"><path d="M546.336 398.905h-4.306a.43.43 0 0 1 0-.86h4.306a.43.43 0 0 1 0 .86Z" fill="#27b793" fill-rule="evenodd"/><path d="M546.336 398.905h-4.306a.43.43 0 0 1 0-.86h4.306a.43.43 0 0 1 0 .86Z" stroke-linejoin="round" stroke-linecap="round" stroke-width=".3" stroke="#27b793" fill="transparent"/></g></g><g data-name="Group 45511"><g data-name="Path 79870"><path d="M546.336 396.322h-4.306a.43.43 0 0 1 0-.861h4.306a.43.43 0 0 1 0 .861Z" fill="#27b793" fill-rule="evenodd"/><path d="M546.336 396.322h-4.306a.43.43 0 0 1 0-.861h4.306a.43.43 0 0 1 0 .861Z" stroke-linejoin="round" stroke-linecap="round" stroke-width=".3" stroke="#27b793" fill="transparent"/></g></g><g data-name="Group 45510"><g data-name="Path 79869"><path d="M546.336 407.516a.43.43 0 0 1-.43-.43v-3.014c0-.95-.773-1.722-1.723-1.722-.95 0-1.722.772-1.722 1.722v3.014a.43.43 0 0 1-.861 0v-3.014a2.586 2.586 0 0 1 2.583-2.583 2.586 2.586 0 0 1 2.583 2.583v3.014a.43.43 0 0 1-.43.43Z" fill="#27b793" fill-rule="evenodd"/><path d="M546.336 407.516a.43.43 0 0 1-.43-.43v-3.014c0-.95-.773-1.722-1.723-1.722-.95 0-1.722.772-1.722 1.722v3.014a.43.43 0 0 1-.861 0v-3.014a2.586 2.586 0 0 1 2.583-2.583 2.586 2.586 0 0 1 2.583 2.583v3.014a.43.43 0 0 1-.43.43Z" stroke-linejoin="round" stroke-linecap="round" stroke-width=".3" stroke="#27b793" fill="transparent"/></g></g><g data-name="Group 45509"><g data-name="Path 79868"><path d="M545.475 392.017h-2.584a.43.43 0 0 1 0-.862h2.584a.43.43 0 0 1 0 .862Z" fill="#27b793" fill-rule="evenodd"/><path d="M545.475 392.017h-2.584a.43.43 0 0 1 0-.862h2.584a.43.43 0 0 1 0 .862Z" stroke-linejoin="round" stroke-linecap="round" stroke-width=".3" stroke="#27b793" fill="transparent"/></g></g><g data-name="Group 45508"><g data-name="Path 79867"><path d="M545.475 393.739a.43.43 0 0 1-.43-.43v-3.445a.43.43 0 0 1 .86 0v3.444a.43.43 0 0 1-.43.43Z" fill="#27b793" fill-rule="evenodd"/><path d="M545.475 393.739a.43.43 0 0 1-.43-.43v-3.445a.43.43 0 0 1 .86 0v3.444a.43.43 0 0 1-.43.43Z" stroke-linejoin="round" stroke-linecap="round" stroke-width=".3" stroke="#27b793" fill="transparent"/></g></g><g data-name="Group 45507"><g data-name="Path 79866"><path d="M542.891 393.739a.43.43 0 0 1-.43-.43v-3.445a.43.43 0 0 1 .861 0v3.444a.43.43 0 0 1-.43.43Z" fill="#27b793" fill-rule="evenodd"/><path d="M542.891 393.739a.43.43 0 0 1-.43-.43v-3.445a.43.43 0 0 1 .861 0v3.444a.43.43 0 0 1-.43.43Z" stroke-linejoin="round" stroke-linecap="round" stroke-width=".3" stroke="#27b793" fill="transparent"/></g></g><g data-name="Group 45506"><g data-name="Path 79865"><path d="M539.447 407.516h-4.305c-.712 0-1.292-.58-1.292-1.291v-8.408c0-.82.456-1.558 1.19-1.926l4.215-2.107a.43.43 0 1 1 .384.77l-4.215 2.107c-.44.22-.713.664-.713 1.156v8.408c0 .237.193.43.43.43h4.306a.43.43 0 0 1 0 .861Z" fill="#27b793" fill-rule="evenodd"/><path d="M539.447 407.516h-4.305c-.712 0-1.292-.58-1.292-1.291v-8.408c0-.82.456-1.558 1.19-1.926l4.215-2.107a.43.43 0 1 1 .384.77l-4.215 2.107c-.44.22-.713.664-.713 1.156v8.408c0 .237.193.43.43.43h4.306a.43.43 0 0 1 0 .861Z" stroke-linejoin="round" stroke-linecap="round" stroke-width=".3" stroke="#27b793" fill="transparent"/></g></g><g data-name="Group 45505"><g data-name="Path 79864"><path d="M553.225 407.516h-4.306a.43.43 0 0 1 0-.86h4.306a.43.43 0 0 0 .43-.431v-8.408c0-.492-.274-.934-.714-1.155l-4.215-2.107a.431.431 0 0 1 .385-.77l4.215 2.106a2.14 2.14 0 0 1 1.19 1.926v8.408c0 .712-.58 1.291-1.291 1.291Z" fill="#27b793" fill-rule="evenodd"/><path d="M553.225 407.516h-4.306a.43.43 0 0 1 0-.86h4.306a.43.43 0 0 0 .43-.431v-8.408c0-.492-.274-.934-.714-1.155l-4.215-2.107a.431.431 0 0 1 .385-.77l4.215 2.106a2.14 2.14 0 0 1 1.19 1.926v8.408c0 .712-.58 1.291-1.291 1.291Z" stroke-linejoin="round" stroke-linecap="round" stroke-width=".3" stroke="#27b793" fill="transparent"/></g></g><g data-name="Group 45504"><g data-name="Path 79863"><path d="M548.92 407.516h-9.473a.43.43 0 0 1-.43-.43v-18.083c0-1.187.966-2.153 2.152-2.153h6.028c1.187 0 2.153.966 2.153 2.153v18.083a.43.43 0 0 1-.43.43Zm-9.042-.86h8.61v-17.653c0-.712-.579-1.292-1.291-1.292h-6.028c-.712 0-1.291.58-1.291 1.292v17.652Z" fill="#27b793" fill-rule="evenodd"/><path d="M548.92 407.516h-9.473a.43.43 0 0 1-.43-.43v-18.083c0-1.187.966-2.153 2.152-2.153h6.028c1.187 0 2.153.966 2.153 2.153v18.083a.43.43 0 0 1-.43.43Zm-9.042-.86h8.61v-17.653c0-.712-.579-1.292-1.291-1.292h-6.028c-.712 0-1.291.58-1.291 1.292v17.652Z" stroke-linejoin="round" stroke-linecap="round" stroke-width=".3" stroke="#27b793" fill="transparent"/></g></g></g></svg>