<svg xmlns="http://www.w3.org/2000/svg" width="22.394" height="20.492" viewBox="0 0 22.394 20.492">
  <g id="hospital_1_" data-name="hospital (1)" transform="translate(-2 -21.239)">
    <path id="Path_79527" data-name="Path 79527" d="M22.2,31.7l-9.52-9.357a2.122,2.122,0,0,0-2.961,0L.2,31.7a.656.656,0,0,0,.92.936l.741-.728v7.47a2.859,2.859,0,0,0,2.856,2.856H17.681a2.859,2.859,0,0,0,2.856-2.856v-7.47l.741.728a.656.656,0,1,0,.92-.936Zm-2.973,7.678a1.545,1.545,0,0,1-1.543,1.543H4.712a1.545,1.545,0,0,1-1.543-1.543v-8.76l7.467-7.339a.79.79,0,0,1,.262-.171.806.806,0,0,1,.8.118.792.792,0,0,1,.06.053l7.467,7.339v8.76Z" transform="translate(2 -0.5)" fill="#27b793"/>
    <path id="Path_79528" data-name="Path 79528" d="M150.061,182.55v1.835h-1.835a.57.57,0,0,0-.57.57v2.276a.57.57,0,0,0,.57.57h1.835v1.835a.57.57,0,0,0,.57.57h2.276a.57.57,0,0,0,.57-.57V187.8h1.835a.57.57,0,0,0,.57-.57v-2.276a.57.57,0,0,0-.57-.57h-1.835V182.55a.57.57,0,0,0-.57-.57h-2.276A.57.57,0,0,0,150.061,182.55Zm1.141,2.406v-1.835h1.136v1.835a.57.57,0,0,0,.57.57h1.835v1.136h-1.835a.57.57,0,0,0-.57.57v1.835H151.2v-1.835a.57.57,0,0,0-.57-.57H148.8v-1.136h1.835A.57.57,0,0,0,151.2,184.956Z" transform="translate(-138.572 -152.002)" fill="#27b793"/>
  </g>
</svg>
