<svg xmlns="http://www.w3.org/2000/svg" width="12.667" height="12.667" viewBox="0 0 12.667 12.667">
  <g id="noun-info-2393057" transform="translate(-5 -5)">
    <circle id="Ellipse_3167" data-name="Ellipse 3167" cx="0.698" cy="0.698" r="0.698" transform="translate(10.635 7.594)" fill="#666"/>
    <path id="Path_100297" data-name="Path 100297" d="M37.859,43.57V40.644c0-.723-1.278-.949-2.21.254a3.07,3.07,0,0,0-.592,1.373c.674-.868,1.4-1.437,1.4-.6v2.926c0,.723,1.278.949,2.21-.254a3.069,3.069,0,0,0,.592-1.373C38.59,43.834,37.859,44.4,37.859,43.57Z" transform="translate(-25.828 -30.115)" fill="#666"/>
    <path id="Path_100298" data-name="Path 100298" d="M11.333,5a6.333,6.333,0,1,0,6.333,6.333A6.333,6.333,0,0,0,11.333,5Zm0,11.681a5.348,5.348,0,1,1,5.348-5.348,5.348,5.348,0,0,1-5.348,5.348Z" fill="#666"/>
  </g>
</svg>
