<svg xmlns="http://www.w3.org/2000/svg" width="28.25" height="24.78" viewBox="0 0 28.25 24.78">
  <path id="Integrative" d="M18.729,27.945l.248,9.3H7.719V34.938a6.268,6.268,0,0,1,.49-1.417,5.031,5.031,0,0,1,.745-1.134,2.845,2.845,0,0,1,1.216-.829q.381-.125,1-.372t1.381-.562q.763-.317,1.609-.682l1.679-.726c.557-.244,1.084-.471,1.58-.69S18.353,28.114,18.729,27.945Zm6.54.127V25.946a1.916,1.916,0,0,1,.09-.466c.061-.21.128-.429.2-.662.085-.265.176-.55.274-.85a9.534,9.534,0,0,0,.825-2.21,10.91,10.91,0,0,0,.3-2.588,10.862,10.862,0,0,0-.391-3.133,5.669,5.669,0,0,0-1.074-2.073,4.018,4.018,0,0,0-1.58-1.144A5.153,5.153,0,0,0,22,12.466a5.081,5.081,0,0,0-1.934.363,3.985,3.985,0,0,0-1.571,1.164,5.816,5.816,0,0,0-1.064,2.07,10.683,10.683,0,0,0-.392,3.107,11.044,11.044,0,0,0,.309,2.644,9.57,9.57,0,0,0,.837,2.224c.1.279.181.54.253.78.062.207.119.409.175.609s.093.35.117.445v2.073L22,29.37Zm10.7,6.868a5.8,5.8,0,0,0-.472-1.417,5.041,5.041,0,0,0-.745-1.134,2.847,2.847,0,0,0-1.238-.829c-.242-.084-.555-.2-.944-.362l-1.306-.534c-.485-.2-1-.416-1.538-.646s-1.07-.46-1.6-.691l-1.535-.672q-.743-.327-1.325-.582l-.524,9.175H35.969V34.939Zm-13.232-2,1.439-1.44a.71.71,0,0,0,0-1l-1.9-.814h-.72L19.51,30.5a.713.713,0,0,0,0,1l1.44,1.44L20.3,37.246h3.078Z" transform="translate(-7.719 -12.466)" fill="#b070cb" fill-rule="evenodd"/>
</svg>
