<svg xmlns="http://www.w3.org/2000/svg" width="24.915" height="24.915" viewBox="-173.911 556.95 24.915 24.915"><g data-name="CompositeLayer"><g data-name="Group 47694"><path d="M-173.911 569.358a12.458 12.458 0 1 1 0 .1z" fill="#108fe5" fill-rule="evenodd" data-name="Ellipse 6"/></g><g data-name="noun-delete-1633547"><path d="M-162.935 568.224a.465.465 0 0 0-.474.474v4.28c0 .269.206.474.474.474a.51.51 0 0 0 .474-.474v-4.28a.51.51 0 0 0-.474-.474Z" fill="#fff" fill-rule="evenodd" data-name="Path 94645"/><path d="M-160.345 568.224a.51.51 0 0 0-.474.474v4.28a.51.51 0 0 0 .474.474.465.465 0 0 0 .474-.474v-4.28a.465.465 0 0 0-.474-.474Z" fill="#fff" fill-rule="evenodd" data-name="Path 94646"/><path d="M-156.254 565.887h-2.733v-.458c0-.695-.568-1.264-1.263-1.264h-2.78c-.695 0-1.263.569-1.263 1.264v.458h-2.732a.465.465 0 0 0-.474.474c-.016.252.19.458.442.474h.869l.505 7.77c.032.663.584 1.2 1.263 1.184h5.56a1.241 1.241 0 0 0 1.263-1.184l.506-7.77h.837c.252.015.458-.19.473-.443v-.031a.465.465 0 0 0-.473-.474Zm-7.092-.458c0-.174.143-.316.316-.316h2.78c.174 0 .316.142.316.316v.458h-3.412v-.458Zm4.802 9.113a.3.3 0 0 1-.3.3h-5.576c-.157.016-.3-.11-.315-.284v-.016l-.49-7.707h7.17l-.49 7.707Z" fill="#fff" fill-rule="evenodd" data-name="Path 94647"/></g></g></svg>