<svg xmlns="http://www.w3.org/2000/svg" xmlns:xlink="http://www.w3.org/1999/xlink" width="24" height="24" viewBox="0 0 24 24">
  <defs>
    <clipPath id="clip-path">
      <rect id="Rectangle_23" data-name="Rectangle 23" width="12.754" height="14.8" fill="none"/>
    </clipPath>
  </defs>
  <g id="Zen_Success_Stories" data-name="Zen Success Stories" transform="translate(1123 -276)">
    <g id="AboutUs" transform="translate(-2570 92)">
      <g id="Complimentary" transform="translate(-19 46)">
        <g id="Group_47958" data-name="Group 47958" transform="translate(1444 -182)">
          <rect id="Rectangle_20" data-name="Rectangle 20" width="24" height="24" rx="12" transform="translate(22 320)" fill="#9b26af"/>
        </g>
      </g>
    </g>
    <g id="Group_47963" data-name="Group 47963" transform="translate(-1117.377 279.6)">
      <g id="Group_47962" data-name="Group 47962" clip-path="url(#clip-path)">
        <path id="Path_80313" data-name="Path 80313" d="M0,13.959,6.941,4.075C5.254,6.146,3.7,8.317,2.19,10.514a1.612,1.612,0,0,1-.765-1.458l.544.136,0-.027c-.144-.136-.289-.27-.43-.408a.338.338,0,0,1-.081-.341A5.986,5.986,0,0,1,2.342,6.4c.046-.072.094-.142.168-.255A2.328,2.328,0,0,0,2.8,7.329a5.748,5.748,0,0,1,1.845-3.79A2.046,2.046,0,0,0,4.626,5.03a5.886,5.886,0,0,1,.137-.669c.155-.469.327-.934.506-1.395a.52.52,0,0,1,.2-.224c.409-.261.825-.512,1.238-.766a.191.191,0,0,1,.058-.008c-.089.272.22.5.018.783l.055,0c.04-.082.077-.165.121-.244.125-.226.248-.453.38-.675A2.789,2.789,0,0,1,7.856,1.2C8.212.874,8.54.514,8.878.165A1.286,1.286,0,0,0,8.99,0a4.987,4.987,0,0,1,.325,1.33c.005.041-.034.093-.063.132a2.647,2.647,0,0,0-.243.377l.326-.259c.009.1.022.162.021.228-.006.362-.007.723-.028,1.084a.632.632,0,0,1-.112.309A6.949,6.949,0,0,1,7.591,4.892a5.412,5.412,0,0,0,1.556-.869.914.914,0,0,1-.008.131A9.391,9.391,0,0,1,8.012,6.975a.561.561,0,0,1-.174.169A3.251,3.251,0,0,1,5.7,7.713a.687.687,0,0,0,.415.359,2.078,2.078,0,0,0,.951.024l.263-.034c-.092.135-.159.25-.241.352-.362.451-.736.892-1.091,1.348a.936.936,0,0,1-.83.354c-.272-.009-.544-.042-.834-.038l.824.41a2.476,2.476,0,0,1-1.714.49,3.478,3.478,0,0,1-.618-.138.136.136,0,0,0-.187.071c-.348.592-.7,1.184-1.048,1.772a.583.583,0,0,1-.179.174c-.269.178-.543.348-.827.529.242.272.439.525.669.742a1.049,1.049,0,0,0,1.194.208,1.815,1.815,0,0,0,.484-.353,1.954,1.954,0,0,1,.807-.531A1.494,1.494,0,0,1,5.2,13.8c.13.118.254.243.389.356a1.1,1.1,0,0,0,1.438.014c.152-.123.288-.266.437-.395a1.486,1.486,0,0,1,2-.007c.157.134.3.285.461.414a1.1,1.1,0,0,0,1.39,0c.125-.1.238-.215.357-.321a1.645,1.645,0,0,1,.945-.46c.031,0,.062-.007.093-.007a.234.234,0,0,1,.053.015v.341a1.587,1.587,0,0,0-1.017.548,1.533,1.533,0,0,1-1.518.443,1.51,1.51,0,0,1-.677-.391c-.122-.112-.238-.231-.366-.335a1.108,1.108,0,0,0-1.439.006c-.139.116-.265.246-.4.366A1.488,1.488,0,0,1,5.3,14.4c-.124-.109-.24-.228-.365-.336a1.114,1.114,0,0,0-1.522-.009c-.142.12-.271.255-.412.376a1.472,1.472,0,0,1-1.934.018,5.752,5.752,0,0,1-.443-.453,1.685,1.685,0,0,0-.113-.127.248.248,0,0,0-.388.019A.634.634,0,0,0,.046,14L0,13.959" transform="translate(0 0.001)" fill="#fff"/>
      </g>
    </g>
  </g>
</svg>
