<svg xmlns="http://www.w3.org/2000/svg" width="24" height="24" viewBox="0 0 24 24">
  <g id="Leaderboard" transform="translate(0 -0.138)">
    <rect id="Rectangle_16" data-name="Rectangle 16" width="24" height="24" rx="12" transform="translate(0 0.138)" fill="#3e51b5"/>
    <g id="noun-leaderboard-3777182" transform="translate(0.803 1.638)">
      <path id="Path_80189" data-name="Path 80189" d="M25.563,6.413,26,6.537a2.168,2.168,0,0,0,1.227.854v.264a.881.881,0,0,1-.87.885h-.093a.139.139,0,0,0-.14.14v.575a.139.139,0,0,0,.14.14h3.074a.139.139,0,0,0,.14-.14V8.68a.139.139,0,0,0-.14-.14h-.093a.868.868,0,0,1-.87-.87V7.407a1.96,1.96,0,0,0,.994-.575c.078-.078.14-.171.233-.279l.435-.109a2.507,2.507,0,0,0,1.848-2.407V3.571a.3.3,0,0,0-.3-.3H30.315V2.8a.3.3,0,0,0-.3-.3H25.563a.3.3,0,0,0-.3.3v.5H24a.3.3,0,0,0-.3.3v.435A2.489,2.489,0,0,0,25.563,6.413Zm4.72-2.36h.807a1.734,1.734,0,0,1-1.056,1.553A5.6,5.6,0,0,0,30.284,4.053Zm-5,0a6.171,6.171,0,0,0,.248,1.553,1.734,1.734,0,0,1-1.056-1.553Z" transform="translate(-16.388)" fill="#fff"/>
      <path id="Path_80190" data-name="Path 80190" d="M18.073,55.609H14.859V53.419A.418.418,0,0,0,14.439,53H8.353a.418.418,0,0,0-.419.419v2.189H4.719a.418.418,0,0,0-.419.419v3.478a.417.417,0,0,0,.419.419H18.073a.417.417,0,0,0,.419-.419V56.028A.418.418,0,0,0,18.073,55.609Zm-4.953.745-.652.59a.157.157,0,0,0-.047.14l.171.87a.245.245,0,0,1-.357.264l-.761-.435a.116.116,0,0,0-.14,0l-.761.435a.242.242,0,0,1-.357-.264l.171-.87a.125.125,0,0,0-.047-.14l-.652-.59a.252.252,0,0,1,.14-.435l.87-.093a.146.146,0,0,0,.124-.093l.357-.807a.251.251,0,0,1,.45,0l.357.807a.161.161,0,0,0,.124.093l.87.093A.252.252,0,0,1,13.12,56.354Z" transform="translate(0 -42.659)" fill="#fff"/>
    </g>
  </g>
</svg>
