<svg xmlns="http://www.w3.org/2000/svg" width="19.621" height="16.756" viewBox="-1101 13720.001 19.621 16.756"><path d="M-1095.613 13720c-.904 0-1.803.231-2.6.67a5.401 5.401 0 0 0-2.787 4.723c0 .561.09 1.12.267 1.658.872 3.92 8.269 8.876 9.547 9.706 1.276-.83 8.664-5.784 9.53-9.672.187-.573.277-1.13.277-1.692a5.412 5.412 0 0 0-2.789-4.724 5.322 5.322 0 0 0-2.602-.67c-1.609 0-3.12.713-4.146 1.953l-.27.328-.27-.326a5.393 5.393 0 0 0-4.157-1.954Z" fill="#ff6d6c" fill-rule="evenodd" data-name="Path 100398"/></svg>