<svg xmlns="http://www.w3.org/2000/svg" width="24" height="24" viewBox="0 0 24 24">
  <g id="Group_47850" data-name="Group 47850" transform="translate(-23 -320)">
    <rect id="Rectangle_7" data-name="Rectangle 7" width="24" height="24" rx="4" transform="translate(23 320)" fill="#009588"/>
    <g id="noun-location-4869868" transform="translate(25 323.01)">
      <path id="Path_80144" data-name="Path 80144" d="M14.479,3.375A6.274,6.274,0,0,0,9.848,1a6.455,6.455,0,0,0-4.8,1.817A6.6,6.6,0,0,0,3,7.634c0,4.929,3.751,7.9,5.365,9a2.115,2.115,0,0,0,1.178.356,2.181,2.181,0,0,0,1.207-.363,11.338,11.338,0,0,0,5.234-7.459,7.27,7.27,0,0,0-1.5-5.794ZM9.543,9.721A2.181,2.181,0,1,1,11.723,7.54,2.181,2.181,0,0,1,9.543,9.721Z" transform="translate(0 0)" fill="#fff"/>
    </g>
  </g>
</svg>
