<svg xmlns="http://www.w3.org/2000/svg" width="80.093" height="80.097" viewBox="0 0 80.093 80.097">
  <g id="Group_189" data-name="Group 189" transform="translate(-1069.676 -656.516)">
    <path id="Path_49" data-name="Path 49" d="M1112.068,656.516c1.544.208,3.1.337,4.63.637q20.19,3.976,29.273,22.46a36.769,36.769,0,0,1,3.752,18.179c-.711,14.465-7.281,25.581-19.593,33.186a37.062,37.062,0,0,1-22.089,5.562c-15.031-.911-26.278-8.066-33.654-21.183a37.069,37.069,0,0,1-4.578-15.774,5.387,5.387,0,0,0-.133-.675v-4.693a5.378,5.378,0,0,0,.133-.674,37.674,37.674,0,0,1,4.571-15.772c6.23-11.279,15.691-18.186,28.366-20.621,1.527-.293,3.086-.425,4.63-.632Zm-2.327,3.446a36.6,36.6,0,1,0,36.581,36.635A36.629,36.629,0,0,0,1109.741,659.962Z" fill="#19ceab"/>
    <path id="Path_50" data-name="Path 50" d="M1207.484,792.644c-3,0-6,.018-8.993-.005a6.09,6.09,0,0,1-6.179-4.739,8.153,8.153,0,0,1-.215-2.01c-.017-4.9,0-9.8-.013-14.7a6.414,6.414,0,0,1,3.073-5.869,1.177,1.177,0,0,0,.365-.833,49.341,49.341,0,0,1,.3-5.369,11.779,11.779,0,0,1,23.321,2.485c0,.991-.031,1.983.02,2.971a1.1,1.1,0,0,0,.431.786,6.282,6.282,0,0,1,3.357,5.78c.028,4.979.047,9.958,0,14.936-.041,3.972-2.722,6.554-6.7,6.567C1213.323,792.651,1210.4,792.644,1207.484,792.644Zm-.094-3.446c3,0,5.995.012,8.992,0a2.8,2.8,0,0,0,3.01-2.968q.013-7.546-.029-15.091a2.847,2.847,0,0,0-3.149-3.078q-8.875-.008-17.75,0a2.731,2.731,0,0,0-3.04,2.978q-.03,7.546,0,15.091a2.8,2.8,0,0,0,3.131,3.071C1201.5,789.2,1204.445,789.2,1207.39,789.2Zm8.3-24.722c0-1.474.073-2.881-.014-4.279a8.33,8.33,0,0,0-7.036-7.594,8.444,8.444,0,0,0-9.087,5.258c-.823,2.143-.5,4.362-.566,6.615Z" transform="translate(-97.644 -74.313)" fill="#19ceab"/>
    <path id="Path_51" data-name="Path 51" d="M1254.85,874.411a6.48,6.48,0,0,0-.016-1.17,2.516,2.516,0,0,0-.423-1.084,2.734,2.734,0,0,1,.218-3.752,2.826,2.826,0,0,1,3.952.023,2.733,2.733,0,0,1,.145,3.751,2.021,2.021,0,0,0-.413,1.083c-.06.856,0,1.72-.025,2.58a1.726,1.726,0,1,1-3.435-.022C1254.838,875.349,1254.851,874.88,1254.85,874.411Z" transform="translate(-146.849 -168.386)" fill="#19ceab"/>
  </g>
</svg>
