<svg xmlns="http://www.w3.org/2000/svg" width="24" height="24" viewBox="0 0 24 24">
  <g id="Group_47854" data-name="Group 47854" transform="translate(-23 -540)">
    <path id="Path_80150" data-name="Path 80150" d="M4,0H20a4,4,0,0,1,4,4V20a4,4,0,0,1-4,4H4a4,4,0,0,1-4-4V4A4,4,0,0,1,4,0Z" transform="translate(23 540)" fill="#f24236"/>
    <g id="noun-logout-3542488" transform="translate(-7.925 543.471)">
      <path id="Path_80149" data-name="Path 80149" d="M39.576.529l2.207,1.1a5.034,5.034,0,0,1,2.782,4.495v7.2a2.411,2.411,0,0,0,2.363-2.393v-3.2H48.2l-.238.238a.8.8,0,1,0,1.128,1.128l1.558-1.56a.8.8,0,0,0,.014-1.2l-.008-.008L49.089,4.764A.8.8,0,0,0,47.961,5.9l.23.23H46.928v-3.2a2.415,2.415,0,0,0-2.4-2.4Zm-2.958.62a1.819,1.819,0,0,0-1.692,1.778v7.814a3.7,3.7,0,0,0,2.036,3.308l3.374,1.683a1.811,1.811,0,0,0,2.586-1.6v-8A3.39,3.39,0,0,0,41.05,3.1L37.512,1.326a1.709,1.709,0,0,0-.894-.177Z" fill="#fff"/>
    </g>
  </g>
</svg>
