<svg xmlns="http://www.w3.org/2000/svg" width="74.446" height="139.434" viewBox="150 105 74.446 139.434"><g data-name="Logo"><g data-name="Group 2"><path d="M218.13 122.26c-.452-.68-1.496-1.572-1.783-2.33 2.658 7.058-4.292 16.58-4.292 16.58-2.55 3.139-5.542 5.833-8.676 8.23-10.06 7.683-22.234 10.914-31.873 19.273-11.805 10.233-17.224 22.448-20.2 38.423-2.258 12.128-1.705 26.766 2.582 38.274-.646-1.736.82-6.642 1.116-8.553.4-2.55.881-5.09 1.567-7.57 1.819-6.54 5.178-13.142 9.383-18.238 5.173-6.28 12.6-8.994 19.212-12.8 3.544-2.043 6.96-4.358 10.243-6.883 11.12-8.548 23.094-19.396 27.632-33.957 2.453-7.887 1.526-16.374-1.485-23.79-.938-2.33-2.07-4.594-3.427-6.658Z" fill="#108fe5" fill-rule="evenodd" data-name="Path 3"/><path d="M169.929 162.19c4.502-3.903 9.526-6.73 14.515-9.312a34.589 34.589 0 0 0 2.617-1.802c-2.617-1.998-.66-.374-3.104-2.587-4.717-4.271-8.922-8.942-12.538-14.192-3.933-5.71-4.794-13.378-.128-19.073 1.112-1.358 2.715-2.74 4.282-3.524 1.521-.758 3.626-1.26 5.337-1.178 1.808.092 3.539.676 5.162 1.454.615.292 6.275 3.806 6.264 3.816v.149l1.511-1.66a29.412 29.412 0 0 1 2.192-1.828c1.87-1.404 4.38-2.827 7.027-3.309 3.77-.522 8.16.902 12.077 7.37 0 0-.322-2.627-2.407-5.557h.005c-.748-1.188-1.69-2.192-2.78-3.052a8.12 8.12 0 0 0-.795-.548c-.005 0-.005-.005-.01-.005 0 0-.272-.185-.768-.41-4.093-1.946-9.399-.395-12.779 2.376-.323.267-3.54 2.96-3.278 3.524-.896-1.962-3.693-3.437-5.388-4.569-2.479-1.654-4.901-2.458-7.82-3.011-1.793-.338-3.632-.384-5.41.072-7.82 2.002-13.946 10.566-16.686 17.664-1.936 5.025-2.643 10.433-1.966 15.765.768 6.049 2.975 11.488 5.254 17.065.287.702 4.871 10.858 5.373 10.367 0 0 .123-.123.338-.323a63.764 63.764 0 0 1 3.903-3.682Z" fill="#19ceab" fill-rule="evenodd" data-name="Path 2"/><path d="m187.23 195.122 33.47 49.312c4.328-11.457 1.537-27.919 1.537-27.919-1.629-15.964-11.77-34.315-13.752-37.777-3.841 3.693-7.857 6.96-11.6 9.839a98.143 98.143 0 0 1-9.655 6.545Z" fill="#19ceab" fill-rule="evenodd" data-name="Path 1"/></g></g></svg>