<svg xmlns="http://www.w3.org/2000/svg" width="121" height="21.695" viewBox="0 0 121 21.695">
  <g id="Group_48467" data-name="Group 48467" transform="translate(-10256 -5895.944)">
    <g id="Group_48387" data-name="Group 48387" transform="translate(10256.032 5895.944)">
      <path id="Path_100284" data-name="Path 100284" d="M42.2,86.137l5.208,7.672a10.037,10.037,0,0,0,.239-4.344,17.475,17.475,0,0,0-2.14-5.878,21.435,21.435,0,0,1-1.8,1.531,15.063,15.063,0,0,1-1.5,1.019" transform="translate(-36.406 -72.114)" fill="#19ceab"/>
      <path id="Path_100285" data-name="Path 100285" d="M7.8,8.9A11.282,11.282,0,0,1,10.063,7.45c.143-.09.28-.183.407-.281a3.062,3.062,0,0,1-.483-.4A12.672,12.672,0,0,1,8.036,4.559a2.445,2.445,0,0,1-.02-2.968,2.188,2.188,0,0,1,.667-.548A1.816,1.816,0,0,1,9.512.86a2.111,2.111,0,0,1,.8.227c.1.046.976.592.975.594V1.7l.235-.258a4.388,4.388,0,0,1,.341-.284A2.726,2.726,0,0,1,12.96.646c.587-.081,1.269.14,1.879,1.147a2.094,2.094,0,0,0-.375-.865h0a1.879,1.879,0,0,0-.433-.475A1.26,1.26,0,0,0,13.91.368h0A.86.86,0,0,0,13.788.3,1.976,1.976,0,0,0,11.8.673c-.05.041-.55.46-.51.548-.14-.305-.575-.535-.839-.711A3.1,3.1,0,0,0,9.235.041a1.931,1.931,0,0,0-.841.011A4.467,4.467,0,0,0,5.8,2.8a5.05,5.05,0,0,0-.306,2.453,10.485,10.485,0,0,0,.818,2.655,9.55,9.55,0,0,0,.836,1.613l.052-.05q.287-.294.607-.572" transform="translate(-4.704 0)" fill="#19ceab"/>
      <path id="Path_100286" data-name="Path 100286" d="M10.6,17.3a2.533,2.533,0,0,1-.277-.363c.413,1.1-.668,2.579-.668,2.579a7.9,7.9,0,0,1-1.35,1.28c-1.565,1.2-3.459,1.7-4.959,3A9.622,9.622,0,0,0,.2,29.769a11.8,11.8,0,0,0,.4,5.956,4.243,4.243,0,0,1,.174-1.331,10.414,10.414,0,0,1,.244-1.178,7.923,7.923,0,0,1,1.46-2.838,9.762,9.762,0,0,1,2.99-1.992,14.494,14.494,0,0,0,1.594-1.071c1.73-1.33,3.594-3.017,4.3-5.284a5.533,5.533,0,0,0-.231-3.7A5.972,5.972,0,0,0,10.6,17.3" transform="translate(0 -14.608)" fill="#108fe5"/>
    </g>
    <path id="Path_100287" data-name="Path 100287" d="M136.7,17.7h10.556v1.217l-7.122,10.066h7.122v2.453H136.526V29.946l6.965-9.811H136.7Z" transform="translate(10138.214 5880.671)" fill="#108fe5"/>
    <path id="Path_100288" data-name="Path 100288" d="M225.618,51.132c.157,1.2,1.2,2.06,2.884,2.06a3.991,3.991,0,0,0,2.59-.9l1.53,1.511a5.941,5.941,0,0,1-4.16,1.57c-3.336,0-5.317-2.06-5.317-5.16a4.841,4.841,0,0,1,5.141-5.062c3.238,0,5.258,2,4.886,5.985Zm5.258-1.982a2.216,2.216,0,0,0-2.512-1.884,2.606,2.606,0,0,0-2.708,1.884Z" transform="translate(10063.484 5856.994)" fill="#108fe5"/>
    <path id="Path_100289" data-name="Path 100289" d="M316.376,55.978V50.916a2.308,2.308,0,0,0-2.335-2.59,2.545,2.545,0,0,0-2.472,2.708v4.945H309.2V46.285h2.139l.157,1.315a4.363,4.363,0,0,1,3.179-1.452c2.276,0,4.1,1.707,4.1,4.748v5.082Z" transform="translate(9989.247 5856.13)" fill="#108fe5"/>
    <path id="Path_100290" data-name="Path 100290" d="M404.92,22.922c-.039,3.551-2.217,7.1-7.044,7.1s-7.064-3.473-7.064-7.083,2.315-7.24,7.064-7.24c4.729,0,7.083,3.63,7.044,7.221m-11.557.059c.059,2.256,1.275,4.67,4.513,4.67s4.454-2.433,4.493-4.689c.039-2.315-1.256-4.905-4.493-4.905s-4.572,2.61-4.513,4.925" transform="translate(9918.832 5882.398)" fill="#19ceab"/>
    <path id="Path_100291" data-name="Path 100291" d="M512.914,55.978V50.916a2.308,2.308,0,0,0-2.335-2.59,2.545,2.545,0,0,0-2.472,2.708v4.945h-2.374V46.285h2.139l.157,1.315a4.363,4.363,0,0,1,3.179-1.452c2.276,0,4.1,1.707,4.1,4.748v5.082Z" transform="translate(9819.686 5856.13)" fill="#19ceab"/>
    <path id="Path_100292" data-name="Path 100292" d="M595.219,54a4.977,4.977,0,0,1-3.728,1.53,4.8,4.8,0,0,1-5.141-5.121,4.8,4.8,0,0,1,5.141-5.121,4.594,4.594,0,0,1,3.492,1.432l-1.511,1.589a2.938,2.938,0,0,0-1.942-.765,2.721,2.721,0,0,0-2.786,2.865,2.636,2.636,0,0,0,2.747,2.826,2.907,2.907,0,0,0,2.119-.8Z" transform="translate(9750.135 5856.87)" fill="#19ceab"/>
    <path id="Path_100293" data-name="Path 100293" d="M666.883,50.9a5.033,5.033,0,1,1-5.062-5.043,4.89,4.89,0,0,1,5.062,5.043m-7.672,0a2.637,2.637,0,1,0,5.259,0,2.732,2.732,0,0,0-2.629-2.865,2.658,2.658,0,0,0-2.629,2.865" transform="translate(9689.341 5856.377)" fill="#19ceab"/>
    <path id="Path_100294" data-name="Path 100294" d="M744.545,99.971a1.413,1.413,0,0,1-2.825,0,1.413,1.413,0,0,1,2.825,0" transform="translate(9616.092 5810.901)" fill="#108fe5"/>
    <path id="Path_100295" data-name="Path 100295" d="M777.992,18.636a1.413,1.413,0,0,1-2.825,0,1.413,1.413,0,0,1,2.825,0m-2.61,12.4h2.394V21.324h-2.394Z" transform="translate(9587.235 5881.072)" fill="#108fe5"/>
    <path id="Path_100296" data-name="Path 100296" d="M818.249,50.9a5.033,5.033,0,1,1-5.062-5.043,4.89,4.89,0,0,1,5.062,5.043m-7.672,0a2.637,2.637,0,1,0,5.259,0,2.732,2.732,0,0,0-2.63-2.865,2.658,2.658,0,0,0-2.629,2.865" transform="translate(9558.752 5856.377)" fill="#108fe5"/>
    <rect id="Rectangle_8876" data-name="Rectangle 8876" width="121" height="21.695" transform="translate(10256 5895.944)" fill="none"/>
  </g>
</svg>
