<svg xmlns="http://www.w3.org/2000/svg" width="74.446" height="139.434" viewBox="90.96 -100.213 74.446 139.434"><g data-name="Group 2"><path d="M157.307-85.282a1.577 1.577 0 0 0 .023.057c.316.745 1.32 1.609 1.76 2.273a37.827 37.827 0 0 1 3.426 6.658 38.321 38.321 0 0 1 2.89 14.33c0 3.178-.442 6.366-1.405 9.46-4.07 13.06-14.121 23.132-24.172 31.237a189.508 189.508 0 0 1-3.46 2.72 93.218 93.218 0 0 1-10.243 6.884 126.597 126.597 0 0 1-4.743 2.555c-.917.477-1.836.955-2.75 1.443a37.071 37.071 0 0 0-11.718 8.801 50.86 50.86 0 0 0-9.162 17.469 47.59 47.59 0 0 0-.221.77 67.49 67.49 0 0 0-1.567 7.57c-.298 1.91-1.762 6.816-1.117 8.553-4.287-11.509-4.84-26.147-2.581-38.275a106.79 106.79 0 0 1 1.679-7.567 57.953 57.953 0 0 1 18.52-30.856 81.09 81.09 0 0 1 16.946-10.485c5.121-2.609 10.253-5.218 14.927-8.788 3.134-2.397 6.126-5.09 8.676-8.23a9.092 9.092 0 0 0 .09-.127c.668-.952 4.808-7.093 4.808-12.913a9.995 9.995 0 0 0-.606-3.54Z" fill="#108fe5" fill-rule="evenodd" data-name="Path 3"/><path d="M133.297-89.42v.148l1.51-1.66A29.412 29.412 0 0 1 137-92.76a22.288 22.288 0 0 1 .12-.09c1.856-1.374 4.315-2.747 6.907-3.219a10.258 10.258 0 0 1 1.408-.098c3.318 0 6.985 1.678 10.336 6.933a27.5 27.5 0 0 1 .333.535 3.511 3.511 0 0 0-.024-.149c-.082-.48-.415-2.058-1.475-3.968a15.243 15.243 0 0 0-.909-1.44h.005c-.747-1.188-1.69-2.192-2.78-3.052a8.12 8.12 0 0 0-.794-.548.006.006 0 0 1-.002 0c-.003-.001-.004-.004-.006-.005a.006.006 0 0 0-.002 0s-.198-.134-.564-.313a7.725 7.725 0 0 0-.205-.097c-1.582-.752-3.346-.982-5.11-.82a14.587 14.587 0 0 0-7.669 3.196 17.55 17.55 0 0 0-.081.068c-.592.495-3.414 2.9-3.2 3.448a.145.145 0 0 0 .004.008c-.897-1.961-3.693-3.436-5.389-4.568-2.478-1.655-4.901-2.459-7.82-3.012a14.406 14.406 0 0 0-2.666-.262 11.008 11.008 0 0 0-2.743.334 20.453 20.453 0 0 0-9.662 6.266c-3.135 3.403-5.562 7.61-7.024 11.399a32.813 32.813 0 0 0-2.217 11.793c0 1.323.082 2.65.25 3.971a57.182 57.182 0 0 0 4.006 13.98 342.135 342.135 0 0 0 1.249 3.086 11.407 11.407 0 0 0 .093.217c.7 1.6 4.604 10.166 5.237 10.166a.058.058 0 0 0 .042-.017s.123-.123.338-.323a63.764 63.764 0 0 1 3.903-3.682 68.197 68.197 0 0 1 13.116-8.58c.146-.078.292-.154.438-.23a203.415 203.415 0 0 1 .961-.501 34.589 34.589 0 0 0 2.617-1.803c-2.493-1.904-.835-.52-2.786-2.299a128.297 128.297 0 0 0-.317-.288 81.434 81.434 0 0 1-12.538-14.192 18.225 18.225 0 0 1-3.288-9.503c-.115-2.913.585-5.825 2.304-8.412a14.367 14.367 0 0 1 .856-1.158c1.11-1.357 2.714-2.74 4.281-3.524 1.412-.704 3.328-1.187 4.964-1.187a7.805 7.805 0 0 1 .373.01 13.629 13.629 0 0 1 5.163 1.454 3.209 3.209 0 0 1 .159.083c1.02.565 5.396 3.277 6.028 3.682a1.158 1.158 0 0 1 .077.05Z" fill="#19ceab" fill-rule="evenodd" data-name="Path 2"/><path d="m128.19-10.09 33.47 49.311a36.549 36.549 0 0 0 1.921-8.005c1.283-9.58-.29-19.34-.38-19.89a6.64 6.64 0 0 0-.004-.023 57.209 57.209 0 0 0-1.118-6.708c-3.103-13.802-10.66-27.603-12.54-30.906a79.145 79.145 0 0 0-.094-.164 112.293 112.293 0 0 1-4.556 4.137 152.794 152.794 0 0 1-5.316 4.36 210.094 210.094 0 0 1-1.728 1.342 99.448 99.448 0 0 1-6.888 4.84 94.447 94.447 0 0 1-2.767 1.705Z" fill="#19ceab" fill-rule="evenodd" data-name="Path 1"/></g></svg>