<svg id="Logo" xmlns="http://www.w3.org/2000/svg" width="222.4" height="57.067" viewBox="0 0 222.4 57.067">
  <g id="Group_2" data-name="Group 2" transform="translate(0)">
    <path id="Path_1" data-name="Path 1" d="M81.34,164.566l13.7,20.182c1.771-4.689.629-11.426.629-11.426-.667-6.534-4.817-14.044-5.628-15.461a56.549,56.549,0,0,1-4.748,4.027A40.168,40.168,0,0,1,81.34,164.566Z" transform="translate(-66.103 -127.681)" fill="#19ceab"/>
    <path id="Path_2" data-name="Path 2" d="M24.229,37.295a29.607,29.607,0,0,1,5.941-3.811c.375-.237.736-.48,1.071-.738a8.068,8.068,0,0,1-1.27-1.059,33.329,33.329,0,0,1-5.131-5.809,6.432,6.432,0,0,1-.052-7.806,5.783,5.783,0,0,1,1.752-1.442,4.8,4.8,0,0,1,2.184-.482,5.578,5.578,0,0,1,2.113.6c.252.119,2.568,1.557,2.564,1.562v.061l.618-.679c.241-.222.547-.484.9-.748a7.143,7.143,0,0,1,2.876-1.354c1.543-.214,3.339.369,4.943,3.016a5.5,5.5,0,0,0-.985-2.274h0a4.94,4.94,0,0,0-1.138-1.249,3.325,3.325,0,0,0-.325-.224s0,0,0,0a2.313,2.313,0,0,0-.314-.168,5.2,5.2,0,0,0-5.23.973c-.132.109-1.448,1.212-1.342,1.442-.367-.8-1.511-1.407-2.205-1.87A8.171,8.171,0,0,0,27.992,14a5.088,5.088,0,0,0-2.214.029c-3.2.82-5.708,4.324-6.829,7.23a13.294,13.294,0,0,0-.8,6.452,27.606,27.606,0,0,0,2.151,6.984c.117.287,1.993,4.444,2.2,4.243,0,0,.05-.05.138-.132Q23.386,38.025,24.229,37.295Z" transform="translate(-16.073 -13.889)" fill="#19ceab"/>
    <path id="Path_3" data-name="Path 3" d="M36.533,43.994a6.653,6.653,0,0,1-.729-.954c1.088,2.889-1.757,6.785-1.757,6.785A20.815,20.815,0,0,1,30.5,53.194c-4.117,3.144-9.1,4.467-13.045,7.888C12.62,65.27,10.4,70.269,9.184,76.807a31.05,31.05,0,0,0,1.056,15.665c-.264-.711.335-2.719.457-3.5a27.621,27.621,0,0,1,.641-3.1,20.834,20.834,0,0,1,3.84-7.464c2.117-2.57,5.157-3.681,7.863-5.238a38.148,38.148,0,0,0,4.192-2.817c4.551-3.5,9.452-7.938,11.309-13.9a14.556,14.556,0,0,0-.608-9.737A15.482,15.482,0,0,0,36.533,43.994Z" transform="translate(-8.65 -36.929)" fill="#108fe5"/>
  </g>
  <g id="Group_3" data-name="Group 3" transform="translate(39.79 11.666)">
    <path id="Path_4" data-name="Path 4" d="M198.74,71.54h16.12V73.4L203.983,88.768H214.86v3.746H198.47V90.238l10.638-14.981H198.74Z" transform="translate(-198.47 -71.121)" fill="#108fe5"/>
    <path id="Path_5" data-name="Path 5" d="M288.875,108.137c.239,1.828,1.828,3.146,4.4,3.146a6.093,6.093,0,0,0,3.956-1.379l2.337,2.308a9.071,9.071,0,0,1-6.351,2.4c-5.094,0-8.121-3.146-8.121-7.88,0-4.494,3.056-7.731,7.85-7.731,4.945,0,8.03,3.056,7.46,9.139H288.875Zm8.03-3.027c-.239-1.918-1.738-2.876-3.836-2.876a3.981,3.981,0,0,0-4.136,2.876Z" transform="translate(-266.941 -92.825)" fill="#108fe5"/>
    <path id="Path_6" data-name="Path 6" d="M382.107,115V107.27c0-2.247-1.228-3.955-3.566-3.955a3.887,3.887,0,0,0-3.775,4.136V115H371.14V100.2h3.266l.239,2.008A6.666,6.666,0,0,1,379.5,99.99c3.475,0,6.263,2.608,6.263,7.251V115Z" transform="translate(-334.945 -93.607)" fill="#108fe5"/>
    <path id="Path_7" data-name="Path 7" d="M474.3,80.566c-.061,5.423-3.385,10.848-10.758,10.848S452.76,86.11,452.76,80.6,456.3,69.54,463.547,69.54C470.768,69.54,474.365,75.084,474.3,80.566Zm-17.648.09c.09,3.446,1.947,7.131,6.892,7.131s6.8-3.717,6.861-7.161c.061-3.536-1.918-7.492-6.861-7.492S456.567,77.122,456.657,80.656Z" transform="translate(-399.456 -69.54)" fill="#19ceab"/>
    <path id="Path_8" data-name="Path 8" d="M578.647,115V107.27c0-2.247-1.228-3.955-3.566-3.955a3.887,3.887,0,0,0-3.775,4.136V115H567.68V100.2h3.266l.239,2.008a6.666,6.666,0,0,1,4.855-2.218c3.475,0,6.263,2.608,6.263,7.251V115Z" transform="translate(-490.287 -93.607)" fill="#19ceab"/>
    <path id="Path_9" data-name="Path 9" d="M661.843,112.434a7.6,7.6,0,0,1-5.693,2.337c-4.285,0-7.85-2.576-7.85-7.821s3.566-7.821,7.85-7.821a7.013,7.013,0,0,1,5.333,2.186l-2.308,2.427a4.483,4.483,0,0,0-2.966-1.168,4.156,4.156,0,0,0-4.255,4.375,4.024,4.024,0,0,0,4.195,4.314,4.439,4.439,0,0,0,3.236-1.228Z" transform="translate(-554.008 -92.927)" fill="#19ceab"/>
    <path id="Path_10" data-name="Path 10" d="M734.141,107.4a7.686,7.686,0,1,1-7.731-7.7A7.468,7.468,0,0,1,734.141,107.4Zm-11.716,0c0,2.247,1.348,4.345,4.014,4.345s4.016-2.1,4.016-4.345a4.171,4.171,0,0,0-4.016-4.375C723.8,103.027,722.426,105.184,722.426,107.4Z" transform="translate(-609.706 -93.378)" fill="#19ceab"/>
    <path id="Path_11" data-name="Path 11" d="M807.984,154.55a2.157,2.157,0,0,1-4.314,0A2.157,2.157,0,0,1,807.984,154.55Z" transform="translate(-676.809 -135.043)" fill="#108fe5"/>
    <path id="Path_12" data-name="Path 12" d="M841.434,73.21a2.157,2.157,0,0,1-4.314,0A2.157,2.157,0,0,1,841.434,73.21Zm-3.985,4.106V92.149H841.1V77.316Z" transform="translate(-703.248 -70.753)" fill="#108fe5"/>
    <path id="Path_13" data-name="Path 13" d="M885.5,107.4a7.686,7.686,0,1,1-7.731-7.7A7.468,7.468,0,0,1,885.5,107.4Zm-11.716,0c0,2.247,1.348,4.345,4.014,4.345s4.016-2.1,4.016-4.345a4.171,4.171,0,0,0-4.016-4.375C875.165,103.027,873.786,105.184,873.786,107.4Z" transform="translate(-729.338 -93.378)" fill="#108fe5"/>
  </g>
  <g id="Group_5" data-name="Group 5" transform="translate(77.745 39.939)">
    <g id="Group_4" data-name="Group 4">
      <path id="Path_14" data-name="Path 14" d="M379.54,215.907V205.42H381.5v10.487Z" transform="translate(-379.54 -205.21)" fill="#515151"/>
      <path id="Path_15" data-name="Path 15" d="M402.384,227.146v-3.865A1.761,1.761,0,0,0,400.6,221.3a1.943,1.943,0,0,0-1.889,2.067v3.775H396.9v-7.4h1.633l.12,1a3.333,3.333,0,0,1,2.427-1.109c1.738,0,3.132,1.3,3.132,3.626v3.88Z" transform="translate(-393.261 -216.45)" fill="#515151"/>
      <path id="Path_16" data-name="Path 16" d="M437.987,210.28v2.1h2.038v1.572h-2.052v3.19a.917.917,0,0,0,.958,1.048,2.1,2.1,0,0,0,.885-.224l.509,1.557a4.074,4.074,0,0,1-1.513.314,2.386,2.386,0,0,1-2.652-2.7v-3.19H434.78v-1.572h1.379v-1.9Z" transform="translate(-423.201 -209.052)" fill="#515151"/>
      <path id="Path_17" data-name="Path 17" d="M466.609,223.7c.119.914.914,1.572,2.2,1.572a3.047,3.047,0,0,0,1.977-.69l1.168,1.153a4.537,4.537,0,0,1-3.176,1.2,3.9,3.9,0,1,1-.134-7.806c2.471,0,4.014,1.528,3.731,4.57h-5.769Zm4.016-1.513a1.693,1.693,0,0,0-1.918-1.438,1.988,1.988,0,0,0-2.067,1.438Z" transform="translate(-446.865 -216.047)" fill="#515151"/>
      <path id="Path_18" data-name="Path 18" d="M512.361,216.64l1.348,1.019-.824,1.048a3.145,3.145,0,0,1,.78,2.186,2.929,2.929,0,0,1-1.557,2.756,2.486,2.486,0,0,1,1.528,2.442c0,2.037-1.557,3.3-3.7,3.3s-3.746-1.3-3.746-3.3H508a1.744,1.744,0,0,0,1.933,1.589c1.048,0,1.872-.57,1.872-1.589s-.958-1.484-1.872-1.484a3.456,3.456,0,0,1-3.746-3.717,3.6,3.6,0,0,1,3.746-3.746,2.95,2.95,0,0,1,1.694.419ZM508,220.9a1.929,1.929,0,1,0,3.851,0,1.931,1.931,0,1,0-3.851,0Z" transform="translate(-479.642 -214.079)" fill="#515151"/>
      <path id="Path_19" data-name="Path 19" d="M549.1,219.475l.134.853a2.176,2.176,0,0,1,2.081-1.048,2.8,2.8,0,0,1,1.9.7l-.824,1.589a1.828,1.828,0,0,0-1.318-.48,1.7,1.7,0,0,0-1.843,1.872v3.895H547.41v-7.387H549.1Z" transform="translate(-512.222 -216.165)" fill="#515151"/>
      <path id="Path_20" data-name="Path 20" d="M582.763,219.53h1.752v7.387h-1.723l-.09-1.08a2.808,2.808,0,0,1-2.4,1.3,3.9,3.9,0,0,1,.046-7.791,2.711,2.711,0,0,1,2.352,1.2Zm-4.436,3.687a2.116,2.116,0,0,0,2.188,2.247c2.876,0,2.876-4.48,0-4.48A2.1,2.1,0,0,0,578.328,223.217Z" transform="translate(-535.214 -216.22)" fill="#515151"/>
      <path id="Path_21" data-name="Path 21" d="M620.8,210.28v2.1h2.037v1.572h-2.052v3.19a.917.917,0,0,0,.958,1.048,2.1,2.1,0,0,0,.885-.224l.509,1.557a4.074,4.074,0,0,1-1.513.314,2.386,2.386,0,0,1-2.652-2.7v-3.19H617.59v-1.572h1.379v-1.9Z" transform="translate(-567.69 -209.052)" fill="#515151"/>
      <path id="Path_22" data-name="Path 22" d="M650.487,206.255a1.079,1.079,0,0,1-2.157,0A1.079,1.079,0,0,1,650.487,206.255Zm-1.991,2.052v7.416h1.828v-7.416Z" transform="translate(-591.987 -205.027)" fill="#515151"/>
      <path id="Path_23" data-name="Path 23" d="M670.984,220.14l-3.146,7.431h-1.977L662.7,220.14h1.993l1.019,2.442,1.138,3.117,1.124-3.086,1.019-2.471h1.991Z" transform="translate(-603.345 -216.845)" fill="#515151"/>
      <path id="Path_24" data-name="Path 24" d="M706.757,223.7c.12.914.914,1.572,2.2,1.572a3.047,3.047,0,0,0,1.977-.69l1.17,1.153a4.537,4.537,0,0,1-3.176,1.2,3.9,3.9,0,1,1-.134-7.806c2.471,0,4.014,1.528,3.731,4.57h-5.771Zm4.014-1.513a1.693,1.693,0,0,0-1.918-1.438,1.988,1.988,0,0,0-2.067,1.438Z" transform="translate(-636.675 -216.047)" fill="#515151"/>
      <path id="Path_25" data-name="Path 25" d="M771.732,209.933a5.386,5.386,0,1,1-10.772.015,5.388,5.388,0,1,1,10.772-.015Zm-8.825.044a3.441,3.441,0,1,0,6.878-.015,3.452,3.452,0,1,0-6.878.015Z" transform="translate(-681.008 -204.42)" fill="#515151"/>
      <path id="Path_26" data-name="Path 26" d="M823.9,227.146v-3.865a1.761,1.761,0,0,0-1.784-1.977,1.942,1.942,0,0,0-1.887,2.067v3.775H818.42v-7.4h1.633l.119,1a3.333,3.333,0,0,1,2.427-1.109c1.738,0,3.132,1.3,3.132,3.626v3.88Z" transform="translate(-726.423 -216.45)" fill="#515151"/>
      <path id="Path_27" data-name="Path 27" d="M865.5,225.879a3.8,3.8,0,0,1-2.847,1.17,3.909,3.909,0,1,1,0-7.819,3.507,3.507,0,0,1,2.666,1.094l-1.153,1.214a2.243,2.243,0,0,0-1.484-.585,2.078,2.078,0,0,0-2.128,2.186,2.012,2.012,0,0,0,2.1,2.157,2.223,2.223,0,0,0,1.618-.614Z" transform="translate(-758.283 -216.126)" fill="#515151"/>
      <path id="Path_28" data-name="Path 28" d="M901.646,223.351a3.843,3.843,0,1,1-3.865-3.851A3.733,3.733,0,0,1,901.646,223.351Zm-5.859,0a2.014,2.014,0,1,0,4.016,0,2.085,2.085,0,0,0-2.008-2.186A2.028,2.028,0,0,0,895.788,223.351Z" transform="translate(-786.128 -216.339)" fill="#515151"/>
      <path id="Path_29" data-name="Path 29" d="M938.443,205.49v10.473H936.63V205.49Z" transform="translate(-819.854 -205.266)" fill="#515151"/>
      <path id="Path_30" data-name="Path 30" d="M958.967,223.351A3.843,3.843,0,1,1,955.1,219.5,3.733,3.733,0,0,1,958.967,223.351Zm-5.859,0a2.014,2.014,0,1,0,4.016,0,2.085,2.085,0,0,0-2.008-2.186A2.028,2.028,0,0,0,953.108,223.351Z" transform="translate(-831.433 -216.339)" fill="#515151"/>
      <path id="Path_31" data-name="Path 31" d="M998.341,216.64l1.348,1.019-.824,1.048a3.145,3.145,0,0,1,.78,2.186,2.929,2.929,0,0,1-1.557,2.756,2.485,2.485,0,0,1,1.528,2.442c0,2.037-1.557,3.3-3.7,3.3s-3.746-1.3-3.746-3.3h1.813a1.744,1.744,0,0,0,1.933,1.589c1.048,0,1.872-.57,1.872-1.589s-.958-1.484-1.872-1.484a3.456,3.456,0,0,1-3.746-3.717,3.6,3.6,0,0,1,3.746-3.746,2.95,2.95,0,0,1,1.694.419Zm-4.36,4.255a1.929,1.929,0,1,0,3.851,0,1.931,1.931,0,1,0-3.851,0Z" transform="translate(-863.752 -214.079)" fill="#515151"/>
      <path id="Path_32" data-name="Path 32" d="M1039.129,220.21l-4.509,10.473h-2.008l1.379-3.205-2.951-7.265h2.127l1.124,3.19.7,2.084.763-2.037,1.348-3.236h2.023Z" transform="translate(-894.474 -216.9)" fill="#515151"/>
    </g>
  </g>
</svg>
