<svg xmlns="http://www.w3.org/2000/svg" width="39.565" height="63.455" viewBox="0 0 39.565 63.455">
  <g id="MediZen" transform="translate(-14.668 -12)">
    <g id="Group_48244" data-name="Group 48244" transform="translate(14.668 12)">
      <g id="Group_47677" data-name="Group 47677" transform="translate(0 0)">
        <g id="Group_47374" data-name="Group 47374">
          <g id="Group_47372" data-name="Group 47372">
            <g id="Group_47555" data-name="Group 47555">
              <rect id="Rectangle_8656" data-name="Rectangle 8656" width="33.023" height="11.838" rx="4" transform="translate(3.427)" fill="#49aef2"/>
              <path id="Path_94715" data-name="Path 94715" d="M1.558,0H37.073a1.558,1.558,0,0,1,0,3.115H1.558A1.558,1.558,0,1,1,1.558,0Z" transform="translate(0.623 10.592)" fill="#49aef2"/>
              <g id="Rectangle_8659" data-name="Rectangle 8659" transform="translate(5.452 13.396)" fill="#fff" stroke="#a8a8a8" stroke-width="0.5">
                <rect width="28.973" height="8.1" stroke="none"/>
                <rect x="0.25" y="0.25" width="28.473" height="7.6" fill="none"/>
              </g>
              <g id="Rectangle_8658" data-name="Rectangle 8658" transform="translate(0 17.446)" fill="#fff" stroke="#a8a8a8" stroke-width="0.5">
                <rect width="39.565" height="42.68" rx="6" stroke="none"/>
                <rect x="0.25" y="0.25" width="39.065" height="42.18" rx="5.75" fill="none"/>
              </g>
            </g>
          </g>
          <g id="Path_94775" data-name="Path 94775" transform="translate(0 24.3)" fill="#19ceab">
            <path d="M 39.31483459472656 19.06511688232422 L 0.2500053942203522 19.06511688232422 L 0.2500053942203522 0.2499965280294418 L 39.31483459472656 0.2499965280294418 L 39.31483459472656 19.06511688232422 Z" stroke="none"/>
            <path d="M 0.4999961853027344 0.4999961853027344 L 0.4999961853027344 18.81511688232422 L 39.06482696533203 18.81511688232422 L 39.06482696533203 0.4999961853027344 L 0.4999961853027344 0.4999961853027344 M -3.814697265625e-06 -3.814697265625e-06 L 39.56482696533203 -3.814697265625e-06 L 39.56482696533203 19.31511688232422 L -3.814697265625e-06 19.31511688232422 L -3.814697265625e-06 -3.814697265625e-06 Z" stroke="none" fill="#a8a8a8"/>
          </g>
          <path id="Intersection_1" data-name="Intersection 1" d="M31.607,10.423H3.434a6.06,6.06,0,0,1-2-3.4H30.164V0a6.067,6.067,0,0,1,2.2,10.423h-.762Z" transform="translate(2.044 0.175)" opacity="0.05"/>
          <g id="Subtraction_4" data-name="Subtraction 4" transform="translate(32.491 10.598)" opacity="0.05">
            <path d="M 5.094899654388428 2.495199918746948 L 1.729503870010376 2.495199918746948 C 1.899936556816101 2.201276540756226 1.997599601745605 1.860411286354065 1.997599601745605 1.497599959373474 C 1.997599601745605 1.134496092796326 1.900227904319763 0.793725848197937 1.730210781097412 0.4999999701976776 L 5.094899654388428 0.4999999701976776 C 5.644979476928711 0.4999999701976776 6.092499732971191 0.9475199580192566 6.092499732971191 1.497599959373474 C 6.092499732971191 2.047679901123047 5.644979476928711 2.495199918746948 5.094899654388428 2.495199918746948 Z" stroke="none"/>
            <path d="M 5.094899654388428 1.995199918746948 C 5.369279861450195 1.995199918746948 5.592499732971191 1.771979928016663 5.592499732971191 1.497599959373474 C 5.592499732971191 1.223219990730286 5.369279861450195 0.9999999403953552 5.094899654388428 0.9999999403953552 L 2.447810888290405 0.9999999403953552 C 2.480442762374878 1.160812854766846 2.497599601745605 1.327301740646362 2.497599601745605 1.497599959373474 C 2.497599601745605 1.667854785919189 2.480380535125732 1.834323763847351 2.44762110710144 1.995199918746948 L 5.094899654388428 1.995199918746948 M 5.094899654388428 2.995199918746948 L 0.007119628135114908 2.995199918746948 C 0.8289696574211121 2.991339921951294 1.497599601745605 2.320420026779175 1.497599601745605 1.497599959373474 C 1.497599601745605 0.6718199849128723 0.8257796168327332 -4.062652436687131e-08 -3.71932969756017e-07 -4.062652436687131e-08 L 5.094899654388428 -4.062652436687131e-08 C 5.920679569244385 -4.062652436687131e-08 6.592499732971191 0.6718199849128723 6.592499732971191 1.497599959373474 C 6.592499732971191 2.323379993438721 5.920679569244385 2.995199918746948 5.094899654388428 2.995199918746948 Z" stroke="none" fill="#e5e5e5"/>
          </g>
          <g id="Group_47376" data-name="Group 47376" transform="translate(15.527 13.708)" opacity="0.02">
            <path id="Subtraction_12" data-name="Subtraction 12" d="M4.385,46.73A19.769,19.769,0,0,1,0,46.239,19.543,19.543,0,0,0,15.267,27.077v-3.5a19.561,19.561,0,0,0-7.448-15.4h2.575V0h8.771V8.169H16.59a19.561,19.561,0,0,1,7.447,15.4v3.5a19.524,19.524,0,0,1-5.756,13.9A19.524,19.524,0,0,1,4.385,46.73Z" transform="translate(0 0)"/>
          </g>
          <g id="noun-leaf-4809070" transform="translate(12.782 27.13)">
            <path id="Path_94258" data-name="Path 94258" d="M5.013,49.9a17.29,17.29,0,0,0-.929,1.76.485.485,0,0,0,.244.635.223.223,0,0,0,.2.073.483.483,0,0,0,.44-.293,18.342,18.342,0,0,1,1.2-2.151L5.013,49.9Z" transform="translate(-4.047 -38.683)" fill="#fff"/>
            <path id="Path_94259" data-name="Path 94259" d="M16.578,4A8.542,8.542,0,0,0,8,12.5v2.713a19.347,19.347,0,0,1,7.234-7.258.487.487,0,0,1,.464.855,18.51,18.51,0,0,0-6.55,6.427H12.13a8.547,8.547,0,0,0,8.578-8.529V4Z" transform="translate(-7.034 -4)" fill="#fff"/>
          </g>
        </g>
      </g>
      <g id="Group_47715" data-name="Group 47715" transform="translate(4.836 48.501)">
        <g id="Group_47375" data-name="Group 47375" transform="translate(0)">
          <g id="Subtraction_5" data-name="Subtraction 5" transform="translate(0)" fill="#fff">
            <path d="M 16.57279968261719 14.70350074768066 L 7.47629976272583 14.70350074768066 C 3.491699934005737 14.70350074768066 0.2499998360872269 11.46180057525635 0.2499998360872269 7.477200508117676 C 0.2499998360872269 3.49211049079895 3.491699934005737 0.250000387430191 7.47629976272583 0.250000387430191 L 16.57279968261719 0.250000387430191 L 16.57279968261719 14.70350074768066 Z" stroke="none"/>
            <path d="M 16.32279968261719 14.45350074768066 L 16.32279968261719 0.5000003576278687 L 7.47629976272583 0.5000003576278687 C 3.629559755325317 0.5000003576278687 0.4999998509883881 3.629960298538208 0.4999998509883881 7.477200508117676 C 0.4999998509883881 11.32394027709961 3.629559755325317 14.45350074768066 7.47629976272583 14.45350074768066 L 16.32279968261719 14.45350074768066 M 16.82279968261719 14.95350074768066 L 7.47629976272583 14.95350074768066 C 3.3538498878479 14.95350074768066 -1.5869140668201e-07 11.59965038299561 -1.5869140668201e-07 7.477200508117676 C -1.5869140668201e-07 3.354260444641113 3.3538498878479 3.73840322254182e-07 7.47629976272583 3.73840322254182e-07 L 16.82279968261719 3.73840322254182e-07 L 16.82279968261719 14.95350074768066 Z" stroke="none" fill="#a8a8a8"/>
          </g>
          <g id="Subtraction_6" data-name="Subtraction 6" transform="translate(31.523 14.954) rotate(180)" fill="#49aef2">
            <path d="M 7.476649761199951 14.70362377166748 C 5.546399593353271 14.70362377166748 3.731639623641968 13.9518928527832 2.366689682006836 12.58690357208252 C 1.00171959400177 11.22189331054688 0.2499995827674866 9.40704345703125 0.2499995827674866 7.476663112640381 C 0.2499995827674866 5.546413421630859 1.00171959400177 3.731653213500977 2.366689682006836 2.366693258285522 C 3.73164963722229 1.001723289489746 5.546409606933594 0.250003308057785 7.476659774780273 0.250003308057785 L 15.6384391784668 0.250003308057785 L 15.6384391784668 14.703293800354 L 7.476649761199951 14.70362377166748 Z" stroke="none"/>
            <path d="M 7.476639747619629 14.45362377166748 L 15.3884391784668 14.45330333709717 L 15.3884391784668 0.5000033378601074 L 7.476659774780273 0.5000033378601074 C 5.613189697265625 0.5000033378601074 3.861209630966187 1.225723266601562 2.54345965385437 2.543463230133057 C 1.225719571113586 3.861213207244873 0.4999995827674866 5.613193511962891 0.4999995827674866 7.476663112640381 C 0.4999995827674866 9.340263366699219 1.225719571113586 11.09233283996582 2.543469667434692 12.41012287139893 C 3.861199617385864 13.72789287567139 5.613179683685303 14.45362377166748 7.476639747619629 14.45362377166748 M 15.8884391784668 14.95362377166748 L 7.476659774780273 14.95362377166748 C 5.47961950302124 14.95362377166748 3.602079629898071 14.17588329315186 2.189909696578979 12.76367378234863 C 0.7777295708656311 11.35145378112793 -4.107666029540269e-07 9.473823547363281 -4.107666029540269e-07 7.476663112640381 C -4.107666029540269e-07 5.479633331298828 0.7777295708656311 3.60209321975708 2.189909696578979 2.189913272857666 C 3.602099657058716 0.7777233123779297 5.479639530181885 3.316345100756735e-06 7.476659774780273 3.316345100756735e-06 L 15.8884391784668 3.316345100756735e-06 L 15.8884391784668 14.95362377166748 Z" stroke="none" fill="#a8a8a8"/>
          </g>
          <g id="Subtraction_11" data-name="Subtraction 11" transform="translate(0 5.296)" opacity="0.08">
            <path d="M 24.7913990020752 9.406998634338379 L 16.35569953918457 9.406998634338379 L 7.404299736022949 9.406998634338379 C 3.459409475326538 9.406998634338379 0.249999538064003 6.197999000549316 0.249999538064003 2.253598928451538 C 0.249999538064003 1.770035028457642 0.2983089089393616 1.290767669677734 0.3940263986587524 0.8215369582176208 C 1.605084300041199 3.589739084243774 4.330751895904541 5.39979887008667 7.404299736022949 5.39979887008667 L 16.35479927062988 5.39979887008667 L 25.30710029602051 5.39979887008667 C 28.37142944335938 5.39979887008667 31.09674072265625 3.594072341918945 32.31137466430664 0.8343158364295959 C 32.41108322143555 1.298803567886353 32.46139907836914 1.77379035949707 32.46139907836914 2.253598928451538 C 32.46139907836914 4.160408973693848 31.66584968566895 5.954838752746582 30.22130012512207 7.306338787078857 C 28.77254867553711 8.660948753356934 26.84416007995605 9.406998634338379 24.7913990020752 9.406998634338379 Z" stroke="none"/>
            <path d="M 24.7913990020752 9.156998634338379 C 26.7805290222168 9.156998634338379 28.64828872680664 8.43488883972168 30.05049896240234 7.123778820037842 C 31.44397926330566 5.820068836212158 32.21139907836914 4.090468883514404 32.21139907836914 2.253598928451538 C 32.21139907836914 2.050314664840698 32.2020263671875 1.847959995269775 32.183349609375 1.646956920623779 C 30.80006980895996 4.091576099395752 28.19987487792969 5.64979887008667 25.30710029602051 5.64979887008667 L 7.404299736022949 5.64979887008667 C 4.506705760955811 5.64979887008667 1.908532619476318 4.091963768005371 0.5265364646911621 1.645659804344177 C 0.5088672637939453 1.847205281257629 0.4999995529651642 2.049984693527222 0.4999995529651642 2.253598928451538 C 0.4999995529651642 6.0601487159729 3.597259521484375 9.156998634338379 7.404299736022949 9.156998634338379 L 24.7913990020752 9.156998634338379 M 24.7913990020752 9.656998634338379 L 7.404299736022949 9.656998634338379 C 3.321559429168701 9.656998634338379 -4.608154426932742e-07 6.335848808288574 -4.608154426932742e-07 2.253598928451538 C -4.608154426932742e-07 1.484798789024353 0.1179895401000977 0.7265688180923462 0.3506795465946198 -4.118682772968896e-05 C 1.337249517440796 3.080238819122314 4.171119689941406 5.14979887008667 7.404299736022949 5.14979887008667 L 25.30710029602051 5.14979887008667 C 28.52384948730469 5.14979887008667 31.35429954528809 3.093008756637573 32.35031890869141 0.03174881264567375 C 32.59054946899414 0.7488188147544861 32.71139907836914 1.496358871459961 32.71139907836914 2.253598928451538 C 32.71139907836914 4.230358600616455 31.88772010803223 6.089618682861328 30.39209938049316 7.488898754119873 C 28.89682006835938 8.887019157409668 26.90778923034668 9.656998634338379 24.7913990020752 9.656998634338379 Z" stroke="none" fill="#666"/>
          </g>
        </g>
        <text id="Medi_Zen" data-name="Medi Zen" transform="translate(14.344 9.383)" fill="#19ceab" font-size="5" font-family="Poppins-Medium, Poppins" font-weight="500"><tspan x="-11.313" y="0">Medi</tspan><tspan y="0" fill="#333"> </tspan><tspan y="0" fill="#fff">Zen</tspan></text>
      </g>
    </g>
  </g>
</svg>
