<svg xmlns="http://www.w3.org/2000/svg" width="24" height="24" viewBox="0 0 24 24">
  <g id="Medical_Records" data-name="Medical Records" transform="translate(1428 -654)">
    <g id="Group_47952" data-name="Group 47952">
      <path id="Path_80292" data-name="Path 80292" d="M12,0A12,12,0,1,1,0,12,12,12,0,0,1,12,0Z" transform="translate(-1428 654)" fill="#2096f3"/>
    </g>
    <path id="noun-clinical-3812113" d="M27.823,4.833H25.858V4.219a.554.554,0,0,0-.561-.561h-1.14a1.728,1.728,0,0,0-3.263,0h-1.14a.554.554,0,0,0-.561.561v.614h-1.93a.554.554,0,0,0-.561.561V18.605a.554.554,0,0,0,.561.561H27.84a.554.554,0,0,0,.561-.561V5.395A.581.581,0,0,0,27.823,4.833Zm-7.474-.053h1.035a.554.554,0,0,0,.561-.561.6.6,0,0,1,1.193,0,.554.554,0,0,0,.561.561h1.035V5.956H20.349V4.781Zm.368,5.386a.138.138,0,0,1-.14-.14V9.184a.138.138,0,0,1,.14-.14h1.263V7.781a.138.138,0,0,1,.14-.14h.842a.138.138,0,0,1,.14.14V9.044h1.263a.138.138,0,0,1,.14.14v.842a.138.138,0,0,1-.14.14H23.1V11.43a.138.138,0,0,1-.14.14h-.842a.138.138,0,0,1-.14-.14V10.167Zm5.3,6.456a.138.138,0,0,1-.14.14H19.209a.138.138,0,0,1-.14-.14v-.842a.138.138,0,0,1,.14-.14h6.667a.138.138,0,0,1,.14.14Zm0-2.474a.138.138,0,0,1-.14.14H19.209a.138.138,0,0,1-.14-.14v-.842a.138.138,0,0,1,.14-.14h6.667a.138.138,0,0,1,.14.14Z" transform="translate(-1438.401 654.767)" fill="#fff"/>
  </g>
</svg>
