<svg xmlns="http://www.w3.org/2000/svg" width="20.293" height="21.598"><path d="M13.302 15.373c2.366.401 4.799.028 6.935-1.066a.108.108 0 0 0 0-.189 11.339 11.339 0 0 0-5.635-1.35.103.103 0 0 1-.063-.192 11.442 11.442 0 0 0 4.367-5.663.108.108 0 0 0-.112-.14 11.523 11.523 0 0 0-6.234 2.91.108.108 0 0 1-.175-.103C13.509 4.736 10.76.747 10.239.045a.103.103 0 0 0-.17 0c-.522.702-3.27 4.691-2.164 9.517a.108.108 0 0 1-.175.104 11.523 11.523 0 0 0-6.23-2.92.108.108 0 0 0-.112.14 11.469 11.469 0 0 0 4.327 5.636.103.103 0 0 1-.059.193 11.348 11.348 0 0 0-5.6 1.38.103.103 0 0 0 0 .185 11.087 11.087 0 0 0 6.976 1.062.103.103 0 0 1 .081.188 7.799 7.799 0 0 0-2.199 2.825.108.108 0 0 0 .112.148 7.547 7.547 0 0 0 4.498-2.698.103.103 0 0 1 .189.063l-.162 5.622c0 .06.048.108.108.108h.98c.06 0 .108-.049.108-.108l-.162-5.622a.103.103 0 0 1 .19-.063 7.511 7.511 0 0 0 4.497 2.698.103.103 0 0 0 .112-.148 7.772 7.772 0 0 0-2.163-2.789.108.108 0 0 1 .081-.193Z" fill="#5cad37" fill-rule="evenodd" data-name="noun-cannabis-2221870"/></svg>