<svg xmlns="http://www.w3.org/2000/svg" width="36" height="36" viewBox="0 0 36 36">
  <g id="Meet_cancer_warriors" data-name="Meet cancer warriors" transform="translate(-412 54)">
    <circle id="Ellipse_3146" data-name="Ellipse 3146" cx="18" cy="18" r="18" transform="translate(412 -54)" fill="#f6bc00" opacity="0.7"/>
    <path id="noun-handshake-930646" d="M12.417,20.8a1.093,1.093,0,0,0-.282-.635,1.14,1.14,0,0,0-.611-.282.446.446,0,0,0-.353.094L9.6,21.556a.868.868,0,0,0-.235.376.582.582,0,0,0,.047.517.629.629,0,0,0,.165.188.921.921,0,0,0,.235.188.662.662,0,0,0,.423.094.827.827,0,0,0,.475-.238L12.3,21.108A.459.459,0,0,0,12.417,20.8Zm-1.646-1.571a1.093,1.093,0,0,0-.282-.635,1.135,1.135,0,0,0-.611-.282.446.446,0,0,0-.353.094L7.949,19.985a.87.87,0,0,0-.235.376.582.582,0,0,0,.047.517.63.63,0,0,0,.165.188.918.918,0,0,0,.235.188.663.663,0,0,0,.423.094.823.823,0,0,0,.475-.239l1.595-1.572A.459.459,0,0,0,10.771,19.232ZM22.99,13.8a5.367,5.367,0,0,0-6.3-4.515,6.531,6.531,0,0,0-3.8,1.908L9.881,14.13c1.156,1.142,2.194,1.142,3.083.535l2.257-2.21,6.226,6.192A6.214,6.214,0,0,0,22.99,13.8ZM15.2,13.465l-1.74,1.717c-.823.776-2.425,1.011-4.047-.423l-.643-.575,4.126-3.94a5.81,5.81,0,0,0-7.438.677A5.049,5.049,0,0,0,4.093,15.5a9.024,9.024,0,0,0,2.789,4.532l.478-.455c.047-.047.094-.07.118-.094l1.9-1.788a.618.618,0,0,1,.376-.118,1.485,1.485,0,0,1,1.105.329,1.952,1.952,0,0,1,.611,1.247,1.754,1.754,0,0,1,1.152.517,1.823,1.823,0,0,1,.494,1.129,1.756,1.756,0,0,1,1.152.517,2.072,2.072,0,0,1,.517,1.082,1.746,1.746,0,0,1,1.331.748c.11.167.627.144.933-.091a.907.907,0,0,0,.094-1.27l-4.021-3.951a.349.349,0,0,1,.494-.494L17.6,21.319a.779.779,0,0,0,1.364-.658,1.5,1.5,0,0,0-.282-.47L14.728,16.24a.349.349,0,0,1,.494-.494l4.021,4a.869.869,0,0,0,.682.259.8.8,0,0,0,.659-1.2Zm-.3,9.749a.5.5,0,0,0-.436.106l-1.623,1.552a.69.69,0,0,0-.141.611.961.961,0,0,0,.376.494.988.988,0,0,0,1.014-.084c.259-.211.875-.84,1.11-1.052.259-.259.51-.462.51-.815A.825.825,0,0,0,14.9,23.214Zm-.85-.627a1.1,1.1,0,0,0-.315-.7,1.022,1.022,0,0,0-.659-.306.411.411,0,0,0-.282.071l-1.552,1.529a.95.95,0,0,0-.235.423.835.835,0,0,0,.583.86.769.769,0,0,0,.781-.084l1.553-1.5A.344.344,0,0,0,14.049,22.587Z" transform="translate(417.011 -51.707)" fill="#fff"/>
  </g>
</svg>
