<svg xmlns="http://www.w3.org/2000/svg" xmlns:xlink="http://www.w3.org/1999/xlink" width="30" height="30" viewBox="0 0 30 30">
  <defs>
    <clipPath id="clip-path">
      <rect id="Rectangle_8889" data-name="Rectangle 8889" width="17.5" height="12.054" fill="none"/>
    </clipPath>
  </defs>
  <g id="Group_48465" data-name="Group 48465" transform="translate(-298 -26)">
    <g id="Group_48452" data-name="Group 48452" transform="translate(-11 -604)">
      <circle id="Ellipse_3133" data-name="Ellipse 3133" cx="15" cy="15" r="15" transform="translate(309 630)" fill="#57b0ed"/>
    </g>
    <g id="Group_48454" data-name="Group 48454" transform="translate(305.25 34.973)">
      <g id="Group_48453" data-name="Group 48453" clip-path="url(#clip-path)">
        <path id="Path_100321" data-name="Path 100321" d="M17.5.021c-.319.373-.6.708-.89,1.041-.723.842-1.449,1.682-2.166,2.529a.489.489,0,0,0-.083.3q-.007,3.582,0,7.163a.91.91,0,0,1-.994,1q-6.183,0-12.366,0a.941.941,0,0,1-1-1C.02,7.679.009,4.3.01.929A.85.85,0,0,1,.829.016,2.9,2.9,0,0,1,1.155,0h16c.1,0,.2.011.344.02M6.987,3.55q-1.98,0-3.96,0c-.167,0-.271.018-.261.232a10.885,10.885,0,0,1,0,1.131c-.014.233.075.277.283.276,1.487-.007,2.974,0,4.46,0,1.153,0,2.306,0,3.459,0,.174,0,.245-.042.237-.23-.014-.377-.02-.755,0-1.131.013-.231-.07-.279-.282-.278-1.313.008-2.625,0-3.938,0M5.858,8.586c.943,0,1.886,0,2.828,0,.2,0,.264-.058.255-.26-.016-.384-.013-.769,0-1.153.005-.171-.045-.233-.218-.227-.282.01-.566,0-.848,0-1.617,0-3.234,0-4.852,0-.2,0-.266.052-.257.256a11.007,11.007,0,0,1,0,1.109c-.013.233.08.277.287.275.935-.008,1.871,0,2.806,0" transform="translate(0 0)" fill="#fff"/>
      </g>
    </g>
  </g>
</svg>
