<svg xmlns="http://www.w3.org/2000/svg" width="36" height="36" viewBox="0 0 36 36">
  <g id="Message" transform="translate(-279 -52)">
    <g id="IconBg" transform="translate(279 52)">
      <circle id="IconBg-2" data-name="IconBg" cx="18" cy="18" r="18" fill="#e4e5ea"/>
    </g>
    <g id="comment-alt" transform="translate(287.625 61.75)">
      <path id="Path_92801" data-name="Path 92801" d="M15.625,0H3.125A3.125,3.125,0,0,0,0,3.125V12.5a3.125,3.125,0,0,0,3.125,3.125H5.391l3.477,2.94a.781.781,0,0,0,1.009,0l3.482-2.94h2.266A3.125,3.125,0,0,0,18.75,12.5V3.125A3.125,3.125,0,0,0,15.625,0Zm1.563,12.5a1.563,1.563,0,0,1-1.563,1.563H13.36a1.563,1.563,0,0,0-1.009.37L9.375,16.946,6.4,14.432h0a1.563,1.563,0,0,0-1.01-.37H3.125A1.563,1.563,0,0,1,1.563,12.5V3.125A1.563,1.563,0,0,1,3.125,1.563h12.5a1.563,1.563,0,0,1,1.563,1.563Z" stroke="#000" stroke-width="0.5"/>
      <path id="Path_92802" data-name="Path 92802" d="M6.781,6.563h3.906a.781.781,0,0,0,0-1.563H6.781a.781.781,0,0,0,0,1.563Z" transform="translate(-1.312 -1.094)" stroke="#000" stroke-width="0.5"/>
      <path id="Path_92803" data-name="Path 92803" d="M14.594,9H6.781a.781.781,0,0,0,0,1.563h7.813a.781.781,0,1,0,0-1.563Z" transform="translate(-1.312 -1.969)" stroke="#000" stroke-width="0.5"/>
      <path id="Path_92804" data-name="Path 92804" d="M14.594,13H6.781a.781.781,0,0,0,0,1.563h7.813a.781.781,0,1,0,0-1.563Z" transform="translate(-1.312 -2.844)" stroke="#000" stroke-width="0.5"/>
    </g>
  </g>
</svg>
