<svg xmlns="http://www.w3.org/2000/svg" width="20.5" height="20.5" viewBox="287 39 20.5 20.5"><g data-name="comment-alt"><path d="M301.52 50.104h-8.54a.854.854 0 0 0 0 1.708h8.54a.854.854 0 0 0 0-1.708Z" fill="#333" fill-rule="evenodd" data-name="Path 92804"/><path d="M301.52 46.687h-8.54a.854.854 0 1 0 0 1.709h8.54a.854.854 0 0 0 0-1.709Z" fill="#333" fill-rule="evenodd" data-name="Path 92803"/><path d="M292.98 44.98h4.27a.854.854 0 1 0 0-1.71h-4.27a.854.854 0 1 0 0 1.71Z" fill="#333" fill-rule="evenodd" data-name="Path 92802"/><path d="M304.083 39h-13.666A3.417 3.417 0 0 0 287 42.417v10.25a3.417 3.417 0 0 0 3.417 3.416h2.477l3.802 3.215c.318.269.785.269 1.103 0l3.807-3.215h2.477a3.417 3.417 0 0 0 3.417-3.416v-10.25A3.417 3.417 0 0 0 304.083 39Zm1.709 13.667c0 .943-.765 1.708-1.709 1.708h-2.477c-.404 0-.794.143-1.103.404l-3.253 2.748-3.252-2.748a1.708 1.708 0 0 0-1.104-.404h-2.477a1.708 1.708 0 0 1-1.709-1.708v-10.25c0-.944.765-1.709 1.709-1.709h13.666c.944 0 1.709.765 1.709 1.709v10.25Z" fill="#333" fill-rule="evenodd" data-name="Path 92801"/></g></svg>