<svg xmlns="http://www.w3.org/2000/svg" width="21.086" height="17.333" viewBox="20.457 1381.709 21.086 17.333"><path d="M21.12 1381.709a.656.656 0 0 0-.663.655v11.538a.659.659 0 0 0 1.09.496l2.865-2.476h9.386a.659.659 0 0 0 .662-.655v-8.898a.659.659 0 0 0-.657-.66H21.119Zm14.658 4.488v5.075a1.996 1.996 0 0 1-1.985 1.967h-6.248v2.51a.66.66 0 0 0 .655.658h9.393l2.86 2.476a.662.662 0 0 0 1.09-.496v-11.533a.662.662 0 0 0-.657-.657h-5.108Z" fill="#108fe5" fill-rule="evenodd" data-name="Path 92760"/></svg>