<svg xmlns="http://www.w3.org/2000/svg" width="36" height="36" viewBox="0 0 36 36">
  <g id="Monitor_treatment" data-name="Monitor treatment" transform="translate(-257 -132)">
    <circle id="Ellipse_3157" data-name="Ellipse 3157" cx="18" cy="18" r="18" transform="translate(257 132)" fill="#e1432d"/>
    <g id="noun-cardiogram-1549332" transform="translate(266.611 142.844)">
      <path id="Path_80270" data-name="Path 80270" d="M16.778,10.275v.368a1.845,1.845,0,0,1-.542,1.311h-.007a1.819,1.819,0,0,1-1.3.549H10.2a7.024,7.024,0,0,0,.174.95,3.122,3.122,0,0,0,.575,1.117h.783a.371.371,0,1,1,0,.743H5.051a.371.371,0,1,1,0-.743h.783a.092.092,0,0,1,.02-.027,3.266,3.266,0,0,0,.575-1.1,6.036,6.036,0,0,0,.187-.943H1.853a1.819,1.819,0,0,1-1.3-.549A1.823,1.823,0,0,1,0,10.643v-.368ZM1.853,0H14.925a1.868,1.868,0,0,1,1.311.542l.02.027a1.857,1.857,0,0,1,.522,1.284V5.031H11.386l-.575-1.452a.406.406,0,0,0-.174-.194.375.375,0,0,0-.5.161L8.583,6.556,7.406,2.629a.366.366,0,0,0-.682-.067l-1.3,2.469H0V1.853A1.85,1.85,0,0,1,1.853,0ZM16.778,5.773v3.76H0V5.773H5.646a.361.361,0,0,0,.341-.221l.97-1.846,1.177,3.94A.376.376,0,0,0,8.6,7.9a.36.36,0,0,0,.227-.2l1.6-3.091.361.93a.375.375,0,0,0,.348.234h5.646ZM8.389,11.018a.371.371,0,1,1,0,.743.371.371,0,0,1,0-.743Z" fill="#fff" fill-rule="evenodd"/>
    </g>
  </g>
</svg>
