<svg xmlns="http://www.w3.org/2000/svg" width="24" height="24" viewBox="0 0 24 24">
  <g id="Bookmarks" transform="translate(1455 -515)">
    <rect id="Rectangle_19" data-name="Rectangle 19" width="24" height="24" rx="12" transform="translate(-1455 515)" fill="#03a9f4"/>
    <g id="noun-bookmark-1014281" transform="translate(-1469 514)">
      <path id="Path_80191" data-name="Path 80191" d="M30.041,20.438a.589.589,0,0,0,.38.121.507.507,0,0,0,.277-.069.61.61,0,0,0,.346-.536V6.141A1.2,1.2,0,0,0,29.851,5H22.176A1.17,1.17,0,0,0,21,6.141V19.954a.61.61,0,0,0,.346.536A.642.642,0,0,0,22,20.438c.035-.017.052-.052.086-.086l3.924-5.083,3.942,5.083C29.972,20.386,30.007,20.4,30.041,20.438Z" transform="translate(0 0)" fill="#fff"/>
    </g>
  </g>
</svg>
