<svg xmlns="http://www.w3.org/2000/svg" width="24" height="24" viewBox="0 0 24 24">
  <g id="MyOrder" transform="translate(1419 -276)">
    <rect id="Rectangle_39" data-name="Rectangle 39" width="24" height="24" rx="12" transform="translate(-1419 276)" fill="#f19e12"/>
    <g id="noun-order-2794290" transform="translate(-1486.122 257.312)">
      <path id="Path_80192" data-name="Path 80192" d="M85.412,309.48s0-.007,0-.011a.145.145,0,0,0-.216-.123l-.615.328-1.464.783q-.888.475-1.775.949l-1.535.82c-.228.122-.463.235-.687.364l-.54-.288-1.464-.783-1.775-.949-1.535-.82c-.248-.133-.495-.272-.745-.4l-.013-.006a.147.147,0,0,0-.218.123v5.56c0,.255-.007.513,0,.77,0,0,0,.007,0,.011a.142.142,0,0,0,.072.123l.614.327,1.471.786,1.772.946q.765.409,1.532.818c.249.133.5.272.747.4a.061.061,0,0,1,.01.006.135.135,0,0,0,.082.017h0a.153.153,0,0,0,.06-.017l.612-.327,1.471-.786,1.772-.946,1.531-.818c.248-.133.506-.255.748-.4l.013-.006a.132.132,0,0,0,.073-.123v-5.562C85.415,309.994,85.422,309.736,85.412,309.48Z" transform="translate(0 -281.545)" fill="#fff"/>
      <path id="Path_80193" data-name="Path 80193" d="M91.722,25.114l-.148.085-.119.067-.029.017-1.535.872L88,27.228l-1.636.929c-.146.083-.292.163-.44.245-.05.027-.1.056-.148.083l-.146.085-.689-.364L83.5,27.443l-.6-.318a.145.145,0,0,1,0-.248l.04-.022.851-.45,1.571-.83,1.727-.913,1.362-.718.37-.195c.079-.042.146-.089.241-.043.241.119.476.251.714.377l1.5.793Z" transform="translate(-9.855)" fill="#fff"/>
      <path id="Path_80194" data-name="Path 80194" d="M329.595,146.87a.122.122,0,0,1-.072.123l-.04.021-.851.45-1.571.83-1.727.913q-.679.359-1.36.72l-.37.195c-.079.042-.146.089-.241.043-.241-.119-.476-.252-.714-.377l-1.5-.793c-.149-.079-.3-.158-.449-.238l.148-.085.116-.066a.354.354,0,0,0,.032-.019l1.532-.87,1.892-1.074,1.636-.929c.146-.083.294-.165.442-.247.05-.027.1-.056.148-.085l.146-.085.688.363,1.443.763.6.318A.128.128,0,0,1,329.595,146.87Z" transform="translate(-244.32 -119.869)" fill="#fff"/>
    </g>
  </g>
</svg>
