<svg xmlns="http://www.w3.org/2000/svg" width="60" height="60" viewBox="0 0 60 60">
  <g id="Nausea" transform="translate(-30 -489)">
    <circle id="Ellipse_3126" data-name="Ellipse 3126" cx="30" cy="30" r="30" transform="translate(30 489)" fill="#f5f6fa"/>
    <g id="noun-nausea-4196585" transform="translate(-276.775 242.402)">
      <path id="Path_92973" data-name="Path 92973" d="M344.991,282.66c1.215-.232,2.318-.5,3.279-.759h0a4.144,4.144,0,0,0,1.633-.688c5.556-4.047-.576-23.968-8.292-24.768a6.37,6.37,0,0,0-4,1.161,3.858,3.858,0,0,0-2.372-1.944c-4.046-.867-11.936,7.222-13.462,15.071l-.062.091a.2.2,0,0,1,.037.025,11.042,11.042,0,0,0,.585,6.547c.066.149.137.294.212.44a9.064,9.064,0,0,0,6.186,4.618l.178.037a11.2,11.2,0,0,0-6.526,10.527h0a3.189,3.189,0,0,0,0,.394.207.207,0,0,0,.2.186h28.362a.207.207,0,0,0,.207-.186v-.394a11.15,11.15,0,0,0-6.169-10.357Zm-2.293,0a5.916,5.916,0,0,1-11.833,0,4.672,4.672,0,0,1,.021-.543h.058l.212.162c.178.141.357.274.539.415l.253.178v.22h0a4.838,4.838,0,0,0,9.631.108c0-.124.029-.249.037-.369.149-.1.3-.2.456-.311l.046-.033.054-.033c.145-.108.29-.216.415-.315h.075a3.017,3.017,0,0,1,.037.522Zm-11.02-.518c-.182-.133-.365-.278-.56-.415h0a11.345,11.345,0,0,1-.9-.829c-.1-.1-.207-.216-.327-.352h0a.792.792,0,0,1-.137-.158c-.1-.112-.2-.224-.3-.348s-.257-.311-.373-.464a13.449,13.449,0,0,1-.829-1.244c-.1-.145-.182-.3-.265-.452a.769.769,0,0,0-.046-.083l-.07-.133c-.066-.124-.133-.249-.195-.39h0a11.63,11.63,0,0,1-.6-1.4c-.062-.166-.116-.336-.178-.527h0a.284.284,0,0,1-.029-.091,5.332,5.332,0,0,1-.158-.535c-.054-.178-.1-.365-.141-.564a1.176,1.176,0,0,0-.029-.274l-.029-.278h0a12.356,12.356,0,0,1,2.148-2.3,13.161,13.161,0,0,1,4.287-2.247c.709-.261,1.439-.535,2.247-.9h0a21.468,21.468,0,0,0,5.017-3.221.907.907,0,0,0,.365-.257,10.619,10.619,0,0,1,3.168,3.665,13.6,13.6,0,0,1,.862,2.409,32.2,32.2,0,0,0,1.244,3.69c.245.589.473,1.082.63,1.422-.075.195-.145.386-.228.576a.06.06,0,0,0,0,.025c-.1.224-.187.444-.294.663s-.187.377-.294.568h0a1.3,1.3,0,0,1-.1.182c-.1.182-.2.365-.315.547s-.261.415-.415.626-.286.415-.415.605a6.114,6.114,0,0,1-.448.555c-.158.182-.315.369-.5.564l-.05.05c-.129.141-.261.265-.415.415s-.381.348-.572.506a11.421,11.421,0,0,1-1.1.763l-.046.025h0a10.569,10.569,0,0,1-.933.522,7.969,7.969,0,0,1-7.43-.137c-.232-.124-.46-.253-.676-.39l-.1-.07a5.7,5.7,0,0,1-.477-.327Zm1.066,1.161a8.292,8.292,0,0,0,7.8.141c.22-.1.415-.216.626-.332a.178.178,0,0,1,0,.046,4.424,4.424,0,0,1-8.773-.054c.112.066.236.137.344.2Zm15.593-13.118s1.853,3.188,0,3.188S348.337,270.185,348.337,270.185Zm-17.264-7.007s1.368,2.355,0,2.355S331.073,263.178,331.073,263.178Zm-1.911,1.936s1.853,3.192,0,3.192S329.162,265.114,329.162,265.114Zm21.6,28.068H322.806v-.166a10.811,10.811,0,0,1,6.526-10.274c.369-.174.75-.327,1.144-.473,0,.129-.021.257-.021.39a6.331,6.331,0,0,0,12.662,0v-.386h0a14.348,14.348,0,0,1,1.459.634,10.8,10.8,0,0,1,6.182,10.108Z" transform="translate(0 0)" fill="#4fb4f8"/>
      <path id="Path_92974" data-name="Path 92974" d="M498.393,566.112a.207.207,0,0,0,.029-.29.216.216,0,0,0-.294-.029,1.658,1.658,0,0,1-2.347,0,.212.212,0,0,0-.294,0,.208.208,0,0,0,0,.294,2.219,2.219,0,0,0,1.455.6,2.252,2.252,0,0,0,1.451-.572Z" transform="translate(-164.381 -293.12)" fill="#4fb4f8"/>
      <path id="Path_92975" data-name="Path 92975" d="M635.531,566.7a2.26,2.26,0,0,0,1.455-.585.2.2,0,0,0,.025-.29.207.207,0,0,0-.29-.029,1.658,1.658,0,0,1-2.347,0,.211.211,0,0,0-.294,0,.207.207,0,0,0,0,.294,2.219,2.219,0,0,0,1.451.609Z" transform="translate(-295.371 -293.124)" fill="#4fb4f8"/>
      <path id="Path_92976" data-name="Path 92976" d="M546.2,682.58a.207.207,0,0,0,.207.207.414.414,0,0,1,.319.157.829.829,0,0,0,1.19,0,.414.414,0,0,1,.639,0,.829.829,0,0,0,1.19,0,.414.414,0,0,1,.638,0,.829.829,0,0,0,1.194,0,.414.414,0,0,1,.319-.157.207.207,0,1,0,0-.415.828.828,0,0,0-.6.261.415.415,0,0,1-.639,0,.829.829,0,0,0-1.194,0,.415.415,0,0,1-.634,0,.813.813,0,0,0-1.194,0,.415.415,0,0,1-.634,0,.828.828,0,0,0-.6-.261.207.207,0,0,0-.207.207Z" transform="translate(-212.37 -403.361)" fill="#4fb4f8"/>
    </g>
  </g>
</svg>
