<svg xmlns="http://www.w3.org/2000/svg" width="20" height="19.939" viewBox="23 569.5 20 19.939"><path d="M31.949 569.575c-4.5.537-7.953 3.759-8.772 8.004-1.023 5.396 2.481 10.663 7.826 11.763.28.051 3.17.333 5.344-.383 3.683-1.432 5.933-4.066 6.598-8.005.025-.076.358-3.298-.972-5.907-1.764-3.605-5.651-6.01-10.024-5.472Zm.895 16.034c-.818 0-1.432-.614-1.432-1.407 0-.87.588-1.483 1.432-1.483.844-.025 1.483.614 1.483 1.458 0 .818-.614 1.432-1.483 1.432Zm3.17-6.674a11.39 11.39 0 0 1-1.099.843c-.562.384-.895.972-.895 1.74H31.72c-.103-.82-.052-1.74.69-2.328.435-.332.895-.614 1.253-.972.332-.358.665-.792.818-1.227.18-.563-.255-1.227-.741-1.406-.716-.256-1.586-.052-1.893.537-.178.332-.28.741-.434 1.15h-2.148c-.23-1.15.409-2.557 1.483-3.247 1.483-.921 4.015-.716 5.319.46 1.304 1.15 1.279 3.299-.051 4.45Z" fill="#333" fill-rule="evenodd" data-name="noun-help-2216482"/></svg>