<svg xmlns="http://www.w3.org/2000/svg" width="60" height="60" viewBox="0 0 60 60">
  <g id="NightSweats" transform="translate(-30 -1147)">
    <circle id="Ellipse_3126" data-name="Ellipse 3126" cx="30" cy="30" r="30" transform="translate(30 1147)" fill="#f5f6fa"/>
    <path id="Night_sweats" data-name="Night sweats" d="M6.2,40.2h15.15v-.662c0-7.847.011-4.456-.013-12.3a1.81,1.81,0,0,1,1.175-1.875c3.039-1.407,6.057-2.858,9.077-4.305a2.845,2.845,0,0,0,.972-4.589q-2.567-3.015-5.132-6.032c-.983-1.155-1.957-2.319-2.954-3.461a2.917,2.917,0,0,0-3.656-.74,2.828,2.828,0,0,0-.713,4.388c1.724,2.049,3.469,4.08,5.2,6.12.5.583.448.786-.255,1.12-1.133.538-2.276,1.055-3.394,1.621a.952.952,0,0,1-1.164-.126,9.419,9.419,0,0,0-6.222-2.181c-1.664.058-3.333-.021-5-.069a10.239,10.239,0,0,0-3.649.5,7.713,7.713,0,0,0-5.5,7.506C.136,31.48.042,26.608,0,32.976a2.6,2.6,0,0,0,2.586,2.733,2.631,2.631,0,0,0,2.7-2.695c.044-5.618.083,0,.126-5.616,0-.381-.092-.894.478-.9s.431.51.429.862C6.283,33,6.235,27.4,6.2,33.036c-.014,2.4,0,4.791,0,7.162M14.533,2.517A6.338,6.338,0,1,0,18.89,11.29a1.118,1.118,0,0,0-.018-.816,3.594,3.594,0,0,1-.029-3.35A1.124,1.124,0,0,0,18.7,5.74a2.645,2.645,0,0,1-3.37.12,2.6,2.6,0,0,1-.8-3.343M17.046.055,16.8,0c-.5,1.036-1.046,2.053-1.49,3.113A1.589,1.589,0,0,0,15.9,5.147a1.7,1.7,0,0,0,2.04-.016,1.615,1.615,0,0,0,.55-2.045c-.433-1.031-.959-2.022-1.444-3.031" transform="translate(47.328 1155.356)" fill="#4fb4f8"/>
  </g>
</svg>
