<svg xmlns="http://www.w3.org/2000/svg" xmlns:xlink="http://www.w3.org/1999/xlink" width="63.02" height="60" viewBox="0 0 63.02 60">
  <defs>
    <clipPath id="clip-path">
      <rect id="Rectangle_8963" data-name="Rectangle 8963" width="22" height="41.202" fill="none"/>
    </clipPath>
  </defs>
  <g id="Group_48830" data-name="Group 48830" transform="translate(-15 -17)">
    <rect id="NoPath_-_Copy_83_" data-name="NoPath - Copy (83)" width="63.02" height="60" rx="6" transform="translate(15 17)" fill="#fff"/>
    <g id="Group_48829" data-name="Group 48829" transform="translate(35.51 26.398)">
      <g id="Group_48828" data-name="Group 48828" clip-path="url(#clip-path)">
        <path id="Path_100511" data-name="Path 100511" d="M72.686,148.818l9.891,14.571c1.278-3.385.453-8.25.453-8.25-.481-4.718-3.478-10.14-4.064-11.163a40.757,40.757,0,0,1-3.427,2.907,28.622,28.622,0,0,1-2.853,1.935" transform="translate(-61.686 -122.186)" fill="#19ceab"/>
        <path id="Path_100512" data-name="Path 100512" d="M13.859,16.9a21.428,21.428,0,0,1,4.289-2.752c.272-.172.531-.347.773-.533A5.8,5.8,0,0,1,18,12.853,24.077,24.077,0,0,1,14.3,8.66a4.644,4.644,0,0,1-.038-5.636,4.157,4.157,0,0,1,1.266-1.041A3.45,3.45,0,0,1,17.1,1.634a4.01,4.01,0,0,1,1.526.431c.181.087,1.854,1.124,1.851,1.128v.044l.447-.49a8.349,8.349,0,0,1,.648-.54,5.175,5.175,0,0,1,2.077-.978c1.114-.154,2.411.267,3.569,2.178a3.972,3.972,0,0,0-.712-1.642h0a3.572,3.572,0,0,0-.822-.9A2.358,2.358,0,0,0,25.453.7l0,0a1.634,1.634,0,0,0-.227-.121,3.753,3.753,0,0,0-3.775.7c-.1.079-1.045.874-.969,1.04-.265-.58-1.091-1.016-1.593-1.35a5.886,5.886,0,0,0-2.311-.89,3.669,3.669,0,0,0-1.6.021c-2.311.592-4.121,3.122-4.931,5.22a9.594,9.594,0,0,0-.581,4.658,19.911,19.911,0,0,0,1.553,5.043c.085.207,1.439,3.208,1.587,3.063l.1-.1q.545-.558,1.154-1.086" transform="translate(-7.97 -0.001)" fill="#19ceab"/>
        <path id="Path_100513" data-name="Path 100513" d="M20.131,29.856a4.824,4.824,0,0,1-.527-.689c.785,2.086-1.268,4.9-1.268,4.9A15.009,15.009,0,0,1,15.773,36.5C12.8,38.768,9.2,39.722,6.355,42.192,2.866,45.215,1.265,48.825.386,53.545a22.414,22.414,0,0,0,.763,11.31,8.058,8.058,0,0,1,.331-2.527,19.8,19.8,0,0,1,.464-2.237A15.047,15.047,0,0,1,4.715,54.7c1.528-1.855,3.723-2.657,5.678-3.782a27.54,27.54,0,0,0,3.027-2.034c3.286-2.525,6.825-5.731,8.165-10.034a10.509,10.509,0,0,0-.439-7.03,11.322,11.322,0,0,0-1.015-1.966" transform="translate(0 -24.753)" fill="#108fe5"/>
      </g>
    </g>
  </g>
</svg>
