<svg xmlns="http://www.w3.org/2000/svg" width="19.393" height="19.378" viewBox="0 0 19.393 19.378">
  <g id="Edit" transform="translate(-13.045 -15.9)">
    <path id="Path_100418" data-name="Path 100418" d="M25.669,17.073l-10.4,10.4a2.191,2.191,0,0,0-.519.873l-1.665,5.7a.974.974,0,0,0,.246.955.947.947,0,0,0,.682.273.928.928,0,0,0,.273-.027l5.7-1.665a2.191,2.191,0,0,0,.873-.519L31.291,22.641a3.963,3.963,0,0,0,1.146-2.811,3.931,3.931,0,0,0-6.769-2.757ZM20.129,31.1l-2.893-2.893,7.915-7.915,2.893,2.893ZM16.28,29.928l2.129,2.129-3,.873ZM29.927,21.3l-.519.519-2.893-2.893.519-.519a2.043,2.043,0,0,1,2.893,0A2.059,2.059,0,0,1,29.927,21.3Z" transform="translate(0)"/>
  </g>
</svg>
