<svg xmlns="http://www.w3.org/2000/svg" width="22.787" height="24" viewBox="4.9 2.5 22.787 24"><path d="M26.601 8.917h-3.284v-5.33c0-.607-.48-1.087-1.086-1.087H5.986C5.38 2.5 4.9 2.98 4.9 3.586v17.457c0 .606.48 1.086 1.086 1.086h3.285v3.285c0 .606.48 1.086 1.086 1.086H26.6c.606 0 1.086-.48 1.086-1.086v-15.41c0-.607-.48-1.087-1.086-1.087ZM7.073 6.719h14.071v13.238H7.073V6.719Zm18.442 17.608H11.443V22.13h10.788c.606 0 1.086-.48 1.086-1.086V11.09h2.198v13.238Z" fill="#ff9b19" fill-rule="evenodd" data-name="Path 93051"/></svg>