<svg xmlns="http://www.w3.org/2000/svg" width="24" height="24" viewBox="0 0 24 24">
  <g id="Group_47849" data-name="Group 47849" transform="translate(-23 -269)">
    <rect id="Rectangle_6" data-name="Rectangle 6" width="24" height="24" rx="4" transform="translate(23 269)" fill="#f19e12"/>
    <g id="noun-notification-4869877" transform="translate(26.011 271.99)">
      <path id="Path_80142" data-name="Path 80142" d="M16.148,10.161A7.466,7.466,0,0,1,14.882,6.7L14.8,5.884A5.507,5.507,0,0,0,9.273,1.01,5.507,5.507,0,0,0,3.751,5.884L3.663,6.7A7.466,7.466,0,0,1,2.4,10.154a2.3,2.3,0,0,0-.124,2.417A2.409,2.409,0,0,0,4.4,13.812h9.749a2.409,2.409,0,0,0,2.119-1.239,2.3,2.3,0,0,0-.118-2.412Z" transform="translate(0)" fill="#fff"/>
      <path id="Path_80143" data-name="Path 80143" d="M8.57,21a3.15,3.15,0,0,0,5.484,0Z" transform="translate(-2.039 -5.59)" fill="#fff"/>
    </g>
  </g>
</svg>
