<svg xmlns="http://www.w3.org/2000/svg" width="11.994" height="11.787" viewBox="0 0 11.994 11.787">
  <g id="noun-check-4871052" transform="translate(-10 -10.69)">
    <path id="Path_92754" data-name="Path 92754" d="M37.53,18.307l-5.3,5.3-2.2-2.2a.473.473,0,0,0-.669.669L31.9,24.608a.468.468,0,0,0,.334.138.475.475,0,0,0,.334-.138L38.2,18.977a.474.474,0,0,0-.67-.67Z" transform="translate(-16.345 -6.358)" fill="#108fe5"/>
    <path id="Path_92755" data-name="Path 92755" d="M15.893,11.636a4.926,4.926,0,0,1,3.141,1.13l.672-.672a5.9,5.9,0,1,0,1.67,2.342l-.742.742a4.945,4.945,0,1,1-4.74-3.543Z" transform="translate(0 0)" fill="#108fe5"/>
  </g>
</svg>
