<svg id="Group_48373" data-name="Group 48373" xmlns="http://www.w3.org/2000/svg" width="22" height="22" viewBox="0 0 22 22">
  <circle id="Ellipse_3166" data-name="Ellipse 3166" cx="11" cy="11" r="11" fill="#108fe5"/>
  <path id="noun-video-1363433" d="M21.295,23.867a.584.584,0,0,0-.6.028l-2.525,1.627v-.463A1.467,1.467,0,0,0,16.708,23.6h-5.05A1.467,1.467,0,0,0,10.2,25.059v4.194a1.467,1.467,0,0,0,1.459,1.459h5.05a1.467,1.467,0,0,0,1.459-1.459V28.79L20.692,30.4a.667.667,0,0,0,.323.1.754.754,0,0,0,.295-.07.62.62,0,0,0,.323-.547v-5.47A.651.651,0,0,0,21.295,23.867Zm-3.436,5.372a1.131,1.131,0,0,1-1.136,1.136h-5.05a1.131,1.131,0,0,1-1.136-1.136v-4.18a1.131,1.131,0,0,1,1.136-1.136h5.05a1.131,1.131,0,0,1,1.136,1.136Zm3.422.645a.265.265,0,0,1-.154.252.26.26,0,0,1-.267-.014L18.167,28.4V25.9l2.707-1.739a.26.26,0,0,1,.267-.014.3.3,0,0,1,.154.252l-.014,5.484Z" transform="translate(-4.7 -16.1)" fill="#fff" stroke="#fff" stroke-width="0.3"/>
</svg>
