<svg xmlns="http://www.w3.org/2000/svg" width="11.5" height="11.5" viewBox="0 0 11.5 11.5">
  <path id="noun-external-link-4596321" d="M11.2,7.072a.575.575,0,0,0-.575.575v4.129a.575.575,0,0,1-.575.575H3.725a.575.575,0,0,1-.575-.575V5.45a.575.575,0,0,1,.575-.575H7.854a.575.575,0,0,0,0-1.15H3.725A1.725,1.725,0,0,0,2,5.45v6.325A1.725,1.725,0,0,0,3.725,13.5H10.05a1.725,1.725,0,0,0,1.725-1.725V7.647A.575.575,0,0,0,11.2,7.072Zm2.254-4.715A.584.584,0,0,0,12.925,2H9.475a.575.575,0,1,0,0,1.15h2.064L5.617,9.067a.577.577,0,1,0,.817.817L12.35,3.961V6.025a.575.575,0,1,0,1.15,0V2.575A.575.575,0,0,0,13.454,2.357Z" transform="translate(-2 -2)" fill="#108fe5"/>
</svg>
