<?xml version="1.0" encoding="utf-8"?>
<!-- Generator: Adobe Illustrator 26.0.3, SVG Export Plug-In . SVG Version: 6.00 Build 0)  -->
<svg version="1.1" id="Layer_1" xmlns="http://www.w3.org/2000/svg" xmlns:xlink="http://www.w3.org/1999/xlink" x="0px" y="0px"
	 viewBox="0 0 255.2 153.3" style="enable-background:new 0 0 255.2 153.3;" xml:space="preserve">
<style type="text/css">
	.st0{filter:url(#Adobe_OpacityMaskFilter);}
	.st1{fill:#FFFFFF;}
	.st2{mask:url(#SVGID_1_);}
	.st3{fill:#19CEAB;}
</style>
<g>
	<defs>
		<filter id="Adobe_OpacityMaskFilter" filterUnits="userSpaceOnUse" x="10.3" y="6.3" width="240.6" height="142.9">
			<feColorMatrix  type="matrix" values="1 0 0 0 0  0 1 0 0 0  0 0 1 0 0  0 0 0 1 0"/>
		</filter>
	</defs>
	<mask maskUnits="userSpaceOnUse" x="10.3" y="6.3" width="240.6" height="142.9" id="SVGID_1_">
		<g class="st0">
			
				<rect x="-9.3" y="-7.8" transform="matrix(0.9596 -0.2812 0.2812 0.9596 -16.6679 39.3903)" class="st1" width="276.5" height="171"/>
			<g>
				<g>
					<g>
						<path d="M151.8,97.6L151.8,97.6l-0.9,0.3c0,0,0,0,0,0l0,0l0,0c0,0,0,0,0,0l1.8,0.2l0,0c0.1-0.2,0.1-0.4,0.1-0.5l0,0
							c0,0,0,0,0,0v0c0,0,0,0,0,0l0,0c0,0,0,0,0,0c0,0,0-0.1,0-0.1L151.8,97.6L151.8,97.6z"/>
						<path d="M158.7,85.6C158.7,85.6,158.7,85.6,158.7,85.6l-0.9,0l0,0c0,0,0,0-0.1,0l0.2,0.6c0,0,0,0,0,0l-0.2-0.6l0.3,1.3l0.1,0
							l-0.2-0.6c0,0,0,0,0,0l0.2,0.6c0.8-0.2,1.3-0.7,1.5-1.2L158.7,85.6C158.7,85.6,158.7,85.6,158.7,85.6z"/>
						<path d="M97.8,112.8L97.8,112.8l-0.3,0l-0.6-0.1c0,0-0.1,0.1-0.1,0.1c0,0-0.1,0.1-0.1,0.1c0,0-0.1,0.1-0.1,0.1l0,0l0,0
							l1.7,0.3v0l0,0c0,0,0.1-0.1,0.1-0.1c0.1-0.1,0.2-0.2,0.3-0.4l0,0L97.8,112.8L97.8,112.8z"/>
						<path d="M176.5,129.2l0.9-0.3c-0.2-0.4-0.6-0.7-1.2-0.8l-0.7,1.4c0,0,0,0,0,0c0,0,0,0,0,0c0,0,0.1,0,0.1,0.1c0,0,0,0,0,0
							L176.5,129.2L176.5,129.2L176.5,129.2z"/>
						<path d="M79.9,82.2l0.5,0.5c0.3-0.2,0.5-0.4,0.7-0.7v0c0,0,0,0,0,0c0.1-0.2,0.2-0.5,0.1-0.8l0-0.1l0-0.1
							c-0.1-0.2-0.2-0.4-0.4-0.5c-0.1,0-0.1-0.1-0.2-0.1l0,0l-1.2,1.2c0,0,0,0,0,0c0,0,0,0,0,0l0,0l0,0c0,0,0,0,0,0c0,0,0,0,0,0l0,0
							v0l0.1,0L79.9,82.2C79.9,82.2,79.9,82.2,79.9,82.2C79.9,82.2,79.9,82.2,79.9,82.2z"/>
						<path d="M158.7,134.1l0.3,0.6c0.7-0.3,1.2-0.8,1.3-1.4l0-0.1c0-0.4-0.3-0.7-0.6-0.9l-1.4,1.1l0,0c0,0,0,0,0,0
							c0,0,0,0.1,0.1,0.1c0,0,0,0.1,0,0.1c0,0,0,0,0,0l0,0c0,0,0,0,0,0c0,0,0,0,0,0l0,0l0,0l0.1,0L158.7,134.1
							C158.7,134.1,158.7,134.1,158.7,134.1C158.7,134.1,158.7,134.1,158.7,134.1z"/>
						<polygon points="137.4,111.9 137.4,111.9 137.4,111.9 138,111.3 138,111.3 138,111.3 137.3,111.1 136.2,112.3 136.5,112.4 
							136.5,112.4 136.9,112.6 137.4,111.9 						"/>
						<path d="M165.2,19.3L165.2,19.3l-0.8,0.4c0.2,0.2,0.4,0.3,0.6,0.4l0,0c0,0,0,0,0,0c0,0,0,0,0,0c0,0,0,0,0,0
							c0.4,0.2,0.9,0.2,1.4,0.1l0.1,0l0,0c0.3-0.1,0.9-0.3,3.1-2.4l-0.7-0.3l0,0l0,0l-0.7-0.3c-1,1-1.7,1.6-2,1.8c0,0-0.1,0-0.1-0.1
							L165.2,19.3L165.2,19.3z"/>
						<path d="M200.4-8.6L200.3-8l0,0c0,0,0.1,0,0.2,0l0,0l0.1-0.7l0,0l0,0.7l1.1-0.1l0-0.8c0-0.1,0-0.1,0-0.2v0c0,0,0,0,0,0
							c0,0,0,0,0,0v0c0-0.1,0-0.2,0-0.2l0,0v0l-0.9,0.2v0l0.9-0.2l-0.9,0.2l0-0.2c0,0,0,0,0,0c-0.1,0-0.1,0-0.2,0l-0.1,0l0,0l0,0.2
							l-0.7,0.2l0.7-0.2l0,0l-0.7,0.2c0,0.1,0,0.2,0,0.3l0,0.1l0,0l0,0L200.4-8.6z"/>
						<path d="M73.3,47.8C73.3,47.8,73.3,47.8,73.3,47.8c0.3-0.2,0.6-0.4,0.8-0.6c0.4-0.3,0.7-0.7,1-1.1c0.1-0.1,0.1-0.1,0.1-0.2
							l-0.8-0.2l0,0l0,0l-0.8-0.2c0,0.1-0.1,0.1-0.1,0.2c-0.4,0.5-0.8,0.9-1.4,1.3L73.3,47.8L73.3,47.8z"/>
						<path d="M211.7,102.3c0,0,0.1,0.1,0.1,0.1c0.3,0.3,0.7,0.5,1.2,0.5l0.5-1.4l0,0l0,0c0,0,0,0,0,0c0,0-0.1-0.1-0.1-0.1
							L211.7,102.3L211.7,102.3z"/>
						<path d="M185.6,32.8C185.6,32.8,185.6,32.8,185.6,32.8c0.1-0.1,0.2-0.2,0.2-0.2l0,0c0,0,0,0,0,0l-1.6-0.5c0,0,0,0,0,0l0,0
							c0,0-0.1,0.1-0.1,0.1c-0.1,0.1-0.2,0.2-0.3,0.4L185.6,32.8C185.5,32.8,185.6,32.8,185.6,32.8z"/>
						<path d="M190.4,35.1l0.8-0.5l0,0l0,0l0.8-0.5c0,0,0,0,0,0l0,0c0,0-0.1-0.1-0.1-0.1c-0.1-0.1-0.2-0.2-0.3-0.4c0,0,0,0,0,0l0,0
							l0,0c0,0,0,0,0,0c0,0,0,0,0,0c0,0,0,0,0,0l0,0l0,0v0c0,0,0,0,0,0c0,0,0,0,0,0c0,0,0,0,0,0s0,0,0,0c0,0,0,0,0,0c0,0,0,0,0,0
							c0,0,0,0,0,0c0,0,0,0,0,0c0,0,0,0,0,0s0,0,0,0l0,0c0,0,0,0,0,0s0,0,0,0c0,0,0,0,0,0l0,0c0,0,0,0,0,0l0,0c0,0,0,0,0,0
							c0,0,0,0,0,0c0,0,0,0,0,0c0,0,0,0,0,0c0,0,0,0,0,0l0,0c0,0,0,0,0,0c0,0,0,0,0,0c0,0,0,0,0,0c0,0,0,0,0,0c0,0,0,0,0,0v0
							c0,0,0,0,0,0l0,0h0c0,0,0,0,0,0c0,0,0,0,0,0l0,0l0,0c0,0,0,0,0,0l0,0c0,0,0,0,0,0c0,0,0,0,0,0c0,0,0,0,0,0s0,0,0,0
							c0,0,0,0,0,0c0,0,0,0,0,0c0,0,0,0,0,0c0,0,0,0,0,0s0,0,0,0c0,0,0,0,0,0c0,0,0,0,0,0v0c0,0,0,0,0,0v0c0,0,0,0,0,0c0,0,0,0,0,0
							c0,0,0,0,0,0l0,0c-0.1,0-0.2,0-0.3-0.1l-0.3,0.7l0,0l0,0l-0.3,0.7c-0.2,0-0.3-0.1-0.3-0.1c0,0,0.1,0.1,0.1,0.1
							C190.3,35,190.3,35.1,190.4,35.1z"/>
						<path d="M177.9,23.9c0.1,0,0.2,0.1,0.3,0.1c0.1,0,0.1,0.1,0.2,0.1l0,0c0,0,0,0,0,0l1.2-1.2l0,0l0,0l-0.1-0.1
							c-0.1-0.1-0.3-0.1-0.4-0.2c0,0,0,0,0,0c0,0,0,0,0,0l0,0c0,0,0,0,0,0l0,0c0,0,0,0,0,0v0c0,0-0.1,0-0.1,0L177.9,23.9L177.9,23.9
							C177.9,23.9,177.9,23.9,177.9,23.9z"/>
						<path d="M128,90.5L128,90.5l0.1,0.1l0.2-0.1l-0.1-0.1l1.4-0.5c-0.2-0.6-0.9-0.8-1.8-0.7l-0.2,0l-0.2,0.1l0.3,0.4L128,90.5z"/>
						<path d="M235.3,129C235.4,129,235.4,129,235.3,129l0.3,0.2l-0.5,0.2c0,0,0-0.1,0-0.1l0,0c0,0.1,0,0.1,0,0.2l0,0l0,0l0.6-0.2
							l0.1,0.1l0,0l0,0l0.5,0.5c0.1-0.1,0.2-0.2,0.3-0.2l0.5-0.3L237,129l0,0c0,0,0-0.1,0-0.1c0,0,0,0,0,0c0,0,0,0,0,0c0,0,0,0,0,0
							l0,0c0,0,0-0.1-0.1-0.2l-0.9,0.4l0,0l0,0l-0.2,0.1l-0.4-0.3c0,0,0,0,0,0l0,0C235.5,128.9,235.4,128.9,235.3,129L235.3,129
							C235.3,129,235.3,129,235.3,129L235.3,129z"/>
						<path d="M78.9,113C78.9,113,78.9,113,78.9,113C78.9,113,78.9,113,78.9,113C78.9,113,78.9,113,78.9,113
							C78.9,113,78.9,113,78.9,113C78.9,113,78.9,113,78.9,113L78.9,113c0.1,0.1,0.1,0.1,0.2,0.2l0.7-0.5l0.1,0.1l0,0l0,0l0.1-0.1
							l-0.1-0.1l0.7-0.5c0,0,0,0,0,0c0,0,0,0,0,0s0,0,0,0l0,0c0,0,0,0,0,0c0,0,0,0,0,0c0,0,0,0,0,0c0,0,0,0,0,0l0,0
							c-0.1-0.1-0.1-0.1-0.2-0.2l-0.1-0.1h0l0,0l-0.7,0.4l-0.4-0.5l-1.1,0.5l0.6,0.6C78.7,112.9,78.8,112.9,78.9,113z"/>
						<path d="M87,134.4C87,134.4,87,134.4,87,134.4L87,134.4c0,0,0,0.1-0.1,0.1c-0.1,0.1-0.2,0.3-0.2,0.4l1.8,0c0,0,0-0.1,0-0.1
							c0,0,0,0,0,0c0.1-0.1,0.1-0.2,0.1-0.3l0,0c0,0,0,0,0,0L87,134.4z"/>
						<path d="M157.3,18.8l0.5-0.6l-0.1-0.2l0-0.2l-0.1,0l-0.1-0.1l-0.2,0.2l-0.7,0.1l-0.1-0.3l-0.1,0l0.1,0.3l-0.3,0l-0.3-0.1
							c0,0,0,0.1-0.1,0.1l0,0l-0.1,0.1l0,0l0,0.1l-0.9,1.5l2-0.7L157.3,18.8z"/>
						<path d="M212.2,45.6l0,0.3l0,0l0,0l0.2,0.2c0,0,0.1-0.1,0.1-0.1c0.1-0.1,0.2-0.1,0.3-0.2l0,0l0,0l-0.3-0.3l0.2-0.1v0v0
							l0.9-0.3c-0.1-0.1-0.1-0.2-0.3-0.3l0,0c0,0,0,0,0,0c-0.2-0.1-0.5-0.2-0.9-0.2l-0.4,0l-0.3,0.2c0,0-0.1,0.1-0.1,0.1
							c-0.1,0.1-0.3,0.2-0.4,0.3l0.8,0.5L212.2,45.6z"/>
						<path d="M259.8,70.6c0.1,0.1,0.1,0.1,0.2,0.2l1.6-1l0,0v0c0,0-0.1-0.1-0.1-0.1c0,0,0,0,0,0c0,0,0,0,0,0c0,0,0,0-0.1-0.1
							c0,0,0,0,0,0c0,0,0,0,0,0c0,0,0,0,0,0c-0.1-0.1-0.1-0.1-0.2-0.2l-1.4,1.1L259.8,70.6C259.7,70.6,259.7,70.6,259.8,70.6z"/>
						<path d="M247.2,84.6c0.2,0,0.5,0,0.8,0.5c0,0.1,0,0.3,0,0.4c0,0,0,0,0,0l0,0l1.7,0.3c0.2-0.4,0.3-0.8,0.1-1.3l0-0.1
							c-0.4-0.7-1-1-1.5-1.1c0,0,0,0,0,0c0,0,0,0,0,0c-0.4-0.1-0.7-0.1-1,0l0,0.7l0,0l0,0L247.2,84.6
							C247.2,84.6,247.2,84.6,247.2,84.6z"/>
						<path d="M260.1,115.4l1-1.3l0,0l0,0c0,0-0.1,0-0.1,0c-0.6-0.2-0.8-0.9-1.4-2.8l-0.1-0.4l-0.3,0l-2.1-1.1l0.3,1l0,0l0.3,1.1
							C258.4,114,258.7,115,260.1,115.4z"/>
						<path d="M151.2,106.3C151.3,106.3,151.3,106.3,151.2,106.3L151.2,106.3L151.2,106.3l1.8-0.5c-0.1-0.2-0.2-0.4-0.4-0.6
							L151.2,106.3C151.2,106.2,151.2,106.2,151.2,106.3C151.2,106.2,151.2,106.3,151.2,106.3z"/>
						<polygon points="25.2,85.2 25.6,84.6 26,83.8 24.2,83.8 24.1,84.3 24.1,84.3 24.1,84.5 23.9,84.4 24.1,84.5 23.9,85.2 						
							"/>
						<path d="M85.6,165.1C85.6,165.1,85.6,165.1,85.6,165.1L85.6,165.1c0,0-0.1,0.1-0.1,0.1c-0.1,0.1-0.2,0.3-0.3,0.4l1.7,0.3l0,0
							c0,0,0,0,0,0c0,0,0.1-0.1,0.1-0.1c0,0,0,0,0,0c0.1-0.1,0.1-0.2,0.2-0.2l0,0c0,0,0,0,0,0L85.6,165.1z"/>
						<path d="M213.7,102.8C213.7,102.8,213.7,102.8,213.7,102.8C213.7,102.8,213.7,102.8,213.7,102.8
							C213.7,102.8,213.7,102.7,213.7,102.8C213.7,102.7,213.7,102.7,213.7,102.8l1.3,0.7l0.1-0.1c0,0,0,0,0,0
							c0.5-0.4,0.6-0.9,0.4-1.5l0,0l0,0l-0.9,0.3l0,0l0,0l-0.9,0.3C213.7,102.7,213.7,102.8,213.7,102.8
							C213.7,102.8,213.7,102.8,213.7,102.8z"/>
						<polygon points="242.4,130.1 241.7,130.1 241.8,130 241.7,130.1 241.5,130 241.5,130 241.5,130 240.6,130 240.1,131 
							241.7,131.6 						"/>
						<path d="M67,100.2L67,100.2L67,100.2l-0.3-0.6c-0.6,0.2-1.1,0.7-1.1,1.3l1.7-0.1L67,100.2z"/>
						<path d="M183,131.8L183,131.8l0.3,0.3c0,0,0,0,0,0c0,0,0,0,0,0c0.1,0,0.2-0.1,0.2-0.1l0,0v0l-0.2-0.3l1.1-0.3l0-0.1
							c0,0,0,0,0,0c0,0,0,0,0,0c0,0,0,0,0,0c0,0,0,0,0,0c0-0.1-0.1-0.2-0.2-0.2c0,0,0,0,0,0l0,0l0,0l0,0c-0.1-0.1-0.4-0.2-0.7-0.3
							l-0.4,0l-0.3,0.1c0,0-0.1,0-0.1,0l0,0c0,0,0,0,0,0c0,0-0.1,0-0.1,0c0,0,0,0,0,0c0,0,0,0,0,0c0,0-0.1,0-0.1,0.1L183,131.8
							L183,131.8z"/>
						<path d="M46.2,136.7C46.2,136.7,46.2,136.7,46.2,136.7L46.2,136.7c0,0,0-0.1,0.1-0.1c0-0.1,0.1-0.2,0.1-0.2l-1.8-0.2l0,0
							c0,0,0,0,0,0c0,0,0,0.1-0.1,0.1c-0.1,0.1-0.1,0.2-0.1,0.3l0,0c0,0,0,0,0,0L46.2,136.7z"/>
						<path d="M246.4,57.9L246.4,57.9L246.4,57.9c0.1,0,0.1,0,0.1-0.1c0.5-0.2,0.8-0.6,1-1.1l0,0l0,0c0,0,0-0.1,0-0.1l0,0v0
							l-1.7,0.1v0l0,0L246.4,57.9z"/>
						<path d="M33.4,88.3l0-0.1c0-0.3-0.2-0.5-0.4-0.7c-0.1-0.1-0.2-0.2-0.4-0.3l-0.1,0l-0.6,0.6l0.5-0.6l-1,1.1l-0.2,0.2l0,0
							c0,0,0,0,0,0c0,0,0,0.1,0.1,0.1c0,0.1,0,0.1-0.1,0.2c0,0,0,0,0,0l0,0l1.5,0.6C33.3,89.1,33.4,88.7,33.4,88.3z"/>
						<path d="M153.2,67.6C153.2,67.6,153.2,67.6,153.2,67.6c-0.1,0.1-0.1,0.1-0.2,0.2l0.8,1.1h0c0,0,0.1,0,0.1,0c0,0,0,0,0,0
							c0.5-0.3,0.9-0.7,1.1-1.1l-0.9-0.1l0.9,0.1c0.1-0.1,0.1-0.3,0.1-0.4L153.2,67.6C153.2,67.5,153.2,67.5,153.2,67.6z"/>
						<path d="M79.3,101.5C79.3,101.5,79.3,101.5,79.3,101.5C79.3,101.5,79.3,101.5,79.3,101.5C79.3,101.5,79.3,101.5,79.3,101.5
							C79.3,101.5,79.3,101.4,79.3,101.5C79.3,101.4,79.3,101.4,79.3,101.5L79.3,101.5C79.3,101.4,79.3,101.4,79.3,101.5L79.3,101.5
							C79.3,101.4,79.3,101.4,79.3,101.5L79.3,101.5c-0.1-0.1-0.1-0.1-0.2-0.2l0,0c0,0,0,0,0,0c0,0,0,0,0,0c0,0,0,0,0,0c0,0,0,0,0,0
							c0,0,0,0,0,0c0,0,0,0,0,0c0,0,0,0,0,0c0,0,0,0,0,0c0,0,0,0,0,0c-0.2-0.1-0.3-0.2-0.6-0.2l-0.8,1.3c0,0,0,0,0,0
							c0,0,0.2,0.1,0.3,0.5c0,0.2,0,0.4,0,0.4c0,0,0,0,0,0c0,0,0,0,0,0l0.8,0.2l0.8,0.2c0-0.1,0.1-0.1,0.1-0.2c0,0,0,0,0,0
							c0,0,0,0,0,0c0.1-0.1,0.1-0.2,0.1-0.4c0,0,0,0,0,0c0,0,0,0,0,0c0-0.2,0-0.4,0-0.6v-0.1l0-0.1
							C79.7,102.2,79.6,101.8,79.3,101.5z"/>
						<path d="M157.9,121.4L157.9,121.4C157.8,121.5,157.8,121.5,157.9,121.4c0,0-0.1,0.1-0.1,0.1c0,0,0,0,0,0c0,0-0.1,0.1-0.1,0.1
							c0,0-0.1,0-0.1,0.1l1.3,0.8c0,0,0,0,0,0v0c0,0,0.1-0.1,0.1-0.1c0.1-0.1,0.2-0.2,0.4-0.3l0,0c0,0,0,0,0,0c0,0,0,0,0,0
							c0,0,0,0,0,0c0,0,0.1-0.1,0.1-0.1v0l0,0L157.9,121.4L157.9,121.4z"/>
						<path d="M150.4,110l0,0.7L150.4,110c-0.1,0-0.1,0-0.2,0c0,0-0.1,0-0.1,0l0.2,0.6l-0.2-0.6l0.2,0.6c0,0,0,0,0,0s0,0,0,0
							l0.1,0.4l0,0l0,0.2l0-0.2l0,0.2l0-0.2l0,0l0,0l0,0l0,0l0,0.1l0-0.1l0,0.1l0-0.2l0-0.1l1.1-0.9
							C151.2,110,150.8,109.9,150.4,110z"/>
						<path d="M168.7,124.4c-0.1-0.1-0.2-0.2-0.3-0.3l-1.4,1.1c0,0,0.1,0.1,0.1,0.1c0.1,0.1,0.1,0.1,0.2,0.2l0,0c0,0,0,0,0,0l0,0
							l0.1,0.3l0,0l0,0l0.2,0.6l0.1,0c0.5-0.2,1-0.5,1.2-0.9c0.1-0.2,0.2-0.5,0.2-0.8l0-0.2L168.7,124.4
							C168.7,124.5,168.7,124.4,168.7,124.4z"/>
						<path d="M168.6,143.5L168.6,143.5L168.6,143.5c0,0-0.1,0.1-0.1,0.1c-0.1,0.1-0.2,0.2-0.4,0.3c0,0,0,0,0,0c0,0-0.1,0-0.1,0.1
							l0,0l1.3,0.8c0,0,0.1-0.1,0.1-0.1c0.1-0.1,0.2-0.1,0.3-0.2l0,0c0,0,0,0,0,0L168.6,143.5z"/>
						<path d="M238.5,130.9c-0.1,0-0.1,0-0.2,0c-0.1,0-0.3,0-0.5,0l0,0.4l-0.1,0l-0.2,0.3l0.1,0.3l0.2-0.1l0,0.5c0.1,0,0.2,0,0.3,0
							l1.5,0l-0.2-0.7l0.6-0.7l-1.4,0L238.5,130.9z"/>
						<path d="M201.5,68L201.5,68c0.2-0.3,0.3-0.5,0.3-0.9l0-0.1c-0.1-0.7-0.7-1.1-1.5-1.3l0,0c0,0,0,0,0,0l-0.7,1.4c0,0,0,0,0.1,0
							c0.1,0,0.2,0.1,0.3,0.3c0,0.1,0,0.1,0,0.1l0.2,0.6l0,0l-0.2-0.6l0.2,0.6c0,0,0,0,0,0s0,0,0,0l0.2,0.6l0,0l-0.2-0.6l0,0l0,0
							l0.2,0.6l0,0C200.8,68.7,201.2,68.4,201.5,68L201.5,68z"/>
						<path d="M227.3,79L227.3,79L227.3,79C227.3,79,227.3,79,227.3,79C227.4,78.9,227.4,78.9,227.3,79L227.3,79
							c0.1-0.1,0.1-0.1,0.2-0.1l0,0l0,0.2l-0.2,0.1l0.2-0.1l0.2,1.1c0,0,0.1,0,0.1,0c0,0,0,0,0,0l0,0c0.7-0.2,1.2-0.7,1.3-1.3l0-0.1
							l-1.2-4.2L227.3,79C227.3,79,227.3,79,227.3,79z"/>
						<path d="M227.4,102.8l-0.1,0l0.2,1.3c0.2,0,0.2,0,0.3,0.1l1.8-0.7C229.2,102.9,228.4,102.6,227.4,102.8z"/>
						<path d="M199.5,24.8C199.5,24.8,199.5,24.7,199.5,24.8c0.1-0.2,0.2-0.2,0.2-0.3c0.1-0.1,0.1-0.1,0.1-0.2l-0.9-0.1l0.2-0.2
							l-0.2,0.2l-0.9-0.1l0.7,0.2l-0.7-0.2c0,0,0,0,0,0c0,0-0.1,0.1-0.1,0.1c-0.1,0.1-0.1,0.2-0.2,0.2l-0.5,0.6l1.6,0.5L199.5,24.8z
							"/>
						<path d="M203.8,26l-0.2,0l-4.5,1.3l4.3,0.1c0,0-0.1,0-0.1,0h0l0,0l0.1,0l0,0l0.4-0.1l0,0.1l0-0.1l1.4-0.2
							C205.1,26.4,204.6,26,203.8,26z"/>
						<path d="M221.8,121.3C221.8,121.3,221.8,121.3,221.8,121.3C221.8,121.3,221.8,121.3,221.8,121.3c-0.3-0.5-1.1-0.7-2-0.4
							l-0.2,0.1l-0.2,0.2c0,0,0,0,0,0c-0.1,0.1-0.1,0.1-0.2,0.2l1,0.6l0.1,0.1l0.1,0l0.2,0.1l0,0c0,0,0,0,0,0c0,0,0,0,0,0l-0.1-0.1
							l0,0l0.1,0.1l0,0l0,0l-0.1-0.1l1.4-0.5l0,0l0,0C221.9,121.4,221.9,121.3,221.8,121.3z"/>
						<path d="M225,102.6L225,102.6l-0.2,0.4l-1-0.2l0,0c0,0.1-0.1,0.1-0.1,0.2c0,0.2,0,0.4,0.1,0.6l0.1,0.3l1.2,0.1l0.6-1.4
							L225,102.6L225,102.6z"/>
						<path d="M105.6,69.4c-0.2-0.3-0.6-0.5-1.2-0.4l-0.1,0.7l0.1-0.7l-0.1,0.7l0,0l0.1-0.7c-0.2,0-0.3,0-0.5,0.1l0,0l0.2,0.6
							l-0.2-0.6l0.2,0.6h0l-0.2-0.6c-0.1,0-0.1,0-0.2,0.1l0.3,0.6c0,0,0,0,0,0c0,0,0,0,0,0l0.3,0.6l0,0c0,0-0.1,0-0.1,0
							c0,0-0.1,0-0.1,0c0,0,0,0,0,0c0,0,0,0,0,0c0,0,0.1,0.1,0.2,0.2c0,0.1,0,0.1,0,0.1s0,0,0,0c0,0,0,0,0,0s0,0,0,0c0,0,0,0,0,0
							l0,0c0,0,0,0,0,0l0.1,0l1.3,0.7l0,0c0.2-0.1,0.3-0.3,0.3-0.5l0,0c0,0,0,0,0,0c0.1-0.2,0.1-0.4,0.1-0.7l0-0.1l0-0.1
							C105.9,69.8,105.8,69.6,105.6,69.4z"/>
						<path d="M78.1,61.8C78.1,61.8,78.1,61.8,78.1,61.8L78.1,61.8C78.1,61.8,78,61.9,78.1,61.8C78,61.9,78,61.9,78,62
							c0,0,0,0.1-0.1,0.1c0,0,0,0.1,0,0.1l1.7,0.3c0,0,0,0,0,0v0c0,0,0-0.1,0.1-0.1l0,0c0.1-0.1,0.2-0.3,0.3-0.5c0,0,0,0,0-0.1
							L78.1,61.8C78,61.8,78.1,61.8,78.1,61.8z"/>
						<path d="M110,99.3l0.4,2.4c0,0.1,0,0.1,0,0.1c0,0,0,0,0,0c0,0,0,0,0,0c0,0,0,0,0,0c0,0,0,0,0,0l0,0l0.2,0.2l0.7,0.8l0,0
							c0.1,0,0.1-0.1,0.1-0.1c0.6-0.4,0.9-0.9,0.8-1.5l0,0l-0.1-0.2L110,99.3z"/>
						<path d="M96.3,74.5c-0.1,0-0.2-0.1-0.3-0.1c0,0-0.1,0-0.1,0l0,0l-0.8,1c0,0,0,0,0,0h0c0,0,0,0,0,0l0,0l-0.1,0v0h0l-0.2,0.2
							c0,0,0.1,0,0.1,0.1c0.1,0.1,0.2,0.1,0.3,0.1l0,0v0l0.1-0.1l0.6,0.7c0.3-0.2,0.9-0.6,0.7-1.4l0-0.3l-0.3-0.1
							C96.4,74.6,96.3,74.5,96.3,74.5z"/>
						<path d="M137.7,61C137.7,61,137.7,61,137.7,61L137.7,61C137.7,61,137.7,60.9,137.7,61C137.7,60.9,137.7,60.9,137.7,61
							C137.7,60.9,137.7,60.9,137.7,61l-0.7,0.6l0,0l0,0l-0.1,0.1l-0.3-0.3c0,0,0,0,0,0l0,0c-0.1,0-0.1,0.1-0.2,0.1c0,0,0,0,0,0l0,0
							l0,0l0,0c0,0,0,0,0,0c0,0,0,0,0.1,0l0,0c0,0,0,0,0,0l0.2,0.4l-0.2,0.2l0.2-0.1l0,0.1l0,0l0,0l0.3,0.6c0,0,0.1,0,0.1-0.1l0,0
							c0,0,0,0,0,0c0,0,0,0,0,0l0,0c0,0,0.1,0,0.1-0.1c0,0,0,0,0,0c0,0,0,0,0.1,0l0.6-0.3l-0.1-0.5l0,0
							C138.1,61.4,138,61.1,137.7,61L137.7,61z"/>
						<path d="M148.6,117.3L148.6,117.3L148.6,117.3L148.6,117.3L148.6,117.3L148.6,117.3L148.6,117.3l-0.3-0.1
							c0-0.1,0.1-0.1,0.1-0.1c0,0,0,0,0,0c0,0,0,0,0,0c0,0-0.1,0.1-0.1,0.1c-0.1,0-0.1,0.1-0.2,0.1l-0.3,0l0,0l0,0l-0.9,0l0,0.1
							c0,0,0,0,0,0c-0.1,0.4,0.1,0.8,0.5,1v0c0,0,0,0,0,0c0.2,0.1,0.5,0.2,0.9,0.2l0.4,0l0.3-0.2c0,0,0.1-0.1,0.1-0.1
							c0.2-0.1,0.5-0.3,0.7-0.5L148.6,117.3z"/>
						<path d="M128,146.5l-0.5,0.6L128,146.5c-0.2-0.1-0.4-0.1-0.6-0.1l-0.3,1.2l-0.1,0.2c0,0,0.1,0,0.1,0.1c0,0,0,0.1,0,0.1
							c0,0,0,0,0,0s0,0,0,0l0,0v0c0,0,0,0,0,0l0,0c0,0,0,0,0,0c0,0,0,0,0,0l0,0v0l0.1,0l1,0.9l0.1-0.1c0.1-0.1,0.2-0.1,0.2-0.2v0
							c0,0,0,0,0,0c0,0,0,0,0,0c0,0,0,0,0,0c0,0,0,0,0,0l0,0c0.2-0.2,0.3-0.3,0.3-0.5c0,0,0,0,0,0c0,0,0,0,0,0c0,0,0,0,0,0l0,0
							c0.1-0.2,0.1-0.5,0-0.7l-0.1-0.1C128.6,146.8,128.3,146.6,128,146.5z"/>
						<path d="M121.3,105.1c0,0,0,0.1,0,0.1l0,0l0,0l1.9-0.3c0-0.1,0-0.2,0-0.3c0,0,0,0,0-0.1l0,0L121.3,105.1
							C121.3,105.1,121.3,105.1,121.3,105.1z"/>
						<path d="M139.9,116.7L139.9,116.7c0,0-0.1,0-0.1-0.1c-0.1,0-0.1-0.1-0.2-0.1l0,0c0,0,0,0,0,0l0,0c0,0,0,0,0,0
							c-0.1,0-0.1-0.1-0.2-0.1l-1.2,1.2c0,0,0.1,0.1,0.1,0.1c0.1,0,0.1,0.1,0.2,0.1c0,0,0,0,0.1,0c0,0,0,0,0,0l0.7-0.6l0,0l0,0
							L139.9,116.7L139.9,116.7z"/>
						<path d="M112.4,85.3C112.4,85.3,112.4,85.3,112.4,85.3C112.4,85.3,112.4,85.3,112.4,85.3C112.4,85.3,112.4,85.3,112.4,85.3
							L112.4,85.3c-0.3-0.2-0.6-0.4-1.1-0.4l-0.2,0.7c0,0,0,0,0,0c0,0,0,0,0,0l-0.2,0.7c0.1,0,0.2,0.3,0.3,0.5c0,0.3,0,0.3,0,0.3
							l0,0c0,0,0,0,0,0c0,0,0,0,0,0l1,1l0.1,0c0.4-0.3,0.9-0.8,0.8-1.7l0-0.1l0,0C112.8,86,112.7,85.6,112.4,85.3z"/>
						<path d="M139.2,152.3l-0.7,0c-0.2,0-0.5,0-0.7,0l0,0.7l0,0l0,0l0,0.3v0l0.1,0l-0.1,0.1l0,0.4c0.1,0,0.2,0,0.4,0l0.2,0l0,0
							c0,0,0,0,0,0l0.1-0.4l1,0v0c0,0,0,0,0,0l0,0c0,0,0,0,0,0c0-0.2,0-0.4-0.1-0.6L139.2,152.3z"/>
						<path d="M136,120L136,120c0,0-0.1,0-0.1-0.1c-0.1,0-0.1-0.1-0.2-0.1l0,0c0,0,0,0,0,0c-0.1,0-0.1-0.1-0.2-0.1l0,0l-0.5,0.7
							l0.5-0.7l-0.7,0.9l-0.3,0.4c0,0,0.1,0,0.1,0.1c0,0,0,0,0,0c0,0,0,0,0.1,0c0.1,0,0.1,0.1,0.2,0.1l0.6-0.6l0,0l0,0L136,120
							L136,120z"/>
						<path d="M169.5,92.3C169.5,92.3,169.5,92.3,169.5,92.3c-0.3-0.1-0.7-0.2-1.1-0.1l-0.5,0l-0.3,0.3c0,0-0.1,0.1-0.1,0.1
							c-0.1,0.1-0.2,0.1-0.2,0.2l0,0c0,0,0,0,0,0c0,0-0.1,0.1-0.1,0.2c0,0,0,0,0,0c0,0,0,0,0,0c0,0,0,0,0,0l1.2,0.4l0,0l0,0v0l0,0
							l0,0l0,0l0,0l0.1,0l0.3,0.1c0,0,0.1-0.1,0.1-0.1c0,0,0.1,0,0.1-0.1l0.3,0l0,0l0,0l0.9-0.1c0-0.1,0-0.1,0-0.2c0,0,0,0,0-0.1
							c0,0,0,0,0,0c0,0,0,0,0,0C170.1,92.7,169.9,92.4,169.5,92.3L169.5,92.3z"/>
						<path d="M165.1,49.4C165.1,49.4,165.1,49.4,165.1,49.4C165.1,49.4,165.1,49.4,165.1,49.4C165.1,49.4,165.1,49.4,165.1,49.4
							L165.1,49.4c-0.1,0-0.1-0.1-0.2-0.1c0,0,0,0,0,0l0,0l0.1,0h0h0l0.3,0l0,0.1l0-0.1l1.5-0.3c0,0,0,0,0,0c0,0,0-0.1,0-0.1
							c-0.1-0.6-0.7-0.9-1.6-0.8l-0.1,0l-6.3,1.8L165.1,49.4C165.1,49.4,165.1,49.4,165.1,49.4z"/>
						<path d="M161.9,25.5l-0.8-0.3L161.9,25.5c0,0,0.1-0.1,0.1-0.1c0,0,0.1-0.1,0.1-0.1l0,0c0-0.1,0.1-0.2,0.1-0.3l-1.7-0.1l0,0
							l0,0h0c0,0,0,0,0,0l0,0l0,0v0v0c0,0,0,0,0,0l0,0l0,0l0,0l0,0l0,0l-0.1,0l0,0l0.2,0l0.9,0.9C161.6,25.8,161.7,25.7,161.9,25.5
							L161.9,25.5z"/>
						<path d="M256.7,33.6c0.9-0.3,1.4-0.9,1.4-1.5l0,0v0l-0.9,0.2c0,0,0,0,0,0s0,0,0,0l-0.8,0.2l0.2,0.5l0,0l-0.2-0.5l0,0l0.1,0.6
							l0,0l0,0l0.1,0.7C256.5,33.7,256.6,33.7,256.7,33.6z"/>
						<path d="M195.6,145.6c0,0,0,0.1-0.1,0.1c-0.1,0.1-0.1,0.2-0.1,0.3l0.6,0l-0.2,0.2l0.2-0.2l1.2,0.1c0,0,0,0,0,0l0,0
							c0,0,0,0,0,0c0-0.1,0.1-0.1,0.1-0.2c0-0.1,0.1-0.1,0.1-0.2l0.2-0.4l-1.4-1.1L195.6,145.6z"/>
						<path d="M266.6,74.2L266.6,74.2c0,0-0.1,0-0.1-0.1c-0.1,0-0.1-0.1-0.2-0.1c0,0,0,0,0,0l0,0c-0.1,0-0.1-0.1-0.2-0.1l-1.1,1.3
							c0,0,0.1,0,0.1,0.1c0.1,0.1,0.2,0.1,0.3,0.1l0,0c0,0,0,0,0,0L266.6,74.2L266.6,74.2z"/>
						<path d="M194.9,141.2l0.2,0.4l0,0l0,0l0.3,0.6l0,0c0.1,0,0.1-0.1,0.2-0.1c0.5-0.3,0.8-0.7,0.7-1.3c0,0,0,0,0,0c0,0,0,0,0,0
							c0,0,0,0,0,0c0,0,0,0,0,0L194.9,141.2L194.9,141.2z"/>
						<path d="M181.5,36.2C181.5,36.2,181.5,36.2,181.5,36.2L181.5,36.2c0,0-0.1,0.1-0.1,0.1c-0.1,0.1-0.2,0.2-0.2,0.4v0
							c0,0,0,0,0,0c0,0,0,0,0,0l0,0c0,0.1-0.1,0.2-0.1,0.3l0,0v0l1.9-0.2c0,0.1,0,0.1,0,0.1l0,0l0,0l0,0l0,0c0,0,0.1-0.1,0.1-0.1
							c0.1-0.1,0.1-0.2,0.2-0.3h0c0,0,0,0,0,0L181.5,36.2z"/>
						<path d="M208.3,113.3l0,0.9c0,0,0,0.1,0,0.1c0,0.1,0,0.3,0,0.5l0,0l0.7-0.2l0,0l-0.7,0.2l0,0l0.7-0.2l0,0.1l0-0.1l0.2-0.1
							c0,0,0,0,0,0s0,0,0,0l0.9-0.3l-0.9,0.2l0,0l0.9-0.2c0,0,0,0,0,0c0,0,0,0,0,0c0,0,0-0.1,0-0.2c0-0.1,0-0.1,0-0.2l0-0.5
							l-0.6-0.1L208.3,113.3z"/>
						<path d="M159.9,7.2l1.6,0.4l0-0.1c0.2-0.3,0.3-0.7,0.4-1h0c0,0,0,0,0,0c0-0.3,0-0.6-0.1-1c-0.5-1.5-3.2-2.7-5.7-3.1l-0.8,1.4
							c2.3,0.4,4.3,1.4,4.6,2.4C160.1,6.5,160.1,6.9,159.9,7.2L159.9,7.2z"/>
						<path d="M186.8,32.8l-0.1,1.2c0,0,0,0,0,0l0,0.1l0,0.1c0,0,0,0,0,0c0,0,0,0,0,0l0.1,0.5l0.2,0.6c0,0,0,0,0,0l0,0
							c0.1,0,0.2-0.1,0.3-0.1l0,0c0,0,0,0,0,0c0,0,0,0,0,0c0,0,0,0,0,0l0,0c0.5-0.2,0.9-0.6,1.1-1l0.1-0.1l0-0.1
							C188.6,33.4,188.3,32.7,186.8,32.8z"/>
						<path d="M269.7,98.8c-0.1-0.1-0.2-0.1-0.3-0.2c0,0,0,0,0,0c0,0,0,0,0,0c0,0,0,0,0,0c0,0,0,0,0,0c0,0,0,0,0,0c0,0,0,0,0,0
							c0,0,0,0,0,0c0,0,0,0,0,0s0,0,0,0l0,0c-0.1-0.1-0.3-0.1-0.5-0.1l0,0c0,0,0,0,0,0l0,0c0,0,0,0,0,0c0,0,0,0,0,0c0,0,0,0,0,0
							c0,0,0,0,0,0c0,0,0,0,0,0c0,0,0,0,0,0c0,0,0,0,0,0c0,0,0,0,0,0c0,0,0,0,0,0c0,0,0,0,0,0v0c0,0,0,0,0,0l0,0c0,0,0,0,0,0l0,0
							c0,0,0,0,0,0h0c0,0,0,0,0,0l0,0c0,0,0,0,0,0l-0.2,1l-0.1,0l0,0l0,0l0.1,0l-0.1,0.4c-0.2,0-0.4-0.1-0.4-0.1l0,0l0,0
							c0,0,0,0,0,0c0,0,0.1,0,0.1,0.1c0.1,0.1,0.1,0.1,0.2,0.2v0c0,0,0,0,0,0l0.5-0.4l0.9,0.2c0.1-0.1,0.1-0.3,0.2-0.4l0.1-0.4
							L269.7,98.8C269.8,98.9,269.8,98.8,269.7,98.8z"/>
						<path d="M143.7,69.7L143.7,69.7L143.7,69.7l-0.8,0.5c0,0,0,0,0,0L143.7,69.7l-0.7,0.4L143.7,69.7l-0.8,0.5v0L143.7,69.7
							l-0.7,0.4L143.7,69.7L143.7,69.7L143.7,69.7l-0.8,0.5c0,0,0,0,0,0L143.7,69.7l-0.7,0.4L143.7,69.7l-0.8,0.5L143.7,69.7
							l-0.8,0.5l0,0L143.7,69.7l-0.8,0.5c0,0,0,0,0,0L143.7,69.7l-0.7,0.4L143.7,69.7L143.7,69.7l-0.8,0.5h0L143.7,69.7
							c-0.5-0.4-1.1-0.5-1.8-0.3c-0.1,0-0.2,0-0.2,0.1l-0.1,0.1l-0.1,0.1c-0.7,0.5-0.8,0.9-0.8,1.2l1.6-0.3l0,0l-0.1,0.1l0,0
							l0.1-0.1l0,0l0.1,0h0l0,0l-0.1,0.1l0,0l0,0l0.1,0l0,0l-0.2,0.1l0,0c0,0,0,0,0,0l0,0l0,0l0,0v0l0,0l0,0l0.1-0.1l0,0l0,0l0,0
							l0.1-0.1l0,0l-0.1,0.1l0,0l-0.1,0l0.1,0l0,0l0.1-0.1h0l0.1,0c0,0,0,0,0,0c0,0,0,0,0,0l0,0c0,0,0,0,0,0c0,0,0,0,0.1,0v0v0
							l-0.1-0.1l0,0l0.5-0.3L143.7,69.7l-0.8,0.5L143.7,69.7z"/>
						<polygon points="258.8,123.3 258.4,122.8 256.8,123.8 256.8,123.8 256.8,123.8 257.3,124.3 258.8,123.3 258.8,123.3 						"/>
						<path d="M256,116c0.1,0,0.1-0.1,0.2-0.1l-0.9-1.1l-0.1,0.1c-0.1,0-0.1,0.1-0.2,0.1l0.9,1.1l0,0l0,0L256,116z"/>
						<path d="M188.1,137.6l-1.9,0.5c0,0.1,0,0.1,0,0.1c0,0,0,0,0,0l0,0c0,0,0,0,0-0.1c0,0,0,0,0,0l1.4,0.7c0.2-0.2,0.5-0.5,0.4-1
							C188.1,137.7,188.1,137.7,188.1,137.6L188.1,137.6L188.1,137.6z"/>
						<polygon points="253.2,106.9 253.2,106.9 253.2,106.9 252.8,106.6 252.3,107.3 251.7,107.6 252,108.2 252.4,108.8 
							252.7,108.6 252.8,108.7 253.5,108.3 254.4,107.7 254.1,107.5 255.1,106 						"/>
						<path d="M266.3,99.7C266.2,99.7,266.2,99.7,266.3,99.7C266.2,99.7,266.2,99.7,266.3,99.7c-0.3,0.1-0.6,0.2-0.8,0.3
							c-0.2,0.1-0.3,0.1-0.5,0.1v0l0,0l0.2,0.6l0,0l-0.9-0.3l-0.1,0.1l0.9,0.3l-0.5,0.5l0,0c0.1,0.1,0.3,0.1,0.4,0.2
							c0.1,0.1,0.3,0.1,0.4,0.2l0.5-0.6c0.2-0.1,0.4-0.1,0.7-0.2c0,0,0,0,0,0c0.1,0,0.1,0,0.2-0.1c0,0,0,0,0,0l0,0l0,0l-0.2-1.3
							C266.5,99.6,266.4,99.6,266.3,99.7C266.3,99.7,266.3,99.7,266.3,99.7z"/>
						<path d="M58.6,116.8L58.6,116.8c-0.1,0.1-0.1,0.1-0.1,0.1c0,0-0.1,0-0.1,0.1l0.5,0.5l-0.5-0.5c-0.1,0.1-0.2,0.1-0.3,0.2
							c0,0,0,0,0,0l0,0c0,0,0,0,0,0l1.2,0.9c0,0,0,0,0,0c0,0,0,0,0,0c0,0,0,0,0,0c0,0,0,0,0,0c0,0,0.1,0,0.1-0.1c0,0,0,0,0.1,0
							c0.1,0,0.1-0.1,0.2-0.1l0.1-0.1l-0.8-0.5L58.6,116.8z"/>
						<path d="M82.5,107.5l-0.1,0l0,0l-0.1,0l-0.1-0.1l0,0.1l0,0l0-0.1l0,0l0,0l0,0.1l-0.7,0.2l0,0l0,0l-0.9,0.2l0,0
							c0.1,0.6,0.7,0.9,1.6,0.8l0.2,0c0.1,0,0.1,0,0.2,0l0,0l0,0l-0.2-0.6l0,0c0,0,0,0,0,0l0.2,0.6c0,0,0.1,0,0.1,0l-0.4-1l0-0.1
							L82.5,107.5z"/>
						<path d="M90.9,126.3l0.4,0.6c0,0,0,0,0,0v0c0,0,0,0,0,0l0.3,0.5l-0.1,0.1l0.1,0l-0.1,0l0.1-0.1l0,0l0.7-0.4l0.8-0.5
							C92.6,126,91.7,125.9,90.9,126.3z"/>
						<path d="M72.2,94.6L71.8,96l0,0c0,0,0,0,0.1,0c0.1,0,0.3,0.2,0.3,0.3c0,0.1,0,0.2,0,0.2c0,0,0,0,0,0l0,0c0,0,0,0,0,0l0,0
							l1.7,0.3c0.2-0.3,0.3-0.7,0.2-1.1l0-0.1l0-0.1C73.6,95,73,94.6,72.2,94.6z"/>
						<path d="M71.5,65.4C71.5,65.4,71.5,65.4,71.5,65.4L71.5,65.4L70.9,66L70.7,66v0l0,0l-0.2,0.3l0,0l0,0l0.2,0.1l-0.6,0.6
							c0,0,0,0,0,0c0,0,0,0,0,0c0,0,0,0,0,0c0,0,0,0,0,0l0,0c0.2,0.1,0.3,0.1,0.5,0.2l1,0.3l1.1-1.6L71.5,65.4z"/>
						<path d="M101.7,86.2l-2.6-2.7l0.8,3.3c0,0.1,0,0.1,0,0.1c0,0,0,0,0,0s0,0,0,0c0,0,0-0.1,0.1-0.1c0,0,0,0,0,0c0,0,0,0,0,0
							l0.2,0.2l-0.2,0.1l0.2-0.1l0.3,0.3c0,0,0,0,0,0c0,0,0,0,0,0l0.5,0.5c0.1,0,0.1-0.1,0.2-0.1c0.4-0.3,0.6-0.8,0.5-1.3l0,0
							c0,0,0,0,0,0L101.7,86.2z"/>
						<path d="M79,59.3c-0.1,0-0.2-0.1-0.3-0.1l0,0c0,0,0,0,0,0c0,0,0,0,0,0l0,0c-0.1,0-0.3-0.1-0.5-0.1L78,59.7l0,0l0,0l-0.1,0.3
							l0,0l0,0l0,0l0,0l0,0l-0.1,0.3c0,0-0.1,0-0.1,0l0,0c0,0,0,0,0,0c0,0,0,0,0,0l0,0c0,0,0,0,0,0c0,0,0.1,0,0.1,0.1
							c0.1,0.1,0.2,0.1,0.3,0.1v0c0,0,0,0,0,0l0,0l0.3,0.8c0,0,0.1,0,0.1-0.1c0.1,0,0.1,0,0.1-0.1c0,0,0,0,0,0c0,0,0,0,0,0
							c0.4-0.2,0.7-0.5,0.8-0.9c0,0,0,0,0,0l0,0c0.1-0.2,0.1-0.4,0.1-0.6l0-0.3l-0.4-0.1C79.1,59.3,79,59.3,79,59.3z"/>
						<path d="M51.3,87.5C51.3,87.5,51.3,87.5,51.3,87.5C51.3,87.5,51.3,87.5,51.3,87.5L51.3,87.5C51.3,87.4,51.3,87.4,51.3,87.5
							L51.3,87.5L49.7,88l0,0l0,0l0.9,1l0,0l0,0c0.1-0.1,0.2-0.1,0.3-0.2C51.3,88.5,51.5,88,51.3,87.5L51.3,87.5z"/>
						<path d="M124.2,81C124.2,81,124.2,81,124.2,81l-1.8,0.6c0.2,0.3,0.5,0.6,1,0.7L124.2,81C124.2,81,124.2,81,124.2,81L124.2,81z
							"/>
						<path d="M69,111.1c0,0,0.1,0.1,0.2,0.3l0.9-0.3l0,0l0,0l0.9-0.3c-0.1-0.3-0.4-0.8-1-1L69,111.1z"/>
						<path d="M103.1,49.8l-0.4,0.2l-0.1,0.3c0,0,0,0.1-0.1,0.1c0,0.1-0.1,0.1-0.1,0.2c0,0,0,0,0,0c0,0,0,0,0,0
							c0,0.1-0.1,0.1-0.1,0.2l0,0l1.3,0l0,0l0.6,0c0,0,0-0.1,0.1-0.1c0.1-0.1,0.1-0.2,0.1-0.3l0,0v0l-0.4,0l0.6-0.8
							C104.1,49.5,103.6,49.6,103.1,49.8z"/>
						<path d="M122.2,97.4l-0.9,0.3l0,0l0,0l-0.9,0.3c0,0.1,0,0.1,0,0.1c0,0,0,0,0,0c0,0,0,0,0,0c0,0,0,0,0-0.1c0,0,0,0,0,0l1.1,1
							C122.1,98.5,122.4,98,122.2,97.4L122.2,97.4L122.2,97.4z"/>
						<path d="M113.2,118.3L113.2,118.3l-0.6,0.6l0,0L113.2,118.3l-0.2-0.1c0,0,0,0,0,0c-0.2,0-0.5,0-0.7,0l-0.1,0l-0.3,0.1l0.5,0.8
							l0,0l0,0l-0.3,0.4l0.2-0.3l0.1-0.1l0,0l0,0l0,0l0,0l0.1,0.3l0-0.2l0-0.1l0,0.1l0-0.1l0.1,0.2l-0.2-0.4L113.2,118.3z"/>
						<path d="M29.8,63.2c-0.5-0.2-1.1-0.3-1.7-0.1l0.2,0.6c0,0,0,0,0,0c0,0,0,0,0,0l0.2,0.6c0,0,0,0,0.1,0l1.4-1.1l0,0
							C29.9,63.2,29.8,63.2,29.8,63.2z"/>
						<path d="M136,42.4C136,42.4,135.9,42.4,136,42.4C135.9,42.4,135.9,42.4,136,42.4l-0.3,0.1L136,42.4l-0.3,0.1l-1.6,0.4
							c0,0.1,0,0.2,0.1,0.2c0.2,0.5,0.8,0.8,1.6,0.7l0.2,0l5.3-1.6L136,42.4z"/>
						<path d="M58,88.8l-0.2-0.2l-2.4-0.8l0.9,1.8c0-0.1,0.1-0.2,0.2-0.3l0.3,1.3l0.1,0l0.1,0c0.1,0,0.2-0.1,0.3-0.1
							c0.4-0.1,0.6-0.4,0.8-0.6c0.2-0.2,0.3-0.6,0.1-1L58,88.8z"/>
						<polygon points="51.1,81.4 51.1,81.4 50.6,81 50.6,81 50.6,81 49.1,82 49.6,82.4 50.3,81.9 50.3,81.9 50.3,81.9 50.3,81.9 
							51.1,81.4 						"/>
						<path d="M66,83.4c-0.1-0.1-0.3-0.2-0.4-0.3c0,0,0,0,0,0c0,0,0,0,0,0c0,0,0,0-0.1,0l0,0l-0.3,0.3l0,0l-0.2,0.1l-0.2,0.1
							l0.1,0.1l-0.6,0.6c0.1,0,0.2,0.1,0.2,0.2l0.7,0.5l0.5-0.4l1.3-0.4l-1-0.7L66,83.4z"/>
						<path d="M129.1,114.6l0.2-0.2L129.1,114.6l-1.2,0.2v0c0,0,0,0,0,0c0,0,0,0,0,0c0,0,0,0,0,0l0,0.1c0,0.1,0,0.2,0,0.2l0,0.3
							l0.3,0.2l1.4,0.5l0.1-1.1c0,0,0-0.1,0-0.1l0-0.1c0,0,0,0,0-0.1c0-0.1,0-0.1,0-0.2l-0.5,0.1L129.1,114.6z"/>
						<path d="M91.3,135C91.3,135,91.3,135,91.3,135L91.3,135L91.3,135l-0.8-1.1c-0.3,0.1-0.7,0.2-1.2,0.3l-5.4,0.4l4.7,0.9l0.4,0.2
							l0.5-0.1l0,0l0.2-0.1c0.4,0,0.7-0.1,1-0.2C90.8,135.2,91.1,135.1,91.3,135C91.3,135,91.3,135,91.3,135z"/>
						<path d="M98.8,169.5c-0.1-0.1-0.2-0.3-0.3-0.4l0,0l0,0c0,0,0,0,0,0c0,0,0,0,0,0v0c0,0,0,0,0,0c0,0,0,0,0,0l0,0c0,0,0,0,0,0
							c0,0,0,0,0,0c0,0,0,0,0,0c0,0,0,0,0,0c0,0,0,0,0,0c0,0,0,0,0,0c0,0,0,0,0,0c0,0,0,0,0,0c0,0,0,0,0,0c0,0,0,0,0,0c0,0,0,0,0,0
							c0,0,0,0,0,0l0,0c0,0,0,0,0,0c0,0,0,0,0,0c0,0,0,0,0,0c0,0,0,0,0,0l0,0c0,0,0,0,0,0c0,0,0,0,0,0c0,0,0,0,0,0c0,0,0,0,0,0v0
							c0,0,0,0,0,0c0,0,0,0,0,0c0,0,0,0,0,0l0,0c0,0,0,0,0,0l0,0c0,0,0,0,0,0c0,0,0,0,0,0c0,0,0,0,0,0c0,0,0,0,0,0l0,0c0,0,0,0,0,0
							c0,0,0,0,0,0c0,0,0,0,0,0c0,0,0,0,0,0l0,0c0,0,0,0,0,0l0,0c0,0,0,0,0,0l0,0c0,0,0,0,0,0c0,0,0,0,0,0c0,0,0,0,0,0c0,0,0,0,0,0
							c0,0,0,0,0,0l0,0c0,0,0,0,0,0c0,0,0,0,0,0c0,0,0,0,0,0c0,0,0,0,0,0h0c0,0,0,0,0,0l0,0c0,0,0,0,0,0c0,0,0,0,0,0l-0.5,0.6l0,0
							l0,0l-0.3,0.4l-0.1,0l0,0l0,0l0.1,0l0,0l-0.1,0l0,0l0.1,0l-0.2,0.2c0,0,0,0,0,0c0,0,0,0,0,0l0,0c-0.1,0-0.1-0.1-0.1-0.1
							s0,0,0,0c0,0,0,0,0,0c0,0,0,0.1,0.1,0.1c0,0.1,0.1,0.2,0.1,0.2l0,0l0,0l0.6-0.3l0.2,0.1c0,0,0,0,0,0c0,0,0,0,0,0l0.8,0.2
							c0.1-0.1,0.2-0.2,0.2-0.4l0.1-0.3l-0.2-0.2C98.8,169.6,98.8,169.6,98.8,169.5z"/>
						<path d="M96,163.3L96,163.3c0,0,0,0,0.1,0.1c0,0,0,0.1,0,0.1c0,0,0,0,0,0c0,0,0,0,0,0c0,0,0,0,0,0c0,0,0,0,0,0h0c0,0,0,0,0,0
							l0.1,0l0.1,0.6l0,0l0,0l0.1,0.7l0.1,0c0.1,0,0.2-0.1,0.3-0.1c0,0,0,0,0,0c0,0,0,0,0,0c0,0,0,0,0,0c0,0,0,0,0,0c0,0,0,0,0,0
							c0,0,0,0,0,0c0.2-0.1,0.4-0.2,0.6-0.4c0,0,0,0,0,0c0,0,0,0,0,0c0,0,0,0,0,0c0,0,0,0,0,0c0,0,0,0,0,0l0,0
							c0.3-0.3,0.5-0.6,0.5-1l0-0.1c-0.1-0.4-0.2-0.7-0.6-0.9L96,163.3z"/>
						<path d="M225.4,88.7l-1.1,1.3l0,0c0,0,0,0,0,0c0,0,0,0,0,0c0,0.1,0,0.2-0.1,0.2c0,0,0,0-0.1,0l0.4,1.3c0.1,0,0.2-0.1,0.3-0.1
							c0.9-0.4,1.4-1.1,1.2-1.9l0-0.1l0-0.1C225.9,89,225.7,88.8,225.4,88.7z"/>
						<path d="M134,54.3C134,54.3,134,54.3,134,54.3C134,54.3,134,54.3,134,54.3L134,54.3C134,54.3,134,54.3,134,54.3L134,54.3
							c-0.1-0.1-0.3-0.2-0.5-0.2c0,0,0,0,0,0c0,0,0,0,0,0c0,0,0,0,0,0c0,0,0,0,0,0c0,0,0,0,0,0c0,0,0,0,0,0c0,0,0,0,0,0c0,0,0,0,0,0
							c-0.1,0-0.1,0-0.2,0l-0.7,1.4c0,0,0.1,0,0.2,0.5c0,0.3,0,0.4,0,0.4c0,0,0,0,0,0l0.6,0.4c0,0,0,0,0,0c0,0,0,0,0,0L134,57
							c0.3-0.2,0.5-0.5,0.6-0.9c0.1-0.2,0.1-0.5,0.1-0.8l0-0.1C134.6,55.1,134.5,54.6,134,54.3C134,54.3,134,54.3,134,54.3z"/>
						<path d="M141.1,134.6l-3.6-5.4l1.8,6.1l0.1,0.1c0.4,0.7,1.2,1,2.1,0.9l0,0c0,0,0,0,0,0c0,0,0,0,0,0c0,0,0,0,0,0c0,0,0,0,0,0
							c0,0,0,0,0,0c0,0,0,0,0,0c0,0,0,0,0,0c0,0,0,0,0,0c0,0,0,0,0,0c0,0,0,0,0,0c0,0,0,0,0,0c0,0,0,0,0,0c0,0,0,0,0,0c0,0,0,0,0,0
							c0,0,0,0,0,0c0,0,0,0,0,0c0,0,0,0,0,0c0,0,0,0,0,0l0,0c0,0,0,0,0,0c0,0,0,0,0,0c0,0,0,0,0,0c0,0,0,0,0,0c0,0,0,0,0,0l0,0
							c0,0,0,0,0,0l0,0c0,0,0,0,0,0l-0.2-1.3C141.5,134.9,141.3,134.9,141.1,134.6z"/>
						<path d="M162.6,110c0.3-0.3,0.5-0.7,0.3-1.1v0v0c0,0,0,0,0-0.1l0,0v0l-0.8,0.3l0.8-0.3l-1.7,0.6l0,0l0,0l0,0l0,0l0,0l0,0
							L162.6,110z"/>
						<path d="M150.5,101l0.6,1.1v0l0,0l1.3-1.1C151.9,100.7,151.2,100.7,150.5,101z"/>
						<path d="M164.4,11L164.4,11L164.4,11L164.4,11L164.4,11C164.4,11,164.4,11,164.4,11L164.4,11L164.4,11L164.4,11L164.4,11
							l-0.1-0.1l-1-0.8c-0.1,0.1-0.1,0.1-0.2,0.2l0.7,0.4l-0.7-0.4l-0.1,0.1c0,0-0.1,0.1-0.1,0.1l0.8,0.3l-0.8-0.3l0,0.1
							c-0.1,0.1-0.2,0.3-0.2,0.4h1.6L164.4,11z"/>
						<path d="M133.9,28.4c0.1,0,0.3-0.1,0.4-0.1c0.4-0.1,1.3-0.4,2-0.9c0,0,0,0,0,0c0,0,0,0,0,0c0.4-0.3,0.7-0.6,0.9-1l-0.9-0.1
							l0.9,0.1l-0.9-0.1c0,0,0,0,0,0l0.9,0.1l0-0.1l-0.9,0l0.9,0l-1.8-0.1l0.9,0l-0.9,0l0,0l0.9,0.1c0,0,0,0,0,0l-0.9-0.1
							c0,0.1-0.1,0.1-0.1,0.2l0,0l0,0c-0.2,0.2-0.5,0.3-1.3,0.6c-0.1,0-0.3,0.1-0.4,0.1l-0.2,0c-0.4,0.1-0.8,0.2-1.1,0.3
							c0,0,0,0,0,0c-0.1,0-0.2,0-0.3,0l-0.6,1.4c0,0,0,0,0.1,0l0,0c0.1,0,0.2,0,0.3,0l0,0c0,0,0,0,0,0c0,0,0,0,0,0c0,0,0,0,0,0
							c0,0,0,0,0,0c0,0,0,0,0,0c0,0,0,0,0,0c0,0,0,0,0,0c0,0,0,0,0,0c0,0,0,0,0,0c0,0,0,0,0,0l0,0c0.6,0,1.3-0.2,1.9-0.4L133.9,28.4
							z"/>
						<path d="M88.8,26.6l0.1-0.1c0.1-0.1,0.3-0.1,0.4-0.2l-0.6-0.8l0-0.2l0.1,0l-0.1,0l0,0l-0.1,0l-0.1-0.1l0,0l0,0c0,0,0,0,0,0
							c0,0-0.1,0-0.1,0l0,0c0,0,0,0,0,0l0,0.1l-0.6,0.1l0,0l0,0l-0.9,0.2c0,0,0,0,0,0.1c0.1,0.6,0.8,0.9,1.7,0.8L88.8,26.6z"/>
						<path d="M250.8,21.6L250.8,21.6L250.8,21.6l-0.9,0.3L250.8,21.6l-0.9,0.3c0,0,0,0,0,0.1c0,0.1,0,0.2,0,0.2v0c0,0,0,0,0,0
							c0,0,0,0,0,0c0,0,0,0,0,0l0.7,0.3l0.7,0.3c0.2-0.2,0.3-0.4,0.4-0.5c0,0,0,0,0,0c0,0,0,0,0,0c0.1-0.2,0.1-0.4,0.1-0.5l0-0.1
							c0-0.1,0-0.2,0-0.3L250.8,21.6l0.9-0.3L250.8,21.6z"/>
						<path d="M255.9,23.8c-0.2-0.3-0.5-0.5-1-0.7c0,0,0,0,0,0l-0.9,1.3c0.1,0,0.2,0.1,0.2,0.2c0.1,0.1,0.2,0.3,0.3,0.5
							c0.1,0.3,0,0.5,0,0.7c0,0,0,0,0,0l0,0l1.8,0.1c0.2-0.4,0.2-0.8,0-1.3l0,0l0,0C256.2,24.3,256.1,24.1,255.9,23.8z"/>
						<path d="M121.7,128.7l-0.6,1.4c0,0,0.1,0,0.1,0c0.8,0.1,1.5,0.7,1.7,1.5c0.1,0.4,0.1,0.8,0,1.2c0,0.1,0,0.1-0.1,0.2l0,0
							l1.8,0.1c0.3-0.8,0.3-1.5,0.1-2.1C124.4,129.7,123.2,128.9,121.7,128.7z"/>
						<path d="M182.5,135.3L182.5,135.3c0.1-0.2,0.2-0.4,0.1-0.6v0c0,0,0,0,0,0c0,0,0,0,0,0c0,0,0,0,0,0l0,0c0,0,0,0,0,0
							c0,0,0,0,0,0c0,0,0-0.1-0.1-0.1l-0.9,0.4l0.9-0.4l-0.9,0.4l0,0l0,0l-0.4,0.2l0,0l0,0l-0.2,0.1l0,0l-0.1,0l-0.2,0.1l0.3-0.1
							l0.2-0.1L182.5,135.3L182.5,135.3z"/>
						<polygon points="166.7,147.7 167.6,147.4 167.7,148 167.7,148 167.6,147.4 167.8,147.4 168.5,147.5 169,146.4 166.5,147 
													"/>
						<path d="M142.6,18.8C142.6,18.9,142.6,18.9,142.6,18.8L142.6,18.8c-0.1,0.1,0,0.1,0,0.1l-0.4,0.1l0.2-0.2c0,0,0,0,0,0l0,0l0,0
							l-0.9-0.8l0,0l0,0c-0.2,0.1-0.3,0.2-0.4,0.3v0c0,0,0,0,0,0c0,0,0,0,0,0c0,0,0,0,0,0c-0.3,0.3-0.4,0.7-0.4,0.9l0,0.1
							c0,0.3,0.2,0.6,0.5,0.8l0.9-0.9l0.5,0l0,0l0,0C142.6,18.9,142.6,18.9,142.6,18.8C142.6,18.8,142.6,18.8,142.6,18.8
							C142.6,18.8,142.6,18.8,142.6,18.8z"/>
						<path d="M153.7,92l-0.1,0c-0.2,0-0.4,0-0.7,0l-0.3,1.4l0,0c0,0,0.1,0,0.1,0c0.1,0,0.2,0,0.2,0c0,0,0,0,0,0l0.2,0l0,0L153.7,92
							L153.7,92L153.7,92z"/>
						<path d="M71.5,78.9C71.5,78.9,71.4,78.9,71.5,78.9C71.4,78.9,71.4,78.9,71.5,78.9C71.4,78.9,71.4,78.9,71.5,78.9
							C71.4,78.9,71.4,78.9,71.5,78.9C71.4,78.9,71.4,78.9,71.5,78.9c-0.2,0-0.3,0-0.4,0c0,0,0,0,0,0c-0.1,0-0.3,0-0.4,0l-0.1,0
							L70.3,79c-0.1,0.1-0.3,0.1-0.5,0.2c0,0,0,0,0,0c-0.1,0-0.1,0.1-0.2,0.1l1,1l0,0l0,0c0,0,0,0,0,0c0,0,0.1-0.1,0.2-0.1
							c0.1,0,0.1,0,0.1,0c0,0,0,0,0,0l0,0l0,0l0,0l0,0l0,0L71.5,78.9z"/>
						<path d="M103.3,146.4l-0.8,0.5L103.3,146.4l-0.8,0.5v0l0,0l0,0h0L103.3,146.4c-0.1-0.1-0.2-0.1-0.3-0.2c0,0,0,0,0,0
							c0,0,0,0,0,0c-0.5-0.3-1.1-0.3-1.8,0l-0.2,0.1l-0.1,0.1c-0.5,0.3-0.8,0.7-0.8,1.2v0c0,0,0,0,0,0s0,0,0,0l0,0
							c0,0.1,0,0.2,0,0.2l0.9-0.2c0,0,0,0,0,0c0,0,0,0,0,0l0.7-0.2l0,0l0,0c0,0,0,0-0.1,0l0,0c0,0,0,0,0,0c0,0,0,0,0,0l0,0v0
							l0.2-0.1h0l0,0l-0.2,0.1l0,0v0l0,0l0.2-0.1l0,0l0,0c0,0,0,0,0,0.1c0,0,0,0,0,0c0,0,0,0,0,0c0,0,0,0,0.1-0.1l0,0c0,0,0,0,0,0
							l0,0l0,0l0.5-0.3L103.3,146.4z"/>
						<path d="M216.6,78.1c-0.4-0.4-0.7-0.7-1.1-0.8c0,0,0,0,0,0c0,0,0,0,0,0c-0.6-0.2-1.2-0.1-1.7,0c0,0,0,0,0,0
							c-0.1,0-0.3,0.1-0.5,0.2l0.3,0.6l0,0l0,0l0.3,0.6c0.1,0,0.1,0,0.2-0.1c0.2,0,0.4-0.1,0.8,0.3c0,0.1,0,0.1,0,0.1l0,0l0,0l0,0
							l1.7,0.4l0,0c0,0,0.1-0.1,0.1-0.1c0,0,0,0,0,0l0,0c0,0,0,0,0,0c0.1-0.3,0.2-0.6,0-1L216.6,78.1L216.6,78.1z"/>
						<path d="M78.9,37.5l1.6,0.5l0,0c0,0,0-0.1,0.1-0.1c0.2-0.3,0.4-0.6,0.5-1l-1.8-0.1C79.2,37.1,79.1,37.3,78.9,37.5z"/>
						<path d="M266.7,90.1C266.6,90.1,266.6,90,266.7,90.1C266.6,90,266.6,90,266.7,90.1c-0.1-0.1-0.1-0.1-0.1-0.1
							c-0.1-0.1-0.2-0.1-0.3-0.2L265,91c0,0,0.1,0.1,0.1,0.1c0.1,0.1,0.1,0.1,0.2,0.1L266.7,90.1C266.7,90.1,266.7,90.1,266.7,90.1
							C266.7,90.1,266.7,90.1,266.7,90.1z"/>
						<path d="M111.1,148.7C111.1,148.7,111.1,148.7,111.1,148.7L111.1,148.7c0,0,0,0.1-0.1,0.1c-0.1,0.1-0.1,0.2-0.2,0.4l1.8,0.1
							c0,0,0,0,0-0.1c0,0,0,0,0,0c0,0,0,0,0-0.1c0.1-0.1,0.1-0.2,0.1-0.3l0,0v0L111.1,148.7z"/>
						<path d="M85.4,113.7c0,0.1,0.1,0.1,0.2,0.2c0,0,0,0,0,0c0,0,0,0,0,0c0,0,0,0,0.1,0l0,0l0.7-0.5c0,0,0,0,0,0c0,0,0,0,0,0
							l0.7-0.5l-0.9,0.3l0,0l0,0l-0.9,0.3C85.3,113.6,85.3,113.7,85.4,113.7z"/>
						<path d="M128,123.7L128,123.7C128,123.7,128,123.7,128,123.7c0.1,0,0.1,0.1,0.1,0.1v0l-0.2,0.1l0-0.1l0,0.1l-0.7,0.2l0,0l0,0
							l-0.9,0.3c0,0,0,0,0,0.1c0.2,0.5,0.9,0.7,1.7,0.6l0.1,0l7.6-2.2L128,123.7C128,123.7,128,123.7,128,123.7z"/>
						<path d="M80.4,66.2L80.4,66.2C80.4,66.2,80.4,66.2,80.4,66.2c0,0-0.1,0.1-0.1,0.1c-0.1,0-0.1,0.1-0.2,0.1c0,0-0.1,0-0.1,0.1
							l0,0l1.3,0.8v0l0,0c0,0,0.1-0.1,0.1-0.1c0.1-0.1,0.2-0.2,0.4-0.3l0,0c0,0,0,0,0-0.1l0,0L80.4,66.2
							C80.4,66.2,80.4,66.2,80.4,66.2z"/>
						<path d="M76.5,47.6L76.5,47.6c-0.1,0.1-0.3,0.2-0.4,0.4c-0.6,0.6-1.4,1.3-1.9,1.5c-0.4,0.1-1.6-0.9-2.4-1.5l-0.2-0.2l-6.5-2.5
							l5.1,3.6l0.1,0.1c1.5,1.3,2.6,2.2,4.3,1.8c1-0.3,2-1.2,3.3-2.4L76.5,47.6z"/>
						<path d="M62.9,99.8l-0.1,0c-0.2,0-0.3-0.1-0.6-0.1c0,0,0,0,0,0c0,0,0,0-0.1,0l0,0l-0.7,1.4c0.1,0,0.3,0.1,0.4,0.1l0.2,0l0,0
							l0,0l0.5-0.7l0,0l0,0L62.9,99.8L62.9,99.8L62.9,99.8z"/>
						<path d="M209,141.1C209,141.1,209,141.1,209,141.1L209,141.1c0-0.1,0-0.1,0-0.2l0-0.1l0,0l0,0l-0.6,0.1l0.2-0.7l0,0l0,0
							c-0.1,0-0.2,0-0.3,0l-1.1,0l-0.1,0.9c0,0.1,0,0.1,0,0.2v0c0,0,0,0,0,0c0,0.1,0,0.2,0,0.3l0.9-0.2l0,0.2c0,0,0,0,0,0
							c0,0,0,0,0,0c0,0,0.1,0,0.1,0c0,0,0,0,0,0c0,0,0,0,0,0c0,0,0,0,0,0c0,0,0,0,0,0l0.1-0.2L209,141.1
							C209,141.2,208.9,141.1,209,141.1z"/>
						<path d="M179.9,78.1l0.1-0.1l0,0L179.9,78.1L179.9,78.1l0.1-0.1c-0.1-0.2-0.3-0.3-0.5-0.3l0,0c0,0,0,0,0,0c0,0,0,0,0,0
							c0,0,0,0,0,0c0,0,0,0,0,0l0,0c0,0,0,0,0,0l0,0c0,0,0,0,0,0l0,0l0,0c-0.1,0-0.2,0-0.3,0c-0.3,0-0.7,0.1-1,0.3l-0.5,0.3l0,0.4
							c0,0,0,0.1,0,0.1c0,0.1,0,0.3,0,0.4l0,0l0.8-0.2l0,0c0.1,0,0.1,0.1,0.2,0.1c-0.1,0-0.1-0.1-0.1-0.1l0.3,0l-0.1,0.1l0,0
							c0,0,0,0,0,0c0,0,0,0,0,0l0.1-0.1l0.2,0l0.1,0.2c0,0,0,0-0.1,0c-0.1,0-0.2,0-0.2,0c0,0-0.1,0-0.1,0c0.2,0,0.4,0,0.6,0
							C179.6,78.8,179.9,78.5,179.9,78.1z"/>
						<path d="M225.2,41.7C225.2,41.7,225.2,41.7,225.2,41.7C225.2,41.7,225.2,41.7,225.2,41.7C225.2,41.7,225.2,41.7,225.2,41.7
							C225.1,41.7,225.1,41.7,225.2,41.7l0.2-0.2l0,0.1l0-0.1l0.6-0.2l0,0l0,0l0.9-0.3c-0.2-0.4-0.7-0.7-1.5-0.7l-0.2,0l-5,1.5
							L225.2,41.7C225.2,41.7,225.2,41.7,225.2,41.7z"/>
						<path d="M224.6,23.3l2.6-2.4l-3.9,1.8l-0.1,0l-0.1,0l0,0l-0.7,0.4c0,0-0.1,0-0.1,0.1c-0.1,0-0.1,0.1-0.1,0.1l0,0l0,0l-0.9,0.5
							l0.9,0.3l-0.1,0.1c0,0,0,0,0,0c0,0,0.1,0,0.1,0.1c0,0,0,0,0,0l0,0l0.1,0.4c0,0,0.1,0,0.1,0l0,0c0,0,0.1,0,0.1,0c0,0,0,0,0,0
							c0,0,0,0,0,0c0,0,0,0,0,0c0,0,0,0,0,0c0,0,0,0,0,0c0,0,0,0,0,0c0,0,0,0,0,0c0,0,0,0,0,0c0,0,0,0,0,0c0,0,0,0,0,0
							c0.1,0,0.2-0.1,0.3-0.1l3.1,0L224.6,23.3z"/>
					</g>
				</g>
				<g>
					<g>
						<path d="M92.8,64.5L92.8,64.5l-1.3,0.4c0,0,0,0.1,0,0.1l0,0l0,0c0,0,0,0,0-0.1l2.6,0.2l0,0c0.1-0.2,0.1-0.5,0.1-0.8l0,0
							c0,0,0,0,0,0v0c0,0,0,0,0,0l0,0c0,0,0,0,0,0c0-0.1,0-0.1,0-0.2L92.8,64.5L92.8,64.5z"/>
						<path d="M102.9,47.3C102.9,47.3,102.9,47.3,102.9,47.3l-1.3,0l0,0c0,0,0,0-0.1,0l0.3,0.9c0,0,0,0,0,0l-0.3-0.9l0.5,1.9l0.1,0
							l-0.3-0.9c0,0,0,0,0,0l0.3,0.9c1.1-0.3,1.9-1,2.2-1.8L102.9,47.3C102.9,47.3,102.9,47.3,102.9,47.3z"/>
						<path d="M15.1,86.5L15.1,86.5l-0.4,0l-0.8-0.1c0,0.1-0.1,0.1-0.1,0.2c-0.1,0.1-0.1,0.1-0.2,0.2c0,0.1-0.1,0.1-0.1,0.2l0,0l0,0
							l2.4,0.5v0l0,0c0-0.1,0.1-0.1,0.1-0.2c0.1-0.2,0.3-0.3,0.4-0.6l0-0.1L15.1,86.5L15.1,86.5z"/>
						<path d="M128.4,110l1.3-0.5c-0.3-0.6-0.9-1.1-1.7-1.2l-1.1,2c0,0,0,0,0,0c0,0,0,0,0,0c0,0,0.1,0,0.1,0.1c0,0,0,0,0,0
							L128.4,110L128.4,110L128.4,110z"/>
						<path d="M-10.6,42.3l0.7,0.7c0.5-0.3,0.8-0.6,1-1c0,0,0,0,0,0s0,0,0,0c0.2-0.3,0.2-0.7,0.2-1.1l0-0.1l0-0.1
							c-0.1-0.3-0.3-0.5-0.6-0.7c-0.1-0.1-0.2-0.1-0.3-0.2l0,0l-1.8,1.7c0,0,0,0,0.1,0.1c0,0,0,0.1,0,0.1l0,0l0,0c0,0,0,0,0,0
							c0,0,0,0,0,0.1l0,0c0,0,0,0,0,0l0.1,0L-10.6,42.3C-10.6,42.3-10.6,42.3-10.6,42.3C-10.6,42.3-10.6,42.3-10.6,42.3z"/>
						<path d="M161.4,75.4C161.4,75.4,161.4,75.4,161.4,75.4l1,0.5L161.4,75.4C161.4,75.4,161.5,75.4,161.4,75.4l1.1,0.5
							c0,0,0.1-0.1,0.1-0.1c0,0,0,0,0,0s0,0,0,0c0,0,0,0,0,0c0,0,0,0,0,0c0,0,0,0,0,0c0,0,0,0,0,0c0,0,0,0,0,0c0,0,0,0,0,0l0,0
							c0.1-0.1,0.1-0.1,0.2-0.2l0,0c0,0,0,0,0,0l-2.2-0.8c0,0,0,0,0,0v0c0,0-0.1,0.1-0.1,0.1c0,0,0,0,0,0c0,0,0,0,0,0c0,0,0,0,0,0
							l0,0L161.4,75.4C161.4,75.4,161.4,75.4,161.4,75.4z"/>
						<path d="M102.8,117.2l0.4,0.9c1-0.4,1.7-1.1,1.9-2.1l0-0.2c-0.1-0.6-0.4-1-0.9-1.3l-2,1.6l0,0c0,0,0,0,0,0
							c0,0,0.1,0.1,0.1,0.2c0,0.1,0,0.1,0,0.1c0,0,0,0,0,0l0,0c0,0,0,0,0.1,0c0,0,0,0,0,0l0,0l0,0l0.1,0L102.8,117.2
							C102.8,117.2,102.8,117.2,102.8,117.2C102.8,117.2,102.8,117.2,102.8,117.2z"/>
						<polygon points="72.1,85.2 72.1,85.2 72.1,85.2 72.9,84.3 72.9,84.3 72.9,84.3 72,84 70.4,85.8 70.8,86 70.8,86 71.3,86.2 
							72.1,85.2 						"/>
						<path d="M113.4,94.6C113.4,94.6,113.4,94.6,113.4,94.6l-1.2-0.2c0,0,0,0,0,0c0,0,0,0.1-0.1,0.1c0,0,0,0,0,0.1l0,0c0,0,0,0,0,0
							l2.5,0.3l0-0.1L113.4,94.6C113.4,94.6,113.4,94.6,113.4,94.6z"/>
						<path d="M179.2,71.4c0,0.1,0.1,0.1,0.1,0.2c0.4,0.5,1,0.7,1.8,0.8l0.8-2l0,0l0,0c0,0,0,0-0.1,0c0,0-0.1-0.1-0.2-0.2
							L179.2,71.4L179.2,71.4z"/>
						<path d="M148,145.2L148,145.2l0.9-0.9L148,145.2l0.2,0.1l1.7-1.7l0,0l0,0l-0.5-0.2l-1.8,1.7L148,145.2L148,145.2z"/>
						<path d="M54.3,185c0-0.1,0-0.2,0.1-0.3l0-0.2l0,0l0,0l-2.7,0.1l0,0l0,0l0,0.2c0,0.2-0.1,0.4-0.1,0.7c0,0,0,0,0,0.1l0,0
							l2.7-0.4C54.3,185.1,54.3,185,54.3,185z"/>
						<path d="M80.2,177.8l0.9,0c0.2,0,0.4,0,0.6,0c0,0,0,0,0,0c0,0,0,0,0,0c0,0,0,0,0,0c0,0,0,0,0,0c0.1,0,0.2,0,0.4,0l0.2-1l0,0
							l0,0l0.1-0.3l0,0l-0.4-0.1l0.4-0.2l0.1-0.4c-0.2,0-0.4,0-0.7,0l-0.3,0l0,0l0,0l-0.2,0.6l-1.5-0.2c-0.2,0.4-0.2,0.8,0.1,1.2
							L80.2,177.8z"/>
						<path d="M58.6,54.3l0.1,0l0.1,0.2l0.3-0.1L59,54.2l2-0.7c-0.3-0.8-1.3-1.2-2.6-1l-0.2,0L58,52.7l0.4,0.6L58.6,54.3z"/>
						<path d="M213.2,109.8c0,0,0.1,0,0.1-0.1l0.4,0.4l-0.7,0.3c0-0.1,0-0.1,0-0.1l0,0.1c0,0.1,0,0.2,0,0.2l0,0l0,0l0.9-0.3l0.1,0.1
							l0,0l0,0l0.7,0.7c0.2-0.1,0.3-0.2,0.4-0.3l0.7-0.5l-0.2-0.6l0-0.1c0,0,0-0.1,0-0.2c0,0,0,0,0,0c0,0,0,0,0,0c0,0,0,0,0,0l0,0
							c0-0.1,0-0.1-0.1-0.2l-1.3,0.5l0,0l0,0l-0.2,0.1l-0.5-0.4c0,0,0,0,0,0l0,0C213.4,109.7,213.4,109.7,213.2,109.8L213.2,109.8
							C213.2,109.8,213.2,109.8,213.2,109.8L213.2,109.8z"/>
						<path d="M-12.2,86.8C-12.2,86.8-12.2,86.8-12.2,86.8C-12.2,86.8-12.2,86.8-12.2,86.8C-12.2,86.8-12.2,86.8-12.2,86.8
							C-12.1,86.8-12.1,86.8-12.2,86.8C-12.1,86.8-12.1,86.8-12.2,86.8L-12.2,86.8c0.1,0.1,0.2,0.2,0.2,0.2l1-0.7l0.1,0.2l0,0l0,0
							l0.2-0.1l-0.1-0.2l1-0.7c0,0,0,0,0,0c0,0,0,0,0,0s0,0,0,0l0,0c0,0,0,0,0,0c0,0,0,0,0,0c0,0,0,0,0,0c0,0,0,0,0,0l0,0
							c-0.1-0.1-0.2-0.2-0.3-0.3l-0.1-0.1l0,0l0,0l-1,0.6l-0.6-0.8l-1.5,0.7l0.9,0.9C-12.4,86.6-12.3,86.7-12.2,86.8z"/>
						<path d="M-0.5,117.6C-0.5,117.6-0.5,117.6-0.5,117.6L-0.5,117.6c0,0.1-0.1,0.1-0.1,0.2c-0.1,0.2-0.2,0.4-0.3,0.6l2.6,0
							c0,0,0-0.1,0.1-0.1c0,0,0,0,0,0c0.1-0.1,0.1-0.2,0.2-0.4l0,0c0,0,0,0,0,0L-0.5,117.6z"/>
						<path d="M179.9-10.3l-0.1,0.4l0,0l0,0l0.3,0.2c0.1,0,0.1-0.1,0.2-0.1c0.1-0.1,0.3-0.2,0.4-0.2l0,0l0,0l-0.5-0.4l0.3-0.1v0v0
							l1.3-0.5c-0.1-0.2-0.2-0.3-0.4-0.4l0,0c0,0,0,0,0,0c-0.3-0.2-0.8-0.3-1.3-0.3l-0.5,0l-0.4,0.3c-0.1,0-0.1,0.1-0.2,0.1
							c-0.2,0.1-0.4,0.2-0.6,0.4l1.1,0.7L179.9-10.3z"/>
						<path d="M248.4,25.6c0.1,0.1,0.2,0.2,0.3,0.3l2.2-1.4l0,0l0,0c0,0-0.1-0.1-0.1-0.1c0,0,0,0,0,0c0,0,0,0,0,0c0,0,0-0.1-0.1-0.1
							c0,0,0,0,0,0c0,0,0,0,0,0c0,0,0,0,0,0c-0.1-0.1-0.2-0.2-0.3-0.2l-2,1.6L248.4,25.6C248.4,25.6,248.4,25.6,248.4,25.6z"/>
						<path d="M230.4,45.9c0.2,0,0.7-0.1,1.2,0.7c0.1,0.2,0.1,0.4,0,0.5c0,0,0,0,0,0l0,0l2.5,0.4c0.3-0.6,0.4-1.2,0.2-1.8l-0.1-0.1
							c-0.6-1-1.4-1.4-2.2-1.6c0,0,0,0,0,0c0,0,0,0,0,0c-0.6-0.1-1.1-0.1-1.5-0.1l-0.1,1l0,0l0,0L230.4,45.9
							C230.3,45.9,230.3,45.9,230.4,45.9z"/>
						<path d="M248.9,90.2l1.4-1.9l0,0l0,0c0,0-0.1,0-0.1,0c-0.9-0.3-1.2-1.3-2.1-4l-0.2-0.5l-0.4,0l-3-1.6l0.4,1.4l-0.1,0l0.5,1.5
							C246.5,88.2,246.9,89.6,248.9,90.2z"/>
						<path d="M30.7,61.3C30.7,61.3,30.7,61.3,30.7,61.3L30.7,61.3c0-0.1,0.1-0.1,0.1-0.2c0.1-0.1,0.1-0.2,0.2-0.3l0,0c0,0,0,0,0,0
							c0-0.1,0.1-0.1,0.1-0.2l-1-0.1l1,0l-1.3-0.1l0,0l0,0l0,0l-1.3-0.1l0,0c0,0,0,0,0,0c0,0-0.1,0.1-0.1,0.1
							c-0.1,0.1-0.2,0.2-0.2,0.3l0,0c0,0,0,0,0,0L30.7,61.3z"/>
						<path d="M92.1,77.1C92.1,77.1,92.1,77.1,92.1,77.1L92.1,77.1L92.1,77.1l2.7-0.8c-0.1-0.4-0.3-0.6-0.6-0.9L92,77
							C92,77,92,77,92.1,77.1C92,77,92.1,77.1,92.1,77.1z"/>
						<path d="M182,72C182,72,182,72.1,182,72C182,72,182,72,182,72c0,0,0-0.1,0.1-0.1c0,0,0,0,0,0l1.8,1.2L184,73c0,0,0,0,0,0
							c0.7-0.6,0.9-1.4,0.5-2.1l0,0l0,0l-1.3,0.5v0v0l-1.3,0.5C182,72,182,72,182,72C182,72.1,182,72.1,182,72z"/>
						<polygon points="223.4,111.4 222.4,111.3 222.5,111.2 222.4,111.3 222.1,111.3 222.1,111.3 222.1,111.3 220.8,111.2 
							220.1,112.7 222.5,113.5 						"/>
						<path d="M137.8,113.8L137.8,113.8l0.4,0.5c0,0,0,0-0.1,0c0,0,0,0,0,0c0.1,0,0.2-0.1,0.3-0.1l0,0l0,0l-0.3-0.5l1.6-0.4l0-0.1
							c0,0,0,0,0,0c0,0,0,0,0,0c0,0,0,0,0-0.1c0,0,0,0,0,0c0-0.1-0.1-0.2-0.2-0.3v0l0,0l0,0v0c-0.2-0.2-0.5-0.4-1.1-0.4l-0.5,0
							l-0.5,0.2c0,0-0.1,0-0.2,0.1l0,0c0,0,0,0,0,0c0,0-0.1,0-0.1,0.1c0,0,0,0,0,0c0,0,0,0,0,0c-0.1,0-0.1,0.1-0.2,0.1L137.8,113.8
							L137.8,113.8z"/>
						<path d="M229.1,7.3L229.1,7.3L229.1,7.3c0.1,0,0.1-0.1,0.2-0.1c0.7-0.3,1.2-0.9,1.4-1.5l0,0l0,0c0-0.1,0-0.1,0-0.2l0,0v0
							l-2.4,0.1v0l0,0L229.1,7.3z"/>
						<path d="M94.9,21.3C94.9,21.3,94.9,21.4,94.9,21.3c-0.1,0.1-0.1,0.2-0.3,0.2l1.2,1.6l0,0c0,0,0.1,0,0.1-0.1c0,0,0,0,0,0
							c0.8-0.4,1.3-1,1.5-1.6l-1.3-0.1l1.3,0.1c0.1-0.2,0.1-0.4,0.1-0.6l-2.7,0.3C94.9,21.2,94.9,21.3,94.9,21.3z"/>
						<path d="M131.6,47.9C131.6,47.9,131.6,47.9,131.6,47.9L131.6,47.9c0,0.1-0.1,0.1-0.1,0.2c0,0,0,0,0,0.1c0,0-0.1,0.1-0.1,0.1
							l0,0l1.2,0.3c0,0,0,0,0,0c0,0,0,0,0,0l1.1,0.3l0.1-0.1c0,0,0.1-0.1,0.1-0.1c0.1-0.1,0.1-0.2,0.2-0.2l0,0c0,0,0,0,0,0
							L131.6,47.9z"/>
						<path d="M-11.6,70.1L-11.6,70.1C-11.6,70.1-11.6,70.1-11.6,70.1C-11.6,70.1-11.6,70.1-11.6,70.1
							C-11.6,70.1-11.6,70.1-11.6,70.1C-11.6,70.1-11.6,70.1-11.6,70.1L-11.6,70.1C-11.6,70.1-11.6,70.1-11.6,70.1L-11.6,70.1
							C-11.6,70.1-11.6,70.1-11.6,70.1L-11.6,70.1c-0.1-0.1-0.2-0.2-0.3-0.2l0,0c0,0,0,0,0,0c0,0,0,0,0,0c0,0,0,0,0,0c0,0,0,0,0,0
							c0,0,0,0,0,0c0,0,0,0,0,0c0,0,0,0,0,0c0,0,0,0,0,0c0,0,0,0,0,0c-0.2-0.1-0.5-0.2-0.8-0.3l-1.2,1.9c0,0,0,0,0,0
							c0.1,0,0.2,0.1,0.4,0.7c0,0.3,0,0.5-0.1,0.6c0,0,0,0,0,0c0,0,0,0,0,0l1.2,0.3l1.2,0.3c0.1-0.1,0.1-0.2,0.1-0.3c0,0,0,0,0,0
							c0,0,0,0,0,0c0.1-0.2,0.1-0.3,0.2-0.5c0,0,0,0,0,0c0,0,0,0,0,0c0.1-0.3,0.1-0.6,0-0.9v-0.1l0-0.1
							C-10.9,71.1-11.1,70.6-11.6,70.1z"/>
						<path d="M101.6,98.9L101.6,98.9C101.6,98.9,101.6,98.9,101.6,98.9c-0.1,0.1-0.1,0.1-0.2,0.1c0,0,0,0-0.1,0
							c-0.1,0.1-0.1,0.1-0.2,0.2c0,0-0.1,0.1-0.1,0.1l1.9,1.1c0,0,0,0,0,0l0,0c0.1,0,0.1-0.1,0.2-0.1c0.2-0.1,0.3-0.2,0.5-0.4l0,0
							c0,0,0,0,0,0c0,0,0,0,0,0l0,0c0,0,0.1-0.1,0.1-0.1v0l0,0L101.6,98.9L101.6,98.9z"/>
						<path d="M90.9,82.4l0,1L90.9,82.4c-0.1,0-0.2,0-0.2,0c-0.1,0-0.1,0-0.2,0l0.2,0.9l-0.3-0.9l0.3,0.9c0,0,0,0,0,0c0,0,0,0,0,0
							l0.2,0.6l0,0l0,0.4l0-0.3l0,0.3l0-0.2l0,0l0,0l0,0l0,0l0.1,0.2l0-0.1l0,0.1l-0.1-0.2l0-0.1l1.6-1.3
							C92.1,82.4,91.5,82.3,90.9,82.4z"/>
						<path d="M117.2,103.2c-0.1-0.1-0.3-0.3-0.5-0.4l-2,1.6c0,0,0.1,0.1,0.1,0.1c0.1,0.1,0.2,0.2,0.3,0.3l0,0c0,0,0,0,0,0l0,0
							l0.1,0.5l0,0l0,0l0.2,0.9l0.1,0c0.8-0.2,1.4-0.7,1.7-1.2c0.2-0.3,0.3-0.7,0.3-1.1l0-0.3l-0.3-0.2
							C117.3,103.3,117.2,103.2,117.2,103.2z"/>
						<path d="M131.4,151.4C131.4,151.4,131.4,151.4,131.4,151.4c-0.5-0.8-1.3-1.1-2.6-1.1l-0.3,2c0,0,0,0,0,0c0,0,0,0,0,0
							c0,0,0.1,0,0.1,0c0.1,0,0.3,0.2,0.4,0.7c0,0.2-0.1,0.3-0.1,0.3l0,0l2,1l0,0l0,0c0.1-0.1,0.2-0.2,0.3-0.3
							c0.3-0.4,0.5-0.9,0.5-1.4l0-0.2C131.7,152.1,131.6,151.7,131.4,151.4C131.4,151.4,131.4,151.4,131.4,151.4z"/>
						<path d="M117.1,130.7L117.1,130.7L117.1,130.7c-0.1,0-0.1,0.1-0.2,0.1c-0.2,0.1-0.3,0.2-0.5,0.4c0,0,0,0,0,0
							c0,0-0.1,0.1-0.1,0.1l0,0l1.9,1.1c0.1,0,0.1-0.1,0.2-0.1c0.1-0.1,0.3-0.2,0.4-0.3v0c0,0,0,0,0,0L117.1,130.7z"/>
						<path d="M217.8,112.6c-0.1,0-0.2,0-0.3,0c-0.2,0-0.4,0-0.7,0.1l0,0.6l-0.1,0l-0.3,0.4l0.1,0.4l0.4-0.1l0,0.7
							c0.1,0,0.3,0,0.5,0l2.2-0.1l-0.3-1l0.9-1.1l-2.1,0.1L217.8,112.6z"/>
						<path d="M164.4,22L164.4,22c0.3-0.4,0.4-0.8,0.4-1.2l0-0.2c-0.2-1-1-1.6-2.1-1.8l0,0c0,0,0,0,0,0l-1,2c0,0,0.1,0,0.1,0
							c0.1,0,0.3,0.1,0.4,0.4c0,0.1-0.1,0.2,0,0.2l0.3,0.9l0,0l-0.3-0.9l0.2,0.9c0,0,0,0,0,0s0,0,0,0l0.2,0.9l0.1,0l-0.3-0.9l0,0
							l0,0l0.3,0.9l0,0C163.4,23,164,22.5,164.4,22C164.4,22,164.4,22,164.4,22z"/>
						<path d="M225.6,119.6c-0.1,0-0.1,0-0.2,0c-0.1,0-0.1,0-0.2-0.2c0,0,0,0,0-0.1l-2.5,1.1l0,0c0,0,0,0,0,0.1c0.7,1.2,2.2,1.1,3,1
							l0.2,0l0.2-0.1c0.1,0,0.2-0.1,0.3-0.1c0.1,0,0.2-0.1,0.3-0.1l0,0l0,0l-1-1.2L225.6,119.6z"/>
						<path d="M201.7,37.8L201.7,37.8L201.7,37.8C201.7,37.7,201.7,37.7,201.7,37.8C201.7,37.7,201.7,37.7,201.7,37.8L201.7,37.8
							c0.1-0.1,0.2-0.1,0.3-0.2l0,0l0,0.3l-0.3,0.1l0.3-0.1l0.3,1.6c0,0,0.1,0,0.1,0c0,0,0,0,0.1,0l0,0c1.1-0.3,1.8-1,1.9-1.9l0-0.2
							l-1.8-6.1L201.7,37.8C201.7,37.7,201.7,37.8,201.7,37.8z"/>
						<path d="M201.8,72.1l-0.2,0l0.3,1.9c0.3-0.1,0.3,0,0.4,0.1l2.6-1C204.4,72.2,203.2,71.8,201.8,72.1z"/>
						<path d="M193.8,98.7C193.8,98.7,193.8,98.7,193.8,98.7C193.8,98.7,193.8,98.7,193.8,98.7c-0.4-0.8-1.6-1-2.9-0.6l-0.3,0.1
							l-0.3,0.2c0,0,0,0-0.1,0c-0.1,0.1-0.2,0.2-0.3,0.2l1.5,0.8l0.1,0.2l0.1,0l0.3,0.1l0,0c0,0,0,0,0,0c0,0,0,0,0.1,0l-0.2-0.1l0,0
							l0.2,0.1l-0.1-0.1l0.1,0l-0.2-0.1l2-0.7l0,0l0,0C193.8,98.8,193.8,98.8,193.8,98.7z"/>
						<path d="M198.4,71.7L198.4,71.7l-0.3,0.6l-1.4-0.3l0,0c-0.1,0.1-0.1,0.2-0.1,0.3c-0.1,0.2,0,0.5,0.1,0.8l0.2,0.4l1.7,0.2
							l0.9-2L198.4,71.7L198.4,71.7z M199.2,72.2c0,0,0,0.1,0,0.1c0,0,0,0.1-0.1,0.2l-0.4-0.1L199.2,72.2z"/>
						<path d="M26.3,24c-0.3-0.4-0.9-0.7-1.7-0.6l-0.2,1l0.1-1l-0.2,1l0,0l0.2-1c-0.2,0-0.5,0.1-0.7,0.1l-0.1,0l0.2,0.9l-0.3-0.9
							l0.3,0.9l0,0l-0.3-0.9c-0.1,0-0.2,0.1-0.2,0.1l0.4,0.9c0,0,0,0,0,0c0,0,0,0,0,0l0.4,0.9l0,0c-0.1,0-0.1,0-0.2,0
							c0,0-0.1,0-0.1,0c0,0,0,0,0,0c0,0,0,0,0,0c0.1,0,0.1,0.2,0.2,0.3c0,0.1,0,0.1,0,0.1s0,0,0,0c0,0,0,0,0,0s0,0,0-0.1
							c0,0,0,0,0,0.1l0,0c0,0,0,0,0,0l0.2-0.1l1.8,1l0,0c0.2-0.2,0.4-0.4,0.5-0.7l0,0c0,0,0,0,0,0c0.1-0.3,0.2-0.6,0.2-1l0-0.1
							l-0.1-0.1C26.7,24.6,26.6,24.2,26.3,24z"/>
						<path d="M32.6,67l0.6,3.4c0,0.1,0,0.1,0,0.1c0,0,0,0,0,0c0,0,0,0,0,0c0,0,0,0,0-0.1c0,0,0,0,0.1,0l0,0l0.3,0.3l0.9,1.2l0,0
							c0.1,0,0.1-0.1,0.2-0.1c0.9-0.5,1.3-1.3,1.2-2.1l0,0l-0.1-0.3L32.6,67z"/>
						<path d="M12.9,31.3c-0.1-0.1-0.3-0.1-0.4-0.2c-0.1,0-0.1,0-0.2-0.1l0,0l-1.2,1.5c0,0,0,0,0,0l0,0c0,0,0,0,0,0l0,0l-0.1,0v0h0
							l-0.3,0.3c0.1,0,0.1,0.1,0.2,0.1c0.1,0.1,0.3,0.1,0.4,0.2l0,0l0,0l0.2-0.2l0.9,1c0.5-0.3,1.2-0.9,1-2l-0.1-0.4l-0.4-0.2
							C13,31.4,13,31.4,12.9,31.3z"/>
						<path d="M72.6,11.8C72.6,11.8,72.6,11.8,72.6,11.8L72.6,11.8C72.6,11.8,72.6,11.8,72.6,11.8C72.6,11.8,72.6,11.8,72.6,11.8
							C72.6,11.8,72.6,11.8,72.6,11.8l-0.9,0.8l0,0l0,0l-0.1,0.1l-0.4-0.5c0,0,0,0,0,0l0,0c-0.1,0.1-0.2,0.1-0.3,0.2c0,0,0,0,0,0
							l-0.1,0v0l0,0c0,0,0,0,0,0c0,0,0.1,0,0.1,0l0,0c0,0,0,0,0,0l0.3,0.6L71,13.3l0.3-0.1l0.1,0.1v0v0l0.5,0.8
							c0.1,0,0.1-0.1,0.2-0.1l0,0c0,0,0,0,0,0c0,0,0,0,0,0l0,0c0.1,0,0.1-0.1,0.2-0.1c0,0,0,0,0,0c0,0,0.1,0,0.1-0.1l0.9-0.5
							l-0.2-0.7l0-0.1C73.1,12.4,73.1,12,72.6,11.8L72.6,11.8z"/>
						<path d="M88.2,92.9L88.2,92.9L88.2,92.9L88.2,92.9L88.2,92.9L88.2,92.9L88.2,92.9l-0.5-0.2c0.1-0.1,0.1-0.1,0.2-0.2
							c0,0,0,0,0,0c0,0,0,0,0,0c-0.1,0-0.1,0.1-0.2,0.1c-0.1,0.1-0.2,0.1-0.3,0.2l-0.4,0l0,0l0,0l-1.3,0l0,0.1c0,0,0,0,0,0.1
							c-0.1,0.6,0.2,1.2,0.8,1.5v0c0,0,0,0,0,0c0.3,0.2,0.8,0.2,1.3,0.2l0.6,0l0.5-0.3c0.1,0,0.1-0.1,0.2-0.1c0.3-0.2,0.7-0.4,1-0.7
							L88.2,92.9z"/>
						<path d="M58.6,135l-0.7,0.8L58.6,135c-0.3-0.1-0.6-0.1-0.8-0.1l-0.5,1.8l-0.2,0.2c0,0,0.1,0,0.2,0.2c0,0.1,0,0.1,0,0.1
							c0,0,0,0,0,0s0,0,0,0l0,0l0,0c0,0,0,0,0,0l0,0c0,0,0,0,0,0c0,0,0,0,0,0h0l0,0l0.1,0l1.5,1.3l0.1-0.1c0.1-0.1,0.2-0.2,0.3-0.3
							c0,0,0,0,0,0c0,0,0,0,0,0c0,0,0,0,0,0c0,0,0,0,0,0c0,0,0,0,0,0v0c0.2-0.2,0.4-0.5,0.5-0.8c0,0,0,0,0,0c0,0,0,0,0,0
							c0,0,0,0,0,0v0c0.1-0.3,0.1-0.7,0-1.1l-0.1-0.2C59.5,135.4,59.1,135.1,58.6,135z"/>
						<path d="M48.9,75.4c0,0.1,0,0.1,0,0.2l0,0l0,0l2.7-0.5c0-0.1,0-0.3,0-0.4c0,0,0-0.1,0-0.1l0,0L48.9,75.4
							C48.9,75.4,48.9,75.4,48.9,75.4z"/>
						<path d="M75.7,92.1L75.7,92.1c0,0-0.1-0.1-0.1-0.1c-0.1-0.1-0.2-0.1-0.3-0.2l0,0c0,0,0,0,0,0c0,0,0,0,0,0s0,0,0,0
							c-0.1,0-0.2-0.1-0.3-0.1l-1.7,1.8c0,0,0.1,0.1,0.2,0.1c0.1,0.1,0.2,0.1,0.3,0.2c0,0,0.1,0,0.1,0c0,0,0,0,0,0l1-0.8l0,0l0,0
							L75.7,92.1L75.7,92.1z"/>
						<path d="M36.1,46.9C36.1,46.9,36.1,46.9,36.1,46.9C36.1,46.9,36.1,46.9,36.1,46.9C36.1,46.9,36.1,46.9,36.1,46.9L36.1,46.9
							c-0.4-0.3-0.9-0.5-1.6-0.5l-0.3,1c0,0,0,0,0,0c0,0,0,0,0,0l-0.3,1c0.1,0.1,0.3,0.5,0.4,0.7c0,0.4-0.1,0.5-0.1,0.5l0,0
							c0,0,0,0,0,0l0,0l1.5,1.4l0.1-0.1c0.6-0.4,1.3-1.2,1.2-2.5l0-0.1l0-0.1C36.8,47.9,36.6,47.3,36.1,46.9z"/>
						<path d="M74.8,143.3l-1,0c-0.3,0-0.7,0-1.1,0l-0.1,1l0,0l0,0l0,0.4v0l0.2,0l-0.2,0.1l0,0.5c0.1,0,0.4,0,0.6,0l0.3,0l0,0
							c0,0,0,0,0,0l0.2-0.6l1.5,0l0,0c0,0,0,0,0,0l0,0c0,0,0,0,0,0c0-0.3,0-0.6-0.2-0.8L74.8,143.3z"/>
						<path d="M70.1,96.8L70.1,96.8c-0.1,0-0.1-0.1-0.2-0.1c-0.1,0-0.2-0.1-0.3-0.1l0,0c0,0,0,0,0,0c-0.1,0-0.2-0.1-0.3-0.1l-0.1,0
							l-0.7,0.9l0.7-1l-1,1.4l-0.4,0.5c0,0,0.1,0,0.1,0.1c0,0,0,0,0,0c0,0,0.1,0,0.1,0.1c0.1,0.1,0.2,0.1,0.3,0.2l0.8-0.9l0,0l0,0
							L70.1,96.8L70.1,96.8z"/>
						<path d="M118.4,56.9C118.4,56.9,118.4,56.9,118.4,56.9c-0.4-0.2-0.9-0.2-1.6-0.2l-0.7,0.1l-0.5,0.4c-0.1,0-0.1,0.1-0.2,0.1
							c-0.1,0.1-0.2,0.2-0.4,0.3v0c0,0,0,0,0,0c-0.1,0.1-0.1,0.1-0.2,0.2c0,0,0,0,0,0c0,0,0,0,0,0c0,0,0,0,0,0l1.7,0.6v0l0,0v0l0,0
							l0,0l0,0l0,0l0.1,0l0.5,0.2c0.1-0.1,0.1-0.1,0.2-0.2c0,0,0.1-0.1,0.1-0.1l0.5-0.1l0,0l0,0l1.4-0.1c0-0.1,0-0.2,0-0.3
							c0,0,0-0.1,0-0.1c0,0,0,0,0,0c0,0,0,0,0,0C119.2,57.5,118.9,57.1,118.4,56.9L118.4,56.9z"/>
						<path d="M113.2-6.8l-8.5,2.5l7.3-0.5c0,0,0.1,0,0.1,0c0,0,0,0,0,0c0,0,0,0,0,0c0,0,0,0-0.1,0v0c-0.1,0-0.1-0.1-0.2-0.2
							c0,0,0,0,0,0l0,0l0.1,0l0.4-0.1l2.2-0.4c0,0,0,0,0-0.1c0,0,0-0.1,0-0.1C114.4-6.2,113.9-6.6,113.2-6.8z"/>
						<path d="M156,133.7c0,0.1-0.1,0.1-0.1,0.2c-0.1,0.2-0.2,0.3-0.2,0.5l0.8,0l-0.3,0.2l0.3-0.2l1.8,0.1c0,0,0,0,0,0l0,0
							c0,0,0,0,0,0c0-0.1,0.1-0.2,0.1-0.2c0-0.1,0.1-0.2,0.1-0.2l0.3-0.6l-2-1.5L156,133.7z"/>
						<path d="M258.3,30.8L258.3,30.8c-0.1,0-0.1-0.1-0.2-0.1c-0.1,0-0.2-0.1-0.3-0.2c0,0,0,0,0,0l0,0c-0.1-0.1-0.2-0.1-0.3-0.2
							l-1.5,1.8c0.1,0,0.1,0.1,0.2,0.1c0.1,0.1,0.2,0.1,0.4,0.2l0,0c0,0,0,0,0,0L258.3,30.8C258.3,30.8,258.3,30.8,258.3,30.8z"/>
						<path d="M155,127.4l0.3,0.6l0,0l0,0l0.5,0.8l0,0c0.1,0,0.2-0.1,0.3-0.1c0.7-0.4,1.2-1,1-1.9c0,0,0,0,0,0c0,0,0,0,0,0
							c0,0,0,0,0,0c0,0,0,0,0,0L155,127.4L155,127.4z"/>
						<path d="M174.3,87.2l0,1.3c0,0.1,0,0.1,0,0.2c0,0.2,0,0.4,0,0.7l0,0l1.1-0.3l0,0l-1.1,0.3l0,0l1-0.3l-0.1,0.2l0.1-0.2l0.3-0.1
							c0,0,0,0,0,0s0,0,0,0l1.3-0.4l-1.3,0.4l0,0l1.3-0.4c0,0,0,0,0,0c0,0,0,0,0,0c0-0.1,0-0.2,0-0.3c0-0.1,0-0.2,0-0.2l0-0.7
							l-0.9-0.1L174.3,87.2z"/>
						<path d="M262.8,66.3c-0.1-0.1-0.2-0.2-0.4-0.3c0,0,0,0,0,0c0,0,0,0,0,0c0,0,0,0,0,0c0,0,0,0,0,0c0,0,0,0,0,0l0,0c0,0,0,0,0,0
							c0,0,0,0,0,0s0,0,0,0l0,0c-0.2-0.1-0.5-0.2-0.8-0.2c0,0,0,0,0,0c0,0,0,0,0,0l0,0c0,0,0,0,0,0c0,0,0,0,0,0c0,0,0,0,0,0
							c0,0,0,0,0,0c0,0,0,0,0,0c0,0,0,0,0,0c0,0,0,0,0,0c0,0,0,0,0,0c0,0,0,0,0,0c0,0,0,0,0,0l0,0c0,0,0,0,0,0l0,0c0,0,0,0,0,0l0,0
							c0,0,0,0,0,0l0,0c0,0,0,0-0.1,0l0,0c0,0,0,0,0,0l-0.2,1.4l-0.2,0l0,0l0,0l0.2,0l-0.1,0.5c-0.3,0-0.5-0.1-0.5-0.1l0,0l0,0
							c0,0,0,0,0,0c0,0,0.1,0.1,0.1,0.1c0.1,0.1,0.2,0.2,0.3,0.2v0c0,0,0,0,0,0l0.7-0.6l1.3,0.3c0.1-0.2,0.2-0.4,0.3-0.6l0.1-0.5
							l-0.5-0.3C262.9,66.4,262.8,66.4,262.8,66.3z"/>
						<path d="M81.3,24.4L81.3,24.4L81.3,24.4l-1.1,0.7c0,0,0,0,0,0L81.3,24.4l-1,0.6L81.3,24.4l-1.1,0.7l0,0L81.3,24.4l-1,0.6
							L81.3,24.4L81.3,24.4L81.3,24.4l-1.1,0.7c0,0,0,0,0,0L81.3,24.4l-1,0.6L81.3,24.4l-1.1,0.7L81.3,24.4l-1.2,0.7c0,0,0,0,0,0
							L81.3,24.4l-1.2,0.7c0,0,0,0,0,0L81.3,24.4L80.2,25L81.3,24.4L81.3,24.4l-1.2,0.7l0,0L81.3,24.4c-0.7-0.6-1.6-0.7-2.6-0.4
							c-0.1,0-0.2,0.1-0.3,0.1l-0.2,0.1L78,24.3c-1,0.7-1.2,1.3-1.2,1.8l2.3-0.4l0,0L79,25.9l0,0l0.1-0.1l0,0l0.1-0.1l0,0l0,0
							l-0.1,0.1l0,0l0,0l0.1-0.1l0,0L79,25.9l0,0v0v0l0,0l0,0l0,0l0,0l0,0l0.1-0.1l0,0l0,0l0,0l0.1-0.1l0,0l-0.1,0.1l0,0l-0.1,0
							l0.1,0v0l0.1-0.1l0,0l0.2,0c0,0,0,0,0,0c0,0,0,0.1,0,0.1v0c0,0,0,0,0,0c0,0,0,0,0.1-0.1l0,0l0,0l-0.1-0.1l0,0l0.7-0.4
							L81.3,24.4l-1.1,0.7L81.3,24.4z"/>
						<polygon points="247.1,101.5 246.4,100.9 244.2,102.4 244.2,102.4 244.2,102.4 244.9,103 247.1,101.5 247.1,101.5 						"/>
						<path d="M243,91.1c0.1,0,0.2-0.1,0.2-0.1l-1.3-1.5l-0.1,0.1c-0.1,0-0.2,0.1-0.2,0.1l1.3,1.5l0,0l0,0L243,91.1z"/>
						<path d="M145.2,122.2l-2.7,0.7c0,0.1,0,0.2,0,0.2c0,0,0,0,0,0c0,0,0,0,0,0c0,0,0-0.1,0.1-0.1c0,0,0,0,0,0l2,1.1
							c0.3-0.3,0.7-0.8,0.6-1.4C145.2,122.4,145.2,122.3,145.2,122.2L145.2,122.2L145.2,122.2z"/>
						<polygon points="239,78 239,77.9 239,78 238.4,77.6 237.7,78.6 236.8,79 237.2,79.8 237.8,80.7 238.3,80.4 238.5,80.5 
							239.4,80 240.7,79.1 240.3,78.8 241.7,76.7 						"/>
						<path d="M257.8,67.5c0,0-0.1,0-0.1,0c0,0,0,0,0,0c-0.4,0.1-0.7,0.2-1.1,0.4c-0.2,0.1-0.4,0.1-0.7,0.2l0,0l0,0l0.3,0.9l0,0
							l-1.3-0.4l-0.1,0.1l1.2,0.5l-0.7,0.7l0,0c0.2,0.1,0.4,0.2,0.6,0.3c0.2,0.1,0.4,0.2,0.6,0.3l0.8-0.8c0.3-0.1,0.6-0.2,0.9-0.3
							c0,0,0,0,0,0c0.1,0,0.2-0.1,0.3-0.1c0,0,0,0,0,0l0,0l0,0l-0.4-1.9C258.1,67.4,258,67.5,257.8,67.5
							C257.8,67.5,257.8,67.5,257.8,67.5z"/>
						<path d="M120.3,155C120.3,155,120.3,155,120.3,155C120.2,155,120.2,155,120.3,155C120.2,155,120.2,155,120.3,155L120.3,155
							l-1.9,1.2l-0.3,0.1l0,0c0,0.1,0,0.1,0,0.1c0,0,0,0,0,0l0,0c0,0,0,0,0-0.1c0,0,0,0,0,0l0,0.1l0,0l-0.1,0.1l0,0
							c0,0,0,0.1,0.1,0.1l0,0l0,0l0.1,0l0,0l1,1.4c0.2-0.1,0.3-0.2,0.5-0.3c0,0,0,0,0,0c0,0,0,0,0,0c0,0,0,0,0,0v0
							c0.8-0.5,1.1-1.2,1-1.9l0-0.1l-0.1-0.1C120.5,155.3,120.4,155.2,120.3,155z"/>
						<path d="M-7,78.8l-0.2,0l0,0l-0.1,0l-0.1-0.2l0,0.2l0,0l-0.1-0.2l0,0l0,0l0,0.2l-1,0.2l0,0l0,0l-1.3,0.3l0,0
							c0.2,0.8,1.1,1.3,2.3,1.2l0.3,0c0.1,0,0.2,0,0.3-0.1l0,0l0,0l-0.3-0.9l0,0c0,0,0,0,0,0l0.3,0.9c0.1,0,0.1,0,0.2-0.1L-7.2,79
							l0-0.2L-7,78.8z"/>
						<path d="M5.1,105.9l0.5,0.8c0,0,0,0,0,0l0,0c0,0,0,0,0,0l0.4,0.7l-0.2,0.1l0.1,0l-0.1,0l0.2-0.1l0,0l1-0.5l1.2-0.7
							C7.6,105.5,6.3,105.4,5.1,105.9z"/>
						<path d="M-21.8,60.3l-0.5,2l0,0c0,0,0.1,0,0.1,0c0.2,0,0.4,0.2,0.5,0.4c0,0.1,0,0.2,0,0.3c0,0,0,0,0,0l0,0c0,0,0,0,0,0l0,0
							l2.4,0.5c0.3-0.5,0.4-1,0.2-1.6l0-0.1l-0.1-0.1C-19.7,60.8-20.6,60.3-21.8,60.3z"/>
						<path d="M20.8,48.2L17,44.4l1.1,4.7c0,0.1,0,0.1,0,0.1c0,0,0,0,0,0s0,0,0,0c0,0,0-0.1,0.1-0.2c0,0,0,0,0,0c0,0,0,0,0,0
							l0.3,0.2l-0.3,0.2l0.3-0.2l0.5,0.4c0,0,0,0,0,0c0,0,0,0,0,0l0.8,0.7c0.1-0.1,0.2-0.1,0.2-0.2c0.6-0.5,0.8-1.1,0.7-1.8l0,0
							c0,0,0,0,0,0L20.8,48.2z"/>
						<path d="M53.2,40.7C53.1,40.7,53.1,40.7,53.2,40.7l-2.6,0.9c0.3,0.5,0.7,0.8,1.4,1L53.2,40.7C53.2,40.7,53.2,40.7,53.2,40.7
							C53.2,40.7,53.2,40.7,53.2,40.7z"/>
						<path d="M50.2,64.3l-1.3,0.4l0,0l0,0l-1.3,0.4c0,0.1,0,0.1,0,0.1c0,0,0,0,0,0c0,0,0,0,0,0c0,0,0-0.1,0.1-0.1c0,0,0,0,0,0
							l1.5,1.4C50.1,65.9,50.5,65.1,50.2,64.3L50.2,64.3L50.2,64.3z"/>
						<path d="M37.3,94.4l-0.1,0l-0.8,0.9l0,0l0.8-0.9l-0.2,0c0,0,0,0,0,0c-0.3-0.1-0.7-0.1-1,0l-0.1,0l-0.4,0.1l0.7,1.2l0,0l0,0
							l-0.5,0.6l0.3-0.4l0.1-0.2l0,0l0,0l0,0l0,0l0.2,0.5L36.3,96l0-0.1l0,0.1l0-0.1l0.2,0.3l-0.2-0.6L37.3,94.4z"/>
						<path d="M94.3,163.6c0.2,0.7,0.9,1.2,1.8,1.3l0.9-2c0,0,0,0-0.1-0.1L94.3,163.6z"/>
						<path d="M60.3,89l0.2-0.3L60.3,89l-1.8,0.2v0c0,0,0,0,0,0c0,0,0,0,0,0c0,0,0,0,0,0l0,0.1c0,0.1,0,0.2-0.1,0.3l-0.1,0.5
							l0.5,0.3l2.1,0.7l0.2-1.7c0-0.1,0-0.1,0-0.2l0-0.1c0,0,0-0.1,0-0.1c0-0.1,0-0.2,0-0.3L60.5,89L60.3,89z"/>
						<path d="M5.7,118.4C5.8,118.4,5.8,118.4,5.7,118.4L5.7,118.4L5.7,118.4l-1.2-1.6c-0.4,0.2-1,0.3-1.8,0.4l-7.8,0.6l6.7,1.3
							l0.5,0.3l0.7-0.2l0,0l0.3-0.1c0.5-0.1,1-0.2,1.4-0.3C5,118.7,5.4,118.6,5.7,118.4C5.7,118.4,5.7,118.4,5.7,118.4z"/>
						<path d="M16.5,168.2c-0.1-0.2-0.2-0.4-0.5-0.6l0,0l0,0c0,0,0,0,0,0c0,0,0,0,0,0l0,0c0,0,0,0,0,0c0,0,0,0,0,0l0,0c0,0,0,0,0,0
							c0,0,0,0,0,0c0,0,0,0,0,0c0,0,0,0,0,0c0,0,0,0,0,0c0,0,0,0,0,0c0,0,0,0,0,0c0,0,0,0,0,0c0,0,0,0,0,0c0,0,0,0,0,0c0,0,0,0,0,0
							c0,0,0,0,0,0l0,0c0,0,0,0,0,0c0,0,0,0,0,0c0,0,0,0,0,0c0,0,0,0,0,0l0,0c0,0,0,0,0,0c0,0,0,0,0,0c0,0,0,0,0,0c0,0,0,0,0,0l0,0
							c0,0,0,0,0,0c0,0,0,0,0,0c0,0,0,0,0,0h0c0,0,0,0,0,0l0,0c0,0,0,0,0,0c0,0,0,0,0,0c0,0,0,0,0,0c0,0,0,0,0,0l0,0c0,0,0,0,0,0
							c0,0,0,0,0,0c0,0,0,0,0,0c0,0,0,0,0,0l0,0c0,0,0,0,0,0v0c0,0,0,0,0,0l0,0c0,0,0,0,0,0c0,0,0,0,0,0c0,0,0,0,0,0c0,0,0,0,0,0
							c0,0,0,0,0,0l0,0c0,0,0,0,0,0c0,0,0,0,0,0c0,0,0,0,0,0c0,0,0,0,0,0l0,0c0,0,0,0,0,0l0,0c0,0,0,0,0,0c0,0,0,0,0,0l-0.7,0.9l0,0
							l0,0l-0.5,0.6l-0.1,0l0,0l0,0l0.1,0l0,0l-0.1,0l0,0l0.1,0l-0.2,0.3c0,0,0,0,0,0c0,0,0,0,0,0l0,0c-0.1-0.1-0.2-0.1-0.2-0.1
							s0,0,0,0c0,0,0,0,0,0c0,0,0.1,0.1,0.1,0.2c0.1,0.1,0.1,0.2,0.2,0.3l0,0l0,0l0.9-0.4l0.2,0.1c0,0,0,0,0,0c0,0,0,0,0,0l1.1,0.4
							c0.1-0.2,0.2-0.3,0.3-0.5l0.1-0.4l-0.2-0.3C16.5,168.3,16.5,168.3,16.5,168.2z"/>
						<path d="M12.5,159.2L12.5,159.2c0,0,0,0.1,0.1,0.2c0,0,0,0.1,0,0.1c0,0,0,0,0,0c0,0,0,0,0,0c0,0,0,0,0,0c0,0,0,0,0,0h0
							c0,0,0,0,0,0l0.1,0l0.2,0.9l0,0l0,0l0.2,0.9l0.1,0c0.2,0,0.3-0.1,0.4-0.2c0,0,0,0,0,0c0,0,0,0,0,0c0,0,0,0,0,0c0,0,0,0,0,0
							c0,0,0,0,0,0c0,0,0,0,0,0c0.3-0.1,0.6-0.3,0.8-0.5c0,0,0,0,0,0c0,0,0,0,0,0c0,0,0,0,0,0c0,0,0,0,0,0c0,0,0,0,0,0l0,0
							c0.4-0.4,0.7-0.9,0.7-1.5l0-0.1c-0.1-0.6-0.4-1-0.8-1.3L12.5,159.2z"/>
						<path d="M198.9,51.7l-1.6,1.8l0,0c0,0,0,0,0,0c0,0,0,0,0.1,0.1c0,0.1,0,0.2-0.1,0.3c0,0-0.1,0-0.1,0l0.6,1.8
							c0.2,0,0.3-0.1,0.4-0.2c1.3-0.6,2-1.6,1.8-2.7l0-0.1l0-0.1C199.7,52.2,199.3,51.9,198.9,51.7z"/>
						<path d="M206.6,139.8C206.6,139.8,206.6,139.8,206.6,139.8C206.6,139.8,206.6,139.8,206.6,139.8c-0.5-0.1-1-0.1-1.6,0.1
							l-0.6,0.2l-0.3,0.4c0,0-0.1,0.1-0.1,0.1c-0.1,0.1-0.2,0.2-0.2,0.3v0c0,0,0,0,0,0c0,0-0.1,0.1-0.1,0.1l0,0l1.7,0.5l0.1,0l0,0
							l0.5,0.1c0,0,0.1-0.1,0.1-0.1c0.1-0.1,0.2-0.2,0.3-0.4l0,0c0,0,0,0,0,0l-0.1,0l0.2-0.1l0,0l0,0l1.3-0.5c0,0,0,0,0,0
							C207.6,140.1,207.1,139.9,206.6,139.8z"/>
						<path d="M108.5,82.4c0.5-0.5,0.7-1.1,0.5-1.6l0,0l0,0c0,0,0-0.1,0-0.1l0,0v0l-1.1,0.4l1.1-0.4l-2.5,0.8l0,0l0,0l0,0l0,0l0,0
							l0,0L108.5,82.4z"/>
						<path d="M91,69.4l0.8,1.6l0,0l0,0l1.8-1.7C93,69,92.1,69,91,69.4z"/>
						<path d="M59.4,187.3l-0.3,0l-0.7-1l0,0c0-0.1-0.1-0.1-0.1-0.2l-2.3,1.3l-0.1,0l0.4,0.8L59.4,187.3z"/>
						<path d="M49.5,109.4l-0.9,2c0,0,0.1,0,0.1,0c1.2,0.2,2.1,1,2.5,2.2c0.2,0.5,0.2,1.1,0,1.8c0,0.1-0.1,0.2-0.1,0.3l0,0l2.6,0.1
							c0.4-1.1,0.4-2.1,0.1-3C53.3,110.9,51.7,109.6,49.5,109.4z"/>
						<path d="M137.2,119L137.2,119c0.2-0.3,0.2-0.6,0.2-0.8v0c0,0,0,0,0,0c0,0,0,0,0,0c0,0,0,0,0,0l0,0c0,0,0,0,0,0c0,0,0,0,0,0
							c0-0.1,0-0.1-0.1-0.2l-1.3,0.5l1.3-0.5l-1.3,0.5l0,0l0,0l-0.6,0.2l0,0h0l-0.3,0.1l0,0l-0.2,0.1l-0.3,0.1l0.5-0.2l0.3-0.1
							L137.2,119L137.2,119z"/>
						<polygon points="114.4,136.7 115.7,136.4 115.8,137.2 115.9,137.2 115.7,136.4 115.9,136.3 117,136.4 117.7,134.8 
							114.1,135.7 						"/>
						<path d="M95.6,56.5l-0.2,0c-0.3,0-0.6-0.1-1-0.1l-0.5,2l0,0c0,0,0.1,0,0.2,0c0.1,0,0.2,0,0.4,0c0,0,0,0,0,0l0.3,0v0L95.6,56.5
							L95.6,56.5L95.6,56.5z"/>
						<path d="M-22.8,37.6C-22.9,37.6-22.9,37.6-22.8,37.6C-22.9,37.6-22.9,37.6-22.8,37.6c-0.1,0-0.1,0-0.1,0c0,0,0,0,0,0
							c0,0,0,0,0,0c-0.1,0-0.3,0-0.4,0c0,0,0,0,0,0c-0.2,0-0.4,0-0.6,0.1l-0.2,0l-0.3,0.1c-0.2,0.1-0.5,0.2-0.7,0.3c0,0,0,0,0,0
							c-0.1,0.1-0.2,0.1-0.3,0.2l1.4,1.5l0,0l0,0c0,0,0,0,0,0c0.1,0,0.2-0.1,0.3-0.1c0.1,0,0.1,0,0.1,0c0,0,0,0,0,0l0,0l0,0l0-0.1
							l0,0l0,0L-22.8,37.6z"/>
						<path d="M23,134.8l-1.1,0.7L23,134.8l-1.1,0.7l0,0l0,0l0,0l0,0L23,134.8c-0.1-0.1-0.2-0.2-0.4-0.3c0,0,0,0,0,0c0,0,0,0,0,0
							c-0.7-0.4-1.6-0.5-2.6-0.1l-0.2,0.1l-0.2,0.1c-0.7,0.5-1.1,1.1-1.1,1.7v0c0,0,0,0,0,0s0,0,0,0l0,0c0,0.1,0,0.2,0,0.3l1.3-0.4
							c0,0,0,0,0,0c0,0,0,0,0,0l1-0.3l0,0.1l-0.1,0c0,0-0.1,0-0.1,0l0,0c0,0,0,0,0,0c0,0,0,0,0,0l0,0v0L21,136l0,0l0,0l-0.2,0.1l0,0
							l0,0l0,0l0.3-0.2l0,0l0,0c0,0,0,0.1,0,0.1c0,0,0,0,0,0c0,0,0,0,0,0c0,0,0,0,0.1-0.1h0c0,0,0,0,0,0l0,0l0,0l0.7-0.4L23,134.8z"
							/>
						<path d="M186.2,36.5c-0.5-0.6-1.1-0.9-1.6-1.1c0,0,0,0,0,0c0,0,0,0,0,0c-0.9-0.3-1.8-0.2-2.5,0c0,0,0,0,0,0
							c-0.2,0.1-0.4,0.1-0.7,0.2l0.5,0.8l0,0l0,0l0.5,0.9c0.1,0,0.2-0.1,0.3-0.1c0.2-0.1,0.6-0.1,1.2,0.5c0,0.1,0,0.1,0,0.2l0,0l0,0
							l0,0l2.4,0.5l0,0c0-0.1,0.1-0.1,0.1-0.2c0,0,0,0,0,0l0,0c0,0,0,0,0,0c0.2-0.4,0.2-0.9,0-1.4L186.2,36.5L186.2,36.5z"/>
						<path d="M258.4,53.7C258.3,53.7,258.3,53.7,258.4,53.7C258.3,53.7,258.3,53.7,258.4,53.7c-0.1-0.1-0.1-0.1-0.2-0.1
							c-0.1-0.1-0.3-0.2-0.4-0.3l-1.7,1.8c0.1,0,0.1,0.1,0.2,0.1c0.1,0.1,0.2,0.1,0.3,0.2L258.4,53.7
							C258.4,53.8,258.4,53.8,258.4,53.7C258.4,53.8,258.4,53.7,258.4,53.7z"/>
						<path d="M34.3,138.2C34.3,138.2,34.3,138.2,34.3,138.2L34.3,138.2c0,0.1-0.1,0.1-0.1,0.2c-0.1,0.2-0.2,0.3-0.3,0.6l2.6,0.1
							c0,0,0-0.1,0-0.1c0,0,0,0,0,0c0,0,0-0.1,0-0.1c0.1-0.1,0.2-0.3,0.2-0.4l0,0l0,0L34.3,138.2z"/>
						<path d="M-2.8,87.8c0.1,0.1,0.1,0.2,0.2,0.2c0,0,0,0,0,0c0,0,0,0,0,0c0,0,0.1,0,0.1,0.1l0,0l1-0.8c0,0,0,0,0,0c0,0,0,0,0,0
							l1-0.8L-1.7,87l0,0l0,0L-3,87.4C-2.9,87.6-2.9,87.7-2.8,87.8z"/>
						<path d="M175.2,127.3C175.2,127.3,175.2,127.3,175.2,127.3L175.2,127.3c0-0.1,0-0.2,0-0.3l0-0.2l0,0l0,0l-0.9,0.1l0.3-1l0,0
							l0,0c-0.1,0-0.3,0-0.4,0l-1.6,0.1l-0.1,1.2c0,0.1,0,0.2,0,0.3v0c0,0,0,0,0,0c0,0.1,0,0.2,0,0.4l1.2-0.2l-0.1,0.2c0,0,0,0,0,0
							c0,0,0,0,0.1,0c0,0,0.1,0,0.2,0c0,0,0,0,0,0c0,0,0,0,0,0c0,0,0,0,0,0c0,0,0.1,0,0.1,0l0.1-0.3l1-0.2
							C175.2,127.3,175.2,127.3,175.2,127.3z"/>
						<path d="M133.3,36.5l0.2-0.1l0-0.1L133.3,36.5L133.3,36.5l0.1-0.2c-0.2-0.2-0.5-0.4-0.8-0.5h0c0,0,0,0,0,0c0,0,0,0,0,0
							c0,0,0,0,0,0c0,0,0,0,0,0l0,0c0,0,0,0,0,0l0,0c0,0,0,0,0,0l0,0v0c-0.2,0-0.3-0.1-0.5-0.1c-0.5,0-1,0.1-1.5,0.4l-0.7,0.4l0,0.6
							c0,0,0,0.1,0,0.2c0,0.2-0.1,0.4,0,0.6l0,0l1.2-0.3l0,0c0.1,0,0.2,0.1,0.3,0.1c-0.1,0-0.2-0.1-0.2-0.1l0.4-0.1l-0.1,0.2l0,0
							c0,0,0,0,0,0c0,0,0,0,0,0l0.1-0.2l0.2,0l0.2,0.2c0,0,0,0-0.1,0c-0.1,0-0.2,0-0.3,0c0,0-0.1,0-0.1,0c0.3,0.1,0.6,0.1,0.9,0
							C132.9,37.5,133.4,37,133.3,36.5z"/>
						<path d="M198.7-15.9C198.7-15.9,198.7-15.9,198.7-15.9C198.7-15.9,198.7-15.9,198.7-15.9c0,0-0.1,0-0.1-0.1c0,0,0,0,0,0
							l0.4-0.2l0.1,0.2l-0.1-0.2l0.9-0.3l0,0l0,0l1.3-0.5c-0.3-0.6-1-1-2.1-1l-0.3,0l-7.3,2.1l7-0.1
							C198.6-15.9,198.7-15.9,198.7-15.9z"/>
					</g>
				</g>
			</g>
		</g>
	</mask>
	<g class="st2">
		<path class="st3" d="M222.4,14.3L19,73.9c-0.6,0.2-0.9,0.8-0.8,1.4l19.1,65.3c0.2,0.6,0.8,0.9,1.4,0.8l203.4-59.6
			c0.6-0.2,0.9-0.8,0.8-1.4L223.8,15C223.7,14.4,223,14.1,222.4,14.3z M239.9,79.6L39.5,138.3L21.3,76l200.4-58.7L239.9,79.6z
			 M220.2,6.7L16.8,66.3c-4.8,1.4-7.5,6.4-6.1,11.2l19.1,65.3c1.4,4.8,6.4,7.5,11.2,6.1l203.4-59.6c4.8-1.4,7.5-6.4,6.1-11.2
			l-19.1-65.3C230,8,225,5.3,220.2,6.7z M244.4,79.9c0.4,1.4-0.4,2.9-1.8,3.3L39.2,142.8c-1.4,0.4-2.9-0.4-3.3-1.8L16.8,75.7
			c-0.4-1.4,0.4-2.9,1.8-3.3L222,12.8c1.4-0.4,2.9,0.4,3.3,1.8L244.4,79.9z"/>
		<g>
			<path class="st3" d="M62,108.4l3.8-1.1l-6.4-21.9l-3.6,1.1L53.2,78l15.7-4.6c0.2-0.1,0.4-0.1,0.6-0.2c0.2-0.1,0.4-0.1,0.5-0.2
				c0.1,0,0.3-0.1,0.6-0.2c1-0.3,2.1-0.6,3.1-0.9c1-0.3,2.1-0.6,3.1-0.8c1-0.2,2-0.4,3-0.5c1-0.2,1.9-0.2,2.9-0.2
				c0.9,0,1.8,0.1,2.7,0.3c0.9,0.2,1.7,0.5,2.5,1c0.8,0.5,1.5,1,2.2,1.7c0.7,0.7,1.3,1.5,1.9,2.6c0.6,1,1.1,2.3,1.5,3.6
				c0.7,2.4,1,4.5,0.7,6.5c-0.2,1.9-0.9,3.6-2.1,5.1c-1.1,1.4-2.6,2.7-4.4,3.7c-1.8,1-3.9,1.9-6.3,2.6c-1.1,0.3-2.4,0.6-3.7,0.8
				l1.5,5l3.5-1l2.5,8.6l-20.7,6.1L62,108.4z M75.4,90.5l1-0.3c3.6-1.1,5-3.2,4-6.4c-0.4-1.4-1.2-2.4-2.2-2.8
				c-1-0.4-2.2-0.5-3.4-0.1l-2,0.6L75.4,90.5z"/>
			<path class="st3" d="M134.6,84.8c0.3,0.5,0.5,0.8,0.7,1c0.2,0.2,0.4,0.4,0.6,0.6c0.2,0.1,0.5,0.2,0.7,0.1l2.1-0.6l2.5,8.6
				l-19.9,5.8l-2.6-8.6l2.9-0.8c-0.8-2.6-1.7-3.8-2.8-3.5l-6.6,1.9c-0.2,0.1-0.3,0.2-0.4,0.4c-0.1,0.2-0.1,0.4,0,0.6
				c0,0.2,0.1,0.4,0.2,0.8c0.1,0.4,0.4,0.9,0.7,1.5c0.3,0.5,0.7,0.7,1,0.6l2-0.6l2.5,8.6l-16.3,4.8l-2.5-8.6
				c0.7-0.2,1.3-0.5,1.8-0.7c1.2-0.7,1.8-1.7,2-3.1c0.1-0.4,0.1-1.6,0-3.4l-0.6-17.5l-5.1,1.5l-2.5-8.5l23.9-7L134.6,84.8z
				 M116.7,81.6l-6.4-11.4l0.9,13L116.7,81.6z"/>
			<path class="st3" d="M157.1,56.8l-3.5,1l6.4,21.9l3.4-1l2.5,8.6l-20.7,6.1l-2.5-8.6l3.5-1l-6.4-21.9l-3.4,1l-2.5-8.5l20.8-6.1
				L157.1,56.8z"/>
			<path class="st3" d="M169.6,76.9l3.9-1.1l-6.4-21.9L163,55l-2.5-8.5l20-5.8c6.6-1.9,12-1.7,16.3,0.6c4.3,2.3,7.3,6.7,9.2,13
				c0.8,2.6,1.1,5.2,0.9,7.8c-0.2,2.6-0.9,5.1-2,7.4c-1.1,2.3-2.8,4.4-5.1,6.2c-2.3,1.8-5.1,3.2-8.3,4.2l-19.3,5.7L169.6,76.9z
				 M187.5,71.6c1.2-0.3,2.1-0.9,2.9-1.6c0.8-0.7,1.3-1.5,1.6-2.4c0.3-0.9,0.5-1.9,0.5-3c0-1.1,0-2.1-0.2-3.1c-0.2-1-0.4-2-0.7-3.1
				c-0.3-1.1-0.7-2.1-1-3c-0.4-0.9-0.8-1.8-1.4-2.7c-0.6-0.9-1.2-1.7-1.9-2.2c-0.7-0.6-1.6-0.9-2.6-1.1c-1-0.2-2.1-0.1-3.3,0.2
				l-1.1,0.3l6.4,21.9L187.5,71.6z"/>
		</g>
	</g>
</g>
</svg>
