<svg xmlns="http://www.w3.org/2000/svg" xmlns:xlink="http://www.w3.org/1999/xlink" width="60" height="60" viewBox="0 0 60 60">
  <defs>
    <clipPath id="clip-path">
      <path id="Path_92948" data-name="Path 92948" d="M320,222.14h26.4v35.629H320Z" fill="#4fb4f8"/>
    </clipPath>
  </defs>
  <g id="Pain" transform="translate(-30 -489.436)">
    <circle id="Ellipse_3126" data-name="Ellipse 3126" cx="30" cy="30" r="30" transform="translate(30 489.436)" fill="#f5f6fa"/>
    <g id="noun-pain-875798" transform="translate(-273.201 279.296)" clip-path="url(#clip-path)">
      <path id="Path_92947" data-name="Path 92947" d="M343.919,228.616a4.817,4.817,0,0,0,2.121-2.094s-2.285,2.475-6.881-1.061c-4.569-3.536-9.655-2.258-11.314-.843,0,0,.653-2.149,1.632-2.475,0,0-3.236.571-4.705,4.841l-.381-.952-.082,1.142a2.421,2.421,0,0,0-1.849.544,1.688,1.688,0,0,1,1.306-.082c-4.216,2.529-2.992,11.831-1.441,15.666-1.523-.354-2.23,2.747-1.034,3.808.326.326,1.523.925,1.9.571a12.416,12.416,0,0,0,5.168,7.942c1.985,1.5,4.352,2.611,6.854,1.985,2.638-.653,5.9-3.617,7.316-5.793A10.278,10.278,0,0,0,344,248.09c2.312.381,3.808-4.841,1.278-4.977,2.339-4.624,2.692-10.662-1.36-14.5Zm-6.392,10.825a.309.309,0,0,0,.027.544c2.067.272,1.822.925,2.393,1.441a.286.286,0,0,0,.354-.19c.218-1.115-1.9-2.312-2.774-1.8Zm-9.764-.6a.282.282,0,0,1-.054.517c-1.931.082-1.768.734-2.393,1.441-.109.054-.326-.054-.326-.19-.218-1.088,1.9-2.312,2.774-1.768Zm3.318,7.371c-.245-1.006.925-1.713,1.8-1.578.136.027.109.272-.054.272-.462.027-1.387.544-1.142,1.142.163.408.925.381,1.278.272a.316.316,0,0,1,.326.462c-.462.762-2.04.217-2.2-.571Zm8.785-3.835a2.559,2.559,0,0,0-2.094.762,1.889,1.889,0,0,1,2.285,1.142c-1.387-1.251-2.339-.49-3.59.435C336.874,242.977,337.826,241.209,339.866,242.379Zm-14.66.109c1.849-1.55,3.1.217,3.726,1.713-1.36-.68-2.421-1.278-3.617.19a1.845,1.845,0,0,1,2.067-1.5,2.486,2.486,0,0,0-2.176-.408ZM331,252.007c.245,1.9,1.414,3.291,2.611,3.128,1.169-.163,1.9-1.849,1.632-3.726-.245-1.877-1.414-3.264-2.611-3.1C331.462,248.471,330.727,250.13,331,252.007Zm8-16.373a.337.337,0,0,1-.163-.626c1.822-1.034,1.877-1.088.9-2.883a.341.341,0,0,1,.6-.326,6.632,6.632,0,0,1,.734,2.067c-.054.571-1.224,1.333-1.9,1.713a.385.385,0,0,1-.163.054Zm.843,1.8a.318.318,0,0,1-.19-.571c.653-.571.925-2.121,2.149-2.258a6.641,6.641,0,0,1,2.747.87c.354.218,0,.789-.354.544a7.226,7.226,0,0,0-2.312-.762c-.9.109-1.414,2.176-2.04,2.176Zm4.733-2.992c-.6-.027-2.5-.19-2.829-.761a7.077,7.077,0,0,1-.272-2.121.326.326,0,1,1,.653,0,6.449,6.449,0,0,0,.19,1.8,6.928,6.928,0,0,0,2.285.435.327.327,0,0,1-.027.653Zm-20.589,14.388a43.681,43.681,0,0,1-1.088-6.31c-.027-2.312.19-8.35,3.318-7.4a.229.229,0,0,0,.3-.109c.027-.027,2.475-4.46,6.908,1.306,0,0,1.006.408-.163-1.985a11.049,11.049,0,0,1,2.2,2.8c0-.027.734.462.354-1.333,1.441,1.741,4.216,4.243,8.1,3.971a12.318,12.318,0,0,0,.272,3.862c-.326,2.421-.517,5.168-1.686,7.289a14.582,14.582,0,0,1-5.848,5.494c-5.249,2.8-11.287-2.611-12.674-7.588Zm20.67-4.868a1.652,1.652,0,0,0,.462-.544c1.985.571.979,3.318-1.034,4.27C344.326,246.458,344.462,245.18,344.653,243.956Zm-22.112-.272c.19,1.251.408,2.475.626,3.726C319.2,246.3,321.508,243.086,322.541,243.684Z" transform="translate(-0.654 -0.003)" fill="#4fb4f8"/>
    </g>
  </g>
</svg>
