<svg xmlns="http://www.w3.org/2000/svg" width="16" height="16" viewBox="0 0 16 16">
  <path id="Phone" d="M8,16a8,8,0,1,1,8-8A8.009,8.009,0,0,1,8,16ZM5.643,4.267a.787.787,0,0,0-.555.228l-.446.446a1.213,1.213,0,0,0-.372.991A7.17,7.17,0,0,0,6.343,9.478l.182.181a7.294,7.294,0,0,0,3.5,2.065.73.73,0,0,0,.137.009,1.269,1.269,0,0,0,.9-.382l.446-.446a.79.79,0,0,0,0-1.11l-.764-.746a.79.79,0,0,0-1.11,0L9.2,9.487a.089.089,0,0,1-.064.019A3.735,3.735,0,0,1,7.671,8.4l-.137-.127c-.842-.85-1.118-1.355-1.019-1.464l.373-.373a.9.9,0,0,0,0-1.255L6.2,4.494A.786.786,0,0,0,5.643,4.267Z" fill="#8c959d"/>
</svg>
