<svg xmlns="http://www.w3.org/2000/svg" width="24" height="24" viewBox="0 0 24 24">
  <g id="Group_47852" data-name="Group 47852" transform="translate(-23 -436)">
    <rect id="Rectangle_9" data-name="Rectangle 9" width="24" height="24" rx="4" transform="translate(23 436)" fill="#e71e62"/>
    <g id="noun-privacy-1555592" transform="translate(20.5 439.166)">
      <path id="Path_80147" data-name="Path 80147" d="M16.159,7.277h1.122V5.362a2.143,2.143,0,1,1,4.275,0V7.277h1.122a2.728,2.728,0,0,1,.685.088l.286.075V5.362A4.392,4.392,0,0,0,19.419.834a4.392,4.392,0,0,0-4.231,4.528V7.44l.286-.075A2.728,2.728,0,0,1,16.159,7.277Z" transform="translate(-4.887)" fill="#fff"/>
      <path id="Path_80148" data-name="Path 80148" d="M17.857,26.411H11.207A2.776,2.776,0,0,0,8.5,29.251v3.935a3.053,3.053,0,0,0,2.977,3.124h6.109a3.053,3.053,0,0,0,2.977-3.124V29.251A2.775,2.775,0,0,0,17.857,26.411Zm-2.3,5.285v1.639a1.031,1.031,0,1,1-2.06,0V31.7a1.894,1.894,0,0,1-.75-1.523,1.782,1.782,0,1,1,3.56,0A1.893,1.893,0,0,1,15.562,31.7Z" transform="translate(0 -19.476)" fill="#fff"/>
    </g>
  </g>
</svg>
