<svg xmlns="http://www.w3.org/2000/svg" xmlns:xlink="http://www.w3.org/1999/xlink" width="577.928" height="453.697" viewBox="0 0 577.928 453.697">
  <defs>
    <linearGradient id="linear-gradient" x1="-33.608" y1="0.212" x2="-34.06" y2="0.899" gradientUnits="objectBoundingBox">
      <stop offset="0" stop-color="#ecb9b8"/>
      <stop offset="1" stop-color="#e5908c"/>
    </linearGradient>
    <linearGradient id="linear-gradient-2" x1="-26.472" y1="0.791" x2="-25.774" y2="-1.379" xlink:href="#linear-gradient"/>
    <linearGradient id="linear-gradient-3" x1="-119.49" y1="1.062" x2="-119.379" y2="0.1" xlink:href="#linear-gradient"/>
    <linearGradient id="linear-gradient-4" x1="-75.35" y1="0.82" x2="-75.661" y2="-0.114" xlink:href="#linear-gradient"/>
    <linearGradient id="linear-gradient-5" x1="-362.132" y1="2.058" x2="-363.605" y2="-0.895" xlink:href="#linear-gradient"/>
    <linearGradient id="linear-gradient-6" x1="2.382" y1="-4.979" x2="-0.903" y2="4.529" gradientUnits="objectBoundingBox">
      <stop offset="0" stop-color="#0f005b"/>
      <stop offset="1" stop-color="#1e168c"/>
    </linearGradient>
    <linearGradient id="linear-gradient-7" x1="1.098" y1="-5.386" x2="0.088" y2="4.552" xlink:href="#linear-gradient-6"/>
    <linearGradient id="linear-gradient-8" x1="0.87" y1="-5.587" x2="0.313" y2="3.494" xlink:href="#linear-gradient-6"/>
  </defs>
  <g id="Group_45824" data-name="Group 45824" transform="translate(-336.952 93.005)">
    <g id="Group_45812" data-name="Group 45812" transform="translate(336.952 -53.592)">
      <path id="Path_80030" data-name="Path 80030" d="M340.136,141c9.161-39.1,39.115-69.792,77.249-79.177,26.218-6.454,51.37-2.992,72.632,7.466A12.306,12.306,0,0,0,507.4,61.068C526.2-13.624,592.341-68.805,671.059-68.805c93.343,0,169.011,77.586,169.011,173.291,0,2.541-.05,6.011-.093,9.342.331,7.156,3.378,10.2,7.928,10.959,36.571,3.9,65.311,34.815,66.906,72.941,1.832,43.779-32.92,80.049-75.656,80.049H443.85C376.179,277.777,323.2,213.308,340.136,141Z" transform="translate(-336.952 68.805)" fill="#205a82"/>
      <path id="Path_80031" data-name="Path 80031" d="M358.8,141.324c8.179-34.91,34.924-62.315,68.972-70.7a94.377,94.377,0,0,1,64.85,6.666,10.988,10.988,0,0,0,15.523-7.342C524.93,3.262,583.988-46.007,654.274-46.007c83.342,0,150.9,69.274,150.9,154.726,0,2.269-.044,5.368-.083,8.342.295,6.389,3.016,9.1,7.078,9.783,32.654,3.485,58.315,31.086,59.74,65.129,1.635,39.089-29.394,71.472-67.552,71.472H451.406C390.985,263.446,343.677,205.882,358.8,141.324Z" transform="translate(-325.003 83.137)" fill="#42749e"/>
    </g>
    <g id="Group_45817" data-name="Group 45817" transform="translate(391.071 141.664)">
      <path id="Path_80032" data-name="Path 80032" d="M387.559,249.247a5.846,5.846,0,0,0,5.832,5.826h315.3a5.846,5.846,0,0,0,5.831-5.826l2.624-181.2c0-3.2-3.775-9.457-10.692-8.988L398.307,51.09a14.69,14.69,0,0,0-15.076,15.027Z" transform="translate(-361.981 -51.085)" fill="#263238"/>
      <path id="Path_80033" data-name="Path 80033" d="M391.119,240.993a5.533,5.533,0,0,0,5.516,5.516H698.892a5.533,5.533,0,0,0,5.516-5.516L706.884,76.5c-.291-9.9-8.969-13.457-14.231-13.247L397.32,55.33A10.328,10.328,0,0,0,386.726,65.9Z" transform="translate(-359.783 -48.418)" fill="#fff"/>
      <g id="Group_45813" data-name="Group 45813" transform="translate(234.927 15.441)">
        <path id="Path_80034" data-name="Path 80034" d="M580.093,127.119h-.008a.81.81,0,0,1-.8-.821l.2-13.34a.808.808,0,0,1,.808-.8h.008a.809.809,0,0,1,.8.821l-.2,13.34A.809.809,0,0,1,580.093,127.119Z" transform="translate(-473.66 -28.131)" fill="#fff"/>
        <path id="Path_80035" data-name="Path 80035" d="M621.341,126.864h-.011a.809.809,0,0,1-.8-.821l.751-51.093a9.6,9.6,0,0,0-2.739-7.186c-3.365-3.225-8.708-3.06-8.935-3.049l-94.394-2.531a.809.809,0,0,1-.787-.831.773.773,0,0,1,.831-.785L609.6,63.1c.586-.034,6.275-.134,10.065,3.5a11.159,11.159,0,0,1,3.236,8.361l-.751,51.11A.808.808,0,0,1,621.341,126.864Z" transform="translate(-514.43 -60.566)" fill="#fff"/>
      </g>
      <rect id="Rectangle_8150" data-name="Rectangle 8150" width="371.73" height="15.921" rx="4.888" transform="translate(371.73 219.029) rotate(-180)" fill="#263238"/>
      <path id="Path_80036" data-name="Path 80036" d="M517.857,232.42H401.482a7.77,7.77,0,0,1-7.77-7.77V72.743a7.77,7.77,0,0,1,8.067-7.764l116.377,4.454a7.769,7.769,0,0,1,7.472,7.764V224.65A7.77,7.77,0,0,1,517.857,232.42Z" transform="translate(-355.39 -42.354)" fill="#6bb693"/>
      <g id="Group_45814" data-name="Group 45814" transform="translate(61.127 82.216)">
        <rect id="Rectangle_8151" data-name="Rectangle 8151" width="79.302" height="10.245" rx="3.145" fill="#fff" opacity="0.51"/>
        <rect id="Rectangle_8152" data-name="Rectangle 8152" width="79.302" height="10.245" rx="3.145" transform="translate(0.156 16.36)" fill="#fff" opacity="0.51"/>
        <rect id="Rectangle_8153" data-name="Rectangle 8153" width="79.302" height="10.245" rx="3.145" transform="translate(0.621 33.063)" fill="#fff" opacity="0.51"/>
        <rect id="Rectangle_8154" data-name="Rectangle 8154" width="79.302" height="10.245" rx="3.145" transform="translate(0.776 49.423)" fill="#fff" opacity="0.51"/>
      </g>
      <g id="Group_45816" data-name="Group 45816" transform="translate(195.473 27.819)">
        <rect id="Rectangle_8155" data-name="Rectangle 8155" width="114.013" height="10.245" rx="3.145" transform="translate(0 54.386)" opacity="0.51"/>
        <rect id="Rectangle_8156" data-name="Rectangle 8156" width="114.013" height="10.245" rx="3.145" transform="translate(0.352 70.758)" opacity="0.51"/>
        <rect id="Rectangle_8157" data-name="Rectangle 8157" width="67.558" height="10.245" rx="3.145" transform="translate(0.352 87.461)" opacity="0.51"/>
        <g id="Group_45815" data-name="Group 45815" transform="translate(30.063)" opacity="0.51">
          <path id="Path_80037" data-name="Path 80037" d="M537.639,84.369H535.9a1.562,1.562,0,0,1-1.562-1.56V76.873a3.846,3.846,0,0,0-3.847-3.847h-10.76a3.847,3.847,0,0,0-3.848,3.847v5.936a1.56,1.56,0,0,1-1.56,1.56h-1.738a1.56,1.56,0,0,1-1.56-1.56V76.873a8.706,8.706,0,0,1,8.707-8.707h10.76a8.706,8.706,0,0,1,8.707,8.707v5.936A1.561,1.561,0,0,1,537.639,84.369Z" transform="translate(-507.178 -68.166)"/>
          <path id="Path_80038" data-name="Path 80038" d="M541.277,78.976H511.921a3.256,3.256,0,0,0-3.257,3.257v22.529a3.256,3.256,0,0,0,3.257,3.257h29.356a3.256,3.256,0,0,0,3.257-3.257V82.233A3.256,3.256,0,0,0,541.277,78.976ZM530.8,100.751a1.206,1.206,0,0,1-1.173,1.489h-6.054a1.207,1.207,0,0,1-1.174-1.489l1.414-5.879a5.442,5.442,0,1,1,5.575,0Z" transform="translate(-508.664 -61.371)"/>
        </g>
      </g>
    </g>
    <g id="Group_45821" data-name="Group 45821" transform="translate(630.82 -27.578)">
      <g id="Group_45818" data-name="Group 45818">
        <path id="Path_80039" data-name="Path 80039" d="M520.013-8.2a8.292,8.292,0,0,1,6.409-2.205c25.169,2.264,72.129-9.861,102.819-41.263,2.132-2.181,6.016-.948,8.459.878C671.832-25.282,728.409-20,748.051-18.919a8.287,8.287,0,0,1,7.778,7.423c17.863,172.513-94.459,235.026-117.755,246.06a8.308,8.308,0,0,1-7.938-.459C514.033,161.785,519,67.735,517.393-1.951A8.308,8.308,0,0,1,520.013-8.2Z" transform="translate(-517.391 52.832)" fill="#6bb693"/>
        <path id="Path_80040" data-name="Path 80040" d="M630.113,216.257a2.772,2.772,0,0,1-1.49-.433c-44.511-28.455-73.523-62.473-88.69-104-13.547-37.086-14.21-74.85-14.8-108.169l-.078-4.441a2.71,2.71,0,0,1,.783-1.969,2.748,2.748,0,0,1,1.976-.827h0c27.566,0,68.942-12.171,99.288-39.364a2.752,2.752,0,0,1,3.357-.241C663.8-21.06,711.367-14.617,736.751-12.748a2.742,2.742,0,0,1,2.536,2.5c5.9,67.311-8.1,124.232-41.613,169.179-25.03,33.568-54.709,51.058-66.308,57.02h0A2.735,2.735,0,0,1,630.113,216.257Zm.736-1.306.257.5-.257-.5c11.529-5.927,41.03-23.312,65.917-56.691,33.341-44.717,47.269-101.377,41.393-168.4a1.616,1.616,0,0,0-1.492-1.477c-25.495-1.878-73.274-8.355-106.832-30.622a1.62,1.62,0,0,0-1.977.142C597.291-14.709,555.6-2.448,527.842-2.448h0a1.643,1.643,0,0,0-1.192.489A1.586,1.586,0,0,0,526.189-.8l.078,4.441c.585,33.231,1.246,70.894,14.728,107.8,15.079,41.283,43.942,75.116,88.238,103.431A1.635,1.635,0,0,0,630.849,214.951Z" transform="translate(-512.571 58.608)" fill="#6bb693" opacity="0.61"/>
      </g>
      <g id="Group_45820" data-name="Group 45820" transform="translate(66.033 60.762)">
        <g id="Group_45819" data-name="Group 45819" transform="translate(0 0)">
          <path id="Path_80041" data-name="Path 80041" d="M645.538,33.466h-5.251a4.72,4.72,0,0,1-4.72-4.72V10.8A11.633,11.633,0,0,0,623.935-.831H591.4A11.631,11.631,0,0,0,579.772,10.8V28.746a4.72,4.72,0,0,1-4.721,4.72H569.8a4.72,4.72,0,0,1-4.721-4.72V10.8A26.324,26.324,0,0,1,591.4-15.523h32.532A26.324,26.324,0,0,1,650.259,10.8V28.746A4.72,4.72,0,0,1,645.538,33.466Z" transform="translate(-553.445 15.523)" fill="#f8e63a"/>
          <path id="Path_80042" data-name="Path 80042" d="M656.537,17.158H567.784A9.847,9.847,0,0,0,557.936,27V95.119a9.848,9.848,0,0,0,9.848,9.848h88.752a9.848,9.848,0,0,0,9.848-9.848V27A9.847,9.847,0,0,0,656.537,17.158ZM624.858,82.99a3.648,3.648,0,0,1-3.547,4.5h-18.3a3.65,3.65,0,0,1-3.549-4.5l4.272-17.776a16.451,16.451,0,1,1,16.855,0Z" transform="translate(-557.936 36.067)" fill="#f8e63a"/>
        </g>
      </g>
    </g>
    <g id="Group_45823" data-name="Group 45823" transform="translate(339.556 -93.005)">
      <path id="Path_80043" data-name="Path 80043" d="M394.508,3.486s7.189.381,8.07,15.169c0,0-16.669,14.943-39.185,18.5-1.691.267,2.363-11.537,2.974-13.137C369.266,16.408,378.4,11.507,394.508,3.486Z" transform="translate(-323.192 153.661)" fill="#263238"/>
      <path id="Path_80044" data-name="Path 80044" d="M471.179,14.658H456.01s-46.558-51.419-77.093-56.606c0,0-21.257,27.133,1.132,77.831a7.4,7.4,0,0,0,10.6,3.49,6.066,6.066,0,0,0,2.42-2.886L391.266-6.8s39.714,34.734,46.616,41.437S479.873,37.254,471.179,14.658Z" transform="translate(-318.909 125.1)" fill="#6bb693"/>
      <path id="Path_80045" data-name="Path 80045" d="M342.07,64.351a57.036,57.036,0,0,1,31.107-13.614l4.944,3.024a53.882,53.882,0,0,1-8.913,9.565c-5.295,3.075-13.469,7.239-20.247,8.142C342.372,72.346,341.4,68.364,342.07,64.351Z" transform="translate(-336.451 183.365)" fill="#263238"/>
      <path id="Path_80046" data-name="Path 80046" d="M367.551,19.033c3.915,1.267,5.638,6.816,15.575,3.147a88,88,0,0,0,20.438-10.767c.081.715.151,1.463.2,2.259,0,0-17.575,16.716-40.09,20.273a2.242,2.242,0,0,1-2.422-3.019A56.559,56.559,0,0,1,367.551,19.033Z" transform="translate(-324.376 158.645)" fill="#99b0f6"/>
      <path id="Path_80047" data-name="Path 80047" d="M339.382,64.247a52.27,52.27,0,0,1,4.788-4.756c-.669,4.013.3,7.995,6.891,7.117,6.778-.9,14.952-5.067,20.247-8.142-6.635,5.658-16.731,11.664-29.473,11.312A3.342,3.342,0,0,1,339.382,64.247Z" transform="translate(-338.551 188.224)" fill="#99b0f6"/>
      <path id="Path_80048" data-name="Path 80048" d="M477.653-.452,406.617.317S366.052,33.88,358.693,85.058c0,0-1.221,3.765,6.111,4.409,0,0,24.527-16.019,40.519-44.339,19.609-34.726,58.456-19.094,58.456-19.094,18.662,4.119,33.517,2.586,44.388-14.143Z" transform="translate(-325.937 151.186)" fill="#6bb693"/>
      <path id="Path_80049" data-name="Path 80049" d="M454.45-35.587S446.8,2.736,409.334,17.9L396,16.327l-3.145,5.015,31.263,1s26.724-10.586,40.883-39.427C465.474-18.042,473.27-34.141,454.45-35.587Z" transform="translate(-304.411 129.099)" fill="url(#linear-gradient)"/>
      <path id="Path_80050" data-name="Path 80050" d="M428.617,35.2s8.7-23.64,10.565-46.608a100.384,100.384,0,0,0-10.337-7.826,2.874,2.874,0,0,1-1.124-3.728c2.923-6.057,20.6-29.836,21.928-30.167,7.2-1.8,36.721-15.834,57.512,12.607,8.923,12.2-1.77,49.779-42.253,88.689C451.88,50.293,439.7,46.539,428.617,35.2Z" transform="translate(-282.677 114.905)" fill="#42749e"/>
      <path id="Path_80051" data-name="Path 80051" d="M480.789-26.273S456.628,2.334,425.74,6.516c0,0-7.984-7.278-13.92-4.681S397.745,15.9,397.745,15.9h39.66s37.5-1.321,56.241-24.061C492.139-16.115,487.624-20.869,480.789-26.273Z" transform="translate(-301.34 134.954)" fill="url(#linear-gradient-2)"/>
      <path id="Path_80052" data-name="Path 80052" d="M463.908-67.391,469.2-49.759a1.936,1.936,0,0,1-.752,2.158c-2.546,1.744-9.2,5.21-18.322,1.842a2.877,2.877,0,0,1-1.85-2.469l-1.252-15.36Z" transform="translate(-270.365 109.106)" fill="url(#linear-gradient-3)"/>
      <g id="Group_45822" data-name="Group 45822" transform="translate(151.047)">
        <path id="Path_80053" data-name="Path 80053" d="M438.383-71.506s2.6,18.276,9.619,23.9S468.7-46.222,473.322-60l-9.205-23.558Z" transform="translate(-426.84 98.943)" fill="url(#linear-gradient-4)"/>
        <path id="Path_80054" data-name="Path 80054" d="M469.608-62.374a.905.905,0,0,1-1.176-.726,23.623,23.623,0,0,0-2.168-7.3s.671-2.4-6.059,1.225-16.838,8.943-22.791,5.775c-5.8-3.089-11.679-18.636,3.656-15.757a.9.9,0,0,0,1.075-.948c-.187-2.554.065-8.433,6.019-10.321,5.57-1.765,8.62.749,9.878,2.267a.9.9,0,0,0,1.407-.023c1.669-2.177,6.2-6.816,12.873-3.875,5.5,2.422,6.35,5.806,6.26,7.915a.9.9,0,0,0,1.285.86c1.682-.775,4.391-1.178,6.984,2.072,3.585,4.492-1.539,8.387-3.075,9.409a.9.9,0,0,0-.41.748c-.015,2.335-.378,12.526-5.485,18.273a.914.914,0,0,1-1.518-.262l-3.931-9.369a.909.909,0,0,0-1.117-.513Z" transform="translate(-431.296 93.005)" fill="#263238"/>
        <path id="Path_80055" data-name="Path 80055" d="M454.769-70.234s2.4-9.782,6.049-6.606-.949,10.164-5.129,11.5Z" transform="translate(-416.539 102.767)" fill="url(#linear-gradient-5)"/>
      </g>
      <path id="Path_80056" data-name="Path 80056" d="M418.618,26.213,400.809-33.175a6.073,6.073,0,0,0-5.4-4.314l-24.042-1.645a3.411,3.411,0,0,0-3.451,4.532l19.908,56.714a4.988,4.988,0,0,0,4.208,3.313l23.675,2.63Z" transform="translate(-320.216 126.864)" fill="#263238"/>
      <path id="Path_80057" data-name="Path 80057" d="M379.157-20.652c1.329,2.684,3.625,4.256,5.129,3.511s1.643-3.523.313-6.207-3.625-4.256-5.129-3.511S377.828-23.336,379.157-20.652Z" transform="translate(-313.598 134.47)" fill="#99b0f6"/>
      <path id="Path_80058" data-name="Path 80058" d="M398.055,4.849c.039,0,.077,0,.116,0L448.619,2.3a2.259,2.259,0,0,0,2.145-2.371,2.252,2.252,0,0,0-2.373-2.145L397.942.329a2.261,2.261,0,0,0,.112,4.519Z" transform="translate(-302.565 150.071)" fill="#263238"/>
      <path id="Path_80059" data-name="Path 80059" d="M434.782-19.4a.349.349,0,0,1-.349-.349c-.036-10.65,4.062-24.744,4.1-24.885a.349.349,0,0,1,.433-.236.35.35,0,0,1,.238.433c-.042.14-4.111,14.14-4.076,24.687a.349.349,0,0,1-.349.35Z" transform="translate(-278.277 123.253)" fill="url(#linear-gradient-6)"/>
      <path id="Path_80060" data-name="Path 80060" d="M448.87-16.649a.347.347,0,0,1-.217-.075.349.349,0,0,1-.059-.49c.111-.14,11.076-14.08,14.829-23.591a.349.349,0,0,1,.454-.2.352.352,0,0,1,.2.454c-3.791,9.606-14.819,23.627-14.931,23.767A.35.35,0,0,1,448.87-16.649Z" transform="translate(-269.421 125.679)" fill="url(#linear-gradient-7)"/>
      <path id="Path_80061" data-name="Path 80061" d="M459.074-2.6l-2-2.821a.35.35,0,0,1,.085-.487.347.347,0,0,1,.487.083l1.668,2.358c15.56-6.821,25.192-25.436,25.288-25.623a.349.349,0,0,1,.471-.153.349.349,0,0,1,.153.471c-.1.191-9.948,19.232-25.9,26.061Z" transform="translate(-264.081 133.063)" fill="url(#linear-gradient-8)"/>
    </g>
  </g>
</svg>
