<svg xmlns="http://www.w3.org/2000/svg" width="16" height="20" viewBox="43.585 576 16 20"><g data-name="Protocal"><path d="M52.585 576h-6c-.796 0-1.559.316-2.12.879a2.996 2.996 0 0 0-.88 2.121v14c0 .796.316 1.559.88 2.121a2.996 2.996 0 0 0 2.12.879h10c.796 0 1.56-.316 2.121-.879a2.996 2.996 0 0 0 .88-2.121v-10h-4a3 3 0 0 1-3-3v-4Zm-2 10h-2a1 1 0 0 0 0 2h2v2a1 1 0 0 0 2 0v-2h2a1 1 0 0 0 0-2h-2v-2a1 1 0 0 0-2 0v2Zm4-10v4a1 1 0 0 0 1 1h4v-.172a3 3 0 0 0-.879-2.121l-1.828-1.828a3 3 0 0 0-2.12-.879h-.173Z" fill="#2096f3" fill-rule="evenodd" data-name="Path 94650"/></g></svg>