<svg xmlns="http://www.w3.org/2000/svg" width="24" height="24" viewBox="0 0 24 24">
  <g id="Group_47953" data-name="Group 47953" transform="translate(-20.6 -466)">
    <g id="Group" transform="translate(20.6 466)">
      <path id="Compound_Path" data-name="Compound Path" d="M29.6,17.6a12,12,0,1,0,12,12A12,12,0,0,0,29.6,17.6Zm1.185,17.667H28.526V33.044h2.3Zm2.185-6.407A5.7,5.7,0,0,1,31.859,29.9l-.556.444a1.63,1.63,0,0,0-.593.815,3.37,3.37,0,0,0-.111.889H28.563a6,6,0,0,1,.259-1.778,3.148,3.148,0,0,1,1.037-1.148l.556-.444a1.963,1.963,0,0,0,.444-.444,1.556,1.556,0,0,0,.3-.926,1.778,1.778,0,0,0-.333-1.074,1.386,1.386,0,0,0-1.222-.481,1.37,1.37,0,0,0-1.259.593,2.259,2.259,0,0,0-.37,1.222H25.748a3.467,3.467,0,0,1,1.519-3.074,4,4,0,0,1,2.222-.593,4.778,4.778,0,0,1,2.852.815,2.815,2.815,0,0,1,1.148,2.444,2.778,2.778,0,0,1-.519,1.7Z" transform="translate(-17.6 -17.6)" fill="#00aa9e"/>
    </g>
  </g>
</svg>
