<svg id="RadioButton_Select" xmlns="http://www.w3.org/2000/svg" width="18" height="18" viewBox="0 0 18 18">
  <rect id="Checkbox" width="18" height="18" rx="9" fill="#108fe5"/>
  <path id="tik" d="M-1069.4,232.717a1.324,1.324,0,0,1-.377.659q-2.71,2.976-5.414,5.957a.737.737,0,0,1-.86.256.92.92,0,0,1-.333-.232q-1.384-1.509-2.757-3.03a.922.922,0,0,1,.063-1.343.747.747,0,0,1,1.07.123q1.061,1.165,2.12,2.333a1.1,1.1,0,0,1,.083.131,1.3,1.3,0,0,1,.084-.125l4.923-5.418a.744.744,0,0,1,.844-.258.822.822,0,0,1,.535.64c.006.024.014.047.02.07Z" transform="translate(1083.395 -226.684)" fill="#fff"/>
</svg>
