<svg xmlns="http://www.w3.org/2000/svg" width="32" height="32" viewBox="0 0 32 32">
  <g id="Remove" transform="translate(-311 -215)">
    <g id="Path_92946" data-name="Path 92946" transform="translate(311 215)" fill="none">
      <path d="M16,0A16,16,0,1,1,0,16,16,16,0,0,1,16,0Z" stroke="none"/>
      <path d="M 16 1.200000762939453 C 12.0467700958252 1.200000762939453 8.330169677734375 2.739469528198242 5.534820556640625 5.534820556640625 C 2.739469528198242 8.330169677734375 1.200000762939453 12.0467700958252 1.200000762939453 16 C 1.200000762939453 19.9532299041748 2.739469528198242 23.66983032226562 5.534820556640625 26.46517944335938 C 8.330169677734375 29.26053047180176 12.0467700958252 30.79999923706055 16 30.79999923706055 C 19.9532299041748 30.79999923706055 23.66983032226562 29.26053047180176 26.46517944335938 26.46517944335938 C 29.26053047180176 23.66983032226562 30.79999923706055 19.9532299041748 30.79999923706055 16 C 30.79999923706055 12.0467700958252 29.26053047180176 8.330169677734375 26.46517944335938 5.534820556640625 C 23.66983032226562 2.739469528198242 19.9532299041748 1.200000762939453 16 1.200000762939453 M 16 0 C 24.8365592956543 0 32 7.163440704345703 32 16 C 32 24.8365592956543 24.8365592956543 32 16 32 C 7.163440704345703 32 0 24.8365592956543 0 16 C 0 7.163440704345703 7.163440704345703 0 16 0 Z" stroke="none" fill="#f34624"/>
    </g>
    <rect id="Rectangle_8556" data-name="Rectangle 8556" width="14" height="2" rx="1" transform="translate(320 230)" fill="#f34624"/>
  </g>
</svg>
