<svg xmlns="http://www.w3.org/2000/svg" width="26.738" height="27.422" viewBox="20 483.398 26.738 27.422"><g data-name="noun-reschedule-3777044"><path d="M21.707 501.042v-10.21h17.095v4.454a8.408 8.408 0 0 1 1.706 0v-7.231a2.55 2.55 0 0 0-2.545-2.546h-1.851v-1.36a.766.766 0 0 0-.752-.751h-1.88a.766.766 0 0 0-.753.752v1.36l-4.946-.001v-1.36a.766.766 0 0 0-.752-.751h-1.88a.766.766 0 0 0-.752.752v1.36h-1.851A2.55 2.55 0 0 0 20 488.054v12.988a2.55 2.55 0 0 0 2.546 2.545h8.388a8.629 8.629 0 0 1 .232-1.706h-8.592a.828.828 0 0 1-.867-.84Z" fill="#333" fill-rule="evenodd" data-name="Path 94664"/><path d="M33.942 492.943a.58.58 0 0 0-.578.579v1.533c0 .318.26.578.578.578h2.14a.58.58 0 0 0 .58-.578v-1.533a.58.58 0 0 0-.58-.579h-2.14Z" fill="#333" fill-rule="evenodd" data-name="Path 94665"/><path d="M31.34 492.943h-2.141a.58.58 0 0 0-.579.579v1.533c0 .318.26.578.579.578h2.14a.58.58 0 0 0 .579-.578v-1.533c-.03-.319-.26-.579-.579-.579Z" fill="#333" fill-rule="evenodd" data-name="Path 94666"/><path d="M31.34 497.137h-2.141a.58.58 0 0 0-.579.579v1.533c0 .318.26.579.579.579h2.14a.58.58 0 0 0 .579-.579v-1.533c-.03-.318-.26-.579-.579-.579Z" fill="#333" fill-rule="evenodd" data-name="Path 94667"/><path d="M27.145 493.493a.58.58 0 0 0-.579-.579h-2.14a.58.58 0 0 0-.579.579v1.533c0 .318.26.578.579.578h2.14a.58.58 0 0 0 .579-.578v-1.533Z" fill="#333" fill-rule="evenodd" data-name="Path 94668"/><path d="M26.595 497.137h-2.14a.58.58 0 0 0-.579.579v1.533c0 .318.26.579.579.579h2.14a.58.58 0 0 0 .579-.579v-1.533c-.03-.318-.26-.579-.579-.579Z" fill="#333" fill-rule="evenodd" data-name="Path 94669"/><path d="M39.554 500.088a.84.84 0 0 0-.839.839v2.98a.85.85 0 0 0 .52.78l1.794.781a.734.734 0 0 0 .347.058.88.88 0 0 0 .781-.52.871.871 0 0 0-.433-1.129l-1.273-.55v-2.43c-.03-.433-.434-.809-.897-.809Z" fill="#333" fill-rule="evenodd" data-name="Path 94670"/><path d="m42.533 501.708 3.645.752c.174.029.318 0 .434-.145a.484.484 0 0 0 .116-.433l-.752-3.645c-.03-.174-.203-.318-.319-.376a.5.5 0 0 0-.491.116l-.84.838a6.869 6.869 0 0 0-4.743-1.88 6.937 6.937 0 0 0-4.917 2.025 6.948 6.948 0 0 0 0 9.835 6.937 6.937 0 0 0 4.917 2.024 6.937 6.937 0 0 0 4.917-2.024c1.042-1.042 1.707-2.314 1.938-3.76a.85.85 0 0 0-.694-.984.85.85 0 0 0-.983.694 5.188 5.188 0 0 1-1.476 2.835 5.255 5.255 0 0 1-7.434 0 5.255 5.255 0 0 1 0-7.434 5.261 5.261 0 0 1 7.26-.174l-.838.839a.5.5 0 0 0-.116.492c.058.231.202.376.376.405Z" fill="#333" fill-rule="evenodd" data-name="Path 94671"/></g></svg>