<svg xmlns="http://www.w3.org/2000/svg" width="24" height="24" viewBox="0 0 24 24">
  <g id="Review" transform="translate(-22 -1007)">
    <path id="Path_80208" data-name="Path 80208" d="M4,0H20a4,4,0,0,1,4,4V20a4,4,0,0,1-4,4H4a4,4,0,0,1-4-4V4A4,4,0,0,1,4,0Z" transform="translate(22 1007)" fill="#ffc104"/>
    <path id="noun-review-1944457" d="M14.927,13.482,17.3,11.169a1.252,1.252,0,0,0-.691-2.136l-3.2-.466a1.025,1.025,0,0,1-.755-.546L11.184,5.049a1.254,1.254,0,0,0-2.249,0L7.506,7.94a1,1,0,0,1-.755.546l-3.277.482A1.248,1.248,0,0,0,2.784,11.1L5.1,13.353a1,1,0,0,1,.289.883L4.824,17.5a1.249,1.249,0,0,0,1.815,1.317L9.5,17.321a1.055,1.055,0,0,1,.932,0l2.94,1.542a1.253,1.253,0,0,0,1.815-1.317l-.546-3.18A.96.96,0,0,1,14.927,13.482Z" transform="translate(24.421 1006.948)" fill="#fff"/>
  </g>
</svg>
