<svg xmlns="http://www.w3.org/2000/svg" width="15.877" height="21.326" viewBox="0 0 15.877 21.326">
  <g id="ribbon" transform="translate(0.249 0.176)">
    <path id="ribbon-2" data-name="ribbon" d="M22.505,17.01l-4.128-5.046,2.735-3.545a.359.359,0,0,0,.028-.042C22.38,6.218,19.592,1.441,19.269.9h0A.365.365,0,0,0,19.189.81a.365.365,0,0,0-.035-.021.361.361,0,0,0-.066-.04h0a10.385,10.385,0,0,0-7.738,0h0a.364.364,0,0,0-.055.033A.408.408,0,0,0,11.24.81.376.376,0,0,0,11.161.9v0c-.322.538-3.111,5.315-1.871,7.473a.359.359,0,0,0,.028.042l2.735,3.545L7.924,17.01a1.751,1.751,0,0,0,.193,2.425l1.261,1.121A1.761,1.761,0,0,0,10.546,21q.081,0,.162-.008a1.762,1.762,0,0,0,1.226-.676l3.28-4.252,3.28,4.252a1.764,1.764,0,0,0,1.226.676q.081.008.162.008a1.764,1.764,0,0,0,1.168-.444l1.261-1.121A1.752,1.752,0,0,0,22.505,17.01ZM13.294,5.752a5.752,5.752,0,0,1,3.84,0L15.215,8.1ZM20.5,7.984,17.891,11.37,15.7,8.689l2.048-2.5a8.078,8.078,0,0,0,1.513-3.744C20.125,4.163,21.164,6.785,20.5,7.984Zm-1.95-6.64L18.43,2.825l-.008.041c-.019.088-.039.174-.06.259-.011.044-.022.089-.034.132-.02.074-.041.147-.062.218-.017.055-.034.109-.051.162s-.037.114-.056.169q-.039.109-.078.213c-.012.032-.025.066-.037.1a7.769,7.769,0,0,1-.48.991,6.5,6.5,0,0,0-4.695,0A7.791,7.791,0,0,1,12.378,4.1l-.024-.061c-.031-.081-.062-.164-.092-.25-.015-.044-.03-.089-.045-.135-.021-.064-.041-.13-.062-.2s-.036-.124-.053-.187-.028-.11-.042-.166c-.018-.075-.037-.15-.053-.227,0-.016-.006-.034-.01-.051l-.123-1.478A9.642,9.642,0,0,1,18.554,1.344ZM11.343,19.859A1.009,1.009,0,0,1,9.873,20L8.612,18.876A1.006,1.006,0,0,1,8.5,17.483l4.019-4.912L13.3,13.58l1.444,1.872Zm10.474-.983L20.556,20a1.009,1.009,0,0,1-1.47-.138L15.51,15.224h0l-2.685-3.481h0l-2.9-3.759c-.659-1.2.379-3.82,1.246-5.541a8.073,8.073,0,0,0,1.513,3.743h0l2.241,2.738h0l2.685,3.282h0l4.316,5.275A1.007,1.007,0,0,1,21.817,18.876Z" transform="translate(-7.525 0.001)" fill="#27b793" stroke="#27b793" stroke-width="0.3"/>
  </g>
</svg>
