<svg xmlns="http://www.w3.org/2000/svg" width="18" height="18" viewBox="328.95 488 18 18"><g data-name="Group 48011"><path d="M337.9 506a9 9 0 1 1 .1 0z" fill="#108fe5" fill-rule="evenodd" data-name="Ellipse 6"/><g data-name="Group 48010"><path d="M340.077 497.261a.45.45 0 0 1-.124.316l-2.612 2.753a.408.408 0 0 1-.601 0 .463.463 0 0 1 0-.633l2.31-2.436-2.31-2.432a.468.468 0 0 1 0-.637.415.415 0 0 1 .601 0l2.612 2.753a.464.464 0 0 1 .124.316Z" fill="#fff" fill-rule="evenodd" data-name="Path"/></g></g></svg>