<svg xmlns="http://www.w3.org/2000/svg" width="50" height="50" viewBox="0 0 50 50">
  <g id="DailyStreak" transform="translate(-18 -390)">
    <circle id="Ellipse_3121" data-name="Ellipse 3121" cx="25" cy="25" r="25" transform="translate(18 390)" fill="#fabe2c" opacity="0.2"/>
    <g id="noun-check-4845588" transform="translate(24.07 396.07)">
      <path id="Path_94774" data-name="Path 94774" d="M27.735,16.83a.475.475,0,1,1,.924-.219,10.017,10.017,0,1,1-4.82-6.393.473.473,0,0,1-.463.824,8.969,8.969,0,0,0-2.143-.869,9.054,9.054,0,1,0,6.749,8.757,9.2,9.2,0,0,0-.061-1.06,9.047,9.047,0,0,0-.184-1.04Zm-14.46,1.856A1.184,1.184,0,1,1,14.935,17l3.115,3.07,8.006-8.163a1.184,1.184,0,1,1,1.688,1.66l-8.837,9.008a1.184,1.184,0,0,1-1.674.014l-3.959-3.9Z" transform="translate(0 0)" fill="#e1a30f"/>
    </g>
  </g>
</svg>
