<svg xmlns="http://www.w3.org/2000/svg" width="18" height="18" viewBox="328.95 23 18 18"><g data-name="Group 48011"><g data-name="Ellipse 6"><path d="M337.9 41a9 9 0 1 1 .1 0z" fill="#fff" fill-rule="evenodd"/><path d="M337.903 40.5a8.5 8.5 0 1 1 .094 0z" stroke-linejoin="round" stroke-linecap="round" stroke="#c2c2c2" fill="transparent" stroke-width=".94444"/></g><g data-name="Group 48010"><path d="M340.077 32.046a.45.45 0 0 1-.124.316l-2.612 2.753a.408.408 0 0 1-.601 0 .463.463 0 0 1 0-.632l2.31-2.437-2.31-2.432a.468.468 0 0 1 0-.636.415.415 0 0 1 .601 0l2.612 2.752a.464.464 0 0 1 .124.316Z" fill="#333" fill-rule="evenodd" data-name="Path"/></g></g></svg>