<svg xmlns="http://www.w3.org/2000/svg" xmlns:xlink="http://www.w3.org/1999/xlink" width="46.337" height="46.337" viewBox="0 0 46.337 46.337">
  <defs>
    <clipPath id="clip-path">
      <rect id="Rectangle_8729" data-name="Rectangle 8729" width="46.337" height="46.337" transform="translate(0 0)" fill="none"/>
    </clipPath>
  </defs>
  <g id="Group_48350" data-name="Group 48350" transform="translate(0 0)">
    <g id="Group_48349" data-name="Group 48349" clip-path="url(#clip-path)">
      <path id="Path_94925" data-name="Path 94925" d="M46.337,23.168A23.169,23.169,0,1,1,23.169,0,23.168,23.168,0,0,1,46.337,23.168" fill="#f7b23f"/>
      <path id="Path_94926" data-name="Path 94926" d="M41.7,23.168A18.534,18.534,0,1,1,23.168,4.633,18.535,18.535,0,0,1,41.7,23.168" fill="#fdcf50"/>
      <path id="Path_94927" data-name="Path 94927" d="M17.117,13.285h13.2v.027A20.294,20.294,0,0,1,29,15.233H25.471a4.6,4.6,0,0,1,.988,2.071h3.758c.046.009.069.028.069.055Q29.023,19.252,29,19.252H26.555a5.608,5.608,0,0,1-.933,2.346,5.745,5.745,0,0,1-2.154,1.8,8.525,8.525,0,0,1-3.676.919v.027q0,.138,7.942,9.424h-3.5Q16.5,24.753,16.5,24.712V22.887l.027-.068a11.727,11.727,0,0,0,1.6.1q4.335,0,5.391-2.812a2.269,2.269,0,0,0,.165-.851H15.841a.049.049,0,0,1-.055-.055q1.3-1.893,1.331-1.893h6.228v-.027a3.648,3.648,0,0,0-2.072-1.687,6.456,6.456,0,0,0-1.975-.357H15.814v-.069q1.262-1.879,1.3-1.879" fill="#000333"/>
    </g>
  </g>
</svg>
