<svg xmlns="http://www.w3.org/2000/svg" width="14.527" height="20.48" viewBox="0 0 14.527 20.48">
  <g id="Group_48350" data-name="Group 48350" transform="translate(40.214 -36.097)">
    <g id="Group_48351" data-name="Group 48351">
      <path id="Path_94927" data-name="Path 94927" d="M17.117,13.285h13.2v.027A20.294,20.294,0,0,1,29,15.233H25.471a4.6,4.6,0,0,1,.988,2.071h3.758c.046.009.069.028.069.055Q29.023,19.252,29,19.252H26.555a5.608,5.608,0,0,1-.933,2.346,5.745,5.745,0,0,1-2.154,1.8,8.525,8.525,0,0,1-3.676.919v.027q0,.138,7.942,9.424h-3.5Q16.5,24.753,16.5,24.712V22.887l.027-.068a11.727,11.727,0,0,0,1.6.1q4.335,0,5.391-2.812a2.269,2.269,0,0,0,.165-.851H15.841a.049.049,0,0,1-.055-.055q1.3-1.893,1.331-1.893h6.228v-.027a3.648,3.648,0,0,0-2.072-1.687,6.456,6.456,0,0,0-1.975-.357H15.814v-.069q1.262-1.879,1.3-1.879" transform="translate(-56 22.812)" fill="#000333"/>
    </g>
  </g>
</svg>
