<svg xmlns="http://www.w3.org/2000/svg" width="19.998" height="20" viewBox="-0.5 -0.5 19.998 20"><g data-name="Path 92750"><path d="m19.383 17.621-3.87-3.873a8.753 8.753 0 1 0-1.765 1.764l3.873 3.873a1.246 1.246 0 1 0 1.762-1.762v-.002ZM8.536 14.765a6.229 6.229 0 1 1 6.229-6.229 6.235 6.235 0 0 1-6.229 6.229Z" fill="#333" fill-rule="evenodd"/><path d="m19.383 17.621-3.87-3.873a8.753 8.753 0 1 0-1.765 1.764l3.873 3.873a1.246 1.246 0 1 0 1.762-1.762v-.002ZM8.536 14.765a6.229 6.229 0 1 1 6.229-6.229 6.235 6.235 0 0 1-6.229 6.229Z" stroke-linejoin="round" stroke-linecap="round" stroke-width=".5" stroke="#fff" fill="transparent"/></g></svg>