<svg xmlns="http://www.w3.org/2000/svg" width="30.022" height="21.429" viewBox="0 0 30.022 21.429">
  <g id="Emotional_wellness" data-name="Emotional wellness" transform="translate(0 -14.312)">
    <path id="Path_92769" data-name="Path 92769" d="M16.751,19.222C12.309,33.016,18.6,35.616,18.6,35.616s6.515,2.2,11.418-11.909A15.536,15.536,0,0,1,16.751,19.222Zm2.243,6.433a1.89,1.89,0,0,1,1.143,1.767,3.2,3.2,0,0,0-1.352-1.147,3.514,3.514,0,0,0-1.771.092A1.89,1.89,0,0,1,18.994,25.655Zm4.445,7.14A8.623,8.623,0,0,0,20.3,30.657a9.459,9.459,0,0,0-3.748-.212c-.011-.058-.022-.116-.032-.174a4.462,4.462,0,0,1,7.034,2.421Zm.689-4.715a3.513,3.513,0,0,0-1.77.092,1.892,1.892,0,0,1,1.98-.712,1.906,1.906,0,0,1,1.142,1.767S24.669,28.138,24.128,28.081ZM0,18.738C4.776,32.421,11.365,30.7,11.365,30.7s6.524-2.173,1.926-16.386A15.535,15.535,0,0,1,0,18.738Zm11.02,2A1.907,1.907,0,0,1,13,21.455s-1.3-.381-1.77-.1A3.515,3.515,0,0,0,9.87,22.5,1.892,1.892,0,0,1,11.02,20.734Zm-6.5,3.545a1.891,1.891,0,0,1,1.15-1.762,1.889,1.889,0,0,1,1.977.72,3.2,3.2,0,0,0-1.77-.1A3.519,3.519,0,0,0,4.518,24.279Zm5.8,3.266a4.452,4.452,0,0,1-4.4-.92,9.359,9.359,0,0,0,4.042-.153,10.041,10.041,0,0,0,3.327-2.3A4.461,4.461,0,0,1,10.315,27.544Z" fill="#fff"/>
  </g>
</svg>
