<svg xmlns="http://www.w3.org/2000/svg" width="15.6" height="15.2" viewBox="0 0 15.6 15.2">
  <g id="Select" transform="translate(-330.4 -283)">
    <circle id="Ellipse_13" data-name="Ellipse 13" cx="7" cy="7" r="7" transform="translate(331 284)" fill="#108fe5"/>
    <path id="noun-done-2111614" d="M8.8,1A7.713,7.713,0,0,0,1,8.6a7.713,7.713,0,0,0,7.8,7.6,7.713,7.713,0,0,0,7.8-7.6A7.713,7.713,0,0,0,8.8,1Zm0,1.382A6.291,6.291,0,0,1,15.182,8.6,6.291,6.291,0,0,1,8.8,14.818,6.291,6.291,0,0,1,2.418,8.6,6.291,6.291,0,0,1,8.8,2.382Zm2.6,3.8a.718.718,0,0,0-.49.2L7.759,9.365,6.691,8.356a.722.722,0,0,0-1,.015.679.679,0,0,0,.015.977l1.562,1.476a.723.723,0,0,0,.987,0L11.9,7.375a.679.679,0,0,0,.17-.762.71.71,0,0,0-.667-.431Z" transform="translate(329.4 282)" fill="#fff" fill-rule="evenodd"/>
  </g>
</svg>
