<svg xmlns="http://www.w3.org/2000/svg" xmlns:xlink="http://www.w3.org/1999/xlink" width="60" height="60" viewBox="0 0 60 60">
  <defs>
    <clipPath id="clip-path">
      <rect id="Rectangle_8559" data-name="Rectangle 8559" width="35.038" height="42" fill="#4fb4f8"/>
    </clipPath>
  </defs>
  <g id="SexualDifficulties" transform="translate(-30 -1239)">
    <circle id="Ellipse_3126" data-name="Ellipse 3126" cx="30" cy="30" r="30" transform="translate(30 1239)" fill="#f5f6fa"/>
    <g id="Sexual_difficulties" data-name="Sexual difficulties" transform="translate(42.481 1246)">
      <g id="Group_48091" data-name="Group 48091" clip-path="url(#clip-path)">
        <path id="Path_92994" data-name="Path 92994" d="M85.6,0c.238.127.47.264.714.378a4.271,4.271,0,0,1,2.4,4.945,4.273,4.273,0,0,1-8.337-.233A4.267,4.267,0,0,1,82.951.326L83.712,0Z" transform="translate(-63.438)" fill="#4fb4f8"/>
        <path id="Path_92995" data-name="Path 92995" d="M113.089,151.917a2.629,2.629,0,0,1-1.114-2.969c.541-3.233.926-6.493,1.383-9.813l3.739.637c-.189,1.365-.375,2.7-.558,4.041-.266,1.938-.564,3.873-.783,5.816a2.746,2.746,0,0,1-1.407,2.288Z" transform="translate(-88.404 -109.917)" fill="#4fb4f8"/>
        <path id="Path_92996" data-name="Path 92996" d="M90.654,54.112c.843-1.9,1.652-3.787,2.523-5.642a2.2,2.2,0,0,1,.865-.828,12.785,12.785,0,0,0,6.179-8.117c.366-1.494-.471-2.591-1.823-2.468-1,.091-1.419.757-1.631,1.65a7,7,0,0,1-2.622,4.256,40.811,40.811,0,0,1,.8-4.419,4.093,4.093,0,0,1,7.087-1.567,13.345,13.345,0,0,1,2.233,3.982,45.727,45.727,0,0,1,2.347,13.477c.126,2.217.1,2.194-2.1,2.625-4.466.876-10.315-.647-13.862-2.95" transform="translate(-71.617 -28.053)" fill="#4fb4f8"/>
        <path id="Path_92997" data-name="Path 92997" d="M36.986,121.32c-.615-1.8-.132-3.66.993-4.4a3.427,3.427,0,0,1,3.973.621,7.43,7.43,0,0,1,1.621,2.508,20.37,20.37,0,0,1,1.081,10.209,4.336,4.336,0,0,1-6.039,3.3,2.259,2.259,0,0,1-.929-.811c-.877-1.463-1.694-2.962-2.568-4.51.366-.242.678-.451.992-.656a13.2,13.2,0,0,0,5.277-6.469,1.983,1.983,0,0,0-1.082-2.848c-1.105-.4-2.042.146-2.58,1.47-.193.476-.433.933-.74,1.588" transform="translate(-27.744 -92.059)" fill="#4fb4f8"/>
        <path id="Path_92998" data-name="Path 92998" d="M1.594,89.361A4.323,4.323,0,0,1,5.887,85.1a4.28,4.28,0,1,1-.029,8.56,4.326,4.326,0,0,1-4.264-4.3" transform="translate(-1.259 -67.227)" fill="#4fb4f8"/>
        <path id="Path_92999" data-name="Path 92999" d="M1.762,137.153c-1.07,0-1.653-.446-1.749-1.332a1.445,1.445,0,0,1,1.253-1.655,26.847,26.847,0,0,0,3.711-1.056,9.657,9.657,0,0,0,5.421-5.53c.449-1.134,1.162-1.551,2.057-1.207s1.222,1.17.78,2.27c-1.846,4.592-5.349,7.187-10.085,8.262-.509.116-1.029.185-1.388.249" transform="translate(0 -99.741)" fill="#4fb4f8"/>
        <path id="Path_93000" data-name="Path 93000" d="M84.892,46c-.3.962-.461,1.679-.734,2.351-1.806,4.458-5.363,6.8-9.811,8.047a8.116,8.116,0,0,1-1.434.29,1.2,1.2,0,0,1-1.392-.992,1.231,1.231,0,0,1,.9-1.551c.694-.23,1.422-.356,2.114-.59,3.793-1.283,6.628-3.526,7.589-7.632.189-.807.773-1.262,1.542-1.006.489.163.844.73,1.224,1.083" transform="translate(-56.468 -35.431)" fill="#4fb4f8"/>
        <path id="Path_93001" data-name="Path 93001" d="M10.1,174.309c-.564,1.352-1.063,2.795-1.755,4.139a2.274,2.274,0,0,1-3.281.719,2.445,2.445,0,0,1-.725-3.242.862.862,0,0,1,.46-.357c1.739-.428,3.484-.831,5.3-1.259" transform="translate(-3.16 -137.704)" fill="#4fb4f8"/>
        <path id="Path_93002" data-name="Path 93002" d="M14.349,138.964c.623-1.54,1.114-2.92,1.731-4.241a2.337,2.337,0,0,1,3.784-.673c.435.421.575.8.127,1.339a10.677,10.677,0,0,1-5.642,3.574" transform="translate(-11.336 -105.356)" fill="#4fb4f8"/>
        <path id="Path_93003" data-name="Path 93003" d="M31.155,51.328c-1.027,1.058-.761,2.128-.3,3.3a2.288,2.288,0,0,1-.635,2.431c-.02-.275-.077-.417-.029-.491a2.414,2.414,0,0,0,.07-2.475,2,2,0,0,1,.9-2.76" transform="translate(-23.718 -40.549)" fill="#4fb4f8"/>
        <path id="Path_93004" data-name="Path 93004" d="M10.387,56.861a3.345,3.345,0,0,0-.053-3.087,1.937,1.937,0,0,1,.959-2.452,1.429,1.429,0,0,1-.164.413,2.017,2.017,0,0,0-.272,2.326,2.307,2.307,0,0,1-.471,2.8" transform="translate(-8.05 -40.544)" fill="#4fb4f8"/>
        <path id="Path_93005" data-name="Path 93005" d="M20.209,56.383a3.166,3.166,0,0,0-.035-3.092,2.107,2.107,0,0,1,1.037-2.574,2.52,2.52,0,0,1-.23.541,1.988,1.988,0,0,0-.278,2.319,2.227,2.227,0,0,1-.494,2.807" transform="translate(-15.822 -40.066)" fill="#4fb4f8"/>
      </g>
    </g>
  </g>
</svg>
