<svg xmlns="http://www.w3.org/2000/svg" width="14.534" height="18.508" viewBox="0 0 14.534 18.508">
  <g id="Share" transform="translate(-1181.75 -438.244)">
    <path id="Path_160" data-name="Path 160" d="M2691.477,1934a2.477,2.477,0,1,0,2.477,2.477A2.477,2.477,0,0,0,2691.477,1934Zm0,4.353a1.876,1.876,0,1,1,1.876-1.876A1.876,1.876,0,0,1,2691.477,1938.353Z" transform="translate(-1497.919 -1482.451)" fill="#5c6672" stroke="#707070" stroke-width="0.5"/>
    <path id="Path_161" data-name="Path 161" d="M2583.477,1855.359a2.477,2.477,0,1,0,2.477,2.477A2.477,2.477,0,0,0,2583.477,1855.359Zm0,4.353a1.876,1.876,0,1,1,1.876-1.876A1.876,1.876,0,0,1,2583.477,1859.711Z" transform="translate(-1399 -1410.337)" fill="#5c6672" stroke="#707070" stroke-width="0.5"/>
    <rect id="Rectangle_65" data-name="Rectangle 65" width="0.763" height="5.502" transform="matrix(-0.619, 0.785, -0.785, -0.619, 1191.303, 452.368)" fill="#5c6672" stroke="#5c6672" stroke-width="0.5"/>
    <path id="Path_162" data-name="Path 162" d="M2693.953,1779.2a2.477,2.477,0,1,0-2.477,2.477A2.477,2.477,0,0,0,2693.953,1779.2Zm-.6,0a1.876,1.876,0,1,1-1.876-1.876A1.876,1.876,0,0,1,2693.353,1779.2Z" transform="translate(-1497.919 -1338.225)" fill="#5c6672" stroke="#707070" stroke-width="0.5"/>
    <rect id="Rectangle_66" data-name="Rectangle 66" width="0.763" height="5.502" transform="matrix(-0.619, -0.785, 0.785, -0.619, 1187.151, 446.283)" fill="#5c6672" stroke="#707070" stroke-width="0.5"/>
  </g>
</svg>
