<svg xmlns="http://www.w3.org/2000/svg" xmlns:xlink="http://www.w3.org/1999/xlink" width="50" height="50" viewBox="0 0 50 50">
  <defs>
    <clipPath id="clip-path">
      <rect id="Rectangle_82" data-name="Rectangle 82" width="23.231" height="24.767" fill="#3fadf8"/>
    </clipPath>
  </defs>
  <g id="_1" data-name="1" transform="translate(-23 -283)">
    <g id="Ellipse_1" data-name="Ellipse 1" transform="translate(23 283)" fill="#fff" stroke="#dbdbdb" stroke-width="1" opacity="0.76">
      <circle cx="25" cy="25" r="25" stroke="none"/>
      <circle cx="25" cy="25" r="24.5" fill="none"/>
    </g>
    <g id="Group_48223" data-name="Group 48223" transform="translate(36 296)">
      <g id="Group_47821" data-name="Group 47821" clip-path="url(#clip-path)">
        <path id="Path_92764" data-name="Path 92764" d="M311.8,0a1.839,1.839,0,0,0,.477.111,4.314,4.314,0,0,1,3.27,3.432,4.359,4.359,0,0,1-3.656,5.12,3.007,3.007,0,0,1-.623.035q0-4.349,0-8.7Z" transform="translate(-292.403)" fill="#19ceab"/>
        <path id="Path_92765" data-name="Path 92765" d="M243.795,0q0,4.349,0,8.7a4.284,4.284,0,0,1-3.14-1.343c-.062-.062-.126-.122-.19-.182a7.688,7.688,0,0,1-.74-1.228,6.144,6.144,0,0,1-.28-1.434,4.374,4.374,0,0,1,3.532-4.43c.079-.015.181.011.237-.081Z" transform="translate(-224.934)" fill="#36e3c2"/>
        <path id="Path_92766" data-name="Path 92766" d="M82.264,98.106A7.693,7.693,0,0,0,83,99.334l-4.961,2.989c-.655.394-1.307.793-1.967,1.178-.159.093-.208.168-.139.356a4.065,4.065,0,0,1,.123,2.417.239.239,0,0,0,.15.332q3.182,1.619,6.36,3.248c.079.04.156.083.234.125a8.08,8.08,0,0,0-.633,1.295q-3.284-1.674-6.565-3.354c-.185-.095-.269-.079-.406.085a4.2,4.2,0,0,1-3.376,1.609v-8.69a4.2,4.2,0,0,1,3.126,1.322.224.224,0,0,0,.34.044q3.409-2.058,6.826-4.1c.048-.029.1-.053.148-.079" transform="translate(-67.473 -92.161)" fill="#108fe5"/>
        <path id="Path_92767" data-name="Path 92767" d="M311.269,265.13a4.142,4.142,0,0,1,3.659,2,4.34,4.34,0,0,1-2.845,6.623,2.511,2.511,0,0,1-.814.063v-8.69" transform="translate(-292.408 -249.065)" fill="#19ceab"/>
        <path id="Path_92768" data-name="Path 92768" d="M243.9,265.13v8.69a4.379,4.379,0,0,1-4.306-3.711,4.971,4.971,0,0,1,.143-1.932,8.083,8.083,0,0,1,.633-1.295c.252-.21.436-.484.689-.7a4.3,4.3,0,0,1,2.841-1.056" transform="translate(-225.039 -249.064)" fill="#36e3c2"/>
        <path id="Path_92769" data-name="Path 92769" d="M4.352,144.525v8.69a4.348,4.348,0,0,1-.1-8.695c.032,0,.064,0,.1.005" transform="translate(0 -135.763)" fill="#3fadf8"/>
      </g>
    </g>
  </g>
</svg>
