<svg xmlns="http://www.w3.org/2000/svg" width="30.533" height="30.501" viewBox="0 0 15.266 15.251"><path d="M12.543 9.804a2.71 2.71 0 0 0-2.131 1.049L5.36 8.326a2.438 2.438 0 0 0 0-1.402l5.052-2.526a2.708 2.708 0 1 0-.592-1.674c.003.237.038.472.103.7L4.87 5.952a2.723 2.723 0 1 0 0 3.35l5.052 2.525c-.065.228-.1.464-.103.701a2.723 2.723 0 1 0 2.723-2.723Zm0-8.714a1.634 1.634 0 1 1 0 3.268 1.634 1.634 0 0 1 0-3.268ZM2.74 9.26a1.634 1.634 0 1 1 0-3.268 1.634 1.634 0 0 1 0 3.267Zm9.804 4.901a1.634 1.634 0 1 1 0-3.268 1.634 1.634 0 0 1 0 3.268Z" fill="#515151" fill-rule="evenodd" data-name="Path 8"/></svg>