<svg xmlns="http://www.w3.org/2000/svg" width="14.034" height="18.008" viewBox="255.396 32.75 14.034 18.008"><g data-name="86.share"><g data-name="Rectangle 66"><path d="m260.547 40.54-.473-.6 4.32-3.407.473.599-4.32 3.407z" fill="#5c6672" fill-rule="evenodd"/><path d="m260.547 40.54-.473-.6h0l4.32-3.407h0l.473.599h0l-4.32 3.407h0z" stroke-linejoin="round" stroke-linecap="round" stroke-width=".5" stroke="#707070" fill="transparent"/></g><g data-name="Path 162"><path d="M269.43 35.227a2.477 2.477 0 1 0-4.953 0 2.477 2.477 0 0 0 4.953 0Zm-.6 0a1.876 1.876 0 1 1-3.752 0 1.876 1.876 0 0 1 3.752 0Z" fill="#5c6672" fill-rule="evenodd"/><path d="M269.43 35.227a2.477 2.477 0 1 0-4.953 0 2.477 2.477 0 0 0 4.953 0Zm-.6 0a1.876 1.876 0 1 1-3.752 0 1.876 1.876 0 0 1 3.752 0Z" stroke-linejoin="round" stroke-linecap="round" stroke-width=".5" stroke="#707070" fill="transparent"/></g><g data-name="Rectangle 65"><path d="m264.699 46.624-.473.6-4.32-3.408.473-.6 4.32 3.408z" fill="#5c6672" fill-rule="evenodd"/><path d="m264.699 46.624-.473.6h0l-4.32-3.408h0l.473-.6h0l4.32 3.408h0z" stroke-linejoin="round" stroke-linecap="round" stroke-width=".5" stroke="#5c6672" fill="transparent"/></g><g data-name="Path 161"><path d="M257.873 39.278a2.477 2.477 0 1 0 0 4.953 2.477 2.477 0 0 0 0-4.953Zm0 4.352a1.876 1.876 0 1 1 0-3.752 1.876 1.876 0 0 1 0 3.752Z" fill="#5c6672" fill-rule="evenodd"/><path d="M257.873 39.278a2.477 2.477 0 1 0 0 4.953 2.477 2.477 0 0 0 0-4.953Zm0 4.352a1.876 1.876 0 1 1 0-3.752 1.876 1.876 0 0 1 0 3.752Z" stroke-linejoin="round" stroke-linecap="round" stroke-width=".5" stroke="#707070" fill="transparent"/></g><g data-name="Path 160"><path d="M266.953 45.805a2.477 2.477 0 1 0 0 4.954 2.477 2.477 0 0 0 0-4.954Zm0 4.353a1.876 1.876 0 1 1 0-3.752 1.876 1.876 0 0 1 0 3.752Z" fill="#5c6672" fill-rule="evenodd"/><path d="M266.953 45.805a2.477 2.477 0 1 0 0 4.954 2.477 2.477 0 0 0 0-4.954Zm0 4.353a1.876 1.876 0 1 1 0-3.752 1.876 1.876 0 0 1 0 3.752Z" stroke-linejoin="round" stroke-linecap="round" stroke-width=".5" stroke="#707070" fill="transparent"/></g></g></svg>