<svg xmlns="http://www.w3.org/2000/svg" xmlns:xlink="http://www.w3.org/1999/xlink" width="60" height="60" viewBox="0 0 60 60">
  <defs>
    <clipPath id="clip-path">
      <path id="Path_92950" data-name="Path 92950" d="M222.14,525h39.095v17.951H222.14Z" transform="translate(-222.14 -525)" fill="#4fb4f8"/>
    </clipPath>
  </defs>
  <g id="SleepIssues" transform="translate(-30 -318.564)">
    <circle id="Ellipse_3126" data-name="Ellipse 3126" cx="30" cy="30" r="30" transform="translate(30 318.564)" fill="#f5f6fa"/>
    <g id="noun-insomnia-2751357" transform="translate(-180.833 8.973)">
      <g id="Group_48080" data-name="Group 48080" transform="translate(222.14 333.791)" clip-path="url(#clip-path)">
        <path id="Path_92949" data-name="Path 92949" d="M260.759,533.623h-2.878a.48.48,0,0,0-.48.48v2.238h-.535V534.22a.66.66,0,0,0-.66-.66h-4.617c.02-3.877-.635-6.465-1.953-7.7a2.812,2.812,0,0,0-.988-.618c0,.047,0,.094,0,.142a3.058,3.058,0,1,1-6.116,0c0-.048,0-.095,0-.142a2.815,2.815,0,0,0-.988.618c-1.319,1.239-1.973,3.827-1.953,7.7H227.345a.66.66,0,0,0-.66.66v2.121h-.7V525.788a.48.48,0,0,0-.48-.48h-2.878a.48.48,0,0,0-.48.48v16.87a.48.48,0,0,0,.48.48H225.5a.48.48,0,0,0,.48-.48v-.72h16.01v-1.982H227.345a.3.3,0,0,1-.3-.3V534.22a.3.3,0,0,1,.3-.3H239.6q.013.842.066,1.761a.959.959,0,0,0,.957.9l.057,0a.959.959,0,0,0,.9-1.014c-.034-.587-.054-1.136-.062-1.649h.829v.251a1.84,1.84,0,0,1,3.244.546,1.84,1.84,0,0,1,3.243-.546v-.25h.83c-.008.513-.028,1.062-.062,1.649a.959.959,0,0,0,.9,1.014l.057,0a.959.959,0,0,0,.957-.9q.054-.92.067-1.761h4.62a.3.3,0,0,1,.3.3v5.437a.3.3,0,0,1-.3.3H249.2v1.982h8.2v.72a.48.48,0,0,0,.48.48h2.878a.48.48,0,0,0,.48-.48V534.1a.48.48,0,0,0-.48-.48Zm-19.241-.063a13.273,13.273,0,0,1,.833-5.566v5.566Zm7.32-5.567a13.275,13.275,0,0,1,.833,5.567h-.833Z" transform="translate(-222.143 -525.226)" fill="#4fb4f8"/>
      </g>
      <path id="Path_92951" data-name="Path 92951" d="M615.722,698.448v-6.676a1.483,1.483,0,0,0-2.966,0v6.676a1.483,1.483,0,0,0,2.966,0Z" transform="translate(-370.408 -347.948)" fill="#4fb4f8"/>
      <path id="Path_92952" data-name="Path 92952" d="M683.792,691.773a1.483,1.483,0,0,0-2.966,0v6.676a1.483,1.483,0,0,0,2.966,0Z" transform="translate(-434.957 -347.948)" fill="#4fb4f8"/>
      <path id="Path_92953" data-name="Path 92953" d="M628.691,478.522a2.7,2.7,0,1,1-2.7-2.7,2.7,2.7,0,0,1,2.7,2.7" transform="translate(-380.401 -144.577)" fill="#4fb4f8"/>
      <path id="Path_92954" data-name="Path 92954" d="M451.878,323.36a3.778,3.778,0,1,0,3.778,3.778A3.778,3.778,0,0,0,451.878,323.36Zm0,7.076a3.3,3.3,0,1,1,3.3-3.3A3.3,3.3,0,0,1,451.878,330.435Z" transform="translate(-214.27)" fill="#4fb4f8"/>
      <path id="Path_92955" data-name="Path 92955" d="M517.572,383.851a.24.24,0,0,0-.117.206v3.066h.48V384.46l1.644.89.228-.422-2-1.082a.24.24,0,0,0-.237.005Z" transform="translate(-280.037 -57.33)" fill="#4fb4f8"/>
      <path id="Path_92956" data-name="Path 92956" d="M645.6,387c.116-.111,0-.37-.113-.258a1.862,1.862,0,0,0-.561,1.164c-.052.52.332.853.375,1.341a1.37,1.37,0,0,1-.3.907c-.106.131.053.342.158.211a1.767,1.767,0,0,0,.326-1.416c-.1-.517-.466-.766-.266-1.356A1.549,1.549,0,0,1,645.6,387Z" transform="translate(-400.905 -60.074)" fill="#4fb4f8"/>
      <path id="Path_92957" data-name="Path 92957" d="M670.933,387c.116-.111,0-.37-.113-.258a1.862,1.862,0,0,0-.562,1.164c-.051.52.332.853.375,1.341a1.37,1.37,0,0,1-.3.907c-.106.131.053.342.158.211a1.767,1.767,0,0,0,.326-1.416c-.1-.517-.466-.766-.266-1.356A1.552,1.552,0,0,1,670.933,387Z" transform="translate(-424.932 -60.074)" fill="#4fb4f8"/>
      <path id="Path_92958" data-name="Path 92958" d="M696.273,387c.116-.111,0-.37-.113-.258a1.863,1.863,0,0,0-.562,1.164c-.052.52.332.853.375,1.341a1.37,1.37,0,0,1-.3.907c-.106.131.053.342.158.211a1.769,1.769,0,0,0,.326-1.416c-.1-.517-.466-.766-.266-1.356A1.55,1.55,0,0,1,696.273,387Z" transform="translate(-448.96 -60.074)" fill="#4fb4f8"/>
    </g>
  </g>
</svg>
