<svg xmlns="http://www.w3.org/2000/svg" width="60" height="60" viewBox="0 0 60 60">
  <g id="SleepHours" transform="translate(-30 -593.129)">
    <circle id="Ellipse_3126" data-name="Ellipse 3126" cx="30" cy="30" r="30" transform="translate(30 593.129)" fill="#f5f6fa"/>
    <g id="noun-sleep-3330792" transform="translate(34.871 589.981)">
      <path id="Path_92921" data-name="Path 92921" d="M79.145,26.5a5.769,5.769,0,0,1,3.98,4.2,5.174,5.174,0,0,0,.605.115,5.333,5.333,0,0,0,4.619-1.7.336.336,0,0,0-.3-.557,5.424,5.424,0,0,1-1.892.064,5.345,5.345,0,0,1-4.238-7.165.336.336,0,0,0-.512-.381,5.348,5.348,0,0,0-2.313,4.931A2.371,2.371,0,0,0,79.145,26.5Z" transform="translate(-48.163)" fill="#4fb4f8"/>
      <path id="Path_92922" data-name="Path 92922" d="M79.988,91.605H81.1c-.145.148-.257.266-.4.43L79.9,93v.418h2.149v-.605H80.884a5.861,5.861,0,0,0,.415-.445l.754-.908V91H79.988Z" transform="translate(-48.742 -48.799)" fill="#4fb4f8"/>
      <path id="Path_92923" data-name="Path 92923" d="M88.488,86.133H89.6c-.145.148-.257.266-.4.43l-.8.969v.43h2.149v-.605H89.384a5.862,5.862,0,0,0,.409-.451L90.546,86V85.54H88.488Z" transform="translate(-54.669 -44.991)" fill="#4fb4f8"/>
      <path id="Path_92924" data-name="Path 92924" d="M35.426,37.859H34.82a5.448,5.448,0,0,0-7.6-5,6.962,6.962,0,0,0-12.81,5.028A4.843,4.843,0,0,0,10,42.7h0a4.843,4.843,0,0,0,4.843,4.843H34.03l.218-.26h-.732V46.074h2.667v.3l.639-.757h-.732V44.409h2.667v.869l-.79.953h.757A4.825,4.825,0,0,0,40.269,42.7h0A4.843,4.843,0,0,0,35.426,37.859Z" transform="translate(0 -5.84)" fill="#4fb4f8"/>
      <path id="Path_92925" data-name="Path 92925" d="M97.884,81.816a5.86,5.86,0,0,0,.415-.445l.754-.908V80H96.988v.605H98.1c-.145.148-.257.266-.4.43L96.9,82v.418h2.149v-.605Z" transform="translate(-60.597 -41.128)" fill="#4fb4f8"/>
    </g>
  </g>
</svg>
