<svg xmlns="http://www.w3.org/2000/svg" xmlns:xlink="http://www.w3.org/1999/xlink" width="333.298" height="310" viewBox="0 0 333.298 310">
  <defs>
    <clipPath id="clip-path">
      <rect id="Rectangle_8432" data-name="Rectangle 8432" width="333.298" height="310" fill="none"/>
    </clipPath>
    <clipPath id="clip-path-6">
      <rect id="Rectangle_8421" data-name="Rectangle 8421" width="40.934" height="17.252" fill="none"/>
    </clipPath>
    <clipPath id="clip-path-7">
      <rect id="Rectangle_8422" data-name="Rectangle 8422" width="7.823" height="49.684" fill="none"/>
    </clipPath>
    <clipPath id="clip-path-8">
      <rect id="Rectangle_8423" data-name="Rectangle 8423" width="8.129" height="16.689" fill="none"/>
    </clipPath>
    <clipPath id="clip-path-10">
      <rect id="Rectangle_8425" data-name="Rectangle 8425" width="24.054" height="55.02" fill="none"/>
    </clipPath>
    <clipPath id="clip-path-11">
      <rect id="Rectangle_8426" data-name="Rectangle 8426" width="9.478" height="8.523" fill="none"/>
    </clipPath>
    <clipPath id="clip-path-12">
      <rect id="Rectangle_8427" data-name="Rectangle 8427" width="6.12" height="15.757" fill="none"/>
    </clipPath>
    <clipPath id="clip-path-13">
      <rect id="Rectangle_8428" data-name="Rectangle 8428" width="5.288" height="28.179" fill="none"/>
    </clipPath>
    <clipPath id="clip-path-14">
      <rect id="Rectangle_8429" data-name="Rectangle 8429" width="11.231" height="49.994" fill="none"/>
    </clipPath>
    <clipPath id="clip-path-15">
      <rect id="Rectangle_8430" data-name="Rectangle 8430" width="8.798" height="0.506" fill="none"/>
    </clipPath>
  </defs>
  <g id="Meet_your_personalized" data-name="Meet your personalized" transform="translate(0 40)">
    <g id="Group_46855" data-name="Group 46855" transform="translate(0 -40)" clip-path="url(#clip-path)">
      <g id="Group_46819" data-name="Group 46819">
        <g id="Group_46818" data-name="Group 46818" clip-path="url(#clip-path)">
          <path id="Path_93197" data-name="Path 93197" d="M62.08,272.008l-36.345,7.78a4.709,4.709,0,0,1-5.589-3.618l-7.78-36.344a4.708,4.708,0,0,1,3.618-5.59l36.345-7.78a4.708,4.708,0,0,1,5.589,3.618L65.7,266.42a4.707,4.707,0,0,1-3.618,5.588" transform="translate(-3.2 -59.079)" fill="#ebebeb"/>
          <path id="Path_93198" data-name="Path 93198" d="M58.98,262.807a2.987,2.987,0,0,0-.276-.984c-.04-.1-.079-.192-.126-.317a8.308,8.308,0,0,0-3.551-3.345,17.985,17.985,0,0,0-4.257-1.639l-.18-.046a.277.277,0,0,0-.308.129L47.4,261.551,36.79,254.746l2.89-5.336a.276.276,0,0,0-.123-.382l-2.436-1.168c-.4-.185-.647-.3-.812-.355a2.264,2.264,0,0,0-.234-.126c-.041-.018-.087-.042-.14-.069a4.1,4.1,0,0,0-.546-.239,7.517,7.517,0,0,0-2.9-.44,7.425,7.425,0,0,0-4.326,1.644,6.879,6.879,0,0,0-2.6,5.508,4.814,4.814,0,0,0,1.57,3.352,9.447,9.447,0,0,0,1.539,1.134L44.8,268.6c.2.124.4.252.6.381.463.3.942.609,1.471.882a9.311,9.311,0,0,0,2.415.844,8.624,8.624,0,0,0,1.754.18,8.364,8.364,0,0,0,3.409-.716,7.786,7.786,0,0,0,3.773-3.58,5.944,5.944,0,0,0,.5-1.2l.068-.213a3.472,3.472,0,0,0,.223-1.071l.051-.694ZM38.77,249.476l-3.033,5.338a.278.278,0,0,0,.088.369L47.5,262.841a.272.272,0,0,0,.214.038.278.278,0,0,0,.176-.129l3.01-5.092a16.758,16.758,0,0,1,3.6,1.451,7.364,7.364,0,0,1,3.077,2.847c.036.1.078.2.119.307a2.063,2.063,0,0,1,.194.694l.078.484-.051.588a2.548,2.548,0,0,1-.172.8l-.074.233a4.832,4.832,0,0,1-.429,1.017A6.743,6.743,0,0,1,54,269.16a7.438,7.438,0,0,1-4.494.466,8.243,8.243,0,0,1-2.133-.743c-.463-.236-.928-.536-1.379-.825-.2-.131-.406-.262-.606-.385L29.207,257.43a8.692,8.692,0,0,1-1.409-1.01,3.852,3.852,0,0,1-1.3-2.672,6.077,6.077,0,0,1,2.207-4.8,6.715,6.715,0,0,1,3.818-1.545q.255-.013.491-.013a6.847,6.847,0,0,1,2.825.561,1.653,1.653,0,0,0,.248.089c.146.1.379.224.735.415Z" transform="translate(-6.67 -64.371)" fill="#fff"/>
          <path id="Path_93199" data-name="Path 93199" d="M50,250.871a20.382,20.382,0,0,0,3.248-.519c.617,3.115.851,3.449,1.077,3.449a.452.452,0,0,0,.088-.012h0c.259-.051.464-.1-.2-3.642,3.611-.781,3.582-.989,3.532-1.248h0a.311.311,0,0,0-.127-.189c-.208-.139-1.424.023-3.593.471-.419-2.1-.738-3.252-.944-3.391a.318.318,0,0,0-.219-.046.31.31,0,0,0-.189.124c-.14.207-.007,1.4.389,3.517-3.317.724-3.453.961-3.5,1.051a.307.307,0,0,0-.017.243c.037.1.073.193.458.193" transform="translate(-12.925 -64.14)" fill="#fff"/>
          <rect id="Rectangle_8404" data-name="Rectangle 8404" width="80.703" height="133.587" transform="translate(243.772 12.726)" fill="#e0e0e0"/>
          <rect id="Rectangle_8405" data-name="Rectangle 8405" width="80.703" height="133.587" transform="translate(241.087 12.726)" fill="#ebebeb"/>
          <rect id="Rectangle_8406" data-name="Rectangle 8406" width="73.83" height="128.169" transform="translate(244.525 15.436)" fill="#fafafa"/>
          <rect id="Rectangle_8407" data-name="Rectangle 8407" width="45.399" height="94.859" transform="translate(258.58 32.091)" fill="#ebebeb"/>
          <path id="Path_93200" data-name="Path 93200" d="M349.909,114c-.1-8.861,7.862-17.512,16.638-18.749,4.184-.59,8.629.241,12.539-1.363,6.979-2.861,9.2-12.134,16.222-14.883l.321,68.563h-45.72Z" transform="translate(-91.328 -20.622)" fill="#e0e0e0"/>
          <rect id="Rectangle_8408" data-name="Rectangle 8408" width="62.077" height="64.71" transform="translate(158.638 12.473)" fill="#e0e0e0"/>
          <rect id="Rectangle_8409" data-name="Rectangle 8409" width="62.077" height="64.71" transform="translate(154.434 12.473)" fill="#fafafa"/>
          <path id="Path_93201" data-name="Path 93201" d="M271.068,81.6H208.953V16.853h62.115Zm-62.077-.038H271.03V16.891H208.991Z" transform="translate(-54.538 -4.399)" fill="#e0e0e0"/>
          <rect id="Rectangle_8410" data-name="Rectangle 8410" width="45.387" height="47.312" transform="translate(162.779 21.172)" fill="#fafafa"/>
          <path id="Path_93202" data-name="Path 93202" d="M217.345,93.1a7.448,7.448,0,0,1-1.12,1.3c-.724.765-1.743,1.8-2.885,2.925s-2.191,2.127-2.965,2.838a7.264,7.264,0,0,1-1.312,1.092,7.214,7.214,0,0,1,1.114-1.3c.725-.765,1.746-1.8,2.892-2.93s2.2-2.133,2.971-2.844a7.134,7.134,0,0,1,1.306-1.087" transform="translate(-54.566 -24.298)" fill="#e0e0e0"/>
          <path id="Path_93203" data-name="Path 93203" d="M281.688,92.94a7.456,7.456,0,0,1,1.3,1.12c.765.725,1.8,1.744,2.925,2.886s2.127,2.191,2.838,2.965a7.2,7.2,0,0,1,1.092,1.312,7.279,7.279,0,0,1-1.3-1.114c-.764-.725-1.8-1.746-2.93-2.892s-2.132-2.2-2.844-2.971a7.133,7.133,0,0,1-1.087-1.306" transform="translate(-73.522 -24.258)" fill="#e0e0e0"/>
          <path id="Path_93204" data-name="Path 93204" d="M281.52,25.939a7.418,7.418,0,0,1,1.12-1.3c.725-.765,1.743-1.8,2.885-2.925s2.191-2.127,2.965-2.838a7.269,7.269,0,0,1,1.312-1.092,7.228,7.228,0,0,1-1.114,1.3c-.725.766-1.746,1.8-2.892,2.931s-2.2,2.132-2.971,2.844a7.1,7.1,0,0,1-1.306,1.087" transform="translate(-73.478 -4.64)" fill="#e0e0e0"/>
          <path id="Path_93205" data-name="Path 93205" d="M217.221,26.052a7.448,7.448,0,0,1-1.3-1.12c-.765-.724-1.8-1.743-2.925-2.885s-2.127-2.191-2.838-2.965a7.255,7.255,0,0,1-1.093-1.312,7.21,7.21,0,0,1,1.3,1.114c.765.725,1.8,1.746,2.93,2.892s2.133,2.2,2.844,2.971a7.065,7.065,0,0,1,1.087,1.306" transform="translate(-54.566 -4.637)" fill="#e0e0e0"/>
          <path id="Path_93206" data-name="Path 93206" d="M265.463,75.891a2.256,2.256,0,0,1-.01-.23c0-.161-.006-.378-.01-.66q-.007-.89-.02-2.555c-.011-2.241-.027-5.5-.046-9.642-.022-8.286-.052-20.091-.089-34.225l.175.174-45.258.026H220.2l.2-.2c-.01,17.365-.02,33.611-.028,47.312l-.173-.172,32.774.088,9.206.045,2.436.02.629.01c.143,0,.217.007.219.01a1.315,1.315,0,0,1-.2.01l-.61.01-2.4.019-9.166.045-32.884.089h-.172v-.173c-.008-13.7-.018-29.947-.029-47.312v-.2h.206l45.258.026h.176v.175c-.037,14.181-.067,26.024-.089,34.337-.02,4.124-.035,7.371-.046,9.6-.009,1.093-.016,1.935-.021,2.52,0,.273-.007.485-.01.641a1.477,1.477,0,0,1-.01.21" transform="translate(-57.421 -7.407)" fill="#e0e0e0"/>
          <rect id="Rectangle_8411" data-name="Rectangle 8411" width="15.145" height="15.145" transform="translate(177.9 37.256)" fill="#ebebeb"/>
          <path id="Path_93207" data-name="Path 93207" d="M430.987,385.6l-2.4,24.6h-12.7l-2.5-24.6Z" transform="translate(-107.896 -100.644)" fill="#e0e0e0"/>
          <rect id="Rectangle_8412" data-name="Rectangle 8412" width="21.003" height="1.8" transform="translate(303.988 283.155)" fill="#ebebeb"/>
          <path id="Path_93208" data-name="Path 93208" d="M429.2,378.967l2.1,3.5H414.6l.8-3.5Z" transform="translate(-108.214 -98.913)" fill="#ebebeb"/>
          <path id="Path_93209" data-name="Path 93209" d="M430.476,396.808l-.857,8.78h-14.2l-.892-8.78Z" transform="translate(-108.194 -103.57)" fill="#f5f5f5"/>
          <path id="Path_93210" data-name="Path 93210" d="M422.848,404.09a4.028,4.028,0,0,1,.658-2.172c.355-.551.784-1.027,1.129-1.5a4.548,4.548,0,0,0,.734-1.386,2.57,2.57,0,0,0,.112-.609c.032.017.066.031.1.051a2.225,2.225,0,0,1,.928,1.451,4.188,4.188,0,0,1-.08,1.754,3.785,3.785,0,0,1-.924,1.864,2.548,2.548,0,0,1-2.217.687,2.043,2.043,0,0,1-.438-.138" transform="translate(-110.366 -103.991)" fill="#fafafa"/>
          <path id="Path_93211" data-name="Path 93211" d="M421.383,402.089a7.354,7.354,0,0,1,.449-2.3,2.542,2.542,0,0,1,1.68-1.557,1.965,1.965,0,0,1,1.221.058,2.673,2.673,0,0,1-.149.618,4.754,4.754,0,0,1-.751,1.3c-.347.457-.783.927-1.156,1.5a4.073,4.073,0,0,0-.646,1.816c-.014.132-.018.261-.02.388a1.33,1.33,0,0,1-.482-.487,2.344,2.344,0,0,1-.148-1.338" transform="translate(-109.977 -103.923)" fill="#fafafa"/>
          <path id="Path_93212" data-name="Path 93212" d="M257.649,338.561c11.463-11.478,11.409-28.984,8.173-44.153-.54-2.532-.739-5.268-2.349-7.287s-4.71-3.042-6.8-1.563c-1.734,1.228-2.166,3.575-2.9,5.584a15.14,15.14,0,0,1-4.958,6.77c-1.473,1.131-3.388,2-5.146,1.4-2.414-.821-3.213-3.81-3.648-6.347q-1.217-7.091-2.435-14.181a24,24,0,0,0-2.1-7.389c-1.216-2.264-3.356-4.188-5.886-4.434s-5.263,1.675-5.33,4.245a23.818,23.818,0,0,0,.49,3.167,2.706,2.706,0,0,1-1.113,2.786c-.958.477-2.1-.061-2.989-.667-3.07-2.092-5.432-5.071-7.674-8.053s-4.449-6.05-7.319-8.418-6.545-3.994-10.211-3.553-7.132,3.369-7.414,7.094,2.446,6.989,5.228,9.475a57.456,57.456,0,0,0,13.774,9.127,4.726,4.726,0,0,1,2.347,1.767c.851,1.591-.45,3.554-2.019,4.407-1.777.965-3.861,1.134-5.794,1.718s-3.92,1.837-4.334,3.838c-.576,2.774,2.073,5.1,4.52,6.5a49.221,49.221,0,0,0,15.812,5.723,16.591,16.591,0,0,1,5.789,1.641c1.737,1.042,3.049,3.158,2.459,5.1s-2.819,2.935-4.836,2.92-3.952-.763-5.938-1.133c-3.716-.694-8.17.347-9.863,3.753a8.143,8.143,0,0,0,.409,7.242,18.767,18.767,0,0,0,4.956,5.577,49.475,49.475,0,0,0,23.4,10.913c8.575,1.362,16.194.787,23.7-3.578" transform="translate(-49.073 -66.923)" fill="#f5f5f5"/>
          <path id="Path_93213" data-name="Path 93213" d="M253.087,330.769a230.5,230.5,0,0,0-13.366-22.836l-3.811-5.806c-1.255-1.9-2.5-3.79-3.83-5.56a115.081,115.081,0,0,0-8.234-9.735c-2.768-2.97-5.5-5.687-8.079-8.209s-5.035-4.819-7.36-6.821a91.357,91.357,0,0,0-11.657-8.622c-1.451-.907-2.6-1.573-3.385-2.015l-.895-.5a2.1,2.1,0,0,0-.313-.154,1.8,1.8,0,0,0,.289.2l.871.536c.769.469,1.9,1.159,3.335,2.089a96.662,96.662,0,0,1,11.536,8.721c2.3,2.012,4.737,4.322,7.3,6.849s5.285,5.256,8.038,8.226a116.932,116.932,0,0,1,8.18,9.715c1.321,1.762,2.552,3.634,3.81,5.542l3.807,5.8A236.476,236.476,0,0,1,252.7,330.966" transform="translate(-50.155 -67.996)" fill="#e0e0e0"/>
          <path id="Path_93214" data-name="Path 93214" d="M245.463,299.23a5.164,5.164,0,0,0,.055-1.125c.009-.724-.014-1.771-.061-3.065-.091-2.586-.338-6.154-.627-10.086s-.485-7.495-.537-10.076c-.029-1.29-.042-2.335-.042-3.057a5.132,5.132,0,0,0-.055-1.125,5.147,5.147,0,0,0-.129,1.118c-.057.722-.095,1.77-.107,3.064-.035,2.591.109,6.17.4,10.107.293,3.88.56,7.389.764,10.07.084,1.213.154,2.234.211,3.053a5.152,5.152,0,0,0,.129,1.12" transform="translate(-63.674 -70.654)" fill="#e0e0e0"/>
          <path id="Path_93215" data-name="Path 93215" d="M200.449,308.515a7.126,7.126,0,0,0,1.327-.076c.849-.074,2.077-.188,3.6-.281,3.041-.21,7.251-.352,11.9-.305s8.863.283,11.9.536c1.522.116,2.75.243,3.6.326a7.166,7.166,0,0,0,1.327.086,7.029,7.029,0,0,0-1.3-.271c-.845-.139-2.071-.318-3.593-.477-3.04-.341-7.261-.624-11.93-.679a116.748,116.748,0,0,0-11.934.447c-1.522.136-2.749.3-3.594.435a7.039,7.039,0,0,0-1.3.26" transform="translate(-52.319 -80.225)" fill="#e0e0e0"/>
          <path id="Path_93216" data-name="Path 93216" d="M273.918,339.143a1.688,1.688,0,0,0,.153-.437c.094-.346.208-.767.347-1.278.3-1.111.684-2.73,1.136-4.735.907-4.011,1.985-9.592,3.092-15.766s2.133-11.76,2.955-15.784c.4-1.958.739-3.567.987-4.764.1-.52.191-.947.262-1.3a1.7,1.7,0,0,0,.06-.46,1.711,1.711,0,0,0-.153.438c-.093.346-.208.766-.347,1.277-.3,1.111-.684,2.729-1.136,4.735-.907,4.011-1.985,9.592-3.092,15.769s-2.133,11.757-2.954,15.783c-.406,1.957-.74,3.567-.987,4.764-.1.519-.191.947-.262,1.3a1.708,1.708,0,0,0-.06.46" transform="translate(-71.493 -76.898)" fill="#e0e0e0"/>
          <path id="Path_93217" data-name="Path 93217" d="M211.984,346.42a1.8,1.8,0,0,0,.461.1l1.332.2c1.228.17,2.886.4,4.9.676,4.14.573,9.848,1.428,16.154,2.383s12.031,1.759,16.184,2.246c2.076.244,3.758.424,4.922.525l1.342.109a.237.237,0,1,0,.01-.1l-1.332-.2-4.9-.677c-4.14-.572-9.849-1.428-16.157-2.383s-12.028-1.759-16.181-2.245c-2.076-.245-3.758-.425-4.923-.525-.538-.043-.981-.08-1.342-.108a1.737,1.737,0,0,0-.471-.005" transform="translate(-55.329 -90.415)" fill="#e0e0e0"/>
          <rect id="Rectangle_8413" data-name="Rectangle 8413" width="54.587" height="52.365" transform="translate(16.795 54.611) rotate(-89.869)" fill="#e0e0e0"/>
          <rect id="Rectangle_8414" data-name="Rectangle 8414" width="54.586" height="52.365" transform="translate(13.249 54.602) rotate(-89.868)" fill="#455a64"/>
          <rect id="Rectangle_8415" data-name="Rectangle 8415" width="54.618" height="52.397" transform="translate(13.233 54.618) rotate(-89.868)" fill="#f5f5f5"/>
          <rect id="Rectangle_8416" data-name="Rectangle 8416" width="39.91" height="38.287" transform="translate(20.305 47.28) rotate(-89.868)" fill="#fff"/>
          <path id="Path_93218" data-name="Path 93218" d="M25,64.337a6.222,6.222,0,0,1-.947,1.1c-.613.644-1.474,1.515-2.439,2.462s-1.853,1.79-2.507,2.388A6.045,6.045,0,0,1,18,71.2a6.086,6.086,0,0,1,.942-1.091c.613-.644,1.477-1.517,2.445-2.467s1.857-1.794,2.512-2.392a6.006,6.006,0,0,1,1.1-.915" transform="translate(-4.698 -16.792)" fill="#e0e0e0"/>
          <path id="Path_93219" data-name="Path 93219" d="M79.284,64.324a6.205,6.205,0,0,1,1.1.947c.644.613,1.516,1.474,2.462,2.439s1.79,1.853,2.388,2.507a6.082,6.082,0,0,1,.919,1.109,6.059,6.059,0,0,1-1.091-.942c-.644-.613-1.517-1.477-2.467-2.445S80.8,66.082,80.2,65.428a5.965,5.965,0,0,1-.915-1.1" transform="translate(-20.693 -16.789)" fill="#e0e0e0"/>
          <path id="Path_93220" data-name="Path 93220" d="M79.266,7.81a6.236,6.236,0,0,1,.947-1.1c.613-.644,1.474-1.516,2.439-2.462s1.853-1.79,2.507-2.388A6.086,6.086,0,0,1,86.268.945a6.055,6.055,0,0,1-.942,1.091c-.613.644-1.477,1.517-2.445,2.467S81.024,6.3,80.37,6.9a5.967,5.967,0,0,1-1.1.915" transform="translate(-20.689 -0.246)" fill="#e0e0e0"/>
          <path id="Path_93221" data-name="Path 93221" d="M25.032,7.775a6.254,6.254,0,0,1-1.1-.947c-.644-.613-1.515-1.474-2.461-2.439s-1.791-1.853-2.388-2.507A6.084,6.084,0,0,1,18.167.773a6.1,6.1,0,0,1,1.091.942c.644.613,1.517,1.477,2.467,2.445s1.794,1.857,2.392,2.512a5.928,5.928,0,0,1,.915,1.1" transform="translate(-4.741 -0.201)" fill="#e0e0e0"/>
          <path id="Path_93222" data-name="Path 93222" d="M65.607,49.911a1.9,1.9,0,0,1-.008-.194c0-.136,0-.319-.007-.556q0-.752-.013-2.155c0-1.89-.011-4.641-.02-8.134,0-6.99-.005-16.947-.009-28.871l.147.148L27.52,10.082h0l.17-.168c-.042,14.648-.082,28.352-.115,39.91l-.146-.146,27.646.138,7.765.055,2.054.022.531.009a1.589,1.589,0,0,1,.185.009,1.337,1.337,0,0,1-.168.007l-.515.007-2.027.012-7.733.021-27.739.01h-.146v-.146c.019-11.558.043-25.262.067-39.91v-.17h.173L65.7,9.853h.149V10c-.058,11.962-.107,21.953-.142,28.966-.024,3.478-.044,6.217-.057,8.1-.01.922-.017,1.632-.022,2.126,0,.231-.007.409-.01.541a1.245,1.245,0,0,1-.009.177" transform="translate(-7.12 -2.543)" fill="#e0e0e0"/>
          <path id="Path_93223" data-name="Path 93223" d="M43.055,43.093A8.47,8.47,0,0,1,42.7,31.952c1.067-1.219,2.484-2.108,3.473-3.39,2.14-2.779,2.121-7.162,5.1-9.02a5.427,5.427,0,0,1,6.857,1.443,7.264,7.264,0,0,1,.67,7.278c-.762,1.728-2.083,3.2-2.628,5-.558,1.849-.247,3.878-.825,5.721-.7,2.226-3.059,3.628-5.248,4.434a9.817,9.817,0,0,1-7.042-.328" transform="translate(-10.645 -4.924)" fill="#f5f5f5"/>
          <path id="Path_93224" data-name="Path 93224" d="M53.209,26.8a6.864,6.864,0,0,1-.373,1.054c-.257.672-.663,1.631-1.193,2.8a78.423,78.423,0,0,1-4.752,8.855,78.385,78.385,0,0,1-5.853,8.172c-.817.993-1.5,1.78-1.989,2.307a6.839,6.839,0,0,1-.781.8,6.993,6.993,0,0,1,.68-.886c.457-.554,1.109-1.363,1.9-2.372a95.032,95.032,0,0,0,5.75-8.2,94.689,94.689,0,0,0,4.824-8.776c.558-1.155,1-2.1,1.292-2.751a6.852,6.852,0,0,1,.5-1" transform="translate(-9.988 -6.996)" fill="#e0e0e0"/>
          <path id="Path_93225" data-name="Path 93225" d="M47.741,36.138a12.915,12.915,0,0,1,.3,2.019c.147,1.26.331,3.017.52,5l-.256-.132.826-.481c1.916-1.112,3.661-2.1,4.932-2.8a15.982,15.982,0,0,1,2.093-1.074,15.872,15.872,0,0,1-1.971,1.285c-1.24.755-2.965,1.779-4.881,2.891l-.828.479-.232.134-.024-.267c-.18-1.984-.322-3.744-.409-5.01a12.9,12.9,0,0,1-.075-2.04" transform="translate(-12.456 -9.432)" fill="#e0e0e0"/>
          <path id="Path_93226" data-name="Path 93226" d="M59.349,31.366a6.284,6.284,0,0,1-1.292.721c-.817.4-1.954.942-3.219,1.517l-.395.178-.206.093-.034-.222c-.2-1.275-.355-2.414-.454-3.237a5.477,5.477,0,0,1-.092-1.334,5.384,5.384,0,0,1,.322,1.3c.16.813.358,1.945.562,3.22l-.24-.129.394-.18c1.265-.574,2.419-1.077,3.261-1.425a6.358,6.358,0,0,1,1.392-.5" transform="translate(-14 -7.591)" fill="#e0e0e0"/>
        </g>
      </g>
      <g id="Group_46821" data-name="Group 46821">
        <g id="Group_46820" data-name="Group 46820" clip-path="url(#clip-path)">
          <path id="Path_93227" data-name="Path 93227" d="M333.3,418.824c0,.107-74.618.192-166.641.192C74.6,419.016,0,418.931,0,418.824s74.6-.192,166.657-.192c92.024,0,166.641.086,166.641.192" transform="translate(0 -109.266)" fill="#263238"/>
        </g>
      </g>
      <g id="Group_46823" data-name="Group 46823">
        <g id="Group_46822" data-name="Group 46822" clip-path="url(#clip-path)">
          <path id="Path_93228" data-name="Path 93228" d="M121.161,329.795A18.445,18.445,0,0,1,132.6,328.4c2.076.343,4.24.964,5.653,2.524s1.68,4.3.058,5.644a5.413,5.413,0,0,1-3.564.9c-3.025-.035-6.382-.568-8.8,1.253-1.379,1.038-2.3,2.765-3.945,3.275a3.9,3.9,0,0,1-4.288-1.908,6.66,6.66,0,0,1-.486-4.916,7.5,7.5,0,0,1,3.926-5.385" transform="translate(-30.534 -85.632)" fill="#19ceab"/>
          <path id="Path_93229" data-name="Path 93229" d="M111.133,298.417c2.128,3.039,6.265,2.034,8.184.178s2.728-4.545,3.467-7.11c1.686-5.859,3.386-12.006,2.132-17.974a9.988,9.988,0,0,0-2.3-4.886,5.216,5.216,0,0,0-4.944-1.645c-2.085.551-3.382,2.594-4.319,4.537a42.852,42.852,0,0,0-4.234,18.387c-.01,2.961.339,6.067,2.01,8.513" transform="translate(-28.482 -69.649)" fill="#19ceab"/>
          <path id="Path_93230" data-name="Path 93230" d="M95.276,306.233A11.061,11.061,0,0,0,97,296.054a19.618,19.618,0,0,0-6.029-8.746,32.466,32.466,0,0,0-10.8-6.37,11.527,11.527,0,0,0-4.855-.825,5.1,5.1,0,0,0-4.075,2.465c-1.137,2.167-.047,4.8,1.131,6.94a82.272,82.272,0,0,0,7.091,10.8c2.125,2.74,4.56,5.443,7.8,6.681s6.6,1.093,8.321-1.154" transform="translate(-18.47 -73.103)" fill="#19ceab"/>
          <path id="Path_93231" data-name="Path 93231" d="M111.634,361.748a6.654,6.654,0,0,0,.193-1.381c.1-1.006.22-2.268.367-3.77a54.386,54.386,0,0,1,.848-5.53,42.609,42.609,0,0,1,2.009-6.526,24.062,24.062,0,0,1,3.333-5.905,12.445,12.445,0,0,1,4.213-3.5,11.8,11.8,0,0,1,3.548-1.1,6.7,6.7,0,0,0,1.376-.2,6.441,6.441,0,0,0-1.4-.022,10.758,10.758,0,0,0-3.7.963,12.432,12.432,0,0,0-4.444,3.533,23.506,23.506,0,0,0-3.454,6.024,39.861,39.861,0,0,0-2,6.633,46.655,46.655,0,0,0-.735,5.6c-.12,1.6-.166,2.9-.187,3.793a6.462,6.462,0,0,0,.029,1.394" transform="translate(-29.127 -87.122)" fill="#263238"/>
          <path id="Path_93232" data-name="Path 93232" d="M111.895,345.687a2.712,2.712,0,0,0,.037-.641c0-.481,0-1.088,0-1.833,0-1.59,0-3.892.081-6.735.141-5.685.63-11.8,1.576-20.429.9-8.111,2.1-17.55,3.365-23.688.272-1.4.545-2.652.8-3.751s.456-2.053.658-2.822c.174-.724.316-1.313.429-1.782a2.79,2.79,0,0,0,.112-.632,2.656,2.656,0,0,0-.223.6l-.532,1.756c-.236.762-.478,1.706-.754,2.8s-.59,2.349-.888,3.742a208.233,208.233,0,0,0-3.538,21.98c-.947,8.644-1.374,16.514-1.411,22.213-.034,2.85.027,5.157.1,6.749.046.744.083,1.35.112,1.832a2.688,2.688,0,0,0,.078.636" transform="translate(-29.127 -73.963)" fill="#263238"/>
          <path id="Path_93233" data-name="Path 93233" d="M104.879,332.147a12.289,12.289,0,0,0-.013-1.915c-.07-1.23-.239-3.009-.587-5.188a68.462,68.462,0,0,0-1.686-7.558,61.984,61.984,0,0,0-3.161-8.943,47.638,47.638,0,0,0-9.282-14.452,23.608,23.608,0,0,0-2.183-2.03c-.336-.283-.632-.565-.933-.789l-.847-.584a12.222,12.222,0,0,0-1.612-1.032,57.306,57.306,0,0,1,5.284,4.714,50.208,50.208,0,0,1,9.05,14.4,70.778,70.778,0,0,1,3.178,8.861c.828,2.777,1.379,5.332,1.8,7.483.4,2.156.624,3.917.763,5.136a12.27,12.27,0,0,0,.234,1.9" transform="translate(-22.074 -75.602)" fill="#263238"/>
          <path id="Path_93234" data-name="Path 93234" d="M92.2,383.39l1.521,20.839h26.771l1.521-20.839Z" transform="translate(-24.064 -100.068)" fill="#515151"/>
          <rect id="Rectangle_8419" data-name="Rectangle 8419" width="35.594" height="8.214" transform="translate(65.547 275.108)" fill="#515151"/>
          <path id="Path_93235" data-name="Path 93235" d="M88.7,410.51v2.277H123.7V410.51Z" transform="translate(-23.151 -107.146)" fill="#515151"/>
          <path id="Path_93236" data-name="Path 93236" d="M92.6,417.6l-1.64-4.008h32.058l-1.913,4.008Z" transform="translate(-23.741 -107.95)" fill="#515151"/>
          <path id="Path_93237" data-name="Path 93237" d="M121.672,391.572a.862.862,0,0,1-.125.191l-.4.531-1.559,2-.069.089-.067-.093-3.832-5.3h.221l-3.773,5.341-.118.168-.132-.158-4.474-5.323.258,0-.246.31-4,5.015-.134.167-.123-.174-3.774-5.34.219.01L94.9,394.3l-.083.094-.063-.106L93.3,391.838c-.152-.265-.276-.48-.373-.651a1.038,1.038,0,0,1-.115-.232,1.027,1.027,0,0,1,.156.206l.413.627,1.528,2.4-.146-.012,4.574-5.361.115-.135.1.146,3.808,5.316-.256-.007,3.991-5.022.246-.309.127-.16.132.156,4.461,5.333-.25.01,3.809-5.314.112-.156.109.156,3.75,5.357-.137,0,1.623-1.945c.176-.2.319-.37.435-.5.1-.112.154-.168.16-.163" transform="translate(-24.223 -101.439)" fill="#e0e0e0"/>
          <path id="Path_93238" data-name="Path 93238" d="M122.461,383.145c0,.092-6.708.167-14.981.167s-14.982-.075-14.982-.167,6.706-.166,14.982-.166,14.981.075,14.981.166" transform="translate(-24.143 -99.96)" fill="#455a64"/>
          <path id="Path_93239" data-name="Path 93239" d="M123.373,413.836c0,.092-7.29.167-16.281.167s-16.282-.075-16.282-.167,7.289-.166,16.282-.166,16.281.075,16.281.166" transform="translate(-23.702 -107.971)" fill="#263238"/>
        </g>
      </g>
      <g id="Group_46834" data-name="Group 46834">
        <g id="Group_46833" data-name="Group 46833" clip-path="url(#clip-path)">
          <path id="Path_93240" data-name="Path 93240" d="M394.58,194.368c-.58-2.505,2.377-11.161.469-11.354-2.432-.245-2.844,9.6-2.931,10.481-.083.857-1.362.754-1.241-.038.173-1.137,1.794-12.275-.661-12.3-1.361-.014-1.418,2.462-1.418,2.462s-.916,10.975-2.076,10.924c-1.177-.052-.33-6.3-.212-8.621.114-2.227-1-3.507-1.827-2.543-1.209,1.411-1.2,7.066-1.35,9.3s-.749,8.631-3.048,5.428-5.247-4.823-6.332-4.711-1.29,1.675-.235,2.29a14.687,14.687,0,0,1,2.875,2.743,14.019,14.019,0,0,1,1.656,2.722,12.281,12.281,0,0,1,1.206,3.88,7.635,7.635,0,0,0,3.384,5.27l-.129,17.584-.546,8.7,13.689,4.75-1.8-31.024c.672-5.961,3.3-13.5,4.255-17,1.528-5.573.813-5.815.131-5.845-1.506-.066-3.294,9.356-3.86,6.91" transform="translate(-97.362 -47.283)" fill="#ffa192"/>
          <path id="Path_93241" data-name="Path 93241" d="M396.4,209.249a12.815,12.815,0,0,0-1.68.281,6.37,6.37,0,0,0-4.011,3.368l-.09.18-.133-.137a9.609,9.609,0,0,0-2.595-1.9c-.723-.361-1.191-.506-1.179-.545a3.844,3.844,0,0,1,1.255.379,8.632,8.632,0,0,1,2.716,1.862l-.223.043a6.478,6.478,0,0,1,.69-1.142,6.555,6.555,0,0,1,1.76-1.581,6.253,6.253,0,0,1,1.765-.727,5.274,5.274,0,0,1,1.264-.143,1.4,1.4,0,0,1,.46.059" transform="translate(-100.935 -54.6)" fill="#7c3b29"/>
          <path id="Path_93242" data-name="Path 93242" d="M396.806,220.411a10.218,10.218,0,0,1-5.948.192c.014-.084,1.339.124,2.98.066s2.949-.341,2.969-.258" transform="translate(-102.017 -57.525)" fill="#7c3b29"/>
          <path id="Path_93243" data-name="Path 93243" d="M286.922,153.938a10.288,10.288,0,0,1,8.421-9.246,13.408,13.408,0,0,0,3.471-.644,20.04,20.04,0,0,0,2.408-1.615,6.871,6.871,0,0,1,8.5,1.148c1.962,2.168,2.464-1.08,6.884,1.137,3.662,1.836,2.038,4.874,2.038,4.874a7.886,7.886,0,0,1,8.249,5.664c.58,2.235.316,5.026,2.188,6.378.908.656,2.114.769,3.047,1.387,1.734,1.151,1.966,3.594,1.742,5.663s-.707,4.271.19,6.148c1.47,3.078,6.069,4.012,6.867,7.329.377,1.567-.154,3.514,1.034,4.6a5.481,5.481,0,0,0,1.729.854,7.193,7.193,0,0,1,1.182,12.724c-.616.4-1.355.771-1.551,1.476-.219.786.347,1.546.763,2.248a6.915,6.915,0,0,1-9.169,9.646,10.818,10.818,0,0,1-5.977,5.489,6.568,6.568,0,0,1-3.759.369,7.525,7.525,0,0,1-2.7-1.411c-3.9-2.933-9.394-7.456-10.081-12.286" transform="translate(-74.889 -36.92)" fill="#263238"/>
          <path id="Path_93244" data-name="Path 93244" d="M286.741,165.651l-.176-3.458,20.66-4.6c6.387-.877,13.516,5.33,14.121,11.749.672,7.131,1.21,15.864.53,21.222-1.37,10.772-9.544,12.391-9.544,12.391l.285,10.643-23.7,1.033Z" transform="translate(-74.796 -41.112)" fill="#ffa192"/>
          <path id="Path_93245" data-name="Path 93245" d="M327.4,183.64a1.376,1.376,0,0,1-1.283,1.428,1.315,1.315,0,0,1-1.455-1.2,1.376,1.376,0,0,1,1.281-1.429,1.317,1.317,0,0,1,1.457,1.2" transform="translate(-84.738 -47.618)" fill="#263238"/>
          <path id="Path_93246" data-name="Path 93246" d="M328.834,179.3c-.165.184-1.23-.553-2.71-.5-1.478.029-2.54.823-2.706.647-.081-.078.082-.406.544-.766a3.781,3.781,0,0,1,2.16-.74,3.624,3.624,0,0,1,2.164.625c.466.335.63.655.548.737" transform="translate(-84.409 -46.442)" fill="#263238"/>
          <path id="Path_93247" data-name="Path 93247" d="M308.712,184.578a1.375,1.375,0,0,1-1.283,1.428,1.315,1.315,0,0,1-1.455-1.195,1.376,1.376,0,0,1,1.281-1.429,1.317,1.317,0,0,1,1.457,1.2" transform="translate(-79.861 -47.862)" fill="#263238"/>
          <path id="Path_93248" data-name="Path 93248" d="M309.168,180.283c-.166.185-1.232-.553-2.71-.5-1.478.029-2.541.823-2.707.647-.081-.078.081-.406.545-.765a3.771,3.771,0,0,1,2.159-.74,3.632,3.632,0,0,1,2.164.625c.464.336.63.655.548.738" transform="translate(-79.276 -46.699)" fill="#263238"/>
          <path id="Path_93249" data-name="Path 93249" d="M318.434,191.04a9.812,9.812,0,0,1,2.389-.508c.377-.051.732-.137.788-.4a1.925,1.925,0,0,0-.287-1.112l-1.207-2.841c-1.678-4.047-2.906-7.38-2.742-7.447s1.657,3.161,3.336,7.208q.606,1.5,1.159,2.861a2.186,2.186,0,0,1,.242,1.476.952.952,0,0,1-.6.572,2.571,2.571,0,0,1-.638.109,9.627,9.627,0,0,1-2.436.079" transform="translate(-82.833 -46.651)" fill="#263238"/>
          <path id="Path_93250" data-name="Path 93250" d="M316.185,217.847a28.385,28.385,0,0,1-14.842-3.395s3.854,7.394,14.918,6.068Z" transform="translate(-78.653 -55.974)" fill="#7c3b29"/>
          <path id="Path_93251" data-name="Path 93251" d="M316.568,199.9a2.665,2.665,0,0,0-2.42-.916,2.434,2.434,0,0,0-1.653.953,1.542,1.542,0,0,0-.062,1.767,1.791,1.791,0,0,0,1.955.431,5.614,5.614,0,0,0,1.856-1.188,1.636,1.636,0,0,0,.409-.451.5.5,0,0,0-.02-.551" transform="translate(-81.482 -51.931)" fill="#7c3b29"/>
          <path id="Path_93252" data-name="Path 93252" d="M312.888,196.953c.24-.021.293,1.584,1.7,2.681s3.114.868,3.133,1.092c.026.1-.372.324-1.093.365a4,4,0,0,1-2.613-.82,3.484,3.484,0,0,1-1.325-2.251c-.082-.669.085-1.073.2-1.067" transform="translate(-81.61 -51.406)" fill="#263238"/>
          <path id="Path_93253" data-name="Path 93253" d="M308.983,172.542c-.134.406-1.616.262-3.345.525-1.734.229-3.119.78-3.36.426-.108-.168.124-.555.678-.962a5.884,5.884,0,0,1,5.108-.724c.645.237.976.543.919.735" transform="translate(-78.89 -44.768)" fill="#263238"/>
          <path id="Path_93254" data-name="Path 93254" d="M328.056,173.5c-.25.344-1.28.027-2.506.049-1.227-.021-2.256.3-2.506-.048-.11-.168.043-.509.487-.842a3.629,3.629,0,0,1,4.038,0c.443.332.6.673.487.841" transform="translate(-84.308 -44.904)" fill="#263238"/>
          <path id="Path_93255" data-name="Path 93255" d="M322.726,155.372c-1.451,3.863-4.911,9.706-8.979,10.4a12.12,12.12,0,0,1-11.1-4.073c-.471,3.082-3.779,4.867-6.826,5.521a12.257,12.257,0,0,1-6.53-.123,6.489,6.489,0,0,1-4.357-4.574c-.437-2.161,2.4-7.659,4.543-8.17" transform="translate(-74.357 -40.288)" fill="#263238"/>
          <path id="Path_93256" data-name="Path 93256" d="M285.178,212.476a8.445,8.445,0,0,1-5.633,7.919,5.985,5.985,0,0,1-11.389,3.151,7.17,7.17,0,0,0-1-1.961c-1.142-1.25-3.164-.842-4.809-1.247-2.962-.73-4.47-4.188-4.36-7.236a7.073,7.073,0,0,0-.043-1.8c-.268-1.2-1.283-2.06-2.063-3.012-3.207-3.917-2.423-10,.526-14.113.984-1.372,2.244-2.822,2.025-4.5a9.035,9.035,0,0,0-1.1-2.589,7.652,7.652,0,0,1,1.462-8.475,2.408,2.408,0,0,0,.805-1.125,2.334,2.334,0,0,0-.069-.885,8.948,8.948,0,0,1,6.862-10.072,2.232,2.232,0,0,0,.775-.234c.661-.408.615-1.355.65-2.131.092-2.05,1.392-5.96,2.853-7.4,4.05-3.995,8.447-1.3,10.038,0,0,0,4,14.431,3.628,17.2s-1.893,9.712-.877,12.743,2.77,9.263,1.721,12.137,0,13.626,0,13.626" transform="translate(-66.247 -40.37)" fill="#263238"/>
          <path id="Path_93257" data-name="Path 93257" d="M328.884,395.547s31.29,8.66,32.544,9.1c1.885.664,1.569,7.57-1.364,7.462-1.388-.051-24.034.843-26.9.664s-11.494-3.58-11.494-3.58Z" transform="translate(-83.96 -103.241)" fill="#515151"/>
          <path id="Path_93258" data-name="Path 93258" d="M349.046,409.5a13.72,13.72,0,0,1,3.591-6.239,6.955,6.955,0,0,0-3.591,6.239" transform="translate(-91.087 -105.25)" fill="#263238"/>
          <path id="Path_93259" data-name="Path 93259" d="M344.636,407.589c.153.027.47-1.453,1.3-3.087.817-1.644,1.816-2.779,1.7-2.886a7.847,7.847,0,0,0-3.008,5.972" transform="translate(-89.94 -104.823)" fill="#263238"/>
          <path id="Path_93260" data-name="Path 93260" d="M340.44,406.388a21.364,21.364,0,0,1,.732-3.306,21.15,21.15,0,0,1,1.7-2.926,5.872,5.872,0,0,0-2.436,6.232" transform="translate(-88.803 -104.441)" fill="#263238"/>
          <path id="Path_93261" data-name="Path 93261" d="M340.388,400.555a5.53,5.53,0,0,0,.335-2.328,10.98,10.98,0,0,0-.317-2.552,10.779,10.779,0,0,0-.466-1.452,1.751,1.751,0,0,0-.5-.767.835.835,0,0,0-1.074.053,1.379,1.379,0,0,0-.417.885,6.056,6.056,0,0,0-.041.826,6.9,6.9,0,0,0,.193,1.532,9.3,9.3,0,0,0,.963,2.392,6.322,6.322,0,0,0,1.406,1.884c.072-.05-.452-.779-1.077-2.055a10.282,10.282,0,0,1-.82-2.326,6.877,6.877,0,0,1-.151-1.429c.014-.481.007-1.082.288-1.312a.3.3,0,0,1,.414-.035,1.309,1.309,0,0,1,.343.546,11.522,11.522,0,0,1,.474,1.38,12.578,12.578,0,0,1,.414,2.444c.091,1.417-.051,2.3.034,2.314" transform="translate(-88.196 -102.65)" fill="#263238"/>
          <path id="Path_93262" data-name="Path 93262" d="M339,402.577a4.379,4.379,0,0,0-2.018-.326,9.11,9.11,0,0,0-2.22.272,4.87,4.87,0,0,0-1.278.471,1.32,1.32,0,0,0-.707,1.43,1.564,1.564,0,0,0,1.128,1.117,2.866,2.866,0,0,0,1.4,0,5.387,5.387,0,0,0,2.032-1,5.493,5.493,0,0,0,1.455-1.432,13.889,13.889,0,0,0-1.666,1.129,5.568,5.568,0,0,1-1.919.831,2.475,2.475,0,0,1-1.161-.016,1.061,1.061,0,0,1-.762-.743.808.808,0,0,1,.465-.873,4.78,4.78,0,0,1,1.135-.443,10.516,10.516,0,0,1,2.108-.368c1.225-.086,1.992.04,2.006-.044" transform="translate(-86.847 -104.99)" fill="#263238"/>
          <path id="Path_93263" data-name="Path 93263" d="M355.488,410.289a8.446,8.446,0,0,1,2.149-5.271,4.487,4.487,0,0,0-2.149,5.271" transform="translate(-92.722 -105.709)" fill="#263238"/>
          <path id="Path_93264" data-name="Path 93264" d="M326.03,414.108a6.51,6.51,0,0,0,1.21.569,26.854,26.854,0,0,0,3.481,1.08,49.7,49.7,0,0,0,11.946,1.132c4.689-.052,8.914-.265,11.979-.388l3.625-.192a6.487,6.487,0,0,0,1.327-.142,6.535,6.535,0,0,0-1.333-.062l-3.631.026-11.97.234a55.976,55.976,0,0,1-11.862-.97c-2.991-.615-4.738-1.385-4.774-1.287" transform="translate(-85.096 -108.083)" fill="#263238"/>
          <path id="Path_93265" data-name="Path 93265" d="M324.778,414.136c.042.072.9-.428,2.344-1.062a10.9,10.9,0,0,1,5.921-.984,9.381,9.381,0,0,1,5.118,3.045,18.29,18.29,0,0,0,1.8,1.841,9.727,9.727,0,0,0-1.531-2.093,12.427,12.427,0,0,0-2.075-1.94,7.428,7.428,0,0,0-3.232-1.371,10.349,10.349,0,0,0-6.159,1.166,8.309,8.309,0,0,0-2.188,1.4" transform="translate(-84.769 -107.398)" fill="#263238"/>
          <g id="Group_46826" data-name="Group 46826" transform="translate(237.715 292.306)" opacity="0.3">
            <g id="Group_46825" data-name="Group 46825">
              <g id="Group_46824" data-name="Group 46824" clip-path="url(#clip-path-6)">
                <path id="Path_93266" data-name="Path 93266" d="M328.884,395.547s31.29,8.66,32.544,9.1c1.885.664,1.569,7.57-1.364,7.462-1.388-.051-24.034.843-26.9.664s-11.494-3.58-11.494-3.58Z" transform="translate(-321.674 -395.547)"/>
              </g>
            </g>
          </g>
          <path id="Path_93267" data-name="Path 93267" d="M259.236,346.915,252.481,360.8s-36.116-10.982-45.216-10.477-16.553,4.151-18.323,11.542-2.012,17.587,8.6,24.665,63.377,10.987,63.377,10.987H281.8l34.124-44.994-5.5-4.458Z" transform="translate(-49.073 -90.547)" fill="#108fe5"/>
          <path id="Path_93268" data-name="Path 93268" d="M277.465,380.667a3.874,3.874,0,0,1-.685-.012c-.447-.036-1.114-.034-1.959-.153a40.586,40.586,0,0,1-7.078-1.46,67.979,67.979,0,0,1-9.982-3.9c-3.651-1.722-7.546-3.842-11.639-6.04a120.234,120.234,0,0,0-11.789-5.655,52.825,52.825,0,0,0-10.2-3.05,36,36,0,0,0-7.15-.624c-.851-.019-1.507.072-1.955.076a3.921,3.921,0,0,1-.686.009,3.857,3.857,0,0,1,.678-.1c.447-.034,1.1-.154,1.959-.162a33.513,33.513,0,0,1,7.21.484,51.39,51.39,0,0,1,10.3,2.977,114.945,114.945,0,0,1,11.849,5.644c4.1,2.2,7.977,4.326,11.6,6.061a71.072,71.072,0,0,0,9.894,3.975,44.684,44.684,0,0,0,7.008,1.592c.838.145,1.5.171,1.944.237a3.947,3.947,0,0,1,.678.1" transform="translate(-55.945 -93.847)" fill="#455a64"/>
          <path id="Path_93269" data-name="Path 93269" d="M323.307,390.622c6.707-2.635,43.595-14.372,56.653-29.462a14.44,14.44,0,0,0,3.576-12.527c-1.821-10.064-11.078-16.774-20.68-12.971-1.365.54-4.5,1.76-5.814,2.464-3.581,1.926-61.611,38.728-61.611,38.728s10.111,19.716,9.857,20.475Z" transform="translate(-77.11 -87.329)" fill="#108fe5"/>
          <path id="Path_93270" data-name="Path 93270" d="M341.585,351.211c0,.007-.05.049-.157.126l-.486.33-1.893,1.233-7.006,4.465L308.834,371.95l-12.606,7.86.082-.259,6.61,15.9,1.858,4.565.478,1.22a2.3,2.3,0,0,1,.143.429,2.221,2.221,0,0,1-.207-.4c-.137-.3-.316-.7-.539-1.194l-1.968-4.518-6.761-15.84-.07-.164.152-.1,12.588-7.889,23.277-14.472,7.083-4.342,1.938-1.161.51-.293a.669.669,0,0,1,.182-.087" transform="translate(-77.22 -91.668)" fill="#455a64"/>
          <path id="Path_93271" data-name="Path 93271" d="M285.254,372.186a6.009,6.009,0,0,1-1.714-.644,23.972,23.972,0,0,1-7.1-5.2,6.039,6.039,0,0,1-1.132-1.438c.1-.1,1.95,1.994,4.709,4,2.743,2.023,5.293,3.152,5.234,3.28" transform="translate(-71.857 -95.243)" fill="#455a64"/>
          <path id="Path_93272" data-name="Path 93272" d="M315.859,352.624a13.99,13.99,0,0,1,.088,2.31c.02,1.423.077,3.386.271,5.545s.494,4.1.729,5.5a13.934,13.934,0,0,1,.329,2.287,10.05,10.05,0,0,1-.643-2.226,42.916,42.916,0,0,1-1.007-11.114,10.142,10.142,0,0,1,.233-2.306" transform="translate(-82.372 -92.037)" fill="#455a64"/>
          <path id="Path_93273" data-name="Path 93273" d="M320.985,351.972c0-.021.172-.041.453.062a2.038,2.038,0,0,1,.96.807,2.216,2.216,0,0,1,.273,1.859,2.019,2.019,0,0,1-1.872,1.318,1.967,1.967,0,0,1-1.978-1.154,2.055,2.055,0,0,1,.257-1.864,1.8,1.8,0,0,1,1.01-.75c.294-.071.46-.021.459,0a2.152,2.152,0,0,0-1.2.921,1.782,1.782,0,0,0-.142,1.536,1.572,1.572,0,0,0,1.569.859,1.625,1.625,0,0,0,1.5-1,1.958,1.958,0,0,0-.155-1.557,2.73,2.73,0,0,0-1.137-1.032" transform="translate(-83.183 -91.863)" fill="#455a64"/>
          <path id="Path_93274" data-name="Path 93274" d="M293.627,350a1.974,1.974,0,0,1,.317.685,6.236,6.236,0,0,1,.3,2.041,7.343,7.343,0,0,1-.672,2.994,6.707,6.707,0,0,1-6,4.034,7.351,7.351,0,0,1-3.027-.506,6.22,6.22,0,0,1-1.776-1.051c-.367-.321-.533-.534-.515-.551a11.172,11.172,0,0,0,2.4,1.3,7.461,7.461,0,0,0,2.895.39,6.487,6.487,0,0,0,5.641-3.795,7.451,7.451,0,0,0,.73-2.828,11.077,11.077,0,0,0-.3-2.715" transform="translate(-73.671 -91.353)" fill="#455a64"/>
          <path id="Path_93275" data-name="Path 93275" d="M342.506,356.888a2.394,2.394,0,0,1-1.369-.193,5.184,5.184,0,0,1-3.46-5.3,2.385,2.385,0,0,1,.374-1.331c.071.019-.066.525-.054,1.34a5.454,5.454,0,0,0,3.26,4.992c.743.339,1.26.417,1.25.49" transform="translate(-88.132 -91.37)" fill="#455a64"/>
          <path id="Path_93276" data-name="Path 93276" d="M367.039,380.5a1.644,1.644,0,0,1,.222-.12l.664-.324,2.558-1.232c2.215-1.079,5.428-2.632,9.3-4.727a71.213,71.213,0,0,0,12.841-8.545,38.035,38.035,0,0,0,6.143-6.689,14.846,14.846,0,0,0,2.224-9.28,14.561,14.561,0,0,0-1.221-4.751,12.753,12.753,0,0,0-1.191-2.091,16.932,16.932,0,0,0-1.52-1.826,40.3,40.3,0,0,0-3.453-3.113,10.388,10.388,0,0,0-3.764-2.25,14.04,14.04,0,0,0-4.175-.463,21.475,21.475,0,0,0-3.963.438,24.207,24.207,0,0,0-6.689,2.527l-9.129,5.059-2.487,1.368-.65.349a1.55,1.55,0,0,1-.227.11,1.483,1.483,0,0,1,.211-.137l.636-.375,2.459-1.417c2.145-1.217,5.228-3,9.087-5.145a24.269,24.269,0,0,1,6.737-2.584,21.687,21.687,0,0,1,4.009-.459,14.286,14.286,0,0,1,4.259.462,10.652,10.652,0,0,1,3.868,2.295,40.412,40.412,0,0,1,3.483,3.13,17.143,17.143,0,0,1,1.549,1.858,13,13,0,0,1,1.221,2.139,14.842,14.842,0,0,1,1.248,4.85,15.115,15.115,0,0,1-2.278,9.466,38.019,38.019,0,0,1-6.207,6.736,70.338,70.338,0,0,1-12.922,8.523c-3.894,2.074-7.122,3.6-9.354,4.645l-2.582,1.181-.676.3a1.615,1.615,0,0,1-.234.092" transform="translate(-94.621 -87.392)" fill="#455a64"/>
          <path id="Path_93277" data-name="Path 93277" d="M286.763,395.812s-31.394,8.272-32.655,8.7c-1.893.641-1.662,7.55,1.272,7.479,1.388-.034,24.021,1.14,26.885,1s10.6-3.091,10.6-3.091Z" transform="translate(-66.006 -103.31)" fill="#515151"/>
          <path id="Path_93278" data-name="Path 93278" d="M279.647,409.525a13.733,13.733,0,0,0-3.514-6.284,6.954,6.954,0,0,1,3.514,6.284" transform="translate(-72.071 -105.246)" fill="#263238"/>
          <path id="Path_93279" data-name="Path 93279" d="M284.29,407.676c-.154.024-.452-1.459-1.265-3.1-.8-1.653-1.782-2.8-1.668-2.906a7.848,7.848,0,0,1,2.933,6.009" transform="translate(-73.434 -104.836)" fill="#263238"/>
          <path id="Path_93280" data-name="Path 93280" d="M288.647,406.528a10.984,10.984,0,0,0-2.359-6.262,5.875,5.875,0,0,1,2.359,6.262" transform="translate(-74.721 -104.47)" fill="#263238"/>
          <path id="Path_93281" data-name="Path 93281" d="M288.691,400.7a5.544,5.544,0,0,1-.307-2.332,10.966,10.966,0,0,1,.348-2.547,10.791,10.791,0,0,1,.484-1.446,1.75,1.75,0,0,1,.511-.761.835.835,0,0,1,1.074.067,1.384,1.384,0,0,1,.406.89,6.045,6.045,0,0,1,.03.828,6.9,6.9,0,0,1-.212,1.529,9.281,9.281,0,0,1-.992,2.38,6.316,6.316,0,0,1-1.428,1.867c-.071-.051.462-.774,1.1-2.042a10.272,10.272,0,0,0,.849-2.316,6.887,6.887,0,0,0,.168-1.427c-.008-.481.007-1.083-.272-1.317a.3.3,0,0,0-.413-.04,1.328,1.328,0,0,0-.35.542,11.527,11.527,0,0,0-.491,1.374,12.593,12.593,0,0,0-.444,2.438c-.109,1.416.022,2.3-.063,2.315" transform="translate(-75.27 -102.694)" fill="#263238"/>
          <path id="Path_93282" data-name="Path 93282" d="M288.858,402.73a4.367,4.367,0,0,1,2.022-.3,9.083,9.083,0,0,1,2.217.3,4.894,4.894,0,0,1,1.273.487,1.319,1.319,0,0,1,.689,1.439,1.561,1.561,0,0,1-1.141,1.1,2.855,2.855,0,0,1-1.4-.021,5.388,5.388,0,0,1-2.02-1.024,5.481,5.481,0,0,1-1.437-1.451,13.9,13.9,0,0,1,1.652,1.15,5.555,5.555,0,0,0,1.91.854,2.473,2.473,0,0,0,1.16,0,1.062,1.062,0,0,0,.771-.735.806.806,0,0,0-.454-.879,4.741,4.741,0,0,0-1.129-.457,10.5,10.5,0,0,0-2.1-.394c-1.224-.1-1.993.015-2-.07" transform="translate(-75.394 -105.037)" fill="#263238"/>
          <path id="Path_93283" data-name="Path 93283" d="M273.641,410.245a8.442,8.442,0,0,0-2.083-5.3,4.49,4.49,0,0,1,2.083,5.3" transform="translate(-70.877 -105.691)" fill="#263238"/>
          <path id="Path_93284" data-name="Path 93284" d="M292.032,414.438a6.5,6.5,0,0,1-1.217.554,26.9,26.9,0,0,1-3.5,1.036,49.659,49.659,0,0,1-11.958.984c-4.688-.109-8.911-.375-11.973-.536l-3.623-.237a6.5,6.5,0,0,1-1.326-.158,6.542,6.542,0,0,1,1.335-.045l3.63.07,11.966.383a55.979,55.979,0,0,0,11.873-.823c3-.578,4.755-1.326,4.789-1.228" transform="translate(-67.455 -108.169)" fill="#263238"/>
          <path id="Path_93285" data-name="Path 93285" d="M299.76,414.45c-.044.072-.894-.439-2.331-1.091a10.9,10.9,0,0,0-5.908-1.058,9.373,9.373,0,0,0-5.154,2.981,18.406,18.406,0,0,1-1.827,1.819,9.748,9.748,0,0,1,1.557-2.074,12.433,12.433,0,0,1,2.1-1.914,7.443,7.443,0,0,1,3.249-1.33,10.351,10.351,0,0,1,6.145,1.242,8.323,8.323,0,0,1,2.171,1.425" transform="translate(-74.266 -107.457)" fill="#263238"/>
          <path id="Path_93286" data-name="Path 93286" d="M262.171,413.989c-.056-.039.216-.449.471-1.176a5.726,5.726,0,0,0-.966-5.619c-.483-.6-.877-.9-.837-.952.024-.041.49.17,1.062.752a5.335,5.335,0,0,1,1.019,5.93c-.344.74-.713,1.1-.75,1.064" transform="translate(-68.08 -106.031)" fill="#263238"/>
          <path id="Path_93287" data-name="Path 93287" d="M291.068,230.393l-16.14,4.523,5.246,50.215s-3.017,17.928-3.017,22.64a9.365,9.365,0,0,0,4.764,8.419l51.563,1.558,2.635-2.281a7.445,7.445,0,0,0,1.722-5.752l-9.58-76.622L310.311,229.2Z" transform="translate(-71.758 -59.823)" fill="#19ceab"/>
          <path id="Path_93288" data-name="Path 93288" d="M279.814,291.422a1.939,1.939,0,0,1-.1-.38c-.055-.282-.127-.647-.216-1.1-.183-.992-.434-2.368-.744-4.052-.6-3.458-1.429-8.175-2.341-13.387-.878-5.22-1.672-9.943-2.255-13.4-.27-1.692-.491-3.073-.65-4.069l-.161-1.108a2,2,0,0,1-.037-.39,1.887,1.887,0,0,1,.1.379l.217,1.1c.182.992.434,2.367.743,4.051.6,3.458,1.43,8.176,2.342,13.391l2.255,13.4c.27,1.692.491,3.073.65,4.068l.162,1.109a1.859,1.859,0,0,1,.036.389" transform="translate(-71.336 -66.174)" fill="#263238"/>
          <path id="Path_93289" data-name="Path 93289" d="M317.717,230.438a5.748,5.748,0,0,1-.743.589c-.249.177-.573.364-.941.595-.387.2-.814.452-1.322.656a17.427,17.427,0,0,1-3.662,1.142,27.121,27.121,0,0,1-4.668.486,46.632,46.632,0,0,1-4.687-.146,27.121,27.121,0,0,1-3.8-.5,11.457,11.457,0,0,1-2.453-.82,6.516,6.516,0,0,1-.618-.337c-.137-.086-.2-.134-.2-.143s.307.14.865.374a13.03,13.03,0,0,0,2.45.718,29.8,29.8,0,0,0,3.776.429c1.432.095,3.008.16,4.66.12a28.606,28.606,0,0,0,4.624-.457,18.326,18.326,0,0,0,3.632-1.066,21.815,21.815,0,0,0,3.089-1.645" transform="translate(-76.898 -60.145)" fill="#263238"/>
          <path id="Path_93290" data-name="Path 93290" d="M336.232,333.772a1.632,1.632,0,0,1-.351.071l-1.015.146c-.44.064-.981.132-1.611.187s-1.346.14-2.142.178c-1.589.114-3.487.163-5.593.134-2.106-.049-4.421-.187-6.836-.469s-4.7-.707-6.756-1.157c-2.054-.468-3.887-.964-5.4-1.449-.764-.225-1.44-.474-2.039-.678s-1.109-.4-1.522-.562l-.952-.381a1.562,1.562,0,0,1-.324-.152,1.608,1.608,0,0,1,.345.1l.97.328c.418.148.932.327,1.536.512s1.281.424,2.047.635c1.52.458,3.352.93,5.4,1.382,2.054.433,4.328.834,6.732,1.129s4.71.427,6.807.491c2.1.044,3.989.017,5.575-.069.794-.024,1.51-.092,2.139-.134s1.171-.09,1.613-.136l1.02-.09a1.622,1.622,0,0,1,.358-.011" transform="translate(-78.743 -86.038)" fill="#263238"/>
          <path id="Path_93291" data-name="Path 93291" d="M355.083,270.507a3.5,3.5,0,0,1-.245-.7c-.14-.454-.329-1.116-.552-1.935-.447-1.64-1.021-3.917-1.584-6.448s-1.009-4.838-1.3-6.512c-.146-.837-.255-1.516-.321-1.987a3.58,3.58,0,0,1-.074-.736,3.479,3.479,0,0,1,.188.715c.11.524.249,1.183.415,1.968.344,1.663.822,3.958,1.383,6.487s1.1,4.809,1.5,6.46c.183.78.338,1.437.46,1.958a3.481,3.481,0,0,1,.133.728" transform="translate(-91.614 -65.824)" fill="#263238"/>
          <g id="Group_46829" data-name="Group 46829" transform="translate(221.342 172.851)" opacity="0.3">
            <g id="Group_46828" data-name="Group 46828">
              <g id="Group_46827" data-name="Group 46827" clip-path="url(#clip-path-7)">
                <path id="Path_93292" data-name="Path 93292" d="M303.12,233.9c.645,2.244.044,5.515.361,7.523a107.111,107.111,0,0,1,1.293,24.336,3.257,3.257,0,0,0,.083,1.319,3.977,3.977,0,0,0,.654,1.019,10.692,10.692,0,0,1,1.725,7.733,31.735,31.735,0,0,1-2.337,7.754c-.057-2.168.058-5.41.229-7.573.034-.432.254-.154.266-.587.074-2.6-.361-5.013-2.188-6.865a5.576,5.576,0,0,1-1.034-1.165,3.853,3.853,0,0,1-.353-1.388q-1.679-13.618-2.295-27.338a2.186,2.186,0,0,1,.3-1.493,3.991,3.991,0,0,1,1.006-.689c.7-.461,1.136-1.275,1.893-1.635" transform="translate(-299.518 -233.901)"/>
              </g>
            </g>
          </g>
          <path id="Path_93293" data-name="Path 93293" d="M270.789,236.935s-14.736,3.473-11.162,25.56a136.581,136.581,0,0,0,8.793,31.362c2.414,5.684,7.885,9.594,14.008,8.792,2.675-.35,5.324.075,7.116-1.006,2.719-1.639,3.9-7.165,4.415-13.127.35-4.06.2-8.291.741-11.758.878-5.658-1.719-8.326-5.041-8.988l-13.026-2.6-.75,6.89Z" transform="translate(-67.619 -61.842)" fill="#19ceab"/>
          <path id="Path_93294" data-name="Path 93294" d="M288.973,292.06c.037-.029.246.266.751.644a5.193,5.193,0,0,0,2.433.966,8.119,8.119,0,0,0,3.856-.549,12.3,12.3,0,0,0,4.164-2.4,7.354,7.354,0,0,0,2.163-4.166,7.183,7.183,0,0,0-.463-3.844,10.086,10.086,0,0,0-2.072-3,2.592,2.592,0,0,1,.813.6,7.128,7.128,0,0,1,1.6,2.251,7.315,7.315,0,0,1,.6,4.059,7.669,7.669,0,0,1-2.278,4.473,12.269,12.269,0,0,1-4.363,2.474,8.166,8.166,0,0,1-4.073.461,5.008,5.008,0,0,1-2.505-1.173,1.966,1.966,0,0,1-.621-.8" transform="translate(-75.424 -73.008)" fill="#263238"/>
          <path id="Path_93295" data-name="Path 93295" d="M270.651,305.931c.047-.016.276.7.882,1.888a16.878,16.878,0,0,0,3.357,4.509,15.9,15.9,0,0,0,7.213,3.988,16.134,16.134,0,0,0,9.98-.7c1.668-.675,2.271-2.53,2.909-4.076a27.008,27.008,0,0,0,1.243-4.779c.53-3.119.653-5.985.831-8.383.171-2.343.313-4.267.417-5.684.056-.622.1-1.133.14-1.544a2.1,2.1,0,0,1,.084-.536,2.16,2.16,0,0,1,.021.542c-.012.413-.026.925-.042,1.55-.063,1.419-.148,3.346-.252,5.693a76.357,76.357,0,0,1-.726,8.441,26.818,26.818,0,0,1-1.237,4.876,17.792,17.792,0,0,1-1.1,2.448,4.394,4.394,0,0,1-2.069,1.924,16.418,16.418,0,0,1-10.317.692,16.2,16.2,0,0,1-10.634-8.873,11.722,11.722,0,0,1-.566-1.451,2.135,2.135,0,0,1-.134-.526" transform="translate(-70.641 -75.853)" fill="#263238"/>
          <path id="Path_93296" data-name="Path 93296" d="M277.279,292.571a13.429,13.429,0,0,1,.033-2.655c.086-1.634.242-3.889.446-6.377.108-1.247.191-2.422.321-3.513a5.521,5.521,0,0,1,1-2.772,2.955,2.955,0,0,1,1.67-1.09c.474-.1.735,0,.73.024,0,.047-.262.024-.677.171a3,3,0,0,0-1.43,1.117c-.967,1.277-.851,3.638-1.1,6.106-.2,2.487-.417,4.738-.6,6.364a13.453,13.453,0,0,1-.4,2.624" transform="translate(-72.36 -72.07)" fill="#263238"/>
          <path id="Path_93297" data-name="Path 93297" d="M281.176,258.88c-.132-.7-.338-1.709-.6-2.955-.533-2.49-1.3-5.921-2.185-9.7a54.547,54.547,0,0,0-1.4-5.316,12.335,12.335,0,0,0-2.159-3.971l-.286.232a12.616,12.616,0,0,1,1.992,3.895c.528,1.577.9,3.387,1.346,5.279.882,3.784,1.71,7.2,2.334,9.67.312,1.234.573,2.231.765,2.917a4.591,4.591,0,0,0,.35,1.054,4.508,4.508,0,0,0-.152-1.1" transform="translate(-71.657 -61.841)" fill="#263238"/>
          <g id="Group_46832" data-name="Group 46832" transform="translate(201.526 201.664)" opacity="0.3">
            <g id="Group_46831" data-name="Group 46831">
              <g id="Group_46830" data-name="Group 46830" clip-path="url(#clip-path-8)">
                <path id="Path_93298" data-name="Path 93298" d="M280.833,273.017a5.765,5.765,0,0,0-3.316,1.12,11.023,11.023,0,0,0-4.387,6.211,12.871,12.871,0,0,0,.341,7.64c.268.76.789,1.623,1.6,1.591.948-.038,1.331-1.221,1.462-2.161q.545-3.9,1.091-7.809a7.249,7.249,0,0,1,.692-2.573,2.461,2.461,0,0,1,2.146-1.364q.122-1.39.242-2.781" transform="translate(-272.704 -272.891)"/>
              </g>
            </g>
          </g>
          <path id="Path_93299" data-name="Path 93299" d="M397.39,279.844a21.849,21.849,0,0,0,3.044-10.222,34.157,34.157,0,0,0-1.446-11.237l-15.656-4.852-.1,5.226Z" transform="translate(-100.027 -66.174)" fill="#19ceab"/>
          <path id="Path_93300" data-name="Path 93300" d="M373.8,253.783l-26.7-19.314v1.338l2.884,30.068s22.076,9.89,27.924,11.346a11.65,11.65,0,0,0,10.052-2.352Z" transform="translate(-90.595 -61.198)" fill="#19ceab"/>
          <path id="Path_93301" data-name="Path 93301" d="M391.044,275.174a2.1,2.1,0,0,1-.605-.319,10.586,10.586,0,0,1-1.469-1.145,16.461,16.461,0,0,1-3.567-4.982,32.561,32.561,0,0,1-2.035-5.774c-.2-.757-.343-1.372-.435-1.8a2.3,2.3,0,0,1-.1-.674,18.348,18.348,0,0,1,.8,2.4,41.528,41.528,0,0,0,2.12,5.683,18.176,18.176,0,0,0,3.41,4.953c1.093,1.1,1.924,1.6,1.885,1.66" transform="translate(-99.919 -67.987)" fill="#263238"/>
          <path id="Path_93302" data-name="Path 93302" d="M398.961,262.671a2.4,2.4,0,0,1-.692.009,16.123,16.123,0,0,1-1.872-.2,22.886,22.886,0,0,1-11.16-5.186,15.873,15.873,0,0,1-1.363-1.3,2.437,2.437,0,0,1-.44-.534c.047-.047.742.645,1.976,1.623a26,26,0,0,0,11.035,5.127c1.543.313,2.52.4,2.515.463" transform="translate(-100.079 -66.676)" fill="#263238"/>
          <path id="Path_93303" data-name="Path 93303" d="M384.2,272.613a5.556,5.556,0,0,1-.831-1.656,15.953,15.953,0,0,1-.888-4.381,31.458,31.458,0,0,1,.035-4.46,8.274,8.274,0,0,1,.23-1.831,9.3,9.3,0,0,1,.041,1.843c-.012,1.135-.044,2.7.077,4.42a19.669,19.669,0,0,0,.763,4.323c.33,1.077.631,1.714.573,1.743" transform="translate(-99.813 -67.936)" fill="#263238"/>
          <path id="Path_93304" data-name="Path 93304" d="M346.552,250.094a3.719,3.719,0,0,1,.278.818c.155.532.364,1.307.609,2.267.491,1.921,1.12,4.587,1.74,7.547s1.112,5.657,1.432,7.613c.16.978.28,1.771.352,2.321a3.668,3.668,0,0,1,.073.86,3.7,3.7,0,0,1-.22-.834c-.129-.623-.286-1.391-.472-2.3-.412-2.026-.948-4.665-1.542-7.583-.627-2.91-1.193-5.542-1.629-7.564-.193-.906-.356-1.673-.489-2.295a3.748,3.748,0,0,1-.132-.854" transform="translate(-90.451 -65.276)" fill="#263238"/>
          <path id="Path_93305" data-name="Path 93305" d="M282.614,266.044l3.273-36.207,10.844,4.281,1.4,36.828s-3.471,5.251-9.332,3.1a9.511,9.511,0,0,1-6.181-8" transform="translate(-73.764 -59.989)" fill="#ffa192"/>
          <path id="Path_93306" data-name="Path 93306" d="M284.554,186.926l20.276,17.834-3.671,13.315-1.471.437L281.961,200.37l1.121-13.008Z" transform="translate(-73.594 -48.789)" fill="#263238"/>
          <path id="Path_93307" data-name="Path 93307" d="M282.563,187.516l20.276,17.834-3.671,13.316-19.2-17.706Z" transform="translate(-73.074 -48.943)" fill="#455a64"/>
          <path id="Path_93308" data-name="Path 93308" d="M297.19,225.791a7.9,7.9,0,0,0,2.037-4.984c-.046-2.729-.8-9.3-.8-9.3s3.522-7.414,3.433-8.4-.25-.972-1.515-.573-5.189,7.156-5.189,7.156l-1.284-5.012s3.266-5.262,3.525-6,.692-1.34-.127-1.408-6.95,5.878-6.95,5.878l.494,5.491s-.123.437-1.005-.335-.659-7.323-.659-7.323,2.09-3.878,2.039-4.442.383-1.17-.029-2.126-1.614.145-1.614.145l-4.071,5.335-1.451-5.279s.061-1.125-1.4-1.136l.567,17.125,3.71,13.176Z" transform="translate(-73.766 -50.502)" fill="#ffa192"/>
          <path id="Path_93309" data-name="Path 93309" d="M298.093,261.386s-.03-.219-.057-.644c-.024-.453-.058-1.08-.1-1.886-.075-1.683-.183-4.106-.32-7.189-.248-6.238-.6-15.138-1.029-25.909l0-.1.088-.075a7.094,7.094,0,0,0,1.961-2.772,8.1,8.1,0,0,0,.41-3.564c-.129-2.507-.44-5.116-.788-7.781l-.01-.072.03-.066c.663-1.411,1.326-2.863,1.971-4.353.321-.746.641-1.5.934-2.268.144-.384.286-.771.4-1.157l.072-.286a2.092,2.092,0,0,0,.023-.239,1.742,1.742,0,0,0-.1-.517c.039-.119-.519,0-.879.128a1.129,1.129,0,0,0-.479.244,3.5,3.5,0,0,0-.431.417,19.974,19.974,0,0,0-1.546,2.018c-.975,1.418-1.9,2.911-2.791,4.429l-.319.542-.155-.607c-.407-1.588-.844-3.293-1.285-5.013l-.027-.106.058-.1,1.656-2.708c.63-1.067,1.324-2.165,1.833-3.212.106-.295.251-.6.321-.845.039-.135.016-.194.013-.183a.392.392,0,0,0-.246-.047,1.792,1.792,0,0,0-.294.148c-.121.066-.245.164-.367.244-.242.175-.483.359-.718.551-1.88,1.543-3.64,3.21-5.353,4.847l.076-.206q.249,2.787.491,5.491l0,.052-.013.039a.457.457,0,0,1-.487.3.994.994,0,0,1-.356-.112,2.717,2.717,0,0,1-.5-.347,2.027,2.027,0,0,1-.529-1.118,15.131,15.131,0,0,1-.246-2.193c-.076-1.446-.073-2.865-.033-4.268v-.055l.027-.052a36.578,36.578,0,0,0,1.965-4.084,1.2,1.2,0,0,0,.048-.2c.007-.061-.006-.214.01-.306.023-.209.069-.393.1-.568a1.958,1.958,0,0,0-.035-.987c-.112-.359-.222-.505-.5-.456a1.987,1.987,0,0,0-.825.463l.027-.03-4.082,5.327-.264.345-.114-.418q-.747-2.742-1.438-5.283l-.007-.026v-.038a.873.873,0,0,0-.371-.712,1.509,1.509,0,0,0-.833-.217l.2-.2c.2,6.967.369,12.744.5,17.127l0-.028c.812,3.147,1.44,5.582,1.873,7.259.2.807.355,1.43.467,1.877.1.423.137.642.137.642s-.079-.208-.2-.625c-.126-.443-.3-1.06-.529-1.86l-1.989-7.229,0-.013v-.016c-.163-4.381-.378-10.157-.636-17.122l-.008-.2h.2a1.884,1.884,0,0,1,1.054.28,1.264,1.264,0,0,1,.549,1.062l-.007-.064q.705,2.538,1.464,5.276l-.378-.074,4.06-5.343.015-.019.013-.01a2.393,2.393,0,0,1,1.055-.581.8.8,0,0,1,.706.192,1.33,1.33,0,0,1,.315.582,2.43,2.43,0,0,1,.051,1.205c-.034.191-.076.37-.092.532-.011.094,0,.129-.007.254a1.31,1.31,0,0,1-.067.345,36.363,36.363,0,0,1-1.989,4.176l.029-.106c-.036,1.386-.035,2.8.042,4.224a14.756,14.756,0,0,0,.24,2.116,1.622,1.622,0,0,0,.364.839,2.26,2.26,0,0,0,.4.284.553.553,0,0,0,.166.058h.013a.25.25,0,0,0,.016.052l.009.013.005,0,.017.009.03.013.007,0c.122.045-.156-.06-.129-.047l0,.013-.008.091q-.246-2.7-.5-5.491l-.011-.123.088-.084c1.722-1.649,3.475-3.313,5.384-4.883.239-.2.486-.385.743-.57.134-.089.253-.184.4-.268a1.388,1.388,0,0,1,.546-.22.822.822,0,0,1,.619.192.68.68,0,0,1,.129.689c-.1.347-.234.6-.337.893-.573,1.188-1.231,2.2-1.875,3.3l-1.66,2.713.031-.2,1.282,5.013-.475-.066c.9-1.533,1.828-3.026,2.818-4.461a20.221,20.221,0,0,1,1.594-2.073,4,4,0,0,1,.489-.47,1.712,1.712,0,0,1,.644-.33,6.5,6.5,0,0,1,.642-.171,1.183,1.183,0,0,1,.4-.018.587.587,0,0,1,.429.3,2.03,2.03,0,0,1,.159.71,2.262,2.262,0,0,1-.031.385l-.082.322c-.121.416-.267.81-.415,1.2-.3.78-.623,1.537-.946,2.286-.652,1.5-1.319,2.948-1.989,4.364l.021-.137c.344,2.68.648,5.287.769,7.827a8.544,8.544,0,0,1-.454,3.747,7.5,7.5,0,0,1-2.113,2.951l.084-.179c.352,10.774.641,19.676.845,25.915.086,3.085.154,5.51.2,7.193.015.807.027,1.435.036,1.888,0,.427-.01.647-.01.647" transform="translate(-73.731 -50.429)" fill="#7c3b29"/>
          <path id="Path_93310" data-name="Path 93310" d="M287.343,211.418a21.529,21.529,0,0,1-.63-4.682,21.537,21.537,0,0,1-.11-4.723,21.7,21.7,0,0,1,.629,4.682,21.734,21.734,0,0,1,.112,4.722" transform="translate(-74.784 -52.727)" fill="#7c3b29"/>
        </g>
      </g>
      <g id="Group_46854" data-name="Group 46854">
        <g id="Group_46853" data-name="Group 46853" clip-path="url(#clip-path)">
          <path id="Path_93311" data-name="Path 93311" d="M188.54,171.683l-11.578-23.405a86.02,86.02,0,1,0-17.708,25.22l-.024.042Z" transform="translate(-3.412 -6.922)" fill="#fafafa"/>
          <path id="Path_93312" data-name="Path 93312" d="M188.481,171.621l-29.3,1.941-.159.01.081-.137c.007-.013.016-.027.024-.041l.132.1a89.455,89.455,0,0,1-6.741,5.995c-1.227,1.032-2.581,1.978-3.937,3-1.4.955-2.825,1.965-4.359,2.889a84.935,84.935,0,0,1-21.491,9.583,86.732,86.732,0,0,1-27.267,3.323A85.5,85.5,0,0,1,65.247,191.5a86.648,86.648,0,0,1-28.08-19.235A86.012,86.012,0,0,1,13.4,102.476c.14-1.672.464-3.324.711-4.992.278-1.662.665-3.31,1.009-4.968a87.173,87.173,0,0,1,18.84-36.662l1.779-1.961.89-.977.933-.934,1.862-1.864,1.941-1.773A84.349,84.349,0,0,1,58.33,36.435c1.49-.848,3.051-1.542,4.583-2.286s3.125-1.335,4.679-2c1.6-.558,3.164-1.188,4.771-1.68,1.611-.477,3.2-1.024,4.827-1.394a88.205,88.205,0,0,1,19.517-2.757,86.031,86.031,0,0,1,81.829,53.54,89.375,89.375,0,0,1,4.288,13.72q.338,1.706.669,3.38c.234,1.114.347,2.238.523,3.341l.24,1.65q.085.825.171,1.642c.126,1.089.208,2.17.27,3.243a85.7,85.7,0,0,1-4.418,33.182c-1.035,2.99-2.164,5.73-3.3,8.233v-.069l11.506,23.441-11.649-23.37-.017-.034.016-.035c1.129-2.5,2.248-5.239,3.274-8.226a85.689,85.689,0,0,0,4.342-33.106c-.064-1.069-.148-2.148-.274-3.232q-.085-.815-.173-1.638-.121-.818-.242-1.644c-.178-1.1-.291-2.22-.526-3.331s-.446-2.235-.672-3.368a89.218,89.218,0,0,0-4.292-13.67,84.79,84.79,0,0,0-16.89-26.282,85.688,85.688,0,0,0-64.661-27,87.889,87.889,0,0,0-19.433,2.753c-1.622.368-3.2.913-4.806,1.389s-3.159,1.118-4.749,1.674c-1.547.663-3.127,1.267-4.659,1.993s-3.079,1.431-4.561,2.276A83.982,83.982,0,0,0,41.624,48.629l-1.932,1.765-1.854,1.857-.928.93-.887.973-1.771,1.952A86.664,86.664,0,0,0,15.494,92.6c-.342,1.652-.729,3.291-1.005,4.946-.245,1.661-.57,3.3-.709,4.97a85.725,85.725,0,0,0,108.876,92.193,84.876,84.876,0,0,0,21.448-9.519c1.532-.919,2.953-1.924,4.354-2.873,1.356-1.013,2.709-1.954,3.936-2.98a89.8,89.8,0,0,0,6.743-5.965l.443-.423-.312.527c-.008.015-.017.029-.024.041l-.078-.127,29.315-1.772" transform="translate(-3.353 -6.86)" fill="#263238"/>
          <path id="Path_93313" data-name="Path 93313" d="M69.519,242.642l88.5-.144s-21.157,14.022-46.571,12.366c-22.083-1.438-41.93-12.222-41.93-12.222" transform="translate(-18.145 -63.294)" fill="#455a64"/>
          <path id="Path_93314" data-name="Path 93314" d="M116.709,160.08l5.048,18.464,18.438-24.9-4.341,65.283H109.53l-7.675.369s1.138-10.29,1.606-16.1a64.982,64.982,0,0,1,2.339-13.679c3.926-12.817,10.909-29.442,10.909-29.442" transform="translate(-26.585 -40.103)" fill="#fafafa"/>
          <path id="Path_93315" data-name="Path 93315" d="M125.224,201.445c.065.084-2.909,2.481-6.641,5.353s-6.811,5.132-6.876,5.048,2.908-2.481,6.641-5.353,6.81-5.132,6.875-5.047" transform="translate(-29.156 -52.578)" fill="#263238"/>
          <path id="Path_93316" data-name="Path 93316" d="M174.7,145.375l-14.336-6.9-5.622-6.683-7.954,8.268L125.7,213.048h36.163l4.638-12.521,8.2-48.361Z" transform="translate(-32.809 -34.399)" fill="#108fe5"/>
          <path id="Path_93317" data-name="Path 93317" d="M104.363,218.9l-.969-15.49,43.687-7.4s7.464-36.05,12.062-41.958c4.243-5.451,9.775-3.56,9.775-3.56s4.985,3.415,3.793,16.489c-.624,6.846-3.127,30.586-4.035,39.162a13.694,13.694,0,0,1-13.615,12.248Z" transform="translate(-26.987 -39.197)" fill="#108fe5"/>
          <path id="Path_93318" data-name="Path 93318" d="M169.524,221.245c-.064.007-.125-.688-.443-1.748a10.361,10.361,0,0,0-5.388-6.389c-.991-.492-1.664-.67-1.647-.732a4.674,4.674,0,0,1,1.762.485,9.563,9.563,0,0,1,5.536,6.564,4.667,4.667,0,0,1,.18,1.819" transform="translate(-42.295 -55.43)" fill="#263238"/>
          <g id="Group_46837" data-name="Group 46837" transform="translate(102.378 105.13)" opacity="0.2">
            <g id="Group_46836" data-name="Group 46836">
              <g id="Group_46835" data-name="Group 46835" clip-path="url(#clip-path-10)">
                <path id="Path_93319" data-name="Path 93319" d="M162.591,142.261a68.326,68.326,0,0,1-2.6,13.458l-3.286-.964a8.547,8.547,0,0,1,.981,6.791,25.345,25.345,0,0,1-2.839,6.446l-16.305,29.29,16.437-37.319-.428-6.9,3.164-.677Z" transform="translate(-138.537 -142.261)"/>
              </g>
            </g>
          </g>
          <g id="Group_46840" data-name="Group 46840" transform="translate(119.538 156.369)" opacity="0.2">
            <g id="Group_46839" data-name="Group 46839">
              <g id="Group_46838" data-name="Group 46838" clip-path="url(#clip-path-11)">
                <path id="Path_93320" data-name="Path 93320" d="M162.172,211.611a8.718,8.718,0,0,1,8.935,6.467,2.25,2.25,0,0,1,.026,1.4.931.931,0,0,1-1.141.583,1.477,1.477,0,0,1-.639-.846,13.248,13.248,0,0,0-7.595-7.077" transform="translate(-161.758 -211.597)"/>
              </g>
            </g>
          </g>
          <path id="Path_93321" data-name="Path 93321" d="M138.7,196.63a3.713,3.713,0,0,1,.221-.6q.262-.626.706-1.687c.642-1.493,1.547-3.594,2.659-6.176,2.292-5.229,5.435-12.4,8.906-20.316,1.273-2.877,2.5-5.654,3.656-8.262l-.016.086c-.146-2.451-.282-4.764-.409-6.9l-.008-.143.139-.029,3.167-.664-.1.082c1.639-3.317,2.985-6.04,3.94-7.97.464-.919.834-1.649,1.1-2.181l.3-.565a.756.756,0,0,1,.117-.187.884.884,0,0,1-.075.207c-.07.155-.154.347-.259.584-.251.541-.6,1.282-1.029,2.217-.927,1.944-2.232,4.687-3.822,8.028l-.032.066-.073.016-3.161.69.13-.172c.138,2.135.288,4.447.447,6.9l0,.044-.019.041-3.641,8.269c-3.511,7.9-6.69,15.053-9.009,20.27l-2.77,6.126-.772,1.658a4.193,4.193,0,0,1-.292.568" transform="translate(-36.201 -36.834)" fill="#263238"/>
          <path id="Path_93322" data-name="Path 93322" d="M104.3,222.579a1.22,1.22,0,0,1-.035-.257c-.017-.191-.038-.441-.066-.757-.05-.692-.122-1.668-.213-2.913-.169-2.555-.41-6.21-.708-10.714l-.008-.123.122-.022,31.6-5.806,11.652-2.114-.146.136c2.561-9.733,4.785-18.178,6.375-24.219.8-2.986,1.443-5.377,1.891-7.047l.522-1.883c.058-.2.106-.357.143-.484a.086.086,0,1,1,.032.009c-.029.129-.066.29-.111.492l-.463,1.9c-.423,1.677-1.029,4.076-1.785,7.074-1.557,6.049-3.735,14.507-6.244,24.253l-.03.115-.117.021-11.65,2.127-31.622,5.7.114-.146c.245,4.507.444,8.164.584,10.722.059,1.247.106,2.224.138,2.917.011.316.02.568.027.76a1.312,1.312,0,0,1-.005.259" transform="translate(-26.954 -43.383)" fill="#263238"/>
          <path id="Path_93323" data-name="Path 93323" d="M185.789,148.529c.011.069-.731.179-1.847.595a11.827,11.827,0,0,0-6.6,6.179c-.487,1.087-.645,1.82-.714,1.8a1.412,1.412,0,0,1,.056-.527,7.5,7.5,0,0,1,.407-1.383,10.878,10.878,0,0,1,6.76-6.332,7.506,7.506,0,0,1,1.407-.316c.339-.039.525-.048.529-.021" transform="translate(-46.099 -38.763)" fill="#263238"/>
          <path id="Path_93324" data-name="Path 93324" d="M74.906,121.988c1.295-2.386.721-12.023,2.717-11.683,2.544.435.194,10.564.034,11.486-.156.9,1.174,1.151,1.273.312.143-1.207,1.628-12.992,4.133-12.329,1.389.367.75,2.9.75,2.9s-2.155,11.423-.961,11.7c1.212.278,2.107-6.314,2.64-8.71.511-2.3,2.006-3.286,2.575-2.074.833,1.776-.766,7.528-1.242,9.837s-1.666,8.991,1.574,6.379,6.693-3.43,7.768-3.011.84,2.068-.406,2.4a15.519,15.519,0,0,0-3.7,1.982,14.871,14.871,0,0,0-2.451,2.3,12.956,12.956,0,0,0-2.317,3.609,8.065,8.065,0,0,1-4.926,4.409l-1.891,9L68.226,147.87l2.732-9.524c.994-6.255.445-14.665.453-18.49.014-6.1.808-6.145,1.511-5.984,1.551.356.72,10.445,1.983,8.116" transform="translate(-17.807 -28.645)" fill="#ffd1bd"/>
          <path id="Path_93325" data-name="Path 93325" d="M76.8,137.389a13.426,13.426,0,0,1,1.629.759,6.729,6.729,0,0,1,3.133,4.554l.041.208.174-.1a10.136,10.136,0,0,1,3.174-1.2c.837-.164,1.354-.18,1.352-.224a4.072,4.072,0,0,0-1.383.033,9.123,9.123,0,0,0-3.286,1.129l.214.106a6.82,6.82,0,0,0-.38-1.355,6.9,6.9,0,0,0-1.346-2.1,6.567,6.567,0,0,0-1.59-1.236,5.556,5.556,0,0,0-1.247-.5,1.465,1.465,0,0,0-.485-.069" transform="translate(-20.045 -35.858)" fill="#cc8f75"/>
          <path id="Path_93326" data-name="Path 93326" d="M74.594,148.984a10.78,10.78,0,0,0,6,1.868c.01-.088-1.4-.25-3.049-.771s-2.9-1.176-2.948-1.1" transform="translate(-19.469 -38.884)" fill="#cc8f75"/>
          <path id="Path_93327" data-name="Path 93327" d="M131.315,136.42l-9.361,18.742L127,173.627l13.44-14.2,13.251-24.614Z" transform="translate(-31.831 -35.186)" fill="#ffd1bd"/>
          <path id="Path_93328" data-name="Path 93328" d="M103.84,137.61s-13.306,4.731-13.306,5.61v.005c-2.349,1.844-10.176,20.763-12.666,24.341l-7.117,10.486h0l5.97-23.3-13.134-3.863s-11.216,27.1-12.578,33.132a22.143,22.143,0,0,0,.212,10.811l.072-.062a12.476,12.476,0,0,0,4.919,6.618c5.569,3.571,10.767,4.243,16.088.312,3.017-2.229,6.459-4.915,9.614-7.427l.827,19.565h7.253c0-1.1-.22-14.506-.22-14.506a75.645,75.645,0,0,0,2.2-9.67c.659-4.614,11.464-34.9,11.464-34.9l8.389-16.152.2-5.977Z" transform="translate(-13.169 -34.618)" fill="#108fe5"/>
          <path id="Path_93329" data-name="Path 93329" d="M93.427,219.1a3.817,3.817,0,0,1-.063-.609q-.04-.65-.109-1.755c-.081-1.562-.194-3.766-.333-6.488-.25-5.528-.593-13.152-.978-21.691v-.022l0-.025c.156-.808.323-1.67.491-2.541,1.759-8.975,3.35-17.1,4.51-23.017.59-2.915,1.07-5.286,1.409-6.966q.255-1.193.4-1.89c.046-.2.083-.357.114-.49a.618.618,0,0,1,.052-.164.573.573,0,0,1-.013.172c-.021.135-.047.3-.077.5q-.123.7-.332,1.9l-1.29,6.992c-1.131,5.925-2.684,14.056-4.4,23.04-.168.871-.335,1.733-.492,2.541l0-.047c.336,8.541.637,16.166.856,21.7.09,2.724.163,4.93.214,6.493q.025,1.107.04,1.757a3.813,3.813,0,0,1-.011.613" transform="translate(-23.998 -40.05)" fill="#263238"/>
          <path id="Path_93330" data-name="Path 93330" d="M104.014,198.063a3.681,3.681,0,0,1,.066-.613q.1-.651.265-1.747c.253-1.552.608-3.733,1.044-6.411.925-5.44,2.192-12.893,3.591-21.127l2.572-14.75,0-.021.008-.018L116.05,143.2c.54-1.2.971-2.152,1.283-2.842l.35-.744a1.159,1.159,0,0,1,.137-.248,1.17,1.17,0,0,1-.088.269l-.3.764-1.2,2.879-4.358,10.228.011-.038-2.522,14.758c-1.443,8.226-2.749,15.673-3.7,21.109-.487,2.67-.883,4.844-1.165,6.391q-.211,1.089-.336,1.734a3.651,3.651,0,0,1-.143.6" transform="translate(-27.147 -36.376)" fill="#263238"/>
          <path id="Path_93331" data-name="Path 93331" d="M69.518,210.066c-.052-.038.519-.853,1.315-2.24a40.715,40.715,0,0,0,2.669-5.643,47.757,47.757,0,0,0,1.831-5.974c.369-1.559.54-2.538.6-2.529a2.49,2.49,0,0,1-.037.7c-.047.449-.146,1.094-.3,1.886a36.672,36.672,0,0,1-1.738,6.054,32.451,32.451,0,0,1-2.795,5.646,19.052,19.052,0,0,1-1.086,1.571c-.278.355-.441.544-.463.528" transform="translate(-18.144 -50.552)" fill="#263238"/>
          <g id="Group_46843" data-name="Group 46843" transform="translate(51.741 144.414)" opacity="0.2">
            <g id="Group_46842" data-name="Group 46842">
              <g id="Group_46841" data-name="Group 46841" clip-path="url(#clip-path-12)">
                <path id="Path_93332" data-name="Path 93332" d="M70.651,209.438a.813.813,0,0,0-.562,1.142,1.217,1.217,0,0,0,1.271.582,2.527,2.527,0,0,0,1.292-.706,8.848,8.848,0,0,0,2.261-3.945c1.124-3.56,1.178-7.358,1.222-11.092a45.44,45.44,0,0,1-5.452,13.807" transform="translate(-70.016 -195.42)"/>
              </g>
            </g>
          </g>
          <g id="Group_46846" data-name="Group 46846" transform="translate(65.791 131.992)" opacity="0.2">
            <g id="Group_46845" data-name="Group 46845">
              <g id="Group_46844" data-name="Group 46844" clip-path="url(#clip-path-13)">
                <path id="Path_93333" data-name="Path 93333" d="M91.773,206.789a19.627,19.627,0,0,1-2.683-11.976c.4-5.687,3.162-10.888,5.225-16.2-1.188,5.589-1.864,11.136-2.941,16.509,0,0,.575,7.984.588,11.53" transform="translate(-89.028 -178.611)"/>
              </g>
            </g>
          </g>
          <g id="Group_46849" data-name="Group 46849" transform="translate(77.712 106.612)" opacity="0.2">
            <g id="Group_46848" data-name="Group 46848">
              <g id="Group_46847" data-name="Group 46847" clip-path="url(#clip-path-14)">
                <path id="Path_93334" data-name="Path 93334" d="M105.16,194.261a233.383,233.383,0,0,1,2.663-25.438,81.172,81.172,0,0,1,8.569-24.555c-1.072,3.371-4.374,10.454-4.374,10.454s-4.771,25.139-6.838,37.8" transform="translate(-105.16 -144.267)"/>
              </g>
            </g>
          </g>
          <path id="Path_93335" data-name="Path 93335" d="M95.331,223.675l1.192,13.2-6.232-.024c-.166,0-2.71-.042-5.514-.089a38.706,38.706,0,0,1-6.327.169c-.176-.018-.28-.041-.293-.067a5,5,0,0,1-.961-.232h-.027l0-.009c-.565-.206-1.144-.57-1.055-1.19.273-1.892,1.4-2.044,1.4-2.044l.565-.039.046-.165c-.856,0-1.576-.021-1.957-.061-.176-.018-.28-.041-.293-.066,0,0-2.209-.262-2.04-1.431.273-1.892,1.4-2.044,1.4-2.044s.763-.055,1.819-.123c-.884,0-1.632-.019-2.022-.061-.176-.018-.28-.041-.293-.066,0,0-2.21-.262-2.04-1.431.273-1.893,1.4-2.044,1.4-2.044s.616-.044,1.505-.1c-.715,0-1.307-.026-1.64-.061-.176-.018-.281-.041-.293-.066,0,0-2.21-.262-2.041-1.431.273-1.892,1.4-2.044,1.4-2.044s3.477-.248,5.864-.347c0,0,2.708-2.442,3.774-2.329,1.594.168,10.862,3.59,10.862,3.59Z" transform="translate(-18.692 -57.284)" fill="#ffd1bd"/>
          <path id="Path_93336" data-name="Path 93336" d="M85.713,237.733a12.482,12.482,0,0,1-3.089.3,11.884,11.884,0,0,1-3.056-.1,12.413,12.413,0,0,1,3.089-.3,11.79,11.79,0,0,1,3.056.1" transform="translate(-20.768 -62.018)" fill="#cc8f75"/>
          <path id="Path_93337" data-name="Path 93337" d="M84.8,232.679a24.4,24.4,0,0,1-4.392.355,24.405,24.405,0,0,1-4.407-.044,24.5,24.5,0,0,1,4.393-.355,24.4,24.4,0,0,1,4.406.044" transform="translate(-19.838 -60.705)" fill="#cc8f75"/>
          <g id="Group_46852" data-name="Group 46852" transform="translate(55.853 168.074)" opacity="0.78">
            <g id="Group_46851" data-name="Group 46851">
              <g id="Group_46850" data-name="Group 46850" clip-path="url(#clip-path-15)">
                <path id="Path_93338" data-name="Path 93338" d="M84.378,227.534a24.41,24.41,0,0,1-4.392.355,24.42,24.42,0,0,1-4.407-.044,24.484,24.484,0,0,1,4.393-.355,24.485,24.485,0,0,1,4.406.044" transform="translate(-75.58 -227.437)" fill="#cc8f75"/>
              </g>
            </g>
          </g>
          <path id="Path_93339" data-name="Path 93339" d="M80.106,222.682a6.323,6.323,0,0,0,1.4.11l3.376.11,3.376.121a6.317,6.317,0,0,0,1.4-.014,5.8,5.8,0,0,0-1.39-.215c-.862-.086-2.057-.171-3.379-.217s-2.52-.043-3.386-.015a5.8,5.8,0,0,0-1.4.12" transform="translate(-20.908 -58.085)" fill="#cc8f75"/>
          <path id="Path_93340" data-name="Path 93340" d="M172.641,75.627c1.565-3.808,6.522-5.541,10.389-4.126s6.449,5.385,6.914,9.477a8.514,8.514,0,0,1-1.181,5.823,7.865,7.865,0,0,1-5.413,3.044,10.784,10.784,0,0,1-11.4-14.951" transform="translate(-44.658 -18.534)" fill="#263238"/>
          <path id="Path_93341" data-name="Path 93341" d="M189.95,77.94c.02.015-.072.2-.278.505a9.215,9.215,0,0,1-.994,1.213,11.032,11.032,0,0,1-9.488,3.257,9.005,9.005,0,0,1-1.529-.347,1.533,1.533,0,0,1-.53-.227c.018-.064.8.184,2.091.3a11.781,11.781,0,0,0,9.265-3.181c.947-.889,1.409-1.563,1.463-1.525" transform="translate(-46.233 -20.343)" fill="#455a64"/>
          <path id="Path_93342" data-name="Path 93342" d="M191.849,83.819c.016.021-.135.162-.423.4a13.635,13.635,0,0,1-1.284.927,14.621,14.621,0,0,1-4.819,2.024,12,12,0,0,1-2.889.229,10.666,10.666,0,0,1-2.332-.386,8.805,8.805,0,0,1-1.488-.556c-.337-.164-.517-.266-.505-.29.029-.067.781.281,2.061.582a11.961,11.961,0,0,0,2.279.295,12.78,12.78,0,0,0,2.8-.251A16.559,16.559,0,0,0,190,84.912c1.143-.661,1.811-1.145,1.849-1.094" transform="translate(-46.487 -21.876)" fill="#455a64"/>
          <path id="Path_93343" data-name="Path 93343" d="M118.336,82.932c-9.148-20.12,12.612-30.228,24.485-26.875,11.159,3.152,15.918,8.705,17.754,16.168s1.749,15.553-1.177,22.663c-1.443,3.507-4.042,7.068-7.807,7.507" transform="translate(-30.316 -14.466)" fill="#263238"/>
          <path id="Path_93344" data-name="Path 93344" d="M130.08,135.209c-.158-9.613-.27-22.818-.273-22.763,0,0-8.263-1.372-9.975-12.153-.851-5.361-.582-14.152-.129-21.338.408-6.468,4.693-14.4,11.137-13.721l20.124,5.086a3.792,3.792,0,0,1,3.393,3.846l-1.311,41.624" transform="translate(-31.132 -17.016)" fill="#ffd1bd"/>
          <path id="Path_93345" data-name="Path 93345" d="M126.531,93.749a1.374,1.374,0,0,0,1.309,1.4,1.314,1.314,0,0,0,1.431-1.222,1.375,1.375,0,0,0-1.307-1.4,1.316,1.316,0,0,0-1.433,1.223" transform="translate(-33.025 -24.149)" fill="#263238"/>
          <path id="Path_93346" data-name="Path 93346" d="M146.71,93.749a1.374,1.374,0,0,0,1.309,1.4,1.314,1.314,0,0,0,1.431-1.222,1.375,1.375,0,0,0-1.307-1.4,1.316,1.316,0,0,0-1.433,1.223" transform="translate(-38.292 -24.149)" fill="#263238"/>
          <path id="Path_93347" data-name="Path 93347" d="M133.3,100.133a9.9,9.9,0,0,0-2.417-.436c-.38-.039-.74-.115-.8-.374a1.93,1.93,0,0,1,.254-1.126q.535-1.379,1.123-2.892c1.56-4.119,2.69-7.506,2.524-7.567s-1.567,3.227-3.127,7.346q-.563,1.523-1.077,2.91a2.2,2.2,0,0,0-.2,1.491.949.949,0,0,0,.624.556,2.59,2.59,0,0,0,.645.09,9.683,9.683,0,0,0,2.45,0" transform="translate(-33.802 -22.9)" fill="#263238"/>
          <path id="Path_93348" data-name="Path 93348" d="M133.5,127.835a27.424,27.424,0,0,0,14.438-3.852s-3.648,7.5-14.438,6.492Z" transform="translate(-34.845 -32.36)" fill="#cc8f75"/>
          <path id="Path_93349" data-name="Path 93349" d="M163.747,95.553c.158-.076,5.771-2.558,5.837,3.9s-6.428,5.189-6.441,5,.6-8.9.6-8.9" transform="translate(-42.581 -24.801)" fill="#ffd1bd"/>
          <path id="Path_93350" data-name="Path 93350" d="M165.775,102.64c.028-.021.113.078.3.163a1.124,1.124,0,0,0,.84.009,2.784,2.784,0,0,0,1.262-2.51,3.716,3.716,0,0,0-.331-1.607,1.3,1.3,0,0,0-.855-.854.573.573,0,0,0-.661.315c-.084.181-.042.31-.076.321-.018.016-.14-.106-.09-.374a.714.714,0,0,1,.25-.407.85.85,0,0,1,.62-.171,1.581,1.581,0,0,1,1.185.989,3.806,3.806,0,0,1,.408,1.8,2.92,2.92,0,0,1-1.612,2.8,1.2,1.2,0,0,1-1.03-.16c-.2-.157-.237-.3-.214-.313" transform="translate(-43.267 -25.454)" fill="#cc8f75"/>
          <path id="Path_93351" data-name="Path 93351" d="M135.161,109.573a6.2,6.2,0,0,0,.8,1.572,2.091,2.091,0,0,0,1.485.862,1.874,1.874,0,0,0,1.584-.865,2.988,2.988,0,0,0,.442-1.8c-.026-.568-.286-1.246-.851-1.313a1.415,1.415,0,0,0-.686.152l-2.968,1.2" transform="translate(-35.228 -28.195)" fill="#cc8f75"/>
          <path id="Path_93352" data-name="Path 93352" d="M136.147,111.924a4.3,4.3,0,0,0,1.583-.2,2.261,2.261,0,0,0,1.2-1.087,2.383,2.383,0,0,0,.039-1.942,2.126,2.126,0,0,0-.259-.443c-.118-.123-.1-.117-.224-.1s-.316.124-.476.187l-.487.2c-.636.257-1.21.482-1.7.664a5.4,5.4,0,0,1-1.616.486,5.42,5.42,0,0,1,1.469-.831c.467-.225,1.027-.486,1.652-.768l.48-.214a5.219,5.219,0,0,1,.542-.223.686.686,0,0,1,.44.013.819.819,0,0,1,.327.259,2.545,2.545,0,0,1,.333.563,2.78,2.78,0,0,1-.09,2.374,2.539,2.539,0,0,1-1.507,1.218,2.388,2.388,0,0,1-1.286.05c-.3-.078-.434-.178-.422-.208" transform="translate(-35.029 -28.091)" fill="#263238"/>
          <path id="Path_93353" data-name="Path 93353" d="M171.779,89.761c-.661-.047-5.992.644-5.572,10.553.392,9.256,6.885,7.218,8.957,3.733,1.963-3.3,3.1-13.831-3.385-14.286" transform="translate(-43.375 -23.428)" fill="#455a64"/>
          <path id="Path_93354" data-name="Path 93354" d="M175.77,86.513a1.229,1.229,0,0,1-.025-.261c-.008-.193-.019-.443-.031-.754-.019-.684-.046-1.638-.079-2.822-.049-2.434-.117-5.815-.2-9.719l.12.118-2.748,0,.123-.126c.02.738.041,1.516.063,2.306.092,3.719.178,7.182.25,10.081l0,.086-.083.019a5,5,0,0,0-2.831,1.822,6.687,6.687,0,0,0-1.131,2.391,10.019,10.019,0,0,0-.291,1.692c-.017.2-.027.35-.032.452a.669.669,0,0,1-.016.156.531.531,0,0,1-.017-.156c-.006-.1-.007-.256,0-.456a8.771,8.771,0,0,1,.237-1.718,6.658,6.658,0,0,1,1.112-2.463,5.149,5.149,0,0,1,2.918-1.924l-.081.1c-.083-2.9-.183-6.361-.29-10.08-.021-.79-.041-1.568-.061-2.306l0-.127h.126l2.748,0h.118l0,.117c.043,3.9.08,7.286.106,9.72,0,1.186.007,2.139.01,2.824,0,.312-.007.562-.008.755a1.237,1.237,0,0,1-.017.262" transform="translate(-44.07 -19.009)" fill="#455a64"/>
          <path id="Path_93355" data-name="Path 93355" d="M167.612,68.464a21.263,21.263,0,0,0-9.431-9.744,39.445,39.445,0,0,0-7.958-2.951s3.876-.92,10.147,1.87a19.213,19.213,0,0,1,7.62,5.393c1.206,1.572,2.711,4.644,2.708,5.432Z" transform="translate(-39.209 -14.518)" fill="#455a64"/>
          <path id="Path_93356" data-name="Path 93356" d="M171.728,106.947a.583.583,0,0,1-.187-.054,2.864,2.864,0,0,1-.5-.256,4.343,4.343,0,0,1-1.4-1.491,7.163,7.163,0,0,1-.858-2.906,21.175,21.175,0,0,1,0-3.7,22.553,22.553,0,0,1,.613-3.651,10.486,10.486,0,0,1,1.066-2.835,4.359,4.359,0,0,1,1.406-1.482,2.944,2.944,0,0,1,.5-.252.5.5,0,0,1,.188-.051c.01.021-.245.11-.632.383a4.576,4.576,0,0,0-1.307,1.491,10.86,10.86,0,0,0-1,2.8,23.866,23.866,0,0,0-.588,3.617,22.311,22.311,0,0,0-.016,3.66,7.2,7.2,0,0,0,.782,2.841,4.513,4.513,0,0,0,1.3,1.5c.384.279.638.369.627.391" transform="translate(-44.034 -23.559)" fill="#263238"/>
          <path id="Path_93357" data-name="Path 93357" d="M142.278,113.653l-5.1,1a1.257,1.257,0,0,1-1.475-.991l-.075-.386a1.256,1.256,0,0,1,.991-1.475l5.1-1a1.257,1.257,0,0,1,1.475.992l.075.386a1.256,1.256,0,0,1-.991,1.475" transform="translate(-35.393 -28.913)" fill="#455a64"/>
          <path id="Path_93358" data-name="Path 93358" d="M145.005,109.3l22.653-7.107a1.068,1.068,0,1,1,.6,2.051L145.092,110.5Z" transform="translate(-37.847 -26.661)" fill="#455a64"/>
          <path id="Path_93359" data-name="Path 93359" d="M166.216,106.185a5.032,5.032,0,0,1,.75-.264c.53-.162,1.228-.373,2.071-.631.869-.268,1.936-.551,3.065-.921a2.053,2.053,0,0,0,.742-.457,1.134,1.134,0,0,0,.319-.788.686.686,0,0,0-.468-.649,1.753,1.753,0,0,0-.947.029l-6.791,2.185-2.069.639a4.682,4.682,0,0,1-.769.2,4.92,4.92,0,0,1,.739-.295l2.044-.714c1.734-.589,4.113-1.4,6.786-2.258a1.956,1.956,0,0,1,1.09-.022.936.936,0,0,1,.63.876,1.373,1.373,0,0,1-.393.96,2.282,2.282,0,0,1-.829.5c-1.171.37-2.215.627-3.1.876l-2.093.555a4.8,4.8,0,0,1-.777.171" transform="translate(-42.314 -26.668)" fill="#263238"/>
          <path id="Path_93360" data-name="Path 93360" d="M149.084,89.392c-.174.273-1.726-.573-3.65-.225-1.93.32-3.107,1.638-3.362,1.44-.123-.086,0-.564.52-1.147a4.716,4.716,0,0,1,5.616-.973c.682.376.963.784.876.905" transform="translate(-37.07 -22.958)" fill="#cc8f75"/>
          <path id="Path_93361" data-name="Path 93361" d="M148.891,89.951a7.759,7.759,0,0,1-1.06-.267,5.688,5.688,0,0,0-4.853,1.091c-.524.409-.8.733-.844.7s.161-.415.667-.9a5.124,5.124,0,0,1,5.1-1.148c.664.222,1.011.49.988.529" transform="translate(-37.097 -23.274)" fill="#263238"/>
          <path id="Path_93362" data-name="Path 93362" d="M149.949,83.882c-.157.517-1.8.479-3.765.573-1.961.061-3.613.211-3.8-.3-.083-.248.254-.624.925-.964a7.029,7.029,0,0,1,2.8-.662,6.917,6.917,0,0,1,2.847.452c.7.29,1.058.647.991.9" transform="translate(-37.16 -21.54)" fill="#263238"/>
          <path id="Path_93363" data-name="Path 93363" d="M128.488,90.555c-.149.084-.44-.193-.906-.514a4.706,4.706,0,0,0-1.964-.794c-1.67-.276-3.011.5-3.205.225-.089-.116.138-.5.729-.868a4.01,4.01,0,0,1,2.653-.5,3.642,3.642,0,0,1,2.362,1.355c.418.576.458,1.027.33,1.093" transform="translate(-31.946 -22.984)" fill="#cc8f75"/>
          <path id="Path_93364" data-name="Path 93364" d="M128.432,91.64c-.052.034-.3-.336-.823-.8a5.188,5.188,0,0,0-5.042-1.1c-.668.2-1.049.435-1.081.383-.027-.034.307-.355.99-.639a4.834,4.834,0,0,1,5.324,1.157c.5.542.672.974.633.994" transform="translate(-31.708 -23.266)" fill="#263238"/>
          <path id="Path_93365" data-name="Path 93365" d="M129.289,84.8c-.1.53-1.67.682-3.537.7s-3.444-.118-3.548-.647c-.107-.513,1.462-1.265,3.532-1.278s3.651.707,3.552,1.222" transform="translate(-31.895 -21.815)" fill="#263238"/>
          <path id="Path_93366" data-name="Path 93366" d="M154.162,64.488a21.392,21.392,0,0,0-2.952,5.562,7.229,7.229,0,0,0,.632,6.081c1.136,1.669,3.084,2.542,4.854,3.51s3.587,2.3,4.027,4.266c.137.616-.126,2.768.337,3.2a1.572,1.572,0,0,0,2.232-.493,11.156,11.156,0,0,0,.807-3.951q.057-4.029.113-8.059a14.825,14.825,0,0,0-.984-6.683c-1.378-2.867-4.235-3.785-8.4-3.581" transform="translate(-39.368 -16.786)" fill="#263238"/>
          <path id="Path_93367" data-name="Path 93367" d="M119.431,79.7a15.208,15.208,0,0,1,3.059-7.527,11.147,11.147,0,0,1,6.894-4.13c2.719-.409,5.466.344,8.211.5s5.872-.517,7.3-2.864a2.075,2.075,0,0,0,.087-2.4,2.427,2.427,0,0,0-.806-.53,20.681,20.681,0,0,0-11.751-1.9,16.225,16.225,0,0,0-10.294,5.757,13.377,13.377,0,0,0-2.61,11.363" transform="translate(-31.103 -15.833)" fill="#263238"/>
          <path id="Path_93368" data-name="Path 93368" d="M117.153,76.255a1.375,1.375,0,0,1-.128-.351,6.292,6.292,0,0,1-.218-1.05,9.073,9.073,0,0,1,.369-3.916,10.414,10.414,0,0,1,3.24-4.837,13.493,13.493,0,0,1,6.5-2.923,18.348,18.348,0,0,1,7.138.321,25.008,25.008,0,0,1,2.991.9c.921.337,1.744.711,2.53.922a10.856,10.856,0,0,0,3.832.341,2.805,2.805,0,0,0,1.25-.616.966.966,0,0,1-.248.282,2.282,2.282,0,0,1-.97.479,10.231,10.231,0,0,1-3.934-.224c-.82-.2-1.659-.566-2.569-.885a25.84,25.84,0,0,0-2.963-.857,18.4,18.4,0,0,0-7-.288,13.34,13.34,0,0,0-6.338,2.816,10.315,10.315,0,0,0-3.209,4.65,9.445,9.445,0,0,0-.48,3.815c.082.915.236,1.408.2,1.417" transform="translate(-30.469 -16.434)" fill="#455a64"/>
          <path id="Path_93369" data-name="Path 93369" d="M133.439,57.943a2.087,2.087,0,0,1,.678-.131,9.389,9.389,0,0,1,1.885,0,10.982,10.982,0,0,1,5.734,2.294c.956.762,1.754,1.585,2.6,2.159a6.845,6.845,0,0,0,2.493,1,5.648,5.648,0,0,0,1.819.123c.429-.052.647-.167.663-.136a1.209,1.209,0,0,1-.636.284,5.027,5.027,0,0,1-1.9,0,6.717,6.717,0,0,1-2.64-.978c-.9-.585-1.712-1.414-2.64-2.15a11.475,11.475,0,0,0-5.527-2.326c-1.55-.208-2.527-.064-2.532-.137" transform="translate(-34.829 -15.077)" fill="#455a64"/>
          <path id="Path_93370" data-name="Path 93370" d="M170.8,83.328c-.035.016-.149-.256-.461-.67a4.627,4.627,0,0,0-1.714-1.318,7.306,7.306,0,0,0-3.152-.632,24.438,24.438,0,0,0-3.983.551,14.639,14.639,0,0,1-4.082.309,11.26,11.26,0,0,1-3.255-.785,10.193,10.193,0,0,1-1.983-1.067,2.7,2.7,0,0,1-.636-.525,21.225,21.225,0,0,0,2.718,1.338,11.756,11.756,0,0,0,3.184.686,15.088,15.088,0,0,0,3.985-.335,22.651,22.651,0,0,1,4.05-.527,7.3,7.3,0,0,1,3.274.742,4.422,4.422,0,0,1,1.716,1.476,3.063,3.063,0,0,1,.281.549c.05.132.071.2.058.208" transform="translate(-39.551 -20.669)" fill="#455a64"/>
          <path id="Path_93371" data-name="Path 93371" d="M169.857,75.715c-.031.015-.143-.253-.46-.647a4.3,4.3,0,0,0-1.722-1.216,6.44,6.44,0,0,0-3.115-.331c-1.2.118-2.485.48-3.882.74a8.326,8.326,0,0,1-4.017-.063,6.553,6.553,0,0,1-2.793-1.731,6.031,6.031,0,0,1-1.228-1.839,3.633,3.633,0,0,1-.2-.568c-.034-.133-.047-.2-.033-.208a8.413,8.413,0,0,0,1.65,2.422,6.508,6.508,0,0,0,2.7,1.583,8.225,8.225,0,0,0,3.846.024c1.37-.255,2.679-.612,3.917-.715a6.486,6.486,0,0,1,3.254.434,4.125,4.125,0,0,1,1.736,1.376,1.722,1.722,0,0,1,.341.738" transform="translate(-39.779 -18.232)" fill="#455a64"/>
          <path id="Path_93372" data-name="Path 93372" d="M138.541,160.882a1.1,1.1,0,0,1,.137-.115c.092-.075.234-.177.412-.325a18.335,18.335,0,0,0,1.5-1.366,25.886,25.886,0,0,0,2.121-2.462c.777-1.01,1.607-2.213,2.516-3.561,1.819-2.694,3.947-5.972,6.205-9.754,1.131-1.89,2.3-3.9,3.472-6.032l.887-1.616a10.151,10.151,0,0,1,1.011-1.608,3.541,3.541,0,0,1,1.568-1.137,1.9,1.9,0,0,1,1-.109.965.965,0,0,1,.474.26,1.114,1.114,0,0,1,.255.483l.01.035-.013.037a1.754,1.754,0,0,1-.349.61.992.992,0,0,1-.648.31,2.078,2.078,0,0,1-1.281-.441,2.167,2.167,0,0,1-.822-2.521,1.921,1.921,0,0,1,.94-1.072,2.137,2.137,0,0,1,1.4-.2,1.488,1.488,0,0,1,1.137.883.756.756,0,0,1-.165.783,1.39,1.39,0,0,1-.664.362,1.963,1.963,0,0,1-2.167-.991,1.769,1.769,0,0,1-.127-1.268,2.141,2.141,0,0,1,.658-1.071,1.707,1.707,0,0,1,1.151-.448,1.362,1.362,0,0,1,1.09.573.9.9,0,0,1,.135.653.86.86,0,0,1-.36.558,1.328,1.328,0,0,1-1.2.15,1.485,1.485,0,0,1-.808-.894,3.238,3.238,0,0,1-.182-1.17,4.124,4.124,0,0,1,.583-2.225,1.687,1.687,0,0,1,.924-.7,1.476,1.476,0,0,1,1.117.2,1.1,1.1,0,0,1,.561,1,1.013,1.013,0,0,1-.738.86,1.188,1.188,0,0,1-1.085-.177,1.527,1.527,0,0,1-.547-.95,2.2,2.2,0,0,1,.092-1.07,4.923,4.923,0,0,1,.366-.975,1.864,1.864,0,0,1,.7-.773,2.3,2.3,0,0,1,.956-.324.974.974,0,0,1,.521.07,1.135,1.135,0,0,1,.391.347,1.308,1.308,0,0,1,.215.471.733.733,0,0,1-.063.538.855.855,0,0,1-.915.356,1.556,1.556,0,0,1-.842-.436,2.512,2.512,0,0,1-.725-1.666,2.667,2.667,0,0,1,.452-1.7,2.024,2.024,0,0,1,.628-.589,1.768,1.768,0,0,1,.8-.223,1.22,1.22,0,0,1,.787.234.877.877,0,0,1,.333.752,1.22,1.22,0,0,1-1.061,1.032,1.3,1.3,0,0,1-1.212-.684,2.185,2.185,0,0,1-.3-1.312,8,8,0,0,1,.8-2.254l.806-1.832,1.123-2.53.3-.655c.069-.147.109-.22.109-.22s-.025.08-.086.231l-.275.666c-.252.593-.615,1.451-1.08,2.55q-.356.83-.786,1.839a7.966,7.966,0,0,0-.773,2.216,2.029,2.029,0,0,0,.29,1.219,1.147,1.147,0,0,0,1.068.605,1.06,1.06,0,0,0,.912-.883.7.7,0,0,0-.271-.6,1.049,1.049,0,0,0-.678-.194,1.592,1.592,0,0,0-.721.2,1.841,1.841,0,0,0-.565.536,2.478,2.478,0,0,0-.41,1.575,2.317,2.317,0,0,0,.67,1.53,1.353,1.353,0,0,0,.738.38.656.656,0,0,0,.705-.254.771.771,0,0,0-.142-.776.929.929,0,0,0-.316-.279.767.767,0,0,0-.411-.049,1.819,1.819,0,0,0-1.479.985,4.631,4.631,0,0,0-.345.929,1.943,1.943,0,0,0-.084.966,1.3,1.3,0,0,0,.463.808.966.966,0,0,0,.882.138.775.775,0,0,0,.573-.656.865.865,0,0,0-.454-.774,1.252,1.252,0,0,0-.939-.171,1.462,1.462,0,0,0-.786.6,3.893,3.893,0,0,0-.535,2.085,2.99,2.99,0,0,0,.167,1.077,1.246,1.246,0,0,0,.667.752,1.089,1.089,0,0,0,.976-.12.622.622,0,0,0,.16-.865,1.128,1.128,0,0,0-.894-.461,1.468,1.468,0,0,0-.982.387,1.642,1.642,0,0,0,1.418,2.89,1.157,1.157,0,0,0,.545-.291.49.49,0,0,0,.109-.52,1.252,1.252,0,0,0-.954-.72,1.8,1.8,0,0,0-2.057,1.1,1.911,1.911,0,0,0,.728,2.227,1.856,1.856,0,0,0,1.125.4.957.957,0,0,0,.786-.75l0,.071a.715.715,0,0,0-.546-.565,1.678,1.678,0,0,0-.87.1,3.288,3.288,0,0,0-1.464,1.06,9.917,9.917,0,0,0-.988,1.567q-.45.816-.89,1.616c-1.183,2.128-2.354,4.141-3.492,6.029-2.274,3.778-4.419,7.048-6.257,9.732-.918,1.343-1.759,2.541-2.549,3.548a24.8,24.8,0,0,1-2.158,2.447,12.99,12.99,0,0,1-2.11,1.745" transform="translate(-36.16 -29.491)" fill="#263238"/>
        </g>
      </g>
    </g>
  </g>
</svg>
