<svg id="Cancer-fighting_foods" data-name="Cancer-fighting foods" xmlns="http://www.w3.org/2000/svg" xmlns:xlink="http://www.w3.org/1999/xlink" width="333.205" height="318.198" viewBox="0 0 333.205 318.198">
  <defs>
    <clipPath id="clip-path">
      <rect id="Rectangle_8452" data-name="Rectangle 8452" width="333.205" height="318.198" fill="none"/>
    </clipPath>
    <clipPath id="clip-path-4">
      <rect id="Rectangle_8441" data-name="Rectangle 8441" width="9.379" height="41.181" fill="none"/>
    </clipPath>
    <clipPath id="clip-path-5">
      <rect id="Rectangle_8442" data-name="Rectangle 8442" width="6.133" height="42.701" fill="none"/>
    </clipPath>
    <clipPath id="clip-path-6">
      <rect id="Rectangle_8443" data-name="Rectangle 8443" width="17.862" height="42.523" fill="none"/>
    </clipPath>
    <clipPath id="clip-path-7">
      <rect id="Rectangle_8444" data-name="Rectangle 8444" width="36.814" height="4.331" fill="none"/>
    </clipPath>
    <clipPath id="clip-path-12">
      <rect id="Rectangle_8449" data-name="Rectangle 8449" width="24.572" height="13.777" fill="none"/>
    </clipPath>
    <clipPath id="clip-path-13">
      <rect id="Rectangle_8450" data-name="Rectangle 8450" width="72.763" height="52.704" fill="none"/>
    </clipPath>
  </defs>
  <g id="Group_46886" data-name="Group 46886" clip-path="url(#clip-path)">
    <g id="Group_46857" data-name="Group 46857">
      <g id="Group_46856" data-name="Group 46856" clip-path="url(#clip-path)">
        <path id="Path_93374" data-name="Path 93374" d="M390.408,240.731s-12.708-65.837-12.736-79.38c-.04-18.743,14.308-26.2,14.308-26.2l-5.575-15.9H417.07l-4.842,15.788s16.147,8.56,13.9,28c-4.21,36.346-10.92,77.7-10.92,77.7Z" transform="translate(-108.391 -34.224)" fill="#f5f5f5"/>
        <path id="Path_93375" data-name="Path 93375" d="M420.5,151.952a1.941,1.941,0,0,1-.341-.026,8.081,8.081,0,0,0-1-.045,9.6,9.6,0,0,0-3.723.817,13.086,13.086,0,0,0-4.777,3.648,22.956,22.956,0,0,0-2.195,3.091,26.8,26.8,0,0,0-1.927,3.787,11.327,11.327,0,0,0-.893,4.52,7.028,7.028,0,0,0,1.817,4.52,4.932,4.932,0,0,0,2.17,1.363,4.3,4.3,0,0,0,2.613-.068,6.144,6.144,0,0,0,3.674-3.972,5.94,5.94,0,0,0-1.283-5.5,8.971,8.971,0,0,0-5.258-3.047,12.009,12.009,0,0,0-6.339.762,19.771,19.771,0,0,0-5.694,3.474,20.044,20.044,0,0,0-6.7,11.111,13.843,13.843,0,0,0,.123,6.205,9.145,9.145,0,0,0,3.022,5.012,5.186,5.186,0,0,0,2.539,1.165,3.894,3.894,0,0,0,2.617-.516,5.387,5.387,0,0,0,2.34-4.491,5.537,5.537,0,0,0-.488-2.447,6.136,6.136,0,0,0-1.465-1.924,8.549,8.549,0,0,0-4.136-1.925,11.856,11.856,0,0,0-7.73,1.339,13.913,13.913,0,0,0-4.558,3.927,12.854,12.854,0,0,0-1.843,3.357c-.307.824-.407,1.28-.434,1.272a8.619,8.619,0,0,1,.351-1.3,12.364,12.364,0,0,1,1.789-3.429,13.947,13.947,0,0,1,4.579-4.041,12.075,12.075,0,0,1,7.9-1.429,8.857,8.857,0,0,1,4.306,1.977,6.471,6.471,0,0,1,1.559,2.029,5.876,5.876,0,0,1,.534,2.6,5.751,5.751,0,0,1-2.5,4.814,4.286,4.286,0,0,1-2.872.579,5.58,5.58,0,0,1-2.738-1.241,9.543,9.543,0,0,1-3.175-5.225,14.239,14.239,0,0,1-.14-6.391,20.436,20.436,0,0,1,6.839-11.363,20.147,20.147,0,0,1,5.823-3.549,12.411,12.411,0,0,1,6.573-.778,9.381,9.381,0,0,1,5.507,3.206,7.3,7.3,0,0,1,1.426,2.8,5.6,5.6,0,0,1-.081,3.078,6.529,6.529,0,0,1-3.936,4.221,4.691,4.691,0,0,1-2.846.063,5.309,5.309,0,0,1-2.328-1.473,7.372,7.372,0,0,1-1.89-4.759,11.626,11.626,0,0,1,.944-4.647,26.884,26.884,0,0,1,1.977-3.817,22.871,22.871,0,0,1,2.247-3.107,13.134,13.134,0,0,1,4.9-3.646,9.353,9.353,0,0,1,3.79-.748,5.883,5.883,0,0,1,1.34.159" transform="translate(-109.24 -43.563)" fill="#e0e0e0"/>
        <path id="Path_93376" data-name="Path 93376" d="M422.168,220.217a11.147,11.147,0,0,1-.281,3.348,14.519,14.519,0,0,1-1.345,3.716,14.2,14.2,0,0,1-3.213,4.132,13.321,13.321,0,0,1-5.611,2.947,13.688,13.688,0,0,1-7.267-.106,12.691,12.691,0,0,1-6.544-4.613,12.2,12.2,0,0,1-2.513-8.2,6.051,6.051,0,0,1,1.813-4.036,4.4,4.4,0,0,1,4.184-.828,5.246,5.246,0,0,1,3.238,2.595,5.948,5.948,0,0,1,.425,3.963A7.379,7.379,0,0,1,403.3,226.5a8.53,8.53,0,0,1-2.943,2.027,12.32,12.32,0,0,1-6.285.793,15.027,15.027,0,0,1-8.252-3.788,10.95,10.95,0,0,1-2.168-2.565.833.833,0,0,1,.15.164l.4.506a16.16,16.16,0,0,0,1.73,1.768,14.942,14.942,0,0,0,3.246,2.158,14.709,14.709,0,0,0,4.928,1.45,12.057,12.057,0,0,0,6.106-.818,8.175,8.175,0,0,0,2.8-1.953,6.991,6.991,0,0,0,1.644-3.187,5.538,5.538,0,0,0-.4-3.687,4.831,4.831,0,0,0-2.982-2.371,3.966,3.966,0,0,0-3.776.742,5.631,5.631,0,0,0-1.665,3.75,11.811,11.811,0,0,0,2.419,7.9,12.327,12.327,0,0,0,6.316,4.483,13.366,13.366,0,0,0,7.062.14,13.078,13.078,0,0,0,5.5-2.827,14.1,14.1,0,0,0,3.2-4.013,14.806,14.806,0,0,0,1.4-3.64,16.492,16.492,0,0,0,.385-2.444c.014-.262.026-.473.036-.645a.842.842,0,0,1,.027-.22" transform="translate(-110.107 -62.1)" fill="#e0e0e0"/>
        <path id="Path_93377" data-name="Path 93377" d="M419.488,264.213c-.04.085-1.373-.636-3.694-1.308a18.154,18.154,0,0,0-1.918-.458c-.692-.161-1.447-.236-2.236-.339a24.435,24.435,0,0,0-10.225,1.14c-.748.275-1.468.514-2.107.824a18.32,18.32,0,0,0-1.77.869c-2.116,1.167-3.257,2.163-3.315,2.089a4.845,4.845,0,0,1,.784-.714,9.2,9.2,0,0,1,.991-.752,14.977,14.977,0,0,1,1.387-.893,16.83,16.83,0,0,1,1.772-.93,22.314,22.314,0,0,1,2.127-.876,23.425,23.425,0,0,1,10.4-1.159,22.276,22.276,0,0,1,2.267.385,16.721,16.721,0,0,1,1.934.518,15.052,15.052,0,0,1,1.55.566,9.052,9.052,0,0,1,1.132.515,4.811,4.811,0,0,1,.922.523" transform="translate(-113.141 -75.068)" fill="#e0e0e0"/>
        <path id="Path_93378" data-name="Path 93378" d="M414.618,142.707a6.643,6.643,0,0,1-1.015.71c-.665.44-1.661,1.022-2.92,1.691a50.289,50.289,0,0,1-21.367,5.733c-1.425.051-2.579.046-3.375,0a6.77,6.77,0,0,1-1.234-.107,6.608,6.608,0,0,1,1.236-.064c.794,0,1.942-.046,3.356-.137a55.706,55.706,0,0,0,21.241-5.7c1.27-.63,2.285-1.168,2.975-1.561a6.63,6.63,0,0,1,1.1-.563" transform="translate(-110.41 -40.956)" fill="#e0e0e0"/>
        <path id="Path_93379" data-name="Path 93379" d="M420.941,120.2c-.006.045-.754-.07-2.113-.071a18.15,18.15,0,0,0-9.225,2.558,16.736,16.736,0,0,0-1.807,1.248,9.085,9.085,0,0,0-1.651,1.6,4.8,4.8,0,0,0-1.01,2.118,2.429,2.429,0,0,0,.708,2.175,5.207,5.207,0,0,0,2.267,1.144,5.7,5.7,0,0,0,2.6.3,1.966,1.966,0,0,0,1.4-1.857,4.576,4.576,0,0,0-.514-2.471,7.812,7.812,0,0,0-3.418-3.435,9.944,9.944,0,0,0-4.3-1.164,11.82,11.82,0,0,0-3.87.573,17.741,17.741,0,0,0-5.051,2.659c-.543.407-.956.738-1.233.965a2.582,2.582,0,0,1-.437.333,2.6,2.6,0,0,1,.379-.4c.26-.25.656-.6,1.189-1.034a16.911,16.911,0,0,1,5.058-2.82,11.963,11.963,0,0,1,3.977-.642,10.231,10.231,0,0,1,4.476,1.171,8.187,8.187,0,0,1,3.616,3.606,5,5,0,0,1,.562,2.7,2.928,2.928,0,0,1-.481,1.383,2.134,2.134,0,0,1-1.245.856,6,6,0,0,1-2.823-.3,5.592,5.592,0,0,1-2.451-1.259,2.853,2.853,0,0,1-.821-2.547,5.189,5.189,0,0,1,1.105-2.3,9.386,9.386,0,0,1,1.732-1.658,16.828,16.828,0,0,1,1.86-1.258,17.957,17.957,0,0,1,3.677-1.621,17.19,17.19,0,0,1,5.735-.794,13.022,13.022,0,0,1,1.571.138,2.573,2.573,0,0,1,.54.1" transform="translate(-112.872 -34.426)" fill="#e0e0e0"/>
        <path id="Path_93380" data-name="Path 93380" d="M120.044,53.721v60.367H33.34L30.217,54.144Z" transform="translate(-8.672 -15.418)" fill="#e0e0e0"/>
        <rect id="Rectangle_8433" data-name="Rectangle 8433" width="86.703" height="59.817" transform="translate(21.545 38.726)" fill="#fff"/>
        <path id="Path_93381" data-name="Path 93381" d="M117.166,114.377H29.641V53.737h87.525Zm-86.7-.823h85.88v-59H30.463Z" transform="translate(-8.507 -15.422)" fill="#e0e0e0"/>
        <rect id="Rectangle_8434" data-name="Rectangle 8434" width="67.922" height="44.954" transform="translate(30.935 46.158)" fill="#fff"/>
        <path id="Path_93382" data-name="Path 93382" d="M111.223,64.658s-.117.008-.335.011l-.965.011-3.73.024-14,.053-48.894.1.2-.2c0,13.735.011,28.953.018,44.948v.006L43.3,109.4l67.922.043-.171.171c.038-13.68.068-24.9.09-32.708.019-3.9.034-6.954.043-9.044q.013-1.55.019-2.376c.006-.539.019-.825.019-.825s.012.262.019.789q.006.815.019,2.345c.01,2.082.024,5.119.044,9.007.021,7.836.052,19.089.089,32.814v.17h-.171l-67.922.043h-.214v-.22c.006-16,.012-31.214.018-44.948v-.2h.2l49.023.1,13.952.053,3.691.024.944.011c.21,0,.312.011.312.011" transform="translate(-12.366 -18.5)" fill="#e0e0e0"/>
        <path id="Path_93383" data-name="Path 93383" d="M30.216,54.076a7.336,7.336,0,0,1,1.491.965c.887.641,2.095,1.549,3.4,2.592s2.451,2.031,3.259,2.771a7.069,7.069,0,0,1,1.242,1.271c-.081.091-2.165-1.628-4.769-3.708a47.351,47.351,0,0,1-4.622-3.892" transform="translate(-8.671 -15.519)" fill="#e0e0e0"/>
        <path id="Path_93384" data-name="Path 93384" d="M148.039,54.311a42.051,42.051,0,0,1-4.562,3.884,42.031,42.031,0,0,1-4.828,3.548,42.126,42.126,0,0,1,4.563-3.884,42.129,42.129,0,0,1,4.828-3.548" transform="translate(-39.791 -15.586)" fill="#e0e0e0"/>
        <path id="Path_93385" data-name="Path 93385" d="M147.832,135.067l-9.667-7.835" transform="translate(-39.653 -36.515)" fill="#fff"/>
        <path id="Path_93386" data-name="Path 93386" d="M138.164,127.231a45.371,45.371,0,0,1,4.968,3.751,45.273,45.273,0,0,1,4.7,4.084,45.346,45.346,0,0,1-4.968-3.751,45.447,45.447,0,0,1-4.7-4.084" transform="translate(-39.652 -36.514)" fill="#e0e0e0"/>
        <path id="Path_93387" data-name="Path 93387" d="M30.216,135.248a41.135,41.135,0,0,1,4.514-3.843,41.175,41.175,0,0,1,4.781-3.508A41.241,41.241,0,0,1,35,131.741a41.209,41.209,0,0,1-4.78,3.507" transform="translate(-8.671 -36.705)" fill="#e0e0e0"/>
        <rect id="Rectangle_8435" data-name="Rectangle 8435" width="42.738" height="15.052" transform="translate(44.726 60.163)" fill="#e0e0e0"/>
        <rect id="Rectangle_8436" data-name="Rectangle 8436" width="68.358" height="71.257" transform="translate(145.579 0.021)" fill="#e0e0e0"/>
        <rect id="Rectangle_8437" data-name="Rectangle 8437" width="68.358" height="71.257" transform="translate(140.95 0.021)" fill="#fafafa"/>
        <path id="Path_93388" data-name="Path 93388" d="M266.056,71.3h-68.4V0h68.4ZM197.7,71.257h68.315V.042H197.7Z" transform="translate(-56.727)" fill="#e0e0e0"/>
        <rect id="Rectangle_8438" data-name="Rectangle 8438" width="49.979" height="52.099" transform="translate(150.139 9.6)" fill="#fafafa"/>
        <path id="Path_93389" data-name="Path 93389" d="M206.9,87.019a8.2,8.2,0,0,1-1.233,1.434c-.8.842-1.919,1.982-3.177,3.221s-2.413,2.342-3.265,3.126a7.935,7.935,0,0,1-1.445,1.2,7.981,7.981,0,0,1,1.227-1.428c.8-.842,1.922-1.985,3.184-3.227s2.419-2.348,3.271-3.131a7.805,7.805,0,0,1,1.438-1.2" transform="translate(-56.762 -24.973)" fill="#e0e0e0"/>
        <path id="Path_93390" data-name="Path 93390" d="M280.669,86.84a8.145,8.145,0,0,1,1.434,1.233c.843.8,1.983,1.92,3.221,3.178s2.342,2.413,3.125,3.265a7.936,7.936,0,0,1,1.2,1.445,7.976,7.976,0,0,1-1.427-1.226c-.843-.8-1.986-1.924-3.228-3.184s-2.347-2.419-3.131-3.271a7.881,7.881,0,0,1-1.2-1.438" transform="translate(-80.55 -24.922)" fill="#e0e0e0"/>
        <path id="Path_93391" data-name="Path 93391" d="M280.477,10.042a8.168,8.168,0,0,1,1.234-1.434c.8-.843,1.919-1.983,3.177-3.22s2.413-2.343,3.265-3.127a8.014,8.014,0,0,1,1.445-1.2,7.97,7.97,0,0,1-1.227,1.429c-.8.842-1.922,1.984-3.184,3.227s-2.418,2.347-3.271,3.13a7.852,7.852,0,0,1-1.438,1.2" transform="translate(-80.495 -0.303)" fill="#e0e0e0"/>
        <path id="Path_93392" data-name="Path 93392" d="M206.764,10.167a8.137,8.137,0,0,1-1.434-1.233c-.842-.8-1.982-1.919-3.221-3.177s-2.342-2.413-3.125-3.265a7.928,7.928,0,0,1-1.2-1.445,7.979,7.979,0,0,1,1.428,1.227c.842.8,1.985,1.922,3.227,3.184s2.348,2.419,3.131,3.272a7.729,7.729,0,0,1,1.2,1.437" transform="translate(-56.762 -0.3)" fill="#e0e0e0"/>
        <path id="Path_93393" data-name="Path 93393" d="M260.326,65.474a2.452,2.452,0,0,1-.011-.253c0-.178-.006-.417-.011-.727,0-.653-.012-1.592-.022-2.812-.012-2.468-.029-6.059-.051-10.618-.024-9.125-.057-22.124-.1-37.689l.192.193-49.837.029h0l.221-.222c-.011,19.123-.022,37.012-.031,52.1l-.19-.19,36.089.1,10.137.049,2.682.022.692.011a2.24,2.24,0,0,1,.242.011,1.59,1.59,0,0,1-.22.011l-.672.011-2.646.022-10.094.05-36.21.1h-.19v-.19c-.009-15.087-.019-32.976-.031-52.1v-.221h.227l49.837.029h.193v.193c-.041,15.615-.075,28.657-.1,37.812-.022,4.54-.039,8.117-.051,10.575-.01,1.2-.017,2.13-.023,2.775,0,.3-.008.533-.011.707a1.746,1.746,0,0,1-.011.231" transform="translate(-60.345 -3.775)" fill="#e0e0e0"/>
        <rect id="Rectangle_8439" data-name="Rectangle 8439" width="16.677" height="16.677" transform="translate(166.791 27.311)" fill="#ebebeb"/>
        <path id="Path_93394" data-name="Path 93394" d="M427.523,342.282a93.419,93.419,0,0,1-11.467,0,93.4,93.4,0,0,1,11.467,0" transform="translate(-119.407 -98.183)" fill="#e0e0e0"/>
        <path id="Path_93395" data-name="Path 93395" d="M427.813,337.726a129.264,129.264,0,0,1-13.491,0,129.264,129.264,0,0,1,13.491,0" transform="translate(-118.909 -96.876)" fill="#e0e0e0"/>
        <path id="Path_93396" data-name="Path 93396" d="M422.7,332.548a84.472,84.472,0,0,1-10.9,0,84.5,84.5,0,0,1,10.9,0" transform="translate(-118.185 -95.39)" fill="#e0e0e0"/>
        <path id="Path_93397" data-name="Path 93397" d="M423.306,324.263c0,.1-3.247.176-7.251.176s-7.251-.079-7.251-.176,3.246-.176,7.251-.176,7.251.079,7.251.176" transform="translate(-117.325 -93.012)" fill="#e0e0e0"/>
        <path id="Path_93398" data-name="Path 93398" d="M423.194,319.914c0,.1-3.221.176-7.195.176s-7.195-.079-7.195-.176,3.221-.176,7.195-.176,7.195.079,7.195.176" transform="translate(-117.326 -91.764)" fill="#e0e0e0"/>
        <path id="Path_93399" data-name="Path 93399" d="M421.255,314.529c0,.1-3.423.177-7.644.177s-7.646-.08-7.646-.177,3.422-.175,7.646-.175,7.644.079,7.644.175" transform="translate(-116.511 -90.219)" fill="#e0e0e0"/>
        <path id="Path_93400" data-name="Path 93400" d="M417.811,307.281c0,.1-3.147.176-7.026.176s-7.027-.079-7.027-.176,3.145-.176,7.027-.176,7.026.079,7.026.176" transform="translate(-115.877 -88.138)" fill="#e0e0e0"/>
        <path id="Path_93401" data-name="Path 93401" d="M428.06,348.081c0,.1-3.146.176-7.026.176s-7.027-.079-7.027-.176,3.145-.176,7.027-.176,7.026.079,7.026.176" transform="translate(-118.819 -99.848)" fill="#e0e0e0"/>
        <path id="Path_93402" data-name="Path 93402" d="M429.569,356.572a135.779,135.779,0,0,1-13.828,0,135.826,135.826,0,0,1,13.828,0" transform="translate(-119.317 -102.285)" fill="#e0e0e0"/>
        <path id="Path_93403" data-name="Path 93403" d="M431.282,361.543a129.286,129.286,0,0,1-13.491,0,129.263,129.263,0,0,1,13.491,0" transform="translate(-119.905 -103.711)" fill="#e0e0e0"/>
        <path id="Path_93404" data-name="Path 93404" d="M435.423,366.306c0,.1-3.348.176-7.476.176s-7.476-.079-7.476-.176,3.347-.176,7.476-.176,7.476.079,7.476.176" transform="translate(-120.674 -105.078)" fill="#e0e0e0"/>
        <path id="Path_93405" data-name="Path 93405" d="M436.845,373.969a127.093,127.093,0,0,1-13.378,0,127.137,127.137,0,0,1,13.378,0" transform="translate(-121.534 -107.278)" fill="#e0e0e0"/>
        <path id="Path_93406" data-name="Path 93406" d="M438.426,378.039a128.377,128.377,0,0,1-13.38,1.154,128.421,128.421,0,0,1,13.38-1.154" transform="translate(-121.987 -108.489)" fill="#e0e0e0"/>
        <path id="Path_93407" data-name="Path 93407" d="M439.366,383.805c0,.1-3.345.224-7.473.283s-7.477.028-7.479-.069,3.344-.224,7.474-.282,7.477-.029,7.478.068" transform="translate(-121.806 -110.123)" fill="#e0e0e0"/>
        <path id="Path_93408" data-name="Path 93408" d="M440.262,391.1a130.55,130.55,0,0,1-13.491,1.16,130.527,130.527,0,0,1,13.491-1.16" transform="translate(-122.482 -112.237)" fill="#e0e0e0"/>
        <path id="Path_93409" data-name="Path 93409" d="M439.686,397.909a10.94,10.94,0,0,1-1.844.4c-1.144.212-2.724.5-4.461.859s-3.306.706-4.441.959a11.115,11.115,0,0,1-1.855.355,9.271,9.271,0,0,1,1.794-.6c1.122-.316,2.687-.706,4.431-1.062s3.336-.611,4.493-.761a9.243,9.243,0,0,1,1.884-.154" transform="translate(-122.572 -114.194)" fill="#e0e0e0"/>
        <path id="Path_93410" data-name="Path 93410" d="M442.7,405.771a11.851,11.851,0,0,1-1.9.138c-1.174.055-2.794.146-4.578.31s-3.395.371-4.56.531a11.93,11.93,0,0,1-1.9.21,9.047,9.047,0,0,1,1.856-.456c1.159-.223,2.772-.471,4.567-.636s3.426-.217,4.606-.209a9.071,9.071,0,0,1,1.908.111" transform="translate(-123.34 -116.423)" fill="#e0e0e0"/>
        <path id="Path_93411" data-name="Path 93411" d="M445.63,412.614a13.144,13.144,0,0,1-1.983,0c-1.221-.026-2.908-.041-4.769.018s-3.544.186-4.761.291a13.094,13.094,0,0,1-1.979.125,9.614,9.614,0,0,1,1.951-.372,47.861,47.861,0,0,1,9.57-.31,9.612,9.612,0,0,1,1.971.246" transform="translate(-124.022 -118.317)" fill="#e0e0e0"/>
        <path id="Path_93412" data-name="Path 93412" d="M445.76,418.594a15.475,15.475,0,0,1-2.161-.06c-1.331-.066-3.17-.139-5.2-.149s-3.872.048-5.2.1a15.369,15.369,0,0,1-2.161.041,11.457,11.457,0,0,1,2.145-.289c1.332-.118,3.179-.214,5.221-.205s3.887.123,5.218.252a11.456,11.456,0,0,1,2.143.308" transform="translate(-123.705 -119.974)" fill="#e0e0e0"/>
        <path id="Path_93413" data-name="Path 93413" d="M447.365,424.377c0,.1-3.191.273-7.133.393s-7.14.138-7.143.041,3.19-.273,7.132-.393,7.14-.138,7.144-.041" transform="translate(-124.295 -121.777)" fill="#e0e0e0"/>
        <path id="Path_93414" data-name="Path 93414" d="M447.9,429.127c0,.1-3.239.319-7.244.5s-7.256.242-7.26.145,3.239-.319,7.245-.5,7.256-.242,7.26-.145" transform="translate(-124.384 -123.145)" fill="#e0e0e0"/>
        <path id="Path_93415" data-name="Path 93415" d="M450.986,437.068a21.522,21.522,0,0,1-2.449.029c-1.509,0-3.594.027-5.892.174s-4.369.384-5.867.58a21.3,21.3,0,0,1-2.432.283,2.431,2.431,0,0,1,.635-.183c.413-.1,1.014-.216,1.76-.346a56.92,56.92,0,0,1,11.8-.757c.757.033,1.368.075,1.79.119a2.41,2.41,0,0,1,.653.1" transform="translate(-124.656 -125.361)" fill="#e0e0e0"/>
        <path id="Path_93416" data-name="Path 93416" d="M452.494,442.489c.005.1-3.489.349-7.8.563s-7.817.308-7.822.211,3.489-.349,7.8-.563,7.816-.308,7.821-.211" transform="translate(-125.38 -126.982)" fill="#e0e0e0"/>
        <path id="Path_93417" data-name="Path 93417" d="M83.021,312.078a10.625,10.625,0,0,1-2.062.262c-1.279.1-3.052.181-5.012.163s-3.73-.133-5.007-.262a10.739,10.739,0,0,1-2.056-.3,14.011,14.011,0,0,1,2.074.054c1.278.064,3.042.138,4.993.158s3.716-.02,4.995-.058a14.1,14.1,0,0,1,2.076-.014" transform="translate(-19.77 -89.519)" fill="#e0e0e0"/>
        <path id="Path_93418" data-name="Path 93418" d="M86.311,307.034c0,.1-3.673.252-8.207.345s-8.212.091-8.215-.006,3.672-.252,8.207-.345,8.212-.091,8.215.006" transform="translate(-20.058 -88.097)" fill="#e0e0e0"/>
        <path id="Path_93419" data-name="Path 93419" d="M77.187,317.724a13.349,13.349,0,0,1-2.294.245c-1.421.093-3.39.165-5.564.147s-4.141-.123-5.56-.24a13.482,13.482,0,0,1-2.289-.284,16.877,16.877,0,0,1,2.3.035c1.42.054,3.382.118,5.549.138s4.128-.014,5.549-.044a17.015,17.015,0,0,1,2.3,0" transform="translate(-17.645 -91.141)" fill="#e0e0e0"/>
        <path id="Path_93420" data-name="Path 93420" d="M77.322,325.57c0,.1-4.223.092-9.427-.011s-9.423-.267-9.422-.364,4.222-.092,9.429.011,9.422.267,9.42.364" transform="translate(-16.782 -93.31)" fill="#e0e0e0"/>
        <path id="Path_93421" data-name="Path 93421" d="M72.372,329.888a2.4,2.4,0,0,1-.65.12c-.421.055-1.032.115-1.789.173-1.512.117-3.609.2-5.926.162s-4.409-.2-5.917-.371c-.754-.085-1.362-.166-1.781-.237a2.354,2.354,0,0,1-.645-.143,20.74,20.74,0,0,1,2.449.131c1.509.106,3.594.226,5.9.268s4.394-.006,5.906-.059a20.547,20.547,0,0,1,2.453-.044" transform="translate(-15.975 -94.587)" fill="#e0e0e0"/>
        <path id="Path_93422" data-name="Path 93422" d="M72.256,334.954a24.237,24.237,0,0,1-2.474-.4c-1.522-.261-3.634-.568-5.981-.757s-4.483-.217-6.027-.2a24.749,24.749,0,0,1-2.506.006,2.488,2.488,0,0,1,.667-.113c.431-.052,1.057-.1,1.832-.143a47.809,47.809,0,0,1,12.063.959c.759.162,1.369.309,1.786.428a2.5,2.5,0,0,1,.641.215" transform="translate(-15.861 -95.655)" fill="#e0e0e0"/>
        <path id="Path_93423" data-name="Path 93423" d="M67.483,341.272a3.667,3.667,0,0,1-.809-.115l-2.178-.421c-1.838-.359-4.379-.836-7.2-1.289s-5.383-.8-7.241-1.03l-2.2-.282a3.62,3.62,0,0,1-.8-.143,3.6,3.6,0,0,1,.816.007c.524.026,1.281.084,2.214.17,1.868.171,4.443.476,7.27.93s5.367.972,7.194,1.393c.914.21,1.651.393,2.157.531a3.668,3.668,0,0,1,.778.248" transform="translate(-13.504 -96.998)" fill="#e0e0e0"/>
        <path id="Path_93424" data-name="Path 93424" d="M65.708,348.791c0,.1-3.777.076-8.43-.046s-8.424-.3-8.421-.4,3.776-.077,8.431.046,8.423.3,8.421.4" transform="translate(-14.022 -99.957)" fill="#e0e0e0"/>
        <path id="Path_93425" data-name="Path 93425" d="M58.441,355.889c0,.1-3.8.16-8.5.14s-8.5-.116-8.5-.213,3.8-.159,8.5-.139,8.5.116,8.495.212" transform="translate(-11.896 -102.077)" fill="#e0e0e0"/>
        <path id="Path_93426" data-name="Path 93426" d="M56.32,363.319a18.866,18.866,0,0,1-2.384-.2c-1.468-.153-3.5-.349-5.742-.5s-4.282-.215-5.758-.253a18.722,18.722,0,0,1-2.39-.108,2.3,2.3,0,0,1,.64-.078c.414-.028,1.012-.05,1.751-.063,1.479-.026,3.526,0,5.78.15s4.287.384,5.75.6c.732.108,1.323.207,1.728.289a2.268,2.268,0,0,1,.625.16" transform="translate(-11.493 -103.925)" fill="#e0e0e0"/>
        <path id="Path_93427" data-name="Path 93427" d="M53.147,368.7a2.412,2.412,0,0,1-.659.073c-.425.025-1.04.043-1.8.049-1.52.014-3.621-.034-5.936-.2s-4.4-.43-5.9-.664c-.751-.118-1.357-.224-1.773-.311a2.447,2.447,0,0,1-.641-.168,19.788,19.788,0,0,1,2.447.232c1.507.171,3.589.39,5.9.56s4.4.255,5.913.3a20.053,20.053,0,0,1,2.456.126" transform="translate(-10.457 -105.462)" fill="#e0e0e0"/>
        <path id="Path_93428" data-name="Path 93428" d="M48.662,375.135a12.5,12.5,0,0,1-1.969-.157c-1.211-.129-2.883-.3-4.734-.429s-3.532-.2-4.748-.245a12.606,12.606,0,0,1-1.971-.122,9.819,9.819,0,0,1,1.974-.127c1.221-.02,2.91.011,4.77.143s3.535.341,4.741.533a9.869,9.869,0,0,1,1.937.4" transform="translate(-10.114 -107.351)" fill="#e0e0e0"/>
        <path id="Path_93429" data-name="Path 93429" d="M46.739,382.855a17.724,17.724,0,0,1-2.3-.453c-1.411-.31-3.361-.727-5.527-1.127s-4.137-.707-5.566-.92a17.946,17.946,0,0,1-2.309-.394,2.2,2.2,0,0,1,.632,0c.4.022.988.072,1.708.148,1.44.15,3.425.419,5.6.82s4.123.858,5.522,1.231c.7.186,1.263.348,1.649.471a2.194,2.194,0,0,1,.59.225" transform="translate(-8.908 -109.043)" fill="#e0e0e0"/>
        <path id="Path_93430" data-name="Path 93430" d="M38.42,388.552a11.877,11.877,0,0,1-1.9-.28c-1.169-.2-2.784-.473-4.575-.712s-3.422-.4-4.6-.512a11.984,11.984,0,0,1-1.911-.228,9.351,9.351,0,0,1,1.928-.021c1.189.046,2.831.172,4.632.412s3.417.551,4.577.817a9.269,9.269,0,0,1,1.855.524" transform="translate(-7.298 -111.003)" fill="#e0e0e0"/>
        <path id="Path_93431" data-name="Path 93431" d="M35.727,393.357a16.987,16.987,0,0,1-2.3-.224c-1.417-.171-3.375-.4-5.541-.61s-4.133-.354-5.558-.456a16.9,16.9,0,0,1-2.3-.218,13.689,13.689,0,0,1,2.317-.031c1.43.038,3.4.145,5.579.354s4.132.48,5.543.714a13.647,13.647,0,0,1,2.269.471" transform="translate(-5.746 -112.445)" fill="#e0e0e0"/>
        <path id="Path_93432" data-name="Path 93432" d="M33.669,399.608a15.36,15.36,0,0,1-2.18.007c-1.343-.027-3.2-.053-5.247-.028s-3.9.1-5.246.164a15.267,15.267,0,0,1-2.178.049,11.841,11.841,0,0,1,2.161-.3c1.342-.126,3.2-.24,5.258-.268s3.918.041,5.262.131a11.861,11.861,0,0,1,2.169.242" transform="translate(-5.401 -114.578)" fill="#e0e0e0"/>
        <path id="Path_93433" data-name="Path 93433" d="M35.076,405.828a12.747,12.747,0,0,1-1.889-.095c-1.161-.08-2.768-.155-4.543-.13s-3.377.153-4.537.268a12.727,12.727,0,0,1-1.884.152,8.361,8.361,0,0,1,1.854-.4,34.445,34.445,0,0,1,9.134-.139,8.337,8.337,0,0,1,1.865.342" transform="translate(-6.378 -116.305)" fill="#e0e0e0"/>
        <path id="Path_93434" data-name="Path 93434" d="M27.579,412.783a12.332,12.332,0,0,1-1.83-.343c-1.123-.233-2.679-.522-4.413-.731s-3.315-.3-4.461-.336a12.446,12.446,0,0,1-1.86-.1,8.072,8.072,0,0,1,1.861-.153,32.71,32.71,0,0,1,4.5.235,33.207,33.207,0,0,1,4.428.838,8.12,8.12,0,0,1,1.773.585" transform="translate(-4.309 -117.99)" fill="#e0e0e0"/>
        <path id="Path_93435" data-name="Path 93435" d="M21.284,421.767c0,.1-3.2.108-7.144.024S7,421.559,7,421.462s3.2-.108,7.144-.023,7.138.231,7.136.328" transform="translate(-2.01 -120.935)" fill="#e0e0e0"/>
        <path id="Path_93436" data-name="Path 93436" d="M19.468,426.417a17.167,17.167,0,0,1-3.451-.294,17.147,17.147,0,0,1-3.4-.643,17.163,17.163,0,0,1,3.451.294,17.138,17.138,0,0,1,3.4.643" transform="translate(-3.62 -122.102)" fill="#e0e0e0"/>
        <path id="Path_93437" data-name="Path 93437" d="M19.022,435.575a12.6,12.6,0,0,1-1.968-.289c-1.208-.21-2.877-.491-4.728-.748s-3.534-.44-4.754-.565a12.6,12.6,0,0,1-1.973-.255,9.991,9.991,0,0,1,1.992.006c1.229.062,2.923.207,4.783.464s3.53.579,4.729.852a10.014,10.014,0,0,1,1.919.534" transform="translate(-1.607 -124.465)" fill="#e0e0e0"/>
        <path id="Path_93438" data-name="Path 93438" d="M67.448,303.975l-55.4,100.856,306.551.152-24.8-99.7Z" transform="translate(-3.458 -87.24)" fill="#ebebeb"/>
        <path id="Path_93439" data-name="Path 93439" d="M24.572,415.847h293.54L313.92,399,32,402.333Z" transform="translate(-7.052 -114.512)" fill="#fafafa"/>
        <path id="Path_93440" data-name="Path 93440" d="M48.388,372.486H317.243l-4.147-16.67L55.812,358.972Z" transform="translate(-13.887 -102.118)" fill="#fafafa"/>
        <path id="Path_93441" data-name="Path 93441" d="M72.255,328.984H316.389l-4.19-16.845-232.52,3.33Z" transform="translate(-20.737 -89.583)" fill="#fafafa"/>
      </g>
    </g>
    <g id="Group_46871" data-name="Group 46871">
      <g id="Group_46870" data-name="Group 46870" clip-path="url(#clip-path)">
        <path id="Path_93442" data-name="Path 93442" d="M67.5,175.217a7.1,7.1,0,0,1-3.68-3.668c-.292-.677-.3-1.723.421-1.875.441-.093.843.252,1.164.569l3.211,3.186a6.752,6.752,0,0,1,.221-5.22c.275-.577.846-1.194,1.446-.973.474.174.625.757.709,1.256l.77,4.6a11.055,11.055,0,0,1,2.523-4.822c.447-.5,1.161-.984,1.728-.628.5.312.473,1.037.367,1.615a22.8,22.8,0,0,1-1.2,4.216,7.966,7.966,0,0,1,4.992-1.98,1.764,1.764,0,0,1,1.477.478c.5.629.061,1.558-.469,2.158-1.573,1.782-5.265,2.24-7.636,2.085" transform="translate(-18.264 -47.983)" fill="#00977a"/>
        <path id="Path_93443" data-name="Path 93443" d="M74.586,182.156c-5.751-4.528-15.86-5.169-22.516-2.123-7.514,3.438-12.434,11.442-13.169,19.106-.7,7.286,2.814,14.676,5.8,21.358l29.041.133c3.487-5.756,7.112-12.2,7.351-18.923s-1.221-15.389-6.508-19.552" transform="translate(-11.139 -51.131)" fill="#19ceab"/>
        <path id="Path_93444" data-name="Path 93444" d="M63.579,178.156a.483.483,0,0,1-.128.039l-.379.088-.617.135a5.625,5.625,0,0,0-.832.218,16.508,16.508,0,0,0-4.92,2.357,22.192,22.192,0,0,0-5.6,5.819A33.532,33.532,0,0,0,48.749,191a36.688,36.688,0,0,0-1.8,4.826,22.106,22.106,0,0,0-.491,9.845,42.467,42.467,0,0,0,2.19,7.832c.806,2.178,1.522,3.919,2,5.129.23.59.41,1.056.542,1.4.055.148.1.269.135.366a.517.517,0,0,1,.037.128.5.5,0,0,1-.063-.118l-.159-.356-.59-1.376c-.506-1.2-1.25-2.926-2.081-5.1a41.378,41.378,0,0,1-2.257-7.859,22.157,22.157,0,0,1,.477-9.962,36.469,36.469,0,0,1,1.824-4.863,33.168,33.168,0,0,1,2.383-4.212,22.048,22.048,0,0,1,5.7-5.837,16.011,16.011,0,0,1,5-2.3,5.3,5.3,0,0,1,.843-.2l.625-.109.384-.062a.466.466,0,0,1,.133-.011" transform="translate(-13.16 -51.13)" fill="#263238"/>
        <path id="Path_93445" data-name="Path 93445" d="M81.612,220.718a2.893,2.893,0,0,1,.134-.434l.434-1.226c.381-1.063.94-2.6,1.589-4.51s1.382-4.2,2.018-6.788a44.493,44.493,0,0,0,1.291-8.549,29.775,29.775,0,0,0-.887-8.572,23.424,23.424,0,0,0-2.728-6.483,19.008,19.008,0,0,0-2.969-3.708c-.388-.41-.745-.667-.959-.873a2.836,2.836,0,0,1-.33-.312,2.867,2.867,0,0,1,.365.27,12.45,12.45,0,0,1,1,.839,18.077,18.077,0,0,1,3.06,3.683,23.126,23.126,0,0,1,2.808,6.521,29.517,29.517,0,0,1,.916,8.648,43.569,43.569,0,0,1-1.32,8.6c-.652,2.6-1.407,4.885-2.081,6.791s-1.261,3.432-1.672,4.484L81.8,220.3a2.818,2.818,0,0,1-.185.414" transform="translate(-22.732 -51.448)" fill="#263238"/>
        <path id="Path_93446" data-name="Path 93446" d="M72.154,178.395a2.876,2.876,0,0,1-.115.426q-.139.448-.376,1.2c-.17.519-.372,1.159-.59,1.9s-.488,1.589-.742,2.534c-.542,1.878-1.113,4.137-1.689,6.657-.554,2.525-1.1,5.315-1.539,8.266s-.713,5.782-.893,8.361c-.063,1.291-.15,2.517-.161,3.666q-.018.862-.037,1.663c0,.533.006,1.045.009,1.534-.007.978.039,1.861.066,2.637s.057,1.445.1,1.991q.047.789.074,1.258a2.432,2.432,0,0,1,.007.441,2.7,2.7,0,0,1-.061-.436q-.047-.467-.127-1.255c-.058-.545-.111-1.214-.145-1.991s-.1-1.662-.1-2.642q-.013-.736-.027-1.538.011-.8.021-1.668c0-1.152.079-2.382.137-3.677.166-2.586.444-5.424.873-8.385s1-5.754,1.563-8.282c.593-2.523,1.182-4.781,1.75-6.656.267-.943.545-1.783.782-2.525s.449-1.377.635-1.892q.267-.747.426-1.188a2.616,2.616,0,0,1,.166-.408" transform="translate(-18.884 -51.199)" fill="#263238"/>
        <path id="Path_93447" data-name="Path 93447" d="M38.592,210.833a9.294,9.294,0,0,1-1.984,1.054,9.284,9.284,0,0,1-2.1.8,9.329,9.329,0,0,1,1.984-1.054,9.327,9.327,0,0,1,2.1-.8" transform="translate(-9.904 -60.506)" fill="#263238"/>
        <path id="Path_93448" data-name="Path 93448" d="M39.828,198.145a10.977,10.977,0,0,1-2.18-1.1,10.963,10.963,0,0,1-2.043-1.34,10.979,10.979,0,0,1,2.18,1.1,10.992,10.992,0,0,1,2.043,1.34" transform="translate(-10.218 -56.164)" fill="#263238"/>
        <path id="Path_93449" data-name="Path 93449" d="M48.283,188.042a14.023,14.023,0,0,1-1.674-3.529,7.1,7.1,0,0,1,.961,1.706,7.078,7.078,0,0,1,.713,1.822" transform="translate(-13.374 -52.955)" fill="#263238"/>
        <path id="Path_93450" data-name="Path 93450" d="M58.41,179.31a9.239,9.239,0,0,1-1.889-2.543,9.239,9.239,0,0,1,1.889,2.543" transform="translate(-16.219 -50.731)" fill="#263238"/>
        <path id="Path_93451" data-name="Path 93451" d="M43.163,225.127a10.513,10.513,0,0,1-2.033,1.256,10.551,10.551,0,0,1-2.164,1.015A10.557,10.557,0,0,1,41,226.142a10.553,10.553,0,0,1,2.164-1.015" transform="translate(-11.183 -64.609)" fill="#263238"/>
        <path id="Path_93452" data-name="Path 93452" d="M55.574,217.2a7.832,7.832,0,0,1-1.856-.884A7.848,7.848,0,0,1,52,215.2a7.762,7.762,0,0,1,1.857.884,7.831,7.831,0,0,1,1.722,1.122" transform="translate(-14.922 -61.758)" fill="#263238"/>
        <path id="Path_93453" data-name="Path 93453" d="M58.9,201.744a5.546,5.546,0,0,1-1.788.953,5.535,5.535,0,0,1-1.961.51,11.874,11.874,0,0,1,1.862-.764,11.879,11.879,0,0,1,1.887-.7" transform="translate(-15.827 -57.897)" fill="#263238"/>
        <path id="Path_93454" data-name="Path 93454" d="M63.843,188.278a5.2,5.2,0,0,1-1.038-3,48.963,48.963,0,0,1,1.038,3" transform="translate(-18.017 -53.175)" fill="#263238"/>
        <path id="Path_93455" data-name="Path 93455" d="M55.635,232.452a16.126,16.126,0,0,1,1.805-3.783,16.121,16.121,0,0,1-1.805,3.783" transform="translate(-15.965 -65.627)" fill="#263238"/>
        <path id="Path_93456" data-name="Path 93456" d="M74.986,228.227a8.6,8.6,0,0,1-2.933-3.427c.068-.042.637.791,1.445,1.731s1.539,1.636,1.487,1.7" transform="translate(-20.678 -64.516)" fill="#263238"/>
        <path id="Path_93457" data-name="Path 93457" d="M81.6,211.7a10.761,10.761,0,0,1-2.025,1.318,10.739,10.739,0,0,1-2.161,1.08,10.8,10.8,0,0,1,2.025-1.318A10.764,10.764,0,0,1,81.6,211.7" transform="translate(-22.217 -60.755)" fill="#263238"/>
        <path id="Path_93458" data-name="Path 93458" d="M78.5,199.419a9.645,9.645,0,0,1,1.569-1.668,9.713,9.713,0,0,1,1.757-1.471,9.632,9.632,0,0,1-1.569,1.669,9.59,9.59,0,0,1-1.757,1.47" transform="translate(-22.527 -56.331)" fill="#263238"/>
        <path id="Path_93459" data-name="Path 93459" d="M77.492,188a13.989,13.989,0,0,1-3.03-2.461,7.1,7.1,0,0,1,1.6,1.124A7.067,7.067,0,0,1,77.492,188" transform="translate(-21.37 -53.249)" fill="#263238"/>
        <path id="Path_93460" data-name="Path 93460" d="M90.948,181.262a14.5,14.5,0,0,1-3.33,2.169,14.5,14.5,0,0,1,3.33-2.169" transform="translate(-25.145 -52.02)" fill="#263238"/>
        <path id="Path_93461" data-name="Path 93461" d="M96.174,191.952a10.272,10.272,0,0,1-3.338.237,10.32,10.32,0,0,1,3.338-.237" transform="translate(-26.644 -55.072)" fill="#263238"/>
        <path id="Path_93462" data-name="Path 93462" d="M99.239,204.462a8.285,8.285,0,0,1-2.115-.066,8.315,8.315,0,0,1-2.089-.339,8.267,8.267,0,0,1,2.115.067,8.3,8.3,0,0,1,2.089.339" transform="translate(-27.274 -58.552)" fill="#263238"/>
        <path id="Path_93463" data-name="Path 93463" d="M97.751,219.47a25.353,25.353,0,0,1-3.7-3.738A12.794,12.794,0,0,1,96,217.5a12.8,12.8,0,0,1,1.751,1.965" transform="translate(-26.992 -61.914)" fill="#263238"/>
        <path id="Path_93464" data-name="Path 93464" d="M93.382,231.876A12.834,12.834,0,0,1,89.9,227.7c.067-.043.768.951,1.728,2.1s1.809,2.018,1.755,2.076" transform="translate(-25.8 -65.35)" fill="#263238"/>
        <g id="Group_46860" data-name="Group 46860" transform="translate(56.469 127.804)" opacity="0.3">
          <g id="Group_46859" data-name="Group 46859">
            <g id="Group_46858" data-name="Group 46858" clip-path="url(#clip-path-4)">
              <path id="Path_93465" data-name="Path 93465" d="M79.2,179.259c.048-.072.622.207,1.581.855a16.512,16.512,0,0,1,3.5,3.436A19.585,19.585,0,0,1,87.5,190.11a30.97,30.97,0,0,1,1.082,8.838,37.738,37.738,0,0,1-1.184,8.8,46.986,46.986,0,0,1-2.319,6.838c-1.621,3.772-2.985,5.912-3.132,5.837-.191-.093.864-2.386,2.23-6.189a47.5,47.5,0,0,0,3.036-15.3,32.576,32.576,0,0,0-.929-8.492,20.342,20.342,0,0,0-2.779-6.332,21.285,21.285,0,0,0-3.054-3.585c-.83-.755-1.3-1.183-1.243-1.267" transform="translate(-79.199 -179.248)"/>
            </g>
          </g>
        </g>
        <g id="Group_46863" data-name="Group 46863" transform="translate(46.973 126.765)" opacity="0.3">
          <g id="Group_46862" data-name="Group 46862">
            <g id="Group_46861" data-name="Group 46861" clip-path="url(#clip-path-5)">
              <path id="Path_93466" data-name="Path 93466" d="M71.966,177.792c.187.042-.188,2.437-.9,6.279s-1.761,9.129-2.665,15c-.442,2.937-.789,5.741-1.049,8.3-.111,1.28-.237,2.5-.3,3.636-.091,1.14-.14,2.2-.185,3.174-.172,3.885-.133,6.3-.344,6.316-.165.013-.548-2.4-.623-6.33-.017-.983-.024-2.061.019-3.216.016-1.157.1-2.389.179-3.687.193-2.592.506-5.434.953-8.4.912-5.923,2.119-11.2,3.072-15s1.667-6.113,1.849-6.072" transform="translate(-65.881 -177.791)"/>
            </g>
          </g>
        </g>
        <g id="Group_46866" data-name="Group 46866" transform="translate(31.792 126.434)" opacity="0.3">
          <g id="Group_46865" data-name="Group 46865">
            <g id="Group_46864" data-name="Group 46864" clip-path="url(#clip-path-6)">
              <path id="Path_93467" data-name="Path 93467" d="M62.45,177.354c.029.1-.642.36-1.81.89a27.256,27.256,0,0,0-4.675,2.682A23.821,23.821,0,0,0,46.476,195.3a24.8,24.8,0,0,0-.547,4.974,31.34,31.34,0,0,0,.353,4.679,49.187,49.187,0,0,0,1.913,7.79c.709,2.187,1.368,3.937,1.8,5.158a6.053,6.053,0,0,1,.553,1.95c-.084.036-.459-.58-1.043-1.741s-1.381-2.866-2.218-5.045a42.5,42.5,0,0,1-2.246-7.912,30.276,30.276,0,0,1-.448-4.883,24.815,24.815,0,0,1,.55-5.263,24.1,24.1,0,0,1,4.212-9.243,23.163,23.163,0,0,1,6.071-5.636,21.046,21.046,0,0,1,5.026-2.38,4.881,4.881,0,0,1,2-.392" transform="translate(-44.589 -177.326)"/>
            </g>
          </g>
        </g>
        <path id="Path_93468" data-name="Path 93468" d="M41.937,245.2l4.585,30.131H73.159l6.182-29.7Z" transform="translate(-12.036 -70.372)" fill="#515151"/>
        <path id="Path_93469" data-name="Path 93469" d="M76.9,272.223c0,.086-6.826.156-15.243.156s-15.245-.07-15.245-.156,6.824-.156,15.245-.156,15.243.07,15.243.156" transform="translate(-13.321 -78.083)" fill="#fafafa"/>
        <path id="Path_93470" data-name="Path 93470" d="M76.964,270.144c0,.086-6.872.156-15.347.156s-15.349-.07-15.349-.156,6.87-.156,15.349-.156,15.347.07,15.347.156" transform="translate(-13.279 -77.486)" fill="#fafafa"/>
        <path id="Path_93471" data-name="Path 93471" d="M76.89,267.8c0,.086-6.872.156-15.347.156S46.2,267.883,46.2,267.8s6.87-.156,15.348-.156,15.347.07,15.347.156" transform="translate(-13.258 -76.812)" fill="#fafafa"/>
        <path id="Path_93472" data-name="Path 93472" d="M52.118,281.974a48.175,48.175,0,0,1-1.326-7.641,48.177,48.177,0,0,1,1.326,7.641" transform="translate(-14.572 -78.733)" fill="#fafafa"/>
        <path id="Path_93473" data-name="Path 93473" d="M54.985,281.617a88.214,88.214,0,0,1-.5-7.414,29.61,29.61,0,0,1,.5,7.414" transform="translate(-15.628 -78.696)" fill="#fafafa"/>
        <path id="Path_93474" data-name="Path 93474" d="M59.455,281.52a30.182,30.182,0,0,1-.9-7.648,112.9,112.9,0,0,1,.9,7.648" transform="translate(-16.795 -78.601)" fill="#fafafa"/>
        <path id="Path_93475" data-name="Path 93475" d="M62.926,281.711a30.759,30.759,0,0,1-.251-7.729,33.349,33.349,0,0,1,.195,3.862,33.084,33.084,0,0,1,.056,3.867" transform="translate(-17.947 -78.632)" fill="#fafafa"/>
        <path id="Path_93476" data-name="Path 93476" d="M68.71,281.65a43.117,43.117,0,0,1-.248-7.33,43.114,43.114,0,0,1,.248,7.33" transform="translate(-19.627 -78.729)" fill="#fafafa"/>
        <path id="Path_93477" data-name="Path 93477" d="M72.992,281.777a45.953,45.953,0,0,1,.061-7.57,45.948,45.948,0,0,1-.061,7.57" transform="translate(-20.912 -78.697)" fill="#fafafa"/>
        <path id="Path_93478" data-name="Path 93478" d="M76.975,281.085a49.97,49.97,0,0,1,.765-7.884,50.172,50.172,0,0,1-.765,7.884" transform="translate(-22.083 -78.408)" fill="#fafafa"/>
        <path id="Path_93479" data-name="Path 93479" d="M82.059,281.044a20.78,20.78,0,0,1,1.439-6.612,29.905,29.905,0,0,1-.685,3.314,29.8,29.8,0,0,1-.754,3.3" transform="translate(-23.544 -78.761)" fill="#fafafa"/>
        <path id="Path_93480" data-name="Path 93480" d="M37.65,236.834v5.638a2.22,2.22,0,0,0,2.22,2.22H78.443a2.22,2.22,0,0,0,2.22-2.22v-5.638Z" transform="translate(-10.805 -67.971)" fill="#515151"/>
        <g id="Group_46869" data-name="Group 46869" transform="translate(30.189 176.721)" opacity="0.4">
          <g id="Group_46868" data-name="Group 46868">
            <g id="Group_46867" data-name="Group 46867" clip-path="url(#clip-path-7)">
              <path id="Path_93481" data-name="Path 93481" d="M42.34,247.855l.32,1.795,35.592,2.537.9-4.331Z" transform="translate(-42.34 -247.855)"/>
            </g>
          </g>
        </g>
      </g>
    </g>
    <g id="Group_46873" data-name="Group 46873">
      <g id="Group_46872" data-name="Group 46872" clip-path="url(#clip-path)">
        <path id="Path_93482" data-name="Path 93482" d="M333.205,287.577c0,.1-74.6.185-166.595.185C74.58,287.763,0,287.68,0,287.577s74.58-.185,166.611-.185c92,0,166.595.083,166.595.185" transform="translate(0 -82.481)" fill="#263238"/>
      </g>
    </g>
    <g id="Group_46875" data-name="Group 46875">
      <g id="Group_46874" data-name="Group 46874" clip-path="url(#clip-path)">
        <path id="Path_93483" data-name="Path 93483" d="M358.416,13.192a32.759,32.759,0,0,0-25.989,52.4l-3.81,12.262,11.918-4.61a32.236,32.236,0,0,0,17.881,5.391,32.722,32.722,0,0,0,0-65.442" transform="translate(-93.528 -3.786)" fill="#fafafa"/>
        <path id="Path_93484" data-name="Path 93484" d="M358.3,13.187a3.2,3.2,0,0,1,.568-.009l1.668.047c.366.017.779.017,1.23.055l1.471.206,1.718.247,1.918.476a31.061,31.061,0,0,1,9.3,4.053,32.813,32.813,0,0,1,15.071,24.663,33.985,33.985,0,0,1,.091,4.5c-.053.761-.038,1.534-.149,2.3s-.232,1.538-.349,2.316a32.976,32.976,0,0,1-3.124,9.149,35.245,35.245,0,0,1-5.976,8.224,34.557,34.557,0,0,1-8.61,6.185,31.288,31.288,0,0,1-10.5,3.221,20.667,20.667,0,0,1-2.8.238,24.949,24.949,0,0,1-2.829.051,33.58,33.58,0,0,1-5.668-.716,33.108,33.108,0,0,1-11.283-4.748l.342.035L328.9,78.289l-.681.273.195-.707,3.378-12.287.058.3a32.976,32.976,0,0,1-6.133-14.041,29.826,29.826,0,0,1-.447-7.193,23.162,23.162,0,0,1,.326-3.455q.132-.846.261-1.681c.1-.553.271-1.088.4-1.627a32.867,32.867,0,0,1,12.823-18.693,31.443,31.443,0,0,1,7.631-4.026l1.719-.615,1.632-.415,1.493-.37c.478-.092.941-.141,1.374-.207.869-.111,1.632-.26,2.3-.293l1.689-.057,1.031-.023a1.531,1.531,0,0,1,.349.012,1.568,1.568,0,0,1-.349.048l-1.027.081-1.678.113c-.663.051-1.42.219-2.28.347a32.689,32.689,0,0,0-26.134,24.244c-.126.53-.289,1.056-.387,1.6q-.123.82-.247,1.652a22.527,22.527,0,0,0-.3,3.392,29.284,29.284,0,0,0,.466,7.052A32.382,32.382,0,0,0,332.41,65.45l.1.137-.045.167q-1.625,5.955-3.354,12.294l-.486-.433,11.488-4.626.18-.073.163.108a32.452,32.452,0,0,0,11.031,4.637,33.011,33.011,0,0,0,5.54.7,24.688,24.688,0,0,0,2.767-.05,20.209,20.209,0,0,0,2.736-.232A30.592,30.592,0,0,0,372.8,74.942a33.9,33.9,0,0,0,8.434-6.036,34.629,34.629,0,0,0,5.87-8.036,32.4,32.4,0,0,0,3.09-8.953l.351-2.269c.112-.751.1-1.509.154-2.255a31.964,31.964,0,0,0-5.347-19.473,33.172,33.172,0,0,0-9.4-9.309,31.26,31.26,0,0,0-9.147-4.123l-1.894-.5-1.7-.279-1.458-.24c-.447-.05-.856-.061-1.22-.091l-1.659-.12a3.215,3.215,0,0,1-.566-.067" transform="translate(-93.335 -3.781)" fill="#263238"/>
        <path id="Path_93486" data-name="Path 93486" d="M355.065,58.89a.388.388,0,0,0,.1.011l.3.011,1.159.019,4.264.031-.071-.054,1.306,4.763.079.287.1-.282,2.5-7.176c.275-.795.546-1.577.81-2.341l-.182.018,2.786,4.753.026.046h.053l7.5-.041,2.125-.026.563-.014a.972.972,0,0,0,.193-.015.972.972,0,0,0-.193-.015l-.563-.014-2.125-.025-7.5-.033.079.046L365.6,54.075l-.111-.19-.072.207c-.265.764-.536,1.546-.812,2.34l-2.48,7.183.177.006-1.343-4.754-.016-.055h-.056l-4.264.035-1.159.021-.3.011a.387.387,0,0,0-.1.011" transform="translate(-101.903 -15.465)" fill="#fafafa"/>
      </g>
    </g>
    <g id="Group_46877" data-name="Group 46877">
      <g id="Group_46876" data-name="Group 46876" clip-path="url(#clip-path)">
        <path id="Path_93487" data-name="Path 93487" d="M375.81,321.92a8.026,8.026,0,0,0-6.762-9.163.8.8,0,0,0-.574.067.817.817,0,0,0-.215.773,9.695,9.695,0,0,0,7.541,8.553" transform="translate(-109.445 -287.754)" fill="#455a64"/>
        <path id="Path_93488" data-name="Path 93488" d="M362.378,340.09c2.025,4.172,4.933,6.982,8.536,7.118.721.025,1.266-.448,1.953-.488a4.409,4.409,0,0,1,1.153.434,1.609,1.609,0,0,0,.6.136c3.723-.2,6.9-2.819,9.034-7.2,2.977-6.134,2.057-12.724-2.051-14.726a9.751,9.751,0,0,0-1.681-.657,6.925,6.925,0,0,0-2.043-.24,15.284,15.284,0,0,0-4.668,1.057c-.063.024-.136.048-.2.073-3.338-1.474-6-1.482-8.591-.232-4.108,2-5.021,8.592-2.042,14.726" transform="translate(-107.257 -291.118)" fill="#19ceab"/>
        <path id="Path_93489" data-name="Path 93489" d="M363.028,334.614a3.181,3.181,0,0,1-.342-1.234,6.656,6.656,0,0,1,2.084-5.638,3.193,3.193,0,0,1,1.061-.715c.029.043-.381.307-.921.859a7.237,7.237,0,0,0-2.023,5.476c.051.77.19,1.238.141,1.252" transform="translate(-104.076 -93.855)" fill="#fafafa"/>
        <path id="Path_93490" data-name="Path 93490" d="M364.1,341.212c-.076.018-.209-.272-.3-.647s-.095-.693-.018-.711.208.272.294.647.095.693.019.711" transform="translate(-104.39 -97.537)" fill="#fafafa"/>
        <path id="Path_93491" data-name="Path 93491" d="M387.095,311.542c.021.051-.77.346-1.927,1.039a15.4,15.4,0,0,0-1.924,1.372,15.33,15.33,0,0,0-3.643,4.453,15.359,15.359,0,0,0-.964,2.158c-.45,1.272-.582,2.105-.637,2.095a2.376,2.376,0,0,1,.063-.589,5.658,5.658,0,0,1,.138-.682c.068-.262.13-.567.245-.888a13.755,13.755,0,0,1,.923-2.217,14.475,14.475,0,0,1,3.708-4.531,13.759,13.759,0,0,1,1.99-1.343c.293-.177.579-.3.823-.417a5.741,5.741,0,0,1,.64-.27,2.351,2.351,0,0,1,.565-.178" transform="translate(-112.241 -287.411)" fill="#263238"/>
      </g>
    </g>
    <g id="Group_46885" data-name="Group 46885">
      <g id="Group_46884" data-name="Group 46884" clip-path="url(#clip-path)">
        <path id="Path_93492" data-name="Path 93492" d="M217.9,383.154c5.352.414,10.987.115,15.176,1.813,2.155.873,3.865,1.7,4.592,4.553.627,2.462-1.342,6.579-3.169,8.378-5.344,5.259-7.42,7.716-8.9,13.577s-3.56,12.12-8.966,15.332a7.275,7.275,0,0,1-4.043,1.178,4.018,4.018,0,0,1-3.518-2.192c-.573-1.439.213-2.925.939-4.226a34.709,34.709,0,0,0,4.55-12.511c.548-4.445-.033-6.078-2.772-9.974-3.148-3.767-8.47-6.776-14.4-9.574l12.1-6.948Z" transform="translate(-56.652 -109.793)" fill="#ffbe9d"/>
        <path id="Path_93493" data-name="Path 93493" d="M181.427,306.483s-5.995,1.145-8.392.557c-18.918-4.649-59.193-25.656-74.306-16.489-13.447,8.157-9.947,21.364-1.407,32.525,8.4,10.972,61.862,38.713,61.862,38.713l17.93-14.686L170.16,344l2.522-.389a42.66,42.66,0,0,0,13.895-.394l22.642-4.4V315.25Z" transform="translate(-25.761 -82.73)" fill="#108fe5"/>
        <path id="Path_93494" data-name="Path 93494" d="M291.646,323.687s8.446,8.928,9.815,24.708c.463,5.342-2.35,15.211-6.927,19.116a41.811,41.811,0,0,1-30.267,9.651l-50.586-2.5-1.406-19.057s20.617-7.7,26.361-8.781l5.744-.718V325.417s17.258.939,25.233,1.375,22.033-3.105,22.033-3.105" transform="translate(-60.922 -92.897)" fill="#108fe5"/>
        <path id="Path_93495" data-name="Path 93495" d="M283.05,340.761a6.881,6.881,0,0,1-1.128.251c-.729.133-1.782.345-3.076.631a72.442,72.442,0,0,0-19.311,7.26c-1.162.637-2.094,1.17-2.73,1.552a6.832,6.832,0,0,1-1.014.554,6.943,6.943,0,0,1,.937-.677c.615-.419,1.528-.989,2.678-1.658a63.46,63.46,0,0,1,19.387-7.288c1.305-.255,2.368-.428,3.107-.517a6.8,6.8,0,0,1,1.151-.108" transform="translate(-73.411 -97.795)" fill="#455a64"/>
        <path id="Path_93496" data-name="Path 93496" d="M323.19,372.352a9.78,9.78,0,0,0,1-.767,6.276,6.276,0,0,0,1.668-2.921,15.322,15.322,0,0,0,.25-5.055,58.734,58.734,0,0,0-.665-6.23,23.917,23.917,0,0,0-1.783-5.962,16.313,16.313,0,0,0-2.806-4.218,14.627,14.627,0,0,0-3.728-2.828,1.152,1.152,0,0,1,.312.108,7.539,7.539,0,0,1,.852.411,11.768,11.768,0,0,1,2.754,2.127,15.965,15.965,0,0,1,2.925,4.253,23.441,23.441,0,0,1,1.84,6.045,54.442,54.442,0,0,1,.64,6.272,15.035,15.035,0,0,1-.339,5.148,6.166,6.166,0,0,1-1.824,2.957,4.326,4.326,0,0,1-.786.535,1.072,1.072,0,0,1-.308.123" transform="translate(-91.013 -98.833)" fill="#455a64"/>
        <path id="Path_93497" data-name="Path 93497" d="M211.946,364.359a3.386,3.386,0,0,1,.53-.235l1.546-.607c1.343-.527,3.3-1.245,5.733-2.11,2.436-.846,5.343-1.842,8.612-2.816,3.263-.992,6.886-1.981,10.734-2.821a90.657,90.657,0,0,1,20-2.347l1.842.013,1.641.088c1.025.049,1.905.106,2.622.2l1.651.19a3.333,3.333,0,0,1,.573.092,3.5,3.5,0,0,1-.58-.017l-1.655-.121c-.717-.072-1.6-.107-2.619-.136l-1.636-.06-1.836.014a95.612,95.612,0,0,0-19.923,2.448c-3.837.838-7.453,1.813-10.716,2.786-3.268.954-6.18,1.923-8.624,2.736l-5.768,2-1.569.541a3.432,3.432,0,0,1-.556.165" transform="translate(-60.828 -101.431)" fill="#455a64"/>
        <path id="Path_93498" data-name="Path 93498" d="M178.633,350.682a.763.763,0,0,1-.119-.157l-.317-.481-1.189-1.863-.851-1.351c-.319-.488-.688-1-1.072-1.567-.78-1.117-1.621-2.422-2.674-3.777l-1.611-2.155c-.564-.747-1.2-1.486-1.829-2.272-1.243-1.588-2.7-3.18-4.194-4.88a126.084,126.084,0,0,0-10.6-10.234,126.131,126.131,0,0,0-11.823-8.8c-1.92-1.2-3.728-2.376-5.5-3.346-.878-.494-1.71-1-2.539-1.435l-2.388-1.241c-1.508-.819-2.932-1.437-4.161-2.025-.617-.287-1.187-.566-1.72-.8l-1.471-.62-2.031-.87-.525-.235a.789.789,0,0,1-.174-.092.741.741,0,0,1,.188.056l.538.2,2.06.806,1.486.591c.538.227,1.113.5,1.736.776,1.239.572,2.674,1.174,4.193,1.98l2.4,1.222c.834.429,1.672.93,2.556,1.42,1.78.96,3.6,2.127,5.53,3.326a122.149,122.149,0,0,1,11.877,8.8A122.2,122.2,0,0,1,165.03,331.95c1.5,1.711,2.943,3.315,4.18,4.916.626.793,1.257,1.538,1.816,2.292l1.6,2.175c1.041,1.368,1.869,2.686,2.634,3.816.376.57.737,1.092,1.048,1.587l.825,1.37,1.13,1.9.286.5a.753.753,0,0,1,.086.177" transform="translate(-34.97 -86.811)" fill="#455a64"/>
        <path id="Path_93499" data-name="Path 93499" d="M158.4,320.733a5.835,5.835,0,0,1-.585-.881c-.351-.581-.873-1.414-1.531-2.433A78.035,78.035,0,0,0,144.2,302.881c-.881-.834-1.6-1.5-2.112-1.95a5.8,5.8,0,0,1-.759-.737,5.693,5.693,0,0,1,.853.625c.537.42,1.289,1.056,2.2,1.867a66.044,66.044,0,0,1,12.13,14.593c.632,1.04,1.121,1.9,1.435,2.5a5.844,5.844,0,0,1,.46.953" transform="translate(-40.561 -86.155)" fill="#455a64"/>
        <path id="Path_93500" data-name="Path 93500" d="M108.76,315.215c-.094.069-1.6-2.051-3.931-4.225s-4.528-3.559-4.465-3.658a6.335,6.335,0,0,1,1.491.83,24.562,24.562,0,0,1,5.984,5.618,6.325,6.325,0,0,1,.922,1.435" transform="translate(-28.804 -88.202)" fill="#263238"/>
        <path id="Path_93501" data-name="Path 93501" d="M200.014,368.762l-30.461,3.447,1.728,15.637h35.1Z" transform="translate(-48.661 -105.834)" fill="#ffbe9d"/>
        <path id="Path_93502" data-name="Path 93502" d="M171.232,386.654c-4.664.14-13.636,4.21-16.8,7.25a34.015,34.015,0,0,0-7.139,10.915c-.594,1.333-1.3,2.822-2.763,3.218a3.936,3.936,0,0,1-3.785-1.472,7.134,7.134,0,0,1-1.45-3.862c-.655-6.126,3.03-11.436,6.76-16.034s4.692-6.581,5.678-13.859c.337-2.49,2.41-6.451,4.709-7.405,2.666-1.106,4.317-.249,6.267.928l6.861,3.909" transform="translate(-39.956 -104.723)" fill="#ffbe9d"/>
        <path id="Path_93503" data-name="Path 93503" d="M212.414,395.429a3.86,3.86,0,0,1-.861.042l-2.339.012c-1.975.01-4.7.069-7.718.131s-5.751.08-7.73.024c-.989-.026-1.789-.063-2.342-.107a3.847,3.847,0,0,1-.856-.1,3.856,3.856,0,0,1,.861-.042l2.339-.012c1.975-.01,4.7-.069,7.72-.131s5.749-.08,7.728-.024c.989.026,1.789.063,2.341.107a3.829,3.829,0,0,1,.856.1" transform="translate(-54.693 -113.417)" fill="#eb996e"/>
        <path id="Path_93504" data-name="Path 93504" d="M203.1,328.717a5.741,5.741,0,0,1,.58.886,11.375,11.375,0,0,1,.6,1.087c.215.434.483.918.707,1.487.243.56.5,1.176.726,1.86.255.672.449,1.415.669,2.193a28.172,28.172,0,0,1,.686,10.435c-.116.8-.211,1.562-.376,2.262-.131.707-.309,1.352-.476,1.939-.148.592-.35,1.107-.506,1.566a11.272,11.272,0,0,1-.453,1.157,5.692,5.692,0,0,1-.458.953,5.817,5.817,0,0,1,.324-1.006c.12-.317.26-.707.392-1.17s.319-.978.449-1.569c.15-.586.31-1.228.427-1.929.15-.7.232-1.45.339-2.242a29.631,29.631,0,0,0-.678-10.314c-.208-.77-.389-1.508-.629-2.177-.208-.68-.451-1.3-.677-1.857-.206-.57-.456-1.057-.65-1.5s-.381-.811-.542-1.109a5.732,5.732,0,0,1-.453-.955" transform="translate(-58.288 -94.341)" fill="#455a64"/>
        <path id="Path_93505" data-name="Path 93505" d="M217.967,337.479a5.507,5.507,0,0,1-.133-1.019c-.026-.329-.063-.729-.135-1.192s-.119-.992-.242-1.568a31.569,31.569,0,0,0-.986-4,31.235,31.235,0,0,0-4.543-8.972,31.5,31.5,0,0,0-2.644-3.165c-.391-.439-.789-.794-1.121-1.123s-.631-.6-.88-.815a5.5,5.5,0,0,1-.743-.709,5.51,5.51,0,0,1,.836.6,11.915,11.915,0,0,1,.928.772c.348.317.761.661,1.169,1.093a28.555,28.555,0,0,1,2.732,3.145,29.534,29.534,0,0,1,4.594,9.072,28.47,28.47,0,0,1,.918,4.063c.107.584.141,1.12.189,1.589a11.838,11.838,0,0,1,.074,1.2,5.45,5.45,0,0,1-.012,1.029" transform="translate(-59.276 -90.379)" fill="#455a64"/>
        <path id="Path_93506" data-name="Path 93506" d="M297.8,368.321a.9.9,0,0,1-.077.2c-.067.148-.153.337-.26.572a17.6,17.6,0,0,1-1.169,2.115,22.692,22.692,0,0,1-2.334,3.033,26.678,26.678,0,0,1-3.788,3.369,33.6,33.6,0,0,1-11.957,5.427,70.351,70.351,0,0,1-16.028,1.686c-11.439.038-21.786-.042-29.278-.075l-8.872-.074-2.412-.039-.627-.019a.108.108,0,1,1,0-.039l.627-.017,2.411-.031,8.872-.044,29.273-.034a71.1,71.1,0,0,0,15.951-1.647,33.744,33.744,0,0,0,11.885-5.307,27.011,27.011,0,0,0,3.79-3.3,23.434,23.434,0,0,0,2.365-2.971,20.551,20.551,0,0,0,1.223-2.069l.293-.555a.936.936,0,0,1,.111-.184" transform="translate(-63.363 -105.707)" fill="#e8505b"/>
        <path id="Path_93507" data-name="Path 93507" d="M333.382,348.834a34.642,34.642,0,0,1-1.519,4.811A34.21,34.21,0,0,1,330,358.331a68.436,68.436,0,0,1,3.386-9.5" transform="translate(-94.705 -100.114)" fill="#e8505b"/>
        <path id="Path_93508" data-name="Path 93508" d="M139.314,351.3a.647.647,0,0,1-.171-.058l-.486-.2-1.855-.814c-1.606-.717-3.926-1.765-6.763-3.127s-6.187-3.047-9.788-5.142a80.408,80.408,0,0,1-11.127-7.716A64.611,64.611,0,0,1,93.74,315.184a60.156,60.156,0,0,1-3.094-6.783c-.329-.817-.528-1.472-.684-1.908-.066-.2-.121-.367-.165-.5a.622.622,0,0,1-.043-.175.684.684,0,0,1,.08.162c.053.13.118.29.2.488.179.427.4,1.074.748,1.88a67.545,67.545,0,0,0,3.191,6.712,66.037,66.037,0,0,0,15.392,18.9,82.324,82.324,0,0,0,11.062,7.705c3.579,2.1,6.912,3.81,9.73,5.2s5.121,2.474,6.709,3.231l1.825.878.471.237a.647.647,0,0,1,.155.092" transform="translate(-25.759 -87.769)" fill="#e8505b"/>
        <path id="Path_93509" data-name="Path 93509" d="M221.394,76.106a5.59,5.59,0,0,0-10.03.873,9.773,9.773,0,0,1-.968,2.463c-1.43,1.937-4.978,1.373-6.123,3.491-1.218,2.252,1.6,4.948.913,7.415-.546,1.973-3.081,2.863-3.658,4.827-.765,2.6,2.366,5.176,1.616,7.785-.646,2.242-3.807,3.076-4.307,5.356-.552,2.518,2.547,4.564,2.5,7.142-.064,3.3-5.1,5.112-4.634,8.378.256,1.805,2.177,3.009,2.5,4.8.6,3.376-4.622,5.72-4,9.093.294,1.586,1.791,2.6,3.087,3.563s2.633,2.337,2.374,3.929c-.271,1.667-2.1,2.537-3.106,3.9-1.537,2.088.908,7.51,3.282,8.554l9.871-7.373s-2.83-2.361-.613-4.525.782-3.138.7-4.778c0,0,2.2,1.852,1.395,3.79a4.8,4.8,0,0,0,.513,4.605l15.058-6.755,1.62-14.284Z" transform="translate(-56.008 -21.059)" fill="#263238"/>
        <path id="Path_93510" data-name="Path 93510" d="M198.481,142.372a4.063,4.063,0,0,1-.958.041,6.058,6.058,0,0,1-2.63-.784,5.945,5.945,0,0,1-2.731-3.325,6.184,6.184,0,0,1-.279-2.722,8.549,8.549,0,0,1,1.013-2.893c.492-.952,1.1-1.89,1.566-2.941a6,6,0,0,0,.575-3.432c-.21-1.2-1.133-2.172-1.857-3.305a3.36,3.36,0,0,1-.65-1.991,2.431,2.431,0,0,1,1.11-1.845,15.951,15.951,0,0,1,1.891-1.042,3.612,3.612,0,0,0,1.564-1.333,2.6,2.6,0,0,0,.15-2.033,6.759,6.759,0,0,0-.984-1.974c-.431-.613-.937-1.216-1.358-1.886a5.247,5.247,0,0,1-.888-2.25,3.28,3.28,0,0,1,.742-2.354,9.693,9.693,0,0,1,1.859-1.617,12.511,12.511,0,0,0,1.851-1.5,3.062,3.062,0,0,0,.9-2.01,4.832,4.832,0,0,0-.633-2.152c-.351-.683-.767-1.338-1.1-2.044a4.215,4.215,0,0,1-.513-2.287,3.1,3.1,0,0,1,.352-1.132,4.77,4.77,0,0,1,.7-.919c1.047-1.072,2.386-1.792,2.95-3.037a3.524,3.524,0,0,0,.239-1.949,10.265,10.265,0,0,0-.5-1.931,8.6,8.6,0,0,1-.727-3.846,2.939,2.939,0,0,1,.808-1.727,3.624,3.624,0,0,1,1.585-.913c1.142-.344,2.269-.388,3.29-.633a3.743,3.743,0,0,0,2.445-1.5c.528-.774.814-1.656,1.327-2.357a5.389,5.389,0,0,1,3.7-2.167,5.321,5.321,0,0,1,2.721.317,3.734,3.734,0,0,1,.638.329,1.168,1.168,0,0,1,.2.135c-.015.026-.282-.178-.867-.394a5.4,5.4,0,0,0-2.673-.244,5.254,5.254,0,0,0-3.552,2.141c-.485.674-.757,1.551-1.3,2.373a3.99,3.99,0,0,1-2.58,1.624c-1.048.26-2.178.315-3.264.652a3.339,3.339,0,0,0-1.456.846,2.631,2.631,0,0,0-.718,1.559,8.36,8.36,0,0,0,.732,3.7,10.628,10.628,0,0,1,.519,1.993,3.859,3.859,0,0,1-.26,2.133c-.64,1.387-2.024,2.113-3.007,3.142a4.416,4.416,0,0,0-.642.845,2.71,2.71,0,0,0-.307,1,3.867,3.867,0,0,0,.483,2.093c.324.679.739,1.33,1.1,2.034a5.153,5.153,0,0,1,.677,2.324,3.434,3.434,0,0,1-1,2.257,12.849,12.849,0,0,1-1.9,1.548,9.383,9.383,0,0,0-1.787,1.549,2.9,2.9,0,0,0-.663,2.087,4.906,4.906,0,0,0,.829,2.088c.409.652.9,1.236,1.348,1.876a7.1,7.1,0,0,1,1.031,2.086,2.962,2.962,0,0,1-.186,2.3,3.956,3.956,0,0,1-1.71,1.467,15.921,15.921,0,0,0-1.853,1.01,2.093,2.093,0,0,0-.977,1.591,3.049,3.049,0,0,0,.593,1.8c.686,1.1,1.653,2.1,1.884,3.423a6.274,6.274,0,0,1-.616,3.6c-.483,1.077-1.1,2.01-1.6,2.947a8.378,8.378,0,0,0-1.011,2.8,6,6,0,0,0,.242,2.627,5.826,5.826,0,0,0,2.605,3.266,6.2,6.2,0,0,0,2.563.835c.622.053.952.014.953.034" transform="translate(-55.057 -20.815)" fill="#263238"/>
        <path id="Path_93511" data-name="Path 93511" d="M201.59,154.79a.705.705,0,0,1-.2-.143,1.054,1.054,0,0,1-.311-.655,1.867,1.867,0,0,1,.266-1.152,2.258,2.258,0,0,1,1.291-.96,19.1,19.1,0,0,1,1.957-.455,2.914,2.914,0,0,0,1.883-1.214,1.408,1.408,0,0,0,.072-1.194,5.6,5.6,0,0,0-.714-1.181,2.975,2.975,0,0,1-.623-1.406,2.675,2.675,0,0,1,.393-1.576c.262-.485.587-.934.872-1.41a2.932,2.932,0,0,0,.508-1.542,2.331,2.331,0,0,0-.717-1.494c-.4-.443-.888-.832-1.32-1.321a2.186,2.186,0,0,1-.663-1.879,1.674,1.674,0,0,1,.491-.943,3.308,3.308,0,0,1,.861-.6c.62-.31,1.272-.528,1.9-.8a3.777,3.777,0,0,0,1.623-1.152,2.319,2.319,0,0,0,.29-1.932,12.8,12.8,0,0,0-.759-2.04,8.447,8.447,0,0,1-.691-2.194,4.473,4.473,0,0,1,.386-2.336c.617-1.455,1.673-2.706,2-4.223a3.556,3.556,0,0,0-.3-2.242,21.348,21.348,0,0,0-1.209-2.1,5.193,5.193,0,0,1-.851-2.367,3.666,3.666,0,0,1,.843-2.343c.49-.66,1.065-1.215,1.555-1.816a3.878,3.878,0,0,0,.983-1.976,3.51,3.51,0,0,0-.524-2.091c-.354-.655-.8-1.268-1.164-1.933a4.207,4.207,0,0,1-.64-2.185,4.36,4.36,0,0,1,.754-2.092c.376-.614.793-1.18,1.084-1.787a2.8,2.8,0,0,0,.284-1.883c-.277-1.267-1.268-2.28-1.51-3.609a2.526,2.526,0,0,1,.416-1.882,8.491,8.491,0,0,1,1.227-1.353,6.345,6.345,0,0,0,1.092-1.281,3.261,3.261,0,0,0,.408-1.519c.04-1.052-.2-2.073-.134-3.067a5.69,5.69,0,0,1,.836-2.637,5.485,5.485,0,0,1,3.523-2.53,5.681,5.681,0,0,1,2.771.081,3.874,3.874,0,0,1,.9.368c-.008.019-.307-.137-.916-.3a5.793,5.793,0,0,0-2.72-.012,5.353,5.353,0,0,0-3.377,2.5,5.493,5.493,0,0,0-.779,2.541c-.053.951.191,1.961.161,3.065a3.522,3.522,0,0,1-.432,1.645,6.593,6.593,0,0,1-1.13,1.349,8.26,8.26,0,0,0-1.178,1.311,2.216,2.216,0,0,0-.362,1.668c.209,1.2,1.2,2.2,1.526,3.592a3.142,3.142,0,0,1-.3,2.1,21.215,21.215,0,0,1-1.094,1.82,4.03,4.03,0,0,0-.7,1.927,3.868,3.868,0,0,0,.6,2c.356.64.8,1.252,1.171,1.934a3.868,3.868,0,0,1,.569,2.3,4.234,4.234,0,0,1-1.06,2.168c-.507.62-1.079,1.175-1.543,1.8a3.3,3.3,0,0,0-.769,2.109,4.848,4.848,0,0,0,.8,2.192,21.373,21.373,0,0,1,1.229,2.141,3.929,3.929,0,0,1,.324,2.464c-.364,1.652-1.441,2.9-2.024,4.294a4.1,4.1,0,0,0-.364,2.149,8.158,8.158,0,0,0,.66,2.1,13,13,0,0,1,.772,2.1,2.666,2.666,0,0,1-.351,2.2,4.087,4.087,0,0,1-1.767,1.262c-.645.28-1.3.495-1.885.787a1.917,1.917,0,0,0-1.187,1.313,1.873,1.873,0,0,0,.583,1.619c.4.463.892.86,1.309,1.325a2.614,2.614,0,0,1,.783,1.685,3.2,3.2,0,0,1-.558,1.691c-.3.488-.623.933-.878,1.394a2.441,2.441,0,0,0-.375,1.427,2.748,2.748,0,0,0,.57,1.3,5.8,5.8,0,0,1,.729,1.24,1.629,1.629,0,0,1-.1,1.37,3.081,3.081,0,0,1-2.024,1.286c-.723.16-1.389.227-1.951.42a2.148,2.148,0,0,0-1.243.881,1.809,1.809,0,0,0-.285,1.087,1.131,1.131,0,0,0,.438.806" transform="translate(-57.705 -22.429)" fill="#455a64"/>
        <path id="Path_93512" data-name="Path 93512" d="M291.245,277.295l-12.412-41.388,3.872-65.618a66.664,66.664,0,0,0-30.668-8.249l-21.4,1.61-23.59,11.787,4.967,39.655,8.012,34.243-4.936,20.925c20.19,14.517,47.02,16.1,76.158,7.036" transform="translate(-59.421 -46.505)" fill="#19ceab"/>
        <path id="Path_93513" data-name="Path 93513" d="M298.9,211.846s24.138,1.24,24.138-.759a83.706,83.706,0,0,0-4.719-24.713c-2.613-6.828-7.141-11.858-9.554-12.891-5.6-2.4-9.866,38.364-9.866,38.364" transform="translate(-85.784 -49.76)" fill="#19ceab"/>
        <path id="Path_93514" data-name="Path 93514" d="M200.783,180.574s-4.561,3.785-9.357,15.169c-5.685,13.494-7.337,16.277-7.337,16.277L198.4,231.373l7.771-8.711Z" transform="translate(-52.833 -51.824)" fill="#19ceab"/>
        <path id="Path_93515" data-name="Path 93515" d="M219.721,259.16a.561.561,0,0,1-.056-.158l-.128-.471q-.168-.67-.456-1.819c-.391-1.581-.93-3.876-1.581-6.715-1.3-5.677-3.01-13.541-4.847-22.234s-3.505-16.537-4.719-22.264c-.606-2.822-1.1-5.117-1.449-6.742l-.383-1.836c-.036-.192-.066-.349-.091-.479a.586.586,0,0,1-.019-.167.572.572,0,0,1,.056.158l.126.471q.167.67.451,1.82c.386,1.582.92,3.878,1.564,6.718,1.291,5.68,2.988,13.546,4.826,22.243,1.848,8.676,3.521,16.53,4.74,22.254.613,2.821,1.112,5.115,1.465,6.739q.246,1.158.389,1.835c.037.192.068.349.092.479a.541.541,0,0,1,.019.166" transform="translate(-59.119 -56.33)" fill="#263238"/>
        <g id="Group_46880" data-name="Group 46880" transform="translate(194.583 118.441)" opacity="0.3">
          <g id="Group_46879" data-name="Group 46879">
            <g id="Group_46878" data-name="Group 46878" clip-path="url(#clip-path-12)">
              <path id="Path_93516" data-name="Path 93516" d="M295.11,168.279a15.565,15.565,0,0,0-19.827,3.368l-.328-2.424c-.2,2.623-2.312,5.584-2.02,7.295a3.947,3.947,0,0,0,3.433,3.372c2.453.1,4.694-2.646,6.971-1.727.757.305,1.315.973,2.055,1.315,1.658.766,3.547-.3,5.036-1.359q2.567-1.824,5.041-3.774a4.366,4.366,0,0,0,2-2.758c.122-1.427-1.129-2.581-2.361-3.31" transform="translate(-272.907 -166.116)"/>
            </g>
          </g>
        </g>
        <path id="Path_93517" data-name="Path 93517" d="M304.613,175.365a17.233,17.233,0,0,0-4,3.581,18.564,18.564,0,0,0-2.755,5.127A61.563,61.563,0,0,0,295.912,191a42.862,42.862,0,0,0-.948,7.114c-.136,2.21-.181,4.206-.249,5.883s-.14,3.035-.225,3.97c-.036.468-.083.831-.112,1.076a1.434,1.434,0,0,1-.066.373,1.477,1.477,0,0,1-.009-.379c.011-.289.026-.645.043-1.079.04-.937.076-2.292.106-3.969s.052-3.676.17-5.9a41.087,41.087,0,0,1,.928-7.179,57.832,57.832,0,0,1,1.983-6.956,18.236,18.236,0,0,1,2.87-5.171,13.526,13.526,0,0,1,2.94-2.694c.387-.269.718-.43.93-.557a1.437,1.437,0,0,1,.339-.166" transform="translate(-84.463 -50.329)" fill="#263238"/>
        <path id="Path_93518" data-name="Path 93518" d="M266.916,299.719a1.3,1.3,0,0,1-.36-.041l-1.019-.187c-.883-.166-2.155-.443-3.72-.816a121.367,121.367,0,0,1-23.657-8.374c-1.451-.694-2.613-1.279-3.4-1.705l-.909-.5a1.306,1.306,0,0,1-.305-.2,1.363,1.363,0,0,1,.339.128l.94.433c.811.387,1.989.935,3.451,1.6,2.923,1.325,7.009,3.052,11.625,4.689s8.879,2.861,11.985,3.669c1.553.406,2.814.721,3.687.931l1,.255a1.318,1.318,0,0,1,.344.113" transform="translate(-67.026 -82.627)" fill="#263238"/>
        <path id="Path_93519" data-name="Path 93519" d="M268.126,291.483a1.421,1.421,0,0,1-.369.053l-1.064.082c-.924.068-2.264.124-3.92.153a104.352,104.352,0,0,1-25.687-2.8c-1.611-.386-2.908-.729-3.795-.995l-1.021-.31a1.459,1.459,0,0,1-.349-.132,1.4,1.4,0,0,1,.369.06l1.038.242c.9.222,2.2.526,3.816.878a120.383,120.383,0,0,0,25.626,2.795c1.653,0,2.992-.011,3.917-.035l1.066-.012a1.4,1.4,0,0,1,.373.021" transform="translate(-66.561 -82.521)" fill="#263238"/>
        <g id="Group_46883" data-name="Group 46883" transform="translate(150.585 164.613)" opacity="0.3">
          <g id="Group_46882" data-name="Group 46882">
            <g id="Group_46881" data-name="Group 46881" clip-path="url(#clip-path-13)">
              <path id="Path_93520" data-name="Path 93520" d="M283.087,268.733c-1.278-2.1-3.791-3.028-6.091-3.9a103.22,103.22,0,0,1-33.7-20.884c-4.659-4.329-9.083-9.2-14.93-11.7s-13.729-1.754-17.164,3.6l2.149,1.4c10.778,3.594,17.933,13.471,25.714,21.75a227.693,227.693,0,0,0,18.879,17.288c4.178,3.547,8.855,7.288,14.336,7.292a12.089,12.089,0,0,0,11.57-9.927,7.344,7.344,0,0,0-.759-4.916" transform="translate(-211.198 -230.873)"/>
            </g>
          </g>
        </g>
        <path id="Path_93521" data-name="Path 93521" d="M155.942,138.151h-1.858a4.067,4.067,0,0,0-3.412,6.277l2.886,4.456a4.235,4.235,0,0,0-2.057,4.668s-1.878,1.145-.894,4.991c0,0-1.253,3.22.268,5.456s6.35,10.822,6.35,10.822V184.3l12.86-1.484V171.87a15.857,15.857,0,0,0,1.9-4.919c.536-2.773-1.521-13.4-1.521-13.4l-5.9-6.815-6.618-2.593a3.341,3.341,0,0,0-.419,2.386,2.949,2.949,0,0,0,.15.476l-.983-.448-2.212-4.024V142s5.435-1.22,3.353-3.146a2.771,2.771,0,0,0-1.887-.7" transform="translate(-43.055 -39.649)" fill="#ffbe9d"/>
        <path id="Path_93522" data-name="Path 93522" d="M165.149,173.464c.016-.013.178.156.315.542a2.973,2.973,0,0,1,.086,1.717,1.425,1.425,0,0,1-.8.947,2.078,2.078,0,0,1-1.415.059,5.3,5.3,0,0,1-2.305-2.077,4.607,4.607,0,0,0-1.1-1.037,2.129,2.129,0,0,0-1.3-.327l-2.481.15a14.225,14.225,0,0,1-2.3.05,13.984,13.984,0,0,1,2.278-.312c.709-.071,1.54-.157,2.488-.231a2.467,2.467,0,0,1,1.507.359,4.807,4.807,0,0,1,1.2,1.114c.667.849,1.275,1.717,2.118,1.983a1.785,1.785,0,0,0,1.193-.015,1.154,1.154,0,0,0,.672-.742,3.105,3.105,0,0,0,.026-1.6c-.088-.379-.2-.567-.177-.583" transform="translate(-44.154 -49.632)" fill="#eb996e"/>
        <path id="Path_93523" data-name="Path 93523" d="M162.2,150.82c-.015.044-.285.009-.661-.209a2.761,2.761,0,0,1-1.283-2.928c.094-.424.252-.645.294-.627a3.529,3.529,0,0,0,1.649,3.764" transform="translate(-45.976 -42.204)" fill="#263238"/>
        <path id="Path_93524" data-name="Path 93524" d="M160.181,173.064c.044,0,.069.3-.041.769a4.142,4.142,0,0,1-2.354,2.756c-.444.183-.742.2-.753.16a5.971,5.971,0,0,0,3.149-3.686" transform="translate(-45.068 -49.669)" fill="#eb996e"/>
        <path id="Path_93525" data-name="Path 93525" d="M170.226,182.214a7.225,7.225,0,0,0-5.736-3.129,1.987,1.987,0,0,1,1.022-.126,5.624,5.624,0,0,1,4.266,2.327,1.988,1.988,0,0,1,.448.928" transform="translate(-47.208 -51.36)" fill="#eb996e"/>
        <path id="Path_93526" data-name="Path 93526" d="M167.8,165.029a9.153,9.153,0,0,1,1.04,2.866,9.934,9.934,0,0,1,.186,2.966c-.262,1.616-1,6.193.041,7.27S177.181,185,177.181,185h4.443s-9.02-5.568-10.232-9.313-.047-5.748-.657-8.081a63.294,63.294,0,0,0-3.035-7.51l-10.309-16.964-1.7.4Z" transform="translate(-44.683 -41.077)" fill="#e0e0e0"/>
        <path id="Path_93527" data-name="Path 93527" d="M167.706,164.955s-.089-.125-.242-.38l-.665-1.132-2.488-4.329-8.854-15.583-.1-.181.2-.048,1.7-.4.113-.026.061.1,10.329,16.952.006.009,0,.009c.848,1.818,1.712,3.751,2.468,5.77a9.832,9.832,0,0,1,.769,3.179c.026,1.094-.123,2.142-.107,3.177a11.154,11.154,0,0,0,.433,3.028,6.655,6.655,0,0,0,1.435,2.576,29.185,29.185,0,0,0,4.306,3.942c1.51,1.157,3.032,2.217,4.538,3.171l.485.307h-.571l-4.443-.009h-.056l-.043-.036c-2.8-2.315-5.355-4.426-7.556-6.384a3.6,3.6,0,0,1-.758-.825,3.356,3.356,0,0,1-.287-1.046,11.051,11.051,0,0,1-.039-2,33.578,33.578,0,0,1,.41-3.471,7.738,7.738,0,0,0,.038-2.767,10.655,10.655,0,0,0-.429-2.012,10.106,10.106,0,0,0-.474-1.185,4.329,4.329,0,0,1-.185-.4,6.9,6.9,0,0,1,.749,1.554,10.311,10.311,0,0,1,.477,2.024,7.823,7.823,0,0,1,0,2.814,34.213,34.213,0,0,0-.37,3.455,10.9,10.9,0,0,0,.055,1.956,3.155,3.155,0,0,0,.27.963,3.489,3.489,0,0,0,.711.751c2.205,1.932,4.78,4.031,7.583,6.331l-.1-.036,4.443-.009-.087.305q-2.286-1.435-4.577-3.176a29.4,29.4,0,0,1-4.371-3.986,7.034,7.034,0,0,1-1.51-2.709,11.542,11.542,0,0,1-.45-3.124c-.016-1.064.133-2.126.1-3.169a9.481,9.481,0,0,0-.747-3.062c-.748-2-1.611-3.931-2.453-5.74l.009.016c-3.728-6.149-7.222-11.914-10.29-16.977l.174.073-1.7.395.1-.23,8.739,15.648c1.033,1.872,1.847,3.346,2.414,4.373l.624,1.155c.139.262.2.4.2.4" transform="translate(-44.586 -41.004)" fill="#263238"/>
        <path id="Path_93528" data-name="Path 93528" d="M154.542,153.357a5.481,5.481,0,0,1,4.627-1.673,9.14,9.14,0,0,1,4.627,2,28.659,28.659,0,0,1,3.632,3.585,6.139,6.139,0,0,1,1.7,2.722,2.089,2.089,0,0,1-1.432,2.528c-1.039.156-1.892-.75-2.615-1.512a18.112,18.112,0,0,0-3.305-2.752,5.978,5.978,0,0,0-2.435-1.032,7.161,7.161,0,0,0-3.163.565" transform="translate(-44.353 -43.525)" fill="#ffbe9d"/>
        <path id="Path_93529" data-name="Path 93529" d="M156.182,157.742a1.273,1.273,0,0,1,.327-.15c.219-.085.543-.207.975-.328a5.261,5.261,0,0,1,1.628-.213,4.811,4.811,0,0,1,2.081.65,18.1,18.1,0,0,1,4.372,3.513,4.437,4.437,0,0,0,1.223.94,1.4,1.4,0,0,0,1.425-.081,1.976,1.976,0,0,0,.756-1.353,2.679,2.679,0,0,0-.342-1.618,16.359,16.359,0,0,0-2.2-2.707,24.907,24.907,0,0,0-2.334-2.3,9.38,9.38,0,0,0-4.9-2.328,5.847,5.847,0,0,0-3.566.714,8.487,8.487,0,0,0-1.092.824,1.16,1.16,0,0,1,.22-.285,4.328,4.328,0,0,1,.8-.661,5.8,5.8,0,0,1,3.669-.853,9.5,9.5,0,0,1,5.087,2.326,24.448,24.448,0,0,1,2.384,2.313,16.217,16.217,0,0,1,2.259,2.78,3.041,3.041,0,0,1,.379,1.842,2.331,2.331,0,0,1-.914,1.6,1.762,1.762,0,0,1-1.78.1,4.71,4.71,0,0,1-1.32-1.022,18.494,18.494,0,0,0-4.256-3.524,4.691,4.691,0,0,0-1.966-.672,5.388,5.388,0,0,0-1.58.147c-.859.205-1.328.369-1.338.337" transform="translate(-44.353 -43.476)" fill="#eb996e"/>
        <path id="Path_93530" data-name="Path 93530" d="M154.069,164.234c2.258.542,4.81,0,6.806,1.191a8.854,8.854,0,0,1,1.755,1.517l3.119,3.214c.572.589,1.353,1.234,2.129.853a1.277,1.277,0,0,0,.66-.95,3.205,3.205,0,0,0-.535-2.011,42.5,42.5,0,0,0-2.442-3.989,11.732,11.732,0,0,0-1.534-1.835,10.048,10.048,0,0,0-3.144-2.264,5.45,5.45,0,0,0-4.423,0" transform="translate(-44.217 -45.772)" fill="#ffbe9d"/>
        <path id="Path_93531" data-name="Path 93531" d="M156.458,159.923a1.246,1.246,0,0,1,.314-.175,4.455,4.455,0,0,1,.985-.312,6.757,6.757,0,0,1,3.725.6,10.784,10.784,0,0,1,2.123,1.546,12.342,12.342,0,0,1,2.019,2.231c.6.867,1.206,1.79,1.79,2.778.292.494.578,1,.853,1.529a3.232,3.232,0,0,1,.469,1.812,1.589,1.589,0,0,1-.4.922,1.3,1.3,0,0,1-.922.417,2.481,2.481,0,0,1-1.628-.853c-.794-.821-1.56-1.615-2.292-2.371s-1.4-1.508-2.092-2.093a5.112,5.112,0,0,0-2.262-1.068c-1.534-.306-2.839-.265-3.72-.4a8.938,8.938,0,0,1-1.012-.177,1.328,1.328,0,0,1-.342-.11c.008-.032.486.081,1.368.143a34,34,0,0,1,3.76.285,5.332,5.332,0,0,1,2.4,1.086c.742.608,1.4,1.355,2.143,2.094l2.3,2.349a2.168,2.168,0,0,0,1.368.746,1.036,1.036,0,0,0,.957-1.008,2.9,2.9,0,0,0-.428-1.6c-.27-.518-.552-1.024-.839-1.514-.575-.98-1.171-1.9-1.758-2.767a12.287,12.287,0,0,0-1.945-2.2,10.847,10.847,0,0,0-2.036-1.541,6.9,6.9,0,0,0-3.581-.689,10.693,10.693,0,0,0-1.321.344" transform="translate(-44.217 -45.737)" fill="#eb996e"/>
        <path id="Path_93532" data-name="Path 93532" d="M157.682,142.278a7.467,7.467,0,0,1-2.594,1.056,5.986,5.986,0,0,1-2.789.271c0-.1,1.226-.227,2.7-.63a18.5,18.5,0,0,1,2.688-.7" transform="translate(-43.709 -40.829)" fill="#eb996e"/>
        <path id="Path_93533" data-name="Path 93533" d="M176.046,217.478,172.986,199l-12.86,2.373s.67,25.181,1.283,31.379c.994,10.037,5.963,20.678,13.564,18.791,7.082-1.759,15.443-16.556,15.443-16.556Z" transform="translate(-45.956 -57.113)" fill="#ffbe9d"/>
        <path id="Path_93534" data-name="Path 93534" d="M272.784,74.808a1.606,1.606,0,0,0,2.427-.031,4.946,4.946,0,0,0,.978-2.586,4.148,4.148,0,0,1,1.112-2.513c.712-.607,2.048-.52,2.354.364a2.22,2.22,0,0,1,2.746-2.7,3.217,3.217,0,0,1,6.357.046,2.186,2.186,0,0,1,3.741,1.943,2.979,2.979,0,0,1,2.074,4.416,2.863,2.863,0,0,1,1.333,5.2,2.508,2.508,0,0,1-2.408,3.465,3.967,3.967,0,0,1-5.427,1.375,11.51,11.51,0,0,1-10.911-1.371" transform="translate(-78.288 -18.553)" fill="#263238"/>
        <path id="Path_93535" data-name="Path 93535" d="M257.7,89.2a4.444,4.444,0,0,0-4.274-4.224L229.5,80.649c-7.588-.28-11.961,9.34-11.919,16.932.047,8.436.437,18.733,1.862,24.932,2.866,12.465,12.634,13.406,12.634,13.406,0-.037.094,3.9.357,9.4A13.293,13.293,0,0,0,259,144.369Z" transform="translate(-62.444 -23.144)" fill="#ffbe9d"/>
        <path id="Path_93536" data-name="Path 93536" d="M223.531,116.355a1.62,1.62,0,0,0,1.671,1.524,1.549,1.549,0,0,0,1.566-1.571,1.62,1.62,0,0,0-1.668-1.524,1.55,1.55,0,0,0-1.568,1.572" transform="translate(-64.152 -32.942)" fill="#263238"/>
        <path id="Path_93537" data-name="Path 93537" d="M221.479,109.762c.215.2,1.377-.793,3.117-.908,1.736-.14,3.074.667,3.248.441.086-.1-.144-.467-.728-.834a4.443,4.443,0,0,0-2.617-.614,4.267,4.267,0,0,0-2.463.985c-.506.447-.662.841-.556.928" transform="translate(-63.555 -30.949)" fill="#263238"/>
        <path id="Path_93538" data-name="Path 93538" d="M246.362,115.66a1.62,1.62,0,0,0,1.67,1.524,1.55,1.55,0,0,0,1.566-1.571,1.62,1.62,0,0,0-1.669-1.524,1.55,1.55,0,0,0-1.567,1.572" transform="translate(-70.705 -32.743)" fill="#263238"/>
        <path id="Path_93539" data-name="Path 93539" d="M245.568,109.717c.215.2,1.379-.793,3.117-.908,1.735-.14,3.074.667,3.248.441.086-.1-.142-.467-.728-.833a4.449,4.449,0,0,0-2.617-.615,4.272,4.272,0,0,0-2.463.986c-.5.447-.661.841-.557.928" transform="translate(-70.469 -30.936)" fill="#263238"/>
        <path id="Path_93540" data-name="Path 93540" d="M236.149,123.333a11.571,11.571,0,0,0-2.86-.316c-.447-.016-.873-.075-.969-.373a2.266,2.266,0,0,1,.206-1.337l1.082-3.472c1.493-4.94,2.542-8.989,2.342-9.047s-1.571,3.9-3.065,8.838c-.357,1.218-.7,2.378-1.025,3.488a2.573,2.573,0,0,0-.111,1.759,1.116,1.116,0,0,0,.774.6,3,3,0,0,0,.762.053,11.329,11.329,0,0,0,2.863-.193" transform="translate(-66.476 -31.222)" fill="#263238"/>
        <path id="Path_93541" data-name="Path 93541" d="M237.869,155.89a32.133,32.133,0,0,0,16.568-5.66s-3.663,8.957-16.357,8.643Z" transform="translate(-68.268 -43.116)" fill="#eb996e"/>
        <path id="Path_93542" data-name="Path 93542" d="M243.981,103.595c.2.461,1.925.118,3.981.224,2.061.065,3.746.549,3.988.106.107-.211-.211-.637-.907-1.049a6.937,6.937,0,0,0-6.073-.252c-.727.354-1.079.751-.99.97" transform="translate(-70.018 -29.286)" fill="#263238"/>
        <path id="Path_93543" data-name="Path 93543" d="M221.963,103.748c.332.374,1.5-.118,2.943-.236,1.435-.169,2.678.083,2.93-.35.111-.209-.109-.591-.669-.928a4.271,4.271,0,0,0-4.732.472c-.481.441-.62.859-.472,1.042" transform="translate(-63.687 -29.196)" fill="#263238"/>
        <path id="Path_93544" data-name="Path 93544" d="M228.972,74.952c-.747,1.564,2.311,4.448,3.954,5,1.745.588,3.761.266,4.649,1.754,1.009,1.69-1.05,4.416,2.374,6.255,1.079.58,2.66-.635,3.564.191,1.117,1.022-.34,2.8-.293,4.309.092,2.94,5.454,3.174,5.808,6.094.222,1.834-1.83,3.586-1.115,5.289.731,1.743,3.662,1.594,4.389,3.338.934,2.243-2.856,4.18-2.384,6.564.467,2.356,4.415,2.356,5.207,4.624.678,1.939-1.505,4.059-.762,5.975.847,2.184,4.545,1.867,5.534,3.991,1.195,2.567-2.866,5.526-1.486,8,.461.826,1.517,1.117,2.137,1.832,2.008,2.314,1.826,7.348-.247,9.362.468-.011.965-.017,1.482-.026a13.5,13.5,0,0,0,11.147-6.23l1.231,2.863c3.95-1.253,7.031-3.841,10.2-6.5a6.338,6.338,0,0,1,5.748-1.258l.873.238c2.645.2,6.115-1.116,8.321-2.587-2.917-.587-4.481-3.764-5.207-6.649s-1.173-6.1-3.353-8.12c-2.359-2.193-6.451-2.687-7.539-5.718-.854-2.38.73-5.1-.038-7.507-.776-2.435-3.635-3.63-4.741-5.934-1.505-3.134.67-7.285-1.243-10.189-2.078-3.155-7.646-2.692-9.218-6.128-.869-1.9-.165-4.48-1.668-5.934-1.2-1.161-3.251-.97-4.51-2.066-1.851-1.609-.948-4.9-2.56-6.751-2.175-2.494-6.639-.3-9.432-2.071-1.762-1.119-2.349-3.524-4.088-4.679-2.361-1.566-5.452-.153-8.128.781-2.067.721-4.242,1.136-6.247,2.016a8.062,8.062,0,0,0-4.611,4.411c-.712,2.071.179,4.759,2.252,5.463" transform="translate(-64.999 -17.673)" fill="#263238"/>
        <path id="Path_93545" data-name="Path 93545" d="M303.082,124.3a1.514,1.514,0,0,1,.21.181c.134.125.332.312.579.57a7.887,7.887,0,0,1,.841,1.024,3.973,3.973,0,0,1,.684,1.679,2.808,2.808,0,0,1-.661,2.155,1.778,1.778,0,0,1-2.532.235,4.339,4.339,0,0,1-1.194-2.853,31.268,31.268,0,0,1,.021-3.469c.061-1.212.173-2.48.344-3.794.085-.657.189-1.327.3-2a7.91,7.91,0,0,0,.129-2.046,2.225,2.225,0,0,0-.936-1.725,3.352,3.352,0,0,0-2.065-.378,19.748,19.748,0,0,1-2.322.113,2.886,2.886,0,0,1-2.195-1.048,4.191,4.191,0,0,1-.757-2.378,12.368,12.368,0,0,1,.192-2.506,9.069,9.069,0,0,0,.074-2.479,2.989,2.989,0,0,0-1.187-2.062,14.157,14.157,0,0,0-2.322-1.156,4.44,4.44,0,0,1-2.046-1.824,10.563,10.563,0,0,1-.872-5.43,16.221,16.221,0,0,0-.137-2.715,5.46,5.46,0,0,0-.95-2.422c-1.071-1.4-2.809-2.019-4.38-2.729a11.613,11.613,0,0,1-2.3-1.264,4.327,4.327,0,0,1-1.552-2.092,13.461,13.461,0,0,1-.365-2.488,3.1,3.1,0,0,0-.888-2.071,4.311,4.311,0,0,0-2.086-.843,11.821,11.821,0,0,1-2.269-.553,3.1,3.1,0,0,1-1.673-1.581,6.522,6.522,0,0,1-.451-2.169,9.065,9.065,0,0,0-.717-3.95,5.418,5.418,0,0,0-2.843-2.258,10.463,10.463,0,0,0-3.337-.641c-1.083-.057-2.113-.043-3.077-.081a14.111,14.111,0,0,1-2.675-.316,7.53,7.53,0,0,1-2.106-.841,5,5,0,0,1-2.128-2.255,2.973,2.973,0,0,1-.278-1.052,6.2,6.2,0,0,0,.346,1.022,5.025,5.025,0,0,0,2.133,2.16,7.459,7.459,0,0,0,2.073.794,14.079,14.079,0,0,0,2.642.281c.958.029,1.986,0,3.082.053a10.672,10.672,0,0,1,3.419.632,5.68,5.68,0,0,1,3,2.361,9.269,9.269,0,0,1,.776,4.069,6.235,6.235,0,0,0,.433,2.059,2.771,2.771,0,0,0,1.51,1.412,11.674,11.674,0,0,0,2.207.527,4.617,4.617,0,0,1,2.251.916,3.434,3.434,0,0,1,1,2.282,13.355,13.355,0,0,0,.356,2.421,3.966,3.966,0,0,0,1.432,1.915,11.35,11.35,0,0,0,2.231,1.219c.792.352,1.611.687,2.4,1.117a6.456,6.456,0,0,1,2.125,1.723,5.825,5.825,0,0,1,1.021,2.585,16.543,16.543,0,0,1,.142,2.778,10.259,10.259,0,0,0,.821,5.242,4.07,4.07,0,0,0,1.886,1.678,14.205,14.205,0,0,1,2.38,1.194,3.357,3.357,0,0,1,1.325,2.3,9.4,9.4,0,0,1-.078,2.58,12.069,12.069,0,0,0-.2,2.441,3.866,3.866,0,0,0,.679,2.186,2.545,2.545,0,0,0,1.947.925,19.845,19.845,0,0,0,2.282-.106,3.651,3.651,0,0,1,2.258.44,2.538,2.538,0,0,1,1.067,1.957,8.182,8.182,0,0,1-.142,2.127c-.118.677-.224,1.339-.312,1.992-.178,1.306-.3,2.565-.365,3.77a31.235,31.235,0,0,0-.048,3.432,4.145,4.145,0,0,0,1.092,2.715,1.668,1.668,0,0,0,1.218.378,1.693,1.693,0,0,0,1.049-.571,2.661,2.661,0,0,0,.65-2.021,3.907,3.907,0,0,0-.633-1.635,8.324,8.324,0,0,0-.8-1.034l-.55-.594a1.519,1.519,0,0,1-.183-.207" transform="translate(-72.655 -18.02)" fill="#263238"/>
        <path id="Path_93546" data-name="Path 93546" d="M269.466,146.4a2.458,2.458,0,0,1,.342-.151c.227-.1.57-.23.992-.449a3.886,3.886,0,0,0,1.349-1.082,2.156,2.156,0,0,0,.249-2.192,1.74,1.74,0,0,0-1.074-.777c-.468-.149-.99-.212-1.524-.394a1.845,1.845,0,0,1-.753-.453,1.359,1.359,0,0,1-.366-.853,3.567,3.567,0,0,1,.634-1.77,4.024,4.024,0,0,0,.623-1.792,3.738,3.738,0,0,0-.374-1.959,3.643,3.643,0,0,0-3.611-1.934l-.153.017-.013-.153a5.122,5.122,0,0,1,1.027-3.152,19.132,19.132,0,0,0,1.822-2.908,4.589,4.589,0,0,0,.4-1.68,2.352,2.352,0,0,0-.53-1.6c-.771-.91-2.1-1.116-3.289-1.666a2.892,2.892,0,0,1-1.511-1.362,2.8,2.8,0,0,1-.011-2.07c.421-1.3,1.27-2.461,1.222-3.782a2.96,2.96,0,0,0-.759-1.769,6.5,6.5,0,0,0-1.576-1.3,29.074,29.074,0,0,1-3.722-2.16,3.847,3.847,0,0,1-1.455-2.294,5.791,5.791,0,0,1,.255-2.661c.233-.842.535-1.648.7-2.464a4.591,4.591,0,0,0,.095-1.214,2.468,2.468,0,0,0-.376-1.1,3.486,3.486,0,0,0-1.917-1.314,14.112,14.112,0,0,1-2.3-.911,2.909,2.909,0,0,1-1.44-1.991,6.068,6.068,0,0,1,.138-2.385c.158-.759.349-1.493.441-2.223a4.166,4.166,0,0,0-.18-2.1,3.347,3.347,0,0,0-1.34-1.515,7,7,0,0,0-1.877-.785c-1.3-.344-2.646-.452-3.866-.9a5.05,5.05,0,0,1-1.658-.945,4.937,4.937,0,0,1-1.1-1.455c-.548-1.053-.841-2.131-1.286-3.069a5.591,5.591,0,0,0-1.784-2.254,5.423,5.423,0,0,0-4.421-.963,5.736,5.736,0,0,0-2.6,1.362c-.5.465-.694.774-.711.76a3.872,3.872,0,0,1,.66-.815,5.665,5.665,0,0,1,2.62-1.447,5.563,5.563,0,0,1,4.577.936,5.791,5.791,0,0,1,1.875,2.321c.462.956.766,2.034,1.3,3.046a4.686,4.686,0,0,0,1.052,1.371,4.8,4.8,0,0,0,1.574.882c1.179.427,2.5.525,3.85.873a7.29,7.29,0,0,1,1.966.814,3.68,3.68,0,0,1,1.473,1.659,4.492,4.492,0,0,1,.21,2.269c-.094.76-.287,1.5-.438,2.25A5.752,5.752,0,0,0,252.76,95a2.553,2.553,0,0,0,1.278,1.753,14.132,14.132,0,0,0,2.241.878,3.832,3.832,0,0,1,2.1,1.456,2.834,2.834,0,0,1,.434,1.263,4.951,4.951,0,0,1-.1,1.317c-.168.858-.473,1.668-.7,2.493a5.441,5.441,0,0,0-.247,2.493,3.476,3.476,0,0,0,1.327,2.077,29.615,29.615,0,0,0,3.681,2.132,6.839,6.839,0,0,1,1.663,1.373,3.331,3.331,0,0,1,.843,1.987c.037,1.507-.86,2.687-1.245,3.912a2.444,2.444,0,0,0-.009,1.812,2.546,2.546,0,0,0,1.336,1.191c.568.267,1.184.449,1.78.694a3.989,3.989,0,0,1,1.623,1.072,2.692,2.692,0,0,1,.6,1.82,4.9,4.9,0,0,1-.429,1.8,19.147,19.147,0,0,1-1.862,2.95,4.832,4.832,0,0,0-.993,2.957l-.165-.136a3.925,3.925,0,0,1,3.888,2.11,4.035,4.035,0,0,1-.282,3.99,3.4,3.4,0,0,0-.62,1.642,1.274,1.274,0,0,0,.965,1.123c.5.178,1.027.249,1.513.409a1.915,1.915,0,0,1,1.165.875,1.977,1.977,0,0,1,.166,1.3,2.534,2.534,0,0,1-.46,1.052,3.909,3.909,0,0,1-1.413,1.084,8.162,8.162,0,0,1-1.375.521" transform="translate(-66.632 -21.863)" fill="#455a64"/>
        <path id="Path_93547" data-name="Path 93547" d="M288.637,138.4a5.174,5.174,0,0,0,.52-.985,4.051,4.051,0,0,0-.2-3.089,3.583,3.583,0,0,0-1.575-1.6,10.176,10.176,0,0,1-1.139-.714,1.942,1.942,0,0,1-.781-1.251c-.148-1.077.6-2.037.577-3.115a1.8,1.8,0,0,0-.752-1.383,7.447,7.447,0,0,0-1.59-.832,7.151,7.151,0,0,1-1.712-.935,2.805,2.805,0,0,1-1.028-1.783c-.223-1.417.226-2.826.25-4.264a3.4,3.4,0,0,0-.515-2.043,3.983,3.983,0,0,0-1.805-1.25,20.2,20.2,0,0,1-2.216-.929,2.8,2.8,0,0,1-1.516-1.994,9.468,9.468,0,0,1,.125-2.547,2.985,2.985,0,0,0-.451-2.318,5.076,5.076,0,0,0-2.18-1.231,4.374,4.374,0,0,1-2.273-1.525,4.039,4.039,0,0,1-.48-2.75,16.189,16.189,0,0,1,.682-2.708,6.985,6.985,0,0,0,.357-2.692,3.089,3.089,0,0,0-1.372-2.205,7.772,7.772,0,0,0-2.607-.906c-.918-.185-1.852-.329-2.761-.6a5.419,5.419,0,0,1-2.473-1.369,6.337,6.337,0,0,1-1.41-2.4,52.152,52.152,0,0,1-1.071-5.208,9.583,9.583,0,0,0-.81-2.379,4.549,4.549,0,0,0-1.65-1.718c-1.427-.761-3.1-.558-4.652-.486a10.915,10.915,0,0,1-2.345-.075,4.754,4.754,0,0,1-2.117-.888A14.821,14.821,0,0,1,245,74.877a8.443,8.443,0,0,0-1.283-1.5,7.079,7.079,0,0,0-1.562-1.042,9.04,9.04,0,0,0-6.5-.38,12.937,12.937,0,0,0-4.379,2.475,20.473,20.473,0,0,0-2.283,2.257l-.543.638a1.716,1.716,0,0,1-.192.212,1.6,1.6,0,0,1,.162-.236c.111-.154.284-.376.516-.663a18.823,18.823,0,0,1,2.246-2.318,12.924,12.924,0,0,1,4.411-2.563,9.233,9.233,0,0,1,6.677.342,7.3,7.3,0,0,1,1.631,1.072,8.686,8.686,0,0,1,1.334,1.536,14.694,14.694,0,0,0,2.62,3.274,4.447,4.447,0,0,0,1.982.821,10.626,10.626,0,0,0,2.276.061c.779-.041,1.578-.11,2.4-.078a5.545,5.545,0,0,1,2.435.59,4.881,4.881,0,0,1,1.791,1.851,9.868,9.868,0,0,1,.851,2.469,52.733,52.733,0,0,0,1.069,5.168,5.969,5.969,0,0,0,1.324,2.254A5.054,5.054,0,0,0,264.3,92.4c.876.257,1.8.4,2.729.586a8.106,8.106,0,0,1,2.737.958,3.464,3.464,0,0,1,1.537,2.471,7.31,7.31,0,0,1-.37,2.839,15.971,15.971,0,0,0-.673,2.651,3.689,3.689,0,0,0,.419,2.505,4.039,4.039,0,0,0,2.1,1.39,5.348,5.348,0,0,1,2.325,1.341,2.506,2.506,0,0,1,.535,1.261,5.423,5.423,0,0,1-.011,1.318,9.246,9.246,0,0,0-.135,2.451,2.46,2.46,0,0,0,1.344,1.763,20.417,20.417,0,0,0,2.176.919,4.284,4.284,0,0,1,1.939,1.368,3.7,3.7,0,0,1,.564,2.232c-.039,1.5-.482,2.893-.276,4.21a2.516,2.516,0,0,0,.92,1.619,6.911,6.911,0,0,0,1.643.908,7.629,7.629,0,0,1,1.638.876,2.041,2.041,0,0,1,.834,1.573c-.01,1.2-.747,2.131-.607,3.092a1.741,1.741,0,0,0,.7,1.131,10.175,10.175,0,0,0,1.109.712,3.725,3.725,0,0,1,1.614,1.688,4.081,4.081,0,0,1,.143,3.178,2.794,2.794,0,0,1-.59.959" transform="translate(-65.509 -20.462)" fill="#455a64"/>
        <path id="Path_93548" data-name="Path 93548" d="M240.934,135.682a2.272,2.272,0,0,1,2.8-3.378,3.577,3.577,0,0,1,1.39,1.3,2.415,2.415,0,0,1,.53,1.871,1.977,1.977,0,0,1-1.036,1.186,3.03,3.03,0,0,1-2.419.206,2.628,2.628,0,0,1-1.644-1.751" transform="translate(-69.032 -37.915)" fill="#eb996e"/>
        <path id="Path_93549" data-name="Path 93549" d="M244.806,131.9c.141.035.2.459,0,1.1a4.408,4.408,0,0,1-3.984,2.944c-.67.006-1.058-.174-1.05-.32.012-.314,1.5-.43,2.832-1.436,1.353-.982,1.9-2.366,2.2-2.285" transform="translate(-68.813 -37.853)" fill="#263238"/>
        <path id="Path_93550" data-name="Path 93550" d="M183.578,198.029a3.219,3.219,0,0,1,.817-3.157,4.833,4.833,0,0,1,3.068-1.355,5.233,5.233,0,0,1,2.92.535,3.577,3.577,0,0,1,.98,5.746,5.052,5.052,0,0,1-3.355,1.539,4.16,4.16,0,0,1-2.983-.829,3.584,3.584,0,0,1-1.447-2.478" transform="translate(-52.647 -55.532)" fill="#e8505b"/>
        <path id="Path_93551" data-name="Path 93551" d="M164.521,202.383c-4.221,1.112-8.853-3.3-10.131-6.313a1.074,1.074,0,0,1-.053-.99,1.088,1.088,0,0,1,1-.317,10.045,10.045,0,0,1,9.18,7.62" transform="translate(-44.265 -55.895)" fill="#69e665"/>
        <path id="Path_93552" data-name="Path 93552" d="M161.585,200.875a3.219,3.219,0,0,1,.817-3.157,4.833,4.833,0,0,1,3.068-1.355,5.232,5.232,0,0,1,2.92.535,3.577,3.577,0,0,1,.98,5.746,5.052,5.052,0,0,1-3.355,1.539,4.163,4.163,0,0,1-2.984-.829,3.585,3.585,0,0,1-1.447-2.478" transform="translate(-46.335 -56.349)" fill="#e8505b"/>
        <path id="Path_93553" data-name="Path 93553" d="M192.774,196.915c-.143-2.234,1.179-5.083,2.345-6.994a11.061,11.061,0,0,1,4.983-4.344.477.477,0,0,1,.76.3,7.889,7.889,0,0,1-8.088,11.038" transform="translate(-55.322 -53.235)" fill="#69e665"/>
        <path id="Path_93554" data-name="Path 93554" d="M211.6,191.3a20.976,20.976,0,0,0,2.012-3.328,7.033,7.033,0,0,0,.66-3.787.662.662,0,0,0-.244-.5.686.686,0,0,0-.548.007,11.878,11.878,0,0,0-8.371,11.072l-.073.645a9.171,9.171,0,0,0,6.853.47,14.22,14.22,0,0,0,5.067-2.479,7.543,7.543,0,0,0,2.825-4.769A10.146,10.146,0,0,0,211.6,191.3" transform="translate(-58.846 -52.701)" fill="#69e665"/>
        <path id="Path_93555" data-name="Path 93555" d="M173.208,190.786a15.387,15.387,0,0,0-7.9-3.235,10.836,10.836,0,0,0,10.51,11.286l.143-.319a7.941,7.941,0,0,0-2.756-7.732" transform="translate(-47.441 -53.827)" fill="#69e665"/>
        <path id="Path_93556" data-name="Path 93556" d="M156.272,200.827s4.965,17.1,14.9,23.173c12.95,7.914,32.415-2.62,34.069-6.759s4.552-20.966,4.552-20.966Z" transform="translate(-44.85 -56.33)" fill="#e0e0e0"/>
        <path id="Path_93557" data-name="Path 93557" d="M156.272,200.746a2.249,2.249,0,0,1,.25-.031l.763-.076,2.977-.275,11.163-1,38.35-3.35.234-.021-.041.231c-.913,5.174-1.915,10.653-3.208,16.242-.287,1.181-.566,2.356-.925,3.508-.079.29-.185.575-.285.861-.053.143-.1.284-.156.427s-.141.286-.22.422a7.789,7.789,0,0,1-1.186,1.382,25.979,25.979,0,0,1-5.852,3.856,39.784,39.784,0,0,1-6.278,2.5,35.043,35.043,0,0,1-6.339,1.333,23.909,23.909,0,0,1-11.809-1.383,21.1,21.1,0,0,1-8.183-6.351,43.2,43.2,0,0,1-4.722-7.174,62.85,62.85,0,0,1-2.723-5.884c-.672-1.648-1.114-2.958-1.407-3.847-.144-.446-.249-.786-.313-1.018a2.733,2.733,0,0,1-.088-.352c.006.009.046.113.125.341l.348,1.006c.316.88.779,2.18,1.47,3.816s1.571,3.624,2.773,5.841a43.468,43.468,0,0,0,4.741,7.1,20.885,20.885,0,0,0,8.1,6.235,23.656,23.656,0,0,0,11.653,1.328,38.2,38.2,0,0,0,12.493-3.817,25.687,25.687,0,0,0,5.762-3.8,7.427,7.427,0,0,0,1.125-1.308l.193-.369c.056-.132.1-.276.15-.413.1-.277.2-.553.279-.842.353-1.136.632-2.309.918-3.484,1.29-5.573,2.3-11.053,3.214-16.218l.193.21-38.227,3.163-11.219.9-3.023.235-.788.057c-.179.011-.277.013-.277.013" transform="translate(-44.849 -56.25)" fill="#263238"/>
        <path id="Path_93558" data-name="Path 93558" d="M170.13,223.106a3.376,3.376,0,0,1-.607-.535c-.376-.36-.9-.9-1.521-1.594a49.771,49.771,0,0,1-8-12.088c-.392-.843-.689-1.536-.873-2.022a3.408,3.408,0,0,1-.257-.768,3.389,3.389,0,0,1,.389.709c.225.468.556,1.14.977,1.965A62.2,62.2,0,0,0,168.2,220.8c.6.709,1.085,1.278,1.428,1.667a3.388,3.388,0,0,1,.5.635" transform="translate(-45.595 -59.15)" fill="#fff"/>
        <path id="Path_93559" data-name="Path 93559" d="M207.661,200.3a2.491,2.491,0,0,1-.493.093l-1.422.2c-1.236.165-3.027.381-5.241.63-4.43.5-10.56,1.105-17.342,1.624s-12.935.849-17.389,1.028c-2.227.091-4.03.149-5.276.174l-1.435.021a2.541,2.541,0,0,1-.5-.018,2.538,2.538,0,0,1,.5-.057l1.432-.091,5.269-.292c4.449-.247,10.594-.62,17.374-1.137s12.908-1.083,17.342-1.515l5.253-.512,1.43-.128a2.536,2.536,0,0,1,.5-.019" transform="translate(-45.507 -57.484)" fill="#fff"/>
        <path id="Path_93560" data-name="Path 93560" d="M277.481,227.46,273.9,245.947l-36.728-19.485-8.252,8.7s34.979,31.989,42.307,37.834c7.257,5.787,17.306-.906,20.226-11.751s6.786-24.867,7.891-33.972Z" transform="translate(-65.699 -64.994)" fill="#ffbe9d"/>
        <path id="Path_93561" data-name="Path 93561" d="M225,226.678s-10.619-8.054-14.393-7.233a14.678,14.678,0,0,0-3.248,1.048,9.269,9.269,0,0,1-3.992.96c-1.388,0-3.152-.01-4.858-.086-3.264-.145-4.246.717-4.531,1.97a2.029,2.029,0,0,0,1.819,2.47,37.8,37.8,0,0,1,6.275.872c1.969.645-.328.24-2.791,1.837s-12.474,1.927-12.474,1.927l-5.447-4.168a1.827,1.827,0,0,0-2.8,2.155l.038.086-.494-.5a1.533,1.533,0,0,0-2.493,1.705l.034.069,4.431,4.267,6.73,2.79,11.653-1.149s8.535-3.119,10.177-3.611,7.063,1.056,11.23,5.7Z" transform="translate(-50.354 -62.963)" fill="#ffbe9d"/>
        <path id="Path_93562" data-name="Path 93562" d="M300.809,269.739c-.058.016-.368-1-.967-2.592a46.4,46.4,0,0,0-6.371-11.642c-1.022-1.366-1.707-2.173-1.662-2.212a2.877,2.877,0,0,1,.54.515c.332.346.789.869,1.329,1.536a38.138,38.138,0,0,1,6.411,11.715c.27.815.465,1.481.577,1.948a2.863,2.863,0,0,1,.143.733" transform="translate(-83.748 -72.694)" fill="#eb996e"/>
        <path id="Path_93563" data-name="Path 93563" d="M198.676,239.891a5.209,5.209,0,0,1-.993.164c-.642.081-1.572.185-2.723.3-2.3.238-5.5.431-9.017.575a9.69,9.69,0,0,1-2.612-.139,7.153,7.153,0,0,1-2.235-1,14.927,14.927,0,0,1-3-2.782c-.752-.884-1.323-1.625-1.722-2.133a5.727,5.727,0,0,1-.595-.811,4.766,4.766,0,0,1,.705.718l1.808,2.052a15.555,15.555,0,0,0,2.987,2.669,6.912,6.912,0,0,0,2.128.931,9.545,9.545,0,0,0,2.515.123c3.529-.145,6.707-.294,9.014-.466l2.732-.178a5.29,5.29,0,0,1,1.006-.02" transform="translate(-50.448 -67.175)" fill="#eb996e"/>
        <path id="Path_93564" data-name="Path 93564" d="M197.025,238.931a2.648,2.648,0,0,1-.684.053l-1.879.016c-1.593,0-3.811-.028-6.311-.077h-.018l-.018,0c-.359-.078-.74-.166-1.124-.269a8.006,8.006,0,0,1-1.917-.752,5.514,5.514,0,0,1-1.484-1.236c-.765-.938-1.424-1.785-1.971-2.513s-.961-1.335-1.235-1.763a3.044,3.044,0,0,1-.386-.691,3.458,3.458,0,0,1,.5.608c.309.4.756.981,1.324,1.685l2.022,2.45a6.115,6.115,0,0,0,3.24,1.855c.375.1.749.188,1.106.267l-.036,0c2.5.06,4.717.13,6.309.2l1.876.1a2.625,2.625,0,0,1,.682.082" transform="translate(-51.658 -66.495)" fill="#eb996e"/>
        <path id="Path_93565" data-name="Path 93565" d="M220.281,230.988c-.032.1-1.415-.257-3.151-.487s-3.164-.259-3.167-.368a11.994,11.994,0,0,1,6.318.855" transform="translate(-61.407 -66.009)" fill="#eb996e"/>
        <path id="Path_93566" data-name="Path 93566" d="M283.213,89.668a1.177,1.177,0,0,1-.575,0,3.339,3.339,0,0,1-1.453-.6,3.457,3.457,0,0,1-1.331-1.924c-.236-.86-.195-1.839-.5-2.727a1.874,1.874,0,0,0-.8-1.019,4.487,4.487,0,0,0-1.216-.431,4.954,4.954,0,0,1-1.187-.414,2.482,2.482,0,0,1-.826-.752,4.719,4.719,0,0,1-.634-1.435,1.59,1.59,0,0,1-.1-.562,1.863,1.863,0,0,1,.24.516,5.645,5.645,0,0,0,.707,1.324,2.288,2.288,0,0,0,.76.637,4.959,4.959,0,0,0,1.123.354,4.613,4.613,0,0,1,1.322.451,2.217,2.217,0,0,1,.961,1.2c.335,1,.273,1.965.481,2.769a3.3,3.3,0,0,0,1.159,1.8,4.533,4.533,0,0,0,1.869.806" transform="translate(-78.805 -22.904)" fill="#455a64"/>
        <path id="Path_93567" data-name="Path 93567" d="M296.972,77.1a.813.813,0,0,1,.18.367,1.915,1.915,0,0,1-.042,1.164,1.854,1.854,0,0,1-1.327,1.233,2.073,2.073,0,0,1-2.186-.873l.274-.031a4.05,4.05,0,0,1-2.567,2.531,3.715,3.715,0,0,1-2.076.093,4.124,4.124,0,0,1-1.894-1.089,3.975,3.975,0,0,1-1.089-2.021l.3.1a8.584,8.584,0,0,1-4.021,1.909,8.906,8.906,0,0,1-3.566-.04,7.887,7.887,0,0,1-2.217-.826,5.113,5.113,0,0,1-.536-.343c-.118-.083-.176-.132-.17-.141a11.291,11.291,0,0,0,2.97,1.073,8.978,8.978,0,0,0,3.456-.04A8.407,8.407,0,0,0,286.3,78.3l.24-.207.061.31a3.632,3.632,0,0,0,.992,1.827,3.786,3.786,0,0,0,1.72,1,3.374,3.374,0,0,0,1.876-.073,3.763,3.763,0,0,0,2.389-2.29l.1-.308.17.277a1.819,1.819,0,0,0,1.874.791,1.677,1.677,0,0,0,1.216-1.054,1.945,1.945,0,0,0,.116-1.082c-.048-.252-.111-.379-.092-.388" transform="translate(-79.222 -22.126)" fill="#455a64"/>
        <path id="Path_93568" data-name="Path 93568" d="M292.083,66.674c0-.011.12,0,.262.154a.958.958,0,0,1,.214.834,1.293,1.293,0,0,1-.957.926,2.8,2.8,0,0,1-1.7-.167l.207-.217a2.658,2.658,0,0,1-1.4,3.2,8.873,8.873,0,0,1-5.39.368,2.592,2.592,0,0,1-1.325-1.007c-.21-.342-.225-.571-.206-.574s.093.2.324.491a2.638,2.638,0,0,0,1.29.842,6.878,6.878,0,0,0,2.344.158,6.547,6.547,0,0,0,2.784-.6,2.353,2.353,0,0,0,1.278-2.746l-.156-.359.363.141a2.6,2.6,0,0,0,1.519.214,1.1,1.1,0,0,0,.839-.709.9.9,0,0,0-.106-.726c-.1-.15-.195-.2-.182-.217" transform="translate(-80.87 -19.134)" fill="#455a64"/>
      </g>
    </g>
  </g>
</svg>
