<svg id="Manage_pain_and" data-name="Manage pain and" xmlns="http://www.w3.org/2000/svg" xmlns:xlink="http://www.w3.org/1999/xlink" width="280.986" height="360.721" viewBox="0 0 280.986 360.721">
  <defs>
    <clipPath id="clip-path">
      <rect id="Rectangle_8696" data-name="Rectangle 8696" width="280.986" height="360.721" fill="none"/>
    </clipPath>
    <clipPath id="clip-path-3">
      <rect id="Rectangle_8686" data-name="Rectangle 8686" width="18.724" height="7.979" fill="none"/>
    </clipPath>
    <clipPath id="clip-path-4">
      <rect id="Rectangle_8689" data-name="Rectangle 8689" width="75.845" height="13.294" fill="#19ceab"/>
    </clipPath>
    <clipPath id="clip-path-5">
      <rect id="Rectangle_8690" data-name="Rectangle 8690" width="115.487" height="16.069" fill="#19ceab"/>
    </clipPath>
    <clipPath id="clip-path-6">
      <rect id="Rectangle_8691" data-name="Rectangle 8691" width="116.955" height="16.89" fill="#19ceab"/>
    </clipPath>
    <clipPath id="clip-path-7">
      <rect id="Rectangle_8692" data-name="Rectangle 8692" width="18.825" height="5.517" fill="#17bb9b"/>
    </clipPath>
  </defs>
  <g id="Group_47573" data-name="Group 47573" clip-path="url(#clip-path)">
    <g id="Group_47572" data-name="Group 47572">
      <g id="Group_47571" data-name="Group 47571" clip-path="url(#clip-path)">
        <path id="Path_94260" data-name="Path 94260" d="M280.986,379.384c0-5.854-62.9-10.6-140.493-10.6S0,373.53,0,379.384s62.9,10.6,140.493,10.6,140.493-4.745,140.493-10.6" transform="translate(0 -29.263)" fill="#e6edff"/>
        <path id="Path_94261" data-name="Path 94261" d="M112.026,90.247l-2,32.728,34,19-2.349,4.859s-42.547-8.437-44.438-12.752.17-38.042.17-38.042Z" transform="translate(-7.653 -7.161)" fill="#ffd1bd"/>
        <path id="Path_94262" data-name="Path 94262" d="M109.74,31.972s18.279-22.5-9.519-30.877C71.209-7.642,78.827,38.751,78.827,38.751s-15.428,1.6-19.472,8.122S52.416,62.2,60.839,65.622,84.875,55.2,87.381,44.064,109.74,31.972,109.74,31.972" transform="translate(-4.397 0)" fill="#945661"/>
        <path id="Path_94263" data-name="Path 94263" d="M43.177,362.069l-2.67-36.407,13.106,1.213-2.67,35.679Z" transform="translate(-3.214 -25.841)" fill="#fca19f"/>
        <path id="Path_94264" data-name="Path 94264" d="M42.148,360.9s-3.545,9.212-1.978,16.152l38.929.18s2.434-7.454-6.356-9.362-20.978-8-20.978-8-6.236,4.247-9.617,1.029" transform="translate(-3.156 -28.556)" fill="#404040"/>
        <path id="Path_94265" data-name="Path 94265" d="M40.156,378.2l38.929.18a8.192,8.192,0,0,0,.128-3.911l-39.481-.181a18.944,18.944,0,0,0,.424,3.913" transform="translate(-3.153 -29.699)" fill="#f7ead5"/>
        <path id="Path_94266" data-name="Path 94266" d="M52.556,362a5.387,5.387,0,0,1,1.278-1.762,5.573,5.573,0,0,1,2.925-1.016,23.684,23.684,0,0,1,2.727-.18,5.878,5.878,0,0,1,3.421.766c.3.205.586.531.511.885a.886.886,0,0,1-.545.557,4.446,4.446,0,0,1-2.535.107q-3.073-.493-6.093-1.268a12.532,12.532,0,0,1,.37,3.336,6.754,6.754,0,0,1-.693,3.056,2.509,2.509,0,0,1-.89,1,1.329,1.329,0,0,1-1.294.068,1.4,1.4,0,0,1-.642-1.125,3.612,3.612,0,0,1,.211-1.324A18.905,18.905,0,0,1,52.556,362Z" transform="translate(-4.054 -28.49)" fill="none" stroke="#fff" stroke-linecap="round" stroke-linejoin="round" stroke-width="0.579"/>
        <path id="Path_94267" data-name="Path 94267" d="M107.447,362.116l-9.567-35.86h13.607l5.8,36.787Z" transform="translate(-7.767 -25.888)" fill="#fca19f"/>
        <path id="Path_94268" data-name="Path 94268" d="M107.012,360.9s-3.545,9.212-1.978,16.152l38.929.18s2.434-7.454-6.356-9.362-20.978-8-20.978-8-6.235,4.247-9.617,1.029" transform="translate(-8.303 -28.556)" fill="#fc659f"/>
        <path id="Path_94269" data-name="Path 94269" d="M105.02,378.2l38.929.18a8.192,8.192,0,0,0,.128-3.911l-39.481-.181a18.944,18.944,0,0,0,.424,3.913" transform="translate(-8.3 -29.699)" fill="#f7ead5"/>
        <path id="Path_94270" data-name="Path 94270" d="M117.42,362a5.371,5.371,0,0,1,1.277-1.762,5.576,5.576,0,0,1,2.925-1.016,23.684,23.684,0,0,1,2.727-.18,5.875,5.875,0,0,1,3.421.766c.3.205.586.531.511.885a.886.886,0,0,1-.545.557,4.446,4.446,0,0,1-2.535.107q-3.073-.493-6.092-1.268a12.568,12.568,0,0,1,.37,3.336,6.767,6.767,0,0,1-.694,3.056,2.513,2.513,0,0,1-.889,1,1.331,1.331,0,0,1-1.3.068,1.4,1.4,0,0,1-.642-1.125,3.631,3.631,0,0,1,.211-1.324A18.829,18.829,0,0,1,117.42,362Z" transform="translate(-9.201 -28.49)" fill="none" stroke="#fff" stroke-linecap="round" stroke-linejoin="round" stroke-width="0.579"/>
        <path id="Path_94271" data-name="Path 94271" d="M46.688,140.086s-10.672,12.529-14.1,23.365,3.579,167.1,3.579,167.1,11.254,4.823,21.2.514L68.016,184.15s.285-1.354,1.429,0,21.65,145.6,21.65,145.6,14.738,2.412,22.636-3.746c0,0-13.684-152.4-19.781-166.28s-10.672-19.64-10.672-19.64Z" transform="translate(-2.511 -11.116)" fill="#515151"/>
        <path id="Path_94272" data-name="Path 94272" d="M48.533,142.363s-9.148,13.721-12.006,24.011,2.371,164.9,2.371,164.9" transform="translate(-2.831 -11.296)" fill="none" stroke="#1e183f" stroke-linecap="round" stroke-linejoin="round" stroke-width="0.736"/>
        <line id="Line_24" data-name="Line 24" x1="28.768" y2="27.174" transform="translate(32.553 134.622)" fill="none" stroke="#1e183f" stroke-linecap="round" stroke-linejoin="round" stroke-width="0.736"/>
        <line id="Line_25" data-name="Line 25" x2="16.881" y2="25.522" transform="translate(76.594 132.612)" fill="none" stroke="#1e183f" stroke-linecap="round" stroke-linejoin="round" stroke-width="0.736"/>
        <path id="Path_94273" data-name="Path 94273" d="M57.9,90.889l.039-1.43.895,9.562c-6.349-1.514-20.19-2.86-20.19-2.86s6.73-27.93,14-33.449c3.734-2.835,21.489-2.925,21.489-2.925l18.269,4.331,14.421,9.437a2.861,2.861,0,0,1,1.294,2.336l.506,24.241L106.7,101.48s1-3.763.006-.169c-1.735,6.3-8.506,7.225-8.506,7.225l-4.735,23,1.9,22.872c-14.509,2.451-53.9-15.491-53.9-15.491L55.39,122.8a1.636,1.636,0,0,0,.39-1.035c1.491-7.9,2.123-30.877,2.123-30.877" transform="translate(-3.067 -4.744)" fill="#108fe5"/>
        <path id="Path_94274" data-name="Path 94274" d="M85.464,35.422s-4.8,19.65-5.8,21.036-4.728,1.381-4.728,1.381,16.44,22.987,16.9,22.715c.327-.192,4.275-9.36,6.487-16.541,0,0-3.924-2.228-4.145-3.521s1.261-14.342,1.261-14.342Z" transform="translate(-5.946 -2.811)" fill="#ffd1bd"/>
        <path id="Path_94275" data-name="Path 94275" d="M88.689,38.128l2.649,2.847,4.922,6.567c-.16,1.45-.445,4.072-.692,6.617A17.928,17.928,0,0,1,85,41.322c.3-1.2.579-2.3.8-3.195Z" transform="translate(-6.745 -3.025)" fill="#d59c83"/>
        <g id="Group_47558" data-name="Group 47558" transform="translate(61.974 91.389)" style="mix-blend-mode: multiply;isolation: isolate">
          <g id="Group_47557" data-name="Group 47557">
            <g id="Group_47556" data-name="Group 47556" clip-path="url(#clip-path-3)">
              <path id="Path_94276" data-name="Path 94276" d="M67.315,99.266s8.35,10.054,18.724,3.941c0,0-13.155,11.318-18.724-3.941" transform="translate(-67.315 -99.266)" fill="#97a5ff"/>
            </g>
          </g>
        </g>
        <path id="Path_94277" data-name="Path 94277" d="M110.93,91.374s1.4,11.252.694,12.612-2.013,6.756-8.5,7.056l-2.415,11.317" transform="translate(-7.991 -7.251)" fill="none" stroke="#37374f" stroke-linecap="round" stroke-linejoin="round" stroke-width="0.411"/>
        <path id="Path_94278" data-name="Path 94278" d="M113.441,26.2c-3.315,16.888-13.525,21.47-17.335,20.684-4.916-1.014-12.2-7.187-11.967-15.042,0,0-5.886-1.831-5.335-5.205,1.015-6.215,4.742-1.675,4.742-1.675S81.671,1.9,99.234,2.338c11.472.288,17.386,7.674,14.207,23.865" transform="translate(-6.25 -0.185)" fill="#ffd1bd"/>
        <path id="Path_94279" data-name="Path 94279" d="M95.2,23.223c.266-.321,1.038-.176,1.4-.18a6.1,6.1,0,0,1,2.187.371,12.881,12.881,0,0,1,1.6.738c.351.186.936.6,1.353.389a.613.613,0,0,0,.21-.772c-.264-.623-1.211-.958-1.782-1.192-1.668-.681-3.677-.924-4.969.645" transform="translate(-7.554 -1.75)" fill="#945661"/>
        <path id="Path_94280" data-name="Path 94280" d="M115.38,28.365c-.072-.41-.815-.666-1.13-.847a6.075,6.075,0,0,0-2.085-.758,12.7,12.7,0,0,0-1.755-.149c-.4-.011-1.113.063-1.369-.329a.613.613,0,0,1,.2-.775c.539-.412,1.528-.235,2.141-.156,1.788.231,3.654,1.012,4,3.013" transform="translate(-8.647 -2.003)" fill="#945661"/>
        <path id="Path_94281" data-name="Path 94281" d="M92.168,31.309c.224-.756,1.608-1.014,3.094-.574s2.508,1.407,2.284,2.163-1.608,1.014-3.094.574-2.508-1.407-2.284-2.163" transform="translate(-7.311 -2.422)" fill="#d59c83" opacity="0.65"/>
        <path id="Path_94282" data-name="Path 94282" d="M107.924,35.508c.224-.756,1.473-1.053,2.791-.664s2.2,1.317,1.981,2.073-1.473,1.053-2.791.664-2.2-1.317-1.981-2.073" transform="translate(-8.561 -2.751)" fill="#d59c83" opacity="0.65"/>
        <path id="Path_94283" data-name="Path 94283" d="M101.795,36.611a2.9,2.9,0,0,0,2.332-.6.235.235,0,0,0,.087-.218,14.406,14.406,0,0,1,1.154-7.391.237.237,0,0,0-.11-.318.243.243,0,0,0-.318.11,14.7,14.7,0,0,0-1.216,7.523,2.324,2.324,0,0,1-1.8.436l-.078-.025a.238.238,0,0,0-.146.453c.03.011.06.019.09.029" transform="translate(-8.058 -2.227)" fill="#37374f"/>
        <path id="Path_94284" data-name="Path 94284" d="M96.4,27.473c.316-1.394,1.29-2.362,2.175-2.163S99.922,26.8,99.607,28.2s-1.291,2.362-2.176,2.163-1.348-1.492-1.032-2.886" transform="translate(-7.641 -2.006)" fill="#37374f"/>
        <path id="Path_94285" data-name="Path 94285" d="M109.413,30.564c.316-1.394,1.29-2.362,2.176-2.163s1.348,1.491,1.032,2.886-1.29,2.362-2.175,2.163-1.348-1.492-1.032-2.886" transform="translate(-8.674 -2.252)" fill="#37374f"/>
        <path id="Path_94286" data-name="Path 94286" d="M82.427,20.222l1.41,4.617s16.1-4.419,21.659-13.994c0,0,6.252,11.644,9.65,15.669,0,0,3.868-15.715-3.29-20.121S93.816-2.2,88.485,3.5s-6.058,16.722-6.058,16.722" transform="translate(-6.541 -0.058)" fill="#945661"/>
        <path id="Path_94287" data-name="Path 94287" d="M96.428,39.6l4.143-1.181,1.025,1.42,1.493-.733,2.151,2.981s-2.3,4.039-5.5,3.3c-3.7-.85-3.313-5.789-3.313-5.789" transform="translate(-7.651 -3.048)" fill="#f97070"/>
        <path id="Path_94288" data-name="Path 94288" d="M96.429,39.7l8.812,2.487s-5.812,4.869-8.812-2.487" transform="translate(-7.652 -3.15)" fill="#fff"/>
        <rect id="Rectangle_8687" data-name="Rectangle 8687" width="6.992" height="12.85" transform="matrix(0.25, -0.968, 0.968, 0.25, 62.238, 80.543)" fill="#fff"/>
        <rect id="Rectangle_8688" data-name="Rectangle 8688" width="3.591" height="1.701" transform="translate(69.375 76.337) rotate(-75.52)" fill="#c3e6ff"/>
        <path id="Path_94289" data-name="Path 94289" d="M70.938,83.8l8.112,2.1a.347.347,0,0,0,.173-.671l-8.112-2.1a.347.347,0,0,0-.173.671" transform="translate(-5.608 -6.595)" fill="#37374f"/>
        <path id="Path_94290" data-name="Path 94290" d="M73.9,86.549l5.017,1.3a.277.277,0,0,0,.336-.2l.035-.137a.277.277,0,0,0-.2-.336l-5.017-1.3a.276.276,0,0,0-.335.2l-.036.137a.277.277,0,0,0,.2.336" transform="translate(-5.847 -6.814)" fill="#37374f"/>
        <path id="Path_94291" data-name="Path 94291" d="M191.969,308.472a61.7,61.7,0,1,0-61.7,61.7,61.7,61.7,0,0,0,61.7-61.7" transform="translate(-5.441 -19.582)" fill="#85ffe7"/>
        <g id="Group_47561" data-name="Group 47561" transform="translate(86.948 238.354)" opacity="0.51" style="mix-blend-mode: multiply;isolation: isolate">
          <g id="Group_47560" data-name="Group 47560">
            <g id="Group_47559" data-name="Group 47559" clip-path="url(#clip-path-4)">
              <path id="Path_94292" data-name="Path 94292" d="M94.441,260.781a92.493,92.493,0,0,0,22.134,9.006c13.971,3.616,34.456,4.89,53.712-8.995q-1.182-.922-2.409-1.789c-27.838,19.451-58.672,6.527-70.893-.106q-1.3.91-2.544,1.884" transform="translate(-94.441 -258.897)" fill="#19ceab"/>
            </g>
          </g>
        </g>
        <g id="Group_47564" data-name="Group 47564" transform="translate(66.793 263.67)" opacity="0.51" style="mix-blend-mode: multiply;isolation: isolate">
          <g id="Group_47563" data-name="Group 47563">
            <g id="Group_47562" data-name="Group 47562" clip-path="url(#clip-path-5)">
              <path id="Path_94293" data-name="Path 94293" d="M73.576,288.095q-.543,1.313-1.027,2.655c31.326,14.152,60.929,13.021,80.937,9.261a145.837,145.837,0,0,0,34.549-10.971q-.526-1.338-1.111-2.644a144.331,144.331,0,0,1-34.07,10.836c-19.6,3.67-48.6,4.764-79.278-9.137" transform="translate(-72.549 -286.395)" fill="#19ceab"/>
            </g>
          </g>
        </g>
        <g id="Group_47567" data-name="Group 47567" transform="translate(66.352 308.455)" opacity="0.51" style="mix-blend-mode: multiply;isolation: isolate">
          <g id="Group_47566" data-name="Group 47566">
            <g id="Group_47565" data-name="Group 47565" clip-path="url(#clip-path-6)">
              <path id="Path_94294" data-name="Path 94294" d="M102.8,348.651a135.731,135.731,0,0,0,29.441,3.279,125.4,125.4,0,0,0,55.314-12.763c.535-1.285,1.017-2.6,1.467-3.926-32.806,16.917-64.079,15.405-85.5,10.653A148.993,148.993,0,0,1,72.07,335.041q.642,1.921,1.4,3.786a151.762,151.762,0,0,0,29.335,9.824" transform="translate(-72.07 -335.041)" fill="#19ceab"/>
            </g>
          </g>
        </g>
        <path id="Path_94295" data-name="Path 94295" d="M57.462,101.073l-2.888,21.012L91.585,144.4l-1.178,7.067s-46.946-14.206-50.4-24.008l1.439-27.981Z" transform="translate(-3.175 -7.894)" fill="#ffd1bd"/>
        <path id="Path_94296" data-name="Path 94296" d="M38.647,98.166l19.517,1.851,2.86-14.973" transform="translate(-3.067 -6.748)" fill="none" stroke="#37374f" stroke-linecap="round" stroke-linejoin="round" stroke-width="0.411"/>
        <path id="Path_94297" data-name="Path 94297" d="M143.5,110.326a12.06,12.06,0,0,1-7.4,1.5,22.01,22.01,0,0,1-8.581-2.442,24.209,24.209,0,0,0-5.023-2.41c-3.828-.979-7.4-.271-10.955-2.59a10.549,10.549,0,0,1-4.948-8.256c-.086-3.08,1.435-5.966,3.121-8.544,3.195-4.885,4.263-8.795,6-14.216.815-2.533,2.587-4.132,4.7-5.619,4.9-3.453,11.325-6.192,17.333-4.465,3.972,1.142,7.764,3.544,9.654,7.219,1.236,2.4,1.592,5.185,2.86,7.571,3.086,5.8,8.242,9.873,5.971,17.268-1.4,4.55-5.115,7.127-8.194,10.445-1.462,1.576-2.736,3.382-4.545,4.542" transform="translate(-8.458 -4.979)" fill="#563136"/>
        <path id="Path_94298" data-name="Path 94298" d="M166.642,135.222l3.281,35.584,26.65-10.548,4.331,6.767s-34.038,22.658-41.076,19.681c-2.442-1.033-6.428-28.032-6.428-28.032Z" transform="translate(-12.172 -10.73)" fill="#ffbe9d"/>
        <path id="Path_94299" data-name="Path 94299" d="M225.017,357.144c-.183-.338-.274-.551-.274-.551l.033-21.192-12.4,2.273s1.615,12.307,1.858,18.749a40.438,40.438,0,0,1,10.786.722" transform="translate(-16.852 -26.614)" fill="#fca19f"/>
        <path id="Path_94300" data-name="Path 94300" d="M239.118,366.764c-11.462-1.448-14.129-8.834-14.129-8.834l.4-6.456-12.349,1.02c.205,2.673,1.207,6.789,1.085,8.044-.425,4.357-3.85,14.08-1.537,16.678,0,0,32.322,1.8,35.593,1.205s2.4-10.209-9.066-11.657" transform="translate(-16.806 -27.889)" fill="#404040"/>
        <path id="Path_94301" data-name="Path 94301" d="M239.129,368.074c-.268-.034-.507-.087-.766-.126a23.377,23.377,0,0,0-1.205,7.679l-25.352-.2a4.685,4.685,0,0,0,.8,3.1s32.322,1.8,35.593,1.205,2.4-10.209-9.066-11.657" transform="translate(-16.807 -29.197)" fill="#fff"/>
        <path id="Path_94302" data-name="Path 94302" d="M222.364,368.257a3.436,3.436,0,1,0-4.089,2.627,3.437,3.437,0,0,0,4.089-2.627" transform="translate(-17.105 -28.89)" fill="#fff"/>
        <path id="Path_94303" data-name="Path 94303" d="M223.152,370.828a.255.255,0,0,1-.139-.333,38.67,38.67,0,0,0,2.517-7.594c.025-.137.05-.28.072-.426a7.906,7.906,0,0,1-1.193-.122.256.256,0,0,1-.086-.472l1.443-.856q.019-.287.028-.586l-2.379-.278a.255.255,0,0,1-.115-.464,6.732,6.732,0,0,1,1.655-.833l-2.216-.5a.256.256,0,0,1-.06-.478,21.67,21.67,0,0,1,2.194-.969,8.21,8.21,0,0,1-2.088-.761.255.255,0,0,1,.124-.479h.01a4.067,4.067,0,0,0,1.881-.473c-.006-.015-.013-.029-.02-.043a.536.536,0,0,0-.068-.507.259.259,0,0,1,.277-.219c.27.024.54.031.811.029l.067-.069c.136-.146.261-.3.388-.459a5.823,5.823,0,0,1,.667-.738,4.334,4.334,0,0,1,4.024-.649.255.255,0,0,1,.1.44,8.363,8.363,0,0,1-4.324,1.917,11.559,11.559,0,0,1,3.418,1.932,3.578,3.578,0,0,1,1.514,2.29,1.33,1.33,0,0,1-.95,1.539,1.61,1.61,0,0,1-1.251-.538,35.265,35.265,0,0,1-3.635-3.68c.017.056.033.113.049.169a.258.258,0,0,1,.183.232.254.254,0,0,1-.074.193,12.212,12.212,0,0,1,.271,1.65.252.252,0,0,1,.023.275c.027.345.039.685.04,1.016l1.092.128a.256.256,0,0,1,.1.474l-1.248.742q-.028.322-.064.629a7.414,7.414,0,0,0,2.258-.476.255.255,0,0,1,.279.412l-1.565,1.693a11.294,11.294,0,0,0,2.744-.734.256.256,0,0,1,.306.385l-1.193,1.679c.882-.344,1.75-.727,2.593-1.143a.25.25,0,0,1,.3.056.257.257,0,0,1,.029.307l-1.187,1.92,2.031-1.5a.256.256,0,0,1,.3.412l-3.1,2.292a.256.256,0,0,1-.369-.341l1.427-2.31c-.861.4-1.745.76-2.636,1.082a.256.256,0,0,1-.3-.389l1.2-1.688a11.71,11.71,0,0,1-2.785.553.241.241,0,0,1-.249-.144.257.257,0,0,1,.042-.285l1.376-1.488a7.86,7.86,0,0,1-1.583.223q-.04.271-.087.521a39.011,39.011,0,0,1-2.547,7.7.256.256,0,0,1-.237.158.246.246,0,0,1-.1-.019m2.409-15.493a34.75,34.75,0,0,0,4.229,4.408,1.236,1.236,0,0,0,.841.416c.365-.052.563-.554.515-.973a3.114,3.114,0,0,0-1.329-1.954,11.044,11.044,0,0,0-4.011-2.084c-.079.065-.161.127-.245.187m-1.348,4.405,1.585.185c0-.25-.01-.5-.027-.762a6.312,6.312,0,0,0-1.559.577m-.654-1.716,2.155.488a11.661,11.661,0,0,0-.218-1.278,20.767,20.767,0,0,0-1.937.79m.3-1.939a11.733,11.733,0,0,0,1.436.406q-.127-.412-.292-.819a4.7,4.7,0,0,1-1.144.413m3.4-2.505a5.448,5.448,0,0,0-.608.674c-.042.054-.085.107-.128.159a7.9,7.9,0,0,0,3.777-1.482,3.668,3.668,0,0,0-3.042.649" transform="translate(-17.658 -27.958)" fill="#fff"/>
        <path id="Path_94304" data-name="Path 94304" d="M211.322,357.144c-.183-.338-.274-.551-.274-.551l.033-21.192-12.4,2.273s1.615,12.307,1.858,18.749a40.438,40.438,0,0,1,10.786.722" transform="translate(-15.765 -26.614)" fill="#fca19f"/>
        <path id="Path_94305" data-name="Path 94305" d="M225.423,366.764c-11.462-1.448-14.129-8.834-14.129-8.834l.4-6.456-12.349,1.02c.205,2.673,1.207,6.789,1.085,8.044-.425,4.357-3.85,14.08-1.537,16.678,0,0,32.322,1.8,35.593,1.205s2.4-10.209-9.066-11.657" transform="translate(-15.719 -27.889)" fill="#404040"/>
        <path id="Path_94306" data-name="Path 94306" d="M225.434,368.074c-.268-.034-.507-.087-.766-.126a23.377,23.377,0,0,0-1.205,7.679l-25.352-.2a4.685,4.685,0,0,0,.8,3.1s32.322,1.8,35.593,1.205,2.4-10.209-9.066-11.657" transform="translate(-15.72 -29.197)" fill="#fff"/>
        <path id="Path_94307" data-name="Path 94307" d="M208.669,368.257a3.436,3.436,0,1,0-4.089,2.627,3.436,3.436,0,0,0,4.089-2.627" transform="translate(-16.019 -28.89)" fill="#fff"/>
        <path id="Path_94308" data-name="Path 94308" d="M209.458,370.828a.255.255,0,0,1-.14-.333,38.609,38.609,0,0,0,2.517-7.594c.025-.137.05-.28.073-.426a7.919,7.919,0,0,1-1.194-.122.257.257,0,0,1-.085-.472l1.442-.856q.019-.287.029-.586l-2.379-.278a.255.255,0,0,1-.115-.464,6.732,6.732,0,0,1,1.655-.833l-2.216-.5a.256.256,0,0,1-.2-.217.259.259,0,0,1,.138-.261,21.492,21.492,0,0,1,2.194-.969,8.216,8.216,0,0,1-2.089-.761.256.256,0,0,1,.125-.479h.01a4.067,4.067,0,0,0,1.881-.473c-.006-.015-.013-.029-.02-.043a.536.536,0,0,0-.068-.507.261.261,0,0,1,.277-.219c.27.024.541.031.811.029l.067-.069c.135-.146.261-.3.387-.459a5.833,5.833,0,0,1,.668-.738,4.332,4.332,0,0,1,4.023-.649.255.255,0,0,1,.1.44,8.363,8.363,0,0,1-4.325,1.917,11.537,11.537,0,0,1,3.418,1.932,3.575,3.575,0,0,1,1.514,2.29,1.33,1.33,0,0,1-.949,1.539,1.626,1.626,0,0,1-1.251-.538,35.364,35.364,0,0,1-3.636-3.68c.017.056.033.113.05.169a.257.257,0,0,1,.11.425,12.2,12.2,0,0,1,.27,1.649.253.253,0,0,1,.024.277c.026.344.038.684.039,1.015l1.093.128a.256.256,0,0,1,.1.474l-1.248.742c-.018.215-.04.424-.064.629a7.414,7.414,0,0,0,2.259-.476.255.255,0,0,1,.278.412l-1.564,1.693a11.294,11.294,0,0,0,2.744-.734.255.255,0,0,1,.3.385l-1.192,1.679c.881-.344,1.75-.727,2.593-1.143a.25.25,0,0,1,.3.056.256.256,0,0,1,.028.307l-1.186,1.92,2.031-1.5a.256.256,0,0,1,.3.412l-3.1,2.292a.256.256,0,0,1-.369-.341l1.427-2.31c-.861.4-1.744.76-2.636,1.082a.253.253,0,0,1-.29-.086.256.256,0,0,1-.006-.3l1.2-1.688a11.693,11.693,0,0,1-2.784.553.242.242,0,0,1-.25-.144.257.257,0,0,1,.043-.285l1.376-1.488a7.869,7.869,0,0,1-1.584.223c-.027.18-.056.354-.087.521a39.014,39.014,0,0,1-2.547,7.7.256.256,0,0,1-.237.158.239.239,0,0,1-.1-.019m2.409-15.494a34.684,34.684,0,0,0,4.229,4.409,1.23,1.23,0,0,0,.842.416c.364-.052.563-.554.514-.973a3.114,3.114,0,0,0-1.329-1.954,11.023,11.023,0,0,0-4.011-2.084c-.078.064-.16.127-.244.186m-1.348,4.406,1.584.185c0-.25-.01-.5-.026-.762a6.3,6.3,0,0,0-1.559.577m-.654-1.716,2.154.488a11.438,11.438,0,0,0-.217-1.278,20.665,20.665,0,0,0-1.937.79m.3-1.939a11.9,11.9,0,0,0,1.436.407c-.085-.275-.181-.549-.292-.821a4.665,4.665,0,0,1-1.144.414m3.4-2.505a5.338,5.338,0,0,0-.608.676l-.129.157a7.917,7.917,0,0,0,3.777-1.482,3.655,3.655,0,0,0-3.041.649" transform="translate(-16.572 -27.958)" fill="#fff"/>
        <path id="Path_94309" data-name="Path 94309" d="M111.145,229.139s1.832,26.017,15.757,28.948,60.827,5.5,60.827,5.5-4.4.366,4.032,76.951l29.314-.366s8.061-100.769,3.664-104.8-63.851-23.543-63.851-23.543Z" transform="translate(-8.819 -16.808)" fill="#108fe5"/>
        <path id="Path_94310" data-name="Path 94310" d="M148.558,222.273s68.157,13.192,68.889,21.62-2.565,96.738-2.565,96.738" transform="translate(-11.788 -17.637)" fill="none" stroke="#454d77" stroke-linecap="round" stroke-linejoin="round" stroke-width="0.597"/>
        <path id="Path_94311" data-name="Path 94311" d="M120.3,228.641c8.794,13.192,10.993,14.291,26.383,16.49s49.1,7.328,49.1,8.428.366,48.736,4.764,88.677" transform="translate(-9.546 -18.143)" fill="none" stroke="#454d77" stroke-linecap="round" stroke-linejoin="round" stroke-width="0.597"/>
        <path id="Path_94312" data-name="Path 94312" d="M140.546,243.491a17.021,17.021,0,0,0-5.222-17.039" transform="translate(-10.738 -17.969)" fill="none" stroke="#454d77" stroke-linecap="round" stroke-linejoin="round" stroke-width="0.597"/>
        <path id="Path_94313" data-name="Path 94313" d="M122.924,122.569s-16.64,3.454-19.938,10.6S98.607,172,98.607,172l3.3.55s1.649,42.323,7.42,55.24c0,0,24.185,1.649,50.568-23.085,0,0-8.244-8.52-8.244-12.367s1.59-21.655,1.59-21.655,6.4-5.664,5.83-11.05l6.975-1.509s-2.488-25.459-6.526-29.5c-1.661-1.661-16.152-6.561-16.152-6.561Z" transform="translate(-7.824 -9.686)" fill="#19ceab"/>
        <path id="Path_94314" data-name="Path 94314" d="M101.391,176.6l16.4,1.375.812,8.986,41.136-6.309v7.571S105.972,210.4,103.5,200.236s-2.107-23.635-2.107-23.635" transform="translate(-8.044 -14.013)" fill="#ffbe9d"/>
        <path id="Path_94315" data-name="Path 94315" d="M98.607,174.612l21.8,1.649.733-21.253" transform="translate(-7.824 -12.3)" fill="none" stroke="#454d77" stroke-linecap="round" stroke-linejoin="round" stroke-width="0.597"/>
        <path id="Path_94316" data-name="Path 94316" d="M200.024,168.53s12.776,4.516,14.877,4.58,14.673-5.483,13.83-6.1S221.3,165,221.3,165l-4.98-1.389s-10.586-4.479-17.645-.192Z" transform="translate(-15.765 -12.82)" fill="#ffbe9d"/>
        <g id="Group_47570" data-name="Group 47570" transform="translate(116.88 156.036)" style="mix-blend-mode: multiply;isolation: isolate">
          <g id="Group_47569" data-name="Group 47569">
            <g id="Group_47568" data-name="Group 47568" clip-path="url(#clip-path-7)">
              <path id="Path_94317" data-name="Path 94317" d="M126.954,170.722a28.638,28.638,0,0,0,18.825-1.236s-9.619,11.542-18.825,1.236" transform="translate(-126.954 -169.485)" fill="#17bb9b"/>
            </g>
          </g>
        </g>
        <path id="Path_94318" data-name="Path 94318" d="M199.8,162.935a7.3,7.3,0,0,1,6.406-3.248c4.6,0,10.286-1.534,10.828-.722s-2.346,2.075-3.88,2.165-.09,2.887-.09,2.887Z" transform="translate(-15.854 -12.595)" fill="#ffbe9d"/>
        <path id="Path_94319" data-name="Path 94319" d="M127.684,99.7s-.289,18.868-1.5,19.781a10.675,10.675,0,0,1-3.287,1.972s20.38,17.543,20.688,17.747c.361.241,2.424-18.649,2.22-18.956,0,0-3.915-.644-3.962-.751-.472-1.062-.686-12.7-.686-12.7Z" transform="translate(-9.752 -7.911)" fill="#ffbe9d"/>
        <path id="Path_94320" data-name="Path 94320" d="M141.645,114.411s-11.374.973-13.755-8.985l13.627,1.5Z" transform="translate(-10.148 -8.366)" fill="#eb996e"/>
        <path id="Path_94321" data-name="Path 94321" d="M150.24,82.485c2.311,17.384-6.086,25.132-10.035,25.615-5.1.622-14.172-2.965-16.519-10.624,0,0-6.3.15-6.873-3.287-1.05-6.331,4.048-3.162,4.048-3.162S111.3,72.591,128.087,66.2c7.919-3.017,19.937-.377,22.153,16.289" transform="translate(-9.258 -5.167)" fill="#ffbe9d"/>
        <path id="Path_94322" data-name="Path 94322" d="M130.947,85.934c.152-.4.946-.508,1.3-.63a6.271,6.271,0,0,1,2.242-.354,12.9,12.9,0,0,1,1.792.191c.4.065,1.1.276,1.439-.065a.624.624,0,0,0-.049-.814c-.46-.516-1.488-.531-2.117-.57-1.841-.115-3.868.3-4.605,2.241" transform="translate(-10.391 -6.64)" fill="#563136"/>
        <path id="Path_94323" data-name="Path 94323" d="M151.509,84.487c-.178-.371-.89-.368-1.213-.439a4.939,4.939,0,0,0-2.013-.031,10.642,10.642,0,0,0-1.557.444c-.345.122-.943.431-1.274.14a.68.68,0,0,1-.046-.812c.349-.576,1.252-.737,1.8-.864,1.608-.375,3.438-.248,4.3,1.563" transform="translate(-11.529 -6.566)" fill="#563136"/>
        <path id="Path_94324" data-name="Path 94324" d="M130.641,94.756c-.03-.8,1.228-1.5,2.811-1.562s2.891.541,2.921,1.343-1.227,1.5-2.811,1.563-2.891-.541-2.921-1.344" transform="translate(-10.366 -7.395)" fill="#eb996e" opacity="0.81"/>
        <path id="Path_94325" data-name="Path 94325" d="M147.287,93.683c-.03-.8,1.084-1.5,2.488-1.55s2.569.553,2.6,1.356-1.084,1.5-2.488,1.55-2.569-.553-2.6-1.356" transform="translate(-11.687 -7.31)" fill="#eb996e" opacity="0.81"/>
        <path id="Path_94326" data-name="Path 94326" d="M141.914,96.707a2.968,2.968,0,0,0,2.065-1.337.242.242,0,0,0,.013-.239,14.638,14.638,0,0,1-1.3-7.512.241.241,0,0,0-.21-.271.247.247,0,0,0-.272.209,14.917,14.917,0,0,0,1.282,7.658,2.379,2.379,0,0,1-1.6,1.007h-.084a.243.243,0,0,0,.006.485c.032,0,.064,0,.1,0" transform="translate(-11.234 -6.931)" fill="#242638"/>
        <path id="Path_94327" data-name="Path 94327" d="M137.6,101.616l3.466-1.476,1.362.988,1.143-1.117,2.819,1.227s-1.061,3.974-4.2,4.3-4.59-3.922-4.59-3.922" transform="translate(-10.919 -7.936)" fill="#f97070"/>
        <path id="Path_94328" data-name="Path 94328" d="M142.685,102.92a7.129,7.129,0,0,0,3.64-1.415.259.259,0,1,0-.313-.412c-3.531,2.682-8.051.557-8.1.536a.259.259,0,1,0-.226.467,10.417,10.417,0,0,0,5,.824" transform="translate(-10.914 -8.017)" fill="#242638"/>
        <path id="Path_94329" data-name="Path 94329" d="M133.53,89.683c-.15-1.449.478-2.7,1.4-2.8s1.794,1,1.944,2.451-.477,2.7-1.4,2.8-1.794-1-1.944-2.45" transform="translate(-10.594 -6.894)" fill="#242638"/>
        <path id="Path_94330" data-name="Path 94330" d="M147.155,88.428c-.15-1.449.477-2.7,1.4-2.8s1.794,1,1.944,2.451-.477,2.7-1.4,2.8-1.794-1-1.944-2.45" transform="translate(-11.675 -6.794)" fill="#242638"/>
        <path id="Path_94331" data-name="Path 94331" d="M145.121,77.24c2.238,1.021,4.894,2.067,5.6,4.424-.635-6.144-3.082-12.6-8.378-15.778-5.194-3.12-12.005-2.318-17.4.447a14.331,14.331,0,0,0-4.079,2.928,15.161,15.161,0,0,0-2.94,5.352,18.443,18.443,0,0,0-1.008,10.126c.772,3.35,3.188,6.466,6.515,7.334l7.022-10.835a59.452,59.452,0,0,0,5.725-10.262,30.068,30.068,0,0,0,8.945,6.265" transform="translate(-9.25 -5.069)" fill="#563136"/>
        <path id="Path_94332" data-name="Path 94332" d="M138.63,63.786c3.8.354,7.687,1.76,10.111,4.71,1.7,2.071,2.535,4.7,3.772,7.078,1.989,3.823,5.03,7.013,7.1,10.791s3.051,8.662.718,12.288a15.93,15.93,0,0,1-3.481,3.519l-5.612,4.606c-2.133,1.749-4.474,3.583-7.231,3.707" transform="translate(-11 -5.061)" fill="none" stroke="#563136" stroke-miterlimit="10" stroke-width="0.53"/>
        <rect id="Rectangle_8693" data-name="Rectangle 8693" width="4.517" height="32.218" transform="translate(145.11 157.61) rotate(-70.938)" fill="#37374f"/>
        <path id="Path_94333" data-name="Path 94333" d="M194.168,171.784h0a5.285,5.285,0,0,0-6.7,3.259L185.4,181.02a5.269,5.269,0,1,0,9.961,3.441l2.065-5.976a5.284,5.284,0,0,0-3.259-6.7" transform="translate(-14.689 -13.608)" fill="#37374f"/>
        <path id="Path_94334" data-name="Path 94334" d="M160.165,160.034h0a5.285,5.285,0,0,0-6.7,3.259L151.4,169.27a5.269,5.269,0,1,0,9.961,3.442l2.065-5.977a5.285,5.285,0,0,0-3.259-6.7" transform="translate(-11.991 -12.676)" fill="#37374f"/>
        <rect id="Rectangle_8694" data-name="Rectangle 8694" width="4.516" height="32.218" transform="matrix(0.59, -0.807, 0.807, 0.59, 183.926, 143.698)" fill="#37374f"/>
        <path id="Path_94335" data-name="Path 94335" d="M234.233,167.567h0a5.285,5.285,0,0,0-7.363,1.143l-3.732,5.1a5.269,5.269,0,0,0,8.508,6.22l3.731-5.105a5.284,5.284,0,0,0-1.143-7.363" transform="translate(-17.626 -13.216)" fill="#37374f"/>
        <path id="Path_94336" data-name="Path 94336" d="M205.191,146.334h0a5.284,5.284,0,0,0-7.363,1.143l-3.732,5.105a5.269,5.269,0,0,0,8.508,6.22l3.731-5.1a5.285,5.285,0,0,0-1.143-7.363" transform="translate(-15.321 -11.531)" fill="#37374f"/>
        <path id="Path_94337" data-name="Path 94337" d="M161.617,178.987l1.65-4.931s2.449-6.084,4.113-5.711,1.048,1.158,1.048,1.158l-.458,4.607,4.218-2.261-2.459-1.338s3.626-2.222,5.178-1.214,5.455,3.885,6.184,4.482,2.292,4.192.342,5.469c-14.7,9.62-14.451,7.5-22.642,10.3s2.826-10.559,2.826-10.559" transform="translate(-12.36 -13.357)" fill="#ffbe9d"/>
        <path id="Path_94338" data-name="Path 94338" d="M226.579,167.251s-9.527,1.767-9.148,1.136a18.736,18.736,0,0,1,1.136-1.578s-4.164.442-4.354-.189S218,164.538,218,164.538s-6.309.758-6.561-.126,5.8-3.407,7.76-3.218,5.174,1.577,5.741,2.335a31.235,31.235,0,0,0,3.218,2.839Z" transform="translate(-16.777 -12.79)" fill="#ffbe9d"/>
        <path id="Path_94339" data-name="Path 94339" d="M94.813,146.547s13.235-3.665,14.457-3.665,12.216,5.09,12.216,5.09l-3.054.815s3.462.815,2.85,1.832-3.869.611-3.869.611,3.055.814,2.647,2.036-7.33-.814-7.33-.814l-5.294.61,5.09,1.018s2.85.407,2.24,1.425-5.7,0-5.7,0a38.1,38.1,0,0,1-11.809,0,20.329,20.329,0,0,1-10.181-4.479Z" transform="translate(-6.909 -11.338)" fill="#ffd1bd"/>
      </g>
    </g>
  </g>
</svg>
