<svg id="Increase_chances_of_cure" data-name="Increase chances of cure" xmlns="http://www.w3.org/2000/svg" xmlns:xlink="http://www.w3.org/1999/xlink" width="248.831" height="396.825" viewBox="0 0 248.831 396.825">
  <defs>
    <clipPath id="clip-path">
      <rect id="Rectangle_8349" data-name="Rectangle 8349" width="248.831" height="396.825" fill="none"/>
    </clipPath>
    <clipPath id="clip-path-3">
      <rect id="Rectangle_8338" data-name="Rectangle 8338" width="16.02" height="5.53" fill="none"/>
    </clipPath>
    <filter id="Path_92735" x="-4.86" y="127.217" width="120.655" height="179.175" filterUnits="userSpaceOnUse">
      <feOffset dy="3" input="SourceAlpha"/>
      <feGaussianBlur stdDeviation="3" result="blur"/>
      <feFlood flood-color="#cbcbcb" flood-opacity="0.161"/>
      <feComposite operator="in" in2="blur"/>
      <feComposite in="SourceGraphic"/>
    </filter>
    <clipPath id="clip-path-4">
      <rect id="Rectangle_8345" data-name="Rectangle 8345" width="8.08" height="4.505" fill="none"/>
    </clipPath>
    <clipPath id="clip-path-5">
      <rect id="Rectangle_8346" data-name="Rectangle 8346" width="8.079" height="4.505" fill="none"/>
    </clipPath>
    <clipPath id="clip-path-6">
      <rect id="Rectangle_8347" data-name="Rectangle 8347" width="15.964" height="5.729" fill="#19ceab"/>
    </clipPath>
  </defs>
  <g id="Group_46818" data-name="Group 46818" clip-path="url(#clip-path)">
    <g id="Group_46817" data-name="Group 46817">
      <g id="Group_46816" data-name="Group 46816" clip-path="url(#clip-path)">
        <path id="Path_92684" data-name="Path 92684" d="M241.221,488.152c0-5.026-54-9.1-120.611-9.1S0,483.127,0,488.152s54,9.1,120.61,9.1,120.611-4.074,120.611-9.1" transform="translate(0 -100.427)" fill="#e6edff"/>
        <path id="Path_92685" data-name="Path 92685" d="M216.512,202.385l-7.1,23.73L176.9,237.2l1.3,6.5s40.31-5.167,42.75-8.272,6.21-25.283,6.21-25.283Z" transform="translate(-37.084 -42.427)" fill="#ffd1bd"/>
        <path id="Path_92686" data-name="Path 92686" d="M239.031,143.526s-10.113-22.094,14.2-23.059c25.375-1.007,9.465,35.042,9.465,35.042s12.184,4.531,14.1,10.674,2.416,13.9-5.136,14.9-17.32-13.493-17.017-23.06-15.608-14.5-15.608-14.5" transform="translate(-49.672 -25.25)" fill="#945661"/>
        <path id="Path_92687" data-name="Path 92687" d="M272.484,469.407l2.237-30.514-10.984,1.017,2.238,29.9Z" transform="translate(-55.289 -92.008)" fill="#fca19f"/>
        <path id="Path_92688" data-name="Path 92688" d="M267.55,473.153s2.972,7.721,1.657,13.537l-32.627.15s-2.04-6.248,5.327-7.846,17.582-6.7,17.582-6.7,5.226,3.559,8.06.862" transform="translate(-49.541 -99.009)" fill="#404040"/>
        <path id="Path_92689" data-name="Path 92689" d="M269.22,489.641l-32.627.15a6.861,6.861,0,0,1-.107-3.277l33.09-.153a15.89,15.89,0,0,1-.356,3.279" transform="translate(-49.544 -101.959)" fill="#f7ead5"/>
        <path id="Path_92690" data-name="Path 92690" d="M263.332,473.966a4.526,4.526,0,0,0-1.071-1.477,4.677,4.677,0,0,0-2.451-.852,19.919,19.919,0,0,0-2.286-.151,4.935,4.935,0,0,0-2.867.642.8.8,0,0,0-.428.742.741.741,0,0,0,.457.466,3.713,3.713,0,0,0,2.124.089q2.576-.413,5.107-1.061a10.507,10.507,0,0,0-.311,2.8,5.659,5.659,0,0,0,.581,2.561,2.1,2.1,0,0,0,.746.84,1.114,1.114,0,0,0,1.085.057,1.176,1.176,0,0,0,.537-.943,3.033,3.033,0,0,0-.176-1.109A15.848,15.848,0,0,0,263.332,473.966Z" transform="translate(-53.293 -98.84)" fill="none" stroke="#fff" stroke-linecap="round" stroke-linejoin="round" stroke-width="0.566"/>
        <path id="Path_92691" data-name="Path 92691" d="M209.292,469.529l8.018-30.055h-11.4l-4.857,30.832Z" transform="translate(-42.147 -92.13)" fill="#fca19f"/>
        <path id="Path_92692" data-name="Path 92692" d="M204.225,473.153s2.972,7.721,1.657,13.537l-32.626.15s-2.04-6.248,5.327-7.846,17.582-6.7,17.582-6.7,5.226,3.559,8.061.862" transform="translate(-36.266 -99.009)" fill="#404040"/>
        <path id="Path_92693" data-name="Path 92693" d="M205.894,489.641l-32.627.15a6.861,6.861,0,0,1-.107-3.277l33.09-.153a15.888,15.888,0,0,1-.356,3.279" transform="translate(-36.269 -101.959)" fill="#f7ead5"/>
        <path id="Path_92694" data-name="Path 92694" d="M200.006,473.966a4.526,4.526,0,0,0-1.071-1.477,4.678,4.678,0,0,0-2.451-.852,19.919,19.919,0,0,0-2.286-.151,4.935,4.935,0,0,0-2.867.642.8.8,0,0,0-.428.742.741.741,0,0,0,.457.466,3.713,3.713,0,0,0,2.124.089q2.576-.413,5.107-1.061a10.5,10.5,0,0,0-.31,2.8,5.659,5.659,0,0,0,.581,2.561,2.1,2.1,0,0,0,.746.84,1.114,1.114,0,0,0,1.085.057,1.176,1.176,0,0,0,.537-.943,3.034,3.034,0,0,0-.176-1.109A15.849,15.849,0,0,0,200.006,473.966Z" transform="translate(-40.018 -98.84)" fill="none" stroke="#fff" stroke-linecap="round" stroke-linejoin="round" stroke-width="0.566"/>
        <path id="Path_92695" data-name="Path 92695" d="M255.43,257.72s8.945,10.5,11.819,19.583-3,140.054-3,140.054-9.432,4.042-17.764.43l-8.93-123.136s-.239-1.136-1.2,0-18.145,122.031-18.145,122.031-12.352,2.022-18.971-3.139c0,0,11.467-127.727,16.579-139.362s8.945-16.461,8.945-16.461Z" transform="translate(-41.768 -54.027)" fill="#515151"/>
        <path id="Path_92696" data-name="Path 92696" d="M268.718,259.943s7.667,11.5,10.062,20.125-1.986,138.2-1.986,138.2" transform="translate(-56.333 -54.493)" fill="none" stroke="#1e183f" stroke-linecap="round" stroke-linejoin="round" stroke-width="0.719"/>
        <line id="Line_1" data-name="Line 1" x2="24.111" y2="22.775" transform="translate(199.295 208.429)" fill="none" stroke="#1e183f" stroke-linecap="round" stroke-linejoin="round" stroke-width="0.719"/>
        <path id="Path_92697" data-name="Path 92697" d="M289.051,199.379l7.4,43.643-.371,38.1,9.249,14.806,1.849,7.4-1.48,1.849-1.849-1.48-2.219,2.589-3.7-8.878-3.7-5.179,2.96,9.248a19.016,19.016,0,0,1-5.92-17.386s-6.658-35.144-6.289-42.171l-6.658-33.664Z" transform="translate(-58.347 -41.797)" fill="#ffd1bd"/>
        <line id="Line_2" data-name="Line 2" x1="14.148" y2="21.39" transform="translate(172.346 206.745)" fill="none" stroke="#1e183f" stroke-linecap="round" stroke-linejoin="round" stroke-width="0.719"/>
        <path id="Path_92698" data-name="Path 92698" d="M265.471,210.987l.269-1.168,2.172,7.211c5.47.1,14.25-1.477,14.25-1.477s-3.4-23.933-6.519-26.329-16.824-6.879-16.824-6.879l-15.733-.317L229.4,186.662a2.4,2.4,0,0,0-1.54,1.623l-5.494,19.565,1.284,1.5s-.019-3.262.03-.138c.087,5.474,5.387,7.646,5.387,7.646l-.98,19.658-6.336,18.161c11.26,5.031,46.988-1.267,46.988-1.267l-7.925-16a1.377,1.377,0,0,1-.1-.922c.447-6.724,4.752-25.5,4.752-25.5" transform="translate(-46.488 -38.16)" fill="#108fe5"/>
        <path id="Path_92699" data-name="Path 92699" d="M261.57,157.157s-.227,16.952.292,18.285,3.547,2.112,3.547,2.112-18.161,15.206-18.479,14.889a100.782,100.782,0,0,1-1.795-14.783s3.651-.985,4.1-1.988,1.984-11.9,1.984-11.9Z" transform="translate(-51.389 -32.946)" fill="#ffd1bd"/>
        <path id="Path_92700" data-name="Path 92700" d="M260.406,159.07l-2.746,1.755-5.371,4.3c-.174,1.211-.493,3.4-.826,5.515a15.028,15.028,0,0,0,11.268-8.2c0-1.039.012-1.985.019-2.76Z" transform="translate(-52.716 -33.347)" fill="#d59c83"/>
        <g id="Group_46806" data-name="Group 46806" transform="translate(196.072 174.858)" style="mix-blend-mode: multiply;isolation: isolate">
          <g id="Group_46805" data-name="Group 46805">
            <g id="Group_46804" data-name="Group 46804" clip-path="url(#clip-path-3)">
              <path id="Path_92701" data-name="Path 92701" d="M264.1,221.965s-8.884,6.408-16.021-.728c0,0,8.3,11.942,16.021.728" transform="translate(-248.078 -221.237)" fill="#97a5ff"/>
            </g>
          </g>
        </g>
        <path id="Path_92702" data-name="Path 92702" d="M227.362,203.831s-3.5,8.837-3.208,10.089.217,5.9,5.418,7.508l-.413,9.689" transform="translate(-46.987 -42.73)" fill="none" stroke="#37374f" stroke-linecap="round" stroke-linejoin="round" stroke-width="0.401"/>
        <path id="Path_92703" data-name="Path 92703" d="M239.249,138.566c-.851,14.4,6.473,20.258,9.729,20.42,4.2.209,11.4-3.274,12.865-9.7,0,0,5.16-.251,5.42-3.105.48-5.257-3.5-2.353-3.5-2.353s6.359-18.326-7.985-21.651c-9.37-2.172-15.716,2.581-16.532,16.387" transform="translate(-50.141 -25.508)" fill="#ffd1bd"/>
        <path id="Path_92704" data-name="Path 92704" d="M259.02,143.132c-.149-.317-.8-.36-1.1-.439a5.1,5.1,0,0,0-1.853-.157,10.684,10.684,0,0,0-1.453.263c-.323.078-.887.293-1.18.032a.515.515,0,0,1-.009-.671c.346-.451,1.184-.524,1.7-.593,1.5-.2,3.177.02,3.9,1.565" transform="translate(-53.102 -29.664)" fill="#945661"/>
        <path id="Path_92705" data-name="Path 92705" d="M239.646,143.08c.145-.319.8-.369,1.094-.451a5.114,5.114,0,0,1,1.851-.178,10.712,10.712,0,0,1,1.456.248c.324.074.89.283,1.18.02a.515.515,0,0,0,0-.671c-.351-.447-1.19-.511-1.7-.575-1.5-.187-3.177.055-3.878,1.608" transform="translate(-50.238 -29.646)" fill="#945661"/>
        <path id="Path_92706" data-name="Path 92706" d="M260.189,151.619c-.023-.661-1.093-1.159-2.39-1.115s-2.33.616-2.307,1.276,1.092,1.16,2.39,1.116,2.33-.616,2.307-1.276" transform="translate(-53.56 -31.551)" fill="#e9b59f"/>
        <path id="Path_92707" data-name="Path 92707" d="M244.41,151.742c-.023-.66-.975-1.163-2.125-1.124s-2.066.606-2.043,1.267.975,1.163,2.126,1.124,2.065-.607,2.042-1.267" transform="translate(-50.363 -31.575)" fill="#e9b59f"/>
        <path id="Path_92708" data-name="Path 92708" d="M250.381,153.176a2.432,2.432,0,0,1-1.767-.975.2.2,0,0,1-.024-.2,12.066,12.066,0,0,0,.613-6.24.2.2,0,0,1,.156-.235.2.2,0,0,1,.235.156,12.325,12.325,0,0,1-.59,6.359,1.952,1.952,0,0,0,1.367.731l.068,0a.2.2,0,0,1,.024.4c-.026,0-.053,0-.079,0" transform="translate(-52.11 -30.508)" fill="#37374f"/>
        <path id="Path_92709" data-name="Path 92709" d="M257.607,146.783c.036-1.2-.552-2.188-1.312-2.211s-1.407.928-1.443,2.126.552,2.188,1.312,2.211,1.407-.929,1.443-2.126" transform="translate(-53.426 -30.307)" fill="#37374f"/>
        <path id="Path_92710" data-name="Path 92710" d="M244.55,146.526c.036-1.2-.551-2.188-1.312-2.211s-1.407.928-1.443,2.126.552,2.188,1.312,2.211,1.407-.928,1.443-2.125" transform="translate(-50.689 -30.254)" fill="#37374f"/>
        <path id="Path_92711" data-name="Path 92711" d="M265.568,140.281l-2.112,3.452s-12.136-6.962-14.641-15.9c0,0-7.516,8.138-11.116,10.69,0,0,.156-13.563,6.889-15.637s16.44-3.191,19.572,2.554,1.409,14.839,1.409,14.839" transform="translate(-49.83 -25.41)" fill="#945661"/>
        <path id="Path_92712" data-name="Path 92712" d="M253.343,158.259l-3.114-1.827-1.129.937-1.059-.907-2.37,1.968s1.016,3.758,3.768,3.832c3.18.085,3.9-4,3.9-4" transform="translate(-51.502 -32.794)" fill="#f97070"/>
        <path id="Path_92713" data-name="Path 92713" d="M253.343,158.744l-7.671.171s3.695,5.17,7.671-.171" transform="translate(-51.502 -33.279)" fill="#fff"/>
        <rect id="Rectangle_8339" data-name="Rectangle 8339" width="10.77" height="5.861" transform="translate(203.382 160.869)" fill="#fff"/>
        <rect id="Rectangle_8340" data-name="Rectangle 8340" width="1.425" height="3.01" transform="translate(207.817 158.81)" fill="#c3e6ff"/>
        <path id="Path_92714" data-name="Path 92714" d="M266.726,206.549H259.7a.29.29,0,1,1,0-.581h7.022a.29.29,0,0,1,0,.581" transform="translate(-54.383 -43.178)" fill="#37374f"/>
        <path id="Path_92715" data-name="Path 92715" d="M263.988,208.428h-4.343a.232.232,0,0,1-.231-.231v-.119a.232.232,0,0,1,.231-.231h4.343a.232.232,0,0,1,.231.231v.119a.231.231,0,0,1-.231.231" transform="translate(-54.383 -43.572)" fill="#37374f"/>
        <path id="Path_92716" data-name="Path 92716" d="M126.574,217.289l6.78-3.28,10.441-2.73.964-2.1-.353-2.973-.3-4.82-7.566.633,2.241-4.847a9.5,9.5,0,0,0-5.024,2.73c-2.254,2.344-4.994,8.986-4.994,8.986l-6.669,5.173Z" transform="translate(-25.595 -41.335)" fill="#fca19f"/>
        <path id="Path_92717" data-name="Path 92717" d="M40.725,455.166,37.388,473.05l-9.476-1.6.267-1.868L29.915,456.5Z" transform="translate(-5.852 -95.419)" fill="#acbdd2"/>
        <path id="Path_92718" data-name="Path 92718" d="M27.611,470.589s3.292,5.25,10.5.178c0,0,21.087,7.652,21.354,10.321s-1.335,2.936-1.335,2.936l-31.23-.267Z" transform="translate(-5.639 -98.653)" fill="#404040"/>
        <path id="Path_92719" data-name="Path 92719" d="M85.267,456.348l1.2,16.817L75.658,471.7l.267-1.868-1.068-11.211Z" transform="translate(-15.693 -95.667)" fill="#acbdd2"/>
        <path id="Path_92720" data-name="Path 92720" d="M77.875,287.7l.982,12.012L78.68,429.793l-16.549.534L57.148,312.7l-2.669-.178L42.2,430.15H24.761l2.669-66.732L26.718,291.7l11.033-7.652Z" transform="translate(-5.191 -59.548)" fill="#515151"/>
        <path id="Path_92721" data-name="Path 92721" d="M28.588,303.467l13.524-14.236,14.77.178" transform="translate(-5.993 -60.633)" fill="none" stroke="#356493" stroke-linecap="round" stroke-linejoin="round" stroke-width="0.675"/>
        <path id="Path_92722" data-name="Path 92722" d="M65.738,313.835l1.068-2.136.178-22.243,13.346.356,7.118,11.033" transform="translate(-13.781 -60.681)" fill="none" stroke="#356493" stroke-linecap="round" stroke-linejoin="round" stroke-width="0.675"/>
        <path id="Path_92723" data-name="Path 92723" d="M43.873,150.145l-1.76,16.882s1.3,10.894,10.579,8.7,7.716-8.591,7.716-8.591l-1.133-2.769-.871-9.744Z" transform="translate(-8.828 -31.476)" fill="#ffd1bd"/>
        <path id="Path_92724" data-name="Path 92724" d="M43.8,155.172l.373-4.388,4.429.844,4.281,1.32,6.1,4.4.475,5.31c-2.507,1.152-12.638,1.759-15.663-7.486" transform="translate(-9.182 -31.61)" fill="#d59c83"/>
        <path id="Path_92725" data-name="Path 92725" d="M65.205,129.658c.423,7.508-.6,22.6-8.061,23.494-7.855.94-12.33-2.826-14.486-9.975,0,0-3.72,1.99-4.219-3.368-.22-2.363,2.575-1.5,2.575-1.5s-7.276-18.608,4.662-21.96,18.95,3.029,19.528,13.307" transform="translate(-8.056 -24.203)" fill="#ffd1bd"/>
        <path id="Path_92726" data-name="Path 92726" d="M54.9,137.241a2.249,2.249,0,0,0,.718.216.61.61,0,0,0,.606-.368,1.192,1.192,0,0,0-.341-1.165,2.876,2.876,0,0,0-2.032-.717,6.123,6.123,0,0,0-2.143.147,2.729,2.729,0,0,0-1.7,1.414.509.509,0,0,0-.067.3.327.327,0,0,0,.273.271.689.689,0,0,0,.349-.085,5.632,5.632,0,0,1,4.336-.009" transform="translate(-10.47 -28.339)" fill="#945661"/>
        <path id="Path_92727" data-name="Path 92727" d="M64.585,137.4a1.909,1.909,0,0,1-.623.277.516.516,0,0,1-.559-.314,1.319,1.319,0,0,1,.235-1.189,2.484,2.484,0,0,1,1.757-.889,4.842,4.842,0,0,1,1.906-.04,2.384,2.384,0,0,1,1.589,1.261.547.547,0,0,1,.077.288.327.327,0,0,1-.227.295.552.552,0,0,1-.315-.055,4.512,4.512,0,0,0-3.84.366" transform="translate(-13.278 -28.336)" fill="#945661"/>
        <path id="Path_92728" data-name="Path 92728" d="M61.1,141.988a10.776,10.776,0,0,0,1.507,4.953.669.669,0,0,1,.1.5.574.574,0,0,1-.125.186,2.1,2.1,0,0,1-1.014.609c-.553.141-1.235.1-1.574.556" transform="translate(-12.576 -29.766)" fill="none" stroke="#242638" stroke-miterlimit="10" stroke-width="0.397"/>
        <path id="Path_92729" data-name="Path 92729" d="M67.414,141.136c-.058-1.27-.633-2.276-1.285-2.247s-1.135,1.084-1.077,2.354.633,2.276,1.285,2.247,1.135-1.084,1.077-2.354" transform="translate(-13.636 -29.116)" fill="#242638"/>
        <path id="Path_92730" data-name="Path 92730" d="M54.679,141.294c-.058-1.27-.633-2.276-1.285-2.247s-1.135,1.084-1.077,2.354.633,2.277,1.285,2.247,1.135-1.084,1.077-2.354" transform="translate(-10.967 -29.149)" fill="#242638"/>
        <path id="Path_92731" data-name="Path 92731" d="M63.837,152.368a21.027,21.027,0,0,1-9.565.682s2.12,3.534,5.208,3.15,4.356-3.832,4.356-3.832" transform="translate(-11.377 -31.942)" fill="#fff"/>
        <path id="Path_92732" data-name="Path 92732" d="M66.919,122.476c.6-.507,1.368-1.045,1.336-1.829-.031-.757-.815-1.25-1.543-1.461a4.682,4.682,0,0,1-2.082-.842c1.533-.394,1.978-2.543,1.217-3.932a5.188,5.188,0,0,0-3.279-2.358,12.7,12.7,0,0,0-4.127-.224A48.191,48.191,0,0,0,50.731,113c-2.126.5-4.47,1.123-6.4.1a4.92,4.92,0,0,0-1.68-.782,2.12,2.12,0,0,0-2.068,1.775,6.188,6.188,0,0,0,.321,2.936,3.655,3.655,0,0,0-3.119.486c-.827.711-.81,2.337.221,2.693.334.116.76.111.952.409.217.332-.03.761-.255,1.088a12.058,12.058,0,0,0,3.1,16.761c.55-2.785,1.542-5.465,2.195-8.228a16.208,16.208,0,0,0,.126-8.417c5.318,2.763,11.735,2.7,17.537,1.19A1.834,1.834,0,0,1,63,122.994a1.8,1.8,0,0,1,.7,1.223c.435,1.733.705,3.636,1.14,5.37.45-2.249.137-5.465,2.085-7.11" transform="translate(-7.671 -23.43)" fill="#945661"/>
        <path id="Path_92733" data-name="Path 92733" d="M42.359,139.411a58.252,58.252,0,0,0,1.827-17.338c.038.6,2.434,1.1,2.869,1.226a22.438,22.438,0,0,0,4.932.9c4.432.292,8.634-.756,12.968-1.431a2.976,2.976,0,0,1,1.777.1,1.062,1.062,0,0,1,.5,1.5" transform="translate(-8.88 -25.591)" fill="none" stroke="#fff" stroke-linecap="round" stroke-linejoin="round" stroke-width="0.403" opacity="0.32"/>
        <path id="Path_92734" data-name="Path 92734" d="M66.47,119.437c-2.407-.9-5.075-.207-7.571.4-3.67.885-7.534,1.566-11.189.627" transform="translate(-10.002 -24.948)" fill="none" stroke="#fff" stroke-linecap="round" stroke-linejoin="round" stroke-width="0.403" opacity="0.32"/>
        <path id="Path_94340" data-name="Path 94340" d="M0,0,1,53.927l1.135,61.117" transform="translate(67.972 254.845)" fill="none" stroke="#303030" stroke-width="0.921"/>
        <path id="Path_94341" data-name="Path 94341" d="M7.118,0,3.448,60.559,0,117.447" transform="translate(30.781 252.799)" fill="none" stroke="#303030" stroke-width="0.921"/>
        <g transform="matrix(1, 0, 0, 1, 0, 0)" filter="url(#Path_92735)">
          <path id="Path_92735-2" data-name="Path 92735" d="M34.014,168.551a24.939,24.939,0,0,0,10.855,8.719l7.118-7.652,3.2,2.313,17,7.047a4.776,4.776,0,0,1,2.938,4.108l7.895,28.675,18.809-10.893,6.057,10.415L82.016,234.14a5.2,5.2,0,0,1-8.019-1.7c-.409-.828.311,10.285-.055,9.112-.383-1.227,3.357,85.933,2.879,85.933-3.351,0-13.869-.887-15.936-1.921,0,0-18.507,6.05-36.3,3.558l-3.934-.958,1.276-90.953-13.162-2.8a4.45,4.45,0,0,1-3.508-4.729L9,185.623a6.538,6.538,0,0,1,3.74-5.441l17.181-8.072Z" transform="translate(-1.1 -35.33)" fill="#fff"/>
        </g>
        <path id="Path_92736" data-name="Path 92736" d="M51.561,177.185c-4.627-2.847-10.255-9.04-10.255-9.04l-3.723,3.078,24.478,49.561-.445-49.115-3.182-3.226Z" transform="translate(-7.879 -35.249)" fill="#108fe5"/>
        <path id="Path_92737" data-name="Path 92737" d="M63.3,174.292l5.783,10.855-3.737,8.142,4.538.667L61.48,223.717,36.122,199.694l3.337-4-6.406-1.6L30.784,175.4" transform="translate(-6.453 -36.538)" fill="none" stroke="#356493" stroke-linecap="round" stroke-linejoin="round" stroke-width="0.377"/>
        <line id="Line_5" data-name="Line 5" x2="4.513" y2="103.037" transform="translate(55.027 187.18)" fill="none" stroke="#356493" stroke-linecap="round" stroke-linejoin="round" stroke-width="0.377"/>
        <path id="Path_92738" data-name="Path 92738" d="M92.229,261.783l-1.717-21.7L89.6,212" transform="translate(-18.784 -44.444)" fill="none" stroke="#356493" stroke-linecap="round" stroke-linejoin="round" stroke-width="0.377"/>
        <path id="Path_92739" data-name="Path 92739" d="M13.728,185.887s12.635,6.228,13.7,21.354" transform="translate(-2.878 -38.969)" fill="none" stroke="#356493" stroke-linecap="round" stroke-linejoin="round" stroke-width="0.377"/>
        <path id="Path_92740" data-name="Path 92740" d="M91.192,184.086A62.465,62.465,0,0,0,88.7,202.059" transform="translate(-18.593 -38.591)" fill="none" stroke="#356493" stroke-linecap="round" stroke-linejoin="round" stroke-width="0.377"/>
        <rect id="Rectangle_8341" data-name="Rectangle 8341" width="18.471" height="3.47" transform="translate(22.303 229.095)" fill="none" stroke="#356493" stroke-linecap="round" stroke-linejoin="round" stroke-width="0.377"/>
        <rect id="Rectangle_8342" data-name="Rectangle 8342" width="10.726" height="3.47" transform="translate(63.012 229.095)" fill="none" stroke="#356493" stroke-linecap="round" stroke-linejoin="round" stroke-width="0.377"/>
        <rect id="Rectangle_8343" data-name="Rectangle 8343" width="8.631" height="3.025" transform="translate(62.545 205.91)" fill="none" stroke="#356493" stroke-linecap="round" stroke-linejoin="round" stroke-width="0.675"/>
        <circle id="Ellipse_3122" data-name="Ellipse 3122" cx="1.379" cy="1.379" r="1.379" transform="translate(50.845 195.543)" fill="none" stroke="#356493" stroke-linecap="round" stroke-linejoin="round" stroke-width="0.675"/>
        <circle id="Ellipse_3123" data-name="Ellipse 3123" cx="1.379" cy="1.379" r="1.379" transform="translate(52.001 204.797)" fill="none" stroke="#356493" stroke-linecap="round" stroke-linejoin="round" stroke-width="0.675"/>
        <circle id="Ellipse_3124" data-name="Ellipse 3124" cx="1.379" cy="1.379" r="1.379" transform="translate(51.71 216.259)" fill="none" stroke="#356493" stroke-linecap="round" stroke-linejoin="round" stroke-width="0.675"/>
        <path id="Path_92741" data-name="Path 92741" d="M54.448,179.769l3.618.831-.934,4.36L64.7,203.912l.222,19.308s-9.031-17.439-9.031-17.973-1.6-19.486-1.6-19.486l-3.07-4.4Z" transform="translate(-10.737 -37.686)" fill="#583b5a"/>
        <path id="Path_92742" data-name="Path 92742" d="M42.174,185.178a.134.134,0,0,1-.059-.254l10.41-5.16a.127.127,0,0,1,.085-.01l10.411,2.09a.133.133,0,0,1,.1.157.136.136,0,0,1-.156.1L52.6,180.024l-10.37,5.141a.132.132,0,0,1-.059.013" transform="translate(-8.813 -37.682)" fill="#e4eef9"/>
        <path id="Path_92743" data-name="Path 92743" d="M103.537,237.66,83.76,225.385a1.63,1.63,0,0,0-2.245.526l-17.827,28.72a1.631,1.631,0,0,0,.526,2.246L83.99,269.152a1.631,1.631,0,0,0,2.246-.526l17.827-28.721a1.631,1.631,0,0,0-.526-2.245" transform="translate(-13.3 -47.197)" fill="#108fe5"/>
        <rect id="Rectangle_8344" data-name="Rectangle 8344" width="3.077" height="13.237" transform="matrix(0.521, -0.853, 0.853, 0.521, 73.558, 182.925)" fill="#a9bdd2"/>
        <path id="Path_92744" data-name="Path 92744" d="M75.568,470.589s3.292,5.25,10.5.178c0,0,21.087,7.652,21.354,10.321s-1.335,2.936-1.335,2.936l-31.23-.267Z" transform="translate(-15.693 -98.653)" fill="#404040"/>
        <path id="Path_92745" data-name="Path 92745" d="M80.116,260.941a74.9,74.9,0,0,1-11.2-4.133,20.526,20.526,0,0,1,5.5,4.42c-5.5-2.872-9.758-7.316-15.262-10.189-1.641-.856-4.533-.141-6.173-1l.175-7c.013-.522.1-1.156.579-1.361a1.376,1.376,0,0,1,.739-.028L74.8,244.607c1.167.169,2.468.419,3.136,1.391-2.86,1.164-6.269-.854-9.149.261l12.864,5.207a3.6,3.6,0,0,1,2.286,1.8l-3.1.113a3.689,3.689,0,0,1,2.4,3.347,46.586,46.586,0,0,1-11.408-2.064l7.644,4.952c.469.3,1,.895.642,1.328" transform="translate(-11.108 -50.651)" fill="#fca19f"/>
        <path id="Path_92746" data-name="Path 92746" d="M48.955,240.114l5.3,1.156.319,13.669-3.706-.279Z" transform="translate(-10.263 -50.337)" fill="#e6edff"/>
        <path id="Path_92747" data-name="Path 92747" d="M26.351,248.167l23.485,2.922-.319-13.868-21.837-5.1L29.114,220.8" transform="translate(-5.524 -46.288)" fill="none" stroke="#356493" stroke-linecap="round" stroke-linejoin="round" stroke-width="0.377"/>
        <path id="Path_92748" data-name="Path 92748" d="M137.892,203.073,157,201s1.453,1.661-4.568,2.076l-3.738.831,8.929,1.661s-.416.831-2.7,1.038l3.323,1.453A14.075,14.075,0,0,1,154.3,209.1c-1.453,0-8.513.831-8.513.831s10.174.208,10.174,1.038-11.836,1.453-11.836,1.453Z" transform="translate(-28.907 -42.136)" fill="#fca19f"/>
        <g id="Group_46809" data-name="Group 46809" transform="translate(38.627 110.208)" opacity="0.52">
          <g id="Group_46808" data-name="Group 46808">
            <g id="Group_46807" data-name="Group 46807" clip-path="url(#clip-path-4)">
              <path id="Path_92749" data-name="Path 92749" d="M56.208,139.44h-6.59a.744.744,0,0,0-.745.745V143.2a.744.744,0,0,0,.745.745h6.59a.745.745,0,0,0,.745-.745v-3.016a.745.745,0,0,0-.745-.745" transform="translate(-48.873 -139.44)" fill="#c3e6ff"/>
            </g>
          </g>
        </g>
        <path id="Path_92750" data-name="Path 92750" d="M56.168,144.054h-6.59a.9.9,0,0,1-.894-.893v-3.016a.9.9,0,0,1,.894-.894h6.59a.9.9,0,0,1,.894.894v3.016a.894.894,0,0,1-.894.893m-6.59-4.505a.6.6,0,0,0-.6.6v3.016a.6.6,0,0,0,.6.6h6.59a.6.6,0,0,0,.6-.6v-3.016a.6.6,0,0,0-.6-.6Z" transform="translate(-10.206 -29.192)" fill="#242638"/>
        <g id="Group_46812" data-name="Group 46812" transform="translate(49.45 110.208)" opacity="0.52">
          <g id="Group_46811" data-name="Group 46811">
            <g id="Group_46810" data-name="Group 46810" clip-path="url(#clip-path-5)">
              <path id="Path_92751" data-name="Path 92751" d="M69.9,139.44h-6.59a.744.744,0,0,0-.745.745V143.2a.744.744,0,0,0,.745.745H69.9a.745.745,0,0,0,.745-.745v-3.016a.745.745,0,0,0-.745-.745" transform="translate(-62.566 -139.44)" fill="#c3e6ff"/>
            </g>
          </g>
        </g>
        <path id="Path_92752" data-name="Path 92752" d="M69.861,144.054h-6.59a.9.9,0,0,1-.894-.893v-3.016a.9.9,0,0,1,.894-.894h6.59a.9.9,0,0,1,.894.894v3.016a.894.894,0,0,1-.894.893m-6.59-4.505a.6.6,0,0,0-.6.6v3.016a.6.6,0,0,0,.6.6h6.59a.6.6,0,0,0,.6-.6v-3.016a.6.6,0,0,0-.6-.6Z" transform="translate(-13.076 -29.192)" fill="#242638"/>
        <path id="Path_92753" data-name="Path 92753" d="M61.839,142.406s-1.005-1.2-2.743-.013" transform="translate(-12.389 -29.741)" fill="none" stroke="#242638" stroke-miterlimit="10" stroke-width="0.565"/>
        <path id="Path_92754" data-name="Path 92754" d="M47.207,142.326,41.6,143.745l-.376-.326,5.955-2.051Z" transform="translate(-8.642 -29.636)" fill="#242638"/>
        <path id="Path_92755" data-name="Path 92755" d="M35.194,212.75,34,212.731c.024-1.424.6-34.925,1.046-39.22a10.776,10.776,0,0,1,5.854-8.13l-.049,1.39c-.046.032-4.208,2.874-4.62,6.863-.439,4.244-1.034,38.77-1.039,39.117" transform="translate(-7.128 -34.67)" fill="#242638"/>
        <path id="Path_92756" data-name="Path 92756" d="M38.092,223.344a3.835,3.835,0,1,0-3.835,3.835,3.835,3.835,0,0,0,3.835-3.835" transform="translate(-6.378 -46.017)" fill="#9fb6c4"/>
        <path id="Path_92757" data-name="Path 92757" d="M37.094,223.575a2.606,2.606,0,1,0-2.607,2.607,2.607,2.607,0,0,0,2.607-2.607" transform="translate(-6.684 -46.323)" fill="#242638"/>
        <path id="Path_92758" data-name="Path 92758" d="M76.17,212.141l-.431-1.111.215.556-.218-.554a4.434,4.434,0,0,0,2.419-3.176c.654-2.937-.564-8.583-10.083-18.8l-.153-.165-.006-.225c0-.114-.3-11.453-.792-16.339-.448-4.486-3.372-5.016-3.4-5.024l-.1-1.514c.159.036,4.155,1.09,4.688,6.419.454,4.544.746,14.57.791,16.2,7.841,8.451,11.277,15.094,10.212,19.743a5.615,5.615,0,0,1-3.139,3.988" transform="translate(-13.337 -34.755)" fill="#242638"/>
        <path id="Path_92759" data-name="Path 92759" d="M67.3,194.714a89.413,89.413,0,0,0-5.866,9.275c-2.958,5.471-5.27,11.682-1.879,13.561" transform="translate(-12.133 -40.819)" fill="none" stroke="#242638" stroke-miterlimit="10" stroke-width="1.507"/>
        <line id="Line_6" data-name="Line 6" x1="13.602" y2="0.298" transform="translate(49.214 163.426)" fill="none" stroke="#242638" stroke-miterlimit="10" stroke-width="1.507"/>
        <path id="Path_92760" data-name="Path 92760" d="M60.654,221.58h0a.747.747,0,0,0-.951.453l-.6,1.684a.745.745,0,1,0,1.4.5l.6-1.684a.747.747,0,0,0-.453-.951" transform="translate(-12.382 -46.442)" fill="#9fb6c4"/>
        <path id="Path_92761" data-name="Path 92761" d="M77.868,221.922h0a.746.746,0,0,0-.444.955l.613,1.679a.745.745,0,1,0,1.4-.511l-.613-1.679a.746.746,0,0,0-.955-.444" transform="translate(-16.221 -46.513)" fill="#9fb6c4"/>
        <path id="Path_92762" data-name="Path 92762" d="M189.3,128.084c-.423-.379.626-.618,1.041-.23,3.941,3.689,4.567,9.665,4.432,15.061s-.726,11.071,1.586,15.949c2.685,5.665,9.077,9.793,9.216,16.061.1,4.436-3.107,8.326-3.576,12.738-.285,2.677.46,5.391.113,8.06a9.941,9.941,0,0,1-15.71,6.758" transform="translate(-39.077 -26.761)" fill="none" stroke="#563136" stroke-miterlimit="10" stroke-width="1.096"/>
        <path id="Path_92763" data-name="Path 92763" d="M188.286,194.59c-1.179,5.166-6.778,8.509-12.073,8.3s-10.12-3.31-13.688-7.226c-2.277-2.5-4.238-5.427-7.188-7.08-4.373-2.452-10.1-1.63-14.284-4.394-4.873-3.221-5.789-10.14-4.472-15.832s4.326-10.885,5.6-16.585c.888-3.961.941-8.155,2.6-11.861a29.421,29.421,0,0,1,2.593-4.374l3.524-5.231c2.181-3.239,4.439-6.555,7.652-8.774,9.275-6.4,23.148.2,24.27,11.355.865,8.6-3.288,16.527,1.156,24.939,1.619,3.063,4.1,5.575,6.07,8.424,2.431,3.508,3.634,7.482,2.351,11.662-.926,3.014-2.92,5.659-3.527,8.752-.51,2.605.006,5.338-.584,7.926" transform="translate(-28.518 -24.951)" fill="#563136"/>
        <path id="Path_92764" data-name="Path 92764" d="M122.918,462.4c.161-.3.241-.485.241-.485l-.029-18.646,10.913,2s-1.421,10.828-1.635,16.5a35.616,35.616,0,0,0-9.49.635" transform="translate(-25.768 -92.926)" fill="#fca19f"/>
        <path id="Path_92765" data-name="Path 92765" d="M104.667,473.2c10.085-1.274,12.432-7.772,12.432-7.772l-.353-5.68,10.864.9c-.181,2.351-1.061,5.974-.954,7.078.374,3.833,3.387,12.388,1.352,14.673,0,0-28.439,1.585-31.317,1.061s-2.109-8.982,7.976-10.257" transform="translate(-19.965 -96.38)" fill="#404040"/>
        <path id="Path_92766" data-name="Path 92766" d="M104.656,476.742c.236-.03.446-.076.673-.111a20.608,20.608,0,0,1,1.061,6.757l22.3-.172a4.124,4.124,0,0,1-.7,2.723S99.556,487.524,96.679,487s-2.109-8.982,7.977-10.257" transform="translate(-19.962 -99.919)" fill="#fff"/>
        <path id="Path_92767" data-name="Path 92767" d="M126.135,476.343a3.024,3.024,0,1,1,3.6,2.311,3.025,3.025,0,0,1-3.6-2.311" transform="translate(-26.428 -99.09)" fill="#fff"/>
        <path id="Path_92768" data-name="Path 92768" d="M123.463,476.918a.225.225,0,0,1-.209-.14,34.232,34.232,0,0,1-2.241-6.77c-.028-.148-.053-.3-.077-.459a6.91,6.91,0,0,1-1.393-.2l1.211,1.309a.227.227,0,0,1,.038.251.214.214,0,0,1-.221.126,10.306,10.306,0,0,1-2.45-.487l1.055,1.485a.224.224,0,0,1,0,.267.222.222,0,0,1-.255.075c-.786-.284-1.563-.6-2.321-.952l1.257,2.033a.225.225,0,0,1-.326.3l-2.726-2.016a.226.226,0,0,1-.047-.315.221.221,0,0,1,.313-.047l1.788,1.322-1.044-1.689a.225.225,0,0,1,.025-.27.221.221,0,0,1,.266-.05c.741.366,1.5.7,2.281,1.005l-1.049-1.477a.225.225,0,0,1,.268-.339,9.935,9.935,0,0,0,2.415.646l-1.376-1.489a.225.225,0,0,1,.244-.363,6.51,6.51,0,0,0,1.988.419q-.033-.27-.056-.553l-1.1-.653a.225.225,0,0,1,.089-.417l.96-.113c0-.292.011-.59.035-.894a.223.223,0,0,1-.028-.1.235.235,0,0,1,.047-.144,10.974,10.974,0,0,1,.238-1.45A.229.229,0,0,1,121,464.6a.227.227,0,0,1,.161-.2c.013-.05.028-.1.043-.149a31.331,31.331,0,0,1-3.2,3.238,1.43,1.43,0,0,1-1.1.473,1.17,1.17,0,0,1-.835-1.354,3.151,3.151,0,0,1,1.332-2.015,10.2,10.2,0,0,1,3.007-1.7,7.356,7.356,0,0,1-3.8-1.686.221.221,0,0,1-.073-.221.224.224,0,0,1,.162-.167,3.812,3.812,0,0,1,3.54.571,5.02,5.02,0,0,1,.588.649c.111.137.221.275.34.4.021.02.04.04.059.061.237,0,.477,0,.713-.025a.231.231,0,0,1,.245.193.472.472,0,0,0-.061.446l-.018.038a3.577,3.577,0,0,0,1.656.417h.009a.225.225,0,0,1,.11.421,7.214,7.214,0,0,1-1.837.67,18.677,18.677,0,0,1,1.929.853.224.224,0,0,1-.051.42l-1.951.441a5.941,5.941,0,0,1,1.457.733.225.225,0,0,1-.1.409l-2.092.245c0,.174.013.346.024.515l1.27.753a.226.226,0,0,1-.075.415,6.844,6.844,0,0,1-1.051.107c.021.129.042.254.064.375a33.976,33.976,0,0,0,2.215,6.681.226.226,0,0,1-.208.311m-2.25-13.813a9.712,9.712,0,0,0-3.53,1.834,2.737,2.737,0,0,0-1.169,1.718c-.043.368.132.81.451.857a1.086,1.086,0,0,0,.741-.367,30.554,30.554,0,0,0,3.72-3.879c-.073-.052-.145-.107-.214-.164m.028,3.533c-.013.227-.021.45-.023.67l1.395-.163a5.54,5.54,0,0,0-1.372-.507m.243-1.7a10.127,10.127,0,0,0-.192,1.124l1.9-.429a18.382,18.382,0,0,0-1.7-.695m.431-1.375q-.145.359-.255.722a10.372,10.372,0,0,0,1.263-.358,4.143,4.143,0,0,1-1.008-.364m-4.658-2.411a6.95,6.95,0,0,0,3.323,1.3l-.113-.138a4.64,4.64,0,0,0-.535-.594,3.215,3.215,0,0,0-2.675-.571" transform="translate(-24.048 -96.566)" fill="#fff"/>
        <path id="Path_92769" data-name="Path 92769" d="M179.072,462.122c.149-.3.22-.5.22-.5L178.448,443l10.989,1.521s-.946,10.88-.913,16.552a35.6,35.6,0,0,0-9.453,1.049" transform="translate(-37.409 -92.869)" fill="#fca19f"/>
        <path id="Path_92770" data-name="Path 92770" d="M161.5,473.459c10.019-1.714,12.08-8.307,12.08-8.307l-.6-5.659,10.894.422c-.078,2.357-.8,6.014-.644,7.112.541,3.813,3.925,12.228,1.991,14.6,0,0-28.342,2.826-31.24,2.426s-2.5-8.881,7.521-10.595" transform="translate(-31.952 -96.326)" fill="#404040"/>
        <path id="Path_92771" data-name="Path 92771" d="M161.488,477.129c.235-.04.443-.1.669-.141a20.586,20.586,0,0,1,1.355,6.7l22.276-1.147a4.117,4.117,0,0,1-.58,2.751s-28.342,2.826-31.24,2.426-2.5-8.881,7.52-10.595" transform="translate(-31.949 -99.994)" fill="#fff"/>
        <path id="Path_92772" data-name="Path 92772" d="M182.873,475.873a3.024,3.024,0,1,1,3.694,2.152,3.023,3.023,0,0,1-3.694-2.152" transform="translate(-38.316 -98.965)" fill="#fff"/>
        <path id="Path_92773" data-name="Path 92773" d="M180.32,476.561a.225.225,0,0,1-.214-.13,34.374,34.374,0,0,1-2.535-6.667q-.05-.218-.1-.454a6.958,6.958,0,0,1-1.4-.135l1.268,1.255a.226.226,0,0,1,.048.249.213.213,0,0,1-.214.136,10.292,10.292,0,0,1-2.468-.379l1.118,1.438a.225.225,0,0,1-.245.353c-.8-.249-1.587-.534-2.358-.85l1.344,1.977a.225.225,0,0,1-.312.313l-2.812-1.9a.226.226,0,0,1-.061-.313.223.223,0,0,1,.312-.061l1.844,1.242L172.42,471a.226.226,0,0,1,.013-.271.221.221,0,0,1,.263-.062c.756.333,1.535.636,2.323.9l-1.113-1.431a.225.225,0,0,1,0-.27.228.228,0,0,1,.258-.081,9.892,9.892,0,0,0,2.441.54L175.16,468.9a.225.225,0,0,1,.229-.373,6.5,6.5,0,0,0,2,.332c-.029-.179-.057-.363-.081-.551l-1.125-.6a.225.225,0,0,1,.07-.42l.955-.154c-.012-.292-.014-.591,0-.895a.234.234,0,0,1-.031-.1.228.228,0,0,1,.041-.145,10.8,10.8,0,0,1,.174-1.46.226.226,0,0,1,.081-.378c.012-.051.024-.1.036-.152a30.991,30.991,0,0,1-3.054,3.375,1.431,1.431,0,0,1-1.079.521,1.17,1.17,0,0,1-.894-1.317,3.147,3.147,0,0,1,1.242-2.072,10.185,10.185,0,0,1,2.931-1.83,7.356,7.356,0,0,1-3.875-1.518.221.221,0,0,1-.082-.217.225.225,0,0,1,.155-.173,3.811,3.811,0,0,1,3.561.416,5.14,5.14,0,0,1,.616.623c.116.132.232.266.358.389l.061.058c.237-.008.476-.025.712-.056a.23.23,0,0,1,.252.182.471.471,0,0,0-.04.448l-.017.039a3.573,3.573,0,0,0,1.672.344h.009a.225.225,0,0,1,.127.417,7.225,7.225,0,0,1-1.806.749,18.753,18.753,0,0,1,1.966.767.225.225,0,0,1-.034.421l-1.928.526a5.978,5.978,0,0,1,1.487.668.226.226,0,0,1-.084.413l-2.08.336q.02.261.047.513l1.3.7a.225.225,0,0,1-.057.418,7.014,7.014,0,0,1-1.045.153c.026.127.053.251.08.371a34.026,34.026,0,0,0,2.5,6.578.225.225,0,0,1-.11.3.233.233,0,0,1-.085.021m-2.851-13.7a9.706,9.706,0,0,0-3.445,1.986,2.738,2.738,0,0,0-1.094,1.769c-.027.37.168.8.489.835a1.081,1.081,0,0,0,.724-.4,30.512,30.512,0,0,0,3.548-4.038c-.076-.048-.15-.1-.222-.154m.183,3.528q-.006.34.007.67l1.386-.223a5.541,5.541,0,0,0-1.393-.447m.168-1.706a10.262,10.262,0,0,0-.142,1.131l1.876-.511a18.094,18.094,0,0,0-1.733-.62m.371-1.393q-.129.365-.224.733a10.4,10.4,0,0,0,1.246-.413,4.11,4.11,0,0,1-1.021-.32m-4.76-2.205a6.957,6.957,0,0,0,3.377,1.158c-.04-.044-.079-.089-.119-.134a4.853,4.853,0,0,0-.56-.571,3.219,3.219,0,0,0-2.7-.454" transform="translate(-35.92 -96.543)" fill="#fff"/>
        <path id="Path_92774" data-name="Path 92774" d="M131.856,255.866a95.207,95.207,0,0,0-9.244,25.71c-2.6,13.866-4.622,134.9-4.622,134.9s7.8,4.622,18.777,0c0,0,4.911-65.863,5.2-67.307s6.067-59.8,6.067-59.8l6.066,67.019,6.355,58.93s5.489,4.334,19.933,0l-3.756-62.4s1.733-69.908-1.733-80.019a58.014,58.014,0,0,0-8.666-16.466Z" transform="translate(-24.735 -53.639)" fill="#108fe5"/>
        <line id="Line_7" data-name="Line 7" y1="33.004" x2="0.578" transform="translate(123.298 202.732)" fill="none" stroke="#454d77" stroke-linecap="round" stroke-linejoin="round" stroke-width="0.6"/>
        <path id="Path_92775" data-name="Path 92775" d="M185.278,275.253s-16.682.867-19.5-18.2" transform="translate(-34.753 -53.888)" fill="none" stroke="#454d77" stroke-linecap="round" stroke-linejoin="round" stroke-width="0.6"/>
        <path id="Path_92776" data-name="Path 92776" d="M155.093,282.389l-4.116-4.983V255.957" transform="translate(-31.65 -53.658)" fill="none" stroke="#454d77" stroke-linecap="round" stroke-linejoin="round" stroke-width="0.6"/>
        <path id="Path_92777" data-name="Path 92777" d="M125.483,274.966s9.966.867,15.166-19.283" transform="translate(-26.306 -53.6)" fill="none" stroke="#454d77" stroke-linecap="round" stroke-linejoin="round" stroke-width="0.6"/>
        <path id="Path_92778" data-name="Path 92778" d="M201.525,217.266l2.817,23.182-5.634,32.5-5.416-.867s.867-31.415.434-32.932-4.767-22.315-4.767-22.315Z" transform="translate(-39.613 -45.456)" fill="#ffbe9d"/>
        <path id="Path_92779" data-name="Path 92779" d="M139.63,153.494l-15.31-34.665L117.1,69.72l-6.355.288s1.156,46.22,2.6,51.709,13.866,34.954,13.866,34.954Z" transform="translate(-23.216 -14.616)" fill="#ffbe9d"/>
        <path id="Path_92780" data-name="Path 92780" d="M154.1,176.108s-5.593-1.939-7.283-2.422-7.366-10.4-7.366-10.4-10.4,5.2-10.977,10.4l7.655,14.155c1.265.492.784,3.675.341,4.959-1.2,3.5-3.341,9.9-3.276,11.166.092,1.755,1.832,6.9,4.571,8.37l.54,13.145-5.39,11.6s18.544,8.216,38.272,3.483c-.085.745-2.7-6.884-1.942-13.6.391-3.444,5.451-22.348,5.451-22.348l1.045,6.838,14.732-5.2s-4.143-22.12-8-24.013-12.59-4.34-12.59-4.34Z" transform="translate(-26.932 -34.231)" fill="#19ceab"/>
        <g id="Group_46815" data-name="Group 46815" transform="translate(123.7 172.955)" style="mix-blend-mode: multiply;isolation: isolate">
          <g id="Group_46814" data-name="Group 46814">
            <g id="Group_46813" data-name="Group 46813" clip-path="url(#clip-path-6)">
              <path id="Path_92781" data-name="Path 92781" d="M156.51,218.83s7.318,5.631,15.964,2.471c0,0-8.194,8.771-15.964-2.471" transform="translate(-156.51 -218.83)" fill="#19ceab"/>
            </g>
          </g>
        </g>
        <path id="Path_92782" data-name="Path 92782" d="M170.9,156.176s-.055,15.859.443,17.1,7.576,4.175,7.576,4.175-22.731,10.2-24.319-4.679c0,0,4.524,1.778,4.937.835s1.745-11.152,1.745-11.152Z" transform="translate(-32.41 -32.74)" fill="#ffbe9d"/>
        <path id="Path_92783" data-name="Path 92783" d="M170.1,157.995l-2.553,1.667-4.984,4.069c-.151,1.133-.464,4.033-.756,6.016a10.351,10.351,0,0,0,10.655-7.9c-.006-.972,0-2.709,0-3.433Z" transform="translate(-33.92 -33.121)" fill="#eb996e"/>
        <path id="Path_92784" data-name="Path 92784" d="M156.034,134.77c-4.481,14.108,1.358,21.784,4.569,22.766,4.144,1.269,12.541-1.055,15.618-7.075,0,0,3.19,1.816,4.258-.924,1.386-3.556-2.4-2.791-2.4-2.791s11.352-16.406-2.136-23.334c-8.811-4.525-15.611-2.169-19.907,11.357" transform="translate(-32.369 -25.432)" fill="#ffbe9d"/>
        <path id="Path_92785" data-name="Path 92785" d="M177.518,144.348c-.034-.38-.74-.781-1.032-1.017a7.593,7.593,0,0,0-1.981-1.163,15.161,15.161,0,0,0-1.712-.546c-.389-.1-1.1-.209-1.316-.615a.47.47,0,0,1,.267-.639c.567-.236,1.522.153,2.117.368,1.736.628,3.5,1.759,3.657,3.612" transform="translate(-35.938 -29.411)" fill="#563136"/>
        <path id="Path_92786" data-name="Path 92786" d="M156.917,139.8c.152-.326.828-.372,1.131-.454a5.3,5.3,0,0,1,1.908-.166,11.089,11.089,0,0,1,1.5.266c.334.079.914.3,1.215.03a.527.527,0,0,0,.007-.688c-.357-.462-1.222-.534-1.75-.6-1.543-.2-3.273.03-4.009,1.617" transform="translate(-32.896 -28.954)" fill="#563136"/>
        <path id="Path_92787" data-name="Path 92787" d="M175.034,152.669c.144-.662-.8-1.429-2.106-1.713s-2.483.025-2.626.687.8,1.43,2.106,1.713,2.483-.025,2.626-.687" transform="translate(-35.698 -31.624)" fill="#f97070"/>
        <path id="Path_92788" data-name="Path 92788" d="M159.66,149.648c.144-.662-.68-1.4-1.839-1.655s-2.216.082-2.36.745.681,1.4,1.84,1.654,2.215-.082,2.359-.745" transform="translate(-32.587 -31.007)" fill="#f97070"/>
        <path id="Path_92789" data-name="Path 92789" d="M164.983,152.148a2.5,2.5,0,0,1-1.519-1.416.2.2,0,0,1,.025-.2,12.354,12.354,0,0,0,2.185-6.052.2.2,0,0,1,.214-.194.208.208,0,0,1,.2.213,12.608,12.608,0,0,1-2.192,6.177,2.006,2.006,0,0,0,1.18,1.072l.069.013a.2.2,0,0,1-.077.4c-.027,0-.053-.01-.08-.016" transform="translate(-34.265 -30.247)" fill="#242638"/>
        <path id="Path_92790" data-name="Path 92790" d="M179.373,145.954a7.152,7.152,0,0,1-1.114.452c-.105-.03-8.341-12.625-9.993-18.785l-13,7.583s2.4-10.5,6.752-12.477,6.737-4.379,13.887-.477,9.582,10.3,7.307,16.395-3.835,7.308-3.835,7.308" transform="translate(-32.549 -25.19)" fill="#563136"/>
        <path id="Path_92791" data-name="Path 92791" d="M174.171,147.16c.338-1.182,0-2.315-.753-2.531s-1.638.568-1.977,1.75,0,2.316.753,2.531,1.638-.567,1.977-1.75" transform="translate(-35.913 -30.312)" fill="#242638"/>
        <path id="Path_92792" data-name="Path 92792" d="M161,144.584c.338-1.182,0-2.315-.753-2.531s-1.638.568-1.977,1.75,0,2.316.753,2.531,1.638-.567,1.977-1.75" transform="translate(-33.152 -29.772)" fill="#242638"/>
        <path id="Path_92793" data-name="Path 92793" d="M167.531,157.848l-2.659-2.443-1.3.678-.843-1.11L160,156.4s.2,3.889,2.876,4.541c3.09.755,4.659-3.09,4.659-3.09" transform="translate(-33.541 -32.488)" fill="#f97070"/>
        <path id="Path_92794" data-name="Path 92794" d="M167.531,158.226,160,156.775s2.522,5.833,7.535,1.451" transform="translate(-33.541 -32.866)" fill="#fff"/>
        <path id="Path_92795" data-name="Path 92795" d="M193.533,286.031c-.407,1.181-1.152,3.888-2.1,6.46a29.117,29.117,0,0,0-1.32,7.857s1.14.421,1.855-1.9a5.936,5.936,0,0,1,2.669-3.331l1.664,5.382s.347,5.146.98,5.38,1.623-4,1.623-4,1.522,4.447,2.23,3.7a1.022,1.022,0,0,0,.126-1.411s.709.856,1.14.421.261-7.134.261-7.134,1.2,2.873,1.447,2.8.523-.832-1.032-5.238c-1.24-3.512-3.553-8.346-4.087-10.423Z" transform="translate(-39.854 -59.66)" fill="#ffbe9d"/>
        <path id="Path_92796" data-name="Path 92796" d="M111.892,76.165l-3.434-5.805-8.6-7.342,2.483-1.907,1.736-2.044,2.741-3.813L112,58.461l.748-3.348a8.521,8.521,0,0,1,2.4,4.526c.519,2.866-.726,9.178-.726,9.178l.831,9.793Z" transform="translate(-20.933 -11.554)" fill="#ffa192"/>
        <path id="Path_92797" data-name="Path 92797" d="M98.546,29.949l2.335.072c.2-6.676-3.009-12.245-5.59-16.723C93.524,10.234,92,7.589,92.44,5.958A2.763,2.763,0,0,1,93.9,4.364a3.934,3.934,0,0,1,3.365-.417c2.716.938,4.843,4.822,5.432,6.24l2.157-.894c-.1-.247-3.264-7.482-7.584-8.956a6.225,6.225,0,0,0-5.276.6,5.017,5.017,0,0,0-2.556,3.011c-.7,2.567,1.721,6.861,3.832,10.521,2.434,4.219,5.462,9.472,5.278,15.484" transform="translate(-18.723 0)" fill="#fce6a3"/>
        <path id="Path_92798" data-name="Path 92798" d="M129.9,43.7l-1.763-1.533c4.383-5.04,10.523-6.949,15.458-8.484,3.377-1.05,6.294-1.956,7.076-3.455a2.764,2.764,0,0,0,.011-2.16,3.936,3.936,0,0,0-2.188-2.59c-2.63-1.155-6.829.253-8.225.895l-.977-2.121c.244-.11,7.477-3.278,11.648-1.427a6.227,6.227,0,0,1,3.47,4.02,5.019,5.019,0,0,1-.168,3.945c-1.231,2.358-5.921,3.87-9.956,5.123-4.651,1.446-10.441,3.247-14.387,7.787" transform="translate(-26.861 -4.663)" fill="#fce6a3"/>
        <path id="Path_92799" data-name="Path 92799" d="M92.418,63.128c.263-.673,2.728-1.306,5.9-.946a5.288,5.288,0,0,0,5.5-3.347l3.359-8.579,3.08,1.205-3.358,8.58a5.289,5.289,0,0,0,1.763,6.189c2.573,1.889,3.953,4.027,3.69,4.7-.152.386-.665,1.7-.816,2.083-.4,1.026-5.189.111-10.692-2.044S91.2,66.237,91.6,65.211c.152-.386.665-1.7.816-2.083" transform="translate(-19.197 -10.535)" fill="#fce6a3"/>
        <path id="Path_92800" data-name="Path 92800" d="M101.727,72.092c5.382,2.106,10.049,3.015,10.63,2.1a.491.491,0,0,1-.009.129c-.151.386-.664,1.7-.816,2.084-.4,1.025-5.188.11-10.692-2.044S91.2,69.624,91.6,68.6c.151-.386.664-1.7.816-2.084a.645.645,0,0,1,.081-.1c-.2,1.069,3.847,3.571,9.228,5.678" transform="translate(-19.198 -13.923)" fill="#f4c040"/>
        <path id="Path_92801" data-name="Path 92801" d="M119.542,8.554l6.091,2.385L138.9,15.348s-10.841,26.315-21.37,29.4a12.652,12.652,0,0,1-14.993-5.869c-5.635-9.415,4.269-36.1,4.269-36.1Z" transform="translate(-21.132 -0.584)" fill="#fce6a3"/>
        <path id="Path_92802" data-name="Path 92802" d="M108.149,2.731c-.455,1.163,6.386,4.929,15.282,8.411s16.475,5.361,16.93,4.2-6.386-4.929-15.281-8.411-16.475-5.362-16.93-4.2" transform="translate(-22.668 -0.5)" fill="#fce6a3"/>
        <path id="Path_92803" data-name="Path 92803" d="M107.455,2.374c.987-2.523,14.906,2.779,17.686,3.867s16.6,6.645,15.613,9.167-14.906-2.779-17.688-3.867-16.6-6.645-15.611-9.167m17.261,4.955c-8.7-3.4-14.748-4.752-16.067-4.487.788,1.089,6.145,4.207,14.843,7.612s14.749,4.752,16.067,4.487c-.789-1.089-6.146-4.207-14.844-7.612" transform="translate(-22.516 -0.357)" fill="#f4c040"/>
        <circle id="Ellipse_3125" data-name="Ellipse 3125" cx="8" cy="8" r="8" transform="translate(85.915 16)" fill="#fff"/>
        <path id="Path_92804" data-name="Path 92804" d="M107.952,25.514A8.792,8.792,0,1,1,113,36.879a8.8,8.8,0,0,1-5.044-11.365m1.09.42A7.625,7.625,0,1,0,118.9,21.56a7.633,7.633,0,0,0-9.855,4.374" transform="translate(-22.507 -4.168)" fill="#f4c040"/>
        <path id="Path_92806" data-name="Path 92806" d="M99.856,62.919l5.261,2.972,1.6-1.3,2.9-2.172,1.072-.4a1.085,1.085,0,0,0,.483-1.68c-1.418-1.834-4.163-5.222-5.374-5.608-1.67-.533-1.321,1.425-1.541,1.662s-4.3,5.873-4.4,6.527" transform="translate(-20.933 -11.454)" fill="#ffa192"/>
        <g id="Logo" transform="matrix(0.951, 0.309, -0.309, 0.951, -24.639, 85.651)">
          <g id="Group_2" data-name="Group 2" transform="translate(90.96 -100.213)">
            <path id="Path_1" data-name="Path 1" d="M81.34,159.135l2.6,3.838a5.02,5.02,0,0,0,.12-2.173,8.743,8.743,0,0,0-1.07-2.94,10.749,10.749,0,0,1-.9.766A7.633,7.633,0,0,1,81.34,159.135Z" transform="translate(-78.443 -152.121)" fill="#19ceab"/>
            <path id="Path_2" data-name="Path 2" d="M19.218,18.339a5.63,5.63,0,0,1,1.13-.725c.071-.045.14-.091.2-.14a1.534,1.534,0,0,1-.242-.2,6.338,6.338,0,0,1-.976-1.1,1.223,1.223,0,0,1-.01-1.484,1.1,1.1,0,0,1,.333-.274.912.912,0,0,1,.415-.092,1.061,1.061,0,0,1,.4.113c.048.023.488.3.487.3v.012l.118-.129c.046-.042.1-.092.171-.142a1.358,1.358,0,0,1,.547-.257c.293-.041.635.07.94.574a1.046,1.046,0,0,0-.187-.432h0a.939.939,0,0,0-.216-.238.632.632,0,0,0-.062-.043h0a.44.44,0,0,0-.06-.032.989.989,0,0,0-.994.185c-.025.021-.275.23-.255.274-.07-.153-.287-.267-.419-.356a1.554,1.554,0,0,0-.609-.234.967.967,0,0,0-.421.006,2.234,2.234,0,0,0-1.3,1.375,2.528,2.528,0,0,0-.153,1.227,5.249,5.249,0,0,0,.409,1.328,4.771,4.771,0,0,0,.418.807l.026-.025Q19.058,18.478,19.218,18.339Z" transform="translate(-17.667 -13.889)" fill="#19ceab"/>
            <path id="Path_3" data-name="Path 3" d="M13.952,43.221a1.265,1.265,0,0,1-.139-.181c.207.549-.334,1.29-.334,1.29a3.958,3.958,0,0,1-.675.641c-.783.6-1.73.849-2.48,1.5a4.813,4.813,0,0,0-1.572,2.99,5.9,5.9,0,0,0,.2,2.979,2.129,2.129,0,0,1,.087-.666,5.253,5.253,0,0,1,.122-.589,3.962,3.962,0,0,1,.73-1.419,4.881,4.881,0,0,1,1.5-1,7.255,7.255,0,0,0,.8-.536,5.716,5.716,0,0,0,2.15-2.643,2.768,2.768,0,0,0-.116-1.851A2.944,2.944,0,0,0,13.952,43.221Z" transform="translate(-8.65 -41.878)" fill="#108fe5"/>
          </g>
        </g>
      </g>
    </g>
  </g>
</svg>
