<svg xmlns="http://www.w3.org/2000/svg" width="18" height="18" viewBox="352 -830 18 18"><g data-name="Rectangle 8312"><path d="M356-830h10a4 4 0 0 1 4 4v10a4 4 0 0 1-4 4h-10a4 4 0 0 1-4-4v-10a4 4 0 0 1 4-4z" fill="#fff" fill-rule="evenodd"/><path d="M356.278-829.5h9.444a3.778 3.778 0 0 1 3.778 3.778v9.444a3.778 3.778 0 0 1-3.778 3.778h-9.444a3.778 3.778 0 0 1-3.778-3.778v-9.444a3.778 3.778 0 0 1 3.778-3.778z" stroke-linejoin="round" stroke-linecap="round" stroke="#cfcfcf" fill="transparent" stroke-width=".94444"/></g></svg>