<svg xmlns="http://www.w3.org/2000/svg" width="18" height="18" viewBox="322 116 18 18"><g data-name="Group 48088"><path d="M326 116h10a4 4 0 0 1 4 4v10a4 4 0 0 1-4 4h-10a4 4 0 0 1-4-4v-10a4 4 0 0 1 4-4z" fill="#108fe5" fill-rule="evenodd" data-name="Rectangle 8304"/><g data-name="Group 37"><path d="M336.426 121.94c-.052.257-.212.444-.393.624-1.883 1.88-3.764 3.761-5.645 5.643-.253.254-.549.365-.896.243a.967.967 0 0 1-.347-.22c-.962-.952-1.92-1.91-2.875-2.87-.386-.388-.353-.944.066-1.272.328-.256.789-.21 1.115.116.738.736 1.474 1.473 2.21 2.21.028.03.047.067.087.125.044-.059.062-.092.088-.118l5.132-5.134c.248-.248.536-.352.88-.245.3.094.479.306.557.607l.02.066v.224Z" fill="#fff" fill-rule="evenodd" data-name="Path 7"/></g></g></svg>