<svg xmlns="http://www.w3.org/2000/svg" width="13" height="15" viewBox="121 147 13 15"><g data-name="Group 47986"><g data-name="Rectangle 8329"><path d="M129 147h5v15h-5v-15z" fill="#fff" fill-rule="evenodd"/><path d="M0 0h5v15h0-5 0V0h0z" stroke-linejoin="round" stroke-linecap="round" stroke-width=".7" stroke="#707070" fill="transparent" transform="matrix(.86 0 0 .95333 129.35 147.35)"/></g><g data-name="Rectangle 8328"><path d="M125 153h5v9h-5v-9z" fill="#fff" fill-rule="evenodd"/><path d="M0 0h5v9h0-5 0V0h0z" stroke-linejoin="round" stroke-linecap="round" stroke-width=".7" stroke="#707070" fill="transparent" transform="matrix(.86 0 0 .92222 125.35 153.35)"/></g><g data-name="Rectangle 8327"><path d="M121 156h5v6h-5v-6z" fill="#fff" fill-rule="evenodd"/><path d="M0 0h5v6h0-5 0V0h0z" stroke-linejoin="round" stroke-linecap="round" stroke-width=".7" stroke="#707070" fill="transparent" transform="matrix(.86 0 0 .88333 121.35 156.35)"/></g></g></svg>