<svg xmlns="http://www.w3.org/2000/svg" width="36" height="36" viewBox="0 0 36 36">
  <g id="Group_47953" data-name="Group 47953" transform="translate(-35 -438)">
    <circle id="Ellipse_3146" data-name="Ellipse 3146" cx="18" cy="18" r="18" transform="translate(35 438)" fill="#00aa9e"/>
    <g id="noun-news-1401378" transform="translate(46.126 444.683)">
      <path id="Path_80306" data-name="Path 80306" d="M11.436,16.181V11.14s0,0,0,0V4.352a.331.331,0,0,0-.331-.331H-.668A.331.331,0,0,0-1,4.352V16.181A2.391,2.391,0,0,0,1.39,18.57h11.2A3.046,3.046,0,0,1,11.436,16.181ZM.738,6.089a.328.328,0,0,1,.331-.331H4.939a.33.33,0,0,1,.331.331V9.959a.332.332,0,0,1-.331.331H1.069a.33.33,0,0,1-.331-.331ZM9.587,16.578H1.068a.331.331,0,0,1,0-.662H9.587a.331.331,0,1,1,0,.662Zm0-2.255H1.068a.331.331,0,1,1,0-.662H9.587a.331.331,0,1,1,0,.662Zm0-2.255H1.068a.331.331,0,0,1,0-.662H9.587a.331.331,0,1,1,0,.662ZM9.78,9.463H6.5a.331.331,0,1,1,0-.662H9.78a.331.331,0,0,1,0,.662Zm0-2.218H6.5a.331.331,0,1,1,0-.662H9.78a.331.331,0,0,1,0,.662Z" fill="#fff"/>
      <path id="Path_80307" data-name="Path 80307" d="M43.014,24.529H38.9a.33.33,0,0,0-.331.331V29.9a2.388,2.388,0,1,0,4.776,0V24.86A.33.33,0,0,0,43.014,24.529Z" transform="translate(-26.471 -13.72)" fill="#fff"/>
    </g>
  </g>
</svg>
