<svg xmlns="http://www.w3.org/2000/svg" width="15" height="15" viewBox="89.435 327.001 15 15"><g data-name="Group 47993"><g data-name="Group 47992" transform="translate(89.436 327)" clip-path="url(&quot;#a&quot;)"><path d="M7.5 0C5.51 0 3.602.79 2.197 2.199A7.498 7.498 0 0 0 0 7.5v.001a7.502 7.502 0 0 0 1.29 4.189L.044 14.333a.468.468 0 0 0 .624.622l2.643-1.244A7.496 7.496 0 0 0 7.498 15H7.5a7.5 7.5 0 0 0 0-15ZM4.277 4.814h3.15a.469.469 0 1 1 0 .937h-3.15a.469.469 0 1 1-.021-.937h.021m0 2.218h6.444a.472.472 0 0 1 .459.48.473.473 0 0 1-.459.46H4.277a.47.47 0 0 1 0-.94m-.02 2.218H10.722a.47.47 0 0 1 0 .94H4.277a.47.47 0 0 1-.02-.94" fill="#108fe5" fill-rule="evenodd" data-name="Path 94651"/></g></g><defs><clipPath id="a"><path d="M0 0h15v15H0V0z" data-name="Rectangle 8797"/></clipPath></defs></svg>