<svg xmlns="http://www.w3.org/2000/svg" width="24" height="24" viewBox="0 0 24 24">
  <g id="Story" transform="translate(1123 -355)">
    <g id="StoryOfHope" transform="translate(-4 34)">
      <g id="Zen_Success_Stories" data-name="Zen Success Stories" transform="translate(4 45)">
        <g id="AboutUs" transform="translate(-2570 92)">
          <g id="Complimentary" transform="translate(-19 46)">
            <g id="Group_47958" data-name="Group 47958" transform="translate(1444 -182)">
              <rect id="Rectangle_20" data-name="Rectangle 20" width="24" height="24" rx="12" transform="translate(22 320)" fill="#f24236"/>
            </g>
          </g>
        </g>
      </g>
    </g>
    <g id="noun-heart-689240_1_" data-name="noun-heart-689240 (1)" transform="translate(-1138.959 334.586)">
      <path id="Path_80331" data-name="Path 80331" d="M33.072,28.163a3.305,3.305,0,0,0-2.1-.747,3.315,3.315,0,0,0-2.687,1.34,3.337,3.337,0,0,0-3.257-1.29,3.461,3.461,0,0,0-2.412,1.687,3.511,3.511,0,0,0-.194,3.767,9.8,9.8,0,0,0,1.425,1.889A27.254,27.254,0,0,0,27.937,38.3a.588.588,0,0,0,.343.115.607.607,0,0,0,.374-.14,28.116,28.116,0,0,0,3.777-3.166,9.84,9.84,0,0,0,1.737-2.247A3.107,3.107,0,0,0,34.6,31.34,4.08,4.08,0,0,0,33.072,28.163Z" transform="translate(0 0)" fill="#fff"/>
    </g>
  </g>
</svg>
