<svg xmlns="http://www.w3.org/2000/svg" width="24" height="24" viewBox="0 0 24 24">
  <g id="Symptoms" transform="translate(1435 -610)">
    <rect id="Rectangle_45" data-name="Rectangle 45" width="24" height="24" rx="12" transform="translate(-1435 610)" fill="#e71e62"/>
    <path id="noun-corona-symptoms-4420359" d="M10.875,14.251a5.55,5.55,0,0,1-.88,3.594.638.638,0,0,0-.11.44c.018.2.037.4.055.587,0,0,.037.953.055,1.045h-2.6V18.835a15.931,15.931,0,0,0-.55-3.135c-.11-.385-.2-.788-.293-1.173-.055-.275-.128-.55-.2-.843a.225.225,0,0,1,.018-.183c.128-.33.257-.66.367-.99.183-.513.385-1.027.587-1.54.055-.128.092-.128.128-.128a.358.358,0,0,1,.128.018.86.86,0,0,1,.678.972,5.549,5.549,0,0,1-.22.917c-.018.055-.037.128-.055.183A1.759,1.759,0,0,0,8.015,14.2c.092.22.165.458.238.7.037.092.055.183.092.275.128.385.367.44.513.44a.233.233,0,0,0,.11-.018.528.528,0,0,0,.44-.605V14.27a.728.728,0,0,1,.733-.7A.689.689,0,0,1,10.875,14.251Zm.055-3.172a.344.344,0,0,0-.367.073l-.66.66a.338.338,0,1,0,.477.477c.22-.2.422-.422.642-.642a.425.425,0,0,0,.128-.33A.387.387,0,0,0,10.93,11.08Zm-1.137-.7h.66a.313.313,0,0,0,.33-.348.308.308,0,0,0-.33-.33H9.775a.305.305,0,0,0-.33.348A.345.345,0,0,0,9.793,10.383ZM12.158,12.4a.3.3,0,0,0-.33-.312.322.322,0,0,0-.348.33,4.418,4.418,0,0,0,0,.7.294.294,0,0,0,.33.312.322.322,0,0,0,.348-.33v-.33A1.229,1.229,0,0,0,12.158,12.4ZM22.3,19.385v-.367a8.89,8.89,0,0,0-.88-3.484,11.434,11.434,0,0,0-.99-1.705c-.147-.348-.275-.678-.4-1.008a4.934,4.934,0,0,1-.33-1.338.634.634,0,0,1,.128-.477,8.738,8.738,0,0,0,1.54-2.915,4.587,4.587,0,0,0-.4-3.575,3.912,3.912,0,0,0-3.135-1.943,4.5,4.5,0,0,0-4.382,1.687,3,3,0,0,0-.513,3.154.417.417,0,0,1-.073.477c-.257.348-.55.678-.77,1.045-.275.458-.183.7.312.88.44.165.458.165.367.678a.234.234,0,0,0,.037.22.336.336,0,0,1,.073.422.189.189,0,0,0,.11.275c.2.073.183.22.147.367a1.161,1.161,0,0,0,.037.66.656.656,0,0,0,.733.532c.422,0,.825,0,1.247-.018a.45.45,0,0,1,.513.348c.11.33.22.66.312.99a5.741,5.741,0,0,0-1.815,2.439,9.3,9.3,0,0,0-.843,2.329,5.012,5.012,0,0,0-.11.9h3.044V17.515a2.368,2.368,0,0,1,4.6-.788,2.415,2.415,0,0,1,.147.807v2.42h1.338C22.316,19.752,22.3,19.568,22.3,19.385Zm-1.98-1.907a1.7,1.7,0,1,0-3.392.073v2.365h3.392V17.478Z" transform="translate(-1438.334 610.291)" fill="#fff"/>
  </g>
</svg>
