<svg xmlns="http://www.w3.org/2000/svg" width="24" height="24" viewBox="0 0 24 24">
  <g id="Group_47851" data-name="Group 47851" transform="translate(-23 -385)">
    <rect id="Rectangle_8" data-name="Rectangle 8" width="24" height="24" rx="4" transform="translate(23 385)" fill="#01bcd4"/>
    <g id="noun-terms-and-conditions-4820927" transform="translate(27 389)">
      <path id="Path_80145" data-name="Path 80145" d="M8.779,12.851a4.072,4.072,0,0,1,6.514-3.258c.039-.568.063-1.2.064-1.914a24.487,24.487,0,0,0-.312-4.06A4.293,4.293,0,0,0,11.739.312,24.448,24.448,0,0,0,7.679,0,24.492,24.492,0,0,0,3.618.312,4.293,4.293,0,0,0,.312,3.618,24.522,24.522,0,0,0,0,7.679a24.526,24.526,0,0,0,.312,4.061,4.293,4.293,0,0,0,3.306,3.306,24.523,24.523,0,0,0,4.061.312c.711,0,1.346-.025,1.914-.064a4.041,4.041,0,0,1-.814-2.443ZM3.885,3.711h7.588a.889.889,0,0,1,0,1.777H3.885a.889.889,0,0,1,0-1.777Zm0,5.489a.889.889,0,0,1,0-1.777H8.339a.889.889,0,1,1,0,1.777Z" fill="#fff"/>
      <path id="Path_80146" data-name="Path 80146" d="M311.146,308.16a2.986,2.986,0,1,0,2.986,2.986,2.986,2.986,0,0,0-2.986-2.986Zm.557,4.467a.557.557,0,0,1-1.113,0v-1.469a.557.557,0,0,1,1.113,0Zm-.023-2.66a.314.314,0,0,1-.242.242,1.812,1.812,0,0,1-.3.023,1.781,1.781,0,0,1-.3-.023.314.314,0,0,1-.242-.242,1.816,1.816,0,0,1-.023-.3,1.784,1.784,0,0,1,.023-.3.314.314,0,0,1,.242-.242,1.808,1.808,0,0,1,.3-.023,1.781,1.781,0,0,1,.3.023.314.314,0,0,1,.242.242,1.811,1.811,0,0,1,.023.3A1.781,1.781,0,0,1,311.68,309.967Z" transform="translate(-298.132 -298.132)" fill="#fff"/>
    </g>
  </g>
</svg>
