<?xml version="1.0" encoding="utf-8"?>
<!-- Generator: Adobe Illustrator 26.0.3, SVG Export Plug-In . SVG Version: 6.00 Build 0)  -->
<svg version="1.1" id="Layer_1" xmlns="http://www.w3.org/2000/svg" xmlns:xlink="http://www.w3.org/1999/xlink" x="0px" y="0px"
	 viewBox="0 0 36.7 44" style="enable-background:new 0 0 36.7 44;" xml:space="preserve">
<style type="text/css">
	.st0{opacity:0.2;}
	.st1{fill:#B709D8;}
	.st2{enable-background:new    ;}
	.st3{fill:#FFFFFF;}
</style>
<g id="Group_47227" transform="translate(3717 -3093)">
	<g id="Group_47226" transform="translate(-2568 112)">
		<g id="noun-pdf-1658745" transform="translate(-1149 2981)" class="st0">
			<path id="Union_1" class="st1" d="M2.9,44C0.8,44,0,43.2,0,41.1V2.9C0,0.8,0.8,0,2.9,0H22c1.3-0.1,2.5,0.4,3.3,1.4l9.9,9.9
				c1,0.8,1.5,2.1,1.4,3.3v26.4c0,2.1-0.8,2.9-2.9,2.9H2.9z M2.6,40.7c0,0.6,0.2,0.8,0.8,0.8h30c0.6,0,0.8-0.2,0.8-0.8v-9.5H2.6
				L2.6,40.7z M2.6,3.3v14.6h31.5v-4.1c0-0.3-0.1-0.4-0.4-0.4h-7.6c-2.1,0-2.9-0.8-2.9-2.9V2.9c0-0.3-0.1-0.4-0.4-0.4H3.3
				C2.8,2.6,2.6,2.8,2.6,3.3z"/>
		</g>
		<rect id="Rectangle_88" x="-1149" y="2999" class="st1" width="34" height="13"/>
		<g class="st2">
			<path class="st3" d="M-1140.5,3001.7h5.8v1.1h-2.2v7.2h-1.4v-7.2h-2.2V3001.7z"/>
			<path class="st3" d="M-1130.3,3007l-1.8,3h-1.5l2.6-4.2l-2.6-4.2h1.5l1.9,3l1.8-3h1.5l-2.6,4.2l2.6,4.2h-1.5L-1130.3,3007z"/>
			<path class="st3" d="M-1125.8,3001.7h5.8v1.1h-2.2v7.2h-1.4v-7.2h-2.2V3001.7z"/>
		</g>
	</g>
</g>
</svg>
