<svg xmlns="http://www.w3.org/2000/svg" width="22.185" height="21.333" viewBox="0 0 22.185 21.333">
  <defs>
    <style>
      .cls-1 {
        fill: #108fe5;
      }
    </style>
  </defs>
  <path id="noun-verified-3165026" class="cls-1" d="M307.3,307.873c0-1.109-1.043-1.775-1.875-2.274a6.653,6.653,0,0,1-.743-.488,5.691,5.691,0,0,1,.322-.876c.366-.887.832-1.986.178-2.884s-1.853-.81-2.818-.721h0a6.548,6.548,0,0,1-.921,0c-.078-.2-.178-.61-.244-.876-.211-.943-.488-2.119-1.564-2.463s-1.941.433-2.662,1.054h0a6.657,6.657,0,0,1-.765.654,6.689,6.689,0,0,1-.765-.6c-.721-.621-1.62-1.4-2.662-1.054s-1.353,1.5-1.564,2.44c-.067.266-.166.677-.244.876a6.556,6.556,0,0,1-.921,0c-.965-.089-2.152-.189-2.818.721s-.189,2,.178,2.884a5.7,5.7,0,0,1,.322.876,6.628,6.628,0,0,1-.743.488c-.832.466-1.875,1.131-1.875,2.241s1.043,1.775,1.875,2.274a6.671,6.671,0,0,1,.743.488,5.7,5.7,0,0,1-.322.876c-.366.887-.832,1.986-.178,2.884s1.853.81,2.818.721a6.594,6.594,0,0,1,.921,0c.078.2.178.61.244.876.211.943.488,2.119,1.564,2.463s1.941-.433,2.662-1.109h0a6.673,6.673,0,0,1,.765-.6,6.646,6.646,0,0,1,.765.6,3.583,3.583,0,0,0,2.141,1.109,1.779,1.779,0,0,0,.521-.089c1.109-.344,1.353-1.52,1.564-2.463.067-.266.166-.677.244-.876a6.548,6.548,0,0,1,.921,0c.965.089,2.152.189,2.818-.721s.189-2-.178-2.884h0a5.692,5.692,0,0,1-.322-.876,6.657,6.657,0,0,1,.743-.488c.832-.41,1.875-1.076,1.875-2.185Zm-6.9-2.085-4.437,5.546h0a1.11,1.11,0,0,1-.8.422H295.1a1.11,1.11,0,0,1-.788-.322l-2.219-2.219a1.114,1.114,0,0,1,1.575-1.575l1.342,1.342,3.661-4.57a1.109,1.109,0,0,1,1.73,1.376Z" transform="translate(-285.118 -297.206)"/>
</svg>
