<svg xmlns="http://www.w3.org/2000/svg" width="20" height="20" viewBox="0 0 20 20">
  <g id="Group_46689" data-name="Group 46689" transform="translate(-74 -243)">
    <rect id="Rectangle_3" data-name="Rectangle 3" width="20" height="20" rx="10" transform="translate(74 243)" fill="#108fe5"/>
    <g id="Group_37" data-name="Group 37" transform="translate(1158.638 18.168)">
      <path id="Path_7" data-name="Path 7" d="M-1069.138,232.65a1.214,1.214,0,0,1-.386.614q-2.779,2.774-5.553,5.552a.8.8,0,0,1-.882.239.951.951,0,0,1-.342-.216q-1.42-1.406-2.828-2.824a.808.808,0,0,1,.065-1.252.819.819,0,0,1,1.1.114q1.088,1.086,2.174,2.175a1,1,0,0,1,.086.123,1.169,1.169,0,0,1,.086-.117l5.049-5.051a.81.81,0,0,1,.865-.241.791.791,0,0,1,.549.6c.006.022.014.044.02.066Z" transform="translate(0 0)" fill="#fff"/>
    </g>
  </g>
</svg>
