<svg xmlns="http://www.w3.org/2000/svg" width="13.488" height="15.63" viewBox="0 0 13.488 15.63">
  <g id="noun-timer-1206039" transform="translate(0 0)">
    <path id="Path_92715" data-name="Path 92715" d="M27.452,980.982a4.871,4.871,0,1,0,4.87,4.872.355.355,0,0,0-.355-.355H27.807v-4.161a.355.355,0,0,0-.355-.355Z" transform="translate(-20.707 -976.964)" fill="#666" fill-rule="evenodd"/>
    <path id="Path_92716" data-name="Path 92716" d="M18.742,958.362a2.8,2.8,0,0,0-.966.156,1.13,1.13,0,0,0-.366.205.561.561,0,0,0,0,.877,1.146,1.146,0,0,0,.366.211,2.294,2.294,0,0,0,.455.117l-.305.633a6.744,6.744,0,1,0,1.7,0l-.305-.633a2.312,2.312,0,0,0,.455-.117,1.142,1.142,0,0,0,.366-.211.552.552,0,0,0,0-.877,1.13,1.13,0,0,0-.366-.205,2.763,2.763,0,0,0-.96-.156h-.072Zm.033,2.859a6.031,6.031,0,1,1-6.033,6.033A6.029,6.029,0,0,1,18.775,961.221Z" transform="translate(-12.031 -958.362)" fill="#666" fill-rule="evenodd"/>
  </g>
</svg>
