<svg xmlns="http://www.w3.org/2000/svg" width="12.385" height="12.393" viewBox="0 0 12.385 12.393">
  <g id="noun-time-1014321" transform="translate(0)">
    <path id="Path_80119" data-name="Path 80119" d="M16.65,22.843a6.2,6.2,0,0,0,4.374-10.582h0A6.2,6.2,0,1,0,16.65,22.843Zm-3.606-9.8a5.1,5.1,0,1,1,0,7.212A5.106,5.106,0,0,1,13.045,13.045Z" transform="translate(-10.45 -10.45)" fill="#666"/>
    <path id="Path_80120" data-name="Path 80120" d="M33.049,32.733h2.508a.555.555,0,0,0,.549-.549V29.049a.549.549,0,1,0-1.1,0v2.587h-1.96a.549.549,0,1,0,0,1.1Z" transform="translate(-29.043 -25.67)" fill="#666"/>
  </g>
</svg>
