<svg xmlns="http://www.w3.org/2000/svg" width="20" height="20" viewBox="0 0 20 20">
  <g id="Group_47268" data-name="Group 47268" transform="translate(-330 -309)">
    <circle id="Ellipse_3117" data-name="Ellipse 3117" cx="10" cy="10" r="10" transform="translate(330 309)" fill="#108fe5"/>
    <g id="noun-tips-2663052" transform="translate(324.2 -649.2)">
      <circle id="Ellipse_3118" data-name="Ellipse 3118" cx="3.121" cy="3.121" r="3.121" transform="translate(12.686 965.129)" fill="#fffb87"/>
      <path id="Path_54" data-name="Path 54" d="M41.9,1033.9a.839.839,0,0,0,.624.537v.145a.537.537,0,1,0,1.074,0v-.145a.791.791,0,0,0,.624-.537Z" transform="translate(-27.269 -61.12)" fill="#fffb87"/>
      <rect id="Rectangle_8336" data-name="Rectangle 8336" width="2.424" height="0.537" transform="translate(14.588 971.982)" fill="#fffb87"/>
      <rect id="Rectangle_8337" data-name="Rectangle 8337" width="2.424" height="0.537" transform="translate(14.588 971.111)" fill="#fffb87"/>
      <path id="Path_55" data-name="Path 55" d="M10.276,1000.5a.276.276,0,0,0-.276.276.267.267,0,0,0,.276.276h1.35a.276.276,0,1,0,0-.552Z" transform="translate(0 -32.569)" fill="#fffb87"/>
      <path id="Path_56" data-name="Path 56" d="M21.44,973.6a.255.255,0,0,0-.189.087.272.272,0,0,0,0,.377l.958.958a.267.267,0,0,0,.377-.377l-.958-.958A.234.234,0,0,0,21.44,973.6Z" transform="translate(-9.553 -9.574)" fill="#fffb87"/>
      <path id="Path_57" data-name="Path 57" d="M48.376,962.4a.276.276,0,0,0-.276.276v1.35a.276.276,0,0,0,.552,0v-1.35A.285.285,0,0,0,48.376,962.4Z" transform="translate(-32.569)" fill="#fffb87"/>
      <path id="Path_58" data-name="Path 58" d="M69.7,973.6a.255.255,0,0,0-.189.087l-.958.958a.267.267,0,0,0,.377.377l.958-.958a.272.272,0,0,0,0-.377A.255.255,0,0,0,69.7,973.6Z" transform="translate(-49.986 -9.574)" fill="#fffb87"/>
      <path id="Path_59" data-name="Path 59" d="M77.176,1000.5a.276.276,0,1,0,0,.552h1.336a.276.276,0,0,0,.276-.276.267.267,0,0,0-.276-.276Z" transform="translate(-57.188 -32.569)" fill="#fffb87"/>
    </g>
  </g>
</svg>
