<svg xmlns="http://www.w3.org/2000/svg" width="16.53" height="21.667" viewBox="154 547.333 16.53 21.667"><g data-name="Group 47033"><path d="M167.846 556.411c-.512.854-.732 2.099-.732 2.099s.122-1.123-.61-3.124c-.732-2-1.39-2.684-1.781-4.148-.537-2.001.61-3.905.61-3.905s-4.563.879-6.638 4.856c-1.854 3.539-1.098 5.662-1.098 5.662s-.78-.732-1.171-1.733c-.39-1-.317-1.928-.317-1.928s-3.246 3.588-1.684 8.102c1.098 3.172 3.148 5.27 5.612 6.1-1.17-.683-1.976-1.878-2.025-3.318-.073-2.66 1.757-3.953 2.855-5.71 1.562-2.538 1.123-4.149 1.123-4.149s1.293.732 2.05 3.441c.22.805.268 1.61.22 2.367-.123 1.903-.953 3.636-.953 3.636s1.44-.293 1.83-2.928c.66.683 1.27 1.683 1.343 2.708.146 1.83-.928 3.49-2.538 4.198 2.806-.66 4.783-3.026 5.49-4.759.879-2.172.635-4.124.488-5.783-.195-2.294.61-4.002.61-4.002s-1.537.439-2.684 2.318Z" fill="#c4c4c4" fill-rule="evenodd" data-name="noun-fire-258305"/><path d="M156.545 560.5a6 8 0 1 1 0 1" fill="#e8e8e8" fill-rule="evenodd" data-name="Ellipse 3116"/></g></svg>