<svg xmlns="http://www.w3.org/2000/svg" width="14.793" height="20.916" viewBox="0 0 14.793 20.916">
  <g id="Yoga" transform="translate(-8.068 -1)">
    <g id="Group_46895" data-name="Group 46895" transform="translate(8.068 1)">
      <path id="Path_92764" data-name="Path 92764" d="M29.28,46.941a1.1,1.1,0,0,1-1.308.392l-.828-.305H27.1l2.18-.828h0A.749.749,0,0,1,29.28,46.941Z" transform="translate(-18.802 -26.492)" fill="#f1811f"/>
      <path id="Path_92765" data-name="Path 92765" d="M12.18,39.742c-.654-.262-3.488-1.352-3.314-1.308a1.091,1.091,0,0,1-.654-1.57,1.485,1.485,0,0,1,1.918-.48c3.4,1.613,4.578,2.18,4.535,2.136h.044C14.622,38.565,12.4,39.611,12.18,39.742Z" transform="translate(-8.068 -20.862)" fill="#f1811f"/>
      <path id="Path_92766" data-name="Path 92766" d="M21.955,10.1A2.355,2.355,0,1,1,19.6,12.455,2.345,2.345,0,0,1,21.955,10.1Z" transform="translate(-14.572 -6.132)" fill="#f1811f"/>
      <path id="Path_92767" data-name="Path 92767" d="M11.189,9.2a3.034,3.034,0,0,1,.523-4.229c1.439-1.134,3.052-1.962,3.052-3.1a.872.872,0,1,1,1.744,0c0,2.18-2.224,3.314-3.706,4.491a1.245,1.245,0,0,0-.218,1.744l1.831,2.442a12.905,12.905,0,0,1,4.84,0l1.831-2.442a1.25,1.25,0,0,0-.218-1.744C19.429,5.186,17.249,4.1,17.249,1.872a.872.872,0,0,1,1.744,0c0,1.134,1.57,1.962,2.965,3.1a3.02,3.02,0,0,1,.48,4.186l-2.006,2.66a12.779,12.779,0,0,0-.262,4.8c-.044,0-3.619,1.744-3.4,1.613L13.456,16.7a15.086,15.086,0,0,0-.262-4.84Z" transform="translate(-9.474 -1)" fill="#f1811f"/>
      <path id="Path_92768" data-name="Path 92768" d="M27.433,38.489c-.785.305,2.921-1.134-8.372,3.227a1.1,1.1,0,0,1-1.308-.392.794.794,0,0,1,.392-1.134c.828-.392-2.921,1.4,8.023-3.793a1.548,1.548,0,0,1,1.918.48A1.083,1.083,0,0,1,27.433,38.489Z" transform="translate(-13.467 -20.874)" fill="#f1811f"/>
    </g>
  </g>
</svg>
