<svg xmlns="http://www.w3.org/2000/svg" width="16.291" height="20.774" viewBox="0 0 16.291 20.774">
  <path id="Sound_therapy" data-name="Sound therapy" d="M19.586,5.21l1.985-1.986A1.3,1.3,0,0,0,20.65,1a1.279,1.279,0,0,0-.92.383L16.243,4.868c-.135,0-.269-.005-.408-.005-4.643,0-8.146,1.383-8.146,3.217V16.1a2.872,2.872,0,0,0,1.622,2.3V18.7c0,1.725,2.866,3.076,6.524,3.076s6.524-1.351,6.524-3.076V18.4a2.872,2.872,0,0,0,1.622-2.3V8.08C23.981,6.826,22.313,5.75,19.586,5.21Zm.62-3.355a.641.641,0,0,1,.892,0,.622.622,0,0,1,.185.443.629.629,0,0,1-.186.449L13.886,9.964a2.2,2.2,0,0,0-.9-.9ZM10.841,9.923a1.548,1.548,0,1,1,0,2.189A1.544,1.544,0,0,1,10.841,9.923Zm4.994,9.308c-4.052,0-7.475-1.431-7.475-3.126V9.4a5.117,5.117,0,0,0,1.482.9,2.216,2.216,0,1,0,4.3.934c.553.044,1.118.072,1.693.072,3.436,0,6.246-.759,7.475-1.9v6.7C23.311,17.8,19.887,19.231,15.836,19.231ZM9.058,5.481a1.058,1.058,0,0,0,1.056-1.056V3.2l1.321.426a.335.335,0,0,0,.438-.319V1.9a.335.335,0,0,0-.232-.319L9.882,1.016a.334.334,0,0,0-.438.319V3.444a1.044,1.044,0,0,0-.386-.076,1.057,1.057,0,0,0,0,2.113Z" transform="translate(-7.69 -1)" fill="#009588"/>
</svg>
