<svg id="Breathing" xmlns="http://www.w3.org/2000/svg" xmlns:xlink="http://www.w3.org/1999/xlink" width="23.732" height="22.043" viewBox="0 0 23.732 22.043">
  <defs>
    <clipPath id="clip-path">
      <rect id="Rectangle_8543" data-name="Rectangle 8543" width="23.732" height="22.043" fill="#01bcd4"/>
    </clipPath>
  </defs>
  <g id="Group_46893" data-name="Group 46893" clip-path="url(#clip-path)">
    <path id="Path_92760" data-name="Path 92760" d="M116.877,12.932c-.211,0-.375.006-.538,0a1.191,1.191,0,0,1-1.068-1.741c.414-.889.829-1.778,1.255-2.661A1.781,1.781,0,0,0,116.7,7.6a6.494,6.494,0,0,1,3.545-6.64,8.169,8.169,0,0,1,4.823-.91,8.679,8.679,0,0,1,4.741,1.867A7.314,7.314,0,0,1,132.4,6.536a7.5,7.5,0,0,1-2.177,6.794c-.051.053-.1.108-.155.157a3.534,3.534,0,0,0-1,3.8c.084.327.2.647.312.967.12.349.05.517-.293.64q-4.305,1.552-8.612,3.1c-.408.147-.636-.019-.637-.46,0-.9,0-1.8,0-2.7,0-.091,0-.181,0-.293-.646-.1-1.277-.2-1.908-.294a1.222,1.222,0,0,1-1.076-1.431,3.3,3.3,0,0,0-.164-1.593,2.462,2.462,0,0,1-.068-.994,12.631,12.631,0,0,1,.261-1.29" transform="translate(-108.795 0.001)" fill="#01bcd4"/>
    <path id="Path_92761" data-name="Path 92761" d="M89.04,273.368a4.609,4.609,0,0,1,1.322-3.388.43.43,0,0,1,.633-.018.387.387,0,0,1-.072.56,3.414,3.414,0,0,0-1.062,2.433,6.675,6.675,0,0,0,.182,1.352c.057.287.016.488-.2.577a.392.392,0,0,1-.519-.31c-.129-.475-.222-.958-.278-1.206" transform="translate(-84.132 -254.958)" fill="#01bcd4"/>
    <path id="Path_92762" data-name="Path 92762" d="M1.7,237.1c-.294-.072-.855-.2-1.407-.352a.367.367,0,0,1-.266-.495.388.388,0,0,1,.548-.2,3.591,3.591,0,0,0,3.871-.68.37.37,0,0,1,.562-.014.383.383,0,0,1-.07.581A4.654,4.654,0,0,1,1.7,237.1" transform="translate(0.001 -222.273)" fill="#01bcd4"/>
    <path id="Path_92763" data-name="Path 92763" d="M56.725,261.941a2.069,2.069,0,0,1-.209.306q-.85.825-1.711,1.64c-.219.207-.419.219-.579.051a.383.383,0,0,1,.063-.58c.561-.543,1.12-1.088,1.7-1.612a.572.572,0,0,1,.44-.105c.109.022.189.184.3.3" transform="translate(-51.136 -247.211)" fill="#01bcd4"/>
  </g>
</svg>
