<svg xmlns="http://www.w3.org/2000/svg" width="52.863" height="43" viewBox="0 0 52.863 43">
  <g id="Upload" transform="translate(-146.465 -21)">
    <path id="Path_93061" data-name="Path 93061" d="M14.93,29.744a.882.882,0,0,0,.882-.882V18.279l2.924,3.2a.879.879,0,0,0,.651.287.889.889,0,0,0,.6-.229.88.88,0,0,0,.055-1.246L15.58,15.4l-.009-.007-.037-.037s0-.009-.009-.013a.788.788,0,0,0-.093-.055c-.02-.013-.04-.029-.06-.04a.7.7,0,0,0-.084-.057.279.279,0,0,0-.04-.013,6.2,6.2,0,0,0-.3-.062c-.007,0-.011,0-.018,0s-.011,0-.018,0a.781.781,0,0,0-.157.029.843.843,0,0,0-.148.033l-.031.011a3.474,3.474,0,0,1-.245.157c-.007,0-.009.013-.013.018a.208.208,0,0,0-.022.022c-.007.007-.015.009-.022.015L9.806,20.312A.883.883,0,0,0,11.112,21.5l2.94-3.224V28.86A.879.879,0,0,0,14.93,29.744Z" transform="translate(157.977 34.256)" fill="#108fe5"/>
    <path id="Path_93062" data-name="Path 93062" d="M5.334,45.249l9.874,0a.882.882,0,0,0,0-1.764l-9.874,0c-2.741,0-3.445-1.469-3.551-2.7,0-.011,0-.022,0-.035V14.7A3.533,3.533,0,0,1,5.31,11.171h19a.838.838,0,0,0,.148-.031.881.881,0,0,0,.126.033h0Q33,11.16,41.406,11.167h6.116c3.242,0,3.59,1.879,3.59,2.686V40.646c0,.037-.009.071-.011.09-.187,1.848-1.286,2.748-3.361,2.748l-10.054,0a.882.882,0,1,0,0,1.764l10.054,0c2.975,0,4.839-1.579,5.1-4.3a.875.875,0,0,0,.037-.249V13.853c0-2.053-1.4-4.45-5.357-4.45H41.406q-8.158,0-16.318.007L22.056,4.317a4.544,4.544,0,0,0-3.97-2.049c-4.364-.02-8.725-.026-13.069,0-3.954,0-5,2.933-5,4.486V40.8a.927.927,0,0,0,.011.137C.114,41.948.756,45.249,5.334,45.249ZM5.023,4.037c4.349-.029,8.7-.02,13.056,0a2.766,2.766,0,0,1,2.494,1.242l2.459,4.135H5.31a5.251,5.251,0,0,0-3.529,1.376V6.763C1.788,6.308,1.976,4.037,5.023,4.037Z" transform="translate(146.45 18.749)" fill="#108fe5"/>
  </g>
</svg>
