<svg xmlns="http://www.w3.org/2000/svg" width="55" height="55" viewBox="0 0 55 55">
  <g id="Group_47959" data-name="Group 47959" transform="translate(-224 -2595)">
    <g id="Group_47958" data-name="Group 47958" transform="translate(79 -100)">
      <rect id="Rectangle_8590" data-name="Rectangle 8590" width="41" height="40" transform="translate(152 2703)" fill="#aeb4b7"/>
      <path id="Subtraction_1" data-name="Subtraction 1" d="M45,55H10A10.011,10.011,0,0,1,0,45V10A10.011,10.011,0,0,1,10,0H45A10.011,10.011,0,0,1,55,10V45A10.011,10.011,0,0,1,45,55ZM27.53,11.156a9.349,9.349,0,0,0-9.338,9.338,9.236,9.236,0,0,0,4.6,8.024,15.711,15.711,0,0,0-11.048,15.52h31.7a16.022,16.022,0,0,0-11.181-15.52,9.235,9.235,0,0,0,4.6-8.024A9.349,9.349,0,0,0,27.53,11.156Z" transform="translate(145 2695)" fill="#e4e6e7"/>
    </g>
  </g>
</svg>
