<?xml version="1.0" encoding="utf-8"?>
<!-- Generator: Adobe Illustrator 24.1.3, SVG Export Plug-In . SVG Version: 6.00 Build 0)  -->
<svg version="1.1" id="Layer_1" xmlns="http://www.w3.org/2000/svg" xmlns:xlink="http://www.w3.org/1999/xlink" x="0px" y="0px"
	 viewBox="0 0 2001.3 2262.9" style="enable-background:new 0 0 2001.3 2262.9;" xml:space="preserve">
<style type="text/css">
	.st0{fill:url(#SVGID_1_);}
	.st1{fill:url(#SVGID_2_);}
	.st2{fill:url(#SVGID_3_);}
	.st3{fill:#EABD8F;}
	.st4{fill:#F6C9A0;}
	.st5{opacity:0.44;fill:#F5C1A0;enable-background:new    ;}
	.st6{fill:#49414F;}
	.st7{opacity:0.36;}
	.st8{fill:none;stroke:#FFFFFF;stroke-width:11.91;stroke-linecap:round;stroke-miterlimit:10;}
	.st9{fill:none;stroke:#FFFFFF;stroke-width:14.68;stroke-miterlimit:10;}
	.st10{fill:#F7CBA0;}
	.st11{fill:#FED9B5;}
	.st12{fill:#F2C494;}
	.st13{clip-path:url(#SVGID_5_);}
	.st14{opacity:0.19;fill:#0E6871;enable-background:new    ;}
	.st15{fill:#F7F8F8;}
	.st16{fill:#EDEDEE;}
	.st17{fill:none;stroke:#D4D4D4;stroke-width:12.92;stroke-linecap:square;stroke-miterlimit:10;}
	.st18{fill:none;stroke:#676767;stroke-width:8.06;stroke-linecap:square;stroke-miterlimit:10;}
	.st19{fill:none;stroke:#D4D4D4;stroke-width:13.29;stroke-linecap:square;stroke-miterlimit:10;}
	.st20{fill:#3CBCA4;}
	.st21{fill:#FFFFFF;}
	.st22{clip-path:url(#SVGID_7_);}
	.st23{opacity:0.8;}
	.st24{fill:url(#SVGID_8_);}
	.st25{fill:none;stroke:#FFFFFF;stroke-width:25.6;stroke-miterlimit:10;}
</style>
<g>
	<g id="Layer_3">
		
			<linearGradient id="SVGID_1_" gradientUnits="userSpaceOnUse" x1="137.3921" y1="1200.5892" x2="1942.708" y2="1200.5892" gradientTransform="matrix(1 0 0 -1 0 2261.8889)">
			<stop  offset="0" style="stop-color:#378ACA"/>
			<stop  offset="0.67" style="stop-color:#3AABB1"/>
			<stop  offset="1" style="stop-color:#3CBCA4"/>
		</linearGradient>
		<path class="st0" d="M138,1411.8c-12.8-226.2,179.3-379.9,369-465.8c20.8-9.7,40.3-22.1,57.9-36.9c33.1-23.8,61.3-53.7,83.1-88.1
			c56.8-92.5,81.4-198,97.7-306.7C787.4,233.1,1068.7,60.6,1339.3,99c36,4.9,68.7,15.5,101.4,31.1c12.3,5.9,24.3,12.5,36,19.6
			c9,5.7,17.2,10.6,25.3,17.2c26,20.2,48.3,44.9,65.8,72.8c16.9,26.8,29.3,55.8,39.2,86.2c21,64.2,28.3,130.4,45.5,198.3
			c11.4,45.8,38.4,82.6,77.7,109.6c116.9,79.3,223.2,181.5,211.8,327.9c-6.5,75.2-43.3,143.1-102.2,192.1
			c-29.4,23.7-63,37.6-97.3,49.9c-58,21.3-117.7,33.5-174.2,55.5c-27,10.9-52.6,24-75.6,41.1c-23.9,17.6-44.1,39.8-59.3,65.3
			c-22.9,38.4-36.8,77.7-52.7,117.5c-86.3,232.5-215.5,512.9-496.7,541.5c-28.6,2.5-56.4,5.7-85,4.1c-24.5-1.6-48.2-3.3-72.8-8.2
			c-14.7-2.5-27.8-4.9-41.7-8.2c-130.8-33.5-242.8-98.9-337.7-193.8c-37.6-38.4-69.5-76.9-99.7-122.6c-17.2-26.2-30.3-49.9-45-76.8
			c-9-17.2-16.4-33.5-23.7-50.7c-4.9-12.3-9.8-23.7-13.9-36c-4.9-15.5-10.6-30.3-14.1-46.5C143,1458.1,138.9,1433.2,138,1411.8z"/>
		
			<linearGradient id="SVGID_2_" gradientUnits="userSpaceOnUse" x1="1495.9039" y1="818.3448" x2="1728.8309" y2="818.3448" gradientTransform="matrix(1 0 0 -1 0 2261.8889)">
			<stop  offset="0" style="stop-color:#3877A2"/>
			<stop  offset="1" style="stop-color:#3D9785"/>
		</linearGradient>
		<path class="st1" d="M1524.2,1515.6c-44.4-44.9-34.8-120.6,16.9-157.9c9.6-6,18-12,27.6-15.6c12-3.6,24-7.2,36.1-8.4
			c13.2,0,26.4-1.2,39.7,2.4c26.4,7.2,50.5,21.6,66.1,45.7c3.6,6,7.2,10.8,9.6,16.8c3.6,10.8,7.2,22.8,8.4,34.9
			c1.1,14.3-1,28.6-6,42.1c-15.6,46.9-60.1,75.7-108.2,78.1c-7.2,0-15.6-1.2-22.8-1.2c-10.8-1.2-20.4-6-31.4-10.2
			C1546.5,1535.8,1534.2,1526.8,1524.2,1515.6z"/>
		
			<linearGradient id="SVGID_3_" gradientUnits="userSpaceOnUse" x1="390.0486" y1="1628.2913" x2="674.7024" y2="1628.2913" gradientTransform="matrix(1 0 0 -1 0 2261.8889)">
			<stop  offset="0" style="stop-color:#3877A2"/>
			<stop  offset="1" style="stop-color:#3D9785"/>
		</linearGradient>
		<path class="st2" d="M391.5,633.1c13.3-83.8,96.6-151.3,182.5-141.3c7.4,0.6,14.7,2.2,21.8,4.7c10.4,4.4,20.7,8.8,30.1,14.9
			c13.8,10.8,25.4,21.6,33.2,37.3c43.5,78.6-9.8,180.7-86.4,214.6c-25.5,11.8-53.5,16.1-82.3,10.6c-7.3-1.5-14.5-3.1-22.2-6
			c-41-16.1-71-52.9-76.9-96.6C389.6,658.7,389.6,645.8,391.5,633.1z"/>
	</g>
	<g id="Layer_2_1_">
		<path class="st3" d="M716.7,1355.3c0,0-102.5-17.3-91.1-84.7c11.9-70.8,91.1-44.7,91.1-44.7V1355.3z"/>
		<path class="st3" d="M746.8,1206.9c0,0-101.7-17-91.1-84.7c11.1-71,91.1-44.7,91.1-44.7V1206.9z"/>
		<path class="st4" d="M2001.3,2262.9l-166.6-223.5c-11.7-15.7-20.3-33.6-25.3-52.6l-80.6-308.2c-30.8-117.9-77.3-231-138.1-336.6
			l-168.3-291.7c-20.7-35.9-52.6-64-90.8-80l-234.5-98.5l218.8,335.1L1210.6,1501H742.1c-36.7,0-66.5,29.8-66.5,66.4l0,0
			c0,36.1,29.3,65.4,65.4,65.4h234.8c34.9,0,67.1,18.8,84.3,49.2l136.7,242.4c65.1,93.2,143.6,176.4,232.8,246.8l81.7,91.6
			L2001.3,2262.9z"/>
		<path class="st5" d="M1670.7,2262.9l-329.8-690.8l308,149.9l-282.4-267l-41.2-441.8L1210.6,1501H741c-36.1,0-65.4,29.3-65.4,65.4
			v1.1c0,36.1,29.3,65.4,65.4,65.4h234.8c34.9,0,67.1,18.8,84.3,49.2l136.7,242.4c65.1,93.2,143.6,176.4,232.8,246.8l81.7,91.6
			L1670.7,2262.9z"/>
		<path class="st6" d="M700.1,305.1h587.5c20.8,0,37.7,16.9,37.7,37.7v1120.1c0,20.8-16.9,37.7-37.7,37.7H700.1
			c-20.8,0-37.7-16.9-37.7-37.7V342.8C662.5,322,679.3,305.1,700.1,305.1z"/>
		<g class="st7">
			<line class="st8" x1="728.6" y1="376.2" x2="854.5" y2="376.2"/>
			<line class="st8" x1="854.9" y1="1423.3" x2="1132.8" y2="1423.3"/>
			<line class="st8" x1="1195.1" y1="376.2" x2="1258" y2="376.2"/>
			<line class="st8" x1="1149.5" y1="376.2" x2="1174.6" y2="376.2"/>
		</g>
		<line class="st9" x1="1323.7" y1="256.6" x2="1323" y2="198.8"/>
		<line class="st9" x1="1357.5" y1="270" x2="1417.6" y2="208.6"/>
		<line class="st9" x1="1373.7" y1="306.9" x2="1431.4" y2="306.9"/>
		<path class="st10" d="M1636.8,2193.1l-151.5-85.4c-133.1-71.7-223.7-202.8-243.7-352.6l0,0c-7.9-59-42.8-110.9-94.4-140.5
			l-178.4-126.8c-37.9-29.7-45.2-84.1-16.5-122.7l0,0c25-33.6,70-45.1,108-27.7l20.1,9.2c99.3,45.4,193.7,100.8,281.8,165.3
			l286.7,210.1L1636.8,2193.1z"/>
		<path class="st11" d="M970,1469.2c-31.9-25-37.5-71-12.5-102.9c20.9-26.7,57.4-35.5,88.2-21.4l35.3,16.1l-83.9,127.4L970,1469.2z"
			/>
		<path class="st12" d="M1015.3,1340.2c10.2,0,20.3,2.2,29.6,6.5l33.2,15.2l-81.5,123.8l-25.3-18c-31-24.3-36.4-69.1-12.1-100.1
			c6.6-8.4,14.9-15.2,24.5-19.9C993.4,1342.7,1004.3,1340.2,1015.3,1340.2 M1015.3,1336.2c-23.8,0-46.2,11.3-60.5,30.4l0,0
			c-24.4,32.8-18.2,79,14,104.2l28.8,20.5l86.3-131.1l-37.4-17.1C1036.7,1338.5,1026.1,1336.2,1015.3,1336.2L1015.3,1336.2z"/>
		<g>
			<defs>
				<rect id="SVGID_4_" x="662.5" y="517.2" width="664.7" height="730.4"/>
			</defs>
			<clipPath id="SVGID_5_">
				<use xlink:href="#SVGID_4_"  style="overflow:visible;"/>
			</clipPath>
			<g class="st13">
				<path class="st14" d="M1278.6,680.9H537.4c-24.2,0-43.8,19.6-43.8,43.8l0,0v334c0,24.2,19.6,43.8,43.8,43.8H1067l46.4,68.2
					l48.6-68.2h116.6c24.2,0,43.8-19.6,43.8-43.8v-334C1322.5,700.6,1302.9,680.9,1278.6,680.9
					C1278.7,680.9,1278.6,680.9,1278.6,680.9z"/>
			</g>
		</g>
		<path class="st15" d="M1225.3,629H484c-24.2,0-43.8,19.6-43.8,43.8l0,0v334c0,24.2,19.6,43.8,43.8,43.8h529.5l46.4,68.2l48.6-68.2
			h116.6c24.2,0,43.8-19.6,43.8-43.8c0,0,0,0,0,0v-334C1269,648.6,1249.4,629,1225.3,629z"/>
		<rect x="837.8" y="823.2" class="st16" width="337.1" height="112.9"/>
		<line class="st17" x1="844.5" y1="943.1" x2="1168.2" y2="943.1"/>
		<line class="st18" x1="900.6" y1="864.8" x2="900.6" y2="902.3"/>
		<line class="st18" x1="916.6" y1="873.8" x2="884.6" y2="893.3"/>
		<line class="st18" x1="884.6" y1="873.8" x2="916.6" y2="893.3"/>
		<line class="st18" x1="970.2" y1="864.8" x2="970.2" y2="902.3"/>
		<line class="st18" x1="986.2" y1="873.8" x2="954.2" y2="893.3"/>
		<line class="st18" x1="954.2" y1="873.8" x2="986.2" y2="893.3"/>
		<line class="st18" x1="1039.8" y1="864.8" x2="1039.8" y2="902.3"/>
		<line class="st18" x1="1055.8" y1="873.8" x2="1023.8" y2="893.3"/>
		<line class="st18" x1="1023.8" y1="873.8" x2="1055.8" y2="893.3"/>
		<line class="st18" x1="1109.4" y1="864.8" x2="1109.4" y2="902.3"/>
		<line class="st18" x1="1125.5" y1="873.8" x2="1093.4" y2="893.3"/>
		<line class="st18" x1="1093.4" y1="873.8" x2="1125.5" y2="893.3"/>
		<line class="st19" x1="847.6" y1="771.8" x2="1070.9" y2="771.8"/>
		<line class="st19" x1="847.6" y1="737.3" x2="992.1" y2="737.3"/>
		<line class="st19" x1="959.3" y1="737.3" x2="1136.6" y2="737.3"/>
		<path class="st20" d="M649.8,967.4c-3.3,0-6.4-1.2-8.7-3.5l-85.5-81.4c-6.2-5.9-10.1-13.8-11.1-22.3L531,740.3
			c-1-9.1,5.6-17.4,14.7-18.4c0.1,0,0.2,0,0.3,0l43.9-4.3c19.8-2,40-3,60-3s40.1,1,60,3l43.9,4.3c9.2,0.9,15.9,9.1,14.9,18.2
			c0,0.1,0,0.2,0,0.2l-13.6,119.8c-1,8.5-4.9,16.4-11.1,22.3l-85.5,81.4C656.2,966.1,653.1,967.4,649.8,967.4z"/>
		<path class="st21" d="M649.8,722c19.8,0,39.5,1,59.3,2.9l43.9,4.4c5,0.5,8.7,5,8.2,10c0,0,0,0.1,0,0.1l-13.5,119.8
			c-0.8,6.8-3.9,13-8.8,17.7l-85.5,81.4c-2,1.9-5.1,1.9-7.1,0L560.8,877c-4.9-4.7-8-11-8.8-17.7l-13.5-119.8
			c-0.6-5,3.1-9.6,8.1-10.1c0,0,0.1,0,0.1,0l43.9-4.3C610.3,723,630,722.1,649.8,722 M649.8,707.1c-20.2,0-40.6,1-60.7,3l-43.9,4.3
			c-13.3,1.3-23,13.2-21.7,26.5c0,0.1,0,0.2,0,0.3L537,861c1.2,10.3,5.9,19.8,13.4,26.9l85.5,81.4c7.8,7.4,20,7.4,27.8,0l85.5-81.4
			c7.5-7.1,12.2-16.7,13.4-26.9l13.5-119.8c1.5-13.3-8-25.2-21.3-26.7c-0.1,0-0.2,0-0.3,0l-43.9-4.4C690.5,708,670,707,649.8,707.1
			L649.8,707.1z"/>
		<g>
			<defs>
				<path id="SVGID_6_" d="M646.3,958.4l-85.4-81.3c-5-4.8-8.2-11.1-8.9-18l-13.5-119.6c-0.6-5,3.1-9.6,8.1-10.1c0,0,0.1,0,0.1,0
					l43.9-4.3c39.4-3.9,79.1-3.9,118.5,0l43.9,4.3c5,0.5,8.7,5,8.2,10c0,0,0,0.1,0,0.1l-13.5,119.6c-0.8,6.9-3.9,13.2-8.9,18
					l-85.4,81.3C651.4,960.3,648.3,960.3,646.3,958.4z"/>
			</defs>
			<clipPath id="SVGID_7_">
				<use xlink:href="#SVGID_6_"  style="overflow:visible;"/>
			</clipPath>
			<g class="st22">
				<g class="st23">
					<g>
						
							<linearGradient id="SVGID_8_" gradientUnits="userSpaceOnUse" x1="532.8212" y1="1318.8577" x2="843.0712" y2="1652.6377" gradientTransform="matrix(1 0 0 -1 1.005013e-02 2261.9099)">
							<stop  offset="0" style="stop-color:#FFFFFF"/>
							<stop  offset="1" style="stop-color:#FFFFFF"/>
						</linearGradient>
						<polygon class="st24" points="731.5,663.6 799.3,728.5 595.8,941 528,876.1 						"/>
					</g>
				</g>
			</g>
		</g>
		<polyline class="st25" points="612.6,811.7 647.4,846.4 778,708.9 		"/>
	</g>
</g>
</svg>
