<svg xmlns="http://www.w3.org/2000/svg" width="31.641" height="22.288" viewBox="5.99 971.362 31.641 22.288"><path d="M10.102 971.362c-2.264 0-4.112 1.873-4.112 4.156v13.975c0 2.283 1.848 4.156 4.112 4.156H23.93c2.265 0 4.123-1.873 4.123-4.156v-1.876l6.38 2.573c.652.262 1.228.352 1.753.224.526-.128.926-.517 1.124-.921.396-.808.314-1.678.314-2.292v-9.38c0-.623.07-1.487-.337-2.291-.203-.403-.609-.799-1.135-.921a1.905 1.905 0 0 0-.393-.045c-.411-.012-.857.095-1.348.292l-6.358 2.56v-1.898c0-2.283-1.858-4.156-4.123-4.156H10.102Zm25.478 4.64c.05-.006.097 0 .134 0 .191.014.242.09.292.168.132.26.18 1.001.18 1.651v9.38c0 .646-.037 1.384-.168 1.652-.21.414-.778.105-1.045 0l-6.92-2.797v-7.1l6.898-2.775c.276-.11.48-.164.629-.18Z" fill="#e1432d" fill-rule="evenodd" data-name="Path 93046"/></svg>