<svg xmlns="http://www.w3.org/2000/svg" width="20" height="14" viewBox="21 199 20 14"><g data-name="Video Recorder"><path d="M40 212a1.01 1.01 0 0 1-.316-.051l-6-2a1.001 1.001 0 0 1 .632-1.9L39 209.613v-7.226l-4.684 1.562a1.001 1.001 0 0 1-.632-1.9l6-2A1 1 0 0 1 41 201v10a1 1 0 0 1-1 1Z" fill="#108fe5" fill-rule="evenodd" data-name="Path 94659"/><path d="M32 213h-8a3 3 0 0 1-3-3v-8a3 3 0 0 1 3-3h8a3 3 0 0 1 3 3v8a3 3 0 0 1-3 3Zm-8-12a1 1 0 0 0-1 1v8a1 1 0 0 0 1 1h8a1 1 0 0 0 1-1v-8a1 1 0 0 0-1-1h-8Z" fill="#108fe5" fill-rule="evenodd" data-name="Path 94658"/></g></svg>