<svg xmlns="http://www.w3.org/2000/svg" width="20" height="15.088" viewBox="81.35 183 20 15.088"><g data-name="noun-group-1252979"><path d="M97.946 190.919a5.38 5.38 0 0 0 .884-2.984c0-2.721-1.931-4.935-4.305-4.935-1.208 0-2.3.576-3.083 1.498-.802-.716-1.807-1.147-2.9-1.147-2.611 0-4.736 2.44-4.736 5.439 0 1.32.413 2.533 1.098 3.476-2.126 1.017-3.554 2.85-3.554 4.944 0 .112.009.222.019.332l.047.546H96.02l.047-.543c.01-.11.02-.222.02-.335 0-.299-.038-.59-.094-.877h5.293l.046-.536c.01-.1.018-.202.018-.305 0-1.961-1.375-3.672-3.404-4.573Zm-3.42-6.867c1.793 0 3.252 1.742 3.252 3.883 0 2.14-1.459 3.882-3.253 3.882-.642 0-1.24-.227-1.745-.612.317-.729.5-1.547.5-2.416 0-1.336-.424-2.559-1.123-3.507.594-.755 1.434-1.23 2.368-1.23Zm-2.206 8.113-.053-.026.005-.008.048.034Zm-7.462-3.376c0-2.418 1.653-4.385 3.685-4.385 2.031 0 3.684 1.967 3.684 4.385 0 2.419-1.653 4.386-3.684 4.386-2.032 0-3.685-1.967-3.685-4.386Zm-2.451 8.246c.083-1.7 1.369-3.171 3.235-3.956.802.717 1.807 1.149 2.9 1.149 1.144 0 2.194-.468 3.014-1.245 1.994.756 3.387 2.28 3.474 4.052H82.407Zm13.25-1.754c-.479-1.058-1.335-1.974-2.445-2.648.414.152.855.236 1.313.236 1.03 0 1.975-.417 2.717-1.11 1.733.666 2.945 1.986 3.048 3.522h-4.634Z" fill="#999" fill-rule="evenodd" data-name="Path 93050"/></g></svg>