<svg xmlns="http://www.w3.org/2000/svg" width="24" height="24" viewBox="0 0 24 24">
  <g id="Group_47855" data-name="Group 47855" transform="translate(-22 -831)">
    <g id="Group_47854" data-name="Group 47854" transform="translate(0 102)">
      <path id="Path_80249" data-name="Path 80249" d="M4,0H20a4,4,0,0,1,4,4V20a4,4,0,0,1-4,4H4a4,4,0,0,1-4-4V4A4,4,0,0,1,4,0Z" transform="translate(22 729)" fill="#0085f8"/>
    </g>
    <path id="pulse" d="M11.393,1H3A3,3,0,0,0,0,4V8.8a3,3,0,0,0,3,3H6.6v1.2H4.2a.6.6,0,1,0,0,1.2h6a.6.6,0,1,0,0-1.2H7.8v-1.2h3.6a3,3,0,0,0,3-3V4a3,3,0,0,0-3-3Zm0,6H9.615L8.6,8.528a.6.6,0,0,1-.5.267H8.058a.6.6,0,0,1-.5-.33L6.222,5.79,5.6,6.73A.6.6,0,0,1,5.1,7H3A.6.6,0,0,1,3,5.8H4.776L5.8,4.265A.592.592,0,0,1,6.333,4a.6.6,0,0,1,.5.33L8.169,7l.626-.94a.6.6,0,0,1,.5-.266h2.1a.6.6,0,0,1,0,1.2Z" transform="translate(27 835)" fill="#fff"/>
  </g>
</svg>
