<svg xmlns="http://www.w3.org/2000/svg" width="335.881" height="629.092" viewBox="0 0 335.881 629.092">
  <g id="Watermark" opacity="0.05">
    <path id="Path_1" data-name="Path 1" d="M81.34,231.782,232.35,454.265c19.526-51.692,6.932-125.961,6.932-125.961-7.348-72.027-53.1-154.823-62.045-170.444A623.43,623.43,0,0,1,124.9,202.25,442.841,442.841,0,0,1,81.34,231.782Z" transform="translate(86.632 174.827)" fill="#19ceab"/>
    <path id="Path_2" data-name="Path 2" d="M86.252,271.914c20.312-17.608,42.981-30.364,65.488-42.01,4.136-2.611,8.111-5.292,11.808-8.134-11.808-9.012-2.981-1.687-14-11.669a367.409,367.409,0,0,1-56.568-64.032C75.23,120.3,71.348,85.711,92.4,60.015c5.014-6.124,12.247-12.363,19.318-15.9A52.9,52.9,0,0,1,135.8,38.8c8.157.416,15.967,3.05,23.293,6.563,2.773,1.317,28.307,17.169,28.261,17.215v.67l6.817-7.487c2.657-2.449,6.031-5.338,9.89-8.25,8.434-6.332,19.757-12.756,31.7-14.928,17.007-2.357,36.811,4.067,54.488,33.252,0,0-1.456-11.854-10.861-25.072h.023a54.458,54.458,0,0,0-12.548-13.772,36.627,36.627,0,0,0-3.582-2.473c-.023,0-.023-.023-.046-.023a25.5,25.5,0,0,0-3.466-1.849c-18.463-8.781-42.4-1.779-57.654,10.722-1.456,1.2-15.968,13.356-14.789,15.9-4.044-8.85-16.661-15.505-24.309-20.612C151.833,21.194,140.9,17.566,127.731,15.07a56.088,56.088,0,0,0-24.4.324c-35.286,9.035-62.923,47.672-75.285,79.7a146.549,146.549,0,0,0-8.873,71.126c3.466,27.29,13.426,51.831,23.709,77,1.294,3.166,21.976,48.989,24.24,46.77,0,0,.555-.555,1.525-1.456Q76.963,279.967,86.252,271.914Z" transform="translate(3.661 -13.889)" fill="#19ceab"/>
    <path id="Path_3" data-name="Path 3" d="M316.031,53.554C314,50.481,309.284,46.46,307.99,43.04c11.993,31.843-19.364,74.8-19.364,74.8-11.508,14.165-25,26.32-39.145,37.134-45.384,34.662-100.311,49.243-143.8,86.955C52.417,288.1,27.969,343.211,14.543,415.285,4.352,470,6.848,536.047,26.189,587.97c-2.912-7.834,3.7-29.971,5.038-38.59A304.5,304.5,0,0,1,38.3,515.226c8.2-29.509,23.362-59.295,42.334-82.287,23.339-28.33,56.845-40.577,86.678-57.747a420.537,420.537,0,0,0,46.216-31.057c50.167-38.567,104.193-87.51,124.667-153.205,11.069-35.586,6.886-73.876-6.7-107.336A170.67,170.67,0,0,0,316.031,53.554Z" transform="translate(-8.65 24.323)" fill="#108fe5"/>
  </g>
</svg>
