<svg xmlns="http://www.w3.org/2000/svg" width="60" height="60" viewBox="0 0 60 60">
  <g id="Weakness" transform="translate(-30 -595)">
    <circle id="Ellipse_3126" data-name="Ellipse 3126" cx="30" cy="30" r="30" transform="translate(30 595)" fill="#f5f6fa"/>
    <g id="noun-weakness-3381297" transform="translate(-255.495 341.35)">
      <path id="Path_92977" data-name="Path 92977" d="M313.939,461.85h-6.723a3.7,3.7,0,0,0-3.714,3.97l.576,11.462a3.413,3.413,0,0,0,2.241,3.01l.512,6.084a1.111,1.111,0,0,0,1.089,1.025h5.251a1.067,1.067,0,0,0,1.089-1.025l.512-6.084a3.413,3.413,0,0,0,2.241-3.01l.64-11.462a3.776,3.776,0,0,0-3.714-3.97Z" transform="translate(0 -186.506)" fill="#4fb4f8"/>
      <path id="Path_92978" data-name="Path 92978" d="M358.761,269.2a4.546,4.546,0,1,1-4.546-4.547,4.546,4.546,0,0,1,4.546,4.547" transform="translate(-43.669)" fill="#4fb4f8"/>
      <path id="Path_92979" data-name="Path 92979" d="M14.023,1.985H13.9V1.153A1.148,1.148,0,0,0,12.743,0H1.153A1.148,1.148,0,0,0,0,1.153V6.916A1.148,1.148,0,0,0,1.153,8.068H12.807A1.148,1.148,0,0,0,13.96,6.916v-.9h.128a1.558,1.558,0,0,0,1.537-1.537v-.9a1.586,1.586,0,0,0-1.6-1.6ZM12.807,7.108H1.152A.275.275,0,0,1,.9,6.852V1.089A.275.275,0,0,1,1.152.833H12.807a.275.275,0,0,1,.256.256V6.852a.235.235,0,0,1-.256.256Z" transform="translate(319.896 291.68) rotate(-90)" fill="#4fb4f8"/>
      <path id="Path_92980" data-name="Path 92980" d="M0,0H1.857V4.8H0Z" transform="translate(321.497 289.951) rotate(-90)" fill="#4fb4f8"/>
    </g>
  </g>
</svg>
