<svg xmlns="http://www.w3.org/2000/svg" width="15.487" height="24.05" viewBox="139 2061.95 15.487 24.05"><g data-name="noun-weakness-3381297"><path d="M150.204 2077.062v-1.23h3.18v1.23h-3.18z" fill="#333" fill-rule="evenodd" data-name="Rectangle 8296"/><path d="M150.458 2068.921v.085h-.55a.76.76 0 0 0-.764.763v7.675c0 .424.34.763.763.763h3.816a.76.76 0 0 0 .764-.763v-7.717a.76.76 0 0 0-.764-.763h-.593v-.085c0-.552-.467-1.018-1.018-1.018h-.594a1.05 1.05 0 0 0-1.06 1.06Zm3.393.806v7.717c0 .085-.085.17-.17.17h-3.816a.182.182 0 0 1-.17-.17v-7.717c0-.085.085-.17.17-.17h3.816c.127 0 .17.085.17.17Z" fill="#333" fill-rule="evenodd" data-name="Path 92698"/><g data-name="Group 46698"><path d="M140.658 2064.91a3.01 3.01 0 1 1 0 .1z" fill="#333" fill-rule="evenodd" data-name="Ellipse 3106"/><path d="M145.916 2069.081h-4.452c-1.442 0-2.544 1.187-2.46 2.63l.382 7.59c.043.932.679 1.695 1.484 1.992l.34 4.028c.042.382.339.679.72.679h3.477c.382 0 .721-.297.721-.679l.34-4.028c.805-.297 1.441-1.06 1.484-1.993l.424-7.59c.084-1.4-1.06-2.629-2.46-2.629Z" fill="#333" fill-rule="evenodd" data-name="Path 92697"/></g></g></svg>