<svg xmlns="http://www.w3.org/2000/svg" width="23.983" height="24.346" viewBox="0 0 23.983 24.346">
  <g id="Wellness" transform="translate(-2.996 -2.562)">
    <g id="Group_47803" data-name="Group 47803" transform="translate(2.996 2.562)">
      <path id="Path_80171" data-name="Path 80171" d="M26.492,9.105h0a10.743,10.743,0,0,0-2.434-.256h-.231a9.427,9.427,0,0,0-1.486.128,9.7,9.7,0,0,0,.128-1.486,12.466,12.466,0,0,0-.256-2.639L22.188,4.8a.75.75,0,0,0-.333-.41.773.773,0,0,0-.538-.051,11.181,11.181,0,0,0-2.408,1.1,8.291,8.291,0,0,0-1.2.871,9.639,9.639,0,0,0-.641-1.384,11.219,11.219,0,0,0-1.537-2.152L15.5,2.751a.72.72,0,0,0-1,.026,11.219,11.219,0,0,0-1.537,2.152,13.131,13.131,0,0,0-.641,1.358,7.252,7.252,0,0,0-1.23-.871,11.181,11.181,0,0,0-2.408-1.1H8.634a.694.694,0,0,0-.846.538,12.3,12.3,0,0,0-.256,2.639,9.1,9.1,0,0,0,.128,1.46,13.376,13.376,0,0,0-1.486-.128,12.466,12.466,0,0,0-2.639.256H3.484a.75.75,0,0,0-.41.333.717.717,0,0,0-.051.512v.026a11.771,11.771,0,0,0,1.1,2.408,9.942,9.942,0,0,0,1.64,2.075A7.29,7.29,0,0,0,7.993,15.9a8.665,8.665,0,0,0,.871.282l-.1-.1a1.964,1.964,0,0,1-.487-1.1,5.88,5.88,0,0,1-1.717-1.307,8.237,8.237,0,0,1-1.307-1.9,12.083,12.083,0,0,1-.615-1.435,10.893,10.893,0,0,1,1.537-.179,9.993,9.993,0,0,1,1.768.077,6.986,6.986,0,0,0,1.179,2.255,4.454,4.454,0,0,0,.333.384,1.726,1.726,0,0,1,1.076-.179,5.776,5.776,0,0,1-.615-.769,6.074,6.074,0,0,1-.9-2.075,9.366,9.366,0,0,1-.179-2.306,10.081,10.081,0,0,1,.179-1.537,14.213,14.213,0,0,1,1.435.615,8.656,8.656,0,0,1,1.486.948,6.59,6.59,0,0,0-.1,2.537,7.588,7.588,0,0,0,.487,1.768,3.265,3.265,0,0,1,.692-.641,7.2,7.2,0,0,1-.231-1.255,5.812,5.812,0,0,1,.282-2.255,8.074,8.074,0,0,1,1-2.075,8.738,8.738,0,0,1,.948-1.23,14.3,14.3,0,0,1,.948,1.23,8.075,8.075,0,0,1,1,2.075,6.343,6.343,0,0,1,.282,2.255,5.662,5.662,0,0,1-.231,1.255,4.105,4.105,0,0,1,.692.641,6.681,6.681,0,0,0,.487-1.794,7.144,7.144,0,0,0-.128-2.537,9.249,9.249,0,0,1,1.486-.948,14.213,14.213,0,0,1,1.435-.615,10.473,10.473,0,0,1,.179,1.537,8.351,8.351,0,0,1-.179,2.306,5.864,5.864,0,0,1-.9,2.075,8.335,8.335,0,0,1-.589.743,1.849,1.849,0,0,1,1.051.2l.307-.384a6.583,6.583,0,0,0,1.153-2.229,9.6,9.6,0,0,1,1.742-.077,10.473,10.473,0,0,1,1.537.179,10.506,10.506,0,0,1-.615,1.435,8.237,8.237,0,0,1-1.307,1.9,5.98,5.98,0,0,1-1.742,1.307,2.17,2.17,0,0,1-.487,1.076l-.154.154a4.87,4.87,0,0,0,.922-.307,6.849,6.849,0,0,0,2.229-1.46,9.942,9.942,0,0,0,1.64-2.075,11.181,11.181,0,0,0,1.1-2.408L26.9,9.9A.535.535,0,0,0,26.492,9.105Z" transform="translate(-2.996 -2.562)" fill="#dc572a"/>
    </g>
    <g id="Group_47804" data-name="Group 47804" transform="translate(9.512 13.799)">
      <path id="Path_80172" data-name="Path 80172" d="M39.054,46.543a.921.921,0,0,0-1.179.231l-2.1,2.434a1.227,1.227,0,0,1-.9.41H33.033a1.186,1.186,0,0,1-.9-.41l-2.1-2.434a.947.947,0,0,0-1.179-.231.9.9,0,0,0-.2,1.358l2.537,2.972a1.078,1.078,0,0,1,.256.871c-.231,1.563-.948,6.354-1,6.815a.8.8,0,0,0,.743.922c.564.1.871-.282,1.051-.871l.9-3.177a.854.854,0,0,1,1.64,0c.282.974.794,2.793.9,3.152.154.487.307.846.743.922.564.1,1.153-.179,1.051-.871-.077-.564-.769-5.329-1-6.867a1.078,1.078,0,0,1,.256-.871l2.537-2.972A.941.941,0,0,0,39.054,46.543Z" transform="translate(-28.428 -46.419)" fill="#dc572a"/>
    </g>
    <g id="Group_47805" data-name="Group 47805" transform="translate(12.785 11.744)">
      <path id="Path_80173" data-name="Path 80173" d="M43.455,42.91A2.255,2.255,0,1,0,41.2,40.655,2.242,2.242,0,0,0,43.455,42.91Z" transform="translate(-41.2 -38.4)" fill="#dc572a"/>
    </g>
  </g>
</svg>
