<svg xmlns="http://www.w3.org/2000/svg" width="26.598" height="23.68" viewBox="0 0 26.598 23.68">
  <g id="Wellness" transform="translate(1076.002 86.696)">
    <g id="Group_47978" data-name="Group 47978" transform="translate(-1076.002 -86.696)">
      <path id="Path_100028" data-name="Path 100028" d="M62.663,21.264A.371.371,0,0,0,62.3,20.9a11.105,11.105,0,0,0-4.9,1.148,5.934,5.934,0,0,1,.112,1.232c0,2.772-1.764,5.152-2.912,6.412,1.54-.084,4.172-.476,5.88-2.156C62.356,25.688,62.635,22.692,62.663,21.264Z" transform="translate(-40.013 -17.211)" fill="#ff914d"/>
      <path id="Path_100029" data-name="Path 100029" d="M42.116,7.83a.355.355,0,0,0-.5,0C40.6,8.866,38.7,11.19,38.7,13.822s1.9,4.956,2.912,5.992a.355.355,0,0,0,.5,0c1.008-1.036,2.912-3.36,2.912-5.992C45.028,11.162,43.124,8.866,42.116,7.83Z" transform="translate(-28.565 -7.725)" fill="#ff914d"/>
      <path id="Path_100030" data-name="Path 100030" d="M21.864,22.048a11.105,11.105,0,0,0-4.9-1.148.353.353,0,0,0-.364.364c.028,1.428.308,4.424,2.184,6.3,1.708,1.708,4.34,2.072,5.88,2.156-1.148-1.26-2.912-3.64-2.912-6.412A6.39,6.39,0,0,1,21.864,22.048Z" transform="translate(-12.652 -17.211)" fill="#ff914d"/>
      <path id="Path_100031" data-name="Path 100031" d="M10.34,40.293A3.973,3.973,0,0,1,9,39.089L7.624,36.933a.774.774,0,0,0-.7-.364.736.736,0,0,0-.616.364,1.887,1.887,0,0,0,.056,1.988l.7,1.2A19.323,19.323,0,0,0,8.38,41.8a.555.555,0,0,1-.056.728.541.541,0,0,1-.784,0,9.42,9.42,0,0,1-1.456-1.848l-.672-1.2a3.022,3.022,0,0,1-.056-3.108.875.875,0,0,1,.252-.308c-.2-.728-.84-3.08-1.232-4.032a.809.809,0,0,0-.616-.5,1.013,1.013,0,0,0-.952.28,1.1,1.1,0,0,0-.308.784l.476,10.023a2.312,2.312,0,0,0,1.232,1.9l2.828,1.54a1.663,1.663,0,0,1,.84,1.148l.14.84a.569.569,0,0,0,.56.476H12.5a.478.478,0,0,0,.476-.56l-.84-5.04A3.664,3.664,0,0,0,10.34,40.293Z" transform="translate(-2.5 -24.845)" fill="#ff914d"/>
      <path id="Path_100032" data-name="Path 100032" d="M70.169,31.737a1.088,1.088,0,0,0-.952-.28.873.873,0,0,0-.616.5c-.392.952-1.036,3.332-1.232,4.032a2.976,2.976,0,0,1,.252.308,3.022,3.022,0,0,1-.056,3.108l-.7,1.176a7.758,7.758,0,0,1-1.428,1.848.541.541,0,0,1-.784,0A.59.59,0,0,1,64.6,41.7a15.1,15.1,0,0,0,1.316-1.68l.7-1.2a1.888,1.888,0,0,0,.056-1.988.774.774,0,0,0-.616-.364.876.876,0,0,0-.7.364L64.038,38.9a3.859,3.859,0,0,1-1.344,1.26,3.711,3.711,0,0,0-1.876,2.66l-.84,5.04a.467.467,0,0,0,.476.56h3.92a.569.569,0,0,0,.56-.476l.14-.84a1.607,1.607,0,0,1,.84-1.148l2.856-1.484A2.364,2.364,0,0,0,70,42.517l.476-10.023A1.082,1.082,0,0,0,70.169,31.737Z" transform="translate(-43.879 -24.801)" fill="#ff914d"/>
    </g>
  </g>
</svg>
