<svg xmlns="http://www.w3.org/2000/svg" width="25.897" height="20.273" viewBox="-0.5 -0.5 25.897 20.273"><g data-name="Path 92743"><path d="M25.647 8.67c-.065.483-.115.969-.197 1.449a11.285 11.285 0 0 1-2.912 5.89c-1.82 1.962-4.043 3.229-6.666 3.752-.788.157-1.602.218-2.407.245-.891.03-1.79.025-2.676-.057-2.748-.256-5.145-1.341-7.184-3.197-1.902-1.732-3.12-3.862-3.62-6.393a12.672 12.672 0 0 1-.214-3.168c.026-.471.206-.645.677-.667 2.484-.118 4.82.383 6.96 1.687.068.042.142.077.236.128.047-.378.08-.728.135-1.075.427-2.658 1.708-4.847 3.675-6.655.26-.24.537-.46.814-.682.291-.232.534-.236.824-.011 2.217 1.721 3.736 3.902 4.377 6.659.067.286.113.578.156.87.042.29.067.584.103.909.08-.043.153-.077.22-.118 2.12-1.3 4.433-1.817 6.903-1.724.401.016.678.141.796.54v1.619ZM.876 7.646c-.03 3.261 1.054 6.04 3.46 8.247 2.197 2.014 4.81 2.987 7.79 3.006.09-6.03-4.72-11.474-11.25-11.253m12.402 11.237c6.453.017 11.59-5.206 11.209-11.23-6.496-.274-11.361 5.315-11.209 11.23m-.562-3.92.195-.514c.726-1.946 1.855-3.62 3.41-4.996.238-.21.315-.418.307-.715-.063-2.254-.839-4.241-2.234-5.996a10.37 10.37 0 0 0-1.71-1.708 11.043 11.043 0 0 0-1.965 2.05C9.454 4.81 8.764 6.735 8.752 8.888c-.001.163.018.299.162.421a11.873 11.873 0 0 1 2.937 3.725c.31.613.565 1.255.865 1.928" fill="#747474" fill-rule="evenodd"/><path d="M25.647 8.67c-.065.483-.115.969-.197 1.449a11.285 11.285 0 0 1-2.912 5.89c-1.82 1.962-4.043 3.229-6.666 3.752-.788.157-1.602.218-2.407.245-.891.03-1.79.025-2.676-.057-2.748-.256-5.145-1.341-7.184-3.197-1.902-1.732-3.12-3.862-3.62-6.393a12.672 12.672 0 0 1-.214-3.168c.026-.471.206-.645.677-.667 2.484-.118 4.82.383 6.96 1.687.068.042.142.077.236.128.047-.378.08-.728.135-1.075.427-2.658 1.708-4.847 3.675-6.655.26-.24.537-.46.814-.682.291-.232.534-.236.824-.011 2.217 1.721 3.736 3.902 4.377 6.659.067.286.113.578.156.87.042.29.067.584.103.909.08-.043.153-.077.22-.118 2.12-1.3 4.433-1.817 6.903-1.724.401.016.678.141.796.54v1.619ZM.876 7.646c-.03 3.261 1.054 6.04 3.46 8.247 2.197 2.014 4.81 2.987 7.79 3.006.09-6.03-4.72-11.474-11.25-11.253m12.402 11.237c6.453.017 11.59-5.206 11.209-11.23-6.496-.274-11.361 5.315-11.209 11.23m-.562-3.92.195-.514c.726-1.946 1.855-3.62 3.41-4.996.238-.21.315-.418.307-.715-.063-2.254-.839-4.241-2.234-5.996a10.37 10.37 0 0 0-1.71-1.708 11.043 11.043 0 0 0-1.965 2.05C9.454 4.81 8.764 6.735 8.752 8.888c-.001.163.018.299.162.421a11.873 11.873 0 0 1 2.937 3.725c.31.613.565 1.255.865 1.928" stroke-linejoin="round" stroke-linecap="round" stroke-width=".5" stroke="#747474" fill="transparent"/></g></svg>