<svg xmlns="http://www.w3.org/2000/svg" width="24" height="24" viewBox="0 0 24 24">
  <g id="Wellness" transform="translate(1440 -570)">
    <rect id="Rectangle_44" data-name="Rectangle 44" width="24" height="24" rx="12" transform="translate(-1440 570)" fill="#dc572a"/>
    <g id="noun-wellness-4236397" transform="translate(-1440.348 569.944)">
      <g id="Group_47803" data-name="Group 47803" transform="translate(2.996 2.562)">
        <path id="Path_80171" data-name="Path 80171" d="M21.322,7.665h0a8.379,8.379,0,0,0-1.9-.2h-.18a7.353,7.353,0,0,0-1.159.1,7.564,7.564,0,0,0,.1-1.159,9.723,9.723,0,0,0-.2-2.058l-.02-.04a.585.585,0,0,0-.26-.32.6.6,0,0,0-.42-.04,8.721,8.721,0,0,0-1.878.859,6.467,6.467,0,0,0-.939.679,7.517,7.517,0,0,0-.5-1.079,8.75,8.75,0,0,0-1.2-1.679l-.02-.02a.562.562,0,0,0-.779.02,8.75,8.75,0,0,0-1.2,1.679,10.241,10.241,0,0,0-.5,1.059,5.656,5.656,0,0,0-.959-.679,8.721,8.721,0,0,0-1.878-.859h-.04a.541.541,0,0,0-.659.42,9.593,9.593,0,0,0-.2,2.058,7.1,7.1,0,0,0,.1,1.139,10.433,10.433,0,0,0-1.159-.1,9.722,9.722,0,0,0-2.058.2h-.04a.585.585,0,0,0-.32.26.559.559,0,0,0-.04.4v.02A9.181,9.181,0,0,0,3.876,10.2a7.754,7.754,0,0,0,1.279,1.619,5.686,5.686,0,0,0,1.739,1.139,6.759,6.759,0,0,0,.679.22l-.08-.08a1.532,1.532,0,0,1-.38-.859,4.586,4.586,0,0,1-1.339-1.019A6.424,6.424,0,0,1,4.755,9.744a9.424,9.424,0,0,1-.48-1.119,8.5,8.5,0,0,1,1.2-.14,7.794,7.794,0,0,1,1.379.06A5.449,5.449,0,0,0,7.773,10.3a3.474,3.474,0,0,0,.26.3,1.346,1.346,0,0,1,.839-.14,4.5,4.5,0,0,1-.48-.6,4.737,4.737,0,0,1-.7-1.619,7.3,7.3,0,0,1-.14-1.8,7.863,7.863,0,0,1,.14-1.2,11.085,11.085,0,0,1,1.119.48,6.751,6.751,0,0,1,1.159.739,5.14,5.14,0,0,0-.08,1.978,5.918,5.918,0,0,0,.38,1.379,2.546,2.546,0,0,1,.54-.5,5.614,5.614,0,0,1-.18-.979,4.533,4.533,0,0,1,.22-1.759,6.3,6.3,0,0,1,.779-1.619,6.815,6.815,0,0,1,.739-.959,11.157,11.157,0,0,1,.739.959,6.3,6.3,0,0,1,.779,1.619,4.947,4.947,0,0,1,.22,1.759,4.416,4.416,0,0,1-.18.979,3.2,3.2,0,0,1,.54.5,5.211,5.211,0,0,0,.38-1.4,5.571,5.571,0,0,0-.1-1.978,7.214,7.214,0,0,1,1.159-.739,11.085,11.085,0,0,1,1.119-.48,8.168,8.168,0,0,1,.14,1.2,6.513,6.513,0,0,1-.14,1.8,4.574,4.574,0,0,1-.7,1.619,6.5,6.5,0,0,1-.46.58,1.442,1.442,0,0,1,.819.16l.24-.3a5.134,5.134,0,0,0,.9-1.739,7.484,7.484,0,0,1,1.359-.06,8.168,8.168,0,0,1,1.2.14,8.194,8.194,0,0,1-.48,1.119,6.424,6.424,0,0,1-1.019,1.479,4.664,4.664,0,0,1-1.359,1.019,1.692,1.692,0,0,1-.38.839l-.12.12a3.8,3.8,0,0,0,.719-.24,5.342,5.342,0,0,0,1.739-1.139A7.754,7.754,0,0,0,20.762,10.2a8.721,8.721,0,0,0,.859-1.878l.02-.04A.417.417,0,0,0,21.322,7.665Z" transform="translate(-2.996 -2.562)" fill="#fff"/>
      </g>
      <g id="Group_47804" data-name="Group 47804" transform="translate(8.078 11.326)">
        <path id="Path_80172" data-name="Path 80172" d="M36.716,46.515a.719.719,0,0,0-.919.18l-1.639,1.9a.957.957,0,0,1-.7.32H32.02a.925.925,0,0,1-.7-.32l-1.639-1.9a.738.738,0,0,0-.919-.18.7.7,0,0,0-.16,1.059l1.978,2.318a.84.84,0,0,1,.2.679c-.18,1.219-.739,4.956-.779,5.316a.622.622,0,0,0,.58.719c.44.08.679-.22.819-.679l.7-2.478a.666.666,0,0,1,1.279,0c.22.759.619,2.178.7,2.458.12.38.24.659.58.719.44.08.9-.14.819-.679-.06-.44-.6-4.157-.779-5.356a.84.84,0,0,1,.2-.679l1.978-2.318A.734.734,0,0,0,36.716,46.515Z" transform="translate(-28.428 -46.419)" fill="#fff"/>
      </g>
      <g id="Group_47805" data-name="Group 47805" transform="translate(10.63 9.724)">
        <path id="Path_80173" data-name="Path 80173" d="M42.959,41.917A1.759,1.759,0,1,0,41.2,40.159,1.748,1.748,0,0,0,42.959,41.917Z" transform="translate(-41.2 -38.4)" fill="#fff"/>
      </g>
    </g>
  </g>
</svg>
