<svg xmlns="http://www.w3.org/2000/svg" width="38.399" height="38.583" viewBox="229.168 238.208 38.399 38.583"><g data-name="Group 48086"><path d="m240.718 271.28-9.07 2.028s1.389-5.793 2.25-9.495a15.97 15.97 0 0 1-1.382-6.521c0-8.845 7.165-16.016 16.003-16.016 8.838 0 16.003 7.17 16.003 16.016 0 8.846-7.165 16.016-16.003 16.016-2.832 0-5.493-.737-7.8-2.029Z" fill="#25d366" fill-rule="evenodd" data-name="Union 1"/><g data-name="Group 48085"><path d="M257.165 261.33c-.478-.24-2.827-1.395-3.265-1.555-.437-.16-.756-.239-1.074.24-.319.478-1.234 1.554-1.513 1.873-.279.318-.557.358-1.035.12-.478-.24-2.017-.744-3.842-2.372-1.42-1.267-2.379-2.831-2.657-3.31-.279-.478-.03-.736.21-.974.214-.214.477-.558.716-.837.239-.28.318-.479.477-.797.16-.32.08-.598-.04-.837-.119-.24-1.074-2.59-1.472-3.547-.388-.932-.782-.806-1.075-.82a19.128 19.128 0 0 0-.916-.017c-.318 0-.836.12-1.274.598-.438.478-1.672 1.634-1.672 3.985 0 2.352 1.712 4.623 1.951 4.942.239.319 3.369 5.144 8.16 7.213 1.14.493 2.03.786 2.724 1.007 1.145.363 2.186.312 3.01.189.917-.137 2.826-1.156 3.224-2.272.398-1.116.398-2.072.278-2.271-.119-.2-.438-.32-.915-.558Zm-8.717 11.901h-.006a15.868 15.868 0 0 1-8.088-2.215l-.58-.344-6.015 1.577 1.605-5.864-.377-.6a15.852 15.852 0 0 1-2.43-8.458c.003-8.761 7.132-15.89 15.898-15.89a15.783 15.783 0 0 1 11.234 4.66c3 3.004 4.652 6.997 4.65 11.243-.003 8.762-7.132 15.891-15.89 15.891Zm13.525-29.416a18.995 18.995 0 0 0-13.525-5.607c-10.538 0-19.115 8.577-19.12 19.118a19.086 19.086 0 0 0 2.553 9.558l-2.713 9.908 10.136-2.659a19.101 19.101 0 0 0 9.136 2.327h.008c10.537 0 19.115-8.577 19.12-19.119a19.004 19.004 0 0 0-5.595-13.526" fill="#fff" fill-rule="evenodd" data-name="Path 95213"/></g></g></svg>