<svg xmlns="http://www.w3.org/2000/svg" width="19.904" height="20" viewBox="0 0 19.904 20">
  <g id="Group_48391" data-name="Group 48391" transform="translate(-2678.168 -228.417)">
    <path id="Union_1" data-name="Union 1" d="M4.7,15.553,0,16.6s.72-3,1.167-4.921A8.292,8.292,0,1,1,4.7,15.553Z" transform="translate(2679.453 230.007)" fill="#25d366"/>
    <g id="Group_48085" data-name="Group 48085" transform="translate(2678.168 228.417)">
      <path id="Path_95213" data-name="Path 95213" d="M178.014,177.443c-.248-.124-1.465-.723-1.692-.806s-.392-.124-.557.124-.64.806-.784.971-.289.186-.537.062a6.761,6.761,0,0,1-1.991-1.229,7.462,7.462,0,0,1-1.378-1.715c-.144-.248-.015-.382.109-.505s.248-.289.371-.434a1.688,1.688,0,0,0,.248-.413.456.456,0,0,0-.021-.434c-.062-.124-.557-1.343-.763-1.839s-.405-.417-.557-.425-.31-.009-.475-.009a.91.91,0,0,0-.66.31,2.778,2.778,0,0,0-.867,2.066,4.817,4.817,0,0,0,1.011,2.562,11.039,11.039,0,0,0,4.23,3.739,14.215,14.215,0,0,0,1.412.522,3.394,3.394,0,0,0,1.56.1,2.55,2.55,0,0,0,1.672-1.177,2.07,2.07,0,0,0,.144-1.178C178.427,177.629,178.262,177.567,178.014,177.443Zm-4.518,6.169h0a8.225,8.225,0,0,1-4.193-1.148l-.3-.179-3.118.818.832-3.04-.2-.312a8.237,8.237,0,1,1,6.978,3.86Zm7.011-15.248a9.913,9.913,0,0,0-15.6,11.958l-1.406,5.136,5.254-1.378a9.9,9.9,0,0,0,4.736,1.206h0a9.915,9.915,0,0,0,7.011-16.922" transform="translate(-163.502 -165.458)" fill="#fff" fill-rule="evenodd"/>
    </g>
  </g>
</svg>
