<svg id="Group_48388" data-name="Group 48388" xmlns="http://www.w3.org/2000/svg" width="159.88" height="28.674" viewBox="0 0 159.88 28.674">
  <g id="Group_48387" data-name="Group 48387" transform="translate(0)" fill='#FFF'>
    <path id="Path_100284" data-name="Path 100284" d="M42.2,86.957,49.082,97.1a13.266,13.266,0,0,0,.316-5.741,23.1,23.1,0,0,0-2.828-7.769,28.328,28.328,0,0,1-2.385,2.023A19.908,19.908,0,0,1,42.2,86.957" transform="translate(-34.542 -68.423)" fill="#fff"/>
    <path id="Path_100285" data-name="Path 100285" d="M8.561,11.762a14.911,14.911,0,0,1,2.985-1.915c.189-.12.37-.241.538-.371a4.047,4.047,0,0,1-.639-.531A16.749,16.749,0,0,1,8.867,6.026,3.232,3.232,0,0,1,8.84,2.1a2.892,2.892,0,0,1,.881-.725,2.4,2.4,0,0,1,1.1-.242,2.79,2.79,0,0,1,1.062.3c.126.061,1.29.782,1.288.785v.031l.311-.341a5.8,5.8,0,0,1,.451-.376A3.6,3.6,0,0,1,15.375.854c.775-.107,1.678.186,2.484,1.516a2.767,2.767,0,0,0-.5-1.143h0A2.484,2.484,0,0,0,16.793.6,1.665,1.665,0,0,0,16.63.486l0,0A1.136,1.136,0,0,0,16.47.4a2.612,2.612,0,0,0-2.627.489c-.067.055-.727.608-.674.724-.185-.4-.759-.707-1.108-.94a4.1,4.1,0,0,0-1.608-.62A2.552,2.552,0,0,0,9.34.069C7.731.481,6.472,2.241,5.908,3.7a6.675,6.675,0,0,0-.4,3.242,13.857,13.857,0,0,0,1.081,3.51,12.622,12.622,0,0,0,1.1,2.132l.069-.066q.379-.389.8-.756" transform="translate(-4.463 0)" fill="#fff"/>
    <path id="Path_100286" data-name="Path 100286" d="M14.01,17.412a3.348,3.348,0,0,1-.367-.479c.546,1.451-.882,3.409-.882,3.409a10.438,10.438,0,0,1-1.784,1.692C8.908,23.614,6.405,24.279,4.422,26A12.717,12.717,0,0,0,.268,33.9,15.6,15.6,0,0,0,.8,41.77a5.608,5.608,0,0,1,.23-1.759,13.763,13.763,0,0,1,.323-1.557A10.472,10.472,0,0,1,3.281,34.7c1.064-1.291,2.591-1.849,3.951-2.632a19.157,19.157,0,0,0,2.107-1.415c2.287-1.757,4.75-3.988,5.682-6.983a7.313,7.313,0,0,0-.305-4.892,7.893,7.893,0,0,0-.706-1.368" transform="translate(0 -13.861)" fill="#fff"/>
  </g>
  <path id="Path_100287" data-name="Path 100287" d="M136.76,17.7h13.952V19.31l-9.414,13.3h9.414v3.242H136.526V33.884l9.206-12.966H136.76Z" transform="translate(-111.8 -14.491)" fill="#fff"/>
  <path id="Path_100288" data-name="Path 100288" d="M226.413,53.057c.207,1.582,1.582,2.723,3.812,2.723a5.275,5.275,0,0,0,3.423-1.193l2.023,2a7.853,7.853,0,0,1-5.5,2.075c-4.409,0-7.028-2.723-7.028-6.82a6.4,6.4,0,0,1,6.794-6.691c4.279,0,6.95,2.645,6.457,7.91Zm6.95-2.619c-.208-1.66-1.5-2.49-3.319-2.49a3.444,3.444,0,0,0-3.579,2.49Z" transform="translate(-182.705 -36.957)" fill="#fff"/>
  <path id="Path_100289" data-name="Path 100289" d="M318.686,59.14V52.45c0-1.945-1.063-3.423-3.086-3.423a3.363,3.363,0,0,0-3.268,3.579V59.14H309.2V46.33h2.826l.208,1.737a5.766,5.766,0,0,1,4.2-1.919c3.008,0,5.42,2.256,5.42,6.276V59.14Z" transform="translate(-253.143 -37.776)" fill="#fff"/>
  <path id="Path_100290" data-name="Path 100290" d="M409.457,25.244c-.052,4.694-2.93,9.388-9.31,9.388s-9.336-4.59-9.336-9.362,3.06-9.569,9.336-9.569c6.25,0,9.362,4.8,9.31,9.543m-15.274.078c.078,2.982,1.686,6.172,5.964,6.172s5.887-3.216,5.939-6.2c.052-3.06-1.66-6.483-5.939-6.483s-6.042,3.449-5.964,6.509" transform="translate(-319.954 -12.852)" fill="#fff"/>
  <path id="Path_100291" data-name="Path 100291" d="M515.224,59.14V52.45c0-1.945-1.063-3.423-3.086-3.423a3.363,3.363,0,0,0-3.267,3.579V59.14h-3.138V46.33h2.827l.207,1.737a5.766,5.766,0,0,1,4.2-1.919c3.008,0,5.42,2.256,5.42,6.276V59.14Z" transform="translate(-414.026 -37.776)" fill="#fff"/>
  <path id="Path_100292" data-name="Path 100292" d="M598.072,56.8a6.578,6.578,0,0,1-4.927,2.023c-3.708,0-6.794-2.23-6.794-6.768s3.086-6.768,6.794-6.768a6.071,6.071,0,0,1,4.616,1.893l-2,2.1a3.883,3.883,0,0,0-2.567-1.011,3.6,3.6,0,0,0-3.682,3.786,3.483,3.483,0,0,0,3.63,3.734,3.843,3.843,0,0,0,2.8-1.063Z" transform="translate(-480.018 -37.074)" fill="#fff"/>
  <path id="Path_100293" data-name="Path 100293" d="M670.12,52.527a6.652,6.652,0,1,1-13.3,0,6.652,6.652,0,1,1,13.3,0m-10.14,0a3.486,3.486,0,1,0,6.95,0,3.611,3.611,0,0,0-3.475-3.786,3.513,3.513,0,0,0-3.475,3.786" transform="translate(-537.701 -37.542)" fill="#fff"/>
  <path id="Path_100294" data-name="Path 100294" d="M745.454,100.421a1.867,1.867,0,0,1-3.734,0,1.867,1.867,0,0,1,3.734,0" transform="translate(-607.201 -80.69)" fill="#fff"/>
  <path id="Path_100295" data-name="Path 100295" d="M778.9,19.086a1.867,1.867,0,0,1-3.734,0,1.867,1.867,0,0,1,3.734,0m-3.449,16.389h3.164V22.638h-3.164Z" transform="translate(-634.58 -14.111)" fill="#fff"/>
  <path id="Path_100296" data-name="Path 100296" d="M821.486,52.527a6.652,6.652,0,1,1-13.3,0,6.652,6.652,0,1,1,13.3,0m-10.14,0a3.486,3.486,0,1,0,6.95,0,3.611,3.611,0,0,0-3.475-3.786,3.513,3.513,0,0,0-3.475,3.786" transform="translate(-661.607 -37.542)" fill="#fff"/>
</svg>
