<svg xmlns="http://www.w3.org/2000/svg" width="23" height="19.843" viewBox="0 0 23 19.843">
  <path id="Wishlist" d="M1976.432,1785.541a6.706,6.706,0,0,0,8.894,0,6.634,6.634,0,0,1,3.164.789,6.352,6.352,0,0,1,3.39,5.57,6.144,6.144,0,0,1-.317,1.941c-.441,1.824-2.12,3.968-4.991,6.374a50,50,0,0,1-5.07,3.687l-.618.39-.618-.39a49.7,49.7,0,0,1-5.077-3.693c-2.874-2.411-4.556-4.565-5-6.4a6.091,6.091,0,0,1-.308-1.909,6.339,6.339,0,0,1,3.388-5.568A6.747,6.747,0,0,1,1976.432,1785.541Zm4.456,5.048-1.148-1.34a4.347,4.347,0,0,0-3.308-1.508,4.414,4.414,0,0,0-2.068.517,4.147,4.147,0,0,0-2.215,3.642,3.96,3.96,0,0,0,.212,1.273l.017.052.012.053c.6,2.625,5.36,6.327,8.493,8.383,3.13-2.055,7.88-5.749,8.478-8.35l.012-.051.017-.05a4.068,4.068,0,0,0,.221-1.31,4.158,4.158,0,0,0-2.221-3.645,4.378,4.378,0,0,0-5.36.991Z" transform="translate(-1969.381 -1785.041)" stroke="#fff" stroke-width="1" fill="#000"/>
</svg>
