<?xml version="1.0" encoding="utf-8"?>
<!-- Generator: Adobe Illustrator 26.0.3, SVG Export Plug-In . SVG Version: 6.00 Build 0)  -->
<svg version="1.1" id="Layer_1" xmlns="http://www.w3.org/2000/svg" xmlns:xlink="http://www.w3.org/1999/xlink" x="0px" y="0px"
	 viewBox="0 0 36.7 44" style="enable-background:new 0 0 36.7 44;" xml:space="preserve">
<style type="text/css">
	.st0{opacity:0.2;}
	.st1{fill:#6FBB34;}
	.st2{enable-background:new    ;}
	.st3{fill:#FFFFFF;}
</style>
<g id="Group_47035" transform="translate(1149 -2980.999)">
	<g id="noun-pdf-1658745" transform="translate(-1149 2981)" class="st0">
		<path id="Union_1" class="st1" d="M2.9,44C0.8,44,0,43.2,0,41.1V2.9C0,0.8,0.8,0,2.9,0H22c1.3-0.1,2.5,0.4,3.3,1.4l9.9,9.9
			c1,0.8,1.5,2.1,1.4,3.3v26.4c0,2.1-0.8,2.9-2.9,2.9H2.9z M2.6,40.7c0,0.6,0.2,0.8,0.8,0.8h30c0.6,0,0.8-0.2,0.8-0.8v-9.5H2.6
			L2.6,40.7z M2.6,3.3v14.6h31.5v-4.1c0-0.3-0.1-0.4-0.4-0.4h-7.6c-2.1,0-2.9-0.8-2.9-2.9V2.9c0-0.3-0.1-0.4-0.4-0.4H3.3
			C2.8,2.6,2.6,2.8,2.6,3.3z"/>
	</g>
	<rect id="Rectangle_88" x="-1149" y="2999" class="st1" width="34" height="13"/>
	<g class="st2">
		<path class="st3" d="M-1137.1,3007l-1.8,3h-1.5l2.6-4.2l-2.6-4.2h1.5l1.9,3l1.8-3h1.5l-2.6,4.2l2.6,4.2h-1.5L-1137.1,3007z"/>
		<path class="st3" d="M-1130.8,3001.7v7.2h2.8v1.1h-4.2v-8.3H-1130.8z"/>
		<path class="st3" d="M-1124.1,3010.1c-1.7,0-3-0.9-3-2.4h1.5c0.1,0.7,0.5,1.2,1.5,1.2c1,0,1.5-0.5,1.5-1.2c0-2-4.4-0.7-4.4-3.8
			c0-1.5,1.2-2.4,2.9-2.4c1.6,0,2.7,0.8,2.8,2.3h-1.5c0-0.6-0.5-1.1-1.4-1.1c-0.8,0-1.4,0.4-1.4,1.2c0,1.9,4.4,0.7,4.4,3.8
			C-1121.2,3008.9-1122.2,3010.1-1124.1,3010.1z"/>
	</g>
</g>
</svg>
