<svg xmlns="http://www.w3.org/2000/svg" width="12" height="11.33" viewBox="0 0 12 11.33">
  <path id="Path_100234" data-name="Path 100234" d="M19.143,19.631l1.458,2.6a.651.651,0,0,0,.459.329l2.952.567a.653.653,0,0,1,.51.445.641.641,0,0,1-.148.656L22.323,26.4a.637.637,0,0,0-.175.532l.367,2.946a.644.644,0,0,1-.271.617.664.664,0,0,1-.678.065L18.839,29.3a.657.657,0,0,0-.567,0l-2.726,1.255a.663.663,0,0,1-.678-.065.643.643,0,0,1-.271-.617l.366-2.946a.638.638,0,0,0-.175-.532l-2.051-2.171a.641.641,0,0,1-.148-.656.653.653,0,0,1,.51-.445l2.952-.567a.651.651,0,0,0,.459-.329l1.458-2.6a.675.675,0,0,1,1.174,0Z" transform="translate(-12.556 -19.29)" fill="#ffbf00" fill-rule="evenodd"/>
</svg>
