<svg xmlns="http://www.w3.org/2000/svg" width="127.634" height="22.885" viewBox="0 0 127.634 22.885">
  <g id="Group_48388" data-name="Group 48388" transform="translate(-10256 -5895.944)">
    <path id="Path_100287" data-name="Path 100287" d="M136.713,17.7h11.135v1.283L140.334,29.6h7.513V32.19H136.526V30.617l7.347-10.349h-7.161Z" transform="translate(10119.474 5880.805)" fill="#108fe5"/>
    <path id="Path_100288" data-name="Path 100288" d="M225.754,51.46c.166,1.262,1.263,2.173,3.042,2.173a4.21,4.21,0,0,0,2.732-.952l1.614,1.594a6.267,6.267,0,0,1-4.388,1.656c-3.519,0-5.609-2.173-5.609-5.443a5.106,5.106,0,0,1,5.423-5.34c3.415,0,5.547,2.111,5.154,6.313Zm5.547-2.09c-.166-1.325-1.2-1.987-2.649-1.987a2.749,2.749,0,0,0-2.856,1.987Z" transform="translate(10045.396 5857.333)" fill="#108fe5"/>
    <path id="Path_100289" data-name="Path 100289" d="M316.77,56.517v-5.34a2.434,2.434,0,0,0-2.463-2.732A2.684,2.684,0,0,0,311.7,51.3v5.216h-2.5V46.293h2.256l.166,1.387a4.6,4.6,0,0,1,3.353-1.532c2.4,0,4.326,1.8,4.326,5.009v5.361Z" transform="translate(9971.807 5856.478)" fill="#108fe5"/>
    <path id="Path_100290" data-name="Path 100290" d="M405.693,23.318c-.041,3.746-2.339,7.492-7.43,7.492s-7.451-3.663-7.451-7.472,2.442-7.637,7.451-7.637c4.988,0,7.472,3.829,7.43,7.617m-12.19.062c.062,2.38,1.345,4.926,4.76,4.926s4.7-2.567,4.74-4.947c.041-2.442-1.325-5.174-4.74-5.174s-4.822,2.753-4.76,5.195" transform="translate(9902.006 5882.517)" fill="#19ceab"/>
    <path id="Path_100291" data-name="Path 100291" d="M513.308,56.517v-5.34a2.434,2.434,0,0,0-2.463-2.732,2.684,2.684,0,0,0-2.608,2.856v5.216h-2.5V46.293h2.256l.165,1.387a4.6,4.6,0,0,1,3.353-1.532c2.4,0,4.326,1.8,4.326,5.009v5.361Z" transform="translate(9803.725 5856.478)" fill="#19ceab"/>
    <path id="Path_100292" data-name="Path 100292" d="M595.705,54.48a5.25,5.25,0,0,1-3.932,1.614,5.063,5.063,0,0,1-5.423-5.4,5.062,5.062,0,0,1,5.423-5.4,4.846,4.846,0,0,1,3.684,1.511l-1.594,1.677a3.1,3.1,0,0,0-2.049-.807,2.87,2.87,0,0,0-2.939,3.022,2.78,2.78,0,0,0,2.9,2.98,3.067,3.067,0,0,0,2.235-.849Z" transform="translate(9734.78 5857.21)" fill="#19ceab"/>
    <path id="Path_100293" data-name="Path 100293" d="M667.435,51.181a5.309,5.309,0,1,1-5.34-5.319,5.158,5.158,0,0,1,5.34,5.319m-8.093,0a2.782,2.782,0,1,0,5.547,0,2.882,2.882,0,0,0-2.774-3.022,2.8,2.8,0,0,0-2.773,3.022" transform="translate(9674.517 5856.722)" fill="#19ceab"/>
    <path id="Path_100294" data-name="Path 100294" d="M744.7,100.048a1.49,1.49,0,0,1-2.98,0,1.49,1.49,0,0,1,2.98,0" transform="translate(9601.906 5811.643)" fill="#108fe5"/>
    <path id="Path_100295" data-name="Path 100295" d="M778.147,18.713a1.49,1.49,0,0,1-2.98,0,1.49,1.49,0,0,1,2.98,0m-2.753,13.08h2.525V21.548h-2.525Z" transform="translate(9573.302 5881.202)" fill="#108fe5"/>
    <path id="Path_100296" data-name="Path 100296" d="M818.8,51.181a5.309,5.309,0,1,1-5.34-5.319,5.158,5.158,0,0,1,5.34,5.319m-8.093,0a2.782,2.782,0,1,0,5.547,0,2.882,2.882,0,0,0-2.774-3.022,2.8,2.8,0,0,0-2.773,3.022" transform="translate(9545.066 5856.722)" fill="#108fe5"/>
    <rect id="Rectangle_8876" data-name="Rectangle 8876" width="127.634" height="22.885" transform="translate(10256 5895.944)" fill="none"/>
  </g>
</svg>
