<svg xmlns="http://www.w3.org/2000/svg" width="98" height="98" viewBox="0 0 98 98">
  <g id="Group_72" data-name="Group 72" transform="translate(-285 -297)">
    <rect id="Rectangle_3" data-name="Rectangle 3" width="98" height="98" rx="49" transform="translate(285 297)" fill="#19ceab"/>
    <g id="Group_37" data-name="Group 37" transform="translate(304.416 324.667)">
      <path id="Path_7" data-name="Path 7" d="M-1031.509,236.041a5.668,5.668,0,0,1-1.8,2.868q-12.976,12.948-25.927,25.921a3.741,3.741,0,0,1-4.117,1.116,4.441,4.441,0,0,1-1.595-1.009q-6.628-6.565-13.2-13.184a3.771,3.771,0,0,1,.3-5.843,3.823,3.823,0,0,1,5.121.534q5.081,5.069,10.149,10.153a4.675,4.675,0,0,1,.4.572,5.605,5.605,0,0,1,.4-.544q11.785-11.792,23.572-23.579a3.781,3.781,0,0,1,4.04-1.124,3.689,3.689,0,0,1,2.561,2.786c.027.1.065.2.1.306Z" transform="translate(1084.956 -227.726)" fill="#fff"/>
    </g>
  </g>
</svg>
